<?xml  version="1.0" encoding="UTF-8"?>
<!DOCTYPE svg PUBLIC "-//W3C//DTD SVG 1.0//EN" "http://www.w3.org/TR/2001/REC-SVG-20010904/DTD/svg10.dtd" >
<svg xmlns="http://www.w3.org/2000/svg" >
<metadata>
<version>1.0</version>
<id><![CDATA[Legacy Serif ITC W01 Bk Cn It]]></id>
<vendor>Monotype Imaging Inc.</vendor>
<credits>
<name>Fonts.com WebFonts</name>
<URL>http://webfonts.fonts.com</URL>
<role>Home of the Web fonts</role>
</credits>
<license>
<URL>http://webfonts.fonts.com/Legal</URL>
</license>
<copyright><![CDATA[Copyright 2009 International Typeface Corporation. All rights reserved.]]></copyright>
<trademark><![CDATA[ITC Legacy is a trademark of International Typeface Corporation registered in the U.S. Patent & Trademark Office and may be registered in certain jurisdictions.]]></trademark>
<licensee>
<name></name>
</licensee>
</metadata>
<defs >
<font horiz-adv-x="867" id="0c5b0a1d-7183-44b8-8c38-6c3418b9e2c9">
<font-face font-family="" panose-1="2 2 5 6 6 4 8 9 3 3" ascent="1763" descent="-559" units-per-em="2048" alphabetic="0">
</font-face>
<missing-glyph horiz-adv-x="0" />

<glyph unicode="&#xA;" />
<glyph unicode="&#xD;" horiz-adv-x="0" />
<glyph unicode=" " horiz-adv-x="332" />
<glyph unicode="!" horiz-adv-x="520" d="M369 780Q352 719 340 673T319 591T302 525T289 464T275 399T260 322Q258 313 248 311L240 309Q237 307 234 307T229 307Q225 307 225 313Q225 315 227 328T229 344Q238 393 243 432T252 514T261 614T274 754Q285 869 294 957T310 1108T324 1212T336 1272Q354 1335 440 1335Q483 1335 483 1288Q483 1268 474 1220T450 1103T414 951T369 780ZM184 -25Q169 -25 154 -17T127 5T108 35T100 68Q100 85 108 102T128 133T156 155T186 164Q200 164 215 156T243 134T264 103T272 70Q272 54 264 37T243 7T215 -16T184 -25Z"  />
<glyph unicode="&quot;" horiz-adv-x="860" d="M303 793Q297 793 291 795T285 805Q285 811 286 817T289 829Q309 920 315 1012T332 1198Q333 1210 336 1227T344 1262T356 1295T373 1317Q382 1323 401 1325T432 1327Q452 1327 468 1320T485 1288Q485 1269 476 1234T453 1161T426 1087T403 1032Q382 978 363 925T330 815Q327 801 323 797T303 793ZM584 793Q577 793 571 795T565 805Q565 811 566 817T569 829Q589 920 596 1012T612 1198Q613 1210 616 1227T624 1262T636 1295T653 1317Q663 1323 682 1325T713 1327Q733 1327 749 1320T766 1288Q766 1269 757 1234T734 1161T707 1087T684 1032Q662 978 643 925T610 815Q607 801 603 797T584 793Z"  />
<glyph unicode="#" horiz-adv-x="860" d="M868 805Q850 805 826 807T782 809H678L612 514H672Q707 514 741 516T811 518Q816 518 821 517T827 510Q827 508 824 496T816 470T808 443T803 426Q803 423 802 416T795 408Q788 408 781 409T766 410Q721 410 677 410T588 412Q565 312 543 211T502 10Q499 -2 488 -6T438 -10Q432 -10 431 -8T430 0Q430 6 434 25T444 66T455 107T463 135L496 266Q505 301 514 337T528 412H303Q299 397 293 369T279 305T263 228T245 147T229 71T215 6Q214 1 212 -2T204 -7T186 -9T154 -10Q143 -10 143 -2Q143 1 144 5T147 16Q172 115 196 213T244 412Q193 412 143 411T41 410Q33 410 31 411T29 414Q29 418 32 432T40 463T50 494T57 512Q63 518 72 518Q121 518 169 516T266 514Q283 588 301 662T336 811H274Q237 811 201 809T127 807Q122 807 119 808T115 815L121 836Q124 847 128 860T135 885Q138 897 141 908T160 920H182Q216 920 258 918T358 911Q371 967 383 1022T408 1133Q417 1188 424 1227T436 1290Q439 1304 451 1307T498 1311Q501 1311 504 1311T508 1305Q508 1301 506 1287T499 1254T491 1217T483 1184Q466 1115 449 1047T416 911H645Q665 1007 687 1100T725 1290Q727 1300 728 1302T741 1307Q752 1309 762 1310T784 1311Q787 1311 791 1311T795 1305Q795 1295 792 1285T786 1266Q766 1176 744 1089T702 911Q752 911 802 914T901 918Q907 918 912 917T918 909Q918 907 914 892T904 858T893 825T887 809Q885 805 868 805ZM393 811Q382 777 375 742T360 672L324 514Q356 514 387 513T451 512Q477 512 503 513T555 514Q567 589 586 663T621 811H393Z"  />
<glyph unicode="$" horiz-adv-x="860" d="M780 985Q780 971 775 967T752 963H743L739 969Q737 972 737 978T737 987Q737 1026 733 1060T716 1122T678 1169T610 1200L508 694Q566 636 608 589T676 500T714 417T727 330Q727 286 716 244T683 163T631 94T561 41Q515 15 463 8T358 0L328 -205Q327 -210 326 -212T320 -216T306 -218T279 -219Q274 -219 274 -215Q274 -213 277 -202T281 -188L315 2Q267 7 221 17T129 39Q126 39 121 41T113 43Q105 43 98 40T84 35Q82 33 78 33Q73 33 71 39T68 49Q68 58 69 83T74 142T80 211T87 278T94 332T100 360Q103 367 107 368T117 369Q135 369 141 363T147 346Q147 340 146 333T145 317Q145 263 152 221T179 147T234 96T328 66L432 598Q388 640 350 679T283 758T238 840T221 930Q221 1000 244 1061T309 1167T410 1238T541 1264H571L600 1419Q602 1427 604 1430T614 1434H645Q651 1434 652 1433T653 1430Q653 1426 652 1421T649 1409L618 1260Q649 1255 678 1249T737 1231Q742 1229 747 1227T758 1225Q769 1225 780 1232T805 1239Q809 1239 809 1231Q809 1228 807 1218T803 1196Q799 1174 795 1141T788 1076T782 1018T780 985ZM342 981Q342 944 353 911T382 848T422 791T469 737L561 1204Q527 1202 498 1197T440 1174Q391 1143 367 1091T342 981ZM371 63Q423 64 465 80T538 126T585 198T602 293Q602 339 593 374T567 440T525 500T471 563L371 63Z"  />
<glyph unicode="%" horiz-adv-x="1245" d="M891 -10Q848 -10 811 11T747 68T705 155T690 262Q690 348 713 426T777 562T871 655T985 690Q1028 690 1064 672T1125 621T1165 543T1180 442Q1180 352 1157 270T1093 126T1001 27T891 -10ZM1012 1141Q944 1039 868 920T707 661T528 362T328 18Q321 6 317 -2T307 -16Q301 -29 295 -35Q287 -45 276 -45Q268 -45 259 -40T243 -28T230 -11T225 6Q225 15 231 28T254 63Q324 165 396 274T545 506T709 771T893 1079Q863 1064 840 1055T796 1041T753 1034T702 1032Q675 1032 659 1034T616 1042Q618 1031 618 1023T618 1010Q618 981 614 948T603 882T586 817T563 758Q523 667 462 616T326 565Q282 565 247 584T186 637T147 720T133 827Q133 918 155 997T218 1135T312 1228T428 1262Q468 1262 505 1245T563 1196Q571 1184 581 1165T602 1126Q634 1106 662 1099T729 1092Q789 1092 838 1110T948 1174Q954 1183 957 1188T969 1206L999 1257Q1018 1286 1028 1298T1051 1311Q1069 1311 1083 1297T1098 1262Q1098 1234 1077 1203T1012 1141ZM526 1098Q513 1111 505 1120T491 1139T481 1158T473 1182Q461 1188 452 1190T432 1192Q396 1192 362 1159T302 1069T260 941T244 793Q244 715 269 672T340 629Q376 629 410 663T471 752T514 879T530 1026Q530 1045 530 1061T526 1098ZM993 621Q958 621 924 592T864 506Q835 440 819 364T803 219Q803 145 829 100T897 55Q940 55 978 94T1042 205Q1053 236 1062 271T1079 341T1090 410T1094 473Q1094 505 1086 532T1065 579T1033 610T993 621Z"  />
<glyph unicode="&amp;" horiz-adv-x="1528" d="M1470 698Q1447 698 1422 714T1380 745Q1351 767 1320 791T1255 836Q1234 850 1211 861T1165 879Q1184 845 1194 804T1204 702Q1204 639 1190 580T1153 461Q1118 370 1057 283T915 128T739 17T541 -25Q449 -25 370 9T232 107T140 265T106 475Q106 534 116 583T141 682Q157 730 185 784T253 885T342 962T449 993Q501 993 535 959T571 874Q571 866 570 858T569 842Q627 913 664 963T723 1049T752 1106T760 1145Q760 1165 755 1185T750 1227Q750 1240 754 1253T767 1276T787 1292T813 1298Q829 1298 839 1291T856 1272T864 1247T866 1221Q866 1189 860 1164T842 1116Q826 1083 797 1042T730 955T650 864T568 776T491 696T430 633Q318 518 203 397Q222 331 253 278T327 187T427 129T555 109Q622 109 681 125T794 172T894 243T985 334Q1020 374 1051 421T1104 520T1140 626T1153 735Q1153 765 1147 793T1127 844T1090 881T1032 895Q1000 895 963 881T894 844T841 789T819 723Q819 701 833 694T864 681T895 661T909 614Q909 599 904 585T890 560T868 542T840 535Q817 535 802 548T777 580T764 622T760 662Q760 730 786 794T858 908T965 988T1098 1018Q1157 1018 1210 997T1311 946Q1340 928 1365 910T1412 876T1449 852T1475 842Q1485 842 1491 849T1500 866T1504 886T1505 905Q1505 937 1495 951T1470 973Q1463 977 1457 981T1445 990T1436 1004T1432 1024Q1432 1034 1436 1045T1446 1065T1462 1079T1483 1085Q1506 1085 1518 1071T1536 1038T1543 996T1544 958Q1544 945 1543 925T1541 882T1537 833T1530 786Q1524 748 1509 723T1470 698ZM393 868Q358 868 329 852T277 808T237 747T209 676T192 604T186 541Q186 522 188 502T195 451Q230 485 280 537T395 657Q408 671 421 684T446 712T464 744T471 784Q471 819 450 843T393 868Z"  />
<glyph unicode="&apos;" horiz-adv-x="580" d="M303 793Q297 793 291 795T285 805Q285 811 286 817T289 829Q309 920 315 1012T332 1198Q333 1210 336 1227T344 1262T356 1295T373 1317Q382 1323 401 1325T432 1327Q452 1327 468 1320T485 1288Q485 1269 476 1234T453 1161T426 1087T403 1032Q382 978 363 925T330 815Q327 801 323 797T303 793Z"  />
<glyph unicode="(" horiz-adv-x="573" d="M643 1356Q595 1303 548 1236T457 1093T376 935T309 770Q261 636 237 482T213 166Q213 -32 246 -193T348 -487Q348 -489 349 -490T350 -494Q350 -499 341 -509T326 -520Q321 -520 307 -498T266 -424Q192 -277 154 -116T115 219Q115 562 254 881Q281 943 317 1008T395 1135T485 1254T580 1360Q601 1380 612 1390T627 1401Q628 1401 632 1397T640 1387T648 1376T651 1368Q650 1367 649 1365Q647 1362 643 1356Z"  />
<glyph unicode=")" horiz-adv-x="573" d="M115 -342Q90 -373 62 -404T10 -461T-33 -503T-55 -520Q-57 -520 -60 -516T-68 -507T-75 -496T-78 -487Q-78 -485 -78 -483T-72 -475Q37 -351 121 -205T264 111Q311 244 335 399T360 715Q360 913 327 1074T225 1366Q223 1370 223 1371V1374Q223 1379 232 1390T246 1401Q252 1401 267 1376T305 1305Q384 1151 420 993T457 662Q457 524 435 390T369 127T262 -119T115 -342Z"  />
<glyph unicode="*" horiz-adv-x="860" d="M834 879Q827 879 820 881T807 885Q744 900 681 919T555 958Q581 916 603 875T651 799Q657 790 668 775T690 742T709 708T717 680Q717 668 709 657T689 638T664 626T639 621Q627 621 623 622T612 635Q609 640 605 652T598 679T591 707T586 727L532 948Q511 899 488 850T442 752Q438 743 432 726T418 692T399 662T377 649Q366 649 353 655T327 671T307 693T299 717Q299 725 300 729T307 739Q320 756 335 771T365 803L506 963Q456 958 408 956T309 948Q291 946 273 944T236 942Q210 942 199 959T188 999Q188 1031 199 1051T244 1071Q248 1071 268 1066T316 1052T376 1035T437 1016T487 1001T514 993Q485 1038 458 1083T401 1174Q384 1197 374 1212T358 1239T350 1258T348 1272Q348 1284 356 1294T377 1312T403 1324T428 1329Q444 1329 452 1319T467 1280Q473 1251 481 1217T500 1147T519 1075T537 1004Q558 1053 580 1102T623 1200Q627 1209 633 1226T647 1261T666 1290T690 1303Q702 1303 715 1297T739 1281T758 1259T766 1235Q766 1218 752 1204T727 1178Q682 1133 643 1085T559 989Q602 992 647 995T735 1004Q781 1010 827 1010Q855 1010 867 994T879 952Q879 943 877 931T870 907T856 887T834 879Z"  />
<glyph unicode="+" horiz-adv-x="860" d="M512 598V270H416V598H96V696H416V1024H512V696H831V598H512Z"  />
<glyph unicode="&#x2c;" horiz-adv-x="381" d="M-143 -358L-147 -356Q-81 -341 -28 -315T64 -254T122 -175T143 -82Q143 -42 130 -20T82 23Q50 40 42 55T33 88Q33 100 40 114T58 139T82 158T106 166Q128 166 149 154T188 116T215 51T225 -41Q225 -91 210 -137T165 -223T94 -295T0 -348Q-12 -352 -30 -357T-68 -367T-104 -375T-127 -379Q-130 -379 -130 -378T-133 -375L-145 -360L-143 -358Z"  />
<glyph unicode="-" horiz-adv-x="553" d="M459 426H66L92 539H487L459 426Z"  />
<glyph unicode="." horiz-adv-x="381" d="M123 -25Q108 -25 93 -17T66 5T47 35T39 68Q39 85 47 102T67 133T95 155T125 164Q140 164 155 156T182 134T203 103T211 70Q211 54 203 37T183 7T154 -16T123 -25Z"  />
<glyph unicode="/" horiz-adv-x="768" d="M-158 -371Q-17 -117 105 103T336 516Q445 712 554 910T774 1317H854Q791 1206 738 1113T636 934T542 767T448 598T346 413T229 200T88 -57T-84 -371H-158Z"  />
<glyph unicode="0" horiz-adv-x="860" d="M657 170Q594 71 523 24T365 -23Q301 -23 250 5T164 88T109 219T90 395Q90 491 104 592T143 791T203 973T281 1124Q344 1218 420 1267T584 1317Q644 1317 693 1288T777 1204T831 1073T850 901Q850 806 836 705T795 507T734 323T657 170ZM571 1260Q542 1260 513 1243T455 1195T402 1120T356 1022Q327 944 302 851T259 662T230 476T219 315Q219 181 257 108T367 35Q433 35 491 102T592 293Q620 374 643 466T683 649T709 824T719 973Q718 1039 708 1092T679 1182T633 1240T571 1260Z"  />
<glyph unicode="1" horiz-adv-x="860" d="M469 111Q469 104 470 96T473 82Q476 72 484 66T513 55T569 47T662 41Q668 41 674 39T680 29Q680 13 676 4T655 -6Q647 -6 639 -5T623 -4Q512 2 401 2Q277 2 154 -4Q143 -4 133 -5T111 -6Q104 -6 100 -5T96 2Q96 8 98 21T104 37Q107 39 125 41T165 45T208 48T236 51Q267 55 286 64T318 89T337 127T350 178Q370 266 384 355T416 535L455 748Q464 799 474 849T494 950Q498 972 502 994T509 1035T514 1070T516 1094Q516 1115 510 1125T481 1135Q460 1135 435 1127T386 1109T340 1090T307 1079Q303 1083 303 1090Q303 1095 303 1102T305 1114Q307 1117 310 1119T317 1124Q358 1143 398 1164T479 1206Q527 1231 571 1258T662 1313Q665 1315 669 1317T676 1319Q682 1319 686 1312T692 1300Q692 1295 691 1290T688 1280Q657 1147 630 1015T578 748Q553 613 529 480T481 213Q476 188 473 163T469 111Z"  />
<glyph unicode="2" horiz-adv-x="860" d="M371 115Q389 115 426 115T505 116T580 121T627 131Q642 139 657 166T687 224T711 277T727 301Q733 301 744 298T756 285Q756 281 754 274T748 258T742 241T737 227Q725 190 714 153T692 78Q689 65 686 51T678 25Q670 3 660 0T629 -4Q611 -4 585 -4T521 -2T435 -1T322 0Q268 0 214 0T106 -2Q82 -4 57 -5T6 -6Q1 -6 -3 -2T-10 10T-14 23T-16 35Q-16 45 -6 55Q108 174 216 295T434 539Q492 603 536 658T610 769T655 886T670 1024Q670 1068 659 1105T624 1169T567 1211T485 1227Q434 1227 390 1207T311 1153T248 1078T201 993H186V1040Q186 1054 188 1063T197 1085Q219 1130 256 1173T339 1250T438 1304T543 1325Q604 1325 652 1304T732 1244T782 1155T799 1044Q799 968 778 900T722 768T640 648T543 537Q440 428 334 323T119 115H371Z"  />
<glyph unicode="3" horiz-adv-x="860" d="M641 856Q628 846 614 836T579 812T529 782T459 741H494Q549 741 593 722T667 667T714 580T731 465Q731 367 690 279T580 123T419 15T225 -25Q186 -25 151 -15T89 12T47 51T31 98Q31 113 38 125T56 147T81 161T106 166Q114 166 126 160T152 133Q179 92 230 78T338 63Q408 63 459 95T542 180T590 298T606 432Q606 497 592 540T551 610T486 648T399 659Q382 659 357 653T315 641Q295 634 283 627Q277 623 272 621Q267 621 263 633T258 653Q258 658 259 660T268 668Q279 674 298 684T354 717Q493 795 566 875T639 1047Q639 1093 627 1126T594 1181T544 1213T479 1223Q450 1223 419 1212T356 1181T297 1130T246 1063H233L236 1112Q236 1121 238 1127T246 1143Q305 1228 385 1274T547 1321Q599 1321 640 1304T709 1257T753 1186T768 1094Q768 1028 736 968T641 856Z"  />
<glyph unicode="4" horiz-adv-x="860" d="M504 354H20Q15 354 14 354T12 360Q15 379 19 398T25 430Q27 435 30 440T47 465L637 1190Q660 1219 682 1248T727 1307Q730 1310 733 1312T741 1315Q744 1315 746 1315T752 1311L782 1286Q791 1277 791 1272Q791 1270 787 1256T780 1225Q751 1085 720 889T639 446H752Q794 446 813 448T838 453L844 446L817 373Q812 359 806 357T791 354H621L559 12Q557 1 554 -1T543 -4Q502 -8 484 -10T458 -13T450 -14T442 -16L436 -8L504 354ZM522 446Q537 528 552 609T582 774T614 944T647 1122Q555 1005 479 910T336 734T212 583T102 446H522Z"  />
<glyph unicode="5" horiz-adv-x="860" d="M412 1182Q409 1176 400 1156T379 1108T354 1049T330 991T312 945T305 920Q305 910 317 902T336 891Q389 860 439 828T537 756Q574 724 605 688T660 611T697 525T711 428Q711 345 680 264T593 120T462 17T299 -23Q273 -23 244 -18T187 -3T135 24T94 61Q80 80 66 104T51 154Q51 167 57 178T74 197T98 210T123 215Q143 215 152 202T168 172Q196 106 243 84T360 61Q428 61 474 84T548 148T588 242T600 356Q600 447 562 518T459 649Q412 691 359 728T250 793Q242 796 235 799T221 809Q219 811 219 814T219 819Q219 824 220 827T223 836Q268 944 307 1052T389 1270Q394 1281 398 1293T416 1305Q436 1305 506 1303T690 1300Q716 1300 732 1301T759 1304T776 1311T788 1321Q793 1326 797 1326T807 1327Q812 1327 816 1326T821 1319Q821 1317 818 1307T811 1286Q800 1251 789 1226T772 1194Q761 1185 743 1182T686 1178H586Q542 1178 499 1179T412 1182Z"  />
<glyph unicode="6" horiz-adv-x="860" d="M881 1264Q868 1264 855 1267T829 1270Q742 1270 668 1231T534 1130T428 993T350 846Q240 596 240 319Q240 281 247 231T274 137T327 62T410 31Q461 31 500 56T567 121T615 213T645 318T661 422T666 512Q666 554 659 593T634 663T584 712T502 731Q455 731 418 714T344 670L340 674V692Q340 706 345 713T360 729Q410 769 462 787T578 805Q644 805 687 780T756 714T792 619T803 510Q803 450 792 387T757 265T700 153T620 61T517 -2T391 -25Q307 -25 252 6T164 90T118 210T104 350Q104 450 124 553T181 756T273 945T397 1110Q440 1156 495 1198T612 1272T739 1324T870 1343Q896 1343 904 1335T913 1298Q913 1264 881 1264Z"  />
<glyph unicode="7" horiz-adv-x="860" d="M944 1245Q941 1240 836 1058T514 516Q460 426 404 331T293 143Q265 97 246 62T215 0Q201 -32 193 -39T170 -47Q160 -47 150 -42T131 -29T117 -12T111 8Q111 14 113 18Q118 23 123 33Q131 44 146 66T188 131Q254 231 328 349T484 600T653 877T836 1174H573Q466 1174 411 1172T338 1167Q327 1165 316 1160T293 1142T269 1105T242 1040Q240 1037 238 1032T231 1026Q219 1026 212 1032T205 1044Q205 1053 207 1057Q212 1074 216 1090T229 1135Q236 1162 245 1198T264 1276Q267 1291 271 1295T293 1300Q339 1300 403 1299T543 1298Q621 1298 687 1299T804 1300T887 1302T932 1303Q945 1303 948 1292L952 1280Q954 1277 954 1274T954 1268Q954 1265 950 1258T944 1245Z"  />
<glyph unicode="8" horiz-adv-x="860" d="M733 817Q717 801 699 786T658 756T606 725T539 688L586 635Q603 615 618 598T649 563Q672 536 690 511T721 458T741 399T748 330Q748 253 720 188T643 76T524 2T373 -25Q299 -25 241 -5T143 53T82 147T61 272Q61 336 82 391T145 494T250 585T397 668Q346 726 314 767T263 842T238 907T231 977Q231 1049 257 1112T328 1222T436 1296T569 1323Q632 1323 681 1304T763 1249T813 1165T831 1057Q831 992 807 930T733 817ZM553 1262Q514 1262 479 1242T416 1188T372 1109T356 1014Q356 980 362 951T384 888T431 815T510 719Q611 786 659 865T707 1049Q707 1097 697 1136T666 1204T618 1247T553 1262ZM426 637Q310 575 250 481T190 268Q190 217 205 174T246 100T308 51T387 33Q435 33 477 53T550 110T600 194T618 297Q618 334 609 370T577 447T517 534T426 637Z"  />
<glyph unicode="9" horiz-adv-x="860" d="M72 -45Q46 -45 38 -34T29 4Q29 24 36 34T63 45Q80 45 96 40T129 35Q147 35 162 35T191 38T219 44T250 55Q311 80 363 123T458 220T536 332T596 449Q652 575 677 707T702 977Q702 1017 695 1066T670 1159T618 1232T532 1262Q482 1262 444 1239T378 1177T330 1089T298 990T281 891T276 805Q276 764 283 724T308 652T359 600T440 580Q487 580 524 597T598 641L602 637V618Q602 604 597 597T582 582Q532 543 480 525T365 506Q300 506 257 530T188 594T150 686T139 795Q139 854 150 916T185 1036T243 1147T323 1237T426 1298T551 1321Q635 1321 690 1288T778 1201T823 1078T836 938Q836 837 817 735T760 535T669 350T545 186Q503 141 448 100T330 26T202 -26T72 -45Z"  />
<glyph unicode=":" horiz-adv-x="381" d="M252 666Q238 666 224 674T197 696T178 727T170 760Q170 777 178 794T199 825T227 847T256 856Q270 856 285 848T312 826T332 795T340 762Q340 745 332 728T312 697T283 675T252 666ZM121 -25Q106 -25 91 -16T64 7T45 38T37 72Q37 88 45 105T66 135T94 157T123 166Q137 166 152 158T179 136T199 105T207 72Q207 55 199 38T179 7T151 -16T121 -25Z"  />
<glyph unicode=";" horiz-adv-x="381" d="M252 666Q238 666 224 674T197 696T178 727T170 760Q170 777 178 794T199 825T227 847T256 856Q271 856 286 848T313 826T332 795T340 762Q340 745 332 728T312 697T283 675T252 666ZM-143 -358L-147 -356Q-81 -341 -28 -315T64 -254T122 -175T143 -82Q143 -42 130 -20T82 23Q50 40 42 55T33 88Q33 100 40 114T58 139T82 158T106 166Q128 166 149 154T188 116T215 51T225 -41Q225 -91 210 -137T165 -223T94 -295T0 -348Q-12 -352 -30 -357T-68 -367T-104 -375T-127 -379Q-130 -379 -130 -378T-133 -375L-145 -360L-143 -358Z"  />
<glyph unicode="&lt;" horiz-adv-x="860" d="M86 604V690L784 1053V942L209 649L784 352V242L86 604Z"  />
<glyph unicode="=" horiz-adv-x="860" d="M96 723V819H831V723H96ZM96 479V575H831V479H96Z"  />
<glyph unicode="&gt;" horiz-adv-x="860" d="M106 242V352L684 645L106 942V1053L805 688V604L106 242Z"  />
<glyph unicode="?" horiz-adv-x="692" d="M610 793Q592 773 572 754T532 717Q512 700 493 685T459 653Q409 609 377 579T326 525T300 481T293 438Q293 395 328 365T426 322V317L412 295Q409 290 407 289T397 287Q362 287 327 300T263 337T217 395T199 471Q199 505 210 537T248 605T319 684T430 784Q485 831 521 867T578 934T607 991T616 1044Q616 1077 605 1106T573 1158T519 1193T444 1206Q410 1206 377 1199T309 1169Q295 1161 288 1160T274 1159Q256 1159 241 1180T225 1229Q226 1246 239 1262T273 1291T321 1311T379 1319Q437 1319 494 1292T596 1218T668 1111T696 987Q696 930 671 883T610 793ZM250 -25Q235 -25 220 -17T193 5T174 35T166 68Q166 85 174 102T194 133T222 155T252 164Q266 164 281 156T308 134T328 103T336 70Q336 54 328 37T308 7T280 -16T250 -25Z"  />
<glyph unicode="@" horiz-adv-x="1382" d="M895 293Q872 293 850 296T811 308T783 333T772 377Q772 402 787 456T834 588L825 592Q804 553 772 501T700 403T612 325T512 293Q455 293 426 329T397 420Q397 490 429 561T510 696T618 813T733 903Q781 934 833 958T942 997Q950 1022 964 1035T1004 1049Q1018 1049 1033 1044T1049 1020Q1049 1011 1046 1000T1039 977T1031 954T1024 936Q1016 912 1003 870T973 777T940 670T910 563T888 471T879 406Q879 383 894 375T930 367Q988 367 1033 389T1113 449T1172 536T1211 638T1234 744T1241 844Q1241 931 1215 1005T1140 1134T1020 1218T858 1249Q757 1249 669 1213T510 1114T385 971T299 799Q273 724 261 649T248 496Q248 388 280 306T371 168T515 84T705 55Q774 55 832 64T944 92T1049 137T1157 199Q1159 201 1161 201T1165 201Q1167 201 1169 195T1174 182T1177 167T1178 156Q1178 154 1175 151T1166 144T1157 137T1151 133Q1045 61 925 19T674 -23Q552 -23 450 11T275 112T160 276T119 500Q119 605 144 706T217 899T331 1067T482 1200T664 1287T872 1319Q977 1319 1065 1287T1218 1194T1319 1047T1356 854Q1356 785 1341 717T1296 586T1223 470T1122 375Q1071 340 1015 317T895 293ZM834 874Q796 874 758 856T685 806T619 735T567 653T531 569T518 492Q518 464 529 441T573 418Q602 418 636 441T704 500T771 582T828 673T868 759T883 827Q883 850 870 862T834 874Z"  />
<glyph unicode="A" horiz-adv-x="1069" d="M1028 27Q1028 25 1027 19T1024 8Q1021 -3 1017 -4T1001 -6Q995 -6 986 -6T967 -4Q956 -3 946 -2Q917 0 887 1T827 2Q743 2 664 -4Q657 -5 651 -5Q646 -6 641 -6T631 -6Q620 -6 616 -3T612 8V18Q615 35 621 37Q624 40 629 40T639 41H657Q696 41 723 45T762 63Q770 73 772 87T774 121Q774 132 774 145T772 174Q764 253 753 332T733 492H354Q322 427 294 366T236 242Q217 201 204 163T190 94Q190 75 197 63Q203 53 218 48T253 41T291 38T322 37H328H338Q340 37 342 37T346 35Q350 31 350 27Q350 25 349 22T348 16Q345 1 343 -2T326 -6H311Q256 -6 205 -4T100 -2Q83 -2 66 -3T31 -4Q21 -5 11 -5Q3 -6 -6 -6T-20 -6Q-30 -6 -33 -5T-37 6V14Q-35 28 -34 31T-23 35Q-6 35 13 42T45 61Q56 70 68 86T94 128T127 187T168 268Q292 514 380 692T526 991T616 1182T659 1282Q663 1290 665 1293T674 1300Q682 1302 693 1306T713 1313Q722 1316 732 1320T750 1325Q759 1325 762 1303Q787 1099 817 861T885 344Q894 281 900 235T911 154Q918 120 923 99T936 63Q941 53 948 49T964 42T985 40T1012 39Q1023 39 1025 36T1028 27ZM653 1137Q601 1028 565 950T499 807T441 681T379 545H727Q719 609 710 681T691 830T672 984T653 1137Z"  />
<glyph unicode="B" horiz-adv-x="999" d="M645 709Q702 703 749 681T831 624T885 540T905 434Q905 321 871 239T774 104T624 24T430 -2Q387 -2 344 -1T258 0Q146 0 85 -3T10 -6Q-2 -6 -2 8V18Q1 35 6 39T25 43Q52 43 71 44T103 49T124 58T141 72Q149 79 155 95T165 129T173 164T178 193Q213 397 247 599T315 1006Q323 1051 330 1096T338 1186Q338 1209 334 1223T316 1246T281 1257T221 1260Q215 1260 211 1261T207 1270Q207 1281 210 1293T227 1305Q241 1305 273 1303T348 1300Q417 1300 486 1305T625 1311Q689 1311 743 1299T838 1259T900 1183T922 1063Q922 997 902 941T845 839T757 760T645 709ZM600 1264Q568 1264 548 1262T515 1254T495 1242T483 1225Q478 1214 472 1183T460 1116T449 1047T440 997Q428 926 416 856T391 715Q468 716 522 722T616 742T681 774T727 821Q762 871 778 932T795 1053Q795 1153 749 1208T600 1264ZM385 666Q382 652 380 638T375 610Q356 505 337 401T301 190Q299 175 297 161T295 131Q295 105 300 88T321 62T362 49T430 45Q518 45 582 73T688 151T750 271T770 424Q770 464 760 501T730 568T680 620T608 653Q577 661 543 663T475 666H385Z"  />
<glyph unicode="C" horiz-adv-x="1030" d="M1057 1253Q1043 1182 1033 1118T1016 989Q1016 981 1014 974T1001 967H991Q982 967 980 974T977 999V1053Q977 1088 970 1125T938 1188Q916 1209 889 1223T833 1245T772 1257T711 1260Q632 1260 566 1231T449 1153T359 1036T295 892T257 733T244 571Q244 515 252 453T277 331T323 217T392 121T487 56T610 31Q682 31 739 52T846 127Q875 158 891 195T922 272Q924 275 925 280T932 285Q937 285 946 281T956 270Q956 265 955 260T952 250Q935 199 923 149T899 45Q896 33 892 29T874 20Q823 2 755 -11T614 -25Q482 -25 387 22T230 151T139 340T109 569Q109 670 129 764T186 942T278 1094T402 1214T554 1291T733 1319Q801 1319 868 1309T1008 1284Q1014 1282 1017 1282T1024 1282Q1030 1282 1034 1287T1044 1292H1049Q1052 1292 1057 1290T1063 1282Q1063 1280 1061 1271T1057 1253Z"  />
<glyph unicode="D" horiz-adv-x="1210" d="M463 -6Q381 -6 300 -3T137 0Q103 0 70 -3T2 -6Q-6 -6 -12 -5T-18 6Q-18 11 -17 21T-12 35Q-8 37 6 37H45Q71 37 99 45T145 84Q153 97 159 118T171 161T180 205T186 242L313 985Q321 1035 329 1087T338 1190Q338 1220 327 1234T297 1255T256 1261T209 1262Q203 1262 197 1264T190 1274Q190 1282 193 1292T207 1303Q249 1303 291 1300T375 1296Q441 1296 508 1300T641 1305Q739 1305 825 1283T989 1196Q1035 1157 1068 1107T1123 1001T1155 885T1165 766Q1165 677 1148 585T1096 407T1006 246T879 117Q788 49 682 22T463 -6ZM557 1257Q548 1257 533 1254T510 1245Q499 1237 492 1221T479 1187T471 1150T465 1120L326 317Q316 265 309 212T301 104Q301 82 309 69T333 50T374 41T434 39Q550 39 648 72T831 186Q886 239 925 306T989 448T1026 601T1038 754Q1038 854 1015 945T942 1105T813 1216T623 1257H557Z"  />
<glyph unicode="E" horiz-adv-x="961" d="M909 983Q897 983 894 986T891 995V1008Q891 1037 894 1066T897 1126Q897 1143 895 1162T883 1196Q874 1208 859 1217T808 1231T711 1238T549 1241Q521 1241 502 1235T477 1198Q452 1074 432 951T389 702Q482 702 539 703T632 709T685 721T719 741Q731 752 741 768T762 813Q770 835 775 850T788 866Q796 866 804 862T813 850Q813 842 810 833T805 815Q782 724 767 642T739 467Q737 461 736 455T727 449Q718 449 709 451T700 465Q700 482 701 497T702 528Q702 547 701 569T688 606Q678 620 662 628T612 639T523 644T379 645Q363 555 350 467T322 289Q314 242 308 193T301 96Q301 84 309 76Q314 72 325 70T361 65T427 62T532 61Q560 61 587 62T641 69T693 86T739 119Q776 156 802 205T842 303Q844 308 844 313T848 324Q853 332 864 332Q885 332 885 311Q885 295 875 257T851 174T824 90T803 31Q797 15 792 5T766 -6Q730 -6 691 -5T602 -3T489 0T342 2Q285 2 229 1T117 -2Q88 -2 59 -4T2 -6Q-4 -6 -8 -4T-12 6Q-12 26 -7 31T16 37Q44 37 75 40T129 61Q146 75 153 95T166 137Q192 265 213 393T256 651Q273 750 290 847T324 1044Q330 1079 334 1114T338 1184Q338 1196 337 1212T328 1239Q322 1248 307 1252T275 1258T241 1260T215 1262Q207 1262 202 1263T197 1274Q197 1291 200 1297T221 1303Q231 1303 256 1302T318 1299T404 1296T510 1294Q580 1294 649 1295T781 1298T894 1301T979 1303Q995 1303 995 1290Q995 1282 994 1277T991 1266Q970 1200 954 1133T928 999Q926 990 923 987T909 983Z"  />
<glyph unicode="F" horiz-adv-x="881" d="M987 1266Q979 1241 970 1204T952 1129T936 1056T926 1001Q924 989 921 984T907 979Q895 979 892 984T889 1001V1042Q889 1117 875 1160T821 1223Q812 1227 802 1229T774 1233T732 1236T666 1237H565Q538 1237 522 1236T496 1230T482 1218T475 1198L387 686Q446 686 476 687T512 688Q557 688 591 689T649 693T690 703T717 721Q725 729 732 738T745 759T759 788T774 831Q779 846 791 846Q793 846 795 846T803 844Q808 842 810 840T813 831Q813 822 808 803T799 766Q790 726 783 693T769 628T757 562T745 485Q745 483 743 467T739 438Q737 429 733 428T721 426Q708 426 705 432Q702 434 702 440Q702 453 703 467T705 508Q705 575 686 594Q668 615 623 618Q600 622 568 622T494 623H377Q375 613 373 602T369 579Q366 567 365 553Q352 482 344 424T328 317Q315 237 309 189T303 111Q303 77 311 66Q324 47 354 42T420 37H459Q470 37 473 36T477 25V16Q477 14 477 5T471 -4Q468 -6 465 -7T455 -8Q448 -8 435 -7T395 -5T326 -2T219 0Q115 0 4 -6Q-2 -6 -7 -5T-12 8Q-12 13 -11 17T-10 27Q-7 37 0 37H12Q29 37 45 38T78 41Q93 44 106 48T129 61Q137 67 143 75T154 100T165 141T178 205Q187 257 194 296T209 382T229 490T258 651Q276 753 291 842T317 1002T334 1120T340 1182Q340 1205 335 1220T315 1245T276 1258T211 1262Q203 1262 198 1263T193 1276Q193 1278 194 1284T195 1292Q197 1300 200 1302T215 1305Q220 1305 229 1304T244 1303Q262 1302 303 1301T398 1298T512 1295T631 1294Q704 1294 757 1295T850 1298T919 1301T971 1303H977Q986 1303 988 1300T991 1290Q991 1285 991 1280T987 1266Z"  />
<glyph unicode="G" horiz-adv-x="1139" d="M1116 580Q1114 570 1107 567T1077 561Q1048 558 1035 546T1016 508Q1011 491 1007 461T995 385L967 156Q964 130 961 103T958 53Q958 33 951 28T926 18Q857 0 781 -12T633 -25Q507 -25 411 18T249 138T151 319T117 543Q117 638 133 729T184 904T273 1063T401 1200Q480 1266 574 1292T770 1319Q797 1319 828 1316T893 1308T961 1297T1028 1282Q1031 1282 1034 1281T1040 1280Q1050 1280 1057 1287T1075 1294Q1081 1294 1087 1293T1094 1282Q1094 1274 1088 1244T1075 1163Q1069 1118 1066 1073T1059 981Q1059 972 1057 964T1042 956Q1037 956 1030 957T1020 963Q1018 965 1018 987T1016 1040T1009 1100T993 1149Q974 1181 941 1201T869 1233T790 1249T715 1253Q630 1253 563 1221T445 1133T359 1007T301 857T268 701T258 553Q258 461 281 368T352 200T476 77T657 29Q702 29 731 33T780 48T809 74T827 113Q841 164 853 243T874 414Q876 431 878 448T881 483Q881 508 872 523T847 545T812 555T774 557H731Q720 557 717 561T713 575Q713 579 714 589T719 602Q720 602 723 603Q725 603 728 603T735 604Q745 604 790 603T915 602Q994 602 1044 604T1106 606Q1115 606 1116 604T1118 596Q1118 594 1117 588T1116 580Z"  />
<glyph unicode="H" horiz-adv-x="1282" d="M1004 106Q1004 76 1016 62T1047 43T1090 37T1137 35Q1142 35 1147 34T1153 27Q1153 14 1151 4T1135 -6Q1082 -6 1029 -3T924 0Q867 0 811 -4T698 -8Q690 -8 686 -6T682 6V14Q684 28 686 31T702 35Q714 36 730 36T762 39T793 44T819 55Q828 61 833 68T844 84Q855 106 868 154T893 268L958 649Q872 651 787 651T614 651Q556 651 498 651T381 649L324 295Q320 271 316 242T309 184T303 133T301 98Q301 80 305 70T320 53T349 43T395 39Q413 38 424 38T441 36T449 32T451 25Q451 14 449 4T432 -6Q419 -6 395 -5T340 -3T272 -1T195 0Q157 0 123 -1T62 -3T16 -5T-10 -6Q-16 -6 -18 -3T-20 6V14Q-18 28 -15 31T2 37Q15 38 30 38T61 40T91 45T117 57Q128 65 135 75T150 98Q164 129 177 190T203 324L315 995Q323 1042 330 1090T338 1186Q338 1211 332 1226T310 1248T270 1258T207 1262Q201 1262 197 1263T193 1274Q193 1282 194 1293T205 1305Q226 1305 285 1302T430 1298Q521 1298 571 1301T641 1305Q657 1305 657 1286Q657 1269 652 1267T633 1262Q621 1261 604 1261T570 1258T537 1251T512 1237Q495 1220 485 1194Q473 1163 462 1113T436 981L389 702H969V709L1024 1034Q1030 1072 1035 1112T1040 1190Q1040 1233 1020 1245T958 1257Q936 1257 924 1258T905 1261T897 1267T895 1274Q895 1277 896 1282T899 1292Q901 1297 902 1300T909 1303Q944 1303 1004 1300T1137 1296Q1224 1296 1273 1299T1348 1303Q1353 1303 1356 1300T1360 1292V1288L1358 1274Q1356 1268 1354 1265T1335 1260Q1322 1259 1306 1259T1273 1256T1242 1250T1217 1237Q1201 1226 1196 1206Q1188 1185 1179 1151T1162 1078T1148 1004T1137 946L1042 403Q1040 389 1035 358T1025 291T1014 225T1008 178Q1006 161 1005 143T1004 106Z"  />
<glyph unicode="I" horiz-adv-x="584" d="M633 1262Q621 1262 605 1261T571 1256T538 1248T514 1235Q503 1224 492 1205T471 1155T450 1081T430 977L340 385Q335 350 329 313T317 241T309 174T305 119Q305 93 308 78T323 53T359 41T426 37Q443 37 447 34T451 25Q451 23 451 19T449 4Q445 -6 432 -6Q403 -6 372 -5T310 -3T249 -1T195 0Q144 0 94 -3T-10 -6Q-20 -6 -20 8V14Q-18 28 -15 31T2 37L35 39Q64 41 85 45T123 66Q134 76 145 105T168 173T190 257T207 344L313 999Q321 1044 326 1091T332 1176Q332 1190 331 1203T325 1228T311 1247T283 1257Q277 1258 267 1259T245 1260T223 1261T207 1262Q198 1262 196 1265T193 1274Q193 1276 193 1279T195 1292Q197 1300 199 1302T209 1305Q269 1305 323 1302T430 1298Q460 1298 490 1299T548 1301T599 1304T641 1305Q647 1305 652 1302T657 1286Q657 1269 652 1266T633 1262Z"  />
<glyph unicode="J" horiz-adv-x="530" d="M590 1260Q555 1258 534 1249T502 1229Q493 1220 486 1205T471 1162T455 1092T436 985L354 500Q347 461 342 426T330 348T314 253T291 123Q266 -13 225 -114T139 -270Q85 -336 20 -373T-111 -410Q-131 -410 -149 -403T-182 -384T-206 -356T-215 -322Q-215 -309 -209 -296T-193 -271T-170 -253T-143 -246Q-129 -246 -118 -251T-94 -268Q-69 -294 -48 -300T-6 -307Q20 -307 41 -293T79 -246T112 -159T141 -23L307 963Q320 1034 327 1090T334 1188Q334 1213 325 1231T287 1255Q273 1257 250 1258T201 1262Q193 1262 190 1264T186 1274V1284Q188 1292 188 1296T193 1303Q197 1305 205 1305Q215 1305 237 1304T288 1302T350 1299T416 1298Q481 1298 537 1301T639 1305Q645 1305 649 1303T653 1292V1286Q651 1271 648 1267T631 1262L590 1260Z"  />
<glyph unicode="K" horiz-adv-x="1077" d="M838 199Q845 186 855 164T879 120T905 79T930 53Q944 44 960 42T991 39Q1007 39 1012 37T1018 25Q1018 -4 995 -4Q988 -4 971 -3T929 -1T874 1T813 2Q742 2 694 -1T633 -4Q627 -4 620 -3T612 6Q612 11 613 16T616 27Q618 32 624 33T659 37Q688 39 705 42T732 49T745 59T748 72Q748 86 741 101T725 131L455 682L375 612Q358 513 344 416T313 219Q308 187 305 154T301 88Q301 70 310 61T335 46T367 40T401 39Q423 39 438 38T453 25Q453 14 451 4T434 -6Q416 -6 365 -3T242 0Q160 0 101 -3T14 -6Q4 -6 4 6V14Q6 27 9 30T27 35Q58 38 84 40T135 63Q143 71 148 81T158 102Q162 114 167 135T178 182T188 235T197 287L322 1020Q330 1065 336 1110T342 1200Q342 1209 342 1218T336 1233Q329 1242 315 1247T286 1254T255 1256T229 1257Q211 1257 207 1260T203 1270Q203 1284 206 1293T223 1303Q248 1303 297 1300T422 1296Q500 1296 547 1299T612 1303Q620 1303 624 1302T629 1290Q629 1270 623 1265T598 1260Q562 1260 541 1255T506 1234T484 1192T465 1120Q442 1015 426 911T389 700L383 672L662 934Q746 1012 795 1063T869 1146T902 1196T909 1229Q909 1247 891 1252T850 1259T810 1261T791 1274Q791 1279 794 1289T803 1300Q857 1300 910 1299T1018 1298Q1066 1298 1095 1300T1145 1303Q1151 1303 1157 1302T1163 1292Q1163 1290 1162 1283T1159 1272Q1157 1266 1154 1264T1139 1260Q1123 1258 1107 1253T1067 1231Q1049 1217 1030 1201T993 1170T960 1140T932 1114L553 764L838 199Z"  />
<glyph unicode="L" horiz-adv-x="881" d="M762 -6Q728 -6 629 -3T385 0Q296 0 231 -1T123 -4T54 -7T20 -8Q4 -8 4 8Q4 27 9 31T35 37Q58 38 73 39T99 43T117 50T133 61Q142 68 150 84T167 134T187 226T213 373L319 1012Q327 1057 333 1103T340 1196Q340 1204 340 1215T334 1233Q325 1244 310 1249T276 1257T240 1260T209 1262Q195 1262 195 1276V1284Q195 1296 199 1300T215 1305Q274 1305 333 1302T451 1298Q544 1298 589 1301T649 1305Q659 1305 659 1292V1284Q659 1269 654 1265T635 1260Q578 1258 551 1253T510 1235Q502 1228 495 1216T481 1176T464 1103T442 985L334 350Q321 275 313 216T305 129Q305 72 360 66Q386 62 412 61T467 59H494Q562 62 607 67T683 86T735 126T778 197Q805 250 823 307Q825 312 828 317T838 322Q846 322 854 318T862 305Q862 296 857 274T845 224T828 164T810 102T793 48T780 10Q775 -6 762 -6Z"  />
<glyph unicode="M" horiz-adv-x="1444" d="M1184 125Q1184 100 1188 84T1206 57T1242 43T1303 39Q1314 39 1320 39T1329 35Q1332 30 1332 25T1333 14Q1333 8 1330 0T1317 -8H1313Q1262 -3 1212 -2T1108 0Q1071 0 1035 -1T961 -4Q942 -4 923 -6T885 -8Q880 -8 875 -7T870 0Q870 8 871 18T879 35Q884 40 896 40T918 41Q945 42 966 44T1003 56T1033 83T1055 135Q1067 181 1073 227Q1105 430 1137 629T1196 1032Q1201 1066 1204 1099T1212 1167L922 590Q837 422 770 285T653 37Q650 27 639 20Q630 14 622 10T610 6Q602 6 600 8T594 27Q591 48 588 72T582 119Q575 165 569 209T555 299Q540 386 525 471T494 643Q471 771 444 897T397 1151L328 778Q317 717 305 651T282 520T260 392T242 276T230 179T225 109Q225 84 237 70T270 48T318 38T377 35Q383 35 389 34T395 25Q395 6 390 0T367 -6Q363 -6 347 -5T308 -3T261 -1T215 0Q138 0 77 -2T-25 -4Q-33 -4 -33 6Q-33 11 -32 22T-25 33Q-16 34 -2 34T27 38T60 47T92 66Q107 78 120 110T143 179T161 250T172 303L352 1202Q343 1220 331 1231T302 1248T260 1257T201 1260Q191 1260 186 1261T180 1272Q180 1278 181 1283T184 1294Q186 1305 205 1305Q217 1305 269 1303T406 1300Q450 1300 466 1301T489 1303Q496 1303 499 1299T504 1289T506 1276T508 1264Q519 1180 530 1098T555 932Q586 751 619 574T682 215Q720 289 756 364T829 514Q882 622 936 729T1044 944Q1075 1004 1104 1065T1163 1188Q1173 1208 1181 1230T1198 1272Q1203 1283 1207 1290T1225 1298Q1330 1298 1395 1300T1479 1303Q1485 1303 1490 1302T1495 1294Q1495 1283 1493 1274T1479 1264Q1429 1264 1404 1256T1364 1237Q1354 1228 1347 1214T1336 1184T1329 1152T1325 1124Q1294 910 1262 698T1198 270Q1193 233 1189 198T1184 125Z"  />
<glyph unicode="N" horiz-adv-x="1233" d="M1014 338Q1004 284 997 231T981 125Q978 99 975 72T971 18V0Q971 -12 967 -15T950 -23L922 -31L907 -33Q902 -33 898 -25T890 -5T883 16T879 31Q862 83 840 133T797 233Q700 456 601 676T399 1118Q365 897 330 679T262 238Q259 213 255 188T250 137Q250 87 269 68T336 45Q350 43 373 42T414 41Q423 41 426 39T430 27Q430 8 427 0T406 -8Q398 -8 390 -7T373 -6Q274 0 172 0Q130 0 88 0T4 -6Q-2 -6 -7 -7T-18 -8Q-26 -8 -28 -4T-31 6Q-31 11 -30 22T-25 37Q-23 39 -5 41T43 45Q63 47 82 54T119 80Q134 98 146 128T166 192T181 259T193 315Q236 532 274 747T350 1182Q338 1206 321 1220T283 1241T239 1249T190 1251Q182 1251 177 1253T172 1264Q172 1283 178 1298Q181 1302 186 1302T197 1303Q231 1303 266 1300T336 1296Q364 1296 390 1298T444 1300Q450 1300 456 1290T468 1265T478 1238T485 1219Q539 1089 598 962T715 707Q769 586 823 467T930 225Q958 402 986 576T1038 928Q1046 980 1051 1033T1057 1141Q1057 1156 1057 1173T1051 1208Q1048 1220 1040 1229T1017 1245T977 1254T915 1257Q906 1257 901 1259T895 1272Q895 1280 897 1291T909 1303Q1013 1303 1116 1302T1323 1300Q1337 1300 1343 1299T1350 1288Q1350 1279 1347 1269T1333 1257Q1315 1254 1297 1253T1262 1248T1229 1239T1198 1219Q1180 1202 1173 1177T1159 1128Q1148 1085 1140 1041T1122 952Q1093 798 1066 646T1014 338Z"  />
<glyph unicode="O" horiz-adv-x="1186" d="M528 -25Q416 -25 338 24T210 152T138 328T115 522Q115 604 127 684T164 842Q194 933 245 1019T365 1171T523 1278T715 1319Q790 1319 850 1296T956 1234T1034 1141T1088 1026T1118 898T1128 768Q1128 602 1079 451Q1048 359 997 274T876 122T719 15T528 -25ZM692 1266Q636 1266 588 1245T498 1187T423 1104T363 1005T318 901T287 803Q268 727 259 650T250 494Q250 447 255 395T274 291T309 192T364 108T442 51T547 29Q602 29 650 50T739 106T813 184T870 272Q901 327 923 390T961 520T983 654T991 784Q991 833 986 887T969 995T936 1098T881 1184T801 1244T692 1266Z"  />
<glyph unicode="P" horiz-adv-x="946" d="M303 106Q303 97 303 84T309 63Q318 48 341 44T389 40T433 37T453 25Q453 14 451 4T434 -6Q378 -6 324 -2T213 2Q157 2 103 -2T-6 -6Q-14 -6 -16 -3T-18 8V14Q-16 28 -13 31T4 37Q35 40 66 41T125 61Q134 68 141 77T154 98Q159 110 164 125T174 161T184 211T197 283L334 1092Q337 1110 339 1136T342 1182Q342 1213 332 1227T306 1247T267 1253T221 1255Q215 1255 211 1256T207 1268Q207 1274 208 1286T219 1298Q229 1298 241 1298T271 1296T312 1295T369 1294Q440 1294 509 1298T649 1303Q806 1303 885 1228T965 993Q965 952 959 909T939 824T907 743T862 672Q831 633 794 606T716 562T629 538T535 530Q493 530 451 535T367 545L330 324Q323 285 318 249T310 184T305 135T303 106ZM375 596Q401 593 428 590T481 586Q526 586 567 591T646 612T714 653T770 719Q788 749 801 784T822 856T834 932T838 1006Q838 1076 823 1124T774 1202T691 1244T571 1257Q550 1257 537 1256T515 1253T503 1245T494 1233Q486 1217 477 1171T457 1059L375 596Z"  />
<glyph unicode="Q" horiz-adv-x="1186" d="M891 -444Q840 -444 786 -431T678 -397T569 -352T462 -305T359 -265T264 -242Q247 -251 228 -259T186 -268Q163 -268 151 -259T139 -225Q139 -204 154 -189T192 -163T238 -148T281 -143Q295 -143 309 -144T338 -147Q383 -127 423 -108T501 -67T577 -21T659 35V37Q616 20 572 9T481 -2Q412 -2 358 21T264 84T195 176T150 287T125 407T117 526Q117 627 138 732T202 935T312 1115T469 1251Q523 1283 583 1301T705 1319Q785 1319 847 1297T956 1237T1035 1146T1088 1032T1117 903T1126 766Q1126 671 1108 579T1054 402T965 239T842 98Q795 55 743 19T635 -49T521 -109T406 -162Q427 -168 448 -174T492 -188Q586 -226 658 -256T787 -308T890 -340T979 -352Q1010 -352 1036 -343T1085 -319T1131 -286T1176 -248H1182V-270Q1182 -275 1180 -282T1174 -293Q1152 -325 1120 -352T1049 -400T970 -432T891 -444ZM694 1266Q608 1266 529 1209T388 1048T291 803T254 492Q254 443 259 391T276 291T310 199T365 123T443 72T549 53Q629 53 692 89T804 186T887 324T944 482T976 641T987 782Q987 830 983 884T966 992T933 1095T880 1183T801 1243T694 1266Z"  />
<glyph unicode="R" horiz-adv-x="1055" d="M1067 4Q1057 -1 1041 -4T1008 -9T975 -13T950 -14Q885 -14 836 19T749 104T684 214T637 324Q612 390 591 458T549 594Q535 592 522 592T494 592Q463 592 433 595T373 604L305 180Q302 159 299 138T295 94Q295 66 308 56T346 43Q362 41 385 39T426 37Q432 37 437 36T442 27Q442 25 442 21T440 8Q438 2 436 -2T424 -6Q395 -6 326 -3T168 0Q106 0 60 -2T2 -4Q-4 -4 -7 -2T-10 8V16Q-8 30 -6 33T10 39Q26 40 42 40T75 42T107 49T135 66Q141 70 148 82T162 121T179 188T199 293L319 1004Q327 1052 334 1100T342 1196Q342 1211 339 1221T329 1238T307 1249T270 1255Q248 1258 234 1258T213 1260T202 1264T199 1274Q199 1282 200 1293T211 1305Q225 1305 241 1304T279 1302T327 1299T391 1298Q420 1298 448 1298T506 1300Q537 1302 568 1304T631 1307Q661 1307 693 1304T755 1294T814 1273T866 1239Q887 1221 903 1197T930 1144T946 1087T952 1030Q952 888 881 782T676 627Q700 546 726 465T784 311T851 180T930 86Q982 43 1042 43Q1047 43 1055 44T1069 45Q1075 45 1076 41T1077 29Q1077 18 1075 13T1067 4ZM598 1257Q560 1257 535 1254T498 1239Q491 1233 486 1221T475 1189T464 1139T451 1065L383 670Q414 664 442 657T502 649Q590 649 647 671T740 737T793 842T819 983Q821 992 821 1002T821 1022Q821 1134 768 1195T598 1257Z"  />
<glyph unicode="S" horiz-adv-x="838" d="M799 1284Q799 1281 796 1265T788 1229Q780 1178 775 1127T766 1026Q764 1012 760 1009T741 1006Q734 1006 731 1008T725 1018T723 1037T721 1071Q720 1089 719 1108T715 1147T705 1182T686 1210Q671 1224 651 1234T607 1252T561 1264T518 1268Q473 1268 438 1249T378 1197T341 1125T328 1042Q328 1015 329 994T337 951T357 907T394 853T451 782T535 686Q599 615 637 563T697 467T724 387T731 311Q731 237 700 176T618 70T501 0T365 -25Q323 -25 284 -19T205 -4Q189 1 175 5T145 12Q139 14 131 15T117 16Q111 16 105 15T92 14Q84 14 82 18T80 29V41Q80 52 81 77T84 133T88 199T94 264T100 316T106 346Q110 354 114 356T127 360Q129 360 134 361T143 362Q150 362 151 356T152 344Q152 333 151 312T150 268Q150 231 157 193T184 123Q196 105 213 88T253 57T304 35T367 27Q424 27 468 48T543 105T590 189T606 291Q606 331 599 363T569 434T501 525T383 659Q335 711 302 752T249 830T219 905T209 987Q209 1059 235 1120T306 1226T414 1296T549 1321Q564 1321 578 1321T610 1318T655 1310T721 1296Q729 1294 737 1293T754 1292Q762 1292 769 1293T784 1294Q789 1294 794 1293T799 1284Z"  />
<glyph unicode="T" horiz-adv-x="985" d="M1047 1008Q1031 1008 1026 1011T1020 1030Q1020 1041 1025 1067T1030 1135Q1030 1158 1024 1177T995 1208Q984 1214 968 1218T923 1225T845 1228T719 1229H694L586 588Q573 513 562 439T539 289Q532 244 525 197T518 102Q518 81 526 69T548 50T579 41T614 39H659Q666 39 671 37T676 27Q676 16 674 6T657 -4Q628 -4 571 -1T438 2Q347 2 290 -2T203 -6Q188 -6 188 8Q188 28 194 33T213 39H236Q266 39 297 42T352 68Q362 78 371 103T392 185T421 339T465 588L573 1229H522Q460 1229 412 1228T328 1224T268 1214T229 1196Q198 1173 179 1133T139 1028Q137 1022 134 1014T121 1006Q115 1006 105 1010T94 1022Q94 1030 101 1064T120 1142T145 1231T170 1305Q173 1314 176 1315T188 1317Q193 1317 201 1313Q208 1307 223 1303T278 1296T390 1293T582 1292Q691 1292 798 1294T1016 1296Q1040 1296 1055 1297T1082 1300T1100 1306T1116 1313Q1119 1315 1123 1315T1130 1315Q1141 1315 1141 1307Q1141 1300 1136 1278T1124 1226T1107 1162T1089 1099T1073 1047T1063 1020Q1060 1015 1057 1012T1047 1008Z"  />
<glyph unicode="U" horiz-adv-x="1159" d="M520 -20Q442 -20 378 -1T267 59T194 160T168 303Q168 372 179 438T201 573L293 1126Q299 1166 299 1206Q299 1225 292 1236T272 1253T242 1260T203 1262H166Q152 1262 152 1272Q152 1278 153 1285T160 1298Q163 1303 168 1304T182 1305Q227 1305 274 1303T369 1300Q426 1300 482 1301T598 1303Q610 1303 610 1290Q610 1280 604 1268Q601 1263 591 1263T571 1262Q528 1262 503 1258T457 1235Q448 1227 441 1213T428 1173T414 1109T397 1016L324 586Q313 524 304 463T295 338Q295 197 365 136T575 74Q653 74 710 102T809 182Q825 201 841 233T875 321T910 460T948 664Q958 724 969 793T990 929T1006 1055T1012 1153Q1012 1186 1006 1207T986 1240T950 1257T895 1262Q863 1262 857 1263T850 1270V1284Q850 1290 851 1296T860 1303Q869 1303 879 1302T899 1300Q978 1294 1059 1294Q1102 1294 1145 1296T1231 1303Q1236 1303 1241 1304T1251 1305Q1254 1305 1258 1305T1266 1303Q1268 1298 1268 1290Q1268 1269 1257 1266T1229 1261T1190 1255T1149 1227Q1137 1214 1126 1179T1101 1079T1068 915T1024 674Q1015 623 1004 556T977 419T941 287T893 178Q864 130 823 93T733 31T630 -7T520 -20Z"  />
<glyph unicode="V" horiz-adv-x="958" d="M926 1022Q864 897 802 772T679 522T561 270T451 14Q449 9 445 3T436 -6Q431 -8 421 -12T400 -20T380 -26T369 -29Q361 -29 360 -20T356 -6Q344 77 335 161T315 330L233 952Q223 1030 216 1083T201 1170T188 1221T174 1243Q163 1252 147 1256T119 1260Q92 1260 92 1268Q92 1276 96 1288T111 1300Q168 1300 225 1299T342 1298Q402 1298 432 1300T481 1303Q491 1303 494 1300T498 1288Q498 1283 495 1274T487 1262Q482 1258 470 1258T440 1257Q416 1257 390 1254T350 1233Q344 1224 343 1210T342 1184Q342 1103 352 1022T373 862L457 160Q529 322 602 481T748 803Q755 820 769 851T801 921T835 1002T868 1082T892 1153T901 1204Q901 1222 896 1232T877 1247T837 1255T772 1260Q767 1260 760 1261T752 1272Q752 1274 753 1281T756 1292Q759 1298 764 1300T782 1303Q795 1303 841 1300T950 1296Q1016 1296 1061 1299T1124 1303Q1137 1303 1137 1292Q1137 1272 1129 1266T1108 1257Q1096 1255 1082 1254T1055 1241Q1042 1229 1030 1213T1003 1171T970 1109T926 1022Z"  />
<glyph unicode="W" horiz-adv-x="1456" d="M1599 1260Q1581 1260 1564 1256T1532 1243Q1514 1232 1496 1209T1462 1159T1433 1105T1409 1059Q1348 938 1290 815Q1235 703 1180 592T1069 369Q1027 282 986 198T907 25Q905 20 903 13T899 2Q897 -1 888 -5T867 -13T845 -20T831 -23Q820 -23 820 -14T817 2Q797 148 776 292T733 582Q682 486 634 391T539 197Q517 150 497 105T455 12Q452 6 450 4T440 0Q435 -2 426 -5T408 -11T390 -16T377 -18Q373 -18 371 -14T368 -3T366 9T365 18Q352 121 336 220T303 422Q275 606 246 788T186 1155Q184 1165 182 1177T177 1201T168 1223T154 1241Q140 1252 125 1255T96 1260Q75 1263 69 1265T63 1276Q63 1287 67 1295T82 1303Q97 1303 150 1301T285 1298Q322 1298 359 1300T434 1303Q449 1303 449 1290Q449 1282 446 1273T434 1262Q428 1260 415 1259T385 1257Q342 1257 329 1243T315 1200Q315 1185 318 1153T327 1082T338 1004T348 938L467 170Q530 298 592 425T717 680Q698 804 680 927T637 1171Q632 1200 626 1218T612 1245T591 1258T561 1262Q553 1262 551 1265T549 1276Q549 1287 551 1295T565 1303Q647 1303 728 1301T891 1298Q1009 1298 1078 1301T1157 1305Q1163 1305 1168 1304T1174 1294Q1174 1273 1167 1269T1151 1262Q1135 1260 1125 1257T1100 1245Q1092 1239 1077 1217T1043 1163T1001 1090T955 1008T911 923T871 845T840 782T821 743Q841 600 864 457T909 170L1231 846Q1259 906 1287 965T1339 1085Q1345 1097 1351 1113T1363 1146T1372 1179T1376 1210Q1376 1232 1362 1245T1303 1260Q1271 1262 1259 1262T1247 1272Q1247 1275 1248 1281T1249 1290Q1252 1303 1262 1303Q1283 1303 1333 1301T1458 1298Q1495 1298 1530 1301T1604 1305Q1614 1305 1614 1294Q1614 1292 1613 1284T1612 1274Q1612 1271 1610 1266T1599 1260ZM862 1255Q840 1255 821 1254T788 1246T766 1225T758 1184Q758 1164 760 1144T766 1104Q775 1035 784 967T805 829Q842 904 872 967T923 1078T955 1159T967 1206Q967 1234 945 1244T862 1255Z"  />
<glyph unicode="X" horiz-adv-x="1032" d="M748 1284Q748 1303 764 1303Q779 1303 827 1300T956 1296Q997 1296 1036 1298T1116 1303Q1130 1303 1130 1290Q1130 1282 1127 1273T1114 1262Q1100 1259 1090 1256T1070 1248T1052 1237T1032 1221Q987 1179 935 1116T821 973L608 698L737 334Q765 254 784 206T816 130T837 90T852 68Q867 48 883 44T915 39Q947 37 955 35T963 23Q963 15 961 5T948 -6Q936 -6 924 -5T901 -4Q859 -2 818 -1T733 0Q656 0 600 -3T518 -6Q506 -6 506 4Q506 9 507 18T510 31Q513 36 525 36T553 37Q559 37 569 37T592 37T615 38T633 41Q658 46 670 56T682 90Q682 109 666 165T612 326L518 598L348 365Q294 290 260 241T208 160T183 111T176 82Q176 62 193 53T234 41T281 37T317 37Q325 37 330 35T336 23Q336 15 335 6T326 -4Q278 -4 230 -2T133 0Q101 0 69 0T2 -2Q-13 -4 -29 -5T-63 -6Q-71 -6 -73 -2T-76 8Q-76 24 -74 29T-55 37Q-34 40 -18 44T16 61Q26 68 53 97T115 167T191 259T270 358L498 653L354 1061Q336 1110 322 1144T296 1201T278 1234T266 1247Q255 1255 241 1257T193 1262Q182 1262 180 1264T178 1272Q178 1275 179 1282T182 1294Q186 1305 193 1305Q214 1305 270 1301T401 1296Q476 1296 521 1300T584 1305Q592 1305 595 1303T598 1292Q598 1287 597 1277T592 1264Q587 1258 565 1258T518 1256T470 1251T442 1235Q440 1230 439 1226T438 1217Q438 1213 443 1191T456 1138T475 1069T500 995L588 758L760 987Q826 1075 863 1135T901 1217Q901 1231 892 1239T867 1252T835 1258T801 1260Q781 1260 767 1260T750 1266Q748 1269 748 1275T748 1284Z"  />
<glyph unicode="Y" horiz-adv-x="940" d="M469 102Q469 67 488 53T555 39H604Q615 39 619 35T623 20Q623 11 619 4T606 -4Q597 -4 589 -3T571 -2Q473 4 373 4Q279 4 186 -2Q177 -2 169 -3T152 -4Q145 -4 141 -3T137 6Q137 9 138 11T139 16Q141 29 144 34T158 39H190Q206 39 222 40T254 45T283 57T307 78Q316 90 324 112T340 163T354 225T367 293L408 545Q411 565 413 588T416 631Q416 645 405 681T375 770L262 1079Q257 1094 249 1118T229 1167T206 1215T180 1247Q168 1257 150 1259T117 1262Q97 1262 92 1265T86 1278Q86 1283 89 1294T98 1305Q121 1305 172 1303T309 1300Q335 1300 363 1301T418 1302T464 1304T496 1305Q508 1305 512 1304T516 1292Q516 1280 513 1271T492 1262H459Q444 1262 428 1261T397 1256T374 1240T365 1210Q365 1196 370 1171T385 1113T405 1046T428 979L530 690L809 1096Q816 1106 826 1122T847 1155T863 1189T870 1221Q870 1248 851 1256T788 1264Q770 1264 761 1264T747 1266T742 1270T741 1278Q741 1286 743 1295T756 1305Q776 1305 827 1303T950 1300Q1010 1300 1046 1302T1094 1305Q1100 1305 1103 1303T1106 1292Q1106 1260 1085 1260Q1072 1260 1051 1251Q1031 1243 1001 1215T938 1148T872 1067T811 987L623 727Q598 692 583 671T558 634T543 601T532 559L487 281Q482 252 479 223T474 170T470 128T469 102Z"  />
<glyph unicode="Z" horiz-adv-x="963" d="M147 49Q248 52 346 54T545 61Q565 62 587 63T633 68T677 78T717 96Q739 109 756 126T788 170T819 235T854 326Q856 329 858 334T866 340Q872 340 883 338T895 328Q895 317 889 289T872 221T845 133T811 33Q805 16 799 -1T784 -18Q778 -18 774 -16Q761 -12 748 -9T706 -5T630 -3T500 -2Q372 -2 246 -4T-8 -6Q-18 -6 -18 4Q-18 16 -14 26T-4 45Q98 197 205 348T418 651Q521 801 622 950T825 1249Q731 1246 636 1246T446 1239Q391 1236 361 1229T315 1210Q296 1195 280 1168T251 1110T226 1048T205 993Q202 983 193 983Q186 983 177 985T168 995Q168 1004 173 1030T187 1089T204 1161T222 1230T237 1284T244 1309Q247 1315 249 1316T260 1317Q262 1317 265 1316T270 1313Q279 1308 289 1305T324 1301T396 1299T524 1298Q639 1298 750 1301T977 1305Q983 1305 986 1304T989 1296Q989 1279 984 1268T969 1243Q935 1192 899 1143T827 1044Q749 932 671 819T516 592L147 49Z"  />
<glyph unicode="[" horiz-adv-x="623" d="M35 -481Q40 -457 48 -416T65 -323T85 -214T106 -100T124 6T139 94L262 821Q291 993 315 1141T356 1389Q358 1401 361 1405T373 1409Q385 1409 412 1406T489 1403Q580 1403 625 1406T688 1409Q696 1409 697 1407T698 1403Q698 1398 697 1389T694 1374Q691 1364 674 1364L545 1356Q468 1350 463 1341Q458 1336 455 1330T448 1313T441 1287T434 1249L162 -348Q160 -357 159 -369T156 -393T153 -414T152 -424Q152 -439 157 -445T186 -453Q239 -458 288 -459T367 -461Q372 -461 373 -461T375 -467Q375 -484 371 -495T360 -506Q349 -506 313 -503T199 -500Q157 -500 129 -501T82 -505T54 -508T39 -510Q33 -510 33 -506Q33 -503 33 -497T35 -481Z"  />
<glyph unicode="\" horiz-adv-x="834" d="M557 -371Q534 -212 515 -80T479 165T448 376T420 564T393 741T365 917T334 1106T299 1317H389Q414 1143 447 920T524 418Q539 316 553 224T582 38T612 -155T645 -371H557Z"  />
<glyph unicode="]" horiz-adv-x="623" d="M592 1380Q587 1354 579 1312T562 1218T543 1109T523 997T505 892T489 805L365 78Q350 -8 337 -88T313 -242T291 -377T272 -489Q270 -502 267 -506T256 -510Q230 -510 202 -507T137 -504Q92 -504 59 -505T2 -507T-37 -509T-61 -510Q-69 -510 -70 -508T-72 -504Q-72 -499 -71 -490T-68 -475Q-66 -469 -61 -468T-47 -465L82 -457Q159 -451 164 -442Q175 -433 180 -414T193 -350L467 1268Q470 1285 472 1302T475 1323Q475 1338 469 1344T440 1352Q388 1357 339 1358T260 1360Q255 1360 254 1360T252 1366Q252 1383 256 1394T266 1405Q277 1405 314 1402T428 1399Q470 1399 498 1400T545 1404T572 1407T588 1409Q594 1409 594 1405Q594 1402 594 1396T592 1380Z"  />
<glyph unicode="^" horiz-adv-x="860" d="M723 686L481 1186L236 686H125L442 1321H518L836 686H723Z"  />
<glyph unicode="_" horiz-adv-x="975" d="M-154 -326V-227H825V-326H-154Z"  />
<glyph unicode="`" horiz-adv-x="1022" d="M436 1223Q425 1234 416 1246T406 1274Q406 1294 419 1299T449 1311Q463 1316 479 1320T510 1325Q525 1325 532 1313T545 1288L664 1038Q666 1035 666 1033T668 1028Q668 1019 661 1018T647 1016Q639 1016 631 1021T618 1032L436 1223Z"  />
<glyph unicode="a" horiz-adv-x="817" d="M518 391Q503 366 486 337T450 279T413 221T379 170Q311 71 253 23T135 -25Q79 -25 49 19T18 135Q18 180 30 231T67 337T125 447T201 557Q290 672 399 751T627 864Q638 901 656 913T700 926Q722 926 729 916T737 891Q737 882 732 860T711 782Q697 734 680 672T644 543T609 410T579 289T557 195T549 143Q549 123 556 117T573 111Q588 111 610 133T658 192T709 278T758 383H772Q786 361 786 350Q786 342 779 322T760 276T734 220T705 166Q654 75 602 25T504 -25Q473 -25 455 -1T436 55Q436 74 442 107T459 185T485 281T518 391ZM520 739Q483 739 441 714T356 646T276 550T208 437T161 320T143 213Q143 162 159 134T203 106Q222 106 247 119T304 165T377 254T469 395Q493 434 512 475T544 556T565 631T573 694Q573 711 570 720T561 733T545 738T520 739Z"  />
<glyph unicode="b" horiz-adv-x="774" d="M209 -25Q178 -25 153 -13T111 22T84 74T74 141Q74 156 74 170T77 201T82 240T91 294T106 371T127 477Q145 568 162 658T194 833T221 993T243 1128T257 1227T262 1282Q262 1306 259 1320T246 1343T221 1353T180 1356Q169 1356 167 1358T164 1366Q164 1368 165 1373T168 1384Q170 1389 174 1392T195 1401Q230 1410 265 1419T338 1436Q352 1439 370 1441T408 1444Q416 1444 420 1440T424 1425V1419V1411Q422 1403 419 1391T410 1356Q393 1293 381 1225Q358 1114 335 1003T292 795T255 620T227 498Q325 697 419 793T602 889Q673 889 708 836T743 692Q743 612 721 528T659 365T567 214T455 90T333 6T209 -25ZM551 786Q518 786 477 757T394 678T313 566T242 434T193 299T174 176Q174 151 178 129T192 90T218 63T258 53Q290 53 327 73T401 131T474 222T539 340Q581 433 604 519T627 668Q627 720 608 753T551 786Z"  />
<glyph unicode="c" horiz-adv-x="606" d="M582 715Q552 715 532 732T494 771T458 809T416 827Q376 827 342 796T282 716T235 607T202 487T183 377T176 295Q176 267 179 232T194 164T228 110T287 88Q322 88 354 107T414 156T463 218T500 279H504Q509 274 515 266T522 250Q522 241 512 221T473 158Q454 128 430 96T375 37T311 -7T236 -25Q182 -25 146 2T88 70T57 160T47 254Q47 310 59 378T95 517T154 654T236 772T340 855T465 887Q490 887 519 882T573 865T614 832T631 780Q631 757 620 736T582 715Z"  />
<glyph unicode="d" horiz-adv-x="819" d="M829 1427Q829 1418 827 1408T823 1389Q809 1326 798 1275T774 1167Q749 1058 731 950T690 729Q667 604 644 480T600 231Q591 177 588 150T584 113Q584 111 584 106T590 100Q605 100 628 121T677 177T727 252T770 334H780V293Q780 281 779 271T774 248T761 218T737 172Q712 127 687 90T635 27T583 -14T532 -29Q514 -29 503 -22T485 -4T476 22T473 53Q473 84 479 114T492 176Q506 250 521 324T555 471Q535 437 511 387T458 281T396 171T327 72T250 1T168 -27Q126 -27 99 -4T56 53T34 126T27 197Q27 264 44 336T90 479T156 614T236 729Q259 757 285 783T341 831T405 864T477 877Q514 877 543 866T600 829Q614 907 627 984T653 1139Q656 1158 660 1181T667 1228T673 1270T676 1300Q676 1317 669 1327T650 1344T624 1352T596 1354Q574 1354 566 1356T557 1364Q557 1370 559 1378T567 1391Q572 1394 601 1401T670 1419Q688 1424 710 1429T752 1439T788 1447T809 1450Q823 1450 826 1444T829 1427ZM479 817Q449 817 420 798T365 752T319 695T285 641Q259 598 236 547T195 441T167 331T156 225Q156 210 158 188T167 143T186 106T219 90Q241 90 265 105T313 146T360 201T403 262T438 319T463 362Q479 393 499 435T536 522T566 612T578 692Q578 717 573 739T557 779T526 806T479 817Z"  />
<glyph unicode="e" horiz-adv-x="696" d="M211 428Q199 357 199 283Q199 253 203 217T219 149T255 96T319 74Q355 74 392 91T464 134T529 190T582 246H590Q595 243 598 234T602 219Q602 211 595 199T579 174T560 149T545 131Q519 102 488 74T421 24T347 -11T266 -25Q209 -25 172 0T113 65T81 154T72 250Q72 313 81 375T109 500Q128 563 162 631T246 757T358 852T496 889Q533 889 566 878T624 844T663 791T678 721Q678 673 660 633T611 560T541 505T459 467Q399 445 337 438T211 428ZM471 838Q434 838 403 819T345 768T298 697T262 616T236 537T219 469Q287 475 347 491T461 551Q482 567 500 589T531 636T553 689T561 743Q561 784 537 811T471 838Z"  />
<glyph unicode="f" horiz-adv-x="487" d="M571 848Q586 848 586 836Q586 834 585 828T582 817L573 784Q571 776 568 773T553 770H342L270 293Q255 190 243 114T222 -18T207 -110T195 -173T185 -214T176 -242Q147 -326 115 -385T47 -482T-31 -536T-117 -553Q-140 -553 -160 -548T-196 -533T-220 -509T-229 -477Q-229 -451 -214 -432T-174 -412Q-163 -412 -153 -419T-133 -434Q-110 -453 -91 -467T-53 -481Q-27 -481 -7 -456T31 -378T65 -242T100 -43L227 770H129Q120 770 118 772T115 780Q115 782 115 785T116 791Q116 795 117 799Q119 810 124 812T139 817Q148 818 161 820T187 826T214 832T238 838Q241 858 246 890T256 950Q268 1014 284 1064T322 1157T370 1235T432 1307Q463 1338 497 1363T567 1406T636 1432T700 1442Q751 1442 787 1421T840 1368Q846 1359 850 1345T854 1313Q854 1284 832 1263T778 1241Q757 1241 746 1257T723 1300Q714 1326 688 1339T629 1352Q597 1352 563 1339T508 1305Q475 1272 452 1232T411 1137T380 1011T352 844L571 848Z"  />
<glyph unicode="g" horiz-adv-x="737" d="M760 756Q716 756 673 765T584 782Q602 750 609 712T616 639Q616 560 592 489T526 363T431 274T315 233Q281 207 271 184T260 145Q260 133 266 123T283 103T305 87T328 76Q340 70 362 59T424 27L512 -18Q570 -47 609 -73T674 -125T710 -177T721 -233Q721 -298 680 -356T570 -458T409 -527T217 -553Q146 -553 88 -539T-12 -498T-77 -434T-100 -350Q-100 -306 -71 -262T10 -175T135 -97T297 -33Q265 -15 243 1T206 33T185 66T178 104Q178 140 195 168T260 236Q192 250 149 310T106 469Q106 540 124 614T178 750T264 850T381 889Q392 889 410 887T440 881L461 877Q513 873 556 871T651 862L735 852Q770 847 783 841T797 815Q797 806 795 794T786 772Q778 756 760 756ZM422 850Q400 850 376 832T329 783T285 708T248 616T223 512T213 403Q213 343 234 312T291 281Q350 281 410 381Q429 414 446 456T475 544T495 633T502 713Q502 773 480 811T422 850ZM332 -53Q243 -97 183 -134T86 -206T34 -271T18 -334Q18 -365 37 -392T90 -439T167 -471T262 -483Q341 -483 401 -467T512 -410Q531 -395 547 -378T574 -343T591 -307T598 -274Q598 -259 595 -245T580 -215T545 -181T481 -139L332 -53Z"  />
<glyph unicode="h" horiz-adv-x="813" d="M401 -20Q369 -20 357 -10T344 18Q344 29 349 47T360 74Q370 87 379 93T414 100H451Q467 100 481 104T508 124T533 167T559 244Q579 315 595 378T623 498Q632 549 635 590T639 664Q639 727 622 754T573 782Q536 782 496 752T416 668T338 544T267 392T209 222T168 47Q162 15 150 0T113 -16Q85 -16 69 0T53 41Q53 59 59 86Q72 136 88 212T124 378T163 569T201 766T237 955T266 1118T285 1240T293 1303Q293 1332 279 1349T231 1370Q217 1372 213 1374T209 1382Q209 1384 210 1389T211 1397Q213 1402 215 1404T227 1409Q236 1411 256 1416T297 1426T336 1435T358 1440Q383 1445 403 1446T436 1448Q446 1448 452 1443T459 1425Q459 1422 458 1418T455 1409Q451 1397 443 1364T423 1283T399 1176T372 1052T344 922T317 795Q303 728 292 678T272 590T254 522T238 465Q284 557 334 635T436 770T536 859T629 891Q694 891 727 839T760 696Q760 625 745 545T705 385T645 232T570 103T487 14T401 -20Z"  />
<glyph unicode="i" horiz-adv-x="449" d="M365 1171Q351 1171 338 1178T315 1196T298 1221T291 1249Q291 1263 297 1277T314 1304T338 1323T367 1331Q380 1331 393 1324T417 1306T433 1281T440 1253Q440 1239 434 1225T417 1198T393 1179T365 1171ZM182 102Q182 90 193 90Q210 90 237 112T291 163T342 220T375 262H383V221Q383 212 378 202T367 181T353 162T340 145Q324 125 298 96T242 40T180 -6T119 -25Q87 -25 73 -3T59 49Q59 66 63 89T77 147T100 231T135 348Q138 357 148 391T171 471T200 568T228 664T249 740T258 776Q258 778 257 780T254 782Q237 782 212 763T163 719T117 669T86 631H78V666Q78 673 83 682T94 700T108 717T119 731Q134 750 160 777T216 828T277 870T336 887Q359 887 372 872T385 834Q385 811 377 781T360 727Q356 713 346 681T323 606T294 511T263 407T233 304T207 213T189 142T182 102Z"  />
<glyph unicode="j" horiz-adv-x="416" d="M334 1174Q321 1174 308 1180T285 1197T269 1221T262 1249Q262 1263 269 1277T286 1302T310 1321T336 1329Q349 1329 362 1322T385 1304T401 1280T408 1253Q408 1239 402 1225T385 1200T361 1182T334 1174ZM365 752Q360 731 354 701T338 627T316 526T289 395Q269 301 252 208T217 18Q202 -69 189 -131T160 -240T128 -322T88 -391Q64 -426 37 -455T-20 -506T-78 -539T-133 -551Q-178 -551 -201 -529T-225 -479Q-225 -464 -215 -446Q-206 -429 -197 -423T-178 -416Q-167 -416 -155 -422T-129 -440Q-109 -454 -95 -459T-66 -465Q-43 -465 -24 -450T8 -410Q17 -388 24 -367T37 -317Q40 -302 46 -270T59 -197T73 -115T88 -37L223 641Q229 673 234 697T240 733Q240 748 231 748Q221 748 202 734T158 697T108 644T57 580H49V612Q49 623 60 641T98 694Q170 785 231 835T332 885Q353 885 364 872T375 834Q375 828 375 823T374 809T371 787T365 752Z"  />
<glyph unicode="k" horiz-adv-x="831" d="M621 -43Q564 -43 519 -14T436 74T370 225T317 440H244L186 78Q180 43 178 30T170 8Q164 -7 150 -15T121 -23Q93 -23 72 -4T51 41Q51 52 53 64T63 106Q69 125 74 144T84 188T97 249T113 334Q137 464 156 566T191 752T218 903T240 1031T258 1146T274 1260Q278 1283 279 1298T281 1319Q281 1334 273 1342T251 1355T224 1359T197 1360Q186 1360 182 1364T178 1374Q178 1376 179 1382T180 1391Q182 1396 188 1398T211 1405Q259 1418 288 1425T337 1437T367 1444T391 1448Q400 1450 410 1451T422 1452Q438 1452 438 1434Q438 1431 437 1425T434 1409Q430 1393 423 1361T406 1286T385 1190T362 1079Q354 1036 346 992T328 897T309 790T285 666Q313 709 352 749T434 819T523 867T610 885Q683 885 718 835T754 688Q754 608 725 556T645 481Q627 473 608 467T565 457T511 449T438 444Q448 394 458 353T479 275T504 205T535 139Q564 80 597 46T657 12Q676 12 690 24T705 55Q705 66 702 75T690 104Q688 109 687 114T686 125Q686 148 704 166T743 184Q769 184 783 165T797 117Q797 85 783 56T744 5T688 -30T621 -43ZM565 795Q543 795 516 788T461 767T407 734T358 692Q336 669 319 647T289 600T267 545T252 477Q272 478 288 478T319 480T348 482T381 485Q435 490 473 496T537 511T580 530T606 555Q620 574 626 603T633 690Q633 744 617 769T565 795Z"  />
<glyph unicode="l" horiz-adv-x="442" d="M463 1417Q463 1415 463 1413T461 1407Q457 1394 451 1368T435 1304T416 1219T393 1118L215 293Q201 230 194 192T186 139Q186 131 188 125T201 119Q211 119 232 132T279 168T334 221T393 287H401V256Q401 249 400 243T394 229T380 208T354 174Q271 71 215 23T119 -25Q91 -25 75 -2T59 57Q59 71 60 86T66 123T75 172T88 238Q92 254 100 296T120 394T145 513T170 635Q184 700 197 764T225 893Q244 983 258 1051T281 1167T294 1247T299 1294Q299 1325 281 1340T225 1360Q204 1363 199 1367T193 1380Q193 1390 194 1392T201 1397Q206 1398 209 1399T217 1401T232 1404T260 1411Q304 1421 333 1427T383 1437T418 1442T446 1444Q465 1444 465 1427Q465 1421 463 1417Z"  />
<glyph unicode="m" horiz-adv-x="1300" d="M1257 322Q1257 311 1256 303T1252 287T1244 269T1231 248Q1180 175 1138 124T1060 40T998 -8T950 -23Q932 -23 922 -9T911 25Q911 37 916 60T930 121L1030 500Q1056 601 1066 656T1077 737Q1077 759 1068 768T1047 778Q1024 778 993 754T928 688T859 590T791 471Q769 429 745 373T697 256T654 138T623 35Q615 4 603 -9T569 -23Q543 -23 526 -6T508 35Q508 52 514 78Q523 109 530 138T545 197L614 451Q643 560 656 632T670 733Q670 755 659 766T631 778Q601 778 566 751T494 674T420 559T350 414T288 249T240 74Q237 60 234 49T229 29Q226 19 224 13T219 0Q213 -11 206 -14T186 -18Q157 -18 136 -2T115 39Q115 44 115 48T117 61Q119 71 122 87T135 135Q143 161 155 212T182 326L252 635Q255 648 258 665T264 697T268 724T270 739Q270 756 248 756Q228 756 204 737T158 689T116 631T88 578H66V600Q66 619 72 639T100 698Q154 792 207 841T309 891Q341 891 357 870T373 811Q373 782 346 680T268 399Q321 495 378 588T504 766Q606 891 688 891Q730 891 753 860T776 776Q776 755 773 726T760 653Q755 633 749 609T735 554T716 482T692 391Q820 640 925 763T1108 887Q1151 887 1173 856T1196 766Q1196 728 1182 655T1139 485L1038 137Q1036 132 1035 126T1034 117Q1034 113 1038 113Q1044 113 1053 118T1076 135T1110 168T1155 223Q1174 246 1195 277T1243 348H1257V322Z"  />
<glyph unicode="n" horiz-adv-x="905" d="M551 -25Q526 -25 517 -9T508 29Q508 47 511 66T520 104L621 508Q633 556 644 610T655 709Q655 730 647 749T612 768Q581 768 549 743T484 676T422 578T363 462T309 339T263 222T227 122T203 51Q199 40 195 27T183 1T167 -19T143 -27Q120 -27 106 -15T92 20Q92 30 96 54T108 108T124 173T141 239T156 295T166 332L240 629Q248 663 254 691T260 743Q260 756 256 762T240 768Q217 768 193 741T148 677T110 606T86 555H70V596Q70 621 77 640T94 682Q106 710 126 746T173 814T231 867T299 889Q319 889 331 882T351 863T362 836T365 803Q365 781 359 750T343 686T325 621T309 567Q294 510 277 456T246 344H248Q262 375 288 427T347 539T421 660T503 772T589 853T672 885Q703 885 722 871T751 835T766 787T770 735Q770 700 759 641T731 516L657 231Q656 229 653 214T645 181T637 147T633 125Q633 115 637 115Q643 115 651 123Q665 135 682 156T719 202T758 253T794 303T823 345T840 371H854V350Q854 342 854 336T851 324T846 311T836 291Q821 265 801 232T756 163T704 94T650 34T598 -9T551 -25Z"  />
<glyph unicode="o" horiz-adv-x="770" d="M276 -25Q215 -25 174 -1T107 63T72 154T61 258Q61 318 68 371T90 479Q108 548 144 620T231 752T349 850T496 889Q557 889 598 862T663 791T698 695T709 590Q709 531 697 463T659 326T598 194T513 82T406 4T276 -25ZM469 834Q430 834 397 809T338 746T292 669T260 598Q244 557 230 511T206 415T189 317T182 219Q182 195 186 163T203 101T237 51T291 31Q340 31 382 64T457 150T515 269T558 401T583 526T592 625Q592 654 587 690T569 758T531 812T469 834Z"  />
<glyph unicode="p" horiz-adv-x="823" d="M334 8Q299 8 269 14T207 37L150 -289Q140 -338 136 -372T131 -416Q131 -434 137 -444T153 -460T177 -468T205 -473Q220 -476 244 -478T283 -481Q291 -481 291 -498Q291 -509 287 -514T272 -520Q255 -520 195 -517T41 -514Q3 -514 -23 -515T-67 -517T-96 -519T-117 -520Q-123 -520 -129 -519T-135 -508Q-135 -500 -133 -494T-123 -487Q-118 -487 -100 -486T-70 -481Q-54 -478 -38 -471T-12 -449Q-4 -437 1 -423T13 -381T27 -308T49 -184L217 743L139 725Q121 720 110 718T94 715Q89 715 89 721T88 733V743Q88 753 92 755T104 760L225 793Q231 835 238 876T250 961Q256 1005 273 1026T338 1047Q356 1047 370 1039T385 1010Q385 997 382 986T375 963Q365 929 358 895T346 825Q403 841 461 851T578 862Q664 862 714 814T764 678Q764 620 750 553T712 418T658 288T596 178Q574 145 546 115T485 60T414 22T334 8ZM334 768Q311 646 290 525T246 283Q241 255 236 229T231 174Q231 123 253 92T332 61Q375 61 414 93T487 178T546 295T592 424T621 544T631 637Q631 679 623 707T595 753T547 777T477 784Q440 784 405 779T334 768Z"  />
<glyph unicode="q" horiz-adv-x="799" d="M535 -414Q535 -435 542 -448T561 -468T586 -479T612 -483Q623 -485 635 -486T647 -494V-498Q647 -504 645 -511T635 -518Q613 -518 568 -516T455 -514Q410 -514 366 -515T276 -522H270Q260 -522 260 -514Q260 -502 261 -497T267 -490T276 -488T291 -487Q325 -484 354 -475T399 -442Q405 -434 410 -423T422 -391T435 -334T453 -242L543 266Q514 228 479 184T403 102T314 39T213 14Q167 14 136 35T86 89T59 162T51 242Q51 302 61 361T92 477Q105 516 126 561T176 652T240 740T315 815T399 867T492 887Q517 887 540 879T586 859T627 830T664 795Q666 799 674 813T691 841T708 867T719 879Q727 879 734 874T741 860Q741 858 740 856T739 852Q724 781 713 711T688 569L557 -225Q546 -294 541 -338T535 -414ZM498 827Q463 827 429 803T364 739T306 652T256 556T218 466T195 397Q181 348 173 299T164 199Q164 181 166 158T177 114T200 80T240 66Q272 66 305 89T371 149T433 232T487 323T530 408T557 473Q574 523 588 579T602 688Q602 713 597 738T580 783T548 815T498 827Z"  />
<glyph unicode="r" horiz-adv-x="672" d="M653 670Q625 670 618 687T610 725T604 763T575 780Q557 780 535 759T493 708T457 651T434 608Q365 478 311 343T213 68Q208 53 204 37T192 8T172 -14T141 -23Q118 -23 105 -9T92 29Q92 40 97 67T110 126T125 185T135 225Q143 257 150 290T166 356L231 627Q237 648 241 669T249 709T254 740T256 758Q256 769 251 771T236 774Q213 774 190 753T148 702T113 642T88 592H70Q70 601 69 609T68 627Q68 645 74 660T88 692Q101 718 120 752T165 816T220 868T285 889Q322 889 339 868T356 811Q356 785 349 738T328 633L246 299Q258 334 279 391T327 514T388 647T459 767T537 855T621 889Q650 889 670 880T702 853T719 814T725 766Q725 748 722 731T710 701T688 679T653 670Z"  />
<glyph unicode="s" horiz-adv-x="514" d="M463 743Q454 743 443 747T414 762Q379 784 353 792T303 801Q282 801 265 792T236 768T216 733T209 692Q209 672 213 653T229 609T261 554T313 479Q361 410 385 361T410 266Q410 209 386 157T320 64T226 -1T115 -25Q90 -25 69 -21T31 -7T6 19T-4 59Q-4 68 -2 79T5 99T18 115T39 121Q59 121 80 109T123 88Q170 68 211 68Q230 68 249 74T283 94T307 126T317 170Q317 191 315 209T304 251T273 309T215 399Q191 436 174 464T145 515T128 558T123 600Q123 651 146 702T207 795T293 863T391 889Q416 889 438 882T478 862T504 834T514 801Q514 773 496 758T463 743Z"  />
<glyph unicode="t" horiz-adv-x="500" d="M293 590Q276 519 260 450T227 309Q216 264 208 218T199 125Q199 120 200 116T207 111Q219 111 246 125T306 164T378 218T451 281H467V256Q467 247 466 239T459 225Q454 219 447 212T434 199Q421 185 400 163T354 116T299 66T241 22T185 -10T137 -23Q120 -23 110 -14T94 9T86 39T84 68Q84 126 94 185T117 301Q131 373 146 445T178 590L219 770H125Q106 770 106 778Q106 781 108 788T113 801Q116 810 118 812T129 817L236 842L281 1022Q283 1030 286 1044T293 1065Q296 1071 304 1074T324 1079Q339 1082 356 1084T379 1087Q408 1087 408 1061Q408 1053 404 1036T393 997L354 846H578Q583 846 586 845T590 838Q590 831 586 813T578 782Q576 774 569 772T547 770L338 772L293 590Z"  />
<glyph unicode="u" horiz-adv-x="901" d="M553 -20Q535 -20 522 -13T501 7T489 34T485 66Q485 84 488 105T499 156T522 231T557 338L635 569Q564 458 490 348T330 135Q315 117 292 91T241 40T186 -2T131 -20Q112 -20 100 -12T82 10T73 39T70 70Q70 104 80 155T108 267T147 393T190 518T231 631T264 719Q266 724 269 732T272 743Q272 748 268 748Q259 748 243 733T211 700Q194 682 177 662T145 622T117 585T96 555H82Q80 563 79 571T78 586Q78 593 89 611T115 650T142 687T158 709Q172 727 197 757T251 816T310 867T367 889Q388 889 399 877T410 844Q410 837 407 825T399 800T390 775T383 756Q364 703 343 640T300 511T260 383T226 270T202 184T193 139Q193 134 193 131T195 123Q195 118 199 118T207 117Q219 117 239 129T293 176Q325 210 363 258T440 361T513 471T573 573Q599 621 622 670T666 770Q674 790 683 810T700 850Q707 865 716 877T743 889Q766 889 784 873T803 834Q803 814 797 796T784 760Q778 742 763 693T727 580T685 444T645 309T616 199T604 137Q604 129 606 124T618 119Q635 119 655 135T697 176T739 232T777 292T808 347T827 385H848V350Q848 333 844 318T829 285Q812 249 785 206T728 122T671 50T629 8Q612 -3 593 -11T553 -20Z"  />
<glyph unicode="v" horiz-adv-x="772" d="M461 190Q365 85 289 30T158 -25Q133 -25 120 -3T106 57Q108 124 138 261T231 621Q244 664 248 683T252 713Q252 721 248 721Q237 721 216 706T169 666T117 612T70 551H59V580Q59 592 62 600T78 627Q115 679 156 726T235 809T306 866T360 887Q377 887 388 873T399 838Q399 825 397 810T389 772Q383 749 373 714T346 616Q324 535 303 454T266 304T239 186T229 121Q229 105 235 102T248 98Q274 98 313 126T395 195Q443 240 490 299T573 423T632 556T655 686Q655 705 649 724T637 754Q632 765 622 778T612 807Q612 822 619 836T637 862T661 880T688 887Q722 887 742 855T762 772Q762 713 741 644T681 500T587 346T461 190Z"  />
<glyph unicode="w" horiz-adv-x="1163" d="M588 469Q521 372 460 283T346 126T248 16T172 -25Q147 -25 132 3T117 74Q117 111 127 177T154 326T195 504T248 694Q250 697 251 705T252 719Q252 729 246 729Q239 729 219 714T172 673T118 618T70 557H59V590Q59 596 62 604T73 626T96 658T135 707Q166 743 199 775T263 833T320 872T362 887Q378 887 388 873T399 840Q399 831 397 819T391 786T378 733T356 653Q296 432 268 303T240 127Q240 113 242 109T250 104Q266 104 300 139T381 236T485 381T604 563L623 649Q633 697 639 727T651 776T662 809T674 834Q702 887 750 887Q760 887 770 884T790 873T805 854T811 825Q811 796 799 768T756 694Q744 647 729 589T699 471T670 351T645 245T628 166T621 127Q621 118 623 110T635 102Q659 103 693 125T765 183T842 266T913 362Q969 446 1001 536T1034 709Q1034 723 1031 734T1018 756Q1004 774 1001 782T997 805Q997 820 1003 835T1019 861T1044 880T1073 887Q1104 887 1123 855T1143 774Q1143 669 1077 532T887 244Q835 181 786 131T694 47T615 -6T553 -25Q527 -25 512 -2T496 59Q496 78 503 119T523 215T553 336T588 469Z"  />
<glyph unicode="x" horiz-adv-x="856" d="M756 668Q744 668 741 680T736 708T730 735T713 748Q691 748 653 713T553 598L455 471L487 340Q496 308 505 275T525 213T545 161T563 125Q569 114 577 105T600 96Q623 96 648 120T694 176T733 240T758 289H766V248Q766 229 762 216T750 184Q730 139 708 101T660 36T609 -7T557 -23Q537 -23 522 -16T493 7T467 50T442 115Q422 175 406 241T375 371Q338 312 301 254T227 139Q212 116 197 94T164 49Q153 37 140 23T112 -2T81 -21T47 -29Q23 -29 7 -18T-20 12T-34 51T-39 94Q-39 112 -35 131T-22 167T2 194T39 205Q57 205 62 191T69 159T74 128T90 113Q105 113 130 135T189 198T265 298T358 432Q340 500 322 567T281 700Q278 707 274 719T264 742T249 761T231 770Q218 770 207 758T185 728T168 687T155 642T146 602T141 575H135Q127 586 121 594T115 616Q115 637 119 665T132 723T154 782T185 835T224 872T272 887Q290 887 304 881T330 860T355 819T379 754Q396 697 409 639T436 524Q474 583 511 638T581 738T643 815T690 862Q703 871 717 878T748 885Q794 885 809 860T825 793Q825 773 823 746T809 702Q801 690 786 679T756 668Z"  />
<glyph unicode="y" horiz-adv-x="782" d="M549 139Q518 72 480 -5T397 -160T299 -309T184 -436T49 -524T-106 -557Q-179 -557 -222 -528T-266 -449Q-266 -420 -250 -404T-207 -387Q-187 -387 -176 -398T-154 -432Q-141 -455 -125 -462T-74 -469Q4 -469 75 -430T211 -319Q254 -273 285 -224T336 -128T365 -40T375 31Q375 140 354 271T295 575Q273 673 249 716T188 760Q162 760 140 743T100 695T73 626T59 543Q59 533 56 530T41 526Q29 526 27 528Q25 531 25 534T25 541Q28 606 40 664T78 770Q106 826 145 855T229 885Q260 885 286 869T335 816T376 718T410 569Q418 520 427 461T445 341T461 219T473 106Q496 161 513 198T544 269T571 338T600 428Q622 500 634 553T647 655Q647 687 637 715T610 768Q603 780 599 787T593 801T591 812T590 825Q592 848 609 866T655 885Q693 885 716 848T739 754Q739 655 691 499T549 139Z"  />
<glyph unicode="z" horiz-adv-x="762" d="M535 -102Q496 -102 461 -86T394 -46T334 5T281 57T233 97T190 113Q160 113 147 97T125 61Q120 50 116 39T107 18T92 4T70 -2Q48 -2 39 14T29 49Q29 76 39 100T66 143T105 177T152 199Q230 317 312 432T481 662Q494 679 506 696T532 727Q426 738 358 748T250 758Q227 758 212 754T180 731Q160 708 151 679T131 623Q129 616 126 611T115 606Q109 606 104 608Q101 611 97 614T92 625Q92 633 100 663T120 729T143 796T160 838Q172 862 187 873T229 885Q259 885 290 881T353 870T416 856T479 844Q540 832 602 829Q606 838 615 847T634 863T654 876T672 881Q695 881 709 869T723 831Q723 807 712 790T683 760T644 740T602 729Q580 703 561 677T522 623Q445 517 369 413T215 205Q224 207 234 207T254 207Q286 207 323 191T389 154Q420 131 446 98T495 35T541 -17T592 -39Q606 -39 617 -33T629 -10Q629 1 625 9T615 26T605 43T600 63Q600 86 619 100T659 115Q694 115 708 93T723 39Q723 13 709 -12T670 -57T610 -89T535 -102Z"  />
<glyph unicode="{" horiz-adv-x="653" d="M729 1374Q728 1373 727 1373Q726 1372 723 1372Q720 1372 714 1372T696 1370Q645 1364 607 1336T549 1266Q538 1244 530 1217T516 1161Q501 1068 487 978T457 797Q449 747 440 709T419 640T391 583T352 532Q334 512 316 498T275 474T222 457T147 442Q256 422 306 366T356 223Q356 213 356 205T355 188T353 167T348 137Q346 120 342 96T331 38T317 -41T297 -147Q288 -203 282 -233T272 -283Q269 -303 269 -313T268 -338Q268 -400 302 -438T393 -481H403Q405 -483 406 -483T408 -487Q408 -504 404 -510T391 -516Q289 -516 231 -464T172 -319Q172 -310 172 -303T172 -286T174 -266T178 -236Q181 -218 185 -194T196 -135T210 -55T229 51Q239 107 245 137T254 186Q257 206 257 217T258 242Q258 405 82 420Q63 423 63 432Q63 458 70 466T98 475Q152 475 198 495T274 555Q284 568 292 579T307 604T320 634T332 674Q337 697 342 727T355 800T370 896T391 1020Q401 1083 409 1124T425 1193T442 1242T465 1284Q505 1347 569 1378T727 1409Q729 1409 730 1409T735 1405L729 1374Z"  />
<glyph unicode="|" horiz-adv-x="471" d="M223 -442V1421H309V-442H223Z"  />
<glyph unicode="}" horiz-adv-x="653" d="M557 418Q504 418 458 397T383 338Q372 325 364 314T349 290T337 261T326 221Q320 198 314 168T301 95T285 -2T264 -127Q254 -191 247 -232T232 -301T215 -350T193 -391Q113 -516 -70 -516Q-78 -516 -78 -514Q-78 -512 -77 -506T-76 -498L-74 -483Q-74 -481 -72 -480T-68 -479Q-12 -479 36 -452T109 -373Q118 -354 126 -327T139 -268L199 96Q207 146 216 184T238 252T266 308T303 358Q321 378 339 392T380 417T434 436T508 451Q398 471 350 526T301 670Q301 679 302 696T305 733T309 774T315 813L360 1047Q368 1089 377 1133T387 1231Q387 1293 353 1332T262 1374H256Q248 1374 248 1382Q248 1398 252 1403T266 1409Q368 1409 425 1357T483 1210Q483 1192 477 1141T459 1026L426 842Q415 783 410 752T401 702Q398 684 398 675T397 651Q397 568 442 523T573 473Q586 471 590 469T594 461Q594 435 587 427T557 418Z"  />
<glyph unicode="~" horiz-adv-x="860" d="M827 748Q818 701 801 661T757 590T694 543T610 526Q556 526 509 548T410 606Q378 629 342 645T276 662Q246 662 224 652T184 624T153 580T127 520L59 549Q66 582 80 620T119 691T184 746T279 768Q334 768 380 746T467 696Q513 664 549 650T618 635Q671 635 703 671T760 776L827 748Z"  />
<glyph unicode="&#xA0;" horiz-adv-x="332" />
<glyph unicode="&#xA1;" horiz-adv-x="520" d="M145 82Q170 174 185 233T212 338T232 430T254 541Q256 546 258 547T266 551L274 553Q278 555 280 555T285 555Q289 555 289 549Q289 547 287 534T285 518Q276 469 271 430T262 348T252 249T240 109Q229 -7 220 -94T204 -245T190 -348T178 -408Q160 -471 74 -471Q31 -471 31 -424Q31 -404 40 -356T64 -240T100 -90T145 82ZM330 887Q345 887 360 879T387 857T406 828T414 795Q414 778 406 761T386 730T358 707T328 698Q314 698 299 707T271 729T250 760T242 793Q242 809 250 826T271 856T299 878T330 887Z"  />
<glyph unicode="&#xA2;" horiz-adv-x="860" d="M711 956Q699 956 691 958T672 970T646 995T608 1040Q600 1051 594 1057T571 1071L430 330Q486 341 540 388T643 512L653 506Q658 503 658 499T659 492Q659 483 652 465T632 425T602 379T565 332Q524 285 488 260T408 221L373 20Q373 15 372 13T365 10H324L328 16L369 219Q321 219 293 228T240 260Q222 277 207 302T181 357T164 422T158 492Q158 559 172 632T210 776T267 907T340 1014Q378 1057 429 1085T543 1126L565 1272Q567 1280 569 1283T578 1286H614L608 1270L582 1124H600Q636 1124 666 1117T718 1098T752 1068T764 1032Q764 997 749 977T711 956ZM408 965Q382 922 359 867T319 754T293 638T283 535Q283 447 308 397T389 334L532 1071Q489 1057 460 1031T408 965Z"  />
<glyph unicode="&#xA3;" horiz-adv-x="860" d="M793 1063Q765 1063 755 1076T740 1109T733 1152T719 1195T681 1228T604 1241Q526 1241 478 1211T402 1132T366 1021T356 895Q356 829 362 765T371 635H596Q594 618 590 602T584 569L373 571Q376 539 378 507T381 442Q381 398 375 360T354 286T319 218T270 150Q312 144 362 130T462 100T559 74T639 63Q656 63 674 68T707 84T731 110T741 145Q741 167 733 179T716 200T698 214T690 231Q690 257 708 278T754 299Q770 299 780 288T797 262T805 231T807 203Q807 159 786 118T730 44T653 -7T567 -27Q519 -27 474 -19T385 2T296 29T207 57Q184 28 151 6T80 -16Q61 -16 48 -5T35 25Q35 60 54 84T103 124T165 145T227 152Q258 186 267 230T276 317Q276 358 270 419T250 569H72L88 635H244Q241 673 237 712T233 791Q233 889 257 983T344 1155Q372 1190 406 1221T480 1275T564 1311T655 1325Q692 1325 729 1315T797 1285T845 1233T864 1159Q864 1141 861 1124T849 1094T828 1072T793 1063Z"  />
<glyph unicode="&#xA4;" horiz-adv-x="860" d="M838 317L721 432Q667 389 607 367T481 344Q431 344 367 363T240 432L125 317L68 377L182 485Q142 542 121 601T100 725Q100 790 121 850T182 965L68 1075L125 1135L240 1020Q306 1070 368 1088T481 1106Q535 1106 599 1086T721 1020L838 1135L893 1075L778 965Q825 903 843 844T862 725Q862 662 841 603T778 485L893 377L838 317ZM782 727Q782 794 756 849T688 943T591 1004T481 1026Q416 1026 361 1002T266 937T203 841T180 727Q180 665 203 610T268 514T364 449T481 424Q542 424 597 448T693 514T758 610T782 727Z"  />
<glyph unicode="&#xA5;" horiz-adv-x="860" d="M774 776Q779 776 781 773T784 768Q784 765 783 756T779 736T774 717T768 709H573Q558 683 546 666T526 633T512 596T502 545H727Q735 545 735 535Q735 530 734 521T731 501T725 484T717 477H492L453 250Q446 210 442 177T438 117Q438 87 445 70T465 44T496 33T537 31H569Q582 31 586 29T590 12Q590 7 590 3T584 -4Q582 -6 578 -6Q556 -6 502 -3T369 0Q297 0 242 -3T162 -6Q151 -6 149 -4T147 10Q147 24 153 27T180 31Q214 31 235 33T269 42T289 58T303 84Q315 112 321 142T334 201L385 477H156Q150 477 150 483Q150 496 153 510T158 537Q158 545 166 545H397Q399 560 401 574T403 604Q403 632 398 657T385 709H188Q178 709 178 717Q178 719 179 726T181 742T183 758T184 768Q184 773 187 774T195 776H365Q360 792 355 808T344 840Q315 933 295 996T259 1100T233 1167T213 1208Q193 1242 174 1251T139 1260Q114 1260 109 1263T104 1282Q104 1296 111 1298T129 1300Q167 1300 204 1298T281 1296Q333 1296 384 1298T487 1300Q497 1300 498 1296T500 1284Q500 1269 495 1264T475 1257Q461 1255 441 1255T403 1253T371 1240T358 1210Q358 1187 367 1158T383 1106Q398 1053 413 1003T444 899Q460 848 475 798T502 696Q509 710 517 722T537 751T565 788T602 842Q649 909 689 969T759 1079T806 1165T823 1219Q823 1236 814 1244T791 1255T761 1259T731 1261T708 1265T698 1278Q698 1284 700 1292T713 1300Q728 1300 750 1300T799 1298T850 1297T897 1296Q917 1296 933 1296T965 1298T997 1299T1034 1300Q1040 1300 1044 1299T1049 1292Q1049 1284 1048 1274T1038 1262L1028 1260Q1011 1256 996 1248T969 1229Q924 1194 849 1094T651 815Q645 806 637 796T621 776H774Z"  />
<glyph unicode="&#xA6;" horiz-adv-x="471" d="M223 739V1421H309V739H223ZM223 -440V240H309V-440H223Z"  />
<glyph unicode="&#xA7;" horiz-adv-x="860" d="M778 1118Q772 1118 766 1121T748 1137Q720 1168 679 1184T592 1200Q550 1200 514 1187T450 1151T407 1097T391 1032Q391 1005 397 982T426 920T490 819T604 655Q638 605 661 565T698 489T717 423T723 360Q723 256 663 175T471 31Q516 -35 534 -90T553 -199Q553 -268 523 -331T443 -444T328 -522T190 -551Q152 -551 119 -542T60 -516T19 -480T4 -436Q4 -421 10 -407T26 -382T49 -365T78 -358Q96 -358 108 -373T133 -406Q153 -432 189 -445T262 -459Q306 -459 341 -447T402 -414T441 -362T455 -293Q455 -259 447 -225T417 -147T361 -47T272 86Q236 139 212 180T173 256T152 320T145 379Q145 413 153 448T178 517T215 579T264 631Q275 639 286 646T311 663T346 683T397 709L377 741Q357 773 344 798T322 846T309 888T305 932Q305 1005 334 1072T412 1189T526 1270T664 1300Q702 1300 734 1292T789 1270T825 1236T838 1196Q838 1181 833 1167T819 1142T800 1125T778 1118ZM428 674Q343 634 301 575T258 444Q258 409 267 375T292 307T326 243T365 184L446 63Q531 108 572 169T614 305Q614 338 606 370T577 444T520 540T428 674Z"  />
<glyph unicode="&#xA8;" horiz-adv-x="981" d="M784 1042Q773 1042 761 1049T739 1068T722 1094T715 1120Q715 1135 722 1151T740 1180T764 1201T791 1210Q803 1210 815 1202T838 1182T855 1155T862 1126Q862 1112 855 1098T837 1071T812 1050T784 1042ZM496 1042Q485 1042 473 1049T451 1068T433 1094T426 1120Q426 1135 433 1151T451 1180T475 1201T502 1210Q513 1210 525 1202T548 1182T566 1155T573 1126Q573 1112 566 1098T547 1071T523 1050T496 1042Z"  />
<glyph unicode="&#xA9;" horiz-adv-x="1552" d="M821 -14Q729 -14 644 9T484 75T350 178T246 312T180 471T156 649Q156 786 208 905T352 1112T567 1252T831 1303Q920 1303 1003 1279T1160 1212T1293 1109T1396 975T1463 819T1487 645Q1487 554 1464 470T1397 312T1293 178T1158 76T999 10T821 -14ZM811 1231Q734 1231 662 1210T526 1150T411 1057T321 938T263 799T242 645Q242 524 287 417T412 230T596 104T821 57Q901 57 975 78T1114 137T1232 229T1322 349T1380 490T1401 649Q1401 770 1355 876T1229 1061T1042 1185T811 1231ZM1135 995Q1130 981 1125 961T1116 919T1110 880T1106 852Q1104 841 1100 835T1085 829Q1075 829 1070 830T1063 835T1060 849T1059 874Q1059 905 1053 922T1030 952Q1004 975 966 986T881 997Q811 997 752 969T649 889T582 766T557 610Q557 543 575 489T625 395T703 335T803 313Q952 313 1016 444Q1021 459 1032 459Q1043 459 1052 454T1061 440Q1061 438 1058 428T1051 410Q1043 387 1035 362T1018 307Q1015 298 1011 295T991 287Q946 274 897 267T799 260Q713 260 645 284T528 353T454 464T428 610Q428 707 462 788T559 928T706 1020T893 1053Q908 1053 928 1052T970 1050T1013 1045T1053 1038Q1074 1033 1085 1032T1102 1030Q1107 1030 1110 1033T1122 1036Q1130 1036 1136 1032T1143 1022Q1143 1019 1141 1013T1135 995Z"  />
<glyph unicode="&#xAA;" horiz-adv-x="498" d="M514 883Q483 830 451 800T389 770Q371 770 358 785T344 821Q344 832 345 844T351 875T362 917T379 977Q354 939 341 917T317 881Q306 865 301 857T287 838Q256 803 228 787T172 770Q137 770 116 797T94 868Q94 929 125 997T208 1128T325 1239T457 1307Q465 1330 473 1338T498 1346Q530 1346 530 1323Q530 1312 525 1293T514 1257Q506 1228 496 1192T477 1118T458 1043T442 975T430 923T426 895Q426 881 440 881Q457 881 483 917T535 1020H551L555 1010Q558 1002 559 998T561 989Q561 978 551 955T514 883ZM393 1210Q361 1210 324 1182T256 1111T203 1018T182 924Q182 898 191 881T215 864Q231 864 252 880T297 923T341 984T380 1053T407 1121T418 1180Q418 1210 393 1210Z"  />
<glyph unicode="&#xAB;" horiz-adv-x="870" d="M236 471Q241 462 244 456T250 438Q256 429 263 413T285 367Q298 339 316 298T350 219T379 152T391 121Q391 118 386 114T374 105T361 97T350 94Q344 94 338 101T319 125Q304 150 286 172T250 217Q215 265 175 316T96 412Q87 421 73 437T59 465Q59 474 68 479Q70 482 72 484T80 492L100 508Q135 534 185 576T288 665T393 758T481 838Q487 843 491 844T498 846Q501 846 507 842T520 833T532 822T537 813Q537 804 464 721T236 471ZM575 471Q580 462 583 456T590 438Q596 429 603 413T625 367Q638 339 656 298T690 219T719 152T731 121Q731 118 726 114T714 105T701 97T690 94Q684 94 678 101T659 125Q644 150 626 172T590 217Q555 265 515 316T436 412Q427 421 413 437T399 465Q399 474 408 479Q410 482 412 484T420 492L440 508Q474 534 524 576T628 665T733 758T821 838Q827 843 831 844T838 846Q841 846 847 842T860 833T872 822T877 813Q877 804 804 721T575 471Z"  />
<glyph unicode="&#xAC;" horiz-adv-x="860" d="M713 459V723H96V819H831V459H713Z"  />
<glyph unicode="&#xAD;" horiz-adv-x="553" d="M459 426H66L92 539H487L459 426Z"  />
<glyph unicode="&#xAE;" horiz-adv-x="1552" d="M821 -14Q729 -14 644 9T484 75T350 178T246 312T180 471T156 649Q156 786 208 905T352 1112T567 1252T831 1303Q920 1303 1003 1279T1160 1212T1293 1109T1396 975T1463 819T1487 645Q1487 554 1464 470T1397 312T1293 178T1158 76T999 10T821 -14ZM811 1231Q734 1231 662 1210T526 1150T411 1057T321 938T263 799T242 645Q242 524 287 417T412 230T596 104T821 57Q901 57 975 78T1114 137T1232 229T1322 349T1380 490T1401 649Q1401 770 1355 876T1229 1061T1042 1185T811 1231ZM1104 266Q1072 266 1044 274T991 301T943 349T897 420Q887 437 879 452T862 489T840 540T809 616Q773 616 735 623Q707 510 697 444T686 360Q686 337 706 327T784 313Q797 311 802 309T807 295Q807 286 802 279T786 272Q738 272 692 273T598 274Q585 274 577 274T555 273T521 273T463 272Q454 272 448 275T442 289Q442 298 447 304T461 313Q493 318 512 323T543 345T565 392T588 481Q609 573 625 640T652 757T670 839T681 895T686 933T688 961Q688 978 672 986T604 997Q580 997 580 1012Q580 1023 585 1031T600 1040L633 1038Q641 1038 654 1037T682 1036Q711 1036 738 1036T803 1040Q832 1042 854 1042T891 1042Q1120 1042 1120 868Q1120 785 1067 724T918 635Q982 466 1041 391T1167 315Q1172 315 1177 315T1192 317Q1204 317 1204 305Q1204 282 1183 274T1104 266ZM854 997Q834 997 829 993T819 977Q815 964 811 947T798 896T777 810T745 672Q761 667 770 666T795 664Q873 664 920 694Q938 706 953 724T980 763T998 810T1004 860Q1004 923 965 960T854 997Z"  />
<glyph unicode="&#xAF;" horiz-adv-x="1022" d="M887 1096Q884 1083 877 1083H428Q418 1083 418 1092Q418 1095 419 1101T422 1114L430 1155Q432 1163 434 1165T442 1167H891Q897 1167 899 1167T901 1161Q901 1158 900 1151T895 1130L887 1096Z"  />
<glyph unicode="&#xB0;" horiz-adv-x="860" d="M551 840Q497 840 452 858T373 909T320 987T301 1085Q301 1137 320 1181T374 1258T454 1309T555 1327Q607 1327 652 1309T730 1257T782 1180T801 1083Q801 1031 782 987T730 910T651 859T551 840ZM549 1243Q519 1243 493 1231T448 1198T417 1148T406 1083Q406 1048 417 1019T447 969T493 936T551 924Q583 924 610 936T656 969T687 1020T698 1085Q698 1120 687 1149T656 1199T609 1231T549 1243Z"  />
<glyph unicode="&#xB1;" horiz-adv-x="860" d="M489 598V270H393V598H76V696H393V1024H489V696H809V598H489ZM74 0V96H809V0H74Z"  />
<glyph unicode="&#xB2;" horiz-adv-x="600" d="M354 926Q366 926 391 926T444 927T495 929T526 934Q536 937 547 954T567 991Q575 1008 580 1022T594 1036Q599 1036 606 1032T614 1016Q614 1013 612 1008T606 993Q600 978 596 965T587 939T578 910T567 877Q567 873 565 866T563 856Q557 839 549 837T522 834Q507 834 489 834T448 836T394 837T322 838Q278 838 232 837T117 831Q110 831 105 835T97 845T93 857T92 866Q92 876 93 879T100 887Q175 958 245 1027T387 1171Q424 1209 452 1242T499 1308T529 1378T539 1460Q539 1508 512 1539T428 1571Q396 1571 366 1560T311 1526T266 1472T236 1399H223V1458Q223 1481 228 1494T248 1526Q266 1549 291 1571T344 1611T404 1640T465 1651Q507 1651 540 1637T595 1599T629 1543T641 1473Q641 1426 627 1384T590 1302T536 1228T471 1159Q438 1127 405 1098T338 1041T270 985T201 926H354Z"  />
<glyph unicode="&#xB3;" horiz-adv-x="600" d="M535 1352Q529 1347 522 1343T505 1332T482 1319T449 1300Q518 1294 558 1248T598 1124Q598 1064 571 1009T497 912T388 846T258 821Q230 821 206 828T163 846T134 873T123 905Q123 927 142 941T182 956Q188 956 198 951T219 932Q236 910 267 898T332 885Q375 885 406 905T457 956T486 1027T496 1106Q496 1178 464 1208T373 1239Q362 1239 346 1236T319 1229Q304 1224 298 1221T289 1217Q281 1217 276 1223T270 1237Q270 1243 272 1248T283 1257Q323 1272 364 1293T440 1341T496 1402T518 1475Q518 1524 492 1546T424 1569Q377 1569 338 1544T270 1452H256V1497Q256 1503 257 1514T264 1534Q304 1587 359 1618T469 1649Q505 1649 533 1638T582 1608T612 1561T623 1501Q623 1459 600 1422T535 1352Z"  />
<glyph unicode="&#xB4;" horiz-adv-x="985" d="M541 1014Q538 1014 528 1016T518 1024Q520 1027 523 1031T528 1038L727 1288Q736 1299 747 1312T774 1325Q784 1325 800 1323T831 1316T857 1303T868 1282Q868 1267 859 1257T838 1237L561 1028Q558 1025 552 1020T541 1014Z"  />
<glyph unicode="&#xB5;" horiz-adv-x="893" d="M553 -20Q535 -20 522 -13T501 7T489 34T485 66Q485 84 488 105T499 156T522 231T557 338L635 569Q564 458 490 348T330 135Q315 117 294 94T248 50T196 16T143 2Q124 2 113 10Q109 -10 103 -43T90 -114T76 -192T61 -267T49 -327T41 -362Q36 -382 30 -395T14 -416T-10 -427T-47 -430Q-84 -430 -84 -391Q-84 -386 -78 -362T-62 -301T-38 -219T-11 -128Q22 -20 63 115Q99 238 130 334T186 504T230 631T264 719Q266 724 269 732T272 743Q272 748 268 748Q259 748 243 733T211 700Q194 682 177 662T145 622T117 585T96 555H82Q80 563 79 571T78 586Q78 593 89 611T115 650T142 687T158 709Q172 727 197 757T251 816T310 867T367 889Q388 889 399 877T410 844Q410 837 407 825T399 800T390 775T383 756Q364 703 343 640T300 511T260 383T226 270T202 184T193 139Q193 134 193 131T195 123Q195 118 199 118T207 117Q219 117 239 129T293 176Q325 210 363 258T440 361T513 471T573 573Q599 621 622 670T666 770Q674 790 683 810T700 850Q707 865 716 877T743 889Q766 889 784 873T803 834Q803 814 797 796T784 760Q778 742 763 693T727 580T685 444T645 309T616 199T604 137Q604 129 606 124T618 119Q635 119 655 135T697 176T739 232T777 292T808 347T827 385H848V350Q848 333 844 318T829 285Q812 249 785 206T728 122T671 50T629 8Q612 -3 593 -11T553 -20Z"  />
<glyph unicode="&#xB6;" horiz-adv-x="1403" d="M1288 1141Q1273 1139 1257 1137T1218 1134T1165 1131T1092 1130V12Q1092 -74 1092 -130T1089 -223T1083 -286T1073 -336Q1055 -414 1008 -457T899 -500Q848 -500 815 -471T782 -395Q782 -377 788 -361T806 -333T831 -313T862 -305Q873 -305 882 -307T909 -319Q923 -327 933 -330T952 -334Q970 -334 985 -325T1011 -291T1029 -221T1036 -102V98Q1003 97 960 96T877 94T805 91T762 90Q632 90 526 130T345 243T228 420T186 649Q186 775 222 874T328 1043T497 1149T723 1186Q737 1186 756 1186T805 1184Q864 1181 920 1180T1036 1176Q1034 1259 1034 1318T1032 1409H1100Q1098 1387 1097 1369T1095 1326T1094 1266T1092 1174Q1159 1174 1196 1176T1252 1186T1276 1212T1284 1262Q1286 1285 1297 1298T1327 1311Q1356 1311 1373 1293T1391 1249Q1391 1204 1365 1176T1288 1141ZM1036 1130H975Q923 1130 889 1129T834 1122T802 1109T784 1085Q780 1077 778 1053T775 978T773 845T772 639Q772 550 772 477T772 348T774 259T778 213Q781 196 787 185T806 165T836 153T881 147Q899 145 937 145T1036 145V1130Z"  />
<glyph unicode="&#xB7;" horiz-adv-x="381" d="M232 569Q217 569 202 577T175 599T156 629T148 662Q148 679 156 696T176 727T204 749T234 758Q249 758 264 750T291 728T312 697T320 664Q320 648 312 631T292 601T263 578T232 569Z"  />
<glyph unicode="&#xB8;" horiz-adv-x="1022" d="M371 -117Q368 -122 365 -126T362 -133Q362 -138 375 -148T397 -164Q426 -186 436 -203T446 -242Q446 -277 427 -309T378 -367T309 -408T231 -424Q194 -424 170 -408T145 -365Q145 -348 157 -333T186 -317Q193 -317 200 -319T223 -332Q240 -341 254 -345T285 -350Q317 -350 337 -332T358 -285Q358 -268 342 -249T297 -213Q275 -201 268 -193T260 -170Q260 -158 268 -148T293 -121Q345 -76 383 -39T438 16H479Q453 -15 435 -37T403 -75T383 -101T371 -117Z"  />
<glyph unicode="&#xB9;" horiz-adv-x="600" d="M426 1425Q428 1438 431 1452T436 1478T440 1501T442 1516Q442 1524 440 1527T430 1530Q415 1530 394 1523T354 1509L319 1497Q317 1496 315 1496Q313 1495 309 1495Q299 1495 299 1505Q299 1516 301 1520T315 1530L420 1579Q489 1611 520 1633T557 1655Q565 1655 569 1648T573 1634Q573 1631 570 1617T561 1585Q552 1553 544 1508T524 1413L467 1124Q460 1089 454 1057T444 998T437 950T434 918Q434 908 435 900T447 885T480 875T543 870Q551 870 558 867T565 852Q565 838 561 835T539 831Q501 831 463 834T373 838Q326 838 281 835T184 831Q173 831 170 833T166 848Q166 853 166 858T170 866Q173 869 185 870T233 874Q244 874 251 875T262 877Q294 883 307 899T328 944Q332 962 337 985T348 1033T358 1082T367 1124L426 1425Z"  />
<glyph unicode="&#xBA;" horiz-adv-x="467" d="M242 770Q179 770 143 817T106 950Q106 1026 127 1094T183 1213T265 1293T365 1323Q426 1323 463 1273T500 1133Q500 1061 479 995T423 879T340 800T242 770ZM346 1276Q322 1276 296 1244T249 1162T215 1051T201 930Q201 879 216 848T256 817Q283 817 310 847T359 926T394 1036T408 1159Q408 1213 392 1244T346 1276Z"  />
<glyph unicode="&#xBB;" horiz-adv-x="870" d="M649 469Q644 478 641 484T635 502Q629 511 622 527T600 573Q587 601 569 642T534 721T506 788T494 819Q494 822 499 826T510 835T524 843T535 846Q541 846 547 839T565 815Q581 790 599 768T635 723Q670 675 710 624T788 528Q798 519 811 504T825 475Q825 466 817 461Q815 458 813 456T805 449L784 432Q749 406 700 364T597 275T492 182T403 102Q392 94 387 94Q384 94 378 98T365 107T353 118T348 127Q348 136 421 219T649 469ZM309 469Q304 478 301 484T295 502Q289 511 282 527T260 573Q247 601 229 642T194 721T166 788T154 819Q154 822 159 826T170 835T184 843T195 846Q201 846 207 839T225 815Q241 790 259 768T295 723Q330 675 370 624T449 528Q458 519 471 504T485 475Q485 466 477 461Q475 458 473 456T465 449L444 432Q409 406 360 364T257 275T152 182T63 102Q52 94 47 94Q44 94 38 98T25 107T13 118T8 127Q8 136 81 219T309 469Z"  />
<glyph unicode="&#xBC;" horiz-adv-x="1366" d="M387 1099Q389 1112 392 1126T397 1152T401 1175T403 1190Q403 1198 401 1201T391 1204Q376 1204 355 1197T315 1183L280 1171Q278 1170 276 1170Q274 1169 270 1169Q260 1169 260 1179Q260 1190 262 1194T276 1204L381 1253Q450 1285 481 1307T518 1329Q526 1329 530 1322T534 1308Q534 1305 531 1291T522 1259Q513 1227 505 1182T485 1087L428 798Q421 763 415 731T405 672T398 624T395 592Q395 582 396 574T408 559T441 549T504 544Q512 544 519 541T526 526Q526 512 522 509T500 505Q462 505 424 508T334 512Q287 512 242 509T145 505Q134 505 131 507T127 522Q127 527 127 532T131 540Q134 543 146 544T194 548Q205 548 212 549T223 551Q255 557 268 573T289 618Q293 636 298 659T309 707T319 756T328 798L387 1099ZM321 -37Q375 57 429 148T537 334Q733 671 876 920T1108 1329H1196Q1127 1212 1073 1120T973 951T889 808T812 676T734 540T645 385T537 198T403 -37H321ZM782 213Q768 213 765 215T762 223L763 228Q764 232 765 238T768 258Q770 267 776 276T788 294L1171 731Q1193 756 1206 771T1226 795T1238 806T1247 809Q1250 809 1253 807T1261 802L1288 784Q1290 782 1292 781T1294 776Q1294 771 1292 763T1286 743Q1277 705 1267 656T1245 550L1196 288H1255Q1268 288 1281 289T1306 292Q1319 294 1331 297L1306 229Q1301 218 1295 216T1280 213H1179Q1170 163 1159 115T1138 16Q1136 2 1132 1T1118 -2L1063 -9Q1052 -11 1048 -11T1042 -11Q1036 -11 1036 -2Q1036 1 1037 5T1040 18L1081 213H782ZM1097 288L1169 659Q1091 566 1010 474T848 288H1097Z"  />
<glyph unicode="&#xBD;" horiz-adv-x="1427" d="M387 1099Q389 1112 392 1126T397 1152T401 1175T403 1190Q403 1198 401 1201T391 1204Q376 1204 355 1197T315 1183L280 1171Q278 1170 276 1170Q274 1169 270 1169Q260 1169 260 1179Q260 1190 262 1194T276 1204L381 1253Q450 1285 481 1307T518 1329Q526 1329 530 1322T534 1308Q534 1305 531 1291T522 1259Q513 1227 505 1182T485 1087L428 798Q421 763 415 731T405 672T398 624T395 592Q395 582 396 574T408 559T441 549T504 544Q512 544 519 541T526 526Q526 512 522 509T500 505Q462 505 424 508T334 512Q287 512 242 509T145 505Q134 505 131 507T127 522Q127 527 127 532T131 540Q134 543 146 544T194 548Q205 548 212 549T223 551Q255 557 268 573T289 618Q293 636 298 659T309 707T319 756T328 798L387 1099ZM321 -37Q375 57 429 148T537 334Q733 671 876 920T1108 1329H1196Q1127 1212 1073 1120T973 951T889 808T812 676T734 540T645 385T537 198T403 -37H321ZM1069 90Q1081 90 1106 90T1159 91T1210 93T1241 98Q1251 101 1262 118T1282 155Q1290 172 1295 186T1309 200Q1314 200 1321 196T1329 180Q1329 177 1327 172T1321 157Q1315 142 1311 129T1302 103T1293 74T1282 41Q1282 37 1280 30T1278 20Q1272 3 1264 1T1237 -2Q1222 -2 1204 -2T1163 0T1109 1T1037 2Q993 2 947 1T832 -5Q825 -5 820 -1T812 9T808 21T807 30Q807 40 808 43T815 51Q890 122 960 191T1102 335Q1139 373 1167 406T1214 472T1244 542T1254 624Q1254 672 1227 703T1143 735Q1111 735 1081 724T1026 690T981 636T951 563H938V622Q938 645 943 658T963 690Q981 713 1006 735T1059 775T1119 804T1180 815Q1222 815 1255 801T1310 763T1344 707T1356 637Q1356 590 1342 548T1305 466T1251 392T1186 323Q1153 291 1120 262T1053 205T985 149T916 90H1069Z"  />
<glyph unicode="&#xBE;" horiz-adv-x="1346" d="M496 1026Q490 1021 483 1017T466 1006T443 993T410 974Q479 968 519 922T559 798Q559 738 532 683T458 586T349 520T219 495Q191 495 167 502T124 520T95 547T84 579Q84 601 103 615T143 630Q149 630 159 625T180 606Q197 584 228 572T293 559Q336 559 367 579T418 630T447 701T457 780Q457 852 425 882T334 913Q323 913 307 910T280 903Q265 898 259 895T250 891Q242 891 237 897T231 911Q231 917 233 922T244 931Q284 946 325 967T401 1015T457 1076T479 1149Q479 1198 453 1220T385 1243Q338 1243 299 1218T231 1126H217V1171Q217 1177 218 1188T225 1208Q265 1261 320 1292T430 1323Q466 1323 494 1312T543 1282T573 1235T584 1175Q584 1133 561 1096T496 1026ZM301 -37Q355 57 409 148T517 334Q713 671 856 920T1088 1329H1176Q1107 1212 1053 1120T953 951T869 808T792 676T714 540T625 385T517 198T383 -37H301ZM762 213Q748 213 745 215T742 223L743 228Q744 232 745 238T748 258Q750 267 756 276T768 294L1151 731Q1173 756 1186 771T1206 795T1218 806T1227 809Q1230 809 1233 807T1241 802L1268 784Q1270 782 1272 781T1274 776Q1274 771 1272 763T1266 743Q1257 705 1247 656T1225 550L1176 288H1235Q1248 288 1261 289T1286 292Q1299 294 1311 297L1286 229Q1281 218 1275 216T1260 213H1159Q1150 163 1139 115T1118 16Q1116 2 1112 1T1098 -2L1043 -9Q1032 -11 1028 -11T1022 -11Q1016 -11 1016 -2Q1016 1 1017 5T1020 18L1061 213H762ZM1077 288L1149 659Q1071 566 990 474T828 288H1077Z"  />
<glyph unicode="&#xBF;" horiz-adv-x="692" d="M442 698Q427 698 412 706T385 728T366 758T358 791Q358 808 366 825T386 856T414 878T444 887Q458 887 473 879T500 857T520 826T528 793Q528 777 520 760T500 730T472 707T442 698ZM260 80Q206 33 170 -3T113 -70T83 -127T74 -180Q74 -213 85 -242T118 -294T172 -329T248 -342Q282 -342 314 -335T381 -305Q389 -302 395 -299T410 -295H418Q436 -295 451 -315T467 -365Q466 -382 453 -398T419 -427T371 -447T313 -455Q254 -455 197 -428T96 -354T24 -247T-4 -121Q-4 -79 10 -42T48 29T101 92T160 147Q180 164 199 179T233 211Q283 255 315 286T365 341T390 385T397 426Q397 471 363 500T266 543V549L279 569Q287 576 289 578T295 580Q330 580 365 567T429 529T476 470T494 393Q494 358 482 327T443 259T371 180T260 80Z"  />
<glyph unicode="&#xC0;" horiz-adv-x="1069" d="M1028 27Q1028 25 1027 19T1024 8Q1021 -3 1017 -4T1001 -6Q995 -6 986 -6T967 -4Q956 -3 946 -2Q917 0 887 1T827 2Q743 2 664 -4Q657 -5 651 -5Q646 -6 641 -6T631 -6Q620 -6 616 -3T612 8V18Q615 35 621 37Q624 40 629 40T639 41H657Q696 41 723 45T762 63Q770 73 772 87T774 121Q774 132 774 145T772 174Q764 253 753 332T733 492H354Q322 427 294 366T236 242Q217 201 204 163T190 94Q190 75 197 63Q203 53 218 48T253 41T291 38T322 37H328H338Q340 37 342 37T346 35Q350 31 350 27Q350 25 349 22T348 16Q345 1 343 -2T326 -6H311Q256 -6 205 -4T100 -2Q83 -2 66 -3T31 -4Q21 -5 11 -5Q3 -6 -6 -6T-20 -6Q-30 -6 -33 -5T-37 6V14Q-35 28 -34 31T-23 35Q-6 35 13 42T45 61Q56 70 68 86T94 128T127 187T168 268Q292 514 380 692T526 991T616 1182T659 1282Q663 1290 665 1293T674 1300Q682 1302 693 1306T713 1313Q722 1316 732 1320T750 1325Q759 1325 762 1303Q787 1099 817 861T885 344Q894 281 900 235T911 154Q918 120 923 99T936 63Q941 53 948 49T964 42T985 40T1012 39Q1023 39 1025 36T1028 27ZM653 1137Q601 1028 565 950T499 807T441 681T379 545H727Q719 609 710 681T691 830T672 984T653 1137ZM542 1653Q531 1664 522 1676T512 1704Q512 1724 525 1729T555 1741Q569 1746 585 1750T616 1755Q631 1755 638 1743T651 1718L770 1468Q772 1465 772 1463T774 1458Q774 1449 767 1448T753 1446Q745 1446 737 1451T724 1462L542 1653Z"  />
<glyph unicode="&#xC1;" horiz-adv-x="1069" d="M1028 27Q1028 25 1027 19T1024 8Q1021 -3 1017 -4T1001 -6Q995 -6 986 -6T967 -4Q956 -3 946 -2Q917 0 887 1T827 2Q743 2 664 -4Q657 -5 651 -5Q646 -6 641 -6T631 -6Q620 -6 616 -3T612 8V18Q615 35 621 37Q624 40 629 40T639 41H657Q696 41 723 45T762 63Q770 73 772 87T774 121Q774 132 774 145T772 174Q764 253 753 332T733 492H354Q322 427 294 366T236 242Q217 201 204 163T190 94Q190 75 197 63Q203 53 218 48T253 41T291 38T322 37H328H338Q340 37 342 37T346 35Q350 31 350 27Q350 25 349 22T348 16Q345 1 343 -2T326 -6H311Q256 -6 205 -4T100 -2Q83 -2 66 -3T31 -4Q21 -5 11 -5Q3 -6 -6 -6T-20 -6Q-30 -6 -33 -5T-37 6V14Q-35 28 -34 31T-23 35Q-6 35 13 42T45 61Q56 70 68 86T94 128T127 187T168 268Q292 514 380 692T526 991T616 1182T659 1282Q663 1290 665 1293T674 1300Q682 1302 693 1306T713 1313Q722 1316 732 1320T750 1325Q759 1325 762 1303Q787 1099 817 861T885 344Q894 281 900 235T911 154Q918 120 923 99T936 63Q941 53 948 49T964 42T985 40T1012 39Q1023 39 1025 36T1028 27ZM653 1137Q601 1028 565 950T499 807T441 681T379 545H727Q719 609 710 681T691 830T672 984T653 1137ZM699 1444Q696 1444 686 1446T676 1454Q678 1457 681 1461T686 1468L885 1718Q894 1729 905 1742T932 1755Q942 1755 958 1753T989 1746T1015 1733T1026 1712Q1026 1697 1017 1687T996 1667L719 1458Q716 1455 710 1450T699 1444Z"  />
<glyph unicode="&#xC2;" horiz-adv-x="1069" d="M1028 27Q1028 25 1027 19T1024 8Q1021 -3 1017 -4T1001 -6Q995 -6 986 -6T967 -4Q956 -3 946 -2Q917 0 887 1T827 2Q743 2 664 -4Q657 -5 651 -5Q646 -6 641 -6T631 -6Q620 -6 616 -3T612 8V18Q615 35 621 37Q624 40 629 40T639 41H657Q696 41 723 45T762 63Q770 73 772 87T774 121Q774 132 774 145T772 174Q764 253 753 332T733 492H354Q322 427 294 366T236 242Q217 201 204 163T190 94Q190 75 197 63Q203 53 218 48T253 41T291 38T322 37H328H338Q340 37 342 37T346 35Q350 31 350 27Q350 25 349 22T348 16Q345 1 343 -2T326 -6H311Q256 -6 205 -4T100 -2Q83 -2 66 -3T31 -4Q21 -5 11 -5Q3 -6 -6 -6T-20 -6Q-30 -6 -33 -5T-37 6V14Q-35 28 -34 31T-23 35Q-6 35 13 42T45 61Q56 70 68 86T94 128T127 187T168 268Q292 514 380 692T526 991T616 1182T659 1282Q663 1290 665 1293T674 1300Q682 1302 693 1306T713 1313Q722 1316 732 1320T750 1325Q759 1325 762 1303Q787 1099 817 861T885 344Q894 281 900 235T911 154Q918 120 923 99T936 63Q941 53 948 49T964 42T985 40T1012 39Q1023 39 1025 36T1028 27ZM653 1137Q601 1028 565 950T499 807T441 681T379 545H727Q719 609 710 681T691 830T672 984T653 1137ZM903 1440Q901 1440 892 1452T869 1484T840 1526T810 1569T785 1606T770 1628Q755 1616 745 1607T726 1590T706 1573T678 1548Q671 1543 659 1532T634 1510T610 1488T592 1472Q588 1470 582 1465T568 1453T554 1443T543 1438Q536 1438 529 1446T522 1460Q522 1466 530 1475T543 1489Q600 1551 649 1611T752 1737Q761 1748 772 1754T797 1761Q804 1761 811 1752T823 1731T833 1706T840 1685Q841 1682 845 1671T856 1643T869 1608T885 1568Q903 1521 926 1464Q926 1458 918 1449T903 1440Z"  />
<glyph unicode="&#xC3;" horiz-adv-x="1069" d="M1028 27Q1028 25 1027 19T1024 8Q1021 -3 1017 -4T1001 -6Q995 -6 986 -6T967 -4Q956 -3 946 -2Q917 0 887 1T827 2Q743 2 664 -4Q657 -5 651 -5Q646 -6 641 -6T631 -6Q620 -6 616 -3T612 8V18Q615 35 621 37Q624 40 629 40T639 41H657Q696 41 723 45T762 63Q770 73 772 87T774 121Q774 132 774 145T772 174Q764 253 753 332T733 492H354Q322 427 294 366T236 242Q217 201 204 163T190 94Q190 75 197 63Q203 53 218 48T253 41T291 38T322 37H328H338Q340 37 342 37T346 35Q350 31 350 27Q350 25 349 22T348 16Q345 1 343 -2T326 -6H311Q256 -6 205 -4T100 -2Q83 -2 66 -3T31 -4Q21 -5 11 -5Q3 -6 -6 -6T-20 -6Q-30 -6 -33 -5T-37 6V14Q-35 28 -34 31T-23 35Q-6 35 13 42T45 61Q56 70 68 86T94 128T127 187T168 268Q292 514 380 692T526 991T616 1182T659 1282Q663 1290 665 1293T674 1300Q682 1302 693 1306T713 1313Q722 1316 732 1320T750 1325Q759 1325 762 1303Q787 1099 817 861T885 344Q894 281 900 235T911 154Q918 120 923 99T936 63Q941 53 948 49T964 42T985 40T1012 39Q1023 39 1025 36T1028 27ZM653 1137Q601 1028 565 950T499 807T441 681T379 545H727Q719 609 710 681T691 830T672 984T653 1137ZM1022 1655Q1022 1652 1014 1638T985 1595Q941 1530 907 1506T846 1481Q819 1481 796 1495T749 1528T703 1560T651 1575Q623 1575 599 1557T540 1493Q532 1485 530 1485Q529 1485 528 1486Q527 1487 526 1487T524 1489L512 1499Q509 1502 509 1503T508 1507Q508 1508 511 1513T518 1526T527 1540T534 1550Q576 1612 615 1647T682 1683Q710 1683 732 1668T776 1635T821 1602T876 1587Q902 1587 931 1608T987 1669Q992 1677 997 1677Q1001 1677 1005 1673L1018 1661Q1022 1657 1022 1655Z"  />
<glyph unicode="&#xC4;" horiz-adv-x="1069" d="M1028 27Q1028 25 1027 19T1024 8Q1021 -3 1017 -4T1001 -6Q995 -6 986 -6T967 -4Q956 -3 946 -2Q917 0 887 1T827 2Q743 2 664 -4Q657 -5 651 -5Q646 -6 641 -6T631 -6Q620 -6 616 -3T612 8V18Q615 35 621 37Q624 40 629 40T639 41H657Q696 41 723 45T762 63Q770 73 772 87T774 121Q774 132 774 145T772 174Q764 253 753 332T733 492H354Q322 427 294 366T236 242Q217 201 204 163T190 94Q190 75 197 63Q203 53 218 48T253 41T291 38T322 37H328H338Q340 37 342 37T346 35Q350 31 350 27Q350 25 349 22T348 16Q345 1 343 -2T326 -6H311Q256 -6 205 -4T100 -2Q83 -2 66 -3T31 -4Q21 -5 11 -5Q3 -6 -6 -6T-20 -6Q-30 -6 -33 -5T-37 6V14Q-35 28 -34 31T-23 35Q-6 35 13 42T45 61Q56 70 68 86T94 128T127 187T168 268Q292 514 380 692T526 991T616 1182T659 1282Q663 1290 665 1293T674 1300Q682 1302 693 1306T713 1313Q722 1316 732 1320T750 1325Q759 1325 762 1303Q787 1099 817 861T885 344Q894 281 900 235T911 154Q918 120 923 99T936 63Q941 53 948 49T964 42T985 40T1012 39Q1023 39 1025 36T1028 27ZM653 1137Q601 1028 565 950T499 807T441 681T379 545H727Q719 609 710 681T691 830T672 984T653 1137ZM890 1472Q879 1472 867 1479T845 1498T828 1524T821 1550Q821 1565 828 1581T846 1610T870 1631T897 1640Q909 1640 921 1632T944 1612T961 1585T968 1556Q968 1542 961 1528T943 1501T918 1480T890 1472ZM602 1472Q591 1472 579 1479T557 1498T539 1524T532 1550Q532 1565 539 1581T557 1610T581 1631T608 1640Q619 1640 631 1632T654 1612T672 1585T679 1556Q679 1542 672 1528T653 1501T629 1480T602 1472Z"  />
<glyph unicode="&#xC5;" horiz-adv-x="1069" d="M1028 27Q1028 25 1027 19T1024 8Q1021 -3 1017 -4T1001 -6Q995 -6 986 -6T967 -4Q956 -3 946 -2Q917 0 887 1T827 2Q743 2 664 -4Q657 -5 651 -5Q646 -6 641 -6T631 -6Q620 -6 616 -3T612 8V18Q615 35 621 37Q624 40 629 40T639 41H657Q696 41 723 45T762 63Q770 73 772 87T774 121Q774 132 774 145T772 174Q764 253 753 332T733 492H354Q322 427 294 366T236 242Q217 201 204 163T190 94Q190 75 197 63Q203 53 218 48T253 41T291 38T322 37H328H338Q340 37 342 37T346 35Q350 31 350 27Q350 25 349 22T348 16Q345 1 343 -2T326 -6H311Q256 -6 205 -4T100 -2Q83 -2 66 -3T31 -4Q21 -5 11 -5Q3 -6 -6 -6T-20 -6Q-30 -6 -33 -5T-37 6V14Q-35 28 -34 31T-23 35Q-6 35 13 42T45 61Q56 70 68 86T94 128T127 187T168 268Q292 514 380 692T526 991T616 1182T659 1282Q663 1290 665 1293T674 1300Q682 1302 693 1306T713 1313Q722 1316 732 1320T750 1325Q759 1325 762 1303Q787 1099 817 861T885 344Q894 281 900 235T911 154Q918 120 923 99T936 63Q941 53 948 49T964 42T985 40T1012 39Q1023 39 1025 36T1028 27ZM653 1137Q601 1028 565 950T499 807T441 681T379 545H727Q719 609 710 681T691 830T672 984T653 1137ZM725 1444Q683 1444 652 1456T601 1488T570 1535T560 1589Q560 1620 572 1650T608 1705T667 1744T748 1759Q783 1759 813 1749T864 1719T898 1673T910 1614Q910 1576 896 1545T857 1492T798 1457T725 1444ZM740 1712Q720 1712 703 1703T674 1676T655 1635T648 1585Q648 1540 670 1516T728 1491Q770 1491 795 1526T820 1618Q820 1663 799 1687T740 1712Z"  />
<glyph unicode="&#xC6;" horiz-adv-x="1571" d="M1520 983Q1515 983 1508 984T1501 991Q1501 1023 1503 1054T1505 1118Q1505 1137 1504 1159T1491 1196Q1482 1209 1466 1217T1419 1231T1340 1239T1219 1241H1157Q1129 1241 1112 1235T1087 1198L999 702Q1091 702 1148 703T1241 709T1295 720T1329 741Q1341 753 1350 772T1367 809T1379 843T1391 862Q1395 866 1397 866Q1405 866 1414 862T1423 850Q1423 847 1422 844T1421 838Q1419 835 1417 826T1415 815Q1403 759 1389 704T1366 592Q1360 560 1358 529T1350 467Q1348 459 1347 454T1335 449Q1323 449 1317 452T1311 467V535Q1311 552 1310 572T1298 606Q1290 617 1277 624T1231 636T1141 643T989 645L932 289Q926 249 919 207T911 123Q911 117 912 107T918 90Q925 79 942 73T981 65T1022 62T1055 61Q1128 61 1176 63T1257 72T1311 90T1350 119Q1387 154 1412 204T1452 303Q1454 308 1456 312T1458 324Q1458 330 1463 331T1473 332Q1482 332 1488 328T1495 313Q1495 298 1487 268T1467 198T1440 116T1411 31Q1406 15 1400 5T1376 -6Q1276 -6 1177 -2T975 2Q937 2 898 1T821 0Q769 0 716 -3T610 -6Q598 -6 598 4Q598 10 599 21T606 35Q609 38 625 38T663 39T705 44T739 61Q755 75 763 96T776 137Q799 246 818 354T854 571H510Q430 460 371 380T274 243T216 152T197 94Q197 72 210 62T242 47T282 43T319 41Q327 41 331 39T336 27Q336 19 333 7T319 -6Q254 -6 190 -3T59 0Q35 0 9 -2T-43 -4Q-54 -4 -62 -3T-70 8Q-70 14 -67 25T-59 37Q-47 39 -32 41T-6 47Q17 56 34 73T70 113Q243 336 410 557T743 1008Q762 1032 779 1056T815 1106Q823 1116 834 1130T855 1161T872 1194T879 1223Q879 1245 860 1251T817 1257T774 1259T754 1272Q754 1284 756 1293T772 1303Q840 1303 906 1301T1040 1298Q1177 1298 1312 1300T1583 1305Q1591 1305 1598 1303T1606 1290Q1606 1284 1605 1279T1602 1268Q1583 1202 1565 1136T1538 999Q1536 990 1534 987T1520 983ZM862 623L930 1008Q934 1029 938 1057T947 1114T953 1166T956 1200L545 623H862Z"  />
<glyph unicode="&#xC7;" horiz-adv-x="1030" d="M1057 1253Q1043 1182 1033 1118T1016 989Q1016 981 1014 974T1001 967H991Q982 967 980 974T977 999V1053Q977 1088 970 1125T938 1188Q916 1209 889 1223T833 1245T772 1257T711 1260Q632 1260 566 1231T449 1153T359 1036T295 892T257 733T244 571Q244 515 252 453T277 331T323 217T392 121T487 56T610 31Q682 31 739 52T846 127Q875 158 891 195T922 272Q924 275 925 280T932 285Q937 285 946 281T956 270Q956 265 955 260T952 250Q935 199 923 149T899 45Q896 33 892 29T874 20Q823 2 755 -11T614 -25H594L535 -121Q526 -132 526 -137Q526 -142 537 -152T555 -168Q577 -188 589 -212T602 -258Q602 -296 585 -332T540 -396T477 -441T406 -459Q375 -459 353 -441T330 -395Q330 -377 340 -362T367 -346Q375 -346 379 -348L401 -360Q427 -377 455 -377Q484 -377 504 -357T524 -305Q524 -261 467 -219Q448 -205 441 -196T434 -174Q434 -165 440 -153T463 -123Q470 -116 481 -103T504 -74T527 -44T547 -20Q433 -9 350 42T214 172T135 353T109 569Q109 670 129 764T186 942T278 1094T402 1214T554 1291T733 1319Q801 1319 868 1309T1008 1284Q1014 1282 1017 1282T1024 1282Q1030 1282 1034 1287T1044 1292H1049Q1052 1292 1057 1290T1063 1282Q1063 1280 1061 1271T1057 1253Z"  />
<glyph unicode="&#xC8;" horiz-adv-x="961" d="M909 983Q897 983 894 986T891 995V1008Q891 1037 894 1066T897 1126Q897 1143 895 1162T883 1196Q874 1208 859 1217T808 1231T711 1238T549 1241Q521 1241 502 1235T477 1198Q452 1074 432 951T389 702Q482 702 539 703T632 709T685 721T719 741Q731 752 741 768T762 813Q770 835 775 850T788 866Q796 866 804 862T813 850Q813 842 810 833T805 815Q782 724 767 642T739 467Q737 461 736 455T727 449Q718 449 709 451T700 465Q700 482 701 497T702 528Q702 547 701 569T688 606Q678 620 662 628T612 639T523 644T379 645Q363 555 350 467T322 289Q314 242 308 193T301 96Q301 84 309 76Q314 72 325 70T361 65T427 62T532 61Q560 61 587 62T641 69T693 86T739 119Q776 156 802 205T842 303Q844 308 844 313T848 324Q853 332 864 332Q885 332 885 311Q885 295 875 257T851 174T824 90T803 31Q797 15 792 5T766 -6Q730 -6 691 -5T602 -3T489 0T342 2Q285 2 229 1T117 -2Q88 -2 59 -4T2 -6Q-4 -6 -8 -4T-12 6Q-12 26 -7 31T16 37Q44 37 75 40T129 61Q146 75 153 95T166 137Q192 265 213 393T256 651Q273 750 290 847T324 1044Q330 1079 334 1114T338 1184Q338 1196 337 1212T328 1239Q322 1248 307 1252T275 1258T241 1260T215 1262Q207 1262 202 1263T197 1274Q197 1291 200 1297T221 1303Q231 1303 256 1302T318 1299T404 1296T510 1294Q580 1294 649 1295T781 1298T894 1301T979 1303Q995 1303 995 1290Q995 1282 994 1277T991 1266Q970 1200 954 1133T928 999Q926 990 923 987T909 983ZM481 1653Q470 1664 461 1676T451 1704Q451 1724 464 1729T494 1741Q508 1746 524 1750T555 1755Q570 1755 577 1743T590 1718L709 1468Q711 1465 711 1463T713 1458Q713 1449 706 1448T692 1446Q684 1446 676 1451T663 1462L481 1653Z"  />
<glyph unicode="&#xC9;" horiz-adv-x="961" d="M909 983Q897 983 894 986T891 995V1008Q891 1037 894 1066T897 1126Q897 1143 895 1162T883 1196Q874 1208 859 1217T808 1231T711 1238T549 1241Q521 1241 502 1235T477 1198Q452 1074 432 951T389 702Q482 702 539 703T632 709T685 721T719 741Q731 752 741 768T762 813Q770 835 775 850T788 866Q796 866 804 862T813 850Q813 842 810 833T805 815Q782 724 767 642T739 467Q737 461 736 455T727 449Q718 449 709 451T700 465Q700 482 701 497T702 528Q702 547 701 569T688 606Q678 620 662 628T612 639T523 644T379 645Q363 555 350 467T322 289Q314 242 308 193T301 96Q301 84 309 76Q314 72 325 70T361 65T427 62T532 61Q560 61 587 62T641 69T693 86T739 119Q776 156 802 205T842 303Q844 308 844 313T848 324Q853 332 864 332Q885 332 885 311Q885 295 875 257T851 174T824 90T803 31Q797 15 792 5T766 -6Q730 -6 691 -5T602 -3T489 0T342 2Q285 2 229 1T117 -2Q88 -2 59 -4T2 -6Q-4 -6 -8 -4T-12 6Q-12 26 -7 31T16 37Q44 37 75 40T129 61Q146 75 153 95T166 137Q192 265 213 393T256 651Q273 750 290 847T324 1044Q330 1079 334 1114T338 1184Q338 1196 337 1212T328 1239Q322 1248 307 1252T275 1258T241 1260T215 1262Q207 1262 202 1263T197 1274Q197 1291 200 1297T221 1303Q231 1303 256 1302T318 1299T404 1296T510 1294Q580 1294 649 1295T781 1298T894 1301T979 1303Q995 1303 995 1290Q995 1282 994 1277T991 1266Q970 1200 954 1133T928 999Q926 990 923 987T909 983ZM596 1444Q593 1444 583 1446T573 1454Q575 1457 578 1461T583 1468L782 1718Q791 1729 802 1742T829 1755Q839 1755 855 1753T886 1746T912 1733T923 1712Q923 1697 914 1687T893 1667L616 1458Q613 1455 607 1450T596 1444Z"  />
<glyph unicode="&#xCA;" horiz-adv-x="961" d="M909 983Q897 983 894 986T891 995V1008Q891 1037 894 1066T897 1126Q897 1143 895 1162T883 1196Q874 1208 859 1217T808 1231T711 1238T549 1241Q521 1241 502 1235T477 1198Q452 1074 432 951T389 702Q482 702 539 703T632 709T685 721T719 741Q731 752 741 768T762 813Q770 835 775 850T788 866Q796 866 804 862T813 850Q813 842 810 833T805 815Q782 724 767 642T739 467Q737 461 736 455T727 449Q718 449 709 451T700 465Q700 482 701 497T702 528Q702 547 701 569T688 606Q678 620 662 628T612 639T523 644T379 645Q363 555 350 467T322 289Q314 242 308 193T301 96Q301 84 309 76Q314 72 325 70T361 65T427 62T532 61Q560 61 587 62T641 69T693 86T739 119Q776 156 802 205T842 303Q844 308 844 313T848 324Q853 332 864 332Q885 332 885 311Q885 295 875 257T851 174T824 90T803 31Q797 15 792 5T766 -6Q730 -6 691 -5T602 -3T489 0T342 2Q285 2 229 1T117 -2Q88 -2 59 -4T2 -6Q-4 -6 -8 -4T-12 6Q-12 26 -7 31T16 37Q44 37 75 40T129 61Q146 75 153 95T166 137Q192 265 213 393T256 651Q273 750 290 847T324 1044Q330 1079 334 1114T338 1184Q338 1196 337 1212T328 1239Q322 1248 307 1252T275 1258T241 1260T215 1262Q207 1262 202 1263T197 1274Q197 1291 200 1297T221 1303Q231 1303 256 1302T318 1299T404 1296T510 1294Q580 1294 649 1295T781 1298T894 1301T979 1303Q995 1303 995 1290Q995 1282 994 1277T991 1266Q970 1200 954 1133T928 999Q926 990 923 987T909 983ZM842 1440Q840 1440 831 1452T808 1484T779 1526T749 1569T724 1606T709 1628Q694 1616 684 1607T665 1590T645 1573T617 1548Q610 1543 598 1532T573 1510T549 1488T531 1472Q527 1470 521 1465T507 1453T493 1443T482 1438Q475 1438 468 1446T461 1460Q461 1466 469 1475T482 1489Q539 1551 588 1611T691 1737Q700 1748 711 1754T736 1761Q743 1761 750 1752T762 1731T772 1706T779 1685Q780 1682 784 1671T795 1643T808 1608T824 1568Q842 1521 865 1464Q865 1458 857 1449T842 1440Z"  />
<glyph unicode="&#xCB;" horiz-adv-x="961" d="M909 983Q897 983 894 986T891 995V1008Q891 1037 894 1066T897 1126Q897 1143 895 1162T883 1196Q874 1208 859 1217T808 1231T711 1238T549 1241Q521 1241 502 1235T477 1198Q452 1074 432 951T389 702Q482 702 539 703T632 709T685 721T719 741Q731 752 741 768T762 813Q770 835 775 850T788 866Q796 866 804 862T813 850Q813 842 810 833T805 815Q782 724 767 642T739 467Q737 461 736 455T727 449Q718 449 709 451T700 465Q700 482 701 497T702 528Q702 547 701 569T688 606Q678 620 662 628T612 639T523 644T379 645Q363 555 350 467T322 289Q314 242 308 193T301 96Q301 84 309 76Q314 72 325 70T361 65T427 62T532 61Q560 61 587 62T641 69T693 86T739 119Q776 156 802 205T842 303Q844 308 844 313T848 324Q853 332 864 332Q885 332 885 311Q885 295 875 257T851 174T824 90T803 31Q797 15 792 5T766 -6Q730 -6 691 -5T602 -3T489 0T342 2Q285 2 229 1T117 -2Q88 -2 59 -4T2 -6Q-4 -6 -8 -4T-12 6Q-12 26 -7 31T16 37Q44 37 75 40T129 61Q146 75 153 95T166 137Q192 265 213 393T256 651Q273 750 290 847T324 1044Q330 1079 334 1114T338 1184Q338 1196 337 1212T328 1239Q322 1248 307 1252T275 1258T241 1260T215 1262Q207 1262 202 1263T197 1274Q197 1291 200 1297T221 1303Q231 1303 256 1302T318 1299T404 1296T510 1294Q580 1294 649 1295T781 1298T894 1301T979 1303Q995 1303 995 1290Q995 1282 994 1277T991 1266Q970 1200 954 1133T928 999Q926 990 923 987T909 983ZM802 1472Q791 1472 779 1479T757 1498T740 1524T733 1550Q733 1565 740 1581T758 1610T782 1631T809 1640Q821 1640 833 1632T856 1612T873 1585T880 1556Q880 1542 873 1528T855 1501T830 1480T802 1472ZM514 1472Q503 1472 491 1479T469 1498T451 1524T444 1550Q444 1565 451 1581T469 1610T493 1631T520 1640Q531 1640 543 1632T566 1612T584 1585T591 1556Q591 1542 584 1528T565 1501T541 1480T514 1472Z"  />
<glyph unicode="&#xCC;" horiz-adv-x="584" d="M633 1262Q621 1262 605 1261T571 1256T538 1248T514 1235Q503 1224 492 1205T471 1155T450 1081T430 977L340 385Q335 350 329 313T317 241T309 174T305 119Q305 93 308 78T323 53T359 41T426 37Q443 37 447 34T451 25Q451 23 451 19T449 4Q445 -6 432 -6Q403 -6 372 -5T310 -3T249 -1T195 0Q144 0 94 -3T-10 -6Q-20 -6 -20 8V14Q-18 28 -15 31T2 37L35 39Q64 41 85 45T123 66Q134 76 145 105T168 173T190 257T207 344L313 999Q321 1044 326 1091T332 1176Q332 1190 331 1203T325 1228T311 1247T283 1257Q277 1258 267 1259T245 1260T223 1261T207 1262Q198 1262 196 1265T193 1274Q193 1276 193 1279T195 1292Q197 1300 199 1302T209 1305Q269 1305 323 1302T430 1298Q460 1298 490 1299T548 1301T599 1304T641 1305Q647 1305 652 1302T657 1286Q657 1269 652 1266T633 1262ZM299 1653Q288 1664 279 1676T269 1704Q269 1724 282 1729T312 1741Q326 1746 342 1750T373 1755Q388 1755 395 1743T408 1718L527 1468Q529 1465 529 1463T531 1458Q531 1449 524 1448T510 1446Q502 1446 494 1451T481 1462L299 1653Z"  />
<glyph unicode="&#xCD;" horiz-adv-x="584" d="M633 1262Q621 1262 605 1261T571 1256T538 1248T514 1235Q503 1224 492 1205T471 1155T450 1081T430 977L340 385Q335 350 329 313T317 241T309 174T305 119Q305 93 308 78T323 53T359 41T426 37Q443 37 447 34T451 25Q451 23 451 19T449 4Q445 -6 432 -6Q403 -6 372 -5T310 -3T249 -1T195 0Q144 0 94 -3T-10 -6Q-20 -6 -20 8V14Q-18 28 -15 31T2 37L35 39Q64 41 85 45T123 66Q134 76 145 105T168 173T190 257T207 344L313 999Q321 1044 326 1091T332 1176Q332 1190 331 1203T325 1228T311 1247T283 1257Q277 1258 267 1259T245 1260T223 1261T207 1262Q198 1262 196 1265T193 1274Q193 1276 193 1279T195 1292Q197 1300 199 1302T209 1305Q269 1305 323 1302T430 1298Q460 1298 490 1299T548 1301T599 1304T641 1305Q647 1305 652 1302T657 1286Q657 1269 652 1266T633 1262ZM414 1444Q411 1444 401 1446T391 1454Q393 1457 396 1461T401 1468L600 1718Q609 1729 620 1742T647 1755Q657 1755 673 1753T704 1746T730 1733T741 1712Q741 1697 732 1687T711 1667L434 1458Q431 1455 425 1450T414 1444Z"  />
<glyph unicode="&#xCE;" horiz-adv-x="584" d="M633 1262Q621 1262 605 1261T571 1256T538 1248T514 1235Q503 1224 492 1205T471 1155T450 1081T430 977L340 385Q335 350 329 313T317 241T309 174T305 119Q305 93 308 78T323 53T359 41T426 37Q443 37 447 34T451 25Q451 23 451 19T449 4Q445 -6 432 -6Q403 -6 372 -5T310 -3T249 -1T195 0Q144 0 94 -3T-10 -6Q-20 -6 -20 8V14Q-18 28 -15 31T2 37L35 39Q64 41 85 45T123 66Q134 76 145 105T168 173T190 257T207 344L313 999Q321 1044 326 1091T332 1176Q332 1190 331 1203T325 1228T311 1247T283 1257Q277 1258 267 1259T245 1260T223 1261T207 1262Q198 1262 196 1265T193 1274Q193 1276 193 1279T195 1292Q197 1300 199 1302T209 1305Q269 1305 323 1302T430 1298Q460 1298 490 1299T548 1301T599 1304T641 1305Q647 1305 652 1302T657 1286Q657 1269 652 1266T633 1262ZM629 1440Q627 1440 618 1452T595 1484T566 1526T536 1569T511 1606T496 1628Q481 1616 471 1607T452 1590T432 1573T404 1548Q397 1543 385 1532T360 1510T336 1488T318 1472Q314 1470 308 1465T294 1453T280 1443T269 1438Q262 1438 255 1446T248 1460Q248 1466 256 1475T269 1489Q326 1551 375 1611T478 1737Q487 1748 498 1754T523 1761Q530 1761 537 1752T549 1731T559 1706T566 1685Q567 1682 571 1671T582 1643T595 1608T611 1568Q629 1521 652 1464Q652 1458 644 1449T629 1440Z"  />
<glyph unicode="&#xCF;" horiz-adv-x="584" d="M633 1262Q621 1262 605 1261T571 1256T538 1248T514 1235Q503 1224 492 1205T471 1155T450 1081T430 977L340 385Q335 350 329 313T317 241T309 174T305 119Q305 93 308 78T323 53T359 41T426 37Q443 37 447 34T451 25Q451 23 451 19T449 4Q445 -6 432 -6Q403 -6 372 -5T310 -3T249 -1T195 0Q144 0 94 -3T-10 -6Q-20 -6 -20 8V14Q-18 28 -15 31T2 37L35 39Q64 41 85 45T123 66Q134 76 145 105T168 173T190 257T207 344L313 999Q321 1044 326 1091T332 1176Q332 1190 331 1203T325 1228T311 1247T283 1257Q277 1258 267 1259T245 1260T223 1261T207 1262Q198 1262 196 1265T193 1274Q193 1276 193 1279T195 1292Q197 1300 199 1302T209 1305Q269 1305 323 1302T430 1298Q460 1298 490 1299T548 1301T599 1304T641 1305Q647 1305 652 1302T657 1286Q657 1269 652 1266T633 1262ZM610 1472Q599 1472 587 1479T565 1498T548 1524T541 1550Q541 1565 548 1581T566 1610T590 1631T617 1640Q629 1640 641 1632T664 1612T681 1585T688 1556Q688 1542 681 1528T663 1501T638 1480T610 1472ZM322 1472Q311 1472 299 1479T277 1498T259 1524T252 1550Q252 1565 259 1581T277 1610T301 1631T328 1640Q339 1640 351 1632T374 1612T392 1585T399 1556Q399 1542 392 1528T373 1501T349 1480T322 1472Z"  />
<glyph unicode="&#xD0;" horiz-adv-x="1210" d="M463 -6Q381 -6 300 -3T137 0Q103 0 70 -3T2 -6Q-6 -6 -12 -5T-18 6Q-18 11 -17 21T-12 35Q-8 37 6 37H45Q71 37 99 45T145 84Q153 97 159 118T171 161T180 205T186 242L256 647H106L119 711H266L313 985Q321 1035 329 1087T338 1190Q338 1220 327 1234T297 1255T256 1261T209 1262Q203 1262 197 1264T190 1274Q190 1282 193 1292T207 1303Q249 1303 291 1300T375 1296Q441 1296 508 1300T641 1305Q739 1305 825 1283T989 1196Q1035 1157 1068 1107T1123 1001T1155 885T1165 766Q1165 677 1148 585T1096 407T1006 246T879 117Q788 49 682 22T463 -6ZM557 1257Q548 1257 533 1254T510 1245Q499 1237 492 1221T479 1187T471 1150T465 1120L393 711H690L676 647H383L326 317Q316 265 309 212T301 104Q301 82 309 69T333 50T374 41T434 39Q550 39 648 72T831 186Q886 239 925 306T989 448T1026 601T1038 754Q1038 854 1015 945T942 1105T813 1216T623 1257H557Z"  />
<glyph unicode="&#xD1;" horiz-adv-x="1233" d="M1014 338Q1004 284 997 231T981 125Q978 99 975 72T971 18V0Q971 -12 967 -15T950 -23L922 -31L907 -33Q902 -33 898 -25T890 -5T883 16T879 31Q862 83 840 133T797 233Q700 456 601 676T399 1118Q365 897 330 679T262 238Q259 213 255 188T250 137Q250 87 269 68T336 45Q350 43 373 42T414 41Q423 41 426 39T430 27Q430 8 427 0T406 -8Q398 -8 390 -7T373 -6Q274 0 172 0Q130 0 88 0T4 -6Q-2 -6 -7 -7T-18 -8Q-26 -8 -28 -4T-31 6Q-31 11 -30 22T-25 37Q-23 39 -5 41T43 45Q63 47 82 54T119 80Q134 98 146 128T166 192T181 259T193 315Q236 532 274 747T350 1182Q338 1206 321 1220T283 1241T239 1249T190 1251Q182 1251 177 1253T172 1264Q172 1283 178 1298Q181 1302 186 1302T197 1303Q231 1303 266 1300T336 1296Q364 1296 390 1298T444 1300Q450 1300 456 1290T468 1265T478 1238T485 1219Q539 1089 598 962T715 707Q769 586 823 467T930 225Q958 402 986 576T1038 928Q1046 980 1051 1033T1057 1141Q1057 1156 1057 1173T1051 1208Q1048 1220 1040 1229T1017 1245T977 1254T915 1257Q906 1257 901 1259T895 1272Q895 1280 897 1291T909 1303Q1013 1303 1116 1302T1323 1300Q1337 1300 1343 1299T1350 1288Q1350 1279 1347 1269T1333 1257Q1315 1254 1297 1253T1262 1248T1229 1239T1198 1219Q1180 1202 1173 1177T1159 1128Q1148 1085 1140 1041T1122 952Q1093 798 1066 646T1014 338ZM1086 1655Q1086 1652 1078 1638T1049 1595Q1005 1530 971 1506T910 1481Q883 1481 860 1495T813 1528T767 1560T715 1575Q687 1575 663 1557T604 1493Q596 1485 594 1485Q593 1485 592 1486Q591 1487 590 1487T588 1489L576 1499Q573 1502 573 1503T572 1507Q572 1508 575 1513T582 1526T591 1540T598 1550Q640 1612 679 1647T746 1683Q774 1683 796 1668T840 1635T885 1602T940 1587Q966 1587 995 1608T1051 1669Q1056 1677 1061 1677Q1065 1677 1069 1673L1082 1661Q1086 1657 1086 1655Z"  />
<glyph unicode="&#xD2;" horiz-adv-x="1186" d="M528 -25Q416 -25 338 24T210 152T138 328T115 522Q115 604 127 684T164 842Q194 933 245 1019T365 1171T523 1278T715 1319Q790 1319 850 1296T956 1234T1034 1141T1088 1026T1118 898T1128 768Q1128 602 1079 451Q1048 359 997 274T876 122T719 15T528 -25ZM692 1266Q636 1266 588 1245T498 1187T423 1104T363 1005T318 901T287 803Q268 727 259 650T250 494Q250 447 255 395T274 291T309 192T364 108T442 51T547 29Q602 29 650 50T739 106T813 184T870 272Q901 327 923 390T961 520T983 654T991 784Q991 833 986 887T969 995T936 1098T881 1184T801 1244T692 1266ZM583 1653Q572 1664 563 1676T553 1704Q553 1724 566 1729T596 1741Q610 1746 626 1750T657 1755Q672 1755 679 1743T692 1718L811 1468Q813 1465 813 1463T815 1458Q815 1449 808 1448T794 1446Q786 1446 778 1451T765 1462L583 1653Z"  />
<glyph unicode="&#xD3;" horiz-adv-x="1186" d="M528 -25Q416 -25 338 24T210 152T138 328T115 522Q115 604 127 684T164 842Q194 933 245 1019T365 1171T523 1278T715 1319Q790 1319 850 1296T956 1234T1034 1141T1088 1026T1118 898T1128 768Q1128 602 1079 451Q1048 359 997 274T876 122T719 15T528 -25ZM692 1266Q636 1266 588 1245T498 1187T423 1104T363 1005T318 901T287 803Q268 727 259 650T250 494Q250 447 255 395T274 291T309 192T364 108T442 51T547 29Q602 29 650 50T739 106T813 184T870 272Q901 327 923 390T961 520T983 654T991 784Q991 833 986 887T969 995T936 1098T881 1184T801 1244T692 1266ZM658 1444Q655 1444 645 1446T635 1454Q637 1457 640 1461T645 1468L844 1718Q853 1729 864 1742T891 1755Q901 1755 917 1753T948 1746T974 1733T985 1712Q985 1697 976 1687T955 1667L678 1458Q675 1455 669 1450T658 1444Z"  />
<glyph unicode="&#xD4;" horiz-adv-x="1186" d="M528 -25Q416 -25 338 24T210 152T138 328T115 522Q115 604 127 684T164 842Q194 933 245 1019T365 1171T523 1278T715 1319Q790 1319 850 1296T956 1234T1034 1141T1088 1026T1118 898T1128 768Q1128 602 1079 451Q1048 359 997 274T876 122T719 15T528 -25ZM692 1266Q636 1266 588 1245T498 1187T423 1104T363 1005T318 901T287 803Q268 727 259 650T250 494Q250 447 255 395T274 291T309 192T364 108T442 51T547 29Q602 29 650 50T739 106T813 184T870 272Q901 327 923 390T961 520T983 654T991 784Q991 833 986 887T969 995T936 1098T881 1184T801 1244T692 1266ZM913 1440Q911 1440 902 1452T879 1484T850 1526T820 1569T795 1606T780 1628Q765 1616 755 1607T736 1590T716 1573T688 1548Q681 1543 669 1532T644 1510T620 1488T602 1472Q598 1470 592 1465T578 1453T564 1443T553 1438Q546 1438 539 1446T532 1460Q532 1466 540 1475T553 1489Q610 1551 659 1611T762 1737Q771 1748 782 1754T807 1761Q814 1761 821 1752T833 1731T843 1706T850 1685Q851 1682 855 1671T866 1643T879 1608T895 1568Q913 1521 936 1464Q936 1458 928 1449T913 1440Z"  />
<glyph unicode="&#xD5;" horiz-adv-x="1186" d="M528 -25Q416 -25 338 24T210 152T138 328T115 522Q115 604 127 684T164 842Q194 933 245 1019T365 1171T523 1278T715 1319Q790 1319 850 1296T956 1234T1034 1141T1088 1026T1118 898T1128 768Q1128 602 1079 451Q1048 359 997 274T876 122T719 15T528 -25ZM692 1266Q636 1266 588 1245T498 1187T423 1104T363 1005T318 901T287 803Q268 727 259 650T250 494Q250 447 255 395T274 291T309 192T364 108T442 51T547 29Q602 29 650 50T739 106T813 184T870 272Q901 327 923 390T961 520T983 654T991 784Q991 833 986 887T969 995T936 1098T881 1184T801 1244T692 1266ZM1053 1655Q1053 1652 1045 1638T1016 1595Q972 1530 938 1506T877 1481Q850 1481 827 1495T780 1528T734 1560T682 1575Q654 1575 630 1557T571 1493Q563 1485 561 1485Q560 1485 559 1486Q558 1487 557 1487T555 1489L543 1499Q540 1502 540 1503T539 1507Q539 1508 542 1513T549 1526T558 1540T565 1550Q607 1612 646 1647T713 1683Q741 1683 763 1668T807 1635T852 1602T907 1587Q933 1587 962 1608T1018 1669Q1023 1677 1028 1677Q1032 1677 1036 1673L1049 1661Q1053 1657 1053 1655Z"  />
<glyph unicode="&#xD6;" horiz-adv-x="1186" d="M528 -25Q416 -25 338 24T210 152T138 328T115 522Q115 604 127 684T164 842Q194 933 245 1019T365 1171T523 1278T715 1319Q790 1319 850 1296T956 1234T1034 1141T1088 1026T1118 898T1128 768Q1128 602 1079 451Q1048 359 997 274T876 122T719 15T528 -25ZM692 1266Q636 1266 588 1245T498 1187T423 1104T363 1005T318 901T287 803Q268 727 259 650T250 494Q250 447 255 395T274 291T309 192T364 108T442 51T547 29Q602 29 650 50T739 106T813 184T870 272Q901 327 923 390T961 520T983 654T991 784Q991 833 986 887T969 995T936 1098T881 1184T801 1244T692 1266ZM884 1472Q873 1472 861 1479T839 1498T822 1524T815 1550Q815 1565 822 1581T840 1610T864 1631T891 1640Q903 1640 915 1632T938 1612T955 1585T962 1556Q962 1542 955 1528T937 1501T912 1480T884 1472ZM596 1472Q585 1472 573 1479T551 1498T533 1524T526 1550Q526 1565 533 1581T551 1610T575 1631T602 1640Q613 1640 625 1632T648 1612T666 1585T673 1556Q673 1542 666 1528T647 1501T623 1480T596 1472Z"  />
<glyph unicode="&#xD7;" horiz-adv-x="860" d="M713 334L465 582L219 334L154 399L399 647L154 895L219 961L465 713L715 956L778 897L530 647L778 401L713 334Z"  />
<glyph unicode="&#xD8;" horiz-adv-x="1186" d="M528 -25Q460 -25 406 -6T307 45L215 -113Q210 -121 205 -121H150Q143 -121 143 -117Q143 -114 145 -110T150 -102L262 86Q223 126 195 177T150 285T124 402T115 522Q115 604 127 684T164 842Q194 933 245 1019T365 1171T523 1278T715 1319Q786 1319 842 1299T944 1241L1030 1386Q1035 1395 1040 1395H1096Q1098 1395 1100 1395T1102 1391Q1102 1387 1100 1383T1096 1376L989 1198Q1026 1157 1052 1107T1095 1000T1120 885T1128 768Q1128 602 1079 451Q1048 359 997 274T876 122T719 15T528 -25ZM692 1266Q636 1266 588 1245T498 1187T423 1104T363 1005T318 901T287 803Q268 727 259 650T250 494Q250 457 253 416T264 334T284 253T315 176L897 1161Q863 1208 813 1237T692 1266ZM991 784Q991 821 988 862T979 944T961 1025T932 1102L352 121Q386 79 434 54T547 29Q602 29 650 50T739 106T813 184T870 272Q901 327 923 390T961 520T983 654T991 784Z"  />
<glyph unicode="&#xD9;" horiz-adv-x="1159" d="M520 -20Q442 -20 378 -1T267 59T194 160T168 303Q168 372 179 438T201 573L293 1126Q299 1166 299 1206Q299 1225 292 1236T272 1253T242 1260T203 1262H166Q152 1262 152 1272Q152 1278 153 1285T160 1298Q163 1303 168 1304T182 1305Q227 1305 274 1303T369 1300Q426 1300 482 1301T598 1303Q610 1303 610 1290Q610 1280 604 1268Q601 1263 591 1263T571 1262Q528 1262 503 1258T457 1235Q448 1227 441 1213T428 1173T414 1109T397 1016L324 586Q313 524 304 463T295 338Q295 197 365 136T575 74Q653 74 710 102T809 182Q825 201 841 233T875 321T910 460T948 664Q958 724 969 793T990 929T1006 1055T1012 1153Q1012 1186 1006 1207T986 1240T950 1257T895 1262Q863 1262 857 1263T850 1270V1284Q850 1290 851 1296T860 1303Q869 1303 879 1302T899 1300Q978 1294 1059 1294Q1102 1294 1145 1296T1231 1303Q1236 1303 1241 1304T1251 1305Q1254 1305 1258 1305T1266 1303Q1268 1298 1268 1290Q1268 1269 1257 1266T1229 1261T1190 1255T1149 1227Q1137 1214 1126 1179T1101 1079T1068 915T1024 674Q1015 623 1004 556T977 419T941 287T893 178Q864 130 823 93T733 31T630 -7T520 -20ZM569 1653Q558 1664 549 1676T539 1704Q539 1724 552 1729T582 1741Q596 1746 612 1750T643 1755Q658 1755 665 1743T678 1718L797 1468Q799 1465 799 1463T801 1458Q801 1449 794 1448T780 1446Q772 1446 764 1451T751 1462L569 1653Z"  />
<glyph unicode="&#xDA;" horiz-adv-x="1159" d="M520 -20Q442 -20 378 -1T267 59T194 160T168 303Q168 372 179 438T201 573L293 1126Q299 1166 299 1206Q299 1225 292 1236T272 1253T242 1260T203 1262H166Q152 1262 152 1272Q152 1278 153 1285T160 1298Q163 1303 168 1304T182 1305Q227 1305 274 1303T369 1300Q426 1300 482 1301T598 1303Q610 1303 610 1290Q610 1280 604 1268Q601 1263 591 1263T571 1262Q528 1262 503 1258T457 1235Q448 1227 441 1213T428 1173T414 1109T397 1016L324 586Q313 524 304 463T295 338Q295 197 365 136T575 74Q653 74 710 102T809 182Q825 201 841 233T875 321T910 460T948 664Q958 724 969 793T990 929T1006 1055T1012 1153Q1012 1186 1006 1207T986 1240T950 1257T895 1262Q863 1262 857 1263T850 1270V1284Q850 1290 851 1296T860 1303Q869 1303 879 1302T899 1300Q978 1294 1059 1294Q1102 1294 1145 1296T1231 1303Q1236 1303 1241 1304T1251 1305Q1254 1305 1258 1305T1266 1303Q1268 1298 1268 1290Q1268 1269 1257 1266T1229 1261T1190 1255T1149 1227Q1137 1214 1126 1179T1101 1079T1068 915T1024 674Q1015 623 1004 556T977 419T941 287T893 178Q864 130 823 93T733 31T630 -7T520 -20ZM682 1444Q679 1444 669 1446T659 1454Q661 1457 664 1461T669 1468L868 1718Q877 1729 888 1742T915 1755Q925 1755 941 1753T972 1746T998 1733T1009 1712Q1009 1697 1000 1687T979 1667L702 1458Q699 1455 693 1450T682 1444Z"  />
<glyph unicode="&#xDB;" horiz-adv-x="1159" d="M520 -20Q442 -20 378 -1T267 59T194 160T168 303Q168 372 179 438T201 573L293 1126Q299 1166 299 1206Q299 1225 292 1236T272 1253T242 1260T203 1262H166Q152 1262 152 1272Q152 1278 153 1285T160 1298Q163 1303 168 1304T182 1305Q227 1305 274 1303T369 1300Q426 1300 482 1301T598 1303Q610 1303 610 1290Q610 1280 604 1268Q601 1263 591 1263T571 1262Q528 1262 503 1258T457 1235Q448 1227 441 1213T428 1173T414 1109T397 1016L324 586Q313 524 304 463T295 338Q295 197 365 136T575 74Q653 74 710 102T809 182Q825 201 841 233T875 321T910 460T948 664Q958 724 969 793T990 929T1006 1055T1012 1153Q1012 1186 1006 1207T986 1240T950 1257T895 1262Q863 1262 857 1263T850 1270V1284Q850 1290 851 1296T860 1303Q869 1303 879 1302T899 1300Q978 1294 1059 1294Q1102 1294 1145 1296T1231 1303Q1236 1303 1241 1304T1251 1305Q1254 1305 1258 1305T1266 1303Q1268 1298 1268 1290Q1268 1269 1257 1266T1229 1261T1190 1255T1149 1227Q1137 1214 1126 1179T1101 1079T1068 915T1024 674Q1015 623 1004 556T977 419T941 287T893 178Q864 130 823 93T733 31T630 -7T520 -20ZM905 1440Q903 1440 894 1452T871 1484T842 1526T812 1569T787 1606T772 1628Q757 1616 747 1607T728 1590T708 1573T680 1548Q673 1543 661 1532T636 1510T612 1488T594 1472Q590 1470 584 1465T570 1453T556 1443T545 1438Q538 1438 531 1446T524 1460Q524 1466 532 1475T545 1489Q602 1551 651 1611T754 1737Q763 1748 774 1754T799 1761Q806 1761 813 1752T825 1731T835 1706T842 1685Q843 1682 847 1671T858 1643T871 1608T887 1568Q905 1521 928 1464Q928 1458 920 1449T905 1440Z"  />
<glyph unicode="&#xDC;" horiz-adv-x="1159" d="M520 -20Q442 -20 378 -1T267 59T194 160T168 303Q168 372 179 438T201 573L293 1126Q299 1166 299 1206Q299 1225 292 1236T272 1253T242 1260T203 1262H166Q152 1262 152 1272Q152 1278 153 1285T160 1298Q163 1303 168 1304T182 1305Q227 1305 274 1303T369 1300Q426 1300 482 1301T598 1303Q610 1303 610 1290Q610 1280 604 1268Q601 1263 591 1263T571 1262Q528 1262 503 1258T457 1235Q448 1227 441 1213T428 1173T414 1109T397 1016L324 586Q313 524 304 463T295 338Q295 197 365 136T575 74Q653 74 710 102T809 182Q825 201 841 233T875 321T910 460T948 664Q958 724 969 793T990 929T1006 1055T1012 1153Q1012 1186 1006 1207T986 1240T950 1257T895 1262Q863 1262 857 1263T850 1270V1284Q850 1290 851 1296T860 1303Q869 1303 879 1302T899 1300Q978 1294 1059 1294Q1102 1294 1145 1296T1231 1303Q1236 1303 1241 1304T1251 1305Q1254 1305 1258 1305T1266 1303Q1268 1298 1268 1290Q1268 1269 1257 1266T1229 1261T1190 1255T1149 1227Q1137 1214 1126 1179T1101 1079T1068 915T1024 674Q1015 623 1004 556T977 419T941 287T893 178Q864 130 823 93T733 31T630 -7T520 -20ZM899 1472Q888 1472 876 1479T854 1498T837 1524T830 1550Q830 1565 837 1581T855 1610T879 1631T906 1640Q918 1640 930 1632T953 1612T970 1585T977 1556Q977 1542 970 1528T952 1501T927 1480T899 1472ZM611 1472Q600 1472 588 1479T566 1498T548 1524T541 1550Q541 1565 548 1581T566 1610T590 1631T617 1640Q628 1640 640 1632T663 1612T681 1585T688 1556Q688 1542 681 1528T662 1501T638 1480T611 1472Z"  />
<glyph unicode="&#xDD;" horiz-adv-x="940" d="M469 102Q469 67 488 53T555 39H604Q615 39 619 35T623 20Q623 11 619 4T606 -4Q597 -4 589 -3T571 -2Q473 4 373 4Q279 4 186 -2Q177 -2 169 -3T152 -4Q145 -4 141 -3T137 6Q137 9 138 11T139 16Q141 29 144 34T158 39H190Q206 39 222 40T254 45T283 57T307 78Q316 90 324 112T340 163T354 225T367 293L408 545Q411 565 413 588T416 631Q416 645 405 681T375 770L262 1079Q257 1094 249 1118T229 1167T206 1215T180 1247Q168 1257 150 1259T117 1262Q97 1262 92 1265T86 1278Q86 1283 89 1294T98 1305Q121 1305 172 1303T309 1300Q335 1300 363 1301T418 1302T464 1304T496 1305Q508 1305 512 1304T516 1292Q516 1280 513 1271T492 1262H459Q444 1262 428 1261T397 1256T374 1240T365 1210Q365 1196 370 1171T385 1113T405 1046T428 979L530 690L809 1096Q816 1106 826 1122T847 1155T863 1189T870 1221Q870 1248 851 1256T788 1264Q770 1264 761 1264T747 1266T742 1270T741 1278Q741 1286 743 1295T756 1305Q776 1305 827 1303T950 1300Q1010 1300 1046 1302T1094 1305Q1100 1305 1103 1303T1106 1292Q1106 1260 1085 1260Q1072 1260 1051 1251Q1031 1243 1001 1215T938 1148T872 1067T811 987L623 727Q598 692 583 671T558 634T543 601T532 559L487 281Q482 252 479 223T474 170T470 128T469 102ZM590 1444Q587 1444 577 1446T567 1454Q569 1457 572 1461T577 1468L776 1718Q785 1729 796 1742T823 1755Q833 1755 849 1753T880 1746T906 1733T917 1712Q917 1697 908 1687T887 1667L610 1458Q607 1455 601 1450T590 1444Z"  />
<glyph unicode="&#xDE;" horiz-adv-x="946" d="M330 328Q323 287 318 251T310 185T305 135T303 106Q303 97 303 84T309 63Q318 48 341 44T389 40T433 37T453 25Q453 14 451 4T434 -6Q378 -6 324 -2T213 2Q157 2 103 -2T-6 -6Q-14 -6 -16 -3T-18 8V14Q-16 28 -13 31T4 37Q35 40 66 41T125 61Q134 68 141 77T154 98Q159 110 164 125T174 161T184 211T197 283L319 999Q324 1041 331 1083T338 1176Q338 1190 337 1203T331 1228T317 1247T289 1257Q283 1258 273 1259T251 1260T229 1261T213 1262Q204 1262 202 1265T199 1274Q199 1276 199 1279T201 1292Q203 1300 205 1302T215 1305Q275 1305 329 1302T436 1298Q466 1298 496 1299T554 1301T605 1304T647 1305Q653 1305 658 1302T664 1286Q664 1269 659 1266T639 1262Q627 1262 611 1261T577 1256T544 1248T520 1235Q502 1216 486 1176T455 1059Q493 1061 531 1063T610 1065Q688 1065 747 1048T847 995T907 903T928 766Q928 684 902 602T825 455Q794 416 757 389T679 345T592 321T498 313Q456 313 414 318T330 328ZM455 995Q444 966 438 935T426 872L338 379Q364 376 391 373T444 369Q489 369 530 374T609 395T677 436T733 502Q770 562 785 634T801 778Q801 849 785 895T736 970T652 1009T532 1020Q511 1020 497 1019T475 1016T463 1008T455 995Z"  />
<glyph unicode="&#xDF;" horiz-adv-x="799" d="M537 686Q537 651 551 617T587 548T634 480T680 412T716 344T731 276Q731 222 707 168T644 71T552 2T444 -25Q423 -25 401 -21T359 -7T328 19T315 61Q315 87 325 105T365 123Q382 123 399 115T435 96T476 77T524 68Q548 68 569 75T607 97T633 132T643 176Q643 213 629 249T592 320T544 392T496 466T459 541T444 621Q444 665 457 702T494 771T548 829T616 877Q665 907 695 936T741 1000T765 1077T778 1174V1196Q778 1270 734 1311T616 1352Q565 1352 525 1336T455 1292T404 1225T367 1141Q342 1065 328 988T299 831Q279 720 260 611T221 389Q212 336 201 270T177 133T148 -13T113 -157T70 -288T18 -397Q1 -425 -22 -452T-72 -502T-132 -537T-199 -551Q-215 -551 -232 -547T-265 -535T-289 -514T-299 -481Q-299 -471 -294 -459T-279 -436T-260 -418T-238 -410Q-224 -410 -212 -418T-188 -435T-161 -453T-129 -461Q-109 -461 -96 -452T-73 -427T-58 -394T-47 -360Q-7 -224 16 -83T63 205L137 635Q150 711 166 796T206 965T265 1126T352 1264Q383 1301 423 1334T508 1393T601 1434T700 1450Q749 1450 784 1431T842 1379T876 1306T887 1221Q887 1125 861 1062T796 955T712 882T628 826T563 767T537 686Z"  />
<glyph unicode="&#xE0;" horiz-adv-x="817" d="M518 391Q503 366 486 337T450 279T413 221T379 170Q311 71 253 23T135 -25Q79 -25 49 19T18 135Q18 180 30 231T67 337T125 447T201 557Q290 672 399 751T627 864Q638 901 656 913T700 926Q722 926 729 916T737 891Q737 882 732 860T711 782Q697 734 680 672T644 543T609 410T579 289T557 195T549 143Q549 123 556 117T573 111Q588 111 610 133T658 192T709 278T758 383H772Q786 361 786 350Q786 342 779 322T760 276T734 220T705 166Q654 75 602 25T504 -25Q473 -25 455 -1T436 55Q436 74 442 107T459 185T485 281T518 391ZM520 739Q483 739 441 714T356 646T276 550T208 437T161 320T143 213Q143 162 159 134T203 106Q222 106 247 119T304 165T377 254T469 395Q493 434 512 475T544 556T565 631T573 694Q573 711 570 720T561 733T545 738T520 739ZM497 1223Q486 1234 477 1246T467 1274Q467 1294 480 1299T510 1311Q524 1316 540 1320T571 1325Q586 1325 593 1313T606 1288L725 1038Q727 1035 727 1033T729 1028Q729 1019 722 1018T708 1016Q700 1016 692 1021T679 1032L497 1223Z"  />
<glyph unicode="&#xE1;" horiz-adv-x="817" d="M518 391Q503 366 486 337T450 279T413 221T379 170Q311 71 253 23T135 -25Q79 -25 49 19T18 135Q18 180 30 231T67 337T125 447T201 557Q290 672 399 751T627 864Q638 901 656 913T700 926Q722 926 729 916T737 891Q737 882 732 860T711 782Q697 734 680 672T644 543T609 410T579 289T557 195T549 143Q549 123 556 117T573 111Q588 111 610 133T658 192T709 278T758 383H772Q786 361 786 350Q786 342 779 322T760 276T734 220T705 166Q654 75 602 25T504 -25Q473 -25 455 -1T436 55Q436 74 442 107T459 185T485 281T518 391ZM520 739Q483 739 441 714T356 646T276 550T208 437T161 320T143 213Q143 162 159 134T203 106Q222 106 247 119T304 165T377 254T469 395Q493 434 512 475T544 556T565 631T573 694Q573 711 570 720T561 733T545 738T520 739ZM553 1014Q550 1014 540 1016T530 1024Q532 1027 535 1031T540 1038L739 1288Q748 1299 759 1312T786 1325Q796 1325 812 1323T843 1316T869 1303T880 1282Q880 1267 871 1257T850 1237L573 1028Q570 1025 564 1020T553 1014Z"  />
<glyph unicode="&#xE2;" horiz-adv-x="817" d="M518 391Q503 366 486 337T450 279T413 221T379 170Q311 71 253 23T135 -25Q79 -25 49 19T18 135Q18 180 30 231T67 337T125 447T201 557Q290 672 399 751T627 864Q638 901 656 913T700 926Q722 926 729 916T737 891Q737 882 732 860T711 782Q697 734 680 672T644 543T609 410T579 289T557 195T549 143Q549 123 556 117T573 111Q588 111 610 133T658 192T709 278T758 383H772Q786 361 786 350Q786 342 779 322T760 276T734 220T705 166Q654 75 602 25T504 -25Q473 -25 455 -1T436 55Q436 74 442 107T459 185T485 281T518 391ZM520 739Q483 739 441 714T356 646T276 550T208 437T161 320T143 213Q143 162 159 134T203 106Q222 106 247 119T304 165T377 254T469 395Q493 434 512 475T544 556T565 631T573 694Q573 711 570 720T561 733T545 738T520 739ZM786 1010Q784 1010 775 1022T752 1054T723 1096T693 1139T668 1176T653 1198Q638 1186 628 1177T609 1160T589 1143T561 1118Q554 1113 542 1102T517 1080T493 1058T475 1042Q471 1040 465 1035T451 1023T437 1013T426 1008Q419 1008 412 1016T405 1030Q405 1036 413 1045T426 1059Q483 1121 532 1181T635 1307Q644 1318 655 1324T680 1331Q687 1331 694 1322T706 1301T716 1276T723 1255Q724 1252 728 1241T739 1213T752 1178T768 1138Q786 1091 809 1034Q809 1028 801 1019T786 1010Z"  />
<glyph unicode="&#xE3;" horiz-adv-x="817" d="M518 391Q503 366 486 337T450 279T413 221T379 170Q311 71 253 23T135 -25Q79 -25 49 19T18 135Q18 180 30 231T67 337T125 447T201 557Q290 672 399 751T627 864Q638 901 656 913T700 926Q722 926 729 916T737 891Q737 882 732 860T711 782Q697 734 680 672T644 543T609 410T579 289T557 195T549 143Q549 123 556 117T573 111Q588 111 610 133T658 192T709 278T758 383H772Q786 361 786 350Q786 342 779 322T760 276T734 220T705 166Q654 75 602 25T504 -25Q473 -25 455 -1T436 55Q436 74 442 107T459 185T485 281T518 391ZM520 739Q483 739 441 714T356 646T276 550T208 437T161 320T143 213Q143 162 159 134T203 106Q222 106 247 119T304 165T377 254T469 395Q493 434 512 475T544 556T565 631T573 694Q573 711 570 720T561 733T545 738T520 739ZM940 1225Q940 1222 932 1208T903 1165Q859 1100 825 1076T764 1051Q737 1051 714 1065T667 1098T621 1130T569 1145Q541 1145 517 1127T458 1063Q450 1055 448 1055Q447 1055 446 1056Q445 1057 444 1057T442 1059L430 1069Q427 1072 427 1073T426 1077Q426 1078 429 1083T436 1096T445 1110T452 1120Q494 1182 533 1217T600 1253Q628 1253 650 1238T694 1205T739 1172T794 1157Q820 1157 849 1178T905 1239Q910 1247 915 1247Q919 1247 923 1243L936 1231Q940 1227 940 1225Z"  />
<glyph unicode="&#xE4;" horiz-adv-x="817" d="M518 391Q503 366 486 337T450 279T413 221T379 170Q311 71 253 23T135 -25Q79 -25 49 19T18 135Q18 180 30 231T67 337T125 447T201 557Q290 672 399 751T627 864Q638 901 656 913T700 926Q722 926 729 916T737 891Q737 882 732 860T711 782Q697 734 680 672T644 543T609 410T579 289T557 195T549 143Q549 123 556 117T573 111Q588 111 610 133T658 192T709 278T758 383H772Q786 361 786 350Q786 342 779 322T760 276T734 220T705 166Q654 75 602 25T504 -25Q473 -25 455 -1T436 55Q436 74 442 107T459 185T485 281T518 391ZM520 739Q483 739 441 714T356 646T276 550T208 437T161 320T143 213Q143 162 159 134T203 106Q222 106 247 119T304 165T377 254T469 395Q493 434 512 475T544 556T565 631T573 694Q573 711 570 720T561 733T545 738T520 739ZM759 1042Q748 1042 736 1049T714 1068T697 1094T690 1120Q690 1135 697 1151T715 1180T739 1201T766 1210Q778 1210 790 1202T813 1182T830 1155T837 1126Q837 1112 830 1098T812 1071T787 1050T759 1042ZM471 1042Q460 1042 448 1049T426 1068T408 1094T401 1120Q401 1135 408 1151T426 1180T450 1201T477 1210Q488 1210 500 1202T523 1182T541 1155T548 1126Q548 1112 541 1098T522 1071T498 1050T471 1042Z"  />
<glyph unicode="&#xE5;" horiz-adv-x="817" d="M518 391Q503 366 486 337T450 279T413 221T379 170Q311 71 253 23T135 -25Q79 -25 49 19T18 135Q18 180 30 231T67 337T125 447T201 557Q290 672 399 751T627 864Q638 901 656 913T700 926Q722 926 729 916T737 891Q737 882 732 860T711 782Q697 734 680 672T644 543T609 410T579 289T557 195T549 143Q549 123 556 117T573 111Q588 111 610 133T658 192T709 278T758 383H772Q786 361 786 350Q786 342 779 322T760 276T734 220T705 166Q654 75 602 25T504 -25Q473 -25 455 -1T436 55Q436 74 442 107T459 185T485 281T518 391ZM520 739Q483 739 441 714T356 646T276 550T208 437T161 320T143 213Q143 162 159 134T203 106Q222 106 247 119T304 165T377 254T469 395Q493 434 512 475T544 556T565 631T573 694Q573 711 570 720T561 733T545 738T520 739ZM641 1014Q599 1014 568 1026T517 1058T486 1105T476 1159Q476 1190 488 1220T524 1275T583 1314T664 1329Q699 1329 729 1319T780 1289T814 1243T826 1184Q826 1146 812 1115T773 1062T714 1027T641 1014ZM656 1282Q636 1282 619 1273T590 1246T571 1205T564 1155Q564 1110 586 1086T644 1061Q686 1061 711 1096T736 1188Q736 1233 715 1257T656 1282Z"  />
<glyph unicode="&#xE6;" horiz-adv-x="1124" d="M696 430Q694 430 691 430T682 428Q677 428 672 428T659 430Q654 404 652 386T648 352T646 324T645 295Q645 202 678 148T770 94Q824 94 879 129T1001 240H1004Q1010 235 1015 230T1020 217Q1020 213 1014 203T996 177T971 145T940 111Q811 -25 698 -25Q613 -25 566 44T518 238Q518 245 518 253T518 271T519 297T522 336Q471 249 421 182T322 69T230 -1T147 -25Q89 -25 54 15T18 121Q18 193 45 272T121 429T233 579T371 711T524 810T680 866L690 889Q701 912 709 920T735 928Q760 928 770 921T780 899Q780 891 779 886T774 870L758 825Q811 859 849 873T926 887Q966 887 999 876T1056 843T1093 793T1106 727Q1106 666 1075 612T988 518T858 454T696 430ZM895 831Q857 831 822 806T758 735T705 621T666 469Q704 472 734 477T790 490T838 511T883 543Q931 583 958 632T985 739Q985 778 959 804T895 831ZM578 743Q544 743 503 725T419 677T336 607T264 522Q236 484 214 444T177 364T153 286T145 213Q145 170 165 144T219 117Q250 117 286 136T361 192T437 278T508 389Q528 426 548 474T585 567T612 650T623 705Q623 725 611 734T578 743Z"  />
<glyph unicode="&#xE7;" horiz-adv-x="606" d="M211 -117Q208 -122 206 -126T203 -133Q203 -138 215 -148T238 -164Q267 -186 277 -203T287 -242Q287 -277 272 -309T229 -367T167 -408T92 -424Q55 -424 31 -408T6 -365Q6 -348 18 -333T47 -317Q53 -317 61 -319T84 -332Q99 -343 110 -346T137 -350Q169 -350 190 -332T211 -285Q211 -268 195 -249T150 -213Q128 -201 121 -193T113 -170Q113 -158 120 -148T145 -121Q173 -93 197 -69T240 -25H236Q182 -25 146 2T88 70T57 160T47 254Q47 310 59 378T95 517T154 654T236 772T340 855T465 887Q490 887 519 882T573 865T614 832T631 780Q631 757 620 736T582 715Q552 715 532 732T494 771T458 809T416 827Q376 827 342 796T282 716T235 607T202 487T183 377T176 295Q176 267 179 232T194 164T228 110T287 88Q322 88 354 107T414 156T463 218T500 279H504Q509 274 515 266T522 250Q522 241 512 221T473 158Q457 133 438 107T397 57T348 15T293 -14Q255 -59 236 -82T211 -117Z"  />
<glyph unicode="&#xE8;" horiz-adv-x="696" d="M211 428Q199 357 199 283Q199 253 203 217T219 149T255 96T319 74Q355 74 392 91T464 134T529 190T582 246H590Q595 243 598 234T602 219Q602 211 595 199T579 174T560 149T545 131Q519 102 488 74T421 24T347 -11T266 -25Q209 -25 172 0T113 65T81 154T72 250Q72 313 81 375T109 500Q128 563 162 631T246 757T358 852T496 889Q533 889 566 878T624 844T663 791T678 721Q678 673 660 633T611 560T541 505T459 467Q399 445 337 438T211 428ZM471 838Q434 838 403 819T345 768T298 697T262 616T236 537T219 469Q287 475 347 491T461 551Q482 567 500 589T531 636T553 689T561 743Q561 784 537 811T471 838ZM336 1223Q325 1234 316 1246T306 1274Q306 1294 319 1299T349 1311Q363 1316 379 1320T410 1325Q425 1325 432 1313T445 1288L564 1038Q566 1035 566 1033T568 1028Q568 1019 561 1018T547 1016Q539 1016 531 1021T518 1032L336 1223Z"  />
<glyph unicode="&#xE9;" horiz-adv-x="696" d="M211 428Q199 357 199 283Q199 253 203 217T219 149T255 96T319 74Q355 74 392 91T464 134T529 190T582 246H590Q595 243 598 234T602 219Q602 211 595 199T579 174T560 149T545 131Q519 102 488 74T421 24T347 -11T266 -25Q209 -25 172 0T113 65T81 154T72 250Q72 313 81 375T109 500Q128 563 162 631T246 757T358 852T496 889Q533 889 566 878T624 844T663 791T678 721Q678 673 660 633T611 560T541 505T459 467Q399 445 337 438T211 428ZM471 838Q434 838 403 819T345 768T298 697T262 616T236 537T219 469Q287 475 347 491T461 551Q482 567 500 589T531 636T553 689T561 743Q561 784 537 811T471 838ZM430 1014Q427 1014 417 1016T407 1024Q409 1027 412 1031T417 1038L616 1288Q625 1299 636 1312T663 1325Q673 1325 689 1323T720 1316T746 1303T757 1282Q757 1267 748 1257T727 1237L450 1028Q447 1025 441 1020T430 1014Z"  />
<glyph unicode="&#xEA;" horiz-adv-x="696" d="M211 428Q199 357 199 283Q199 253 203 217T219 149T255 96T319 74Q355 74 392 91T464 134T529 190T582 246H590Q595 243 598 234T602 219Q602 211 595 199T579 174T560 149T545 131Q519 102 488 74T421 24T347 -11T266 -25Q209 -25 172 0T113 65T81 154T72 250Q72 313 81 375T109 500Q128 563 162 631T246 757T358 852T496 889Q533 889 566 878T624 844T663 791T678 721Q678 673 660 633T611 560T541 505T459 467Q399 445 337 438T211 428ZM471 838Q434 838 403 819T345 768T298 697T262 616T236 537T219 469Q287 475 347 491T461 551Q482 567 500 589T531 636T553 689T561 743Q561 784 537 811T471 838ZM649 1010Q647 1010 638 1022T615 1054T586 1096T556 1139T531 1176T516 1198Q501 1186 491 1177T472 1160T452 1143T424 1118Q417 1113 405 1102T380 1080T356 1058T338 1042Q334 1040 328 1035T314 1023T300 1013T289 1008Q282 1008 275 1016T268 1030Q268 1036 276 1045T289 1059Q346 1121 395 1181T498 1307Q507 1318 518 1324T543 1331Q550 1331 557 1322T569 1301T579 1276T586 1255Q587 1252 591 1241T602 1213T615 1178T631 1138Q649 1091 672 1034Q672 1028 664 1019T649 1010Z"  />
<glyph unicode="&#xEB;" horiz-adv-x="696" d="M211 428Q199 357 199 283Q199 253 203 217T219 149T255 96T319 74Q355 74 392 91T464 134T529 190T582 246H590Q595 243 598 234T602 219Q602 211 595 199T579 174T560 149T545 131Q519 102 488 74T421 24T347 -11T266 -25Q209 -25 172 0T113 65T81 154T72 250Q72 313 81 375T109 500Q128 563 162 631T246 757T358 852T496 889Q533 889 566 878T624 844T663 791T678 721Q678 673 660 633T611 560T541 505T459 467Q399 445 337 438T211 428ZM471 838Q434 838 403 819T345 768T298 697T262 616T236 537T219 469Q287 475 347 491T461 551Q482 567 500 589T531 636T553 689T561 743Q561 784 537 811T471 838ZM630 1042Q619 1042 607 1049T585 1068T568 1094T561 1120Q561 1135 568 1151T586 1180T610 1201T637 1210Q649 1210 661 1202T684 1182T701 1155T708 1126Q708 1112 701 1098T683 1071T658 1050T630 1042ZM342 1042Q331 1042 319 1049T297 1068T279 1094T272 1120Q272 1135 279 1151T297 1180T321 1201T348 1210Q359 1210 371 1202T394 1182T412 1155T419 1126Q419 1112 412 1098T393 1071T369 1050T342 1042Z"  />
<glyph unicode="&#xEC;" horiz-adv-x="449" d="M182 102Q182 90 193 90Q210 90 237 112T291 163T342 220T375 262H383V221Q383 212 378 202T367 181T353 162T340 145Q324 125 298 96T242 40T180 -6T119 -25Q87 -25 73 -3T59 49Q59 66 63 89T77 147T100 231T135 348Q138 357 148 391T171 471T200 568T228 664T249 740T258 776Q258 778 257 780T254 782Q237 782 212 763T163 719T117 669T86 631H78V666Q78 673 83 682T94 700T108 717T119 731Q134 750 160 777T216 828T277 870T336 887Q359 887 372 872T385 834Q385 811 377 781T360 727Q356 713 346 681T323 606T294 511T263 407T233 304T207 213T189 142T182 102ZM219 1223Q208 1234 199 1246T189 1274Q189 1294 202 1299T232 1311Q246 1316 262 1320T293 1325Q308 1325 315 1313T328 1288L447 1038Q449 1035 449 1033T451 1028Q451 1019 444 1018T430 1016Q422 1016 414 1021T401 1032L219 1223Z"  />
<glyph unicode="&#xED;" horiz-adv-x="449" d="M182 102Q182 90 193 90Q210 90 237 112T291 163T342 220T375 262H383V221Q383 212 378 202T367 181T353 162T340 145Q324 125 298 96T242 40T180 -6T119 -25Q87 -25 73 -3T59 49Q59 66 63 89T77 147T100 231T135 348Q138 357 148 391T171 471T200 568T228 664T249 740T258 776Q258 778 257 780T254 782Q237 782 212 763T163 719T117 669T86 631H78V666Q78 673 83 682T94 700T108 717T119 731Q134 750 160 777T216 828T277 870T336 887Q359 887 372 872T385 834Q385 811 377 781T360 727Q356 713 346 681T323 606T294 511T263 407T233 304T207 213T189 142T182 102ZM281 1014Q278 1014 268 1016T258 1024Q260 1027 263 1031T268 1038L467 1288Q476 1299 487 1312T514 1325Q524 1325 540 1323T571 1316T597 1303T608 1282Q608 1267 599 1257T578 1237L301 1028Q298 1025 292 1020T281 1014Z"  />
<glyph unicode="&#xEE;" horiz-adv-x="449" d="M182 102Q182 90 193 90Q210 90 237 112T291 163T342 220T375 262H383V221Q383 212 378 202T367 181T353 162T340 145Q324 125 298 96T242 40T180 -6T119 -25Q87 -25 73 -3T59 49Q59 66 63 89T77 147T100 231T135 348Q138 357 148 391T171 471T200 568T228 664T249 740T258 776Q258 778 257 780T254 782Q237 782 212 763T163 719T117 669T86 631H78V666Q78 673 83 682T94 700T108 717T119 731Q134 750 160 777T216 828T277 870T336 887Q359 887 372 872T385 834Q385 811 377 781T360 727Q356 713 346 681T323 606T294 511T263 407T233 304T207 213T189 142T182 102ZM512 1010Q510 1010 501 1022T478 1054T449 1096T419 1139T394 1176T379 1198Q364 1186 354 1177T335 1160T315 1143T287 1118Q280 1113 268 1102T243 1080T219 1058T201 1042Q197 1040 191 1035T177 1023T163 1013T152 1008Q145 1008 138 1016T131 1030Q131 1036 139 1045T152 1059Q209 1121 258 1181T361 1307Q370 1318 381 1324T406 1331Q413 1331 420 1322T432 1301T442 1276T449 1255Q450 1252 454 1241T465 1213T478 1178T494 1138Q512 1091 535 1034Q535 1028 527 1019T512 1010Z"  />
<glyph unicode="&#xEF;" horiz-adv-x="449" d="M182 102Q182 90 193 90Q210 90 237 112T291 163T342 220T375 262H383V221Q383 212 378 202T367 181T353 162T340 145Q324 125 298 96T242 40T180 -6T119 -25Q87 -25 73 -3T59 49Q59 66 63 89T77 147T100 231T135 348Q138 357 148 391T171 471T200 568T228 664T249 740T258 776Q258 778 257 780T254 782Q237 782 212 763T163 719T117 669T86 631H78V666Q78 673 83 682T94 700T108 717T119 731Q134 750 160 777T216 828T277 870T336 887Q359 887 372 872T385 834Q385 811 377 781T360 727Q356 713 346 681T323 606T294 511T263 407T233 304T207 213T189 142T182 102ZM522 1042Q511 1042 499 1049T477 1068T460 1094T453 1120Q453 1135 460 1151T478 1180T502 1201T529 1210Q541 1210 553 1202T576 1182T593 1155T600 1126Q600 1112 593 1098T575 1071T550 1050T522 1042ZM234 1042Q223 1042 211 1049T189 1068T171 1094T164 1120Q164 1135 171 1151T189 1180T213 1201T240 1210Q251 1210 263 1202T286 1182T304 1155T311 1126Q311 1112 304 1098T285 1071T261 1050T234 1042Z"  />
<glyph unicode="&#xF0;" horiz-adv-x="770" d="M803 1352Q808 1342 813 1327T821 1305Q821 1303 822 1301T823 1296Q823 1293 815 1289T795 1280T775 1272T764 1268Q733 1255 705 1243T645 1214Q680 1094 701 971T723 721Q723 652 715 576T688 425T641 280T571 152Q546 116 515 84T446 27T367 -11T279 -25Q217 -25 175 0T108 66T72 158T61 264Q61 327 70 388T98 510Q118 575 153 642T238 764T350 854T489 889Q515 889 541 880T590 860Q590 934 581 1018T557 1176Q543 1170 516 1158T460 1132T408 1106T377 1090Q375 1088 373 1088T369 1087Q367 1087 366 1090T362 1096Q357 1107 353 1120T346 1143Q346 1148 352 1151T360 1155Q386 1166 411 1175T463 1196L545 1233Q520 1342 473 1448Q471 1450 471 1452T471 1456Q471 1460 475 1462T486 1465T497 1466T504 1466Q512 1466 516 1465T528 1462Q534 1460 543 1451T566 1419T595 1361T629 1270Q672 1291 714 1310T801 1352H803ZM465 834Q418 834 379 799T309 709T254 586T214 450T190 323T182 227Q182 202 186 168T203 104T237 52T293 31Q343 31 384 64T459 150T516 269T556 401T580 526T588 625Q588 654 583 690T565 758T527 812T465 834Z"  />
<glyph unicode="&#xF1;" horiz-adv-x="905" d="M551 -25Q526 -25 517 -9T508 29Q508 47 511 66T520 104L621 508Q633 556 644 610T655 709Q655 730 647 749T612 768Q581 768 549 743T484 676T422 578T363 462T309 339T263 222T227 122T203 51Q199 40 195 27T183 1T167 -19T143 -27Q120 -27 106 -15T92 20Q92 30 96 54T108 108T124 173T141 239T156 295T166 332L240 629Q248 663 254 691T260 743Q260 756 256 762T240 768Q217 768 193 741T148 677T110 606T86 555H70V596Q70 621 77 640T94 682Q106 710 126 746T173 814T231 867T299 889Q319 889 331 882T351 863T362 836T365 803Q365 781 359 750T343 686T325 621T309 567Q294 510 277 456T246 344H248Q262 375 288 427T347 539T421 660T503 772T589 853T672 885Q703 885 722 871T751 835T766 787T770 735Q770 700 759 641T731 516L657 231Q656 229 653 214T645 181T637 147T633 125Q633 115 637 115Q643 115 651 123Q665 135 682 156T719 202T758 253T794 303T823 345T840 371H854V350Q854 342 854 336T851 324T846 311T836 291Q821 265 801 232T756 163T704 94T650 34T598 -9T551 -25ZM865 1225Q865 1222 857 1208T828 1165Q784 1100 750 1076T689 1051Q662 1051 639 1065T592 1098T546 1130T494 1145Q466 1145 442 1127T383 1063Q375 1055 373 1055Q372 1055 371 1056Q370 1057 369 1057T367 1059L355 1069Q352 1072 352 1073T351 1077Q351 1078 354 1083T361 1096T370 1110T377 1120Q419 1182 458 1217T525 1253Q553 1253 575 1238T619 1205T664 1172T719 1157Q745 1157 774 1178T830 1239Q835 1247 840 1247Q844 1247 848 1243L861 1231Q865 1227 865 1225Z"  />
<glyph unicode="&#xF2;" horiz-adv-x="770" d="M276 -25Q215 -25 174 -1T107 63T72 154T61 258Q61 318 68 371T90 479Q108 548 144 620T231 752T349 850T496 889Q557 889 598 862T663 791T698 695T709 590Q709 531 697 463T659 326T598 194T513 82T406 4T276 -25ZM469 834Q430 834 397 809T338 746T292 669T260 598Q244 557 230 511T206 415T189 317T182 219Q182 195 186 163T203 101T237 51T291 31Q340 31 382 64T457 150T515 269T558 401T583 526T592 625Q592 654 587 690T569 758T531 812T469 834ZM356 1223Q345 1234 336 1246T326 1274Q326 1294 339 1299T369 1311Q383 1316 399 1320T430 1325Q445 1325 452 1313T465 1288L584 1038Q586 1035 586 1033T588 1028Q588 1019 581 1018T567 1016Q559 1016 551 1021T538 1032L356 1223Z"  />
<glyph unicode="&#xF3;" horiz-adv-x="770" d="M276 -25Q215 -25 174 -1T107 63T72 154T61 258Q61 318 68 371T90 479Q108 548 144 620T231 752T349 850T496 889Q557 889 598 862T663 791T698 695T709 590Q709 531 697 463T659 326T598 194T513 82T406 4T276 -25ZM469 834Q430 834 397 809T338 746T292 669T260 598Q244 557 230 511T206 415T189 317T182 219Q182 195 186 163T203 101T237 51T291 31Q340 31 382 64T457 150T515 269T558 401T583 526T592 625Q592 654 587 690T569 758T531 812T469 834ZM465 1014Q462 1014 452 1016T442 1024Q444 1027 447 1031T452 1038L651 1288Q660 1299 671 1312T698 1325Q708 1325 724 1323T755 1316T781 1303T792 1282Q792 1267 783 1257T762 1237L485 1028Q482 1025 476 1020T465 1014Z"  />
<glyph unicode="&#xF4;" horiz-adv-x="770" d="M276 -25Q215 -25 174 -1T107 63T72 154T61 258Q61 318 68 371T90 479Q108 548 144 620T231 752T349 850T496 889Q557 889 598 862T663 791T698 695T709 590Q709 531 697 463T659 326T598 194T513 82T406 4T276 -25ZM469 834Q430 834 397 809T338 746T292 669T260 598Q244 557 230 511T206 415T189 317T182 219Q182 195 186 163T203 101T237 51T291 31Q340 31 382 64T457 150T515 269T558 401T583 526T592 625Q592 654 587 690T569 758T531 812T469 834ZM723 1010Q721 1010 712 1022T689 1054T660 1096T630 1139T605 1176T590 1198Q575 1186 565 1177T546 1160T526 1143T498 1118Q491 1113 479 1102T454 1080T430 1058T412 1042Q408 1040 402 1035T388 1023T374 1013T363 1008Q356 1008 349 1016T342 1030Q342 1036 350 1045T363 1059Q420 1121 469 1181T572 1307Q581 1318 592 1324T617 1331Q624 1331 631 1322T643 1301T653 1276T660 1255Q661 1252 665 1241T676 1213T689 1178T705 1138Q723 1091 746 1034Q746 1028 738 1019T723 1010Z"  />
<glyph unicode="&#xF5;" horiz-adv-x="770" d="M276 -25Q215 -25 174 -1T107 63T72 154T61 258Q61 318 68 371T90 479Q108 548 144 620T231 752T349 850T496 889Q557 889 598 862T663 791T698 695T709 590Q709 531 697 463T659 326T598 194T513 82T406 4T276 -25ZM469 834Q430 834 397 809T338 746T292 669T260 598Q244 557 230 511T206 415T189 317T182 219Q182 195 186 163T203 101T237 51T291 31Q340 31 382 64T457 150T515 269T558 401T583 526T592 625Q592 654 587 690T569 758T531 812T469 834ZM824 1225Q824 1222 816 1208T787 1165Q743 1100 709 1076T648 1051Q621 1051 598 1065T551 1098T505 1130T453 1145Q425 1145 401 1127T342 1063Q334 1055 332 1055Q331 1055 330 1056Q329 1057 328 1057T326 1059L314 1069Q311 1072 311 1073T310 1077Q310 1078 313 1083T320 1096T329 1110T336 1120Q378 1182 417 1217T484 1253Q512 1253 534 1238T578 1205T623 1172T678 1157Q704 1157 733 1178T789 1239Q794 1247 799 1247Q803 1247 807 1243L820 1231Q824 1227 824 1225Z"  />
<glyph unicode="&#xF6;" horiz-adv-x="770" d="M276 -25Q215 -25 174 -1T107 63T72 154T61 258Q61 318 68 371T90 479Q108 548 144 620T231 752T349 850T496 889Q557 889 598 862T663 791T698 695T709 590Q709 531 697 463T659 326T598 194T513 82T406 4T276 -25ZM469 834Q430 834 397 809T338 746T292 669T260 598Q244 557 230 511T206 415T189 317T182 219Q182 195 186 163T203 101T237 51T291 31Q340 31 382 64T457 150T515 269T558 401T583 526T592 625Q592 654 587 690T569 758T531 812T469 834ZM684 1042Q673 1042 661 1049T639 1068T622 1094T615 1120Q615 1135 622 1151T640 1180T664 1201T691 1210Q703 1210 715 1202T738 1182T755 1155T762 1126Q762 1112 755 1098T737 1071T712 1050T684 1042ZM396 1042Q385 1042 373 1049T351 1068T333 1094T326 1120Q326 1135 333 1151T351 1180T375 1201T402 1210Q413 1210 425 1202T448 1182T466 1155T473 1126Q473 1112 466 1098T447 1071T423 1050T396 1042Z"  />
<glyph unicode="&#xF7;" horiz-adv-x="860" d="M465 844Q449 844 433 852T403 874T382 903T373 936Q373 953 381 969T402 999T431 1020T465 1028Q480 1028 496 1020T525 999T546 970T555 938Q555 921 547 905T525 875T496 853T465 844ZM96 602V698H831V602H96ZM465 270Q449 270 433 278T403 300T382 329T373 362Q373 379 381 396T402 426T431 447T465 455Q480 455 496 447T525 426T546 397T555 365Q555 348 547 331T525 301T496 279T465 270Z"  />
<glyph unicode="&#xF8;" horiz-adv-x="770" d="M672 772Q692 730 700 683T709 590Q709 531 697 463T659 326T598 194T513 82T406 4T276 -25Q228 -25 193 -11T133 29L53 -82Q48 -90 43 -90H-2Q-4 -90 -6 -90T-8 -86Q-8 -83 -6 -79T-2 -72L102 72Q79 110 70 158T61 258Q61 318 68 371T90 479Q108 548 144 620T231 752T349 850T496 889Q547 889 582 870T643 819L719 922Q724 930 729 930H774Q776 930 778 930T780 926Q780 923 778 919T774 911L672 772ZM469 834Q430 834 397 809T338 746T292 669T260 598Q244 557 230 511T206 415T189 317T182 219Q182 211 182 203T184 184L580 729Q574 750 564 769T541 802T510 825T469 834ZM592 625Q592 633 592 641T590 657L197 117Q209 82 231 57T291 31Q340 31 382 64T457 150T515 269T558 401T583 526T592 625Z"  />
<glyph unicode="&#xF9;" horiz-adv-x="901" d="M553 -20Q535 -20 522 -13T501 7T489 34T485 66Q485 84 488 105T499 156T522 231T557 338L635 569Q564 458 490 348T330 135Q315 117 292 91T241 40T186 -2T131 -20Q112 -20 100 -12T82 10T73 39T70 70Q70 104 80 155T108 267T147 393T190 518T231 631T264 719Q266 724 269 732T272 743Q272 748 268 748Q259 748 243 733T211 700Q194 682 177 662T145 622T117 585T96 555H82Q80 563 79 571T78 586Q78 593 89 611T115 650T142 687T158 709Q172 727 197 757T251 816T310 867T367 889Q388 889 399 877T410 844Q410 837 407 825T399 800T390 775T383 756Q364 703 343 640T300 511T260 383T226 270T202 184T193 139Q193 134 193 131T195 123Q195 118 199 118T207 117Q219 117 239 129T293 176Q325 210 363 258T440 361T513 471T573 573Q599 621 622 670T666 770Q674 790 683 810T700 850Q707 865 716 877T743 889Q766 889 784 873T803 834Q803 814 797 796T784 760Q778 742 763 693T727 580T685 444T645 309T616 199T604 137Q604 129 606 124T618 119Q635 119 655 135T697 176T739 232T777 292T808 347T827 385H848V350Q848 333 844 318T829 285Q812 249 785 206T728 122T671 50T629 8Q612 -3 593 -11T553 -20ZM407 1223Q396 1234 387 1246T377 1274Q377 1294 390 1299T420 1311Q434 1316 450 1320T481 1325Q496 1325 503 1313T516 1288L635 1038Q637 1035 637 1033T639 1028Q639 1019 632 1018T618 1016Q610 1016 602 1021T589 1032L407 1223Z"  />
<glyph unicode="&#xFA;" horiz-adv-x="901" d="M553 -20Q535 -20 522 -13T501 7T489 34T485 66Q485 84 488 105T499 156T522 231T557 338L635 569Q564 458 490 348T330 135Q315 117 292 91T241 40T186 -2T131 -20Q112 -20 100 -12T82 10T73 39T70 70Q70 104 80 155T108 267T147 393T190 518T231 631T264 719Q266 724 269 732T272 743Q272 748 268 748Q259 748 243 733T211 700Q194 682 177 662T145 622T117 585T96 555H82Q80 563 79 571T78 586Q78 593 89 611T115 650T142 687T158 709Q172 727 197 757T251 816T310 867T367 889Q388 889 399 877T410 844Q410 837 407 825T399 800T390 775T383 756Q364 703 343 640T300 511T260 383T226 270T202 184T193 139Q193 134 193 131T195 123Q195 118 199 118T207 117Q219 117 239 129T293 176Q325 210 363 258T440 361T513 471T573 573Q599 621 622 670T666 770Q674 790 683 810T700 850Q707 865 716 877T743 889Q766 889 784 873T803 834Q803 814 797 796T784 760Q778 742 763 693T727 580T685 444T645 309T616 199T604 137Q604 129 606 124T618 119Q635 119 655 135T697 176T739 232T777 292T808 347T827 385H848V350Q848 333 844 318T829 285Q812 249 785 206T728 122T671 50T629 8Q612 -3 593 -11T553 -20ZM545 1014Q542 1014 532 1016T522 1024Q524 1027 527 1031T532 1038L731 1288Q740 1299 751 1312T778 1325Q788 1325 804 1323T835 1316T861 1303T872 1282Q872 1267 863 1257T842 1237L565 1028Q562 1025 556 1020T545 1014Z"  />
<glyph unicode="&#xFB;" horiz-adv-x="901" d="M553 -20Q535 -20 522 -13T501 7T489 34T485 66Q485 84 488 105T499 156T522 231T557 338L635 569Q564 458 490 348T330 135Q315 117 292 91T241 40T186 -2T131 -20Q112 -20 100 -12T82 10T73 39T70 70Q70 104 80 155T108 267T147 393T190 518T231 631T264 719Q266 724 269 732T272 743Q272 748 268 748Q259 748 243 733T211 700Q194 682 177 662T145 622T117 585T96 555H82Q80 563 79 571T78 586Q78 593 89 611T115 650T142 687T158 709Q172 727 197 757T251 816T310 867T367 889Q388 889 399 877T410 844Q410 837 407 825T399 800T390 775T383 756Q364 703 343 640T300 511T260 383T226 270T202 184T193 139Q193 134 193 131T195 123Q195 118 199 118T207 117Q219 117 239 129T293 176Q325 210 363 258T440 361T513 471T573 573Q599 621 622 670T666 770Q674 790 683 810T700 850Q707 865 716 877T743 889Q766 889 784 873T803 834Q803 814 797 796T784 760Q778 742 763 693T727 580T685 444T645 309T616 199T604 137Q604 129 606 124T618 119Q635 119 655 135T697 176T739 232T777 292T808 347T827 385H848V350Q848 333 844 318T829 285Q812 249 785 206T728 122T671 50T629 8Q612 -3 593 -11T553 -20ZM772 1010Q770 1010 761 1022T738 1054T709 1096T679 1139T654 1176T639 1198Q624 1186 614 1177T595 1160T575 1143T547 1118Q540 1113 528 1102T503 1080T479 1058T461 1042Q457 1040 451 1035T437 1023T423 1013T412 1008Q405 1008 398 1016T391 1030Q391 1036 399 1045T412 1059Q469 1121 518 1181T621 1307Q630 1318 641 1324T666 1331Q673 1331 680 1322T692 1301T702 1276T709 1255Q710 1252 714 1241T725 1213T738 1178T754 1138Q772 1091 795 1034Q795 1028 787 1019T772 1010Z"  />
<glyph unicode="&#xFC;" horiz-adv-x="901" d="M553 -20Q535 -20 522 -13T501 7T489 34T485 66Q485 84 488 105T499 156T522 231T557 338L635 569Q564 458 490 348T330 135Q315 117 292 91T241 40T186 -2T131 -20Q112 -20 100 -12T82 10T73 39T70 70Q70 104 80 155T108 267T147 393T190 518T231 631T264 719Q266 724 269 732T272 743Q272 748 268 748Q259 748 243 733T211 700Q194 682 177 662T145 622T117 585T96 555H82Q80 563 79 571T78 586Q78 593 89 611T115 650T142 687T158 709Q172 727 197 757T251 816T310 867T367 889Q388 889 399 877T410 844Q410 837 407 825T399 800T390 775T383 756Q364 703 343 640T300 511T260 383T226 270T202 184T193 139Q193 134 193 131T195 123Q195 118 199 118T207 117Q219 117 239 129T293 176Q325 210 363 258T440 361T513 471T573 573Q599 621 622 670T666 770Q674 790 683 810T700 850Q707 865 716 877T743 889Q766 889 784 873T803 834Q803 814 797 796T784 760Q778 742 763 693T727 580T685 444T645 309T616 199T604 137Q604 129 606 124T618 119Q635 119 655 135T697 176T739 232T777 292T808 347T827 385H848V350Q848 333 844 318T829 285Q812 249 785 206T728 122T671 50T629 8Q612 -3 593 -11T553 -20ZM766 1042Q755 1042 743 1049T721 1068T704 1094T697 1120Q697 1135 704 1151T722 1180T746 1201T773 1210Q785 1210 797 1202T820 1182T837 1155T844 1126Q844 1112 837 1098T819 1071T794 1050T766 1042ZM478 1042Q467 1042 455 1049T433 1068T415 1094T408 1120Q408 1135 415 1151T433 1180T457 1201T484 1210Q495 1210 507 1202T530 1182T548 1155T555 1126Q555 1112 548 1098T529 1071T505 1050T478 1042Z"  />
<glyph unicode="&#xFD;" horiz-adv-x="782" d="M549 139Q518 72 480 -5T397 -160T299 -309T184 -436T49 -524T-106 -557Q-179 -557 -222 -528T-266 -449Q-266 -420 -250 -404T-207 -387Q-187 -387 -176 -398T-154 -432Q-141 -455 -125 -462T-74 -469Q4 -469 75 -430T211 -319Q254 -273 285 -224T336 -128T365 -40T375 31Q375 140 354 271T295 575Q273 673 249 716T188 760Q162 760 140 743T100 695T73 626T59 543Q59 533 56 530T41 526Q29 526 27 528Q25 531 25 534T25 541Q28 606 40 664T78 770Q106 826 145 855T229 885Q260 885 286 869T335 816T376 718T410 569Q418 520 427 461T445 341T461 219T473 106Q496 161 513 198T544 269T571 338T600 428Q622 500 634 553T647 655Q647 687 637 715T610 768Q603 780 599 787T593 801T591 812T590 825Q592 848 609 866T655 885Q693 885 716 848T739 754Q739 655 691 499T549 139ZM445 1014Q442 1014 432 1016T422 1024Q424 1027 427 1031T432 1038L631 1288Q640 1299 651 1312T678 1325Q688 1325 704 1323T735 1316T761 1303T772 1282Q772 1267 763 1257T742 1237L465 1028Q462 1025 456 1020T445 1014Z"  />
<glyph unicode="&#xFE;" horiz-adv-x="823" d="M334 768Q311 646 290 525T246 283Q241 255 236 229T231 174Q231 123 253 92T332 61Q375 61 414 93T487 178T546 295T592 424T621 544T631 637Q631 679 623 707T595 753T547 777T477 784Q440 784 405 779T334 768ZM346 825Q403 841 461 851T578 862Q664 862 714 814T764 678Q764 620 750 553T712 418T658 288T596 178Q574 145 546 115T485 60T414 22T334 8Q299 8 269 14T207 37L150 -289Q140 -338 136 -372T131 -416Q131 -434 137 -444T153 -460T177 -468T205 -473Q220 -476 244 -478T283 -481Q291 -481 291 -498Q291 -509 287 -514T272 -520Q255 -520 195 -517T41 -514Q3 -514 -23 -515T-67 -517T-96 -519T-117 -520Q-123 -520 -129 -519T-135 -508Q-135 -500 -133 -494T-123 -487Q-118 -487 -100 -486T-70 -481Q-54 -478 -38 -471T-12 -449Q-4 -437 1 -423T13 -381T27 -308T49 -184L217 743L139 725Q121 720 110 718T94 715Q89 715 89 721T88 733V743Q88 753 92 755T104 760L225 793L276 1063Q283 1098 287 1131T294 1194T298 1246T299 1286Q299 1317 281 1336T225 1360Q204 1363 199 1367T193 1380Q193 1385 194 1389T201 1398T221 1406T260 1415Q303 1424 332 1429T382 1438T417 1442T446 1444Q465 1444 465 1427Q465 1421 463 1417Q463 1415 463 1413T461 1407Q457 1393 450 1363T435 1292T417 1207T401 1118L346 825Z"  />
<glyph unicode="&#xFF;" horiz-adv-x="782" d="M549 139Q518 72 480 -5T397 -160T299 -309T184 -436T49 -524T-106 -557Q-179 -557 -222 -528T-266 -449Q-266 -420 -250 -404T-207 -387Q-187 -387 -176 -398T-154 -432Q-141 -455 -125 -462T-74 -469Q4 -469 75 -430T211 -319Q254 -273 285 -224T336 -128T365 -40T375 31Q375 140 354 271T295 575Q273 673 249 716T188 760Q162 760 140 743T100 695T73 626T59 543Q59 533 56 530T41 526Q29 526 27 528Q25 531 25 534T25 541Q28 606 40 664T78 770Q106 826 145 855T229 885Q260 885 286 869T335 816T376 718T410 569Q418 520 427 461T445 341T461 219T473 106Q496 161 513 198T544 269T571 338T600 428Q622 500 634 553T647 655Q647 687 637 715T610 768Q603 780 599 787T593 801T591 812T590 825Q592 848 609 866T655 885Q693 885 716 848T739 754Q739 655 691 499T549 139ZM663 1042Q652 1042 640 1049T618 1068T601 1094T594 1120Q594 1135 601 1151T619 1180T643 1201T670 1210Q682 1210 694 1202T717 1182T734 1155T741 1126Q741 1112 734 1098T716 1071T691 1050T663 1042ZM375 1042Q364 1042 352 1049T330 1068T312 1094T305 1120Q305 1135 312 1151T330 1180T354 1201T381 1210Q392 1210 404 1202T427 1182T445 1155T452 1126Q452 1112 445 1098T426 1071T402 1050T375 1042Z"  />
<glyph unicode="&#x131;" horiz-adv-x="449" d="M182 102Q182 90 193 90Q210 90 237 112T291 163T342 220T375 262H383V221Q383 212 378 202T367 181T353 162T340 145Q324 125 298 96T242 40T180 -6T119 -25Q87 -25 73 -3T59 49Q59 66 63 89T77 147T100 231T135 348Q138 357 148 391T171 471T200 568T228 664T249 740T258 776Q258 778 257 780T254 782Q237 782 212 763T163 719T117 669T86 631H78V666Q78 673 83 682T94 700T108 717T119 731Q134 750 160 777T216 828T277 870T336 887Q359 887 372 872T385 834Q385 811 377 781T360 727Q356 713 346 681T323 606T294 511T263 407T233 304T207 213T189 142T182 102Z"  />
<glyph unicode="&#x152;" horiz-adv-x="1602" d="M1548 983Q1536 983 1533 986T1530 995V1008Q1530 1037 1533 1066T1536 1126Q1536 1143 1534 1162T1522 1196Q1514 1208 1497 1217T1443 1231T1345 1238T1188 1241Q1160 1241 1141 1236T1116 1198Q1090 1074 1070 951T1028 702Q1116 702 1173 703T1267 709T1324 721T1360 741Q1373 752 1382 773T1399 814T1413 850T1427 866Q1435 866 1443 862T1452 850Q1452 841 1450 832T1446 815Q1432 759 1419 704T1397 592Q1391 560 1387 529T1378 467Q1376 461 1375 455T1366 449Q1357 449 1348 451T1339 465Q1339 482 1340 499T1341 535Q1341 550 1340 571T1329 606Q1321 618 1307 626T1263 638T1181 643T1049 645H1018L961 289Q957 267 952 241T943 187T937 136T934 96Q934 83 944 78Q948 75 961 72T999 67T1066 63T1171 61Q1199 61 1227 62T1282 69T1334 86T1380 119Q1420 157 1442 205T1481 303Q1483 306 1484 313T1487 324Q1489 329 1493 330T1503 332Q1526 332 1526 311Q1526 303 1521 282T1507 232T1489 173T1470 113T1453 62T1442 31Q1436 15 1432 5T1405 -6Q1300 -6 1196 -2T987 2Q941 2 895 2T803 0Q786 0 770 0T737 -2Q725 -4 713 -7T690 -12Q658 -18 628 -22T565 -27Q448 -27 364 17T224 137T142 309T115 512Q115 607 135 704T194 891T291 1059T423 1196T587 1287T784 1321Q826 1321 867 1316T950 1305Q998 1300 1046 1298T1143 1296Q1260 1296 1377 1298T1612 1303Q1618 1303 1627 1302T1636 1290Q1636 1284 1634 1278T1630 1266Q1612 1212 1596 1144T1571 1012Q1568 992 1565 988T1548 983ZM770 1262Q713 1262 664 1246T571 1202T491 1136T420 1055Q375 996 344 929T292 789T263 643T254 496Q254 445 259 393T277 291T316 196T381 115Q426 74 480 54T594 33Q628 33 662 36T726 51T777 86T807 150Q833 270 854 397T895 647Q915 766 936 883T971 1118Q971 1123 972 1127T973 1137Q973 1177 953 1201T903 1239T837 1257T770 1262Z"  />
<glyph unicode="&#x153;" horiz-adv-x="1157" d="M983 500Q953 484 922 473T856 453T779 441T686 434Q678 391 675 357T672 289Q672 228 681 189T707 127T749 95T803 86Q829 86 857 97T915 129T973 178T1032 238H1040Q1042 234 1045 227T1049 217Q1049 214 1043 203T1026 177T1001 144T971 109Q909 42 846 9T729 -25Q673 -25 637 11T575 139Q438 -25 289 -25Q237 -25 195 -5T123 54T77 148T61 274Q61 398 95 511T193 709Q258 794 335 840T487 887Q557 887 606 847T684 717Q756 807 823 847T963 887Q1001 887 1033 876T1089 843T1126 794T1139 731Q1139 696 1128 663T1097 600T1048 545T983 500ZM928 834Q849 834 790 743T690 471Q762 474 817 488T918 537Q941 554 960 577T994 627T1017 681T1026 733Q1026 777 999 805T928 834ZM451 827Q398 827 351 780T268 654T211 472T190 258Q190 208 198 166T223 94T263 46T315 29Q346 29 376 46T435 94T487 170T530 268Q543 307 554 354T575 449T589 539T594 614Q594 711 557 769T451 827Z"  />
<glyph unicode="&#x160;" horiz-adv-x="838" d="M799 1284Q799 1281 796 1265T788 1229Q780 1178 775 1127T766 1026Q764 1012 760 1009T741 1006Q734 1006 731 1008T725 1018T723 1037T721 1071Q720 1089 719 1108T715 1147T705 1182T686 1210Q671 1224 651 1234T607 1252T561 1264T518 1268Q473 1268 438 1249T378 1197T341 1125T328 1042Q328 1015 329 994T337 951T357 907T394 853T451 782T535 686Q599 615 637 563T697 467T724 387T731 311Q731 237 700 176T618 70T501 0T365 -25Q323 -25 284 -19T205 -4Q189 1 175 5T145 12Q139 14 131 15T117 16Q111 16 105 15T92 14Q84 14 82 18T80 29V41Q80 52 81 77T84 133T88 199T94 264T100 316T106 346Q110 354 114 356T127 360Q129 360 134 361T143 362Q150 362 151 356T152 344Q152 333 151 312T150 268Q150 231 157 193T184 123Q196 105 213 88T253 57T304 35T367 27Q424 27 468 48T543 105T590 189T606 291Q606 331 599 363T569 434T501 525T383 659Q335 711 302 752T249 830T219 905T209 987Q209 1059 235 1120T306 1226T414 1296T549 1321Q564 1321 578 1321T610 1318T655 1310T721 1296Q729 1294 737 1293T754 1292Q762 1292 769 1293T784 1294Q789 1294 794 1293T799 1284ZM467 1761Q469 1761 478 1749T501 1719T530 1678T560 1635T585 1598T600 1577Q631 1600 656 1622T715 1673Q735 1690 752 1706T784 1735T810 1755T828 1763Q834 1763 841 1755T848 1741Q848 1735 841 1726T828 1712Q771 1650 721 1590T617 1464Q608 1453 597 1447T572 1440Q564 1440 557 1449T545 1470T535 1494T529 1515Q528 1518 524 1529T513 1557T500 1593T485 1633Q467 1680 445 1737Q445 1743 453 1752T467 1761Z"  />
<glyph unicode="&#x161;" horiz-adv-x="514" d="M463 743Q454 743 443 747T414 762Q379 784 353 792T303 801Q282 801 265 792T236 768T216 733T209 692Q209 672 213 653T229 609T261 554T313 479Q361 410 385 361T410 266Q410 209 386 157T320 64T226 -1T115 -25Q90 -25 69 -21T31 -7T6 19T-4 59Q-4 68 -2 79T5 99T18 115T39 121Q59 121 80 109T123 88Q170 68 211 68Q230 68 249 74T283 94T307 126T317 170Q317 191 315 209T304 251T273 309T215 399Q191 436 174 464T145 515T128 558T123 600Q123 651 146 702T207 795T293 863T391 889Q416 889 438 882T478 862T504 834T514 801Q514 773 496 758T463 743ZM323 1331Q325 1331 334 1319T357 1289T386 1248T416 1205T441 1168T456 1147Q487 1170 512 1192T571 1243Q591 1260 608 1276T640 1305T666 1325T684 1333Q690 1333 697 1325T704 1311Q704 1305 697 1296T684 1282Q627 1220 577 1160T473 1034Q464 1023 453 1017T428 1010Q420 1010 413 1019T401 1040T391 1064T385 1085Q384 1088 380 1099T369 1127T356 1163T341 1203Q323 1250 301 1307Q301 1313 309 1322T323 1331Z"  />
<glyph unicode="&#x178;" horiz-adv-x="940" d="M469 102Q469 67 488 53T555 39H604Q615 39 619 35T623 20Q623 11 619 4T606 -4Q597 -4 589 -3T571 -2Q473 4 373 4Q279 4 186 -2Q177 -2 169 -3T152 -4Q145 -4 141 -3T137 6Q137 9 138 11T139 16Q141 29 144 34T158 39H190Q206 39 222 40T254 45T283 57T307 78Q316 90 324 112T340 163T354 225T367 293L408 545Q411 565 413 588T416 631Q416 645 405 681T375 770L262 1079Q257 1094 249 1118T229 1167T206 1215T180 1247Q168 1257 150 1259T117 1262Q97 1262 92 1265T86 1278Q86 1283 89 1294T98 1305Q121 1305 172 1303T309 1300Q335 1300 363 1301T418 1302T464 1304T496 1305Q508 1305 512 1304T516 1292Q516 1280 513 1271T492 1262H459Q444 1262 428 1261T397 1256T374 1240T365 1210Q365 1196 370 1171T385 1113T405 1046T428 979L530 690L809 1096Q816 1106 826 1122T847 1155T863 1189T870 1221Q870 1248 851 1256T788 1264Q770 1264 761 1264T747 1266T742 1270T741 1278Q741 1286 743 1295T756 1305Q776 1305 827 1303T950 1300Q1010 1300 1046 1302T1094 1305Q1100 1305 1103 1303T1106 1292Q1106 1260 1085 1260Q1072 1260 1051 1251Q1031 1243 1001 1215T938 1148T872 1067T811 987L623 727Q598 692 583 671T558 634T543 601T532 559L487 281Q482 252 479 223T474 170T470 128T469 102ZM798 1472Q787 1472 775 1479T753 1498T736 1524T729 1550Q729 1565 736 1581T754 1610T778 1631T805 1640Q817 1640 829 1632T852 1612T869 1585T876 1556Q876 1542 869 1528T851 1501T826 1480T798 1472ZM510 1472Q499 1472 487 1479T465 1498T447 1524T440 1550Q440 1565 447 1581T465 1610T489 1631T516 1640Q527 1640 539 1632T562 1612T580 1585T587 1556Q587 1542 580 1528T561 1501T537 1480T510 1472Z"  />
<glyph unicode="&#x17D;" horiz-adv-x="963" d="M147 49Q248 52 346 54T545 61Q565 62 587 63T633 68T677 78T717 96Q739 109 756 126T788 170T819 235T854 326Q856 329 858 334T866 340Q872 340 883 338T895 328Q895 317 889 289T872 221T845 133T811 33Q805 16 799 -1T784 -18Q778 -18 774 -16Q761 -12 748 -9T706 -5T630 -3T500 -2Q372 -2 246 -4T-8 -6Q-18 -6 -18 4Q-18 16 -14 26T-4 45Q98 197 205 348T418 651Q521 801 622 950T825 1249Q731 1246 636 1246T446 1239Q391 1236 361 1229T315 1210Q296 1195 280 1168T251 1110T226 1048T205 993Q202 983 193 983Q186 983 177 985T168 995Q168 1004 173 1030T187 1089T204 1161T222 1230T237 1284T244 1309Q247 1315 249 1316T260 1317Q262 1317 265 1316T270 1313Q279 1308 289 1305T324 1301T396 1299T524 1298Q639 1298 750 1301T977 1305Q983 1305 986 1304T989 1296Q989 1279 984 1268T969 1243Q935 1192 899 1143T827 1044Q749 932 671 819T516 592L147 49ZM501 1761Q503 1761 512 1749T535 1719T564 1678T594 1635T619 1598T634 1577Q665 1600 690 1622T749 1673Q769 1690 786 1706T818 1735T844 1755T862 1763Q868 1763 875 1755T882 1741Q882 1735 875 1726T862 1712Q805 1650 755 1590T651 1464Q642 1453 631 1447T606 1440Q598 1440 591 1449T579 1470T569 1494T563 1515Q562 1518 558 1529T547 1557T534 1593T519 1633Q501 1680 479 1737Q479 1743 487 1752T501 1761Z"  />
<glyph unicode="&#x17E;" horiz-adv-x="762" d="M535 -102Q496 -102 461 -86T394 -46T334 5T281 57T233 97T190 113Q160 113 147 97T125 61Q120 50 116 39T107 18T92 4T70 -2Q48 -2 39 14T29 49Q29 76 39 100T66 143T105 177T152 199Q230 317 312 432T481 662Q494 679 506 696T532 727Q426 738 358 748T250 758Q227 758 212 754T180 731Q160 708 151 679T131 623Q129 616 126 611T115 606Q109 606 104 608Q101 611 97 614T92 625Q92 633 100 663T120 729T143 796T160 838Q172 862 187 873T229 885Q259 885 290 881T353 870T416 856T479 844Q540 832 602 829Q606 838 615 847T634 863T654 876T672 881Q695 881 709 869T723 831Q723 807 712 790T683 760T644 740T602 729Q580 703 561 677T522 623Q445 517 369 413T215 205Q224 207 234 207T254 207Q286 207 323 191T389 154Q420 131 446 98T495 35T541 -17T592 -39Q606 -39 617 -33T629 -10Q629 1 625 9T615 26T605 43T600 63Q600 86 619 100T659 115Q694 115 708 93T723 39Q723 13 709 -12T670 -57T610 -89T535 -102ZM352 1331Q354 1331 363 1319T386 1289T415 1248T445 1205T470 1168T485 1147Q516 1170 541 1192T600 1243Q620 1260 637 1276T669 1305T695 1325T713 1333Q719 1333 726 1325T733 1311Q733 1305 726 1296T713 1282Q656 1220 606 1160T502 1034Q493 1023 482 1017T457 1010Q449 1010 442 1019T430 1040T420 1064T414 1085Q413 1088 409 1099T398 1127T385 1163T370 1203Q352 1250 330 1307Q330 1313 338 1322T352 1331Z"  />
<glyph unicode="&#x192;" horiz-adv-x="860" d="M707 711Q715 711 715 707Q715 705 713 695T702 651Q700 645 698 644T692 643H508L471 395Q454 282 440 197T414 48T391 -62T367 -146T340 -215T307 -279Q261 -362 209 -405T94 -449Q51 -449 25 -429T-2 -377Q-2 -364 3 -351T17 -326T35 -308T57 -301Q66 -301 76 -311Q81 -314 85 -319T96 -330Q107 -341 121 -349T156 -358Q177 -358 194 -340T225 -291T250 -216T272 -123Q291 -24 308 99T344 356L385 643L281 641Q274 641 274 647Q274 649 274 652T276 664L279 676Q281 682 283 685T291 690L397 711Q411 795 422 852T446 952T472 1029T506 1102Q557 1202 633 1260T797 1319Q829 1319 856 1310T902 1284T933 1244T944 1194Q944 1160 927 1140T874 1120Q856 1120 850 1129T836 1167Q830 1186 824 1201T807 1225T783 1240T748 1245Q718 1245 694 1229T651 1185T615 1118T586 1036Q574 994 564 949T546 862T532 780T520 711H707Z"  />
<glyph unicode="&#x2C6;" horiz-adv-x="1022" d="M772 1010Q770 1010 761 1022T738 1054T709 1096T679 1139T654 1176T639 1198Q624 1186 614 1177T595 1160T575 1143T547 1118Q540 1113 528 1102T503 1080T479 1058T461 1042Q457 1040 451 1035T437 1023T423 1013T412 1008Q405 1008 398 1016T391 1030Q391 1036 399 1045T412 1059Q469 1121 518 1181T621 1307Q630 1318 641 1324T666 1331Q673 1331 680 1322T692 1301T702 1276T709 1255Q710 1252 714 1241T725 1213T738 1178T754 1138Q772 1091 795 1034Q795 1028 787 1019T772 1010Z"  />
<glyph unicode="&#x2C7;" horiz-adv-x="1022" d="M526 1331Q528 1331 537 1319T560 1289T589 1248T619 1205T644 1168T659 1147Q690 1170 715 1192T774 1243Q794 1260 811 1276T843 1305T869 1325T887 1333Q893 1333 900 1325T907 1311Q907 1305 900 1296T887 1282Q830 1220 780 1160T676 1034Q667 1023 656 1017T631 1010Q623 1010 616 1019T604 1040T594 1064T588 1085Q587 1088 583 1099T572 1127T559 1163T544 1203Q526 1250 504 1307Q504 1313 512 1322T526 1331Z"  />
<glyph unicode="&#x2DA;" horiz-adv-x="1024" d="M659 1014Q617 1014 586 1026T535 1058T504 1105T494 1159Q494 1190 506 1220T542 1275T601 1314T682 1329Q717 1329 747 1319T798 1289T832 1243T844 1184Q844 1146 830 1115T791 1062T732 1027T659 1014ZM674 1282Q654 1282 637 1273T608 1246T589 1205T582 1155Q582 1110 604 1086T662 1061Q704 1061 729 1096T754 1188Q754 1233 733 1257T674 1282Z"  />
<glyph unicode="&#x2DC;" horiz-adv-x="1022" d="M924 1225Q924 1222 916 1208T887 1165Q843 1100 809 1076T748 1051Q721 1051 698 1065T651 1098T605 1130T553 1145Q525 1145 501 1127T442 1063Q434 1055 432 1055Q431 1055 430 1056Q429 1057 428 1057T426 1059L414 1069Q411 1072 411 1073T410 1077Q410 1078 413 1083T420 1096T429 1110T436 1120Q478 1182 517 1217T584 1253Q612 1253 634 1238T678 1205T723 1172T778 1157Q804 1157 833 1178T889 1239Q894 1247 899 1247Q903 1247 907 1243L920 1231Q924 1227 924 1225Z"  />
<glyph unicode="&#x2013;" horiz-adv-x="1004" d="M930 442H80L96 518H944L930 442Z"  />
<glyph unicode="&#x2014;" horiz-adv-x="2007" d="M1937 442H86L102 518H1954L1937 442Z"  />
<glyph unicode="&#x2018;" horiz-adv-x="420" d="M381 975Q381 963 375 950T358 926T336 907T311 899Q277 899 253 921T214 974T191 1041T184 1104Q184 1152 199 1193T242 1268T307 1328T387 1372Q397 1376 413 1381T446 1391T480 1399T508 1403Q513 1400 519 1394T530 1382Q486 1372 439 1353T353 1304T289 1233T264 1139Q264 1095 282 1074T322 1039T362 1014T381 975Z"  />
<glyph unicode="&#x2019;" horiz-adv-x="420" d="M102 899Q97 899 90 907T80 920Q125 930 172 949T258 998T321 1069T346 1163Q346 1192 338 1210T316 1241T289 1261T261 1277T240 1297T231 1327Q231 1339 237 1352T252 1377T274 1396T299 1403Q333 1403 357 1381T396 1327T419 1259T426 1196Q426 1148 411 1107T368 1031T303 971T223 928Q215 925 199 920T164 911T128 903T102 899Z"  />
<glyph unicode="&#x201A;" horiz-adv-x="420" d="M-100 -338Q-105 -335 -111 -329T-123 -317Q-78 -307 -31 -288T54 -239T118 -168T143 -74Q143 -44 135 -25T114 5T86 24T59 40T38 60T29 90Q29 102 35 115T50 140T72 159T96 166Q130 166 154 144T193 91T216 24T223 -39Q223 -88 208 -129T165 -204T100 -263T20 -307Q10 -312 -6 -317T-39 -327T-73 -335T-100 -338Z"  />
<glyph unicode="&#x201C;" horiz-adv-x="758" d="M717 975Q717 963 711 950T696 925T674 906T649 899Q615 899 591 921T552 974T529 1041T522 1104Q522 1153 537 1194T580 1269T645 1328T725 1372Q734 1376 750 1381T783 1391T817 1399T844 1403Q852 1398 858 1392T868 1382Q824 1372 777 1353T691 1304T627 1233T602 1139Q602 1094 620 1073T659 1040T699 1016T717 975ZM381 975Q381 963 375 950T358 926T336 907T311 899Q277 899 253 921T214 974T191 1041T184 1104Q184 1152 199 1193T242 1268T307 1328T387 1372Q397 1376 413 1381T446 1391T480 1399T508 1403Q513 1400 519 1394T530 1382Q486 1372 439 1353T353 1304T289 1233T264 1139Q264 1095 282 1074T322 1039T362 1014T381 975Z"  />
<glyph unicode="&#x201D;" horiz-adv-x="758" d="M440 899Q434 899 429 907T418 920Q463 930 510 949T595 998T658 1069T682 1163Q682 1193 674 1211T652 1242T625 1263T597 1279T576 1298T567 1327Q567 1339 573 1352T588 1376T610 1395T635 1403Q669 1403 693 1381T733 1327T756 1259T764 1196Q764 1149 749 1108T706 1032T641 971T561 928Q553 925 537 920T501 911T465 903T440 899ZM102 899Q97 899 90 907T80 920Q125 930 172 949T258 998T321 1069T346 1163Q346 1192 338 1210T316 1241T289 1261T261 1277T240 1297T231 1327Q231 1339 237 1352T252 1377T274 1396T299 1403Q333 1403 357 1381T396 1327T419 1259T426 1196Q426 1148 411 1107T368 1031T303 971T223 928Q215 925 199 920T164 911T128 903T102 899Z"  />
<glyph unicode="&#x201E;" horiz-adv-x="758" d="M238 -338Q234 -338 226 -330T215 -317Q260 -307 307 -288T392 -239T455 -168T479 -74Q479 -44 471 -26T450 5T422 26T395 42T374 61T365 90Q365 102 371 115T386 139T408 158T432 166Q466 166 490 144T530 91T553 24T561 -39Q561 -87 546 -128T503 -204T438 -263T358 -307Q349 -311 333 -316T298 -326T264 -334T238 -338ZM-100 -338Q-107 -338 -112 -330T-123 -317Q-78 -307 -31 -288T54 -239T118 -168T143 -74Q143 -44 135 -26T114 5T86 25T59 41T38 60T29 90Q29 102 35 115T50 140T72 159T96 166Q130 166 154 144T193 91T216 24T223 -39Q223 -87 208 -128T165 -204T100 -263T20 -307Q10 -311 -6 -316T-39 -326T-73 -334T-100 -338Z"  />
<glyph unicode="&#x2020;" horiz-adv-x="860" d="M791 670Q766 656 742 645T711 633Q706 633 696 639T674 651Q649 665 591 675T459 688Q446 623 441 569T436 477Q436 440 440 404T455 340Q459 332 459 328Q459 326 458 321T453 311Q429 268 405 198T357 29T308 -199T258 -489Q254 -515 252 -529T246 -549T237 -557T223 -559Q201 -559 201 -541V-537L203 -530Q203 -521 209 -494Q213 -466 222 -410T248 -252Q261 -172 271 -97T289 43T299 161T303 250Q303 267 303 282T299 309Q297 320 296 323T295 328Q295 330 295 332T299 340T307 355T322 381Q336 404 347 429T369 487Q380 521 393 573T420 688Q364 688 325 686T254 679T198 664T147 639Q143 635 135 635Q125 635 113 642T89 661T71 684T63 707Q63 721 73 732T109 760Q129 774 144 780T164 786Q172 784 188 775T209 764Q237 750 290 742T428 733Q434 763 439 801T449 880T456 958T459 1028Q459 1060 455 1091T440 1147Q438 1152 437 1157T436 1169Q436 1176 442 1187T463 1221Q495 1269 513 1288T547 1307Q561 1307 570 1295T590 1249Q596 1229 602 1206T608 1174Q608 1166 604 1156T584 1124Q571 1107 556 1067T526 974T496 858T469 733Q520 734 559 737T628 745T682 758T725 778Q731 781 734 781T739 782Q742 782 759 774T793 750Q807 737 812 728T817 709Q817 698 810 687T791 670Z"  />
<glyph unicode="&#x2021;" horiz-adv-x="860" d="M811 674Q800 669 783 662T764 655Q759 655 754 657T735 668Q700 691 639 705T500 719Q494 687 490 664T484 622T482 586T481 551Q481 500 484 470T492 422T500 396T504 381Q504 379 503 374T498 362Q480 335 465 299T437 223T412 138T391 49Q478 49 543 62T666 100Q670 102 672 102T676 103Q678 103 678 104Q685 104 696 96T717 75T734 50T741 27Q741 15 732 1T709 -25T679 -45T649 -53Q641 -53 635 -50T612 -35Q578 -10 525 0T385 10Q376 -32 370 -78T358 -170T351 -255T348 -324Q348 -350 352 -385T362 -446Q362 -450 363 -451T365 -455Q365 -467 355 -484T330 -517T299 -544T272 -555Q258 -555 247 -545T225 -510Q219 -496 214 -479T209 -451Q209 -443 213 -432T229 -397Q245 -365 261 -318T291 -215T319 -102T342 10Q287 10 249 9T184 3T134 -8T90 -27Q88 -28 83 -30T71 -36T58 -41T47 -45Q39 -45 29 -37T9 -17T-7 8T-14 31Q-14 42 -11 52T4 74Q24 92 42 104T72 117Q77 117 83 112T104 98Q129 84 155 75T209 61T272 53T348 49Q352 67 354 90T358 138T361 186T362 229Q362 244 361 263T358 300T354 335T348 362Q347 364 347 366T345 371Q344 373 344 375Q344 381 346 388T362 416Q375 435 389 469T416 546T441 633T461 719H428Q353 719 288 705T180 666Q167 657 160 657Q154 657 144 666T125 687T109 712T102 733Q102 756 125 776Q148 796 160 803T180 811Q183 811 197 805Q253 779 316 767T469 754Q476 788 481 823T489 894T494 962T496 1024Q496 1068 494 1097T489 1144T484 1172T481 1186Q481 1198 492 1218T519 1258T552 1291T580 1305Q588 1305 599 1294T621 1268T638 1234T645 1202Q645 1196 642 1187T625 1155Q605 1120 589 1075T558 978T531 868T506 754Q593 754 658 761T754 786Q766 794 773 797T786 803Q791 803 791 805H793Q795 807 799 807Q806 807 816 799T835 780T850 755T856 731Q856 714 845 699T811 674Z"  />
<glyph unicode="&#x2022;" horiz-adv-x="1024" d="M561 432Q515 432 474 450T403 499T354 571T336 659Q336 707 353 748T402 820T475 869T565 887Q611 887 651 869T722 819T770 747T788 659Q788 612 771 571T722 499T650 450T561 432Z"  />
<glyph unicode="&#x2026;" horiz-adv-x="1143" d="M885 -25Q870 -25 855 -17T828 5T809 35T801 68Q801 85 809 102T829 133T857 155T887 164Q901 164 916 156T943 134T963 103T971 70Q971 54 963 37T943 7T915 -16T885 -25ZM504 -25Q489 -25 474 -17T447 5T428 35T420 68Q420 85 428 102T448 133T476 155T506 164Q520 164 535 156T563 134T584 103T592 70Q592 54 584 37T563 7T535 -16T504 -25ZM123 -25Q108 -25 93 -17T66 5T47 35T39 68Q39 85 47 102T67 133T95 155T125 164Q139 164 154 156T181 134T201 103T209 70Q209 54 201 37T181 7T153 -16T123 -25Z"  />
<glyph unicode="&#x2030;" horiz-adv-x="1806" d="M1450 -10Q1408 -10 1372 11T1308 68T1266 155T1251 262Q1251 348 1274 426T1338 562T1431 655T1544 690Q1588 690 1624 672T1686 621T1726 543T1741 442Q1741 352 1718 270T1654 126T1561 27T1450 -10ZM1552 621Q1517 621 1484 592T1425 506Q1396 440 1380 364T1364 219Q1364 145 1389 100T1456 55Q1499 55 1538 94T1604 205Q1614 236 1623 271T1639 341T1649 410T1653 473Q1653 538 1625 579T1552 621ZM891 -10Q848 -10 811 11T747 68T705 155T690 262Q690 348 713 426T777 562T871 655T985 690Q1028 690 1064 672T1125 621T1165 543T1180 442Q1180 352 1157 270T1093 126T1001 27T891 -10ZM1012 1141Q944 1039 868 920T707 661T528 362T328 18Q321 6 317 -2T307 -16Q301 -29 295 -35Q287 -45 276 -45Q268 -45 259 -40T243 -28T230 -11T225 6Q225 15 231 28T254 63Q324 165 396 274T545 506T709 771T893 1079Q863 1064 840 1055T796 1041T753 1034T702 1032Q675 1032 659 1034T616 1042Q618 1031 618 1023T618 1010Q618 981 614 948T603 882T586 817T563 758Q523 667 462 616T326 565Q282 565 247 584T186 637T147 720T133 827Q133 918 155 997T218 1135T312 1228T428 1262Q468 1262 505 1245T563 1196Q571 1184 581 1165T602 1126Q634 1106 662 1099T729 1092Q789 1092 838 1110T948 1174Q954 1183 957 1188T969 1206L999 1257Q1018 1286 1028 1298T1051 1311Q1069 1311 1083 1297T1098 1262Q1098 1234 1077 1203T1012 1141ZM526 1098Q513 1111 505 1120T491 1139T481 1158T473 1182Q461 1188 452 1190T432 1192Q396 1192 362 1159T302 1069T260 941T244 793Q244 715 269 672T340 629Q376 629 410 663T471 752T514 879T530 1026Q530 1045 530 1061T526 1098ZM993 621Q958 621 924 592T864 506Q835 440 819 364T803 219Q803 145 829 100T897 55Q940 55 978 94T1042 205Q1053 236 1062 271T1079 341T1090 410T1094 473Q1094 505 1086 532T1065 579T1033 610T993 621Z"  />
<glyph unicode="&#x2039;" horiz-adv-x="530" d="M236 471Q241 462 244 456T250 438Q256 429 263 413T285 367Q298 339 316 298T350 219T379 152T391 121Q391 118 386 114T374 105T361 97T350 94Q344 94 338 101T319 125Q304 150 286 172T250 217Q215 265 175 316T96 412Q87 421 73 437T59 465Q59 474 68 479Q70 482 72 484T80 492L100 508Q135 534 185 576T288 665T393 758T481 838Q487 843 491 844T498 846Q501 846 507 842T520 833T532 822T537 813Q537 804 464 721T236 471Z"  />
<glyph unicode="&#x203A;" horiz-adv-x="530" d="M309 469Q304 478 301 484T295 502Q289 511 282 527T260 573Q247 601 229 642T194 721T166 788T154 819Q154 822 159 826T170 835T184 843T195 846Q201 846 207 839T225 815Q241 790 259 768T295 723Q330 675 370 624T449 528Q458 519 471 504T485 475Q485 466 477 461Q475 458 473 456T465 449L444 432Q409 406 360 364T257 275T152 182T63 102Q52 94 47 94Q44 94 38 98T25 107T13 118T8 127Q8 136 81 219T309 469Z"  />
<glyph unicode="&#x2044;" horiz-adv-x="227" d="M-279 -37Q-225 57 -171 148T-63 334Q133 671 276 920T508 1329H596Q527 1212 473 1120T373 951T289 808T212 676T134 540T45 385T-63 198T-197 -37H-279Z"  />
<glyph unicode="&#x2074;" horiz-adv-x="600" d="M129 1049Q115 1049 112 1051T109 1059L110 1064Q111 1068 112 1074T115 1094Q117 1103 123 1112T135 1130L518 1567Q540 1592 553 1607T573 1631T585 1642T594 1645Q597 1645 600 1643T608 1638L635 1620Q637 1618 639 1617T641 1612Q641 1607 639 1599T633 1579Q624 1541 614 1492T592 1386L543 1124H602Q615 1124 628 1125T653 1128Q666 1130 678 1133L653 1065Q648 1054 642 1052T627 1049H526Q517 999 506 951T485 852Q483 838 479 837T465 834L410 827Q399 825 395 825T389 825Q383 825 383 834Q383 837 384 841T387 854L428 1049H129ZM444 1124L516 1495Q438 1402 357 1310T195 1124H444Z"  />
<glyph unicode="&#x20AC;" horiz-adv-x="860" d="M408 35Q479 35 535 54T641 127Q670 158 686 195T717 272Q719 275 720 280T727 285Q732 285 742 281T752 270Q752 265 751 260T748 250Q731 199 718 149T694 45Q691 33 687 29T670 20Q644 11 613 3T548 -10T477 -19T406 -23Q342 -23 291 5T205 88T150 219T131 395Q131 415 131 435T133 477H33Q27 477 27 483Q27 496 30 510T35 537Q35 545 43 545H139Q144 585 150 626T164 709H66Q55 709 55 717Q55 719 56 726T58 742T60 758T61 768Q61 773 65 774T72 776H180Q205 878 241 967T322 1124Q385 1218 461 1267T625 1317Q643 1317 667 1313T718 1302T770 1290T817 1282Q823 1282 826 1281T834 1280Q840 1280 844 1285T854 1290H858Q861 1290 866 1288T872 1280Q872 1278 870 1269T866 1251Q852 1180 842 1116T825 987Q825 979 824 972T811 965H801Q791 965 789 972T786 997V1051Q786 1069 783 1089T775 1129T761 1167T741 1200Q727 1218 710 1229T676 1247T641 1257T612 1260Q583 1260 554 1243T496 1195T443 1120T397 1022Q354 909 324 776H631Q636 776 638 773T641 768Q641 765 640 756T636 736T631 717T625 709H309Q291 626 279 545H543Q551 545 551 535Q551 530 550 521T547 501T541 484T532 477H270Q264 432 262 391T260 315Q260 181 298 108T408 35Z"  />
<glyph unicode="&#x2122;" horiz-adv-x="1315" d="M1231 715Q1231 692 1241 684T1264 676Q1290 674 1296 671T1303 662Q1303 652 1300 647T1286 641Q1268 641 1251 642T1214 643Q1190 643 1154 642T1069 641Q1055 641 1055 653Q1055 666 1058 669T1073 674Q1084 676 1094 677T1114 684Q1120 687 1125 694T1135 715T1145 752T1155 811L1208 1171Q1143 1045 1081 916T965 662Q962 655 954 653T936 649L922 647Q915 647 915 651L911 674Q894 770 881 865T850 1057Q845 1085 840 1114T829 1171L776 864Q773 846 770 823T763 778T758 738T756 713Q756 687 769 681T799 674Q825 674 830 673T836 666Q836 659 834 650T821 641Q796 641 772 642T723 643Q698 643 675 642T627 641Q616 641 616 651Q616 665 621 668T639 672Q642 672 652 674T672 682Q681 688 687 703T699 737T707 773T713 801Q736 909 757 1017T801 1233Q796 1247 790 1254T775 1264T756 1267T733 1270Q730 1270 726 1271T721 1278Q721 1287 724 1295T739 1303H887Q895 1303 897 1297T899 1272Q899 1246 905 1201T920 1105T938 1005T954 922Q961 890 966 858T977 791Q1015 868 1053 944T1128 1098Q1151 1144 1174 1192T1214 1290Q1219 1303 1229 1303H1374Q1382 1303 1382 1292Q1382 1281 1378 1278T1364 1272Q1349 1269 1338 1265T1318 1252T1304 1227T1294 1182L1257 934Q1245 847 1238 791T1231 715ZM637 1143Q621 1143 619 1148T616 1161Q616 1169 617 1177T618 1200Q618 1211 616 1222T602 1239Q596 1242 577 1244T536 1249T494 1252T465 1255L408 903Q405 883 400 854T391 796T384 744T381 713Q381 691 393 684T421 675T448 672T461 662Q461 654 459 648T446 641Q416 641 386 643T324 645Q295 645 267 643T209 641Q197 641 197 651Q197 667 202 670T219 674H236Q259 674 270 686T287 721Q295 759 302 804T317 897L377 1255Q326 1255 290 1253T231 1241Q202 1229 182 1163Q180 1155 179 1149T166 1143Q161 1143 154 1145T147 1153Q147 1170 155 1206T176 1294Q178 1302 180 1306T193 1311Q199 1311 203 1309Q207 1306 213 1304T231 1301T261 1300T309 1300H637Q648 1300 664 1307Q666 1309 669 1309T674 1309Q682 1309 682 1300Q682 1295 678 1276T669 1234T659 1193T653 1169Q648 1152 645 1148T637 1143Z"  />

</font>
</defs>
</svg>
