<?xml  version="1.0" encoding="UTF-8"?>
<!DOCTYPE svg PUBLIC "-//W3C//DTD SVG 1.0//EN" "http://www.w3.org/TR/2001/REC-SVG-20010904/DTD/svg10.dtd" >
<svg xmlns="http://www.w3.org/2000/svg" >
<metadata>
<version>1.0</version>
<id><![CDATA[ITC Legacy Serif W04 Book Ital]]></id>
<vendor>Monotype Imaging Inc.</vendor>
<credits>
<name>Fonts.com WebFonts</name>
<URL>http://webfonts.fonts.com</URL>
<role>Home of the Web fonts</role>
</credits>
<license>
<URL>http://webfonts.fonts.com/Legal</URL>
</license>
<copyright><![CDATA[Digitized data (C) 1994, 2005 International Typeface Corporation. All rights reserved.]]></copyright>
<trademark><![CDATA[ITC Legacy is a trademark of International Typeface Corporation registered in the U.S. Patent & Trademark Office and may be registered in certain jurisdictions.]]></trademark>
<licensee>
<name></name>
</licensee>
</metadata>
<defs >
<font horiz-adv-x="481" id="14a965e4-523f-4223-8be4-c80fc4b9896f">
<font-face font-family="" panose-1="2 0 5 3 7 0 0 9 0 4" ascent="708" descent="-292" units-per-em="1000" alphabetic="0">
</font-face>
<missing-glyph horiz-adv-x="500" d="M12 665H487V0H12V665ZM250 375L411 618H88L250 375ZM60 91Q60 91 67 101T85 128T110 167T140 212Q175 266 221 333L60 575V91ZM278 333L440 90V575L278 333ZM250 290L88 48H411L250 290Z"  />

<glyph unicode="&#xA;" />
<glyph unicode="&#xD;" horiz-adv-x="240" />
<glyph unicode=" " horiz-adv-x="240" />
<glyph unicode="!" horiz-adv-x="314" d="M130 152Q135 176 138 197T145 243T152 297T161 368Q174 480 182 539T198 619Q210 651 262 651Q289 651 289 627Q289 617 284 593T270 536T249 463T222 380Q207 335 198 309T183 261T171 217T156 159Q155 154 155 153L152 152L148 151L131 149L130 152ZM121 89Q129 89 137 85T153 73T165 57T170 40Q170 31 166 22T154 6T137 -6T119 -11Q102 -11 86 5T70 38Q70 47 74 56T86 72T103 84T121 89Z"  />
<glyph unicode="&quot;" d="M267 647Q289 647 289 628Q289 621 288 613T282 591T270 557T251 505Q240 479 230 449T214 395Q213 391 211 390T200 389Q192 389 192 394Q192 395 192 397T195 411Q199 439 201 468T206 532Q209 573 212 596T221 630T237 644T267 647ZM415 647Q437 647 437 628Q437 621 436 612T430 590T418 556T399 505Q390 482 380 452T362 395Q361 391 359 390T348 389Q340 389 340 394Q340 395 340 397T343 411Q347 441 349 469T354 532Q357 572 359 595T368 630T385 644T415 647Z"  />
<glyph unicode="#" horiz-adv-x="518" d="M379 446Q389 486 396 514T409 564T418 599T424 628Q425 636 435 637Q439 638 448 638T460 639Q467 639 467 634Q467 632 466 627T463 615Q451 574 439 532T415 446Q435 446 463 446T521 448H527Q538 448 538 443Q538 443 524 401Q522 394 520 393T511 391H502L459 393H418H401L363 253H395L435 254L470 255H476Q487 255 487 250Q487 248 473 208Q470 200 469 199T460 198Q458 198 457 198T450 198T434 198T403 199L378 200H349Q339 164 332 137T320 87T309 46T300 7Q298 0 291 -2T262 -4Q255 -4 255 2Q255 5 257 11Q260 19 261 25T265 37T269 50T275 69L293 132Q302 162 306 175T312 200H258H185Q168 134 156 87T139 20Q136 5 135 3T129 -2Q127 -3 117 -3T99 -4Q92 -4 92 1Q92 3 94 11Q110 62 148 200H112H77L38 199H34Q26 199 26 203Q26 206 27 210T37 238Q41 249 43 252T52 255Q52 255 61 255T83 255T114 254T150 253H163Q164 258 169 278T181 323T193 367T201 394Q193 394 188 394T168 393H127L88 392H84Q76 392 76 397Q76 399 79 410Q81 415 83 420T87 432Q91 443 93 446T102 449H115Q138 448 163 448T215 446Q222 473 229 499T241 549T251 589T257 615Q260 630 261 632T266 636Q270 637 280 638T296 639Q303 639 303 634Q303 632 302 628T299 615Q294 598 289 581T279 545T267 501T251 446H325H379ZM302 394H237Q235 389 231 373T219 327L199 253H212L269 252L320 253H327Q330 266 333 277T342 310Q347 328 350 340T356 362T361 378T365 394H302Z"  />
<glyph unicode="$" d="M326 691Q327 699 334 699H352H356Q358 699 358 697V694L340 614Q376 610 401 600Q409 598 411 598Q413 598 418 599T428 603Q434 605 436 605Q440 605 440 600Q440 599 438 589Q433 562 431 542T426 497Q425 486 425 480T423 471T418 468T408 467Q400 467 399 471T398 499Q396 536 382 555T334 582L282 343Q317 310 340 286T376 242T395 202T400 162Q400 119 375 80T309 21Q287 10 262 5T202 0L183 -98Q182 -103 181 -103T175 -105L156 -106H155Q152 -106 152 -103Q152 -99 153 -98L176 2Q165 3 151 5T123 9T97 14T79 19Q71 21 71 21Q69 21 58 17Q56 16 53 16Q46 16 46 26Q46 33 47 48T50 83T54 121T59 154Q62 174 64 178T74 182Q85 182 87 180T90 167Q89 134 93 111T108 72T137 49T184 36L237 287Q204 317 183 338T149 378T132 414T127 453Q127 488 140 518T175 570T229 604T297 617H312L326 691ZM305 585Q267 584 244 570Q221 558 208 533T194 478Q194 464 197 453T207 428T227 400T259 366L305 585ZM209 34Q263 35 294 65T325 147Q325 163 322 176T312 203T292 232T260 268L209 34Z"  />
<glyph unicode="%" horiz-adv-x="740" d="M595 613Q606 628 611 633T624 639Q635 639 643 632T651 616Q651 588 600 558Q519 458 420 324T193 9Q179 -13 175 -17T164 -21Q155 -21 145 -13T135 3Q135 12 152 30Q194 80 237 133T326 248T424 378T534 529Q515 521 501 517T475 510T449 506T418 505Q401 505 392 506T365 510Q366 505 366 500T366 493Q366 464 357 431T334 370Q311 325 274 301T194 277Q142 277 111 311T80 404Q80 448 93 486T130 553T186 598T254 615Q304 615 334 583Q339 577 343 571T357 549Q377 539 393 536T433 532Q469 532 499 541T565 572Q569 577 570 579T577 588L595 613ZM314 536Q298 549 293 556T282 578Q268 583 257 583Q235 583 215 567T179 523T154 460T144 387Q144 349 159 328T202 306Q224 306 244 322T281 366T307 429T317 501Q317 510 317 518T314 536ZM585 336Q636 336 668 303T700 216Q700 172 686 132T649 62T594 14T529 -4Q504 -4 483 6T446 34T421 76T412 128Q412 170 426 207T463 273T518 319T585 336ZM590 304Q544 304 513 247Q496 215 486 178T476 107Q476 71 491 49T533 26Q559 26 582 45T621 100Q634 130 642 166T651 231Q651 263 634 283T590 304Z"  />
<glyph unicode="&amp;" horiz-adv-x="906" d="M122 194Q184 59 339 59Q408 59 474 87T595 167Q642 212 667 260T692 356Q692 394 672 414T617 435Q595 435 573 428T532 409T503 383T492 353Q492 344 497 341T520 333Q548 326 548 300Q548 283 536 272T506 260Q483 260 468 278T453 326Q453 360 469 391T513 446T577 483T655 497Q697 497 742 482T841 432Q875 412 887 412Q903 412 903 441Q903 453 899 459T885 470Q868 477 863 482T857 499Q857 512 866 521T889 530Q910 530 919 514T929 460Q929 394 920 367T887 339Q877 339 865 344T831 363Q745 417 702 426Q716 406 721 388T727 343Q727 299 712 255T669 172T605 100T523 42T431 3T332 -11Q272 -11 222 7T136 59T80 138T59 238Q59 286 76 330T120 409T184 464T260 485Q292 485 315 468T339 426Q339 420 338 415Q398 475 422 506T446 557Q446 565 442 576Q438 589 438 597Q438 612 449 622T477 633Q494 633 503 622T513 590Q513 570 503 550T465 499T387 423T255 308Q251 305 232 289T191 254T148 217T122 194ZM115 223Q127 232 137 240T167 266Q183 280 199 294T232 322Q259 345 267 356T276 380Q276 399 263 410T228 422Q204 422 183 410T145 376T120 326T110 264Q110 254 110 249T113 230Q114 229 114 227T115 223Z"  />
<glyph unicode="&apos;" horiz-adv-x="315" d="M258 647Q280 647 280 628Q280 621 279 613T273 591T261 557T242 505Q231 479 221 449T205 395Q204 391 202 390T191 389Q183 389 183 394Q183 395 183 397T186 411Q190 439 192 468T197 532Q200 573 203 596T212 630T228 644T258 647Z"  />
<glyph unicode="(" horiz-adv-x="370" d="M399 683Q401 683 408 676T415 666Q415 663 410 659Q347 606 291 531T196 374Q166 309 151 235T135 82Q135 -108 221 -234Q223 -238 223 -239Q223 -242 217 -247T206 -253Q198 -253 167 -206Q70 -62 70 108Q70 275 159 430Q194 491 249 553T368 663Q396 683 399 683Z"  />
<glyph unicode=")" horiz-adv-x="370" d="M165 683Q169 683 179 671T204 636Q254 561 277 484T301 322Q301 188 244 63T81 -166Q65 -181 47 -196T14 -224T-13 -245T-28 -253Q-30 -253 -37 -246T-44 -236Q-44 -233 -39 -229Q99 -107 175 56Q204 120 220 195T236 348Q236 538 150 664Q148 668 148 669Q148 672 154 677T165 683Z"  />
<glyph unicode="*" d="M284 471Q258 469 233 467T179 462Q147 459 140 459Q113 459 113 488Q113 504 119 514T136 524Q137 524 143 523T165 517T209 505T286 484Q281 490 278 495T264 516Q259 523 256 528T248 539T238 552T225 570Q206 595 202 603T198 619Q198 630 211 639T240 648Q249 648 254 643T263 623Q265 614 271 590T288 523Q292 509 293 504T297 489Q305 504 316 530T342 585Q349 602 354 612T363 627T370 633T379 635Q393 635 406 624T420 601Q420 595 417 590T399 572Q398 571 384 557T340 514Q335 508 333 507T326 500Q316 489 314 487T308 482Q332 484 348 485T375 487T394 489T412 491Q429 493 437 493T451 494Q479 494 479 465Q479 448 473 439T456 429Q448 429 306 469Q320 449 328 437T341 418T351 405T360 392Q372 375 379 366T389 350T393 341T394 334Q394 323 381 314T352 304Q346 304 343 305T337 311T331 326T322 357L295 464Q280 433 269 409T250 368Q242 351 238 341T229 326T222 320T213 318Q199 318 186 329T172 352Q172 355 172 357T176 364T186 375T206 394L284 471Z"  />
<glyph unicode="+" d="M275 257V50H230V257H44V302H230V508H275V302H460V257H275Z"  />
<glyph unicode="&#x2c;" horiz-adv-x="222" d="M-81 -166Q-48 -160 -20 -147T28 -115T60 -75T72 -28Q72 6 41 24Q24 34 19 40T14 56Q14 63 18 71T28 85T42 96T57 100Q70 100 82 91T103 67T118 33T124 -8Q124 -59 92 -101T2 -165Q-4 -167 -14 -170T-34 -175T-54 -179T-67 -181Q-71 -181 -74 -177L-83 -169L-81 -166Z"  />
<glyph unicode="-" horiz-adv-x="241" d="M23 209L34 263H227L216 209H23Z"  />
<glyph unicode="." horiz-adv-x="222" d="M74 92Q83 92 92 88T108 76T120 59T125 41Q125 32 120 23T108 7T91 -6T73 -11Q64 -11 55 -7T39 5T27 22T22 40Q22 49 26 58T38 74T55 87T74 92Z"  />
<glyph unicode="/" horiz-adv-x="407" d="M445 642Q402 570 368 512T303 400T239 291T169 169T82 17T-31 -180H-72Q-1 -56 61 51T179 253Q234 349 289 445T402 642H445Z"  />
<glyph unicode="0" d="M326 642Q396 642 436 587T477 439Q477 393 469 344T447 248T413 158T369 84Q300 -10 204 -10Q131 -10 90 44T48 194Q48 240 56 289T78 386T111 475T155 548Q226 642 326 642ZM320 611Q288 611 257 581T202 497Q186 459 173 414T149 323T132 233T126 155Q126 90 146 56T204 21Q240 21 272 53T328 145Q343 184 356 228T378 317T393 402T399 474Q399 538 378 574T320 611Z"  />
<glyph unicode="1" d="M189 0H135L88 -1Q77 -2 69 -2T58 -2Q50 -2 50 4Q50 9 52 14T56 21Q57 22 58 22T62 23T71 24T89 26Q133 30 153 42T183 83Q188 100 197 138T217 223T239 321T259 417T273 492T279 531Q279 546 263 546Q252 546 229 541T180 526Q174 524 171 524Q167 524 167 530Q167 541 168 543T175 548Q218 566 266 588T374 643Q375 644 377 644Q379 644 384 639T389 631Q389 630 386 621Q381 610 371 568T347 468T319 343T292 219T273 119T265 67Q265 38 301 29Q311 26 328 24T357 22Q366 22 366 16Q366 -2 354 -2Q351 -2 346 -2T333 -1Q325 -1 319 -1T300 0T268 0T213 0H189Z"  />
<glyph unicode="2" d="M147 69H203L275 71Q302 71 319 72T347 81T368 102T391 141Q394 148 398 148Q403 148 409 146T415 141Q415 138 414 136Q409 126 408 123T405 115Q388 67 381 46T370 14Q367 3 364 1T349 -2Q344 -2 338 -2T324 -1Q310 -1 291 -1T249 0T204 1T164 2Q97 2 56 2T2 -1H-1Q-3 -1 -7 8T-12 23Q-12 26 -4 34Q2 39 17 54T55 90T102 136T151 185T196 230T230 264Q266 301 291 331T332 389T355 440T362 488Q362 534 336 560T265 586Q172 586 116 488H104V512Q104 522 106 527T117 545Q186 646 295 646Q364 646 403 607T443 500Q443 438 412 383T310 265Q294 251 265 227T202 174T134 118T72 69H147Z"  />
<glyph unicode="3" d="M135 516L136 541Q136 546 137 549T142 557Q173 598 216 621T304 644Q358 644 391 613T424 532Q424 467 355 416Q348 411 341 406T323 394T298 381T263 363H275Q335 362 369 327T404 228Q404 180 382 137T323 61T236 9T132 -11Q111 -11 92 -6T59 7T36 27T27 50Q27 64 41 77T69 91Q75 91 79 88T91 76Q126 35 187 35Q247 35 283 85Q301 111 311 144T322 209Q322 258 294 286T217 315Q191 315 165 305Q161 303 160 303T157 302Q155 302 152 308T148 319Q148 321 149 322T154 327T169 335T200 351Q274 389 307 426T341 509Q341 545 319 566T261 588Q199 588 145 516H135Z"  />
<glyph unicode="4" d="M460 230H461Q464 230 464 228L461 222L442 177Q439 173 434 173H359L327 4Q327 -1 320 -1L251 -6Q246 -6 246 -4L247 -1L284 173H228L73 172L36 171H21Q15 171 15 175Q15 176 16 181T18 192T20 203T22 211Q22 213 24 216T35 228T58 253T100 297Q129 327 156 356T212 416Q258 467 307 517Q321 533 336 548T366 580Q374 589 377 592T381 597T385 602T395 612Q411 630 417 636T425 643Q427 643 428 642Q431 639 437 635Q448 627 451 625T454 620V619L453 614L448 595Q432 526 413 434T369 227L460 230ZM295 227Q311 306 326 378T360 533Q312 477 272 433T198 352T135 285T77 227H295Z"  />
<glyph unicode="5" d="M180 471Q176 463 176 460Q176 455 190 449Q216 437 248 417T308 377Q401 305 401 209Q401 164 383 125T332 55T258 8T167 -10Q139 -10 115 -3T72 15T43 43T32 77Q32 95 43 106T72 118Q83 118 89 114T101 96Q129 40 202 40Q229 40 251 50T290 78T316 120T325 175Q325 219 308 251T248 317Q224 336 191 357T133 391Q122 396 119 398T116 403Q116 405 121 417L217 620Q223 633 225 635T232 637H245Q255 636 266 636T294 635T335 635T395 635Q426 635 437 636T454 643Q460 647 460 647Q471 647 473 647T476 644Q476 642 476 641T473 634L454 582Q450 571 446 565T432 556T404 553T352 552Q343 552 337 552T321 552T294 553T244 555H224L180 471Z"  />
<glyph unicode="6" d="M188 315L187 326L186 329Q186 335 202 345Q268 388 320 388Q346 388 368 378T407 350T432 307T441 252Q441 198 422 151T371 67T295 10T203 -11Q134 -11 96 34T57 162Q57 212 69 264T102 366T154 461T222 541Q246 564 277 584T341 620T405 644T463 653Q484 653 484 623Q484 613 477 611T444 609Q424 609 413 607T385 598Q272 548 202 407Q170 343 154 279T137 155Q137 91 158 57T217 23Q245 23 270 41T316 89T348 159T360 241Q360 286 337 314T278 343Q256 343 237 337T192 315H188Z"  />
<glyph unicode="7" d="M535 616Q536 614 536 612Q536 609 533 605Q531 603 470 516T288 252Q257 209 225 163T162 71Q146 48 136 31T118 1Q110 -14 106 -18T93 -22Q81 -22 70 -13T59 6Q59 9 59 11T64 19T77 35T103 66Q175 166 261 285T454 551Q438 551 416 551T372 552T334 552T314 552Q253 552 223 552T182 549Q173 547 167 544T156 535T144 516T127 483Q124 475 120 475Q114 475 109 478T103 485Q103 486 105 494Q110 503 119 536T142 616Q144 625 147 627T160 630H521Q527 630 528 630T532 624L535 616Z"  />
<glyph unicode="8" d="M330 314Q346 298 357 287T375 268T386 254T396 240Q418 203 418 162Q418 124 403 93T360 38T294 2T210 -11Q129 -11 83 27T37 134Q37 199 80 245T218 327Q191 354 174 373T147 409T134 441T130 476Q130 511 144 541T184 594T244 630T318 643Q383 643 423 608T464 514Q464 482 450 453T409 398Q391 382 369 369T306 337L330 314ZM288 354Q342 386 366 423T390 511Q390 558 369 585T309 612Q288 612 269 603T236 577T213 539T204 494Q204 477 207 463T220 434T245 399T288 354ZM236 309Q177 281 146 236T114 132Q114 84 143 52T218 20Q243 20 265 30T305 57T331 97T341 146Q341 164 336 182T318 219T285 260T236 309Z"  />
<glyph unicode="9" d="M340 324L341 313L342 310Q342 305 331 296Q302 275 269 264T205 252Q179 252 158 262T121 290T96 332T87 386Q87 439 105 486T156 568T232 623T323 644Q392 644 430 598T469 471Q469 411 453 351T409 235T341 132T254 52Q232 37 207 25T155 2T106 -13T64 -19Q54 -19 48 -11T41 9Q41 21 52 23Q55 24 59 24T89 24Q126 25 167 47T245 108Q276 141 303 186T349 281T380 382T391 479Q391 542 370 577T310 612Q250 612 206 539Q188 508 178 472T167 403Q167 356 189 326T247 296Q267 296 290 303T336 325L340 324Z"  />
<glyph unicode=":" horiz-adv-x="222" d="M74 92Q83 92 92 88T108 76T120 59T125 41Q125 32 120 23T108 6T91 -6T73 -11Q55 -11 39 6T22 41Q22 50 27 59T39 75T56 87T74 92ZM144 421Q153 421 162 417T178 405T190 388T195 370Q195 361 190 352T178 335T161 323T142 318Q133 318 125 322T109 334T97 351T92 369Q92 378 97 387T109 403T126 416T144 421Z"  />
<glyph unicode=";" horiz-adv-x="222" d="M-81 -166Q-48 -160 -20 -147T28 -115T60 -75T72 -28Q72 6 41 24Q24 34 19 40T14 56Q14 63 18 71T28 85T42 96T57 100Q70 100 82 91T103 67T118 33T124 -8Q124 -59 92 -101T2 -165Q-4 -167 -14 -170T-34 -175T-54 -179T-67 -181Q-71 -181 -74 -177L-83 -169L-81 -166ZM134 421Q143 421 152 417T168 405T180 388T185 370Q185 361 180 352T168 335T151 323T132 318Q123 318 115 322T99 334T87 351T82 369Q82 378 87 387T99 403T116 416T134 421Z"  />
<glyph unicode="&lt;" d="M51 261V298L467 502V451L112 280L467 107V56L51 261Z"  />
<glyph unicode="=" d="M51 350V395H467V350H51ZM51 162V207H467V162H51Z"  />
<glyph unicode="&gt;" d="M51 56V107L406 278L51 451V502L467 298V260L51 56Z"  />
<glyph unicode="?" horiz-adv-x="407" d="M252 159L244 149Q239 144 235 144Q227 144 209 149T176 160Q147 171 131 190T115 233Q115 250 120 265T141 296T182 334T250 385Q282 407 303 424T337 456T355 483T361 509Q361 540 332 561T261 582Q222 582 182 562Q174 558 170 557T161 556Q150 556 140 569T130 598Q130 607 138 615T159 629T188 639T223 643Q259 643 292 629T352 592T394 539T410 478Q410 431 366 387Q356 377 335 361T272 316Q217 278 197 256T176 213Q176 195 195 182T252 162V159ZM149 91Q157 91 165 86T181 74T194 58T199 41Q199 32 194 23T182 6T165 -6T147 -11Q139 -11 131 -6T115 6T102 23T97 40Q97 48 102 57T114 73T131 86T149 91Z"  />
<glyph unicode="@" horiz-adv-x="777" d="M477 289Q428 214 386 179T306 143Q280 143 265 158T249 200Q249 240 274 284T341 369T435 441T543 487Q549 501 556 506T577 512Q601 512 601 497Q601 495 601 494T600 488T595 477T586 455Q566 407 550 364T523 287T505 230T498 199Q498 182 522 182Q557 182 588 200T643 249T680 322T694 411Q694 455 679 491T637 552T570 592T482 606Q412 606 351 578T244 500T172 385T145 243Q145 191 162 150T212 81T290 37T396 21Q417 21 440 23T485 30T527 40T561 52Q563 53 566 53Q568 53 571 46T574 34Q574 30 558 23Q520 7 474 -1T379 -10Q307 -10 250 8T152 59T90 139T68 245Q68 327 101 399T192 526T326 611T490 643Q550 643 600 627T685 580T741 509T761 416Q761 344 727 283T629 183Q564 143 502 143Q439 143 439 182Q439 188 440 196T446 217T458 246T477 289ZM486 425Q460 425 431 407T376 360T333 298T316 236Q316 206 341 206Q361 206 393 232T459 304Q482 336 495 362T508 405Q508 425 486 425Z"  />
<glyph unicode="A" horiz-adv-x="629" d="M212 231Q169 154 149 110T128 48Q128 26 173 23Q194 22 198 22T202 17Q202 -2 191 -2Q186 -2 181 -2T167 -1Q152 0 128 0T81 1Q67 1 57 1T38 1T18 0T-9 -2H-12Q-21 -2 -21 4Q-21 15 -17 18T0 24Q12 25 21 30T41 46T65 78T100 132Q175 251 228 337T318 483T373 576T399 626Q401 631 406 633L410 634L425 638L442 643Q444 644 448 644Q453 644 455 635Q469 536 486 420T523 167Q531 115 536 86T549 43T567 26T597 22Q606 20 606 15Q606 -2 593 -2L491 1L370 -2Q360 -2 360 4Q360 19 367 23Q369 24 372 24T396 25Q426 27 438 36T451 68Q451 75 450 86T447 115T442 162T433 231H212ZM428 265Q420 329 411 397T391 540Q350 469 324 424T280 350T253 301T232 265H428Z"  />
<glyph unicode="B" horiz-adv-x="573" d="M134 634Q144 633 161 633T186 632Q193 632 207 632T239 633T273 634T303 636Q326 637 346 637T379 638Q452 638 494 605T536 515Q536 473 514 437T450 376Q436 367 418 360T369 343Q522 328 522 202Q522 165 508 130T469 68Q434 31 387 15T265 -1L166 0Q150 1 138 1T116 1Q109 1 96 1T67 1T40 0T22 -1Q13 -2 6 -2T-6 -2Q-14 -2 -14 4Q-14 14 -11 17T2 22Q29 25 44 29T68 46T85 82T103 149Q123 231 139 303T168 431T186 523T193 571Q193 594 180 601T125 610Q114 610 114 615Q114 634 124 634H134ZM259 348Q322 348 356 359T415 399Q455 445 455 510Q455 611 344 611Q307 611 296 608T282 592Q281 588 278 575T271 546T263 512T256 482Q245 436 238 403T225 348H259ZM219 323Q193 211 181 145T168 61Q168 41 184 34T242 26Q331 26 380 70Q406 93 422 129T438 202Q438 246 414 275T345 316Q335 318 327 319T305 321T272 322T219 323Z"  />
<glyph unicode="C" horiz-adv-x="610" d="M438 643Q467 643 505 639T602 626Q604 625 608 625Q610 625 611 625T620 629Q621 630 624 630Q635 630 635 623Q635 623 633 615Q629 604 625 587T616 550T609 512T605 481Q604 469 595 469Q583 469 581 472T579 497Q579 526 574 541T554 569Q531 589 498 599T426 609Q366 609 316 584T228 515T169 409T148 277Q148 220 163 173T207 92T275 39T362 20Q400 20 436 33T498 69Q512 81 522 96T543 135Q546 142 550 142Q556 142 561 139T567 133Q567 129 564 123Q559 112 556 103T549 84T541 59T531 24Q530 18 528 16T516 11Q474 0 437 -5T360 -11Q291 -11 236 8T142 65T84 156T63 277Q63 357 91 424T168 540T287 616T438 643Z"  />
<glyph unicode="D" horiz-adv-x="703" d="M95 1L11 -1Q6 -2 3 -2T-3 -2Q-12 -2 -12 5Q-12 15 -9 18T7 22Q59 25 76 54Q80 62 86 81T102 135T123 219T152 339Q165 397 174 439T190 510T199 553T202 574Q202 594 187 601T128 609Q120 610 118 611T115 615Q115 634 127 634H143Q148 634 158 634T180 633T204 632T225 632Q231 632 236 632T249 632T273 632T317 634Q338 635 354 635T378 635Q448 635 494 623T580 583Q629 548 655 495T681 377Q681 328 669 281T635 193T581 117T510 58Q459 27 398 13T255 -2L95 1ZM364 605Q342 605 328 602T303 591T287 567T275 528Q269 501 263 475T249 422Q232 352 218 293T194 188T179 112T174 70Q174 47 191 38T251 29Q387 29 474 100Q531 146 562 218T594 372Q594 483 534 544T364 605Z"  />
<glyph unicode="E" horiz-adv-x="574" d="M527 489Q528 500 528 511T529 530Q529 552 521 566T494 588T443 600T362 604Q303 604 297 602Q291 600 287 581Q285 569 283 557T276 533Q272 519 263 474T235 345Q305 345 344 346T405 353T436 372T458 411Q463 422 469 422Q482 422 482 415Q482 413 481 410T474 386Q466 356 461 337T452 301T445 268T438 228Q437 219 430 219Q415 219 415 228V233Q416 241 416 247T416 255Q416 281 404 293T363 309Q357 310 344 310T313 311T273 312T228 313Q213 241 204 197T190 128T184 90T182 69Q182 57 185 50T202 39T242 34T312 33Q359 33 386 39T436 61Q456 76 472 98T499 148Q504 162 509 162Q516 162 521 159T526 152Q526 148 523 137T515 112T504 80T490 47L481 26L477 15Q470 -2 460 -2H452Q447 -1 422 -1T361 0T286 1T214 1Q195 1 167 1T112 1T62 0T33 -1Q26 -2 21 -2T14 -2Q0 -2 -3 -1T-6 5Q-6 15 -3 18T10 22Q34 25 49 29T75 42T92 63T104 98Q121 171 138 250T170 396T193 510T202 566Q202 588 186 597T126 610Q113 611 113 617Q113 624 116 629T124 634H133Q142 633 172 633T244 632T333 631T425 631L577 632Q591 632 591 625Q591 619 588 613Q576 581 568 552T551 489Q549 480 548 478T541 476Q527 476 527 484V489Z"  />
<glyph unicode="F" horiz-adv-x="518" d="M527 518Q527 545 523 560T506 584T467 594T397 597Q382 597 366 597T335 596T311 595T297 594Q293 593 291 590T285 577T277 549T266 499Q258 461 252 435T243 391T236 361T231 337Q264 336 282 336T303 336Q356 336 383 340T425 357Q431 361 434 365T441 374T448 386T457 406Q460 413 466 413Q481 413 481 407Q481 405 480 399T472 373Q464 344 456 309T438 225Q436 214 434 211T427 208Q419 208 417 210T414 221Q414 251 411 268T390 292T333 301T224 302Q182 107 182 76Q182 59 191 47T216 31Q226 28 245 26T278 21Q288 21 290 20T293 15Q293 -2 284 -2Q280 -2 275 -2T263 -1Q255 -1 239 -1T201 0T157 1T113 1Q103 1 89 1T60 1T34 0T20 -1Q14 -2 9 -2T0 -2Q-8 -2 -8 5Q-8 15 -5 18T7 23Q32 26 48 31T75 47T93 77T108 127Q127 205 143 279T172 412T192 512T200 563Q200 586 185 596T125 611Q114 612 114 619Q114 634 124 634H143Q150 634 169 634T213 633T267 632T324 632T375 631T414 631L576 633H580Q589 633 589 626Q589 621 586 614Q581 602 576 584T565 548T556 513T549 486Q548 478 546 477T537 475Q526 475 526 486Q526 487 526 491T527 502V518Z"  />
<glyph unicode="G" horiz-adv-x="666" d="M432 292Q442 291 465 291T509 290Q520 290 535 290T566 290T593 291T610 292L647 293Q655 293 655 288Q655 278 653 275T644 270Q627 266 617 262T601 249T590 224T581 181L566 100Q562 79 560 65T557 26Q557 18 554 15T539 10L523 7L495 2Q453 -5 424 -8T365 -11Q295 -11 239 9T144 66T84 156T63 276Q63 324 74 370T107 456T159 529T228 585Q326 643 454 643Q509 643 607 625Q610 624 614 624Q619 624 627 628Q630 631 635 631Q644 631 644 625Q644 620 643 618Q640 609 637 593T631 558T626 519T622 479Q622 469 614 469Q603 469 600 471T597 480Q597 540 584 557Q576 567 559 576T518 593T468 605T418 610Q373 610 331 595T258 550Q232 527 212 496T177 429T154 354T146 276Q146 220 163 173T212 91T287 37T380 17Q429 17 455 33T490 87Q494 105 498 126T506 169T512 206T515 230Q515 249 499 256T432 267Q415 267 415 275Q415 292 425 292H432Z"  />
<glyph unicode="H" horiz-adv-x="740" d="M567 352Q576 392 584 430T598 498T607 549T611 575Q611 595 596 602T539 612Q531 612 529 613T527 617Q527 634 538 634Q543 634 548 634T580 633L695 632Q706 632 719 632T757 633Q765 634 772 634T782 634Q792 634 792 629Q792 612 775 612Q755 611 741 608T717 597T701 577T688 545Q685 536 680 511T666 449T649 369T629 278Q617 219 610 182T599 123T594 87T592 63Q592 40 606 32T662 22Q670 21 672 20T674 16Q674 -2 660 -2Q658 -2 652 -2T639 -1Q622 0 583 0T495 1Q481 1 468 1T433 -1Q428 -2 423 -2T414 -2Q403 -2 403 4Q403 15 406 17T423 21Q456 23 473 31T499 56Q507 70 513 97T531 175Q538 209 545 243T560 313H223Q199 207 187 145T174 68Q174 43 189 33T248 21Q259 21 259 14Q259 -2 243 -2Q242 -2 240 -2T220 -1Q212 -1 201 -1T178 0T153 1T132 1Q127 1 124 1T107 0Q99 0 80 0T29 -2H6Q-8 -2 -8 3Q-8 14 -5 18T10 22Q34 22 49 26T74 42T92 79T109 143Q129 230 144 303T171 432T188 524T194 573Q194 600 166 607Q158 609 145 610T125 612Q115 612 115 619Q115 634 128 634Q130 634 132 634T148 633L254 632L341 633Q349 634 355 634T365 634Q375 634 375 627Q375 618 372 615T358 612Q323 610 307 601T279 569Q278 567 277 563T273 546T265 513T253 456L235 373L231 352H567Z"  />
<glyph unicode="I" horiz-adv-x="333" d="M246 -2Q239 -1 221 -1T179 0T131 1T86 1L7 -1Q2 -2 -2 -2T-9 -2Q-20 -2 -20 4Q-20 16 -16 18T16 23Q51 26 68 37T93 71Q99 89 109 129T130 221T153 329T174 434T190 519T196 568Q196 591 180 600T125 612Q116 612 116 618Q116 634 128 634Q131 634 136 634T167 633L254 632Q267 632 283 632T317 632T348 633T371 634H377Q386 634 386 628Q386 617 381 614T351 609Q317 607 302 594T278 547Q267 504 256 455T234 355T213 256T196 169T185 102T180 65Q180 45 195 36T251 23Q264 21 266 20T268 14Q268 -2 256 -2H246Z"  />
<glyph unicode="J" horiz-adv-x="315" d="M123 634Q136 633 172 633T253 632H285Q291 632 305 632T334 633T361 634T374 634Q385 634 385 629Q385 611 369 610Q343 607 327 604T300 592T283 571T272 537Q257 467 246 415T226 318T209 233T192 145Q181 83 171 41T149 -32T121 -86T83 -131Q51 -163 12 -181T-66 -199Q-92 -199 -111 -186T-130 -155Q-130 -141 -116 -129T-85 -116Q-79 -116 -74 -118T-56 -128Q-26 -146 -4 -146Q11 -146 22 -140T44 -117T63 -75T83 -9Q90 20 101 71T124 184T149 310T172 430T188 523T195 570Q195 592 178 601T117 611Q102 611 102 618Q102 634 112 634H123Z"  />
<glyph unicode="K" horiz-adv-x="629" d="M314 364Q366 280 402 222T464 127T505 68T534 37T558 25T585 21Q596 20 596 14Q596 -2 583 -2L511 -1H473H434Q415 -1 400 -1T371 -2H365Q352 -2 352 5Q352 15 356 17T380 21Q421 25 421 43Q421 47 420 50T414 63T397 90T364 141Q353 157 325 203T252 324L216 297Q201 221 192 178T179 112T174 80T173 65Q173 44 186 35T233 22Q256 20 260 19T264 14Q264 -2 253 -2Q246 -2 241 -1L157 1L32 -1Q24 -2 19 -2T11 -2Q0 -2 -3 -1T-6 3Q-6 14 -1 16T33 23Q60 27 73 41T95 88Q114 168 132 249T164 399T187 514T196 574Q196 593 181 601Q176 603 173 604T165 607T151 608T124 611Q114 611 114 617Q114 623 116 627T123 632L257 631Q284 631 305 631T340 632H358Q368 632 368 628Q368 625 367 620T364 613Q362 611 358 611T333 609Q304 606 292 593T271 547Q265 523 261 504T252 461T240 408T223 333Q228 336 241 346T273 371T313 402T353 433T388 460T412 479Q475 529 500 554T526 592Q526 600 518 603T490 608Q472 610 468 610T464 616Q464 631 475 631H479L506 630H540H571L649 631H673H679Q685 631 685 627Q685 610 670 609Q661 607 651 604T628 593T596 573T550 541L314 364Z"  />
<glyph unicode="L" horiz-adv-x="518" d="M277 2Q238 2 198 2T123 1T61 0T20 -1Q15 -2 10 -2T2 -2Q-4 -2 -4 4Q-4 15 -2 18T11 21Q38 22 54 26T80 45T99 86T118 160Q133 227 148 296T175 423T194 521T201 569Q201 591 184 600T123 611Q113 611 113 617Q113 634 123 634H135Q138 634 152 634T186 633T224 632T255 632Q268 632 286 632T321 632T352 633T369 634H375Q382 634 382 628Q382 619 379 616T364 610Q344 608 332 606T310 598T296 586T286 567Q282 557 273 519T252 428T228 316T205 206T188 116T181 69Q181 45 203 40Q218 36 282 36Q344 36 379 46T439 79Q456 94 466 112T487 159Q490 168 493 168Q500 168 505 165T511 157Q511 147 503 123T475 47Q468 30 464 21T458 7T453 1T446 0Q445 0 444 0T439 0T425 0T399 1Q382 2 366 2T336 2H277Z"  />
<glyph unicode="M" horiz-adv-x="832" d="M295 633Q302 633 303 630T304 607Q305 590 307 572T316 519T335 424T368 266Q371 251 374 237T380 206T386 170T395 124Q408 143 421 163T455 219T511 310T602 458Q631 507 648 535T674 580T688 606T695 625Q699 634 709 634H727Q728 634 736 634T755 633T774 633T786 633Q791 633 799 633T817 633T834 633T845 634H861Q869 634 869 628Q869 611 856 611Q795 608 780 575Q777 569 775 564T771 547T764 512T751 446Q734 357 723 297T704 196T692 133T686 97T684 78T683 65Q683 42 699 33T758 22Q768 22 768 13Q768 -2 758 -2Q752 -2 740 -2T710 0Q692 1 684 1T661 1Q652 1 636 1T602 1T569 0T547 -1Q534 -2 524 -2T510 -2Q501 -2 501 5Q501 22 514 23Q541 26 557 30T583 45T599 73T612 122Q634 229 652 321T685 495Q687 507 689 519T694 542Q642 458 603 396T534 285T483 201T444 135T411 78T379 21Q377 16 376 15T373 12Q370 10 358 7T344 4Q339 4 338 14Q331 60 324 103T309 191T290 286T265 400Q260 422 254 454T236 540Q219 469 201 390T169 241T145 122T135 62Q135 36 156 30Q160 29 166 28T180 25T192 23T200 22L222 23Q229 23 229 16Q227 -2 218 -2Q213 -2 208 -2T195 -1L110 1L29 0Q15 -1 5 -1T-8 -2Q-18 -2 -18 3Q-18 20 -4 21Q20 24 34 28T59 45T78 82T98 150Q113 204 128 260T157 371T184 477T207 570Q199 592 181 600T122 609Q113 609 113 615Q113 634 125 634Q129 634 136 634T152 633L247 632Q253 632 264 632T280 633H295Z"  />
<glyph unicode="N" horiz-adv-x="721" d="M254 633Q267 633 269 632Q272 630 276 624T292 595Q311 558 324 533T351 484T381 429T424 352Q454 298 474 261T509 196T534 150T552 113Q575 223 591 301T616 432T630 516T634 566Q634 589 617 599T555 610Q538 610 538 617Q538 634 548 634H552L610 633Q623 632 636 632T664 632Q675 632 693 632T730 632T766 633T793 634H796Q804 634 804 628Q804 617 799 614T765 609Q742 605 729 600T706 579T688 536T668 459Q645 365 627 285T597 146T578 50T573 6Q573 -2 573 -4T568 -8Q567 -9 562 -10T550 -12T537 -15T530 -16Q526 -16 524 -12T512 20Q501 48 465 117T369 293Q354 319 340 345T311 398Q296 425 286 443T269 474T255 499T240 523Q213 403 195 322T165 188T150 109T145 71Q145 57 152 46T170 29Q174 27 177 27T188 25T207 23T240 20Q246 19 247 18T249 14Q249 -2 237 -2Q234 -2 229 -2T218 -1Q198 0 175 0T115 1Q98 1 82 1T41 0L-1 -2H-13H-15Q-21 -2 -21 4Q-21 20 -9 21Q23 25 42 30T73 50T94 89T114 158Q120 178 130 218T152 311T180 430T210 564Q202 578 194 586T177 600T154 608T121 610Q111 610 111 615Q111 634 128 634H142Q167 633 180 633T213 633H238H254Z"  />
<glyph unicode="O" horiz-adv-x="684" d="M421 643Q476 643 521 625T597 572T646 489T663 380Q663 299 635 228T559 103T445 20T304 -11Q209 -11 149 40Q107 76 85 130T62 250Q62 331 90 402T167 527T281 612T421 643ZM407 609Q354 609 307 580T224 500T169 382T148 238Q148 139 194 81T318 23Q372 23 420 53T506 140Q522 164 535 194T559 256T574 322T579 386Q579 492 534 550T407 609Z"  />
<glyph unicode="P" horiz-adv-x="555" d="M130 632Q163 632 188 632T236 632T280 633T324 635Q343 636 358 636T386 636Q573 636 573 485Q573 440 556 399T510 328Q441 259 313 259Q291 259 271 260T216 266Q214 255 213 249T211 235T207 219T202 195Q194 158 190 135T183 98T180 76T179 64Q179 41 199 32T270 21Q280 20 280 12Q280 -2 267 -2Q265 -2 260 -2T247 -1Q233 0 197 0T122 1Q110 1 103 1T85 1T58 0T11 -2H1Q-8 -2 -8 3Q-8 20 5 20Q43 22 63 32T92 62Q96 71 105 109T127 201T152 316T177 431T195 524T202 572Q202 605 152 608Q138 609 130 610T119 611T115 613T114 617Q114 632 124 632H130ZM220 290Q240 288 252 288T279 287Q342 287 382 302T448 351Q468 377 479 415T491 491Q491 522 478 548T442 587Q422 599 395 604T326 610Q304 610 298 606T287 586Q273 526 265 492T251 429T238 371T220 290Z"  />
<glyph unicode="Q" horiz-adv-x="685" d="M698 -118V-128V-129Q700 -134 692 -142Q660 -176 614 -196T522 -216Q501 -216 483 -214T440 -206T384 -189T305 -161Q247 -140 212 -130T151 -118Q133 -126 124 -128T105 -130Q73 -130 73 -105Q73 -86 99 -74T168 -62Q175 -62 182 -62T205 -64Q255 -46 296 -27T369 13Q342 5 321 2T280 -1Q231 -1 191 17T123 68T80 147T65 252Q65 332 93 403T169 527T282 612T420 643Q476 643 521 625T599 571T648 487T665 376Q665 279 621 194T496 48Q473 31 451 17T401 -10T334 -38T242 -72Q261 -77 268 -79T286 -84Q324 -97 363 -110T441 -136Q522 -163 575 -163Q591 -163 604 -161T630 -154T657 -141T692 -118H698ZM409 609Q356 609 309 580T226 501T171 383T150 239Q150 136 194 82T322 28Q407 28 470 92Q495 117 515 150T549 222T572 303T580 386Q580 492 535 550T409 609Z"  />
<glyph unicode="R" horiz-adv-x="610" d="M0 -2Q-9 -2 -9 5Q-9 16 -4 19Q-4 19 -3 19T1 19T13 21T35 25Q64 30 77 43T100 91Q107 120 117 165T139 261T162 364T181 460T195 534T201 572Q201 591 185 599T127 610Q113 611 113 617Q113 634 123 634Q125 634 129 634T155 632Q161 631 170 631T194 631Q217 631 240 631T299 633Q323 634 343 634T374 635Q424 635 456 628T512 603Q535 586 547 558T560 495Q560 425 517 375T393 304Q424 223 451 168T504 80T558 34T618 23Q626 23 627 23T629 19Q629 6 623 2Q617 -1 597 -3T556 -6Q519 -6 489 8T432 57T377 147T317 289Q306 288 300 288T287 288Q272 288 257 289T221 292Q207 224 199 183T186 119T180 84T179 65Q179 40 201 31Q207 28 211 27T221 24T237 22T265 20Q273 19 275 18T277 13Q277 -2 267 -2H261Q251 -2 233 -2T193 -1T152 0T118 1Q112 1 95 1T58 0T23 -1T2 -2H0ZM227 323Q244 319 257 318T291 316Q341 316 373 326T427 359Q450 382 463 418T477 490Q477 528 459 558T409 600Q397 605 376 607T326 610Q305 610 299 606T288 588Q283 573 268 507T227 323Z"  />
<glyph unicode="S" d="M458 630Q465 630 465 623Q465 621 463 613Q458 596 454 563T445 495Q445 486 436 486Q423 486 421 489T419 516Q419 568 391 586Q374 597 350 603T300 609Q277 609 257 601T223 577T200 542T191 499Q191 482 196 467T214 433T250 393T308 340Q342 311 364 289T399 246T417 207T422 164Q422 125 407 93T363 38T296 2T211 -11Q194 -11 179 -10T147 -7T113 -2T72 7Q67 8 63 8T56 9Q54 9 52 9T47 8H42Q35 8 35 18Q35 27 36 43T38 78T42 116T47 149Q51 172 53 176T63 181Q79 181 79 169L78 133Q78 82 111 57Q130 43 158 34T213 24Q240 24 264 33T306 59T334 98T344 145Q344 164 340 178T323 211T283 253T214 316Q186 340 168 360T138 398T122 435T117 474Q117 509 133 542T177 598Q206 621 240 632T319 643Q331 643 339 643T358 641T383 638T421 631Q426 630 430 630T440 629Q443 629 446 629T454 630H458Z"  />
<glyph unicode="T" horiz-adv-x="573" d="M604 502Q606 513 606 522T607 538Q607 563 598 575T565 590Q543 592 509 593T410 595Q381 459 361 364T328 205T310 109T304 64Q304 42 321 34T389 20Q400 20 400 14Q400 -2 388 -2H386Q377 -1 360 -1T322 0T277 1T233 1Q222 1 213 1T193 1T166 0T129 -2H119Q110 -2 110 4Q110 19 123 20Q152 22 169 25T197 37T214 59T226 97Q229 110 234 133T249 202Q263 267 275 329T302 457Q306 477 309 492T316 523T323 555T332 595Q257 595 214 593T147 582T110 555T84 503Q80 492 78 490T71 487Q55 487 55 496Q55 500 57 513T64 542T74 578T85 614L90 631Q92 642 100 642Q104 642 109 640Q115 637 122 636T144 634T182 633T245 632H598Q621 633 629 634T653 640Q656 641 661 641Q669 641 669 636Q669 630 662 602T644 539Q639 522 636 512T629 496T624 488T620 486Q604 486 604 495V502Z"  />
<glyph unicode="U" horiz-adv-x="666" d="M518 632L550 631H588L619 630H655H678Q701 631 717 631T736 632Q743 632 743 627Q743 616 739 614T708 607Q695 605 686 602T668 589T653 563T638 515T620 438T595 324Q584 271 575 234T557 169T538 122T515 85Q480 38 424 14T292 -11Q193 -11 141 34Q115 55 101 84T87 145Q87 154 87 161T89 180T94 211T104 262T121 342T146 460Q163 540 163 568Q163 603 120 607Q97 609 91 610T85 616Q85 634 95 634H106Q111 633 169 633T340 633Q352 633 352 627Q352 611 339 610Q308 605 291 601T264 584T246 547T228 477Q223 456 220 441T212 406T201 358T185 281Q178 249 174 230T168 199T166 178T165 160Q165 102 206 71T323 40Q448 40 498 136Q512 164 528 227T562 381Q577 464 583 505T590 561Q590 584 574 594T512 609Q499 610 499 616Q499 632 512 632H518Z"  />
<glyph unicode="V" horiz-adv-x="573" d="M245 296Q248 269 250 253T255 220T261 179T272 113Q324 202 363 269T429 385T475 467T503 521T517 555T521 576Q521 594 501 602Q496 604 493 605T484 607T470 609T447 611Q436 611 436 616Q436 634 447 634Q453 634 463 634T488 633L545 632Q556 632 571 632T603 632T634 633T661 634H664Q671 634 671 629Q671 612 654 609Q642 607 633 603T616 593T599 575T579 546Q528 466 475 379T375 216T297 84T257 10Q255 4 249 2Q227 -6 223 -7T216 -8Q214 -8 213 -7T210 -1T208 17T203 51Q199 80 195 110T187 170Q182 200 178 228T170 286Q159 364 152 413T140 492T132 539T125 568Q119 591 106 599T61 611Q50 611 50 618Q50 634 62 634Q67 634 77 634T100 633L188 632Q194 632 204 632T228 633H267L298 634H304Q312 634 312 628Q312 617 308 614T293 610Q248 608 231 597T213 558Q213 545 218 500T233 385L245 296Z"  />
<glyph unicode="W" horiz-adv-x="833" d="M679 634Q689 634 689 628Q689 614 676 611Q663 610 652 603T623 574T581 514T516 411Q508 400 502 389T488 366Q502 289 513 226T536 99Q543 112 564 150T612 235T664 330T710 413Q734 455 749 484T774 533T787 564T791 582Q791 595 782 600T750 608Q729 610 726 610T722 615Q722 634 733 634Q736 634 742 634T757 633L852 632Q857 632 867 632T894 633Q903 634 911 634T928 634Q938 634 938 629Q938 618 934 614T919 608Q900 605 888 600T860 575T818 514T747 396Q697 312 663 255T604 155T561 79T523 10Q519 3 518 1T514 -2L484 -8Q480 -8 480 3Q476 30 472 57T462 117T448 192T430 292Q420 275 414 265T403 246T393 230T381 210Q366 185 352 161T323 111Q316 99 310 88T297 68L283 42L266 12Q261 1 259 0T249 -4Q232 -8 225 -8Q223 -8 223 -6T220 8Q210 65 198 132T172 269T145 404T119 526L112 561Q109 575 106 583T96 597T79 604T52 609Q42 610 42 617Q42 634 53 634Q55 634 60 634T70 633L157 632Q163 632 176 632T203 632T230 633T245 634H256Q266 634 266 628Q266 610 252 609Q222 606 209 597T196 567Q196 559 197 551T200 532Q203 509 206 491T213 457Q216 439 218 424T223 394T229 362T236 321Q242 286 248 254T259 189Q261 177 262 168T266 149T270 126T276 93Q288 111 300 131T329 180T367 245T419 333Q407 399 401 437T390 498T382 536T375 569Q370 595 363 602T337 611Q329 612 327 613T324 620Q324 634 335 634H340L383 633L442 632H530L679 634ZM477 410Q569 557 569 585Q569 598 557 603T513 608Q478 608 465 600T452 570Q452 556 455 537Q458 523 460 509T465 480Q467 466 469 454T477 410Z"  />
<glyph unicode="X" horiz-adv-x="610" d="M307 -2Q297 -2 297 4Q297 20 313 20Q358 21 376 29T394 55Q394 62 391 74T380 109T358 167T323 257Q319 266 316 274T309 291Q284 264 270 249T243 221T219 193T184 153Q161 127 147 110T126 82T116 64T113 50Q113 20 187 20Q200 19 200 11Q200 -2 187 -2Q183 -2 175 -2T158 -1Q145 0 118 0T67 1Q58 1 46 1T22 1T1 0T-13 -1L-40 -2Q-49 -2 -49 6Q-49 15 -46 17T-25 25Q-13 26 12 43T76 96T169 187T295 318Q289 333 285 343T277 363T266 389T248 431Q239 451 230 472T213 515Q199 547 191 565T173 593T151 606T118 611Q109 612 109 617Q109 634 119 634H122Q126 634 141 634T176 633T215 632T246 632Q254 632 270 632T303 632T333 633T350 634H355Q362 634 362 628Q362 611 348 610Q324 608 314 607T297 604Q275 595 275 575Q275 569 281 550T297 503T322 441T353 368Q376 392 394 411T427 447T456 480T486 516Q511 547 519 561T528 586Q528 612 464 612Q455 612 452 613T449 620Q449 634 459 634Q463 634 466 634T487 633L593 632Q604 632 612 632T629 632T645 632T666 634H670Q679 634 679 626Q679 616 676 614T657 607Q642 602 626 592T579 554T499 476T365 340Q382 299 394 270T418 215T442 160T472 95Q481 74 489 61T508 39T530 27T561 21Q569 20 571 19T573 14Q573 -2 562 -2Q555 -2 545 -2T524 -1Q505 0 491 0T468 1H435L394 0L346 -1L307 -2Z"  />
<glyph unicode="Y" horiz-adv-x="555" d="M288 633Q294 634 299 634T307 634Q315 634 315 626Q315 617 312 614T299 610Q270 608 260 607T243 603Q226 596 226 578Q226 568 240 530T278 439Q288 416 294 401T305 376T313 357T319 341Q321 344 323 346T332 356T352 377T391 419Q398 427 403 433T418 450T444 480T490 534Q509 556 516 568T524 589Q524 601 508 606T453 612Q442 612 442 620Q442 634 452 634H464Q473 634 478 634T489 633T500 633T516 632H557Q564 632 588 632T655 634H658Q664 634 664 629Q664 618 662 615T650 609Q625 604 586 572T480 471Q465 454 453 442T430 417T408 393T382 364Q371 352 361 340T340 317Q330 304 327 298T320 273Q316 250 313 230T304 193Q292 133 288 106T283 66Q283 31 321 24Q328 23 335 23T363 21Q372 21 374 20T376 13Q376 -2 364 -2Q362 -2 357 -2T346 -1L244 1Q234 1 216 1T177 0T136 -1T101 -2Q92 -2 92 7Q92 20 105 21Q137 23 155 26T184 43T203 83T221 158Q226 181 232 204T244 254Q251 279 251 296Q251 304 244 327T223 381T193 450T158 524Q144 553 135 569T116 594T94 606T62 611Q55 612 55 619Q55 634 68 634L170 632L288 633Z"  />
<glyph unicode="Z" horiz-adv-x="573" d="M93 28Q181 29 253 32T383 41Q419 44 447 70T502 153Q506 163 508 166T514 169Q533 169 533 160Q533 155 529 141T517 106T501 62T482 17Q480 12 478 7T473 -3Q472 -8 467 -8Q462 -8 460 -7Q453 -5 440 -4T399 -2T329 -1T218 0L30 -1Q19 -2 10 -2T-8 -2Q-15 -2 -15 5Q-15 18 -7 26Q6 40 18 54T43 83Q101 152 148 207T239 314T327 418T425 532Q438 547 446 557T461 574T472 588T483 602Q427 601 379 600T294 596T235 590T206 584Q194 580 185 574T168 557T150 528T127 483Q124 476 120 476Q101 476 101 486Q101 490 102 495T105 505Q109 516 112 527T119 549Q124 559 127 571T135 598L142 619Q147 636 149 639T157 643Q159 643 160 643T168 639Q172 637 177 637T192 635T217 634T255 634H340Q355 634 376 634T421 633T465 633T500 633H545Q558 634 568 634T586 634Q595 634 595 628Q595 613 583 601Q577 595 566 582T532 542T474 474T385 370L93 28Z"  />
<glyph unicode="[" horiz-adv-x="370" d="M371 660L325 657Q299 655 290 654T277 651Q272 646 269 638T260 607Q253 574 245 538T229 459Q200 330 169 180T106 -135Q103 -149 100 -162T95 -190Q93 -200 93 -204Q93 -209 94 -211T99 -214T114 -216T145 -218Q161 -220 179 -220T218 -220Q225 -220 225 -225Q225 -234 222 -240T214 -246Q212 -246 209 -246T201 -245Q198 -245 190 -245T171 -244T149 -243T129 -243Q120 -243 107 -243T80 -244T55 -245T41 -246Q36 -247 32 -247T24 -248Q17 -248 17 -244Q17 -242 20 -229T30 -183Q43 -127 58 -56T90 93T124 252T156 410T185 555T209 676Q210 687 221 687Q223 687 226 687T233 686Q242 685 258 685T293 684Q321 684 350 684T391 686Q398 687 402 687T409 687Q418 687 418 683Q418 669 413 665T394 661L371 660Z"  />
<glyph unicode="\" horiz-adv-x="407" d="M189 642Q213 475 255 204Q262 154 269 109T283 19T297 -75T314 -180H273Q258 -77 246 3T225 151T206 275T188 390T169 507T147 642H189Z"  />
<glyph unicode="]" horiz-adv-x="370" d="M-10 -222Q-8 -222 -6 -222T1 -221L48 -218Q90 -217 96 -212Q101 -207 104 -199T112 -168Q120 -131 128 -95T144 -20Q152 15 162 62T184 163T207 274T230 385T250 487T267 574L278 629Q280 639 280 643Q280 647 279 649T274 653T258 655T228 657Q210 658 192 658T153 659Q147 659 147 664Q147 673 150 679T158 685Q160 685 163 685T171 684Q177 683 202 683T255 682Q262 682 274 682T298 683T319 684T332 685Q337 687 341 687T349 687Q356 687 356 683Q356 681 356 679T354 671Q341 616 325 542T291 385T255 213T219 43T188 -112T164 -237Q163 -248 152 -248Q150 -248 147 -248T141 -247Q130 -246 116 -246T82 -245Q49 -245 24 -245T-18 -247Q-29 -248 -32 -248T-37 -248Q-45 -248 -45 -244Q-45 -221 -28 -221L-10 -222Z"  />
<glyph unicode="^" d="M418 305L263 604L107 306H55L246 665H279L469 305H418Z"  />
<glyph unicode="_" horiz-adv-x="476" d="M402 -112V-158H-74V-112H402Z"  />
<glyph unicode="`" horiz-adv-x="499" d="M335 521Q337 517 337 517T338 515Q338 513 334 511L327 510H322Q319 510 314 515L199 621Q188 632 185 636T182 646Q182 654 186 657T206 664Q226 669 231 670T241 671Q246 671 249 668T260 653L335 521Z"  />
<glyph unicode="a" horiz-adv-x="462" d="M437 185L442 181Q448 175 448 173Q448 169 444 159T432 136T417 108T400 81Q371 36 342 13T287 -11Q270 -11 260 -1T249 26Q249 68 297 194Q280 168 260 139T218 84Q179 35 145 12T78 -11Q47 -11 28 9T9 65Q9 110 36 164T113 271Q166 328 229 366T359 421Q366 439 373 445T394 451Q419 451 419 436Q419 431 416 421T403 383Q389 342 374 293T345 201T324 127T316 88Q316 71 332 71Q352 71 379 102T433 185H437ZM292 350Q259 350 222 327T153 267T100 189T79 111Q79 87 89 74T118 60Q131 60 148 69T184 95T225 135T266 188Q292 225 307 260T322 322Q322 350 292 350Z"  />
<glyph unicode="b" horiz-adv-x="462" d="M230 703Q234 704 237 704T244 704Q252 704 252 697Q252 694 251 690T243 663Q238 648 234 632T225 599Q209 536 193 474T162 361T138 272T123 223Q177 326 236 379T356 432Q397 432 420 407T443 338Q443 299 429 258T391 178T335 105T267 45T193 4T119 -11Q84 -11 62 11T39 68Q39 79 40 89T44 116T54 160T72 232Q88 299 103 364T130 482T148 572T155 621Q155 638 145 646T107 662Q99 664 98 665T97 676Q97 680 99 680T111 683L136 688Q143 690 159 692T202 698L230 703ZM319 373Q288 373 251 345T182 275T128 185T106 96Q106 67 120 51T159 35Q197 35 238 70T315 167Q339 210 353 251T367 321Q367 373 319 373Z"  />
<glyph unicode="c" horiz-adv-x="351" d="M288 137L297 128Q301 124 301 120Q301 117 293 104T274 76Q209 -11 138 -11Q88 -11 58 26T28 127Q28 157 34 188T52 250T80 309T118 360Q182 432 263 432Q305 432 332 418T359 381Q359 364 350 354T327 344Q314 344 303 351T268 380Q247 398 234 398Q211 398 187 376T143 315Q123 274 111 229T99 149Q99 103 118 77T171 50Q200 50 230 73T286 136L288 137Z"  />
<glyph unicode="d" horiz-adv-x="462" d="M444 162V143Q444 130 440 120T423 90Q356 -13 302 -13Q287 -13 278 -4T269 21Q269 25 270 31T275 58T290 122T319 245Q300 206 287 180T261 135T238 99T210 65Q142 -12 91 -12Q55 -12 33 18T11 96Q11 126 20 160T45 228T83 295T131 355Q167 393 201 410T270 427Q293 427 309 422T342 403Q350 442 357 479T369 546T378 598T381 626Q381 655 337 653Q324 653 320 654T316 660Q316 677 331 680L346 684Q354 686 361 687T377 690Q388 692 398 694T420 699Q443 704 450 705T462 707Q473 707 473 698Q473 696 473 693T469 678T460 641T441 570Q437 557 430 523T412 443T390 347T369 250T352 166T341 113Q339 103 338 94T334 74Q333 67 333 65T332 61Q332 56 337 56Q345 56 357 64T383 88T411 122T437 162H444ZM269 394Q243 394 215 373T158 312Q143 291 129 265T105 212T89 160T83 116Q83 87 93 69T122 51Q134 51 151 61T187 88T225 129T262 180Q292 228 309 268T326 332Q326 362 311 378T269 394Z"  />
<glyph unicode="e" horiz-adv-x="370" d="M311 120L317 112Q319 110 319 107Q319 103 310 91T286 65Q210 -11 134 -11Q84 -11 57 24T29 122Q29 183 48 239T98 338T172 406T260 432Q305 432 332 410T359 352Q359 311 327 278T239 227Q224 222 212 220T186 215T154 212T108 209Q103 189 102 177T101 150Q101 101 120 75T176 49Q243 49 308 120H311ZM112 227Q157 232 186 241T240 267Q263 283 277 307T292 356Q292 376 279 389T243 402Q199 402 165 356T112 227Z"  />
<glyph unicode="f" horiz-adv-x="259" d="M315 410Q324 410 323 407L322 403L315 373Q314 368 306 368H186L146 143Q132 68 124 26T111 -40T103 -76T94 -102Q65 -181 21 -225T-73 -269Q-99 -269 -115 -260T-131 -234Q-131 -221 -120 -209T-96 -197Q-89 -197 -75 -207Q-63 -218 -55 -221T-35 -225Q-19 -225 -8 -215T14 -177T34 -104T55 15Q59 40 62 64T71 114L117 368H63Q56 368 56 371Q56 373 57 375L61 394Q62 398 63 398T73 401L125 408L128 416L140 464Q156 526 177 566T234 639Q304 703 375 703Q414 703 439 686T464 641Q464 606 421 606Q410 606 405 610T393 629Q379 660 341 660Q274 660 233 559Q229 548 225 536T217 507T207 467T194 410H315Z"  />
<glyph unicode="g" horiz-adv-x="388" d="M315 374Q323 357 325 344T328 313Q328 274 315 239T280 176T227 132T162 111Q145 101 138 92T130 71Q130 56 148 45Q153 42 157 40T168 34T187 26T222 11L271 -11Q336 -40 361 -63T387 -115Q387 -146 365 -174T304 -223T214 -256T107 -269Q28 -269 -20 -243T-68 -172Q-68 -129 -13 -91T145 -26Q107 -8 91 8T75 45Q75 62 87 77T128 113Q48 130 48 229Q48 271 60 308T92 373T140 417T199 433Q207 433 213 432T232 429L244 427Q276 425 299 424T351 420L398 415Q416 413 423 409T430 396Q430 382 424 373T407 363Q401 363 382 366L357 369L330 372L315 374ZM222 404Q202 404 181 385T143 335T115 267T104 195Q104 137 147 137Q180 137 214 184Q225 199 234 219T251 261T263 304T267 343Q267 372 255 388T222 404ZM170 -37Q2 -107 2 -160Q2 -175 12 -188T41 -211T84 -227T137 -233Q215 -233 272 -196Q293 -182 306 -165T319 -133Q319 -109 279 -88Q271 -84 266 -82T252 -76T230 -66T191 -47L170 -37Z"  />
<glyph unicode="h" horiz-adv-x="444" d="M132 691Q146 694 163 697T196 702T225 705T244 707Q255 707 255 698Q255 696 253 690Q249 681 240 650T218 576T193 484T169 389Q160 352 154 330T144 292T137 264T129 237Q183 333 239 384T347 435Q382 435 401 411T421 342Q421 286 402 224T352 111T285 26T216 -8Q203 -8 195 -3T187 12Q187 32 199 46T229 60H239Q244 59 248 59T255 59Q264 59 271 62T285 73T296 95T309 130Q330 198 340 243T350 317Q350 376 310 376Q278 376 243 346T176 267T118 154T80 23Q77 7 71 1T52 -6Q38 -6 28 1T18 20Q18 30 22 42Q31 75 45 128T74 244T103 372T129 491T148 584T156 632Q156 661 119 667Q108 668 108 675Q108 686 121 689L132 691Z"  />
<glyph unicode="i" horiz-adv-x="240" d="M215 127V108Q215 101 210 94T190 72Q111 -11 63 -11Q30 -11 30 24Q30 42 49 99Q56 116 62 133T74 170Q106 262 122 309T141 364Q142 366 142 370Q142 374 138 374Q127 374 106 359T46 309H41V325Q41 330 44 335T64 356Q98 391 132 411T189 432Q201 432 208 425T216 407Q216 399 213 388T202 355Q197 342 189 319T172 272T156 228T147 202Q142 188 137 174T127 144Q123 132 121 127T119 121T118 119T117 116Q107 90 104 78T100 58Q100 51 107 51Q114 51 126 57T152 75T182 99T209 127H215ZM207 653Q222 653 235 640T248 612Q248 596 235 583T205 569Q190 569 177 582T164 610Q164 626 177 639T207 653Z"  />
<glyph unicode="j" horiz-adv-x="240" d="M37 283V299Q37 304 43 312T64 338Q106 383 141 407T199 431Q223 431 223 407Q223 402 222 395T216 368T201 306T173 193Q168 172 163 150T152 104L132 9Q123 -32 115 -62T98 -116T79 -156T57 -190Q29 -225 -7 -246T-72 -268Q-92 -268 -106 -258T-121 -234Q-121 -222 -112 -212T-92 -201Q-87 -201 -84 -202T-69 -210Q-56 -217 -47 -219T-29 -222Q-4 -222 11 -193Q17 -182 20 -173T28 -151T36 -117T48 -61Q55 -26 65 16T86 105T108 199T131 290L140 326L144 343Q145 345 145 348Q145 354 138 354Q127 354 100 335T40 284L37 283ZM202 652Q216 652 229 639T242 612Q242 597 229 584T200 570Q185 570 173 582T160 610Q160 625 173 638T202 652Z"  />
<glyph unicode="k" d="M161 320Q260 431 352 431Q393 431 414 407T435 336Q435 260 372 234Q361 230 353 228T333 223T303 219T253 215Q263 166 275 133T308 68Q345 9 379 9Q404 9 404 30Q404 35 403 37T397 50Q395 56 395 60Q395 71 406 80T429 90Q443 90 451 81T459 57Q459 42 451 28T429 4T397 -13T358 -20Q294 -20 253 35T184 214H139L137 204L124 136L111 70L105 38Q102 21 100 15T96 4Q88 -10 69 -10Q53 -10 42 -1T30 20Q30 25 31 31T37 52Q40 61 42 70T48 92T55 122T64 163Q78 226 88 273T107 358T121 425T133 483T144 540T157 605L160 623Q161 628 161 631T162 637Q162 655 136 658Q134 659 134 659T128 659Q123 660 121 660T111 661Q102 661 102 668Q102 678 104 680T119 685Q182 698 209 703T241 708Q252 708 252 699Q252 697 249 688Q247 683 243 668T234 631T222 582T208 527Q188 445 169 354L161 320ZM143 230Q147 230 150 230T159 231T177 233T209 237Q262 242 299 253T350 280Q365 296 365 339Q365 383 326 383Q313 383 297 380T265 370T234 354T205 335Q179 313 165 289T143 230Z"  />
<glyph unicode="l" horiz-adv-x="241" d="M221 139V125Q221 118 217 112T193 86Q145 35 113 12T58 -11Q43 -11 34 0T24 28Q24 42 27 60T41 116Q43 124 48 144T59 192T74 250T89 310Q97 342 105 373T121 436Q143 524 152 568T162 628Q162 644 152 650T106 663Q101 664 101 668Q101 682 114 683L140 688Q190 697 212 700T248 704Q257 704 257 697Q257 695 255 687Q251 676 243 645T223 569T197 472T170 366T143 261T120 170T104 105T98 76Q98 66 107 66Q121 66 151 86T215 139H221Z"  />
<glyph unicode="m" horiz-adv-x="758" d="M41 283V298Q41 307 44 314T60 340Q125 434 179 434Q194 434 204 424T215 398Q215 382 202 337T159 202Q188 249 219 288T293 373Q351 434 399 434Q421 434 434 420T447 380Q447 369 446 359T439 329T425 277T399 191Q477 315 536 373T641 432Q664 432 677 416T691 372Q691 363 690 352T684 326T674 290T658 237Q655 227 647 203T631 153T615 106T605 79Q602 70 602 68Q602 64 606 64Q610 64 621 72T648 94T682 127T720 167H725V149Q725 141 723 138T709 118Q689 92 667 69T622 27T581 -1T549 -12Q539 -12 534 -6T528 9Q528 15 530 26T539 56Q546 80 551 94T561 125T573 165T592 231Q601 261 607 281T616 314T621 335T622 350Q622 371 605 371Q591 371 574 361T537 332T497 287T458 230Q446 210 432 183T404 126T379 68T361 18Q356 3 350 -3T333 -9Q319 -9 308 -1T296 17Q296 22 297 27T300 38Q305 53 309 67T318 95Q324 115 330 134T343 172Q388 317 388 351Q388 374 368 374Q341 374 309 346T244 271T185 164T139 38Q131 11 126 3T108 -6Q91 -6 80 1T68 20Q68 23 68 25T69 31T73 44T80 67Q84 81 92 106T108 162T126 224T142 282T154 325T159 345Q159 356 145 356Q125 356 105 341T56 290L50 283H41Z"  />
<glyph unicode="n" horiz-adv-x="518" d="M40 273V292Q40 303 42 309T54 334Q77 380 108 407T169 434Q186 434 196 425T207 402Q207 396 206 388T200 366T190 333T174 284Q170 272 167 264T161 246T153 221T140 181Q171 235 204 281T271 360T333 413T386 432Q440 432 440 361Q440 347 438 333T430 293T413 227T381 119Q376 104 373 92T370 77Q370 75 372 75Q377 75 389 85T418 112T451 148T483 187H488V172Q488 166 487 162T484 153T476 139T462 119Q419 59 380 24T316 -11Q292 -11 292 16Q292 23 293 32T300 55Q334 167 352 241T370 339Q370 368 345 368Q323 368 297 342T231 254Q215 230 199 201T168 143T141 84T119 30Q110 7 102 -2T78 -11Q67 -11 60 -5T52 10Q52 17 64 59T96 167Q119 241 132 290T146 348Q146 358 136 358Q119 358 98 338T45 272L40 273Z"  />
<glyph unicode="o" horiz-adv-x="425" d="M273 433Q330 433 362 394T395 284Q395 230 375 174T319 75Q285 33 243 11T153 -11Q94 -11 62 26T30 130Q30 191 49 246T102 342T180 408T273 433ZM257 402Q194 402 145 290Q127 248 116 200T104 113Q104 71 120 46T163 20Q230 20 279 125Q299 168 310 215T322 303Q322 350 305 376T257 402Z"  />
<glyph unicode="p" horiz-adv-x="462" d="M60 345Q59 344 56 344Q52 344 52 350V363Q51 366 52 367T60 370L130 386Q132 397 133 402T137 422L142 447L145 469Q149 492 160 501T194 510Q220 510 220 493Q220 487 215 470Q210 453 206 436T198 402Q244 412 275 416T333 420Q383 420 411 397T440 331Q440 306 433 275T412 211T382 147T343 88Q311 47 273 26T192 5Q171 5 154 8T118 20Q110 -20 104 -57T92 -124T84 -175T81 -203Q81 -226 95 -234T157 -247Q170 -248 170 -254Q170 -270 154 -270H148L110 -269L38 -268Q29 -268 14 -268T-16 -268T-44 -269T-65 -270H-67Q-74 -270 -74 -263Q-74 -250 -62 -249Q-40 -245 -28 -241T-7 -225T8 -187T25 -117Q35 -71 45 -23T68 83T94 208T125 359L60 345ZM191 371Q174 295 164 246T147 167T139 121T137 96Q137 34 195 34Q257 34 307 127Q333 174 348 224T364 311Q364 345 341 360T267 376Q250 376 234 375T191 371Z"  />
<glyph unicode="q" horiz-adv-x="462" d="M167 -270Q153 -270 153 -264Q153 -255 156 -252T170 -246Q193 -242 206 -239T226 -229T238 -210T249 -175Q253 -159 257 -140T266 -103T273 -68T279 -39Q288 4 296 45T313 128Q287 98 270 81T234 50Q207 29 179 18T125 7Q81 7 56 37T30 118Q30 173 53 229T112 330T194 403T284 432Q337 432 381 389L408 424Q413 429 414 429Q416 429 417 428L422 426Q429 423 429 419V417Q422 391 411 338T387 220T362 84T339 -48T322 -154T315 -212Q315 -229 325 -236T361 -247Q371 -249 373 -250T375 -257Q375 -270 364 -270H352Q339 -269 323 -269T294 -269H276H228L186 -270H167ZM288 391Q269 391 248 378T205 343T164 291T130 231T107 166T98 104Q98 73 108 56T139 39Q158 39 180 53T226 90T270 144T308 206T335 270T345 328Q345 356 329 373T288 391Z"  />
<glyph unicode="r" horiz-adv-x="370" d="M28 285V307Q28 315 30 320T40 338Q96 433 153 433Q191 433 191 395Q191 384 189 370T183 334T170 277T148 190Q146 179 144 170T138 149L156 188L184 250Q207 301 234 344T281 406Q311 433 344 433Q371 433 386 418T402 376Q402 351 389 337T356 322Q339 322 333 329T327 359Q327 378 315 378Q291 378 239 297Q223 271 208 244T179 185T149 116T118 32Q110 9 101 0T75 -10Q61 -10 52 -4T42 13Q42 17 42 20T45 33T52 59T67 109Q77 139 85 174Q90 191 94 206T103 238Q112 270 117 291T126 326T131 347T133 357Q133 364 126 364Q94 364 37 285H28Z"  />
<glyph unicode="s" horiz-adv-x="296" d="M226 432Q257 432 276 419T295 384Q295 350 265 350Q256 350 239 358Q219 369 205 373T178 377Q153 377 139 366T124 335Q124 327 126 319T135 300T153 273T185 233Q211 200 222 177T234 132Q234 105 220 79T183 33T129 1T67 -11Q-1 -11 -1 42Q-1 76 27 76Q35 76 44 74T68 63Q107 43 131 43Q151 43 165 56T180 89Q180 98 177 107T167 129T149 157T120 195Q93 229 83 249T73 289Q73 315 86 340T121 386T170 419T226 432Z"  />
<glyph unicode="t" horiz-adv-x="277" d="M262 141V125Q262 119 262 117T257 111Q250 107 245 100Q188 47 144 19T75 -10Q46 -10 46 32Q46 47 48 67T57 117T74 188T100 288L122 371H61Q56 371 56 375Q56 378 57 380L60 394Q62 400 63 401T72 402L133 410L159 500Q163 515 166 519T179 525Q189 527 201 528T220 530Q233 530 233 519Q233 517 233 516T231 508L203 412H324Q332 412 332 409V405L326 375Q325 372 322 370T317 370H191L167 288Q149 223 138 184T122 124T115 92T113 73Q113 64 121 64Q135 64 169 83T256 141H262Z"  />
<glyph unicode="u" horiz-adv-x="500" d="M473 185V161Q473 153 471 149T461 132Q442 103 428 84T400 50T375 25T347 5Q325 -9 306 -9Q269 -9 269 31Q269 42 271 53T282 90T311 163T364 295Q340 263 315 231T265 168T217 112T175 67Q135 26 109 9T61 -9Q28 -9 28 33Q28 75 68 180Q74 195 83 218T103 264T122 308T136 338Q139 345 139 347Q139 349 137 349Q135 349 126 342T104 324T75 299T44 269H40L35 283Q33 289 33 289Q33 292 45 306T80 345Q124 392 151 412T197 433Q207 433 213 427T220 413Q220 409 218 402T208 372T181 302T131 173Q117 136 109 112T101 81Q101 73 108 73Q120 73 140 87T185 124T237 179T289 244T337 314T375 381Q390 413 397 422T415 432Q427 432 437 425T448 407Q448 402 446 397T436 372Q428 353 418 326T397 267T376 205T357 147T343 104T338 82Q338 70 349 70Q371 70 403 102T464 185H473Z"  />
<glyph unicode="v" horiz-adv-x="444" d="M33 268V283Q33 289 34 292T44 305Q65 330 89 353T135 394T176 421T206 432Q215 432 221 426T227 409Q227 403 226 397T222 380T213 350T197 301Q184 261 172 223T151 152T137 97T132 67Q132 55 141 55Q147 55 157 58T180 68T206 82T231 99Q260 121 286 151T331 214T361 279T372 340Q372 351 363 364Q355 373 353 379T350 390Q350 405 365 418T397 432Q415 432 426 417T437 377Q437 348 425 315T391 244T336 169T263 93Q208 42 164 16T89 -11Q61 -11 61 28Q61 44 64 66T76 120T97 193T128 289Q133 304 135 313T139 326T141 332T142 335Q142 339 137 339Q132 339 122 333T97 318T68 295T37 268H33Z"  />
<glyph unicode="w" horiz-adv-x="666" d="M28 273V288Q28 294 36 305T72 344Q90 362 109 378T146 406T178 425T202 432Q210 432 216 426T222 410Q222 402 217 384T197 319Q162 211 147 151T131 68Q131 57 139 57Q148 57 168 73T215 118T275 187T343 275Q345 286 348 296T354 317Q360 340 364 354T371 378T376 394T383 406Q400 432 426 432Q443 432 452 423T461 399Q461 371 426 329Q415 295 402 252T378 170T360 101T352 67Q352 56 362 56Q375 56 394 66T436 92T480 131T522 177Q554 219 571 261T588 341Q588 353 580 364Q572 375 570 379T568 391Q568 406 582 419T614 432Q631 432 642 417T653 378Q653 327 615 260T505 120Q476 91 448 67T395 25T348 -1T312 -11Q298 -11 290 0T281 29Q281 38 284 57T295 101T311 158T331 223Q252 110 190 50T92 -11Q78 -11 70 2T61 36Q61 54 66 85T81 154T104 237T134 329Q137 336 137 342Q137 347 133 347Q130 347 119 340T92 322T61 298T32 273H28Z"  />
<glyph unicode="x" d="M441 140V121Q441 113 440 108T432 90Q408 42 379 16T321 -10Q300 -10 285 5T256 56Q254 61 252 69T245 90T233 125T215 180Q182 136 162 110T130 67T110 43T93 25Q73 5 58 -4T26 -13Q3 -13 -10 3T-23 48Q-23 74 -11 89T22 104Q37 104 40 81Q43 60 53 60Q60 60 75 71T111 103T156 151T205 209Q190 258 180 289T162 337T148 360T134 367Q117 367 103 344T81 282H78L69 293Q66 297 66 301Q66 309 70 327T79 360Q91 393 111 412T156 432Q178 432 191 418T218 369Q219 365 221 359T226 341T236 309T252 257Q293 310 321 343T370 396T404 423T432 431Q474 431 474 381Q474 367 472 355T465 337Q461 331 452 326T435 321Q430 321 428 324T424 337Q421 360 410 360Q399 360 385 350T344 316Q316 290 297 270T262 230Q270 199 282 164T308 98Q328 54 348 54Q383 54 435 140H441Z"  />
<glyph unicode="y" horiz-adv-x="444" d="M257 32Q278 69 291 95T314 140T330 175T342 208Q354 243 359 269T365 319Q365 348 347 372Q339 383 337 387T335 398Q335 412 346 421T374 431Q395 431 408 414T422 368Q422 320 394 244T311 68Q283 18 258 -22T210 -95T165 -153T120 -197Q34 -271 -67 -271Q-109 -271 -133 -257T-158 -219Q-158 -205 -148 -196T-124 -187Q-105 -187 -94 -207Q-86 -219 -78 -223T-48 -227Q-6 -227 36 -210T117 -158Q203 -84 203 20Q203 45 200 78T192 147T179 217T164 281Q151 328 138 345T104 362Q90 362 78 354T55 333T38 302T30 265Q29 260 28 259T20 258Q13 258 12 259T10 264Q10 290 19 321T43 376Q59 402 81 416T129 431Q169 431 193 395T233 278Q239 248 243 215T251 150T255 88T257 32Z"  />
<glyph unicode="z" horiz-adv-x="444" d="M149 107Q192 107 227 83Q234 78 239 75T251 65T271 47T307 15Q342 -17 364 -17Q372 -17 378 -13T384 -2Q384 2 377 12Q369 24 369 32Q369 43 378 50T402 58Q418 58 428 48T439 23Q439 9 430 -4T406 -27T372 -43T331 -49Q296 -49 259 -30T170 33Q152 48 141 54T118 60Q104 60 96 53T74 19Q64 0 48 0Q34 0 25 9T15 32Q15 45 23 59T46 84Q54 91 62 94T92 106Q125 146 149 175T195 228T236 275T282 325Q292 338 304 350Q291 351 283 351T255 354Q238 356 221 357T186 361Q175 363 165 363T148 364Q118 364 102 343Q96 334 89 321T78 300Q75 290 69 290Q64 290 60 293T55 298Q55 301 58 312T72 352Q83 383 87 393T94 408Q101 421 110 426T136 431Q143 431 149 431T169 428T208 422T281 410Q296 408 304 407T317 404T327 403T338 401L344 407Q360 421 369 426T389 432Q403 432 412 424T421 403Q421 383 402 369T351 350Q343 342 338 337T328 328T321 320T313 311Q286 280 258 248T204 185Q194 174 187 166T173 149T158 130T139 107H149Z"  />
<glyph unicode="{" horiz-adv-x="388" d="M436 668Q434 666 431 666T414 664Q385 661 362 648T328 614Q315 594 309 564Q300 519 291 476T274 387Q264 339 251 312T211 259Q188 239 166 230T105 216Q156 209 185 182T214 110Q214 100 214 93T210 68T199 19T179 -71Q173 -97 170 -112T165 -137T163 -151T162 -163Q162 -192 181 -210T234 -230Q245 -230 245 -235Q245 -251 232 -251Q170 -251 135 -225T100 -154Q100 -145 100 -138T104 -113T114 -64T134 27Q140 53 143 68T148 92T150 106T151 119Q151 159 127 179T49 203Q35 204 35 211Q35 225 40 229T59 234Q90 234 117 244T161 271Q173 284 180 296T194 330T209 390T230 497Q236 527 240 547T250 581T260 604T274 625Q321 687 432 687Q439 687 439 683L436 668Z"  />
<glyph unicode="|" d="M282 633V-158H228V633H282Z"  />
<glyph unicode="}" horiz-adv-x="388" d="M-46 -232Q-44 -230 -41 -230T-24 -228Q5 -225 28 -212T62 -178Q75 -160 81 -128Q90 -83 99 -40T116 49Q126 97 139 124T179 176Q202 196 224 205T285 220Q233 227 205 254T176 326Q176 335 176 342T180 367T191 416T211 507Q217 535 220 550T225 574T227 587T228 599Q228 628 209 646T156 666Q145 666 145 672Q145 687 158 687Q220 687 255 661T290 589Q290 580 290 573T288 557T283 535T275 499Q274 493 273 488T271 475T266 452T256 409Q250 381 247 366T242 342T240 329T239 317Q239 238 341 233Q355 232 355 225Q355 211 350 207T331 202Q300 202 273 192T229 165Q217 151 210 140T196 108T181 47T160 -61Q154 -92 149 -112T140 -145T130 -169T116 -189Q69 -251 -42 -251Q-51 -251 -49 -247L-46 -232Z"  />
<glyph unicode="~" d="M477 340Q465 296 436 267T358 237Q328 237 301 248T244 276Q226 287 204 294T165 302Q129 302 111 284T77 233L46 248Q50 264 58 282T81 315T117 341T168 351Q198 351 224 341T274 316Q300 300 321 293T362 286Q393 286 412 304T446 355L477 340H477Z"  />
<glyph unicode="&#xA0;" horiz-adv-x="240" />
<glyph unicode="&#xA1;" horiz-adv-x="314" d="M181 264Q176 236 172 215T165 170T159 119T150 48Q137 -66 129 -125T113 -203Q100 -235 50 -235Q22 -235 22 -209Q22 -200 27 -176T42 -119T63 -45T89 36Q104 79 113 107T128 157T141 202T155 257Q156 262 157 263L159 264L163 265L180 267L181 264ZM193 428Q201 428 209 424T225 412T237 396T242 379Q242 370 238 361T226 344T209 332T191 327Q174 327 158 343T141 377Q141 395 158 411T193 428Z"  />
<glyph unicode="&#xA2;" d="M365 252L371 247Q374 244 374 241Q374 231 359 208T324 163Q301 140 282 127T241 109L224 17Q222 9 221 8T217 6H204H196L195 8L196 11L217 107Q194 107 179 112T151 128Q131 145 119 175T107 241Q107 274 114 309T134 379T164 443T203 494Q247 538 309 549L321 619Q323 627 329 627H343Q348 627 348 627T349 625V623L347 617L333 549H341Q379 549 403 536T428 502Q428 485 420 475T399 464Q393 464 388 465T377 471T364 484T344 506Q339 511 336 513T327 519L254 164Q280 169 308 191T362 252H365ZM303 519Q266 508 241 469Q227 448 216 422T195 367T181 311T176 261Q176 176 229 166L303 519Z"  />
<glyph unicode="&#xA3;" d="M320 308Q328 308 329 308T331 305V304Q331 303 331 303T330 301L326 277Q325 270 315 270H203V249Q203 224 200 203T191 164T175 127T149 89Q165 87 177 85T205 80T245 69T313 50Q347 41 363 41Q379 41 389 50T400 72Q400 79 398 82T388 95Q381 103 381 115Q381 129 391 138T415 148Q429 148 438 135T448 98Q448 74 438 54T410 17T368 -8T317 -17Q294 -17 267 -12T191 8Q158 18 142 22T106 30Q74 -6 43 -6Q29 -6 21 1T13 22Q13 51 38 69T110 90Q133 122 133 186Q133 210 132 228T125 270H46Q40 270 39 270T37 273Q37 275 38 277L43 301Q44 306 45 307T53 308H123Q122 319 122 327T122 341Q122 416 138 468T190 559Q208 578 230 594T275 622T323 639T369 646Q417 646 447 621T478 557Q478 503 433 503Q418 503 409 511T400 532Q401 543 401 545T401 550Q401 571 384 583T337 595Q298 595 269 577T225 527Q202 477 202 349Q202 343 202 333T203 308H320Z"  />
<glyph unicode="&#xA4;" d="M408 487L417 495L421 500Q424 503 426 503Q427 503 430 500T438 493T445 485T448 480Q448 479 444 476Q441 473 438 470T432 463L382 414Q418 372 418 317Q418 290 410 267T383 219Q386 216 390 212T400 203Q405 198 410 193T421 181Q427 175 427 175Q427 175 432 171Q438 164 445 158Q448 155 448 154Q448 153 445 149T438 141T431 134T426 131Q424 131 421 134L408 147L359 196Q313 164 262 164Q209 164 165 196Q149 180 134 165T103 134Q100 131 98 131Q97 131 94 134T86 141T79 148T76 153Q76 155 80 158L132 211L141 219Q105 264 105 317Q105 369 141 414L124 431Q107 446 92 463L80 476Q76 479 76 480Q76 481 79 485T86 493T93 500T98 503Q100 503 103 500Q111 491 120 482T137 465Q142 460 146 456T156 446L165 437Q188 454 211 462T262 470Q289 470 312 462T359 437L408 487ZM261 418Q241 418 223 410T192 389T171 357T163 317Q163 296 170 278T191 246T223 224T261 216Q282 216 300 224T331 245T352 277T360 317Q360 338 353 356T332 388T300 410T261 418Z"  />
<glyph unicode="&#xA5;" d="M437 379Q442 379 442 377V375L441 372L436 349Q435 345 432 345H326Q321 338 319 336T311 326Q304 317 300 312T294 301T290 289T286 273L285 267H416Q420 267 420 265Q420 264 419 262L414 237Q413 233 409 233H278Q264 161 257 118T249 63Q249 40 262 31T317 21Q325 21 326 20T328 15Q328 -2 317 -2Q315 -2 311 -2T301 -1L216 1Q208 1 193 1T161 0T126 -1T96 -2Q88 -2 88 6Q88 20 99 21Q120 22 133 24T156 33T170 49T181 76Q181 77 202 170Q204 180 206 189T211 208L216 233H84Q80 233 80 235V236L81 238L86 263Q87 267 90 267H224Q228 287 228 295Q228 300 228 304T227 312T224 324T217 345H101Q97 345 97 347V350L103 375Q104 379 107 379H205Q176 458 158 504T126 573T97 603T61 611Q55 612 55 618Q55 634 67 634H69Q76 634 89 634T115 633T140 632T157 632L259 633Q264 634 268 634T276 634Q283 634 283 626Q283 610 269 610Q249 608 239 607T223 603Q217 600 213 593T208 578Q208 568 219 530T251 439Q261 412 267 396T276 369T281 353T285 340L291 348Q305 366 319 383T349 419Q356 427 361 433T374 451T397 481T438 534Q455 556 461 568T468 590Q468 601 454 606T407 612Q398 612 398 619Q398 634 408 634H418Q427 634 432 634T441 633T451 633T466 632H504Q509 632 531 632T593 634H595Q601 634 601 629Q601 618 599 615T588 609Q572 605 554 593T510 555T447 487T354 379H437Z"  />
<glyph unicode="&#xA6;" d="M282 633V314H228V633H282ZM282 146V-158H228V146H282Z"  />
<glyph unicode="&#xA7;" d="M255 15Q297 -43 297 -95Q297 -129 281 -160T238 -215T176 -253T104 -268Q84 -268 66 -264T34 -251T12 -233T3 -210Q3 -194 15 -182T44 -170Q52 -170 56 -173T75 -194Q83 -205 102 -211T141 -218Q186 -218 212 -197T239 -140Q239 -124 235 -108T219 -71T190 -23T144 42Q106 92 92 124T77 185Q77 219 94 253T141 309Q153 317 166 324T208 346Q206 350 200 358Q177 391 169 410T161 453Q161 489 176 522T218 579T279 619T352 634Q393 634 419 619T446 581Q446 566 436 554T412 541Q404 541 394 551Q363 580 314 580Q293 580 275 574T242 558T220 533T212 502Q212 489 215 478T229 448T263 399T323 320Q359 272 374 240T389 176Q389 73 255 15ZM227 324Q142 287 142 217Q142 192 154 165T193 98Q195 96 206 81T239 36Q323 77 323 149Q323 165 319 180T305 215T275 261T227 324Z"  />
<glyph unicode="&#xA8;" horiz-adv-x="499" d="M250 608Q263 608 276 595T289 568Q289 554 275 541T247 528Q235 528 222 540T209 565Q209 580 222 594T250 608ZM401 608Q415 608 427 595T440 568Q440 554 426 541T398 528Q386 528 373 540T360 565Q360 580 373 594T401 608Z"  />
<glyph unicode="&#xA9;" horiz-adv-x="758" d="M406 635Q471 635 529 610T630 541T699 439T725 315Q725 248 700 190T630 88T527 19T401 -6Q333 -6 274 19T172 88T103 190T77 317Q77 383 102 441T172 542T277 610T406 635ZM396 604Q339 604 288 581T198 519T138 427T115 315Q115 255 137 202T199 110T290 48T401 25Q461 25 513 47T603 109T664 202T687 317Q687 377 665 429T603 520T510 581T396 604ZM436 513Q451 513 473 511T514 506Q537 502 538 502Q540 502 544 504Q545 505 548 505Q557 505 557 499Q557 496 555 492Q550 477 546 455T539 416Q538 406 530 406Q521 406 520 408T518 427Q518 442 515 450T504 466Q476 488 430 488Q395 488 366 474T316 435T283 374T271 298Q271 232 304 192T392 152Q466 152 497 217Q500 223 504 223Q517 223 517 215Q517 214 515 208Q512 201 506 183T496 150Q494 145 493 144T484 141Q462 135 438 132T390 128Q306 128 258 173T210 298Q210 345 227 384T274 452T345 497T436 513Z"  />
<glyph unicode="&#xAA;" horiz-adv-x="296" d="M315 369L317 366Q324 361 324 359Q324 354 314 336T294 302Q275 276 256 262T219 247Q208 247 200 254T192 272Q192 283 196 298T211 344Q197 326 189 316T176 300T167 289T158 280Q124 247 90 247Q69 247 56 260T43 295Q43 325 62 358T111 422T181 475T259 507Q267 526 284 526Q304 526 304 515Q304 512 302 506T294 483Q287 462 278 434T261 379T248 332T242 308Q242 301 249 301Q260 301 274 319T306 369H315ZM221 460Q202 460 181 447T141 412T110 367T97 322Q97 294 116 294Q130 294 150 311T190 351T222 401T236 445Q236 460 221 460Z"  />
<glyph unicode="&#xAB;" horiz-adv-x="425" d="M281 230Q283 225 284 222T288 214T294 201T304 179Q311 164 320 144T338 106T351 74T357 59Q357 57 350 52T338 47Q336 47 333 50T324 62Q318 71 313 77T301 92T284 115T255 153Q233 182 222 196T203 217Q196 224 196 227Q196 231 199 234T216 247Q236 262 261 283T313 327T362 371T402 408Q408 412 409 412Q412 412 419 406T427 397Q427 394 420 386Q410 376 403 366Q383 343 371 329T347 301T323 275T291 241Q290 240 288 238T281 230ZM114 230Q116 225 117 222T121 214T127 201T138 179Q144 165 153 145T170 106T184 74T190 59Q190 57 183 52T171 47Q169 47 166 50T157 62Q151 71 145 80T131 98Q128 102 127 104T124 107T122 109T117 116Q106 130 96 144T74 172Q63 187 50 202Q47 206 46 207T44 210T42 212T37 217Q30 224 30 227Q30 231 33 233T50 247Q67 260 92 281T145 325T196 371T236 408Q242 412 243 412Q246 412 253 406T261 397Q261 393 226 353T114 230Z"  />
<glyph unicode="&#xAC;" d="M367 167V345H44V390H412V167H367Z"  />
<glyph unicode="&#xAD;" horiz-adv-x="241" d="M23 209L34 263H227L216 209H23Z"  />
<glyph unicode="&#xAE;" horiz-adv-x="758" d="M406 635Q471 635 529 610T630 541T699 439T725 315Q725 248 700 190T630 88T527 19T401 -6Q333 -6 274 19T172 88T103 190T77 317Q77 383 102 441T172 542T277 610T406 635ZM396 604Q339 604 288 581T198 519T138 427T115 315Q115 255 137 202T199 110T290 48T401 25Q461 25 513 47T603 109T664 202T687 317Q687 377 665 429T603 520T510 581T396 604ZM358 303Q347 255 341 220T334 176Q334 164 344 159T383 152Q393 152 393 144Q393 134 384 134H381L292 135Q286 135 282 135T272 135T257 135T231 134H226Q217 134 217 141Q217 150 225 152Q241 154 250 157T266 168T276 191T288 235Q314 350 325 404T337 469Q337 478 329 482T295 488Q284 488 284 494Q284 507 293 507L312 506Q317 505 333 505Q347 505 360 505T392 507Q406 508 417 508T435 508Q546 508 546 424Q546 383 520 354T447 311Q479 227 508 190T570 153Q576 153 578 154H582Q587 154 587 149Q587 138 578 135T539 131Q508 131 485 148T439 205Q434 214 430 221T422 239T411 264T396 302Q391 301 389 301T384 301Q383 301 378 301T364 303H358ZM363 327Q371 325 375 324T388 323Q427 323 450 338Q468 349 479 372T491 420Q491 452 472 470T417 488Q407 488 404 486T399 477Q397 471 395 462T389 437T379 395T363 327Z"  />
<glyph unicode="&#xAF;" horiz-adv-x="499" d="M431 540Q430 535 427 535H198Q194 535 194 537V541Q194 542 195 544L201 569Q202 574 206 574H435Q439 574 439 572Q439 572 437 564L435 556L431 540Z"  />
<glyph unicode="&#xB0;" d="M307 647Q335 647 359 637T401 610T429 568T439 516Q439 488 429 464T401 423T359 395T305 385Q276 385 252 395T209 422T181 464T171 517Q171 545 181 569T210 610T253 637T307 647ZM304 604Q271 604 248 579T225 516Q225 478 248 453T305 428Q340 428 363 453T386 517Q386 555 363 579T304 604Z"  />
<glyph unicode="&#xB1;" d="M275 292V102H229V292H44V337H229V527H275V337H460V292H275ZM44 0V45H460V0H44Z"  />
<glyph unicode="&#xB2;" horiz-adv-x="333" d="M127 684Q127 693 138 705Q186 759 248 759Q292 759 321 732T350 663Q350 640 342 619T309 572T242 510T131 422Q144 421 151 421T164 421Q200 421 224 421T263 423T286 425T298 429Q304 435 319 459Q323 466 328 466Q333 466 337 464T342 460Q342 459 342 458T341 454T337 444T329 425Q327 420 325 415T318 391Q313 377 311 375T300 372H269Q253 373 244 373T232 373L98 372Q66 372 65 373Q63 374 60 378T57 385Q57 386 57 387T61 391T71 400T91 417Q104 427 123 444T161 480T199 517T228 547Q257 579 270 604T283 655Q283 683 267 699T223 716Q197 716 175 702T139 662H126L127 684Z"  />
<glyph unicode="&#xB3;" horiz-adv-x="333" d="M142 678V695Q142 700 147 707Q167 731 196 745T256 759Q294 759 317 740T341 689Q341 650 295 619Q289 615 279 610T246 593Q284 592 307 570T330 509Q330 480 316 455T277 410T220 379T152 367Q122 367 100 378T78 406Q78 416 88 424T111 433Q118 433 126 424Q150 400 186 400Q220 400 242 427T265 496Q265 525 247 542T200 559Q183 559 168 553Q165 552 161 552Q158 552 155 556T151 565Q151 569 159 572Q170 576 183 583T210 597T235 612T251 624Q276 647 276 675Q276 695 263 708T230 721Q211 721 194 711T155 678H142Z"  />
<glyph unicode="&#xB4;" horiz-adv-x="499" d="M281 516Q274 511 273 510T270 509Q268 509 266 510L260 511Q257 512 257 514Q257 515 257 515T263 521L385 652Q396 663 400 666T412 670Q414 670 425 669T444 665Q465 659 465 649Q465 643 462 639T447 627L281 516Z"  />
<glyph unicode="&#xB5;" horiz-adv-x="518" d="M394 301Q374 271 357 247T322 200T285 155T242 106Q213 75 192 54T154 19T127 1T105 -5Q97 -5 91 -3T73 4Q59 -74 51 -117T37 -177Q31 -196 21 -202T-15 -209Q-35 -209 -35 -191Q-35 -186 -31 -172T-17 -128T10 -49T55 74L82 149Q94 183 102 204T115 241T126 268T138 297Q146 317 149 327T153 339Q153 344 150 344Q147 344 138 337T115 319T88 294T61 267H57L51 279Q50 280 50 282Q50 286 65 304T100 346Q142 393 168 412T213 432Q235 432 235 411Q235 404 233 395T226 368T209 321T180 243Q163 196 152 167T135 121T127 95T125 83Q125 75 134 75Q154 75 189 102T266 180Q290 208 308 232T344 283T378 342T417 420Q423 432 430 432Q443 432 458 422T473 402Q473 397 471 390T463 368Q460 361 446 323T401 208Q387 172 380 151T368 118T362 99T361 87Q361 73 375 73Q395 73 427 105T491 188H496V165Q496 160 496 157T493 150T487 138T474 117Q439 61 399 25T327 -11Q311 -11 302 -2T292 24Q292 34 296 51T310 95T337 165T381 267L394 301Z"  />
<glyph unicode="&#xB6;" horiz-adv-x="740" d="M577 687Q576 676 576 667T575 646T575 617T574 572Q609 572 629 573T659 578T671 591T675 615Q678 639 699 639Q714 639 723 631T733 609Q733 563 678 555Q662 553 640 552T574 550Q573 522 573 500T573 455Q573 389 573 338T573 241T574 152T575 57Q576 37 576 22T576 -4Q576 -66 574 -102T564 -163Q553 -200 529 -221T471 -243Q444 -243 427 -229T409 -192Q409 -174 422 -161T452 -147Q458 -147 463 -148T477 -154Q491 -161 500 -161Q536 -161 541 -104Q543 -76 544 -41T545 48Q528 48 505 47T460 46T421 45T398 44Q329 44 273 63T177 119T114 205T92 317Q92 440 167 509T378 578Q385 578 395 578T421 577Q453 575 483 575T545 573Q544 615 544 644T541 687H577ZM543 156V269V352V411V501L544 550H511Q483 550 466 549T437 546T421 540T411 528Q409 524 408 513T406 477T405 412T404 312Q404 225 405 170T408 105Q411 88 422 82T461 73Q471 72 491 72T544 72L543 156Z"  />
<glyph unicode="&#xB7;" horiz-adv-x="222" d="M131 330Q140 330 149 326T165 314T177 297T182 279Q182 270 177 261T165 244T148 232T129 227Q120 227 112 231T96 243T84 260T79 278Q79 287 84 296T96 312T113 325T131 330Z"  />
<glyph unicode="&#xB8;" horiz-adv-x="499" d="M232 7Q207 -22 192 -41T176 -64Q176 -66 178 -68T193 -80Q217 -98 217 -118Q217 -135 208 -150T184 -178T151 -198T113 -206Q95 -206 84 -199T72 -178Q72 -170 77 -163T91 -156Q94 -156 97 -157T109 -163Q125 -172 139 -172Q155 -172 165 -163T176 -139Q176 -120 145 -103Q135 -97 132 -93T128 -83Q128 -73 144 -60Q169 -37 187 -19T214 7H232Z"  />
<glyph unicode="&#xB9;" horiz-adv-x="333" d="M191 374H156L126 373H106Q97 373 97 379Q97 389 101 391T127 395Q154 397 165 403T182 427Q185 437 190 459T202 510T215 567T227 622T235 666T239 689Q239 697 231 697Q226 697 218 695T180 684Q176 682 172 682Q166 682 166 692Q166 699 174 702Q184 706 200 712T233 726T268 741T297 755Q304 759 307 759Q310 759 314 755T319 748L317 742Q314 735 308 710T293 650T277 578T262 506T251 448T246 417Q246 405 258 400T303 393Q313 392 313 387Q313 373 300 373H286L270 374H209H191Z"  />
<glyph unicode="&#xBA;" horiz-adv-x="278" d="M211 515Q248 515 269 491T291 423Q291 388 279 356T245 300T196 262T138 247Q100 247 79 270T57 335Q57 372 69 404T102 461T151 500T211 515ZM200 491Q185 491 170 476T143 436T122 383T114 325Q114 300 123 286T146 271Q162 271 177 285T206 323T227 376T235 435Q235 461 226 476T200 491Z"  />
<glyph unicode="&#xBB;" horiz-adv-x="425" d="M150 224Q74 386 74 394Q74 396 81 401T93 406Q95 406 98 403T107 391Q117 377 126 364T147 337Q155 328 162 319T176 300Q180 295 181 294T183 291T185 288T190 282Q200 268 209 257T228 237Q235 230 235 226Q235 223 233 221T215 207Q196 192 170 171T117 126T66 81T29 47Q24 42 21 42Q19 42 12 48T4 57Q4 59 15 73T46 109T89 158T140 213Q141 214 143 216T150 224ZM317 224Q315 229 314 232T310 240T304 253T293 275Q287 289 278 309T261 347T247 379T241 394Q241 396 248 401T260 406Q262 406 265 403T274 391Q277 387 278 386T279 383T281 380T287 373L314 337Q325 323 335 310T357 282Q363 274 369 267T381 251Q384 247 385 246T387 244T389 242T394 237Q401 230 401 226Q401 223 398 220T381 207Q364 194 338 173T285 128T234 82T195 47Q190 42 187 42Q185 42 178 48T170 57Q170 59 181 73T212 108T255 157T306 213L317 224Z"  />
<glyph unicode="&#xBC;" horiz-adv-x="777" d="M169 254H134L104 253H84Q75 253 75 259Q75 269 79 271T105 275Q132 277 143 283T160 307Q163 317 168 339T180 390T193 447T205 502T213 546T217 569Q217 577 209 577Q204 577 196 575T158 564Q154 562 150 562Q144 562 144 572Q144 579 152 582Q162 586 178 592T211 606T246 621T275 635Q282 639 285 639Q288 639 292 635T297 628L295 622Q292 615 286 590T271 530T255 458T240 386T229 328T224 297Q224 285 236 280T281 273Q291 272 291 267Q291 253 278 253H264L248 254H187H169ZM649 648Q599 563 564 503T501 395T449 306T399 220T341 118T264 -17H227Q373 236 468 401T610 648H649ZM720 141Q726 141 726 138Q726 136 725 135L724 133L711 106Q707 102 702 102H657L639 5Q637 0 630 -1L585 -4H581Q577 -4 577 1V2L599 102L558 103Q546 103 529 103T494 103T461 102T436 101H433Q427 101 427 106Q427 113 429 122T435 133Q495 191 553 251Q583 279 613 311Q628 325 642 338T669 366Q681 379 684 382T691 385Q695 385 701 380L710 374Q714 373 714 369V368Q714 367 714 367T713 365L710 354L707 337Q698 298 688 249T664 140L720 141ZM565 140Q583 140 589 140T609 139Q611 148 620 189T644 305Q622 281 598 257T552 210T511 170T478 140H565Z"  />
<glyph unicode="&#xBD;" horiz-adv-x="777" d="M169 254H134L104 253H84Q75 253 75 259Q75 269 79 271T105 275Q132 277 143 283T160 307Q163 317 168 339T180 390T193 447T205 502T213 546T217 569Q217 577 209 577Q204 577 196 575T158 564Q154 562 150 562Q144 562 144 572Q144 579 152 582Q162 586 178 592T211 606T246 621T275 635Q282 639 285 639Q288 639 292 635T297 628L295 622Q292 615 286 590T271 530T255 458T240 386T229 328T224 297Q224 285 236 280T281 273Q291 272 291 267Q291 253 278 253H264L248 254H187H169ZM621 648Q576 572 542 513T478 403T422 308T368 214T308 110T236 -17H199Q330 208 425 373T582 648H621ZM499 309Q500 314 502 318T510 331Q532 357 560 371T620 385Q665 385 693 358T722 289Q722 266 714 245T681 198T615 136T504 48Q579 48 616 49T663 52Q671 54 674 59T692 86Q696 92 701 92Q706 92 710 90T715 86Q715 84 715 83T710 72Q705 61 703 53T695 30Q689 10 688 7T683 1Q681 -1 676 -1T642 -1H604H452Q448 -2 446 -2T442 -2Q438 -2 434 2T430 11Q430 14 436 18Q443 24 456 35T484 60T515 89T547 119Q578 149 599 172T632 213T650 248T655 281Q655 308 639 325T595 342Q569 342 548 328T512 288H498L499 309Z"  />
<glyph unicode="&#xBE;" horiz-adv-x="777" d="M126 558V575Q126 580 131 587Q151 611 180 625T240 639Q278 639 301 620T325 569Q325 530 279 499Q273 495 263 490T230 473Q268 472 291 450T314 389Q314 360 300 335T261 290T204 259T136 247Q106 247 84 258T62 286Q62 296 72 304T95 313Q102 313 110 304Q134 280 170 280Q204 280 226 307T249 376Q249 405 231 422T184 439Q167 439 152 433Q149 432 145 432Q142 432 139 436T135 445Q135 449 143 452Q154 456 167 463T194 477T219 492T235 504Q260 527 260 555Q260 575 247 588T214 601Q195 601 178 591T139 558H126ZM633 648Q582 560 531 474T429 301Q383 220 338 141T247 -17H210Q265 79 308 153T386 287T447 393T499 483T545 564T593 648H633ZM713 141Q719 141 719 138Q719 136 718 135L717 133L704 106Q700 102 695 102H650L632 5Q630 0 623 -1L577 -4H574Q568 -4 570 2L592 102L551 103Q539 103 522 103T487 103T454 102T429 101H426Q420 101 420 106Q420 109 421 111L423 120Q423 126 425 130Q426 132 427 132T432 137Q453 157 486 190T553 257T618 322T662 366Q674 379 677 382T684 385Q688 385 694 380Q697 377 703 374Q707 373 707 370Q707 369 707 368T705 358T699 332T687 282Q683 265 676 230T657 140L713 141ZM558 140Q575 140 581 140T602 139Q605 152 607 161T611 180T615 200T621 227Q625 245 627 257T631 277T634 292T637 305Q615 281 592 257T547 212T506 172T471 140H558Z"  />
<glyph unicode="&#xBF;" horiz-adv-x="407" d="M154 256L163 267Q168 272 172 272Q179 272 198 267T231 256Q260 245 276 226T292 183Q292 165 287 150T266 119T225 81T157 30Q125 7 104 -10T70 -42T52 -69T46 -95Q46 -110 54 -123T75 -146T107 -161T146 -167Q182 -167 224 -147Q232 -142 236 -141T245 -140Q256 -140 266 -153T276 -182Q276 -191 268 -199T248 -214T218 -224T183 -228Q148 -228 115 -214T55 -177T13 -125T-3 -63Q-3 -17 41 29Q52 39 73 55T135 100Q162 119 180 133T210 160T226 182T231 202Q231 240 155 254L154 256ZM260 428Q268 428 276 423T292 411T305 394T310 376Q310 368 305 360T293 344T276 331T259 326Q251 326 242 331T226 343T213 359T208 376Q208 385 212 394T224 410T241 423T260 428Z"  />
<glyph unicode="&#xC0;" horiz-adv-x="629" d="M212 231Q169 154 149 110T128 48Q128 26 173 23Q194 22 198 22T202 17Q202 -2 191 -2Q186 -2 181 -2T167 -1Q152 0 128 0T81 1Q67 1 57 1T38 1T18 0T-9 -2H-12Q-21 -2 -21 4Q-21 15 -17 18T0 24Q12 25 21 30T41 46T65 78T100 132Q175 251 228 337T318 483T373 576T399 626Q401 631 406 633L410 634L425 638L442 643Q444 644 448 644Q453 644 455 635Q469 536 486 420T523 167Q531 115 536 86T549 43T567 26T597 22Q606 20 606 15Q606 -2 593 -2L491 1L370 -2Q360 -2 360 4Q360 19 367 23Q369 24 372 24T396 25Q426 27 438 36T451 68Q451 75 450 86T447 115T442 162T433 231H212ZM428 265Q420 329 411 397T391 540Q350 469 324 424T280 350T253 301T232 265H428ZM464 720L469 715Q471 711 471 710Q471 708 466 706L461 704Q457 702 455 702Q453 702 453 702T447 706L316 797Q305 805 302 809T298 821Q298 827 302 831T319 839L333 844Q344 849 348 850T356 851Q360 851 363 849T372 838L464 720Z"  />
<glyph unicode="&#xC1;" horiz-adv-x="629" d="M212 231Q169 154 149 110T128 48Q128 26 173 23Q194 22 198 22T202 17Q202 -2 191 -2Q186 -2 181 -2T167 -1Q152 0 128 0T81 1Q67 1 57 1T38 1T18 0T-9 -2H-12Q-21 -2 -21 4Q-21 15 -17 18T0 24Q12 25 21 30T41 46T65 78T100 132Q175 251 228 337T318 483T373 576T399 626Q401 631 406 633L410 634L425 638L442 643Q444 644 448 644Q453 644 455 635Q469 536 486 420T523 167Q531 115 536 86T549 43T567 26T597 22Q606 20 606 15Q606 -2 593 -2L491 1L370 -2Q360 -2 360 4Q360 19 367 23Q369 24 372 24T396 25Q426 27 438 36T451 68Q451 75 450 86T447 115T442 162T433 231H212ZM428 265Q420 329 411 397T391 540Q350 469 324 424T280 350T253 301T232 265H428ZM405 710Q403 709 397 705T388 701Q386 701 385 702T381 704Q379 705 377 706T375 709Q375 710 378 713T385 718L519 834Q529 842 533 845T543 848Q550 848 577 839Q596 832 596 822Q596 811 579 803L405 710Z"  />
<glyph unicode="&#xC2;" horiz-adv-x="629" d="M212 231Q169 154 149 110T128 48Q128 26 173 23Q194 22 198 22T202 17Q202 -2 191 -2Q186 -2 181 -2T167 -1Q152 0 128 0T81 1Q67 1 57 1T38 1T18 0T-9 -2H-12Q-21 -2 -21 4Q-21 15 -17 18T0 24Q12 25 21 30T41 46T65 78T100 132Q175 251 228 337T318 483T373 576T399 626Q401 631 406 633L410 634L425 638L442 643Q444 644 448 644Q453 644 455 635Q469 536 486 420T523 167Q531 115 536 86T549 43T567 26T597 22Q606 20 606 15Q606 -2 593 -2L491 1L370 -2Q360 -2 360 4Q360 19 367 23Q369 24 372 24T396 25Q426 27 438 36T451 68Q451 75 450 86T447 115T442 162T433 231H212ZM428 265Q420 329 411 397T391 540Q350 469 324 424T280 350T253 301T232 265H428ZM558 718Q560 714 560 713Q560 710 555 706T548 701Q546 701 544 703T531 717Q523 726 499 752T447 808Q419 786 393 767T347 732T315 709T300 700Q298 700 294 704T290 711Q290 714 293 717T308 733Q330 755 347 773T379 806T407 837T436 870Q447 882 458 882Q464 882 468 881T475 876T484 861T498 831Q502 822 507 813T518 792Q523 783 527 774T536 757L550 730L558 718Z"  />
<glyph unicode="&#xC3;" horiz-adv-x="629" d="M212 231Q169 154 149 110T128 48Q128 26 173 23Q194 22 198 22T202 17Q202 -2 191 -2Q186 -2 181 -2T167 -1Q152 0 128 0T81 1Q67 1 57 1T38 1T18 0T-9 -2H-12Q-21 -2 -21 4Q-21 15 -17 18T0 24Q12 25 21 30T41 46T65 78T100 132Q175 251 228 337T318 483T373 576T399 626Q401 631 406 633L410 634L425 638L442 643Q444 644 448 644Q453 644 455 635Q469 536 486 420T523 167Q531 115 536 86T549 43T567 26T597 22Q606 20 606 15Q606 -2 593 -2L491 1L370 -2Q360 -2 360 4Q360 19 367 23Q369 24 372 24T396 25Q426 27 438 36T451 68Q451 75 450 86T447 115T442 162T433 231H212ZM428 265Q420 329 411 397T391 540Q350 469 324 424T280 350T253 301T232 265H428ZM601 816Q605 813 605 811Q605 809 602 806L592 792Q572 767 558 752T534 727T516 715T497 712Q485 712 472 717T439 737Q424 747 414 753T397 763T384 768T371 769Q334 769 295 717Q294 713 291 713Q289 713 286 716L281 720Q277 723 277 725Q277 728 285 739T313 775Q338 806 351 816T382 826Q388 826 392 825T405 821T425 809T461 787Q484 772 492 769T511 766Q520 766 527 768T543 777T561 793T586 821Q587 824 590 824Q592 824 592 824T597 820L601 816Z"  />
<glyph unicode="&#xC4;" horiz-adv-x="629" d="M212 231Q169 154 149 110T128 48Q128 26 173 23Q194 22 198 22T202 17Q202 -2 191 -2Q186 -2 181 -2T167 -1Q152 0 128 0T81 1Q67 1 57 1T38 1T18 0T-9 -2H-12Q-21 -2 -21 4Q-21 15 -17 18T0 24Q12 25 21 30T41 46T65 78T100 132Q175 251 228 337T318 483T373 576T399 626Q401 631 406 633L410 634L425 638L442 643Q444 644 448 644Q453 644 455 635Q469 536 486 420T523 167Q531 115 536 86T549 43T567 26T597 22Q606 20 606 15Q606 -2 593 -2L491 1L370 -2Q360 -2 360 4Q360 19 367 23Q369 24 372 24T396 25Q426 27 438 36T451 68Q451 75 450 86T447 115T442 162T433 231H212ZM428 265Q420 329 411 397T391 540Q350 469 324 424T280 350T253 301T232 265H428ZM342 801Q358 801 372 787T387 757Q387 742 373 728T345 713Q328 713 314 727T299 756Q299 773 312 787T342 801ZM538 801Q554 801 568 787T583 757Q583 742 569 728T541 713Q524 713 510 727T495 756Q495 773 508 787T538 801Z"  />
<glyph unicode="&#xC5;" horiz-adv-x="629" d="M212 231Q169 154 149 110T128 48Q128 26 173 23Q194 22 198 22T202 17Q202 -2 191 -2Q186 -2 181 -2T167 -1Q152 0 128 0T81 1Q67 1 57 1T38 1T18 0T-9 -2H-12Q-21 -2 -21 4Q-21 15 -17 18T0 24Q12 25 21 30T41 46T65 78T100 132Q175 251 228 337T318 483T373 576T399 626Q401 631 406 633L410 634L425 638L442 643Q444 644 448 644Q453 644 455 635Q469 536 486 420T523 167Q531 115 536 86T549 43T567 26T597 22Q606 20 606 15Q606 -2 593 -2L491 1L370 -2Q360 -2 360 4Q360 19 367 23Q369 24 372 24T396 25Q426 27 438 36T451 68Q451 75 450 86T447 115T442 162T433 231H212ZM428 265Q420 329 411 397T391 540Q350 469 324 424T280 350T253 301T232 265H428ZM447 868Q489 868 515 846T541 788Q541 745 510 718T430 690Q387 690 361 712T335 770Q335 813 366 840T447 868ZM442 844Q418 844 402 823T385 770Q385 744 398 729T432 714Q457 714 473 735T490 788Q490 814 478 829T442 844Z"  />
<glyph unicode="&#xC6;" horiz-adv-x="869" d="M273 274Q256 252 243 235T214 198Q199 178 184 158T152 117Q133 94 125 79T117 51Q117 37 129 31T169 24Q186 24 186 17Q186 -2 173 -2Q171 -2 169 -2T160 -2T141 -1T109 1Q101 2 92 2T71 2Q62 2 48 2T15 0L-31 -1Q-40 -1 -43 0T-46 8Q-46 17 -43 20T-27 26Q-8 29 2 34T29 58Q75 106 126 162T228 277T326 390T410 491Q428 515 449 539Q466 559 472 570T479 590Q479 604 454 609H445L425 611Q416 611 416 617Q416 635 429 635H432Q451 634 474 634T534 633T621 633T746 633Q767 633 791 633T837 633T873 634T892 635H896Q905 635 905 628Q905 625 904 623T897 606Q890 589 881 558T862 490Q860 481 858 479T848 477Q837 477 837 484Q837 489 838 491Q840 505 840 512T841 526Q841 578 808 589Q788 597 753 600T662 603Q642 603 632 603T615 602T607 598T604 590L602 580Q599 569 596 558T591 535Q586 511 581 489T571 445Q565 421 562 406T556 380T552 362T549 347Q564 346 573 346T598 346Q648 346 676 348T719 355Q734 360 747 375T769 412Q773 423 779 423Q794 423 794 417Q794 414 791 404Q785 384 780 368T771 334T761 292T750 237Q748 226 746 224T732 221Q725 221 725 228Q725 230 725 233T726 240Q727 245 727 257Q727 276 723 287T708 305T674 313T616 315L558 314H542Q534 280 527 243T513 174T504 117T500 82Q500 68 505 59T522 45T557 38T616 36Q646 36 667 37T705 43T733 55T756 74Q773 91 787 111T809 151Q813 160 814 162T818 164Q824 164 829 161T835 153Q835 150 832 140T825 116T814 86T802 56Q794 35 789 24T781 7T775 1T768 0Q762 0 750 0T716 0T659 0T573 1Q549 2 532 2T506 2Q494 2 475 2T435 1T394 0T357 -1Q348 -2 342 -2T331 -2Q320 -2 316 -1T312 4Q312 14 315 17T328 22Q394 28 409 60Q413 67 416 78T425 113T439 175T460 274H273ZM467 306Q484 386 494 435T511 513T521 557T529 585L301 306H467Z"  />
<glyph unicode="&#xC7;" horiz-adv-x="610" d="M354 -11Q336 -32 316 -58Q311 -63 311 -66Q311 -68 313 -70T329 -83Q342 -92 349 -103T356 -126Q356 -144 346 -161T320 -192T283 -214T241 -223Q222 -223 210 -215T197 -193Q197 -184 203 -177T218 -170Q222 -170 225 -171T237 -177Q255 -185 270 -185Q288 -185 300 -175T312 -149Q312 -126 278 -106Q259 -94 259 -85Q259 -77 276 -61Q282 -56 286 -52T297 -43T311 -30T331 -10Q202 -1 133 74T63 277Q63 356 91 423T168 539T286 615T435 643Q467 643 504 639T602 626Q604 625 608 625Q610 625 611 625T620 629Q621 630 624 630Q635 630 635 623Q635 623 633 615Q629 604 625 587T616 550T609 512T605 481Q604 469 595 469Q583 469 581 472T579 497Q579 526 574 541T554 569Q531 589 498 599T426 609Q366 609 316 584T228 515T169 409T148 277Q148 220 163 173T207 92T275 39T362 20Q400 20 436 33T498 69Q512 81 522 96T543 135Q546 142 550 142Q556 142 561 139T567 133Q567 129 564 123Q559 112 556 103T550 84T542 59T531 23Q530 18 529 17T524 14Q478 0 439 -6T354 -11Z"  />
<glyph unicode="&#xC8;" horiz-adv-x="574" d="M527 489Q528 500 528 511T529 530Q529 552 521 566T494 588T443 600T362 604Q303 604 297 602Q291 600 287 581Q285 569 283 557T276 533Q272 519 263 474T235 345Q305 345 344 346T405 353T436 372T458 411Q463 422 469 422Q482 422 482 415Q482 413 481 410T474 386Q466 356 461 337T452 301T445 268T438 228Q437 219 430 219Q415 219 415 228V233Q416 241 416 247T416 255Q416 281 404 293T363 309Q357 310 344 310T313 311T273 312T228 313Q213 241 204 197T190 128T184 90T182 69Q182 57 185 50T202 39T242 34T312 33Q359 33 386 39T436 61Q456 76 472 98T499 148Q504 162 509 162Q516 162 521 159T526 152Q526 148 523 137T515 112T504 80T490 47L481 26L477 15Q470 -2 460 -2H452Q447 -1 422 -1T361 0T286 1T214 1Q195 1 167 1T112 1T62 0T33 -1Q26 -2 21 -2T14 -2Q0 -2 -3 -1T-6 5Q-6 15 -3 18T10 22Q34 25 49 29T75 42T92 63T104 98Q121 171 138 250T170 396T193 510T202 566Q202 588 186 597T126 610Q113 611 113 617Q113 624 116 629T124 634H133Q142 633 172 633T244 632T333 631T425 631L577 632Q591 632 591 625Q591 619 588 613Q576 581 568 552T551 489Q549 480 548 478T541 476Q527 476 527 484V489ZM452 720L457 715Q459 711 459 710Q459 708 454 706L449 704Q445 702 443 702Q441 702 441 702T435 706L304 797Q293 805 290 809T286 821Q286 827 290 831T307 839L321 844Q332 849 336 850T344 851Q348 851 351 849T360 838L452 720Z"  />
<glyph unicode="&#xC9;" horiz-adv-x="574" d="M527 489Q528 500 528 511T529 530Q529 552 521 566T494 588T443 600T362 604Q303 604 297 602Q291 600 287 581Q285 569 283 557T276 533Q272 519 263 474T235 345Q305 345 344 346T405 353T436 372T458 411Q463 422 469 422Q482 422 482 415Q482 413 481 410T474 386Q466 356 461 337T452 301T445 268T438 228Q437 219 430 219Q415 219 415 228V233Q416 241 416 247T416 255Q416 281 404 293T363 309Q357 310 344 310T313 311T273 312T228 313Q213 241 204 197T190 128T184 90T182 69Q182 57 185 50T202 39T242 34T312 33Q359 33 386 39T436 61Q456 76 472 98T499 148Q504 162 509 162Q516 162 521 159T526 152Q526 148 523 137T515 112T504 80T490 47L481 26L477 15Q470 -2 460 -2H452Q447 -1 422 -1T361 0T286 1T214 1Q195 1 167 1T112 1T62 0T33 -1Q26 -2 21 -2T14 -2Q0 -2 -3 -1T-6 5Q-6 15 -3 18T10 22Q34 25 49 29T75 42T92 63T104 98Q121 171 138 250T170 396T193 510T202 566Q202 588 186 597T126 610Q113 611 113 617Q113 624 116 629T124 634H133Q142 633 172 633T244 632T333 631T425 631L577 632Q591 632 591 625Q591 619 588 613Q576 581 568 552T551 489Q549 480 548 478T541 476Q527 476 527 484V489ZM353 710Q351 709 345 705T336 701Q334 701 333 702T329 704Q327 705 325 706T323 709Q323 710 326 713T333 718L467 834Q477 842 481 845T491 848Q498 848 525 839Q544 832 544 822Q544 811 527 803L353 710Z"  />
<glyph unicode="&#xCA;" horiz-adv-x="574" d="M527 489Q528 500 528 511T529 530Q529 552 521 566T494 588T443 600T362 604Q303 604 297 602Q291 600 287 581Q285 569 283 557T276 533Q272 519 263 474T235 345Q305 345 344 346T405 353T436 372T458 411Q463 422 469 422Q482 422 482 415Q482 413 481 410T474 386Q466 356 461 337T452 301T445 268T438 228Q437 219 430 219Q415 219 415 228V233Q416 241 416 247T416 255Q416 281 404 293T363 309Q357 310 344 310T313 311T273 312T228 313Q213 241 204 197T190 128T184 90T182 69Q182 57 185 50T202 39T242 34T312 33Q359 33 386 39T436 61Q456 76 472 98T499 148Q504 162 509 162Q516 162 521 159T526 152Q526 148 523 137T515 112T504 80T490 47L481 26L477 15Q470 -2 460 -2H452Q447 -1 422 -1T361 0T286 1T214 1Q195 1 167 1T112 1T62 0T33 -1Q26 -2 21 -2T14 -2Q0 -2 -3 -1T-6 5Q-6 15 -3 18T10 22Q34 25 49 29T75 42T92 63T104 98Q121 171 138 250T170 396T193 510T202 566Q202 588 186 597T126 610Q113 611 113 617Q113 624 116 629T124 634H133Q142 633 172 633T244 632T333 631T425 631L577 632Q591 632 591 625Q591 619 588 613Q576 581 568 552T551 489Q549 480 548 478T541 476Q527 476 527 484V489ZM537 718Q539 714 539 713Q539 710 534 706T527 701Q525 701 523 703T510 717Q502 726 478 752T426 808Q398 786 372 767T326 732T294 709T279 700Q277 700 273 704T269 711Q269 714 272 717T287 733Q309 755 326 773T358 806T386 837T415 870Q426 882 437 882Q443 882 447 881T454 876T463 861T477 831Q481 822 486 813T497 792Q502 783 506 774T515 757L529 730L537 718Z"  />
<glyph unicode="&#xCB;" horiz-adv-x="574" d="M527 489Q528 500 528 511T529 530Q529 552 521 566T494 588T443 600T362 604Q303 604 297 602Q291 600 287 581Q285 569 283 557T276 533Q272 519 263 474T235 345Q305 345 344 346T405 353T436 372T458 411Q463 422 469 422Q482 422 482 415Q482 413 481 410T474 386Q466 356 461 337T452 301T445 268T438 228Q437 219 430 219Q415 219 415 228V233Q416 241 416 247T416 255Q416 281 404 293T363 309Q357 310 344 310T313 311T273 312T228 313Q213 241 204 197T190 128T184 90T182 69Q182 57 185 50T202 39T242 34T312 33Q359 33 386 39T436 61Q456 76 472 98T499 148Q504 162 509 162Q516 162 521 159T526 152Q526 148 523 137T515 112T504 80T490 47L481 26L477 15Q470 -2 460 -2H452Q447 -1 422 -1T361 0T286 1T214 1Q195 1 167 1T112 1T62 0T33 -1Q26 -2 21 -2T14 -2Q0 -2 -3 -1T-6 5Q-6 15 -3 18T10 22Q34 25 49 29T75 42T92 63T104 98Q121 171 138 250T170 396T193 510T202 566Q202 588 186 597T126 610Q113 611 113 617Q113 624 116 629T124 634H133Q142 633 172 633T244 632T333 631T425 631L577 632Q591 632 591 625Q591 619 588 613Q576 581 568 552T551 489Q549 480 548 478T541 476Q527 476 527 484V489ZM297 801Q313 801 327 787T342 757Q342 742 328 728T300 713Q283 713 269 727T254 756Q254 773 267 787T297 801ZM493 801Q509 801 523 787T538 757Q538 742 524 728T496 713Q479 713 465 727T450 756Q450 773 463 787T493 801Z"  />
<glyph unicode="&#xCC;" horiz-adv-x="333" d="M246 -2Q239 -1 221 -1T179 0T131 1T86 1L7 -1Q2 -2 -2 -2T-9 -2Q-20 -2 -20 4Q-20 16 -16 18T16 23Q51 26 68 37T93 71Q99 89 109 129T130 221T153 329T174 434T190 519T196 568Q196 591 180 600T125 612Q116 612 116 618Q116 634 128 634Q131 634 136 634T167 633L254 632Q267 632 283 632T317 632T348 633T371 634H377Q386 634 386 628Q386 617 381 614T351 609Q317 607 302 594T278 547Q267 504 256 455T234 355T213 256T196 169T185 102T180 65Q180 45 195 36T251 23Q264 21 266 20T268 14Q268 -2 256 -2H246ZM315 720L320 715Q322 711 322 710Q322 708 317 706L312 704Q308 702 306 702Q304 702 304 702T298 706L167 797Q156 805 153 809T149 821Q149 827 153 831T170 839L184 844Q195 849 199 850T207 851Q211 851 214 849T223 838L315 720Z"  />
<glyph unicode="&#xCD;" horiz-adv-x="333" d="M246 -2Q239 -1 221 -1T179 0T131 1T86 1L7 -1Q2 -2 -2 -2T-9 -2Q-20 -2 -20 4Q-20 16 -16 18T16 23Q51 26 68 37T93 71Q99 89 109 129T130 221T153 329T174 434T190 519T196 568Q196 591 180 600T125 612Q116 612 116 618Q116 634 128 634Q131 634 136 634T167 633L254 632Q267 632 283 632T317 632T348 633T371 634H377Q386 634 386 628Q386 617 381 614T351 609Q317 607 302 594T278 547Q267 504 256 455T234 355T213 256T196 169T185 102T180 65Q180 45 195 36T251 23Q264 21 266 20T268 14Q268 -2 256 -2H246ZM250 710Q248 709 242 705T233 701Q231 701 230 702T226 704Q224 705 222 706T220 709Q220 710 223 713T230 718L364 834Q374 842 378 845T388 848Q395 848 422 839Q441 832 441 822Q441 811 424 803L250 710Z"  />
<glyph unicode="&#xCE;" horiz-adv-x="333" d="M246 -2Q239 -1 221 -1T179 0T131 1T86 1L7 -1Q2 -2 -2 -2T-9 -2Q-20 -2 -20 4Q-20 16 -16 18T16 23Q51 26 68 37T93 71Q99 89 109 129T130 221T153 329T174 434T190 519T196 568Q196 591 180 600T125 612Q116 612 116 618Q116 634 128 634Q131 634 136 634T167 633L254 632Q267 632 283 632T317 632T348 633T371 634H377Q386 634 386 628Q386 617 381 614T351 609Q317 607 302 594T278 547Q267 504 256 455T234 355T213 256T196 169T185 102T180 65Q180 45 195 36T251 23Q264 21 266 20T268 14Q268 -2 256 -2H246ZM409 718Q411 714 411 713Q411 710 406 706T399 701Q397 701 395 703T382 717Q374 726 350 752T298 808Q270 786 244 767T198 732T166 709T151 700Q149 700 145 704T141 711Q141 714 144 717T159 733Q181 755 198 773T230 806T258 837T287 870Q298 882 309 882Q315 882 319 881T326 876T335 861T349 831Q353 822 358 813T369 792Q374 783 378 774T387 757L401 730L409 718Z"  />
<glyph unicode="&#xCF;" horiz-adv-x="333" d="M246 -2Q239 -1 221 -1T179 0T131 1T86 1L7 -1Q2 -2 -2 -2T-9 -2Q-20 -2 -20 4Q-20 16 -16 18T16 23Q51 26 68 37T93 71Q99 89 109 129T130 221T153 329T174 434T190 519T196 568Q196 591 180 600T125 612Q116 612 116 618Q116 634 128 634Q131 634 136 634T167 633L254 632Q267 632 283 632T317 632T348 633T371 634H377Q386 634 386 628Q386 617 381 614T351 609Q317 607 302 594T278 547Q267 504 256 455T234 355T213 256T196 169T185 102T180 65Q180 45 195 36T251 23Q264 21 266 20T268 14Q268 -2 256 -2H246ZM185 801Q201 801 215 787T230 757Q230 742 216 728T188 713Q171 713 157 727T142 756Q142 773 155 787T185 801ZM381 801Q397 801 411 787T426 757Q426 742 412 728T384 713Q367 713 353 727T338 756Q338 773 351 787T381 801Z"  />
<glyph unicode="&#xD0;" horiz-adv-x="703" d="M70 313Q65 313 65 315Q65 316 66 318L71 344Q72 349 76 349H154Q202 554 202 574Q202 594 187 601T128 609Q120 610 118 611T115 615Q115 634 127 634H143Q148 634 158 634T180 633T204 632T225 632Q231 632 236 632T249 632T273 632T317 634Q337 635 354 635T379 635Q448 635 494 623T580 583Q629 548 655 495T681 377Q681 328 669 281T635 193T581 117T510 58Q459 27 398 13T255 -2L95 1L11 -1Q6 -2 3 -2T-3 -2Q-12 -2 -12 5Q-12 15 -9 18T7 22Q38 24 55 34T81 64Q85 75 91 94T104 142T122 213T146 313H70ZM401 349Q405 349 405 346V343L399 318Q398 313 394 313H223Q209 256 200 215T185 146T177 99T174 70Q174 47 191 38T251 29Q387 29 474 100Q531 146 562 217T594 372Q594 483 534 544T364 605Q343 605 330 603T307 593T291 575T279 544Q274 529 263 483T231 349H401Z"  />
<glyph unicode="&#xD1;" horiz-adv-x="721" d="M254 633Q267 633 269 632Q272 630 276 624T292 595Q311 558 324 533T351 484T381 429T424 352Q454 298 474 261T509 196T534 150T552 113Q575 223 591 301T616 432T630 516T634 566Q634 589 617 599T555 610Q538 610 538 617Q538 634 548 634H552L610 633Q623 632 636 632T664 632Q675 632 693 632T730 632T766 633T793 634H796Q804 634 804 628Q804 617 799 614T765 609Q742 605 729 600T706 579T688 536T668 459Q645 365 627 285T597 146T578 50T573 6Q573 -2 573 -4T568 -8Q567 -9 562 -10T550 -12T537 -15T530 -16Q526 -16 524 -12T512 20Q501 48 465 117T369 293Q354 319 340 345T311 398Q296 425 286 443T269 474T255 499T240 523Q213 403 195 322T165 188T150 109T145 71Q145 57 152 46T170 29Q174 27 177 27T188 25T207 23T240 20Q246 19 247 18T249 14Q249 -2 237 -2Q234 -2 229 -2T218 -1Q198 0 175 0T115 1Q98 1 82 1T41 0L-1 -2H-13H-15Q-21 -2 -21 4Q-21 20 -9 21Q23 25 42 30T73 50T94 89T114 158Q120 178 130 218T152 311T180 430T210 564Q202 578 194 586T177 600T154 608T121 610Q111 610 111 615Q111 634 128 634H142Q167 633 180 633T213 633H238H254ZM647 816Q651 813 651 811Q651 809 648 806L638 792Q618 767 604 752T580 727T562 715T543 712Q531 712 518 717T485 737Q470 747 460 753T443 763T430 768T417 769Q380 769 341 717Q340 713 337 713Q335 713 332 716L327 720Q323 723 323 725Q323 728 331 739T359 775Q384 806 397 816T428 826Q434 826 438 825T451 821T471 809T507 787Q530 772 538 769T557 766Q566 766 573 768T589 777T607 793T632 821Q633 824 636 824Q638 824 638 824T643 820L647 816Z"  />
<glyph unicode="&#xD2;" horiz-adv-x="684" d="M421 643Q476 643 521 625T597 572T646 489T663 380Q663 299 635 228T559 103T445 20T304 -11Q209 -11 149 40Q107 76 85 130T62 250Q62 331 90 402T167 527T281 612T421 643ZM407 609Q354 609 307 580T224 500T169 382T148 238Q148 139 194 81T318 23Q372 23 420 53T506 140Q522 164 535 194T559 256T574 322T579 386Q579 492 534 550T407 609ZM500 720L505 715Q507 711 507 710Q507 708 502 706L497 704Q493 702 491 702Q489 702 489 702T483 706L352 797Q341 805 338 809T334 821Q334 827 338 831T355 839L369 844Q380 849 384 850T392 851Q396 851 399 849T408 838L500 720Z"  />
<glyph unicode="&#xD3;" horiz-adv-x="684" d="M421 643Q476 643 521 625T597 572T646 489T663 380Q663 299 635 228T559 103T445 20T304 -11Q209 -11 149 40Q107 76 85 130T62 250Q62 331 90 402T167 527T281 612T421 643ZM407 609Q354 609 307 580T224 500T169 382T148 238Q148 139 194 81T318 23Q372 23 420 53T506 140Q522 164 535 194T559 256T574 322T579 386Q579 492 534 550T407 609ZM415 710Q413 709 407 705T398 701Q396 701 395 702T391 704Q389 705 387 706T385 709Q385 710 388 713T395 718L529 834Q539 842 543 845T553 848Q560 848 587 839Q606 832 606 822Q606 811 589 803L415 710Z"  />
<glyph unicode="&#xD4;" horiz-adv-x="684" d="M421 643Q476 643 521 625T597 572T646 489T663 380Q663 299 635 228T559 103T445 20T304 -11Q209 -11 149 40Q107 76 85 130T62 250Q62 331 90 402T167 527T281 612T421 643ZM407 609Q354 609 307 580T224 500T169 382T148 238Q148 139 194 81T318 23Q372 23 420 53T506 140Q522 164 535 194T559 256T574 322T579 386Q579 492 534 550T407 609ZM576 718Q578 714 578 713Q578 710 573 706T566 701Q564 701 562 703T549 717Q541 726 517 752T465 808Q437 786 411 767T365 732T333 709T318 700Q316 700 312 704T308 711Q308 714 311 717T326 733Q348 755 365 773T397 806T425 837T454 870Q465 882 476 882Q482 882 486 881T493 876T502 861T516 831Q520 822 525 813T536 792Q541 783 545 774T554 757L568 730L576 718Z"  />
<glyph unicode="&#xD5;" horiz-adv-x="684" d="M421 643Q476 643 521 625T597 572T646 489T663 380Q663 299 635 228T559 103T445 20T304 -11Q209 -11 149 40Q107 76 85 130T62 250Q62 331 90 402T167 527T281 612T421 643ZM407 609Q354 609 307 580T224 500T169 382T148 238Q148 139 194 81T318 23Q372 23 420 53T506 140Q522 164 535 194T559 256T574 322T579 386Q579 492 534 550T407 609ZM609 816Q613 813 613 811Q613 809 610 806L600 792Q580 767 566 752T542 727T524 715T505 712Q493 712 480 717T447 737Q432 747 422 753T405 763T392 768T379 769Q342 769 303 717Q302 713 299 713Q297 713 294 716L289 720Q285 723 285 725Q285 728 293 739T321 775Q346 806 359 816T390 826Q396 826 400 825T413 821T433 809T469 787Q492 772 500 769T519 766Q528 766 535 768T551 777T569 793T594 821Q595 824 598 824Q600 824 600 824T605 820L609 816Z"  />
<glyph unicode="&#xD6;" horiz-adv-x="684" d="M421 643Q476 643 521 625T597 572T646 489T663 380Q663 299 635 228T559 103T445 20T304 -11Q209 -11 149 40Q107 76 85 130T62 250Q62 331 90 402T167 527T281 612T421 643ZM407 609Q354 609 307 580T224 500T169 382T148 238Q148 139 194 81T318 23Q372 23 420 53T506 140Q522 164 535 194T559 256T574 322T579 386Q579 492 534 550T407 609ZM360 801Q376 801 390 787T405 757Q405 742 391 728T363 713Q346 713 332 727T317 756Q317 773 330 787T360 801ZM556 801Q572 801 586 787T601 757Q601 742 587 728T559 713Q542 713 528 727T513 756Q513 773 526 787T556 801Z"  />
<glyph unicode="&#xD7;" d="M431 78L261 247L91 77L59 109L229 279L60 449L92 481L262 312L431 481L463 449L293 279L463 111L431 78Z"  />
<glyph unicode="&#xD8;" horiz-adv-x="684" d="M606 675Q612 683 614 684T623 685H644Q651 685 652 685T654 683Q654 682 651 678L584 585Q663 512 663 381Q663 299 635 228T559 103T445 20T304 -11Q265 -11 235 -4T176 20L132 -40Q125 -49 124 -50T117 -52H92H89Q83 -54 83 -49L88 -42L148 41Q106 79 84 132T62 250Q62 296 72 340T100 425T145 501T205 563Q303 643 417 643Q494 643 556 606L606 675ZM525 562Q480 609 410 609Q356 609 308 580T225 501T169 383T148 239Q148 148 187 91L525 562ZM208 66Q255 23 319 23Q372 23 420 53T507 140Q523 164 536 194T559 256T574 322T579 388Q579 474 545 535L208 66Z"  />
<glyph unicode="&#xD9;" horiz-adv-x="666" d="M518 632L550 631H588L619 630H655H678Q701 631 717 631T736 632Q743 632 743 627Q743 616 739 614T708 607Q695 605 686 602T668 589T653 563T638 515T620 438T595 324Q584 271 575 234T557 169T538 122T515 85Q480 38 424 14T292 -11Q193 -11 141 34Q115 55 101 84T87 145Q87 154 87 161T89 180T94 211T104 262T121 342T146 460Q163 540 163 568Q163 603 120 607Q97 609 91 610T85 616Q85 634 95 634H106Q111 633 169 633T340 633Q352 633 352 627Q352 611 339 610Q308 605 291 601T264 584T246 547T228 477Q223 456 220 441T212 406T201 358T185 281Q178 249 174 230T168 199T166 178T165 160Q165 102 206 71T323 40Q448 40 498 136Q512 164 528 227T562 381Q577 464 583 505T590 561Q590 584 574 594T512 609Q499 610 499 616Q499 632 512 632H518ZM498 720L503 715Q505 711 505 710Q505 708 500 706L495 704Q491 702 489 702Q487 702 487 702T481 706L350 797Q339 805 336 809T332 821Q332 827 336 831T353 839L367 844Q378 849 382 850T390 851Q394 851 397 849T406 838L498 720Z"  />
<glyph unicode="&#xDA;" horiz-adv-x="666" d="M518 632L550 631H588L619 630H655H678Q701 631 717 631T736 632Q743 632 743 627Q743 616 739 614T708 607Q695 605 686 602T668 589T653 563T638 515T620 438T595 324Q584 271 575 234T557 169T538 122T515 85Q480 38 424 14T292 -11Q193 -11 141 34Q115 55 101 84T87 145Q87 154 87 161T89 180T94 211T104 262T121 342T146 460Q163 540 163 568Q163 603 120 607Q97 609 91 610T85 616Q85 634 95 634H106Q111 633 169 633T340 633Q352 633 352 627Q352 611 339 610Q308 605 291 601T264 584T246 547T228 477Q223 456 220 441T212 406T201 358T185 281Q178 249 174 230T168 199T166 178T165 160Q165 102 206 71T323 40Q448 40 498 136Q512 164 528 227T562 381Q577 464 583 505T590 561Q590 584 574 594T512 609Q499 610 499 616Q499 632 512 632H518ZM423 710Q421 709 415 705T406 701Q404 701 403 702T399 704Q397 705 395 706T393 709Q393 710 396 713T403 718L537 834Q547 842 551 845T561 848Q568 848 595 839Q614 832 614 822Q614 811 597 803L423 710Z"  />
<glyph unicode="&#xDB;" horiz-adv-x="666" d="M518 632L550 631H588L619 630H655H678Q701 631 717 631T736 632Q743 632 743 627Q743 616 739 614T708 607Q695 605 686 602T668 589T653 563T638 515T620 438T595 324Q584 271 575 234T557 169T538 122T515 85Q480 38 424 14T292 -11Q193 -11 141 34Q115 55 101 84T87 145Q87 154 87 161T89 180T94 211T104 262T121 342T146 460Q163 540 163 568Q163 603 120 607Q97 609 91 610T85 616Q85 634 95 634H106Q111 633 169 633T340 633Q352 633 352 627Q352 611 339 610Q308 605 291 601T264 584T246 547T228 477Q223 456 220 441T212 406T201 358T185 281Q178 249 174 230T168 199T166 178T165 160Q165 102 206 71T323 40Q448 40 498 136Q512 164 528 227T562 381Q577 464 583 505T590 561Q590 584 574 594T512 609Q499 610 499 616Q499 632 512 632H518ZM584 718Q586 714 586 713Q586 710 581 706T574 701Q572 701 570 703T557 717Q549 726 525 752T473 808Q445 786 419 767T373 732T341 709T326 700Q324 700 320 704T316 711Q316 714 319 717T334 733Q356 755 373 773T405 806T433 837T462 870Q473 882 484 882Q490 882 494 881T501 876T510 861T524 831Q528 822 533 813T544 792Q549 783 553 774T562 757L576 730L584 718Z"  />
<glyph unicode="&#xDC;" horiz-adv-x="666" d="M518 632L550 631H588L619 630H655H678Q701 631 717 631T736 632Q743 632 743 627Q743 616 739 614T708 607Q695 605 686 602T668 589T653 563T638 515T620 438T595 324Q584 271 575 234T557 169T538 122T515 85Q480 38 424 14T292 -11Q193 -11 141 34Q115 55 101 84T87 145Q87 154 87 161T89 180T94 211T104 262T121 342T146 460Q163 540 163 568Q163 603 120 607Q97 609 91 610T85 616Q85 634 95 634H106Q111 633 169 633T340 633Q352 633 352 627Q352 611 339 610Q308 605 291 601T264 584T246 547T228 477Q223 456 220 441T212 406T201 358T185 281Q178 249 174 230T168 199T166 178T165 160Q165 102 206 71T323 40Q448 40 498 136Q512 164 528 227T562 381Q577 464 583 505T590 561Q590 584 574 594T512 609Q499 610 499 616Q499 632 512 632H518ZM348 801Q364 801 378 787T393 757Q393 742 379 728T351 713Q334 713 320 727T305 756Q305 773 318 787T348 801ZM544 801Q560 801 574 787T589 757Q589 742 575 728T547 713Q530 713 516 727T501 756Q501 773 514 787T544 801Z"  />
<glyph unicode="&#xDD;" horiz-adv-x="555" d="M288 633Q294 634 299 634T307 634Q315 634 315 626Q315 617 312 614T299 610Q270 608 260 607T243 603Q226 596 226 578Q226 568 240 530T278 439Q288 416 294 401T305 376T313 357T319 341Q321 344 323 346T332 356T352 377T391 419Q398 427 403 433T418 450T444 480T490 534Q509 556 516 568T524 589Q524 601 508 606T453 612Q442 612 442 620Q442 634 452 634H464Q473 634 478 634T489 633T500 633T516 632H557Q564 632 588 632T655 634H658Q664 634 664 629Q664 618 662 615T650 609Q625 604 586 572T480 471Q465 454 453 442T430 417T408 393T382 364Q371 352 361 340T340 317Q330 304 327 298T320 273Q316 250 313 230T304 193Q292 133 288 106T283 66Q283 31 321 24Q328 23 335 23T363 21Q372 21 374 20T376 13Q376 -2 364 -2Q362 -2 357 -2T346 -1L244 1Q234 1 216 1T177 0T136 -1T101 -2Q92 -2 92 7Q92 20 105 21Q137 23 155 26T184 43T203 83T221 158Q226 181 232 204T244 254Q251 279 251 296Q251 304 244 327T223 381T193 450T158 524Q144 553 135 569T116 594T94 606T62 611Q55 612 55 619Q55 634 68 634L170 632L288 633ZM350 710Q348 709 342 705T333 701Q331 701 330 702T326 704Q324 705 322 706T320 709Q320 710 323 713T330 718L464 834Q474 842 478 845T488 848Q495 848 522 839Q541 832 541 822Q541 811 524 803L350 710Z"  />
<glyph unicode="&#xDE;" horiz-adv-x="555" d="M130 632Q161 632 197 632T266 632T328 633T371 634Q378 635 383 635T391 635Q400 635 400 630Q400 613 384 612Q353 610 334 606T303 592T285 564T273 517Q297 519 311 519T341 520Q442 520 490 483T539 370Q539 328 523 290T478 222Q445 188 395 171T282 154Q265 154 247 155T194 158Q186 120 183 98T179 65Q179 42 197 33T259 21Q269 20 269 13Q269 -2 256 -2Q254 -2 249 -2T236 -1Q222 0 190 0T125 1Q112 1 104 1T85 1T58 0T11 -2H2Q-8 -2 -8 3Q-8 20 5 20Q43 22 63 32T92 62Q96 71 105 109T127 201T152 316T177 431T195 524T202 572Q202 605 152 608Q138 609 130 610T119 611T115 613T114 617Q114 632 124 632H130ZM199 183Q218 181 228 181T253 181Q368 181 416 245Q434 270 445 305T456 375Q456 406 444 431T408 470Q388 483 364 488T300 493Q278 493 272 489T261 469Q256 451 248 416T231 339T214 255T199 183Z"  />
<glyph unicode="&#xDF;" horiz-adv-x="444" d="M381 707Q429 707 458 681T488 612Q488 584 479 553T456 498Q451 491 448 487T438 476T418 459T381 430Q339 397 324 377T308 336Q308 327 309 319T316 301T331 276T355 239Q378 204 388 181T398 137Q398 109 385 83T351 35T302 2T246 -11Q217 -11 200 1T183 36Q183 53 191 64T211 76Q215 76 218 76T225 74T237 68T258 56Q268 51 279 48T301 44Q319 44 331 57T343 91Q343 101 341 110T330 135T307 176T266 242Q256 257 251 274T246 308Q246 325 250 338T264 365T291 394T336 429Q368 453 384 469T409 506Q417 525 422 548T427 589Q427 621 405 638T341 656Q297 656 263 630T211 555Q207 543 204 533T197 508T188 469T176 409T159 319T134 190Q117 98 104 36T78 -68T54 -139T26 -192Q3 -227 -28 -247T-90 -268Q-114 -268 -129 -259T-145 -233Q-145 -221 -134 -209T-111 -196Q-106 -196 -102 -198T-80 -212Q-65 -221 -53 -221Q-38 -221 -29 -210T-11 -173Q0 -140 14 -69T47 101Q71 240 89 327T123 470T157 557T199 616Q238 658 287 682T381 707Z"  />
<glyph unicode="&#xE0;" horiz-adv-x="462" d="M437 185L442 181Q448 175 448 173Q448 169 444 159T432 136T417 108T400 81Q371 36 342 13T287 -11Q270 -11 260 -1T249 26Q249 68 297 194Q280 168 260 139T218 84Q179 35 145 12T78 -11Q47 -11 28 9T9 65Q9 110 36 164T113 271Q166 328 229 366T359 421Q366 439 373 445T394 451Q419 451 419 436Q419 431 416 421T403 383Q389 342 374 293T345 201T324 127T316 88Q316 71 332 71Q352 71 379 102T433 185H437ZM292 350Q259 350 222 327T153 267T100 189T79 111Q79 87 89 74T118 60Q131 60 148 69T184 95T225 135T266 188Q292 225 307 260T322 322Q322 350 292 350ZM391 521Q393 517 393 517T394 515Q394 513 390 511L383 510H378Q375 510 370 515L255 621Q244 632 241 636T238 646Q238 654 242 657T262 664Q282 669 287 670T297 671Q302 671 305 668T316 653L391 521Z"  />
<glyph unicode="&#xE1;" horiz-adv-x="462" d="M437 185L442 181Q448 175 448 173Q448 169 444 159T432 136T417 108T400 81Q371 36 342 13T287 -11Q270 -11 260 -1T249 26Q249 68 297 194Q280 168 260 139T218 84Q179 35 145 12T78 -11Q47 -11 28 9T9 65Q9 110 36 164T113 271Q166 328 229 366T359 421Q366 439 373 445T394 451Q419 451 419 436Q419 431 416 421T403 383Q389 342 374 293T345 201T324 127T316 88Q316 71 332 71Q352 71 379 102T433 185H437ZM292 350Q259 350 222 327T153 267T100 189T79 111Q79 87 89 74T118 60Q131 60 148 69T184 95T225 135T266 188Q292 225 307 260T322 322Q322 350 292 350ZM317 516Q310 511 309 510T306 509Q304 509 302 510L296 511Q293 512 293 514Q293 515 293 515T299 521L421 652Q432 663 436 666T448 670Q450 670 461 669T480 665Q501 659 501 649Q501 643 498 639T483 627L317 516Z"  />
<glyph unicode="&#xE2;" horiz-adv-x="462" d="M437 185L442 181Q448 175 448 173Q448 169 444 159T432 136T417 108T400 81Q371 36 342 13T287 -11Q270 -11 260 -1T249 26Q249 68 297 194Q280 168 260 139T218 84Q179 35 145 12T78 -11Q47 -11 28 9T9 65Q9 110 36 164T113 271Q166 328 229 366T359 421Q366 439 373 445T394 451Q419 451 419 436Q419 431 416 421T403 383Q389 342 374 293T345 201T324 127T316 88Q316 71 332 71Q352 71 379 102T433 185H437ZM292 350Q259 350 222 327T153 267T100 189T79 111Q79 87 89 74T118 60Q131 60 148 69T184 95T225 135T266 188Q292 225 307 260T322 322Q322 350 292 350ZM393 572Q391 574 387 580T371 601Q357 591 349 585T332 573T316 562T294 548Q286 543 278 538T262 528L245 516Q236 510 233 510Q230 510 226 514T221 521Q221 523 223 525T233 535Q258 557 276 572T310 601T337 628T365 656Q377 668 390 668Q398 668 402 662T416 631Q423 612 428 599T438 576T446 555T456 532Q459 526 459 523Q459 520 454 516T447 511Q442 511 433 523L419 540L393 572Z"  />
<glyph unicode="&#xE3;" horiz-adv-x="462" d="M437 185L442 181Q448 175 448 173Q448 169 444 159T432 136T417 108T400 81Q371 36 342 13T287 -11Q270 -11 260 -1T249 26Q249 68 297 194Q280 168 260 139T218 84Q179 35 145 12T78 -11Q47 -11 28 9T9 65Q9 110 36 164T113 271Q166 328 229 366T359 421Q366 439 373 445T394 451Q419 451 419 436Q419 431 416 421T403 383Q389 342 374 293T345 201T324 127T316 88Q316 71 332 71Q352 71 379 102T433 185H437ZM292 350Q259 350 222 327T153 267T100 189T79 111Q79 87 89 74T118 60Q131 60 148 69T184 95T225 135T266 188Q292 225 307 260T322 322Q322 350 292 350ZM503 612Q507 609 507 608Q507 606 483 579Q457 548 440 536T407 523Q390 523 362 540Q347 550 338 555T322 564T310 568T298 569Q281 569 268 561T235 529Q231 525 230 525Q228 525 226 527L220 532Q217 535 217 537Q217 540 242 569Q266 597 283 609T315 622Q322 622 327 621T339 617T356 607T381 590Q402 575 425 575Q456 575 487 614Q489 619 493 619Q493 619 497 617L503 612Z"  />
<glyph unicode="&#xE4;" horiz-adv-x="462" d="M437 185L442 181Q448 175 448 173Q448 169 444 159T432 136T417 108T400 81Q371 36 342 13T287 -11Q270 -11 260 -1T249 26Q249 68 297 194Q280 168 260 139T218 84Q179 35 145 12T78 -11Q47 -11 28 9T9 65Q9 110 36 164T113 271Q166 328 229 366T359 421Q366 439 373 445T394 451Q419 451 419 436Q419 431 416 421T403 383Q389 342 374 293T345 201T324 127T316 88Q316 71 332 71Q352 71 379 102T433 185H437ZM292 350Q259 350 222 327T153 267T100 189T79 111Q79 87 89 74T118 60Q131 60 148 69T184 95T225 135T266 188Q292 225 307 260T322 322Q322 350 292 350ZM267 608Q280 608 293 595T306 568Q306 554 292 541T264 528Q252 528 239 540T226 565Q226 580 239 594T267 608ZM418 608Q432 608 444 595T457 568Q457 554 443 541T415 528Q403 528 390 540T377 565Q377 580 390 594T418 608Z"  />
<glyph unicode="&#xE5;" horiz-adv-x="462" d="M437 185L442 181Q448 175 448 173Q448 169 444 159T432 136T417 108T400 81Q371 36 342 13T287 -11Q270 -11 260 -1T249 26Q249 68 297 194Q280 168 260 139T218 84Q179 35 145 12T78 -11Q47 -11 28 9T9 65Q9 110 36 164T113 271Q166 328 229 366T359 421Q366 439 373 445T394 451Q419 451 419 436Q419 431 416 421T403 383Q389 342 374 293T345 201T324 127T316 88Q316 71 332 71Q352 71 379 102T433 185H437ZM292 350Q259 350 222 327T153 267T100 189T79 111Q79 87 89 74T118 60Q131 60 148 69T184 95T225 135T266 188Q292 225 307 260T322 322Q322 350 292 350ZM372 668Q411 668 435 648T459 593Q459 554 431 529T357 503Q316 503 292 523T268 579Q268 618 297 643T372 668ZM368 643Q347 643 334 625T320 578Q320 528 359 528Q380 528 393 546T407 594Q407 643 368 643Z"  />
<glyph unicode="&#xE6;" horiz-adv-x="592" d="M533 120L540 113Q542 111 542 107Q542 103 529 87T499 55Q431 -11 370 -11Q325 -11 299 23T273 117Q273 125 273 133T275 158Q225 80 173 35T79 -11Q47 -11 28 9T9 61Q9 96 23 134T63 211T123 284T196 347T277 395T360 422L363 429Q368 442 374 447T390 452Q415 452 415 437Q415 433 414 430T409 416L405 405Q429 419 449 425T491 432Q535 432 561 411T588 354Q588 324 571 298T525 253T455 222T369 211Q367 211 362 211T352 212Q347 189 346 174T344 145Q344 100 361 75T408 49Q462 49 529 120H533ZM355 229Q394 231 419 239T467 265Q520 304 520 359Q520 378 507 389T474 401Q435 401 403 356T355 229ZM305 353Q287 353 266 346T223 325T180 293T142 254Q113 217 96 177T79 105Q79 85 89 73T117 60Q133 60 152 69T191 96T230 138T268 192Q278 210 289 232T308 274T321 311T327 336Q327 353 305 353Z"  />
<glyph unicode="&#xE7;" horiz-adv-x="351" d="M298 128Q299 126 300 125T301 121Q301 117 294 105T274 76Q248 41 221 21T162 -8Q142 -31 131 -46T119 -63Q119 -66 121 -68T136 -79Q160 -100 160 -118Q160 -134 151 -149T128 -177T94 -197T56 -205Q38 -205 27 -198T15 -178Q15 -170 20 -163T34 -156Q37 -156 40 -157T52 -163Q67 -171 81 -171Q98 -171 108 -162T119 -138Q119 -119 88 -102Q78 -96 75 -92T71 -82Q71 -77 74 -72T87 -59Q91 -55 95 -52T104 -44T117 -32T139 -11Q88 -10 59 27T29 127Q29 188 53 250T119 360Q183 432 264 432Q306 432 333 418T360 382Q360 365 351 355T328 344Q315 344 304 351T269 380Q248 398 235 398Q212 398 188 376T144 315Q124 274 112 230T100 150Q100 103 119 77T172 50Q200 50 231 73T286 137H289L298 128Z"  />
<glyph unicode="&#xE8;" horiz-adv-x="370" d="M311 120L317 112Q319 110 319 107Q319 103 310 91T286 65Q210 -11 134 -11Q84 -11 57 24T29 122Q29 183 48 239T98 338T172 406T260 432Q305 432 332 410T359 352Q359 311 327 278T239 227Q224 222 212 220T186 215T154 212T108 209Q103 189 102 177T101 150Q101 101 120 75T176 49Q243 49 308 120H311ZM112 227Q157 232 186 241T240 267Q263 283 277 307T292 356Q292 376 279 389T243 402Q199 402 165 356T112 227ZM301 521Q303 517 303 517T304 515Q304 513 300 511L293 510H288Q285 510 280 515L165 621Q154 632 151 636T148 646Q148 654 152 657T172 664Q192 669 197 670T207 671Q212 671 215 668T226 653L301 521Z"  />
<glyph unicode="&#xE9;" horiz-adv-x="370" d="M311 120L317 112Q319 110 319 107Q319 103 310 91T286 65Q210 -11 134 -11Q84 -11 57 24T29 122Q29 183 48 239T98 338T172 406T260 432Q305 432 332 410T359 352Q359 311 327 278T239 227Q224 222 212 220T186 215T154 212T108 209Q103 189 102 177T101 150Q101 101 120 75T176 49Q243 49 308 120H311ZM112 227Q157 232 186 241T240 267Q263 283 277 307T292 356Q292 376 279 389T243 402Q199 402 165 356T112 227ZM237 516Q230 511 229 510T226 509Q224 509 222 510L216 511Q213 512 213 514Q213 515 213 515T219 521L341 652Q352 663 356 666T368 670Q370 670 381 669T400 665Q421 659 421 649Q421 643 418 639T403 627L237 516Z"  />
<glyph unicode="&#xEA;" horiz-adv-x="370" d="M311 120L317 112Q319 110 319 107Q319 103 310 91T286 65Q210 -11 134 -11Q84 -11 57 24T29 122Q29 183 48 239T98 338T172 406T260 432Q305 432 332 410T359 352Q359 311 327 278T239 227Q224 222 212 220T186 215T154 212T108 209Q103 189 102 177T101 150Q101 101 120 75T176 49Q243 49 308 120H311ZM112 227Q157 232 186 241T240 267Q263 283 277 307T292 356Q292 376 279 389T243 402Q199 402 165 356T112 227ZM313 572Q311 574 307 580T291 601Q277 591 269 585T252 573T236 562T214 548Q206 543 198 538T182 528L165 516Q156 510 153 510Q150 510 146 514T141 521Q141 523 143 525T153 535Q178 557 196 572T230 601T257 628T285 656Q297 668 310 668Q318 668 322 662T336 631Q343 612 348 599T358 576T366 555T376 532Q379 526 379 523Q379 520 374 516T367 511Q362 511 353 523L339 540L313 572Z"  />
<glyph unicode="&#xEB;" horiz-adv-x="370" d="M311 120L317 112Q319 110 319 107Q319 103 310 91T286 65Q210 -11 134 -11Q84 -11 57 24T29 122Q29 183 48 239T98 338T172 406T260 432Q305 432 332 410T359 352Q359 311 327 278T239 227Q224 222 212 220T186 215T154 212T108 209Q103 189 102 177T101 150Q101 101 120 75T176 49Q243 49 308 120H311ZM112 227Q157 232 186 241T240 267Q263 283 277 307T292 356Q292 376 279 389T243 402Q199 402 165 356T112 227ZM190 608Q203 608 216 595T229 568Q229 554 215 541T187 528Q175 528 162 540T149 565Q149 580 162 594T190 608ZM341 608Q355 608 367 595T380 568Q380 554 366 541T338 528Q326 528 313 540T300 565Q300 580 313 594T341 608Z"  />
<glyph unicode="&#xEC;" horiz-adv-x="240" d="M215 127V108Q215 101 210 94T190 72Q111 -11 63 -11Q30 -11 30 24Q30 42 49 99Q56 116 62 133T74 170Q106 262 122 309T141 364Q142 366 142 370Q142 374 138 374Q127 374 106 359T46 309H41V325Q41 330 44 335T64 356Q98 391 132 411T189 432Q201 432 208 425T216 407Q216 399 213 388T202 355Q197 342 189 319T172 272T156 228T147 202Q142 188 137 174T127 144Q123 132 121 127T119 121T118 119T117 116Q107 90 104 78T100 58Q100 51 107 51Q114 51 126 57T152 75T182 99T209 127H215ZM226 521Q228 517 228 517T229 515Q229 513 225 511L218 510H213Q210 510 205 515L90 621Q79 632 76 636T73 646Q73 654 77 657T97 664Q117 669 122 670T132 671Q137 671 140 668T151 653L226 521Z"  />
<glyph unicode="&#xED;" horiz-adv-x="240" d="M215 127V108Q215 101 210 94T190 72Q111 -11 63 -11Q30 -11 30 24Q30 42 49 99Q56 116 62 133T74 170Q106 262 122 309T141 364Q142 366 142 370Q142 374 138 374Q127 374 106 359T46 309H41V325Q41 330 44 335T64 356Q98 391 132 411T189 432Q201 432 208 425T216 407Q216 399 213 388T202 355Q197 342 189 319T172 272T156 228T147 202Q142 188 137 174T127 144Q123 132 121 127T119 121T118 119T117 116Q107 90 104 78T100 58Q100 51 107 51Q114 51 126 57T152 75T182 99T209 127H215ZM152 516Q145 511 144 510T141 509Q139 509 137 510L131 511Q128 512 128 514Q128 515 128 515T134 521L256 652Q267 663 271 666T283 670Q285 670 296 669T315 665Q336 659 336 649Q336 643 333 639T318 627L152 516Z"  />
<glyph unicode="&#xEE;" horiz-adv-x="240" d="M215 127V108Q215 101 210 94T190 72Q111 -11 63 -11Q30 -11 30 24Q30 42 49 99Q56 116 62 133T74 170Q106 262 122 309T141 364Q142 366 142 370Q142 374 138 374Q127 374 106 359T46 309H41V325Q41 330 44 335T64 356Q98 391 132 411T189 432Q201 432 208 425T216 407Q216 399 213 388T202 355Q197 342 189 319T172 272T156 228T147 202Q142 188 137 174T127 144Q123 132 121 127T119 121T118 119T117 116Q107 90 104 78T100 58Q100 51 107 51Q114 51 126 57T152 75T182 99T209 127H215ZM239 572Q237 574 233 580T217 601Q203 591 195 585T178 573T162 562T140 548Q132 543 124 538T108 528L91 516Q82 510 79 510Q76 510 72 514T67 521Q67 523 69 525T79 535Q104 557 122 572T156 601T183 628T211 656Q223 668 236 668Q244 668 248 662T262 631Q269 612 274 599T284 576T292 555T302 532Q305 526 305 523Q305 520 300 516T293 511Q288 511 279 523L265 540L239 572Z"  />
<glyph unicode="&#xEF;" horiz-adv-x="240" d="M130 608Q143 608 156 595T169 568Q169 554 155 541T127 528Q115 528 102 540T89 565Q89 580 102 594T130 608ZM261 608Q275 608 287 595T300 568Q300 554 286 541T258 528Q246 528 233 540T220 565Q220 580 233 594T261 608ZM215 127V108Q215 101 210 94T190 72Q111 -11 63 -11Q30 -11 30 24Q30 42 49 99Q56 116 62 133T74 170Q106 262 122 309T141 364Q142 366 142 370Q142 374 138 374Q127 374 106 359T46 309H41V325Q41 330 44 335T64 356Q98 391 132 411T189 432Q201 432 208 425T216 407Q216 399 213 388T202 355Q197 342 189 319T172 272T156 228T147 202Q142 188 137 174T127 144Q123 132 121 127T119 121T118 119T117 116Q107 90 104 78T100 58Q100 51 107 51Q114 51 126 57T152 75T182 99T209 127H215Z"  />
<glyph unicode="&#xF0;" horiz-adv-x="425" d="M358 594Q369 557 377 526T390 467T397 411T399 352Q399 294 390 242T363 149Q332 75 276 32T153 -11Q94 -11 62 26T30 130Q30 190 49 245T102 342T178 408T270 433Q286 433 297 431T327 421Q327 440 326 461T323 504T319 544T313 576Q306 574 300 572T287 566Q277 562 268 559T250 551L230 543Q225 541 220 539T210 534Q208 533 207 533H206Q205 533 205 534T201 542Q199 545 199 548T197 553L195 559Q195 561 201 564Q215 568 227 572T259 584Q276 590 286 594T306 602Q300 627 289 658T266 709Q265 710 265 712Q265 716 277 716T299 714Q308 711 321 685T349 619Q351 620 362 624T382 632Q406 642 418 647T449 660H450Q453 660 456 647L460 637Q461 636 461 634Q461 631 455 630Q451 629 448 628T429 621Q427 620 417 617T388 606L358 594ZM257 402Q194 402 145 290Q127 248 116 200T104 113Q104 71 120 46T163 20Q230 20 279 125Q299 168 310 215T322 303Q322 350 305 376T257 402Z"  />
<glyph unicode="&#xF1;" horiz-adv-x="518" d="M40 273V292Q40 303 42 309T54 334Q77 380 108 407T169 434Q186 434 196 425T207 402Q207 396 206 388T200 366T190 333T174 284Q170 272 167 264T161 246T153 221T140 181Q171 235 204 281T271 360T333 413T386 432Q440 432 440 361Q440 347 438 333T430 293T413 227T381 119Q376 104 373 92T370 77Q370 75 372 75Q377 75 389 85T418 112T451 148T483 187H488V172Q488 166 487 162T484 153T476 139T462 119Q419 59 380 24T316 -11Q292 -11 292 16Q292 23 293 32T300 55Q334 167 352 241T370 339Q370 368 345 368Q323 368 297 342T231 254Q215 230 199 201T168 143T141 84T119 30Q110 7 102 -2T78 -11Q67 -11 60 -5T52 10Q52 17 64 59T96 167Q119 241 132 290T146 348Q146 358 136 358Q119 358 98 338T45 272L40 273ZM487 612Q491 609 491 608Q491 606 467 579Q441 548 424 536T391 523Q374 523 346 540Q331 550 322 555T306 564T294 568T282 569Q265 569 252 561T219 529Q215 525 214 525Q212 525 210 527L204 532Q201 535 201 537Q201 540 226 569Q250 597 267 609T299 622Q306 622 311 621T323 617T340 607T365 590Q386 575 409 575Q440 575 471 614Q473 619 477 619Q477 619 481 617L487 612Z"  />
<glyph unicode="&#xF2;" horiz-adv-x="425" d="M273 433Q330 433 362 394T395 284Q395 230 375 174T319 75Q285 33 243 11T153 -11Q94 -11 62 26T30 130Q30 191 49 246T102 342T180 408T273 433ZM257 402Q194 402 145 290Q127 248 116 200T104 113Q104 71 120 46T163 20Q230 20 279 125Q299 168 310 215T322 303Q322 350 305 376T257 402ZM321 521Q323 517 323 517T324 515Q324 513 320 511L313 510H308Q305 510 300 515L185 621Q174 632 171 636T168 646Q168 654 172 657T192 664Q212 669 217 670T227 671Q232 671 235 668T246 653L321 521Z"  />
<glyph unicode="&#xF3;" horiz-adv-x="425" d="M273 433Q330 433 362 394T395 284Q395 230 375 174T319 75Q285 33 243 11T153 -11Q94 -11 62 26T30 130Q30 191 49 246T102 342T180 408T273 433ZM257 402Q194 402 145 290Q127 248 116 200T104 113Q104 71 120 46T163 20Q230 20 279 125Q299 168 310 215T322 303Q322 350 305 376T257 402ZM247 516Q240 511 239 510T236 509Q234 509 232 510L226 511Q223 512 223 514Q223 515 223 515T229 521L351 652Q362 663 366 666T378 670Q380 670 391 669T410 665Q431 659 431 649Q431 643 428 639T413 627L247 516Z"  />
<glyph unicode="&#xF4;" horiz-adv-x="425" d="M273 433Q330 433 362 394T395 284Q395 230 375 174T319 75Q285 33 243 11T153 -11Q94 -11 62 26T30 130Q30 191 49 246T102 342T180 408T273 433ZM257 402Q194 402 145 290Q127 248 116 200T104 113Q104 71 120 46T163 20Q230 20 279 125Q299 168 310 215T322 303Q322 350 305 376T257 402ZM333 572Q331 574 327 580T311 601Q297 591 289 585T272 573T256 562T234 548Q226 543 218 538T202 528L185 516Q176 510 173 510Q170 510 166 514T161 521Q161 523 163 525T173 535Q198 557 216 572T250 601T277 628T305 656Q317 668 330 668Q338 668 342 662T356 631Q363 612 368 599T378 576T386 555T396 532Q399 526 399 523Q399 520 394 516T387 511Q382 511 373 523L359 540L333 572Z"  />
<glyph unicode="&#xF5;" horiz-adv-x="425" d="M273 433Q330 433 362 394T395 284Q395 230 375 174T319 75Q285 33 243 11T153 -11Q94 -11 62 26T30 130Q30 191 49 246T102 342T180 408T273 433ZM257 402Q194 402 145 290Q127 248 116 200T104 113Q104 71 120 46T163 20Q230 20 279 125Q299 168 310 215T322 303Q322 350 305 376T257 402ZM443 612Q447 609 447 608Q447 606 423 579Q397 548 380 536T347 523Q330 523 302 540Q287 550 278 555T262 564T250 568T238 569Q221 569 208 561T175 529Q171 525 170 525Q168 525 166 527L160 532Q157 535 157 537Q157 540 182 569Q206 597 223 609T255 622Q262 622 267 621T279 617T296 607T321 590Q342 575 365 575Q396 575 427 614Q429 619 433 619Q433 619 437 617L443 612Z"  />
<glyph unicode="&#xF6;" horiz-adv-x="425" d="M273 433Q330 433 362 394T395 284Q395 230 375 174T319 75Q285 33 243 11T153 -11Q94 -11 62 26T30 130Q30 191 49 246T102 342T180 408T273 433ZM257 402Q194 402 145 290Q127 248 116 200T104 113Q104 71 120 46T163 20Q230 20 279 125Q299 168 310 215T322 303Q322 350 305 376T257 402ZM216 608Q229 608 242 595T255 568Q255 554 241 541T213 528Q201 528 188 540T175 565Q175 580 188 594T216 608ZM367 608Q381 608 393 595T406 568Q406 554 392 541T364 528Q352 528 339 540T326 565Q326 580 339 594T367 608Z"  />
<glyph unicode="&#xF7;" d="M296 442Q296 423 283 411T252 398Q234 398 221 410T208 442Q208 460 221 472T252 485Q270 485 283 473T296 442ZM44 257V302H460V257H44ZM296 117Q296 99 283 87T252 74Q234 74 221 86T208 117Q208 136 221 148T252 161Q270 161 283 149T296 117Z"  />
<glyph unicode="&#xF8;" horiz-adv-x="425" d="M384 444Q389 449 390 450T395 452H396H410Q418 452 418 450Q418 449 416 447L412 441L368 387Q395 345 395 285Q395 231 375 175T319 75Q285 33 243 11T154 -11Q103 -11 71 18L29 -33Q26 -37 25 -37T21 -38H2Q-2 -38 -2 -36L1 -31L55 36Q41 57 36 78T30 131Q30 191 49 246T102 342T179 408T271 433Q297 433 316 427T352 405L384 444ZM314 358Q296 402 259 402Q192 402 144 290Q135 270 128 248T116 202T107 158T104 119Q104 114 104 108T105 93L314 358ZM111 65Q126 19 163 19Q231 19 280 125Q300 166 311 212T323 296Q323 304 323 311T320 333L111 65Z"  />
<glyph unicode="&#xF9;" horiz-adv-x="500" d="M473 185V161Q473 153 471 149T461 132Q442 103 428 84T400 50T375 25T347 5Q325 -9 306 -9Q269 -9 269 31Q269 42 271 53T282 90T311 163T364 295Q340 263 315 231T265 168T217 112T175 67Q135 26 109 9T61 -9Q28 -9 28 33Q28 75 68 180Q74 195 83 218T103 264T122 308T136 338Q139 345 139 347Q139 349 137 349Q135 349 126 342T104 324T75 299T44 269H40L35 283Q33 289 33 289Q33 292 45 306T80 345Q124 392 151 412T197 433Q207 433 213 427T220 413Q220 409 218 402T208 372T181 302T131 173Q117 136 109 112T101 81Q101 73 108 73Q120 73 140 87T185 124T237 179T289 244T337 314T375 381Q390 413 397 422T415 432Q427 432 437 425T448 407Q448 402 446 397T436 372Q428 353 418 326T397 267T376 205T357 147T343 104T338 82Q338 70 349 70Q371 70 403 102T464 185H473ZM346 521Q348 517 348 517T349 515Q349 513 345 511L338 510H333Q330 510 325 515L210 621Q199 632 196 636T193 646Q193 654 197 657T217 664Q237 669 242 670T252 671Q257 671 260 668T271 653L346 521Z"  />
<glyph unicode="&#xFA;" horiz-adv-x="500" d="M473 185V161Q473 153 471 149T461 132Q442 103 428 84T400 50T375 25T347 5Q325 -9 306 -9Q269 -9 269 31Q269 42 271 53T282 90T311 163T364 295Q340 263 315 231T265 168T217 112T175 67Q135 26 109 9T61 -9Q28 -9 28 33Q28 75 68 180Q74 195 83 218T103 264T122 308T136 338Q139 345 139 347Q139 349 137 349Q135 349 126 342T104 324T75 299T44 269H40L35 283Q33 289 33 289Q33 292 45 306T80 345Q124 392 151 412T197 433Q207 433 213 427T220 413Q220 409 218 402T208 372T181 302T131 173Q117 136 109 112T101 81Q101 73 108 73Q120 73 140 87T185 124T237 179T289 244T337 314T375 381Q390 413 397 422T415 432Q427 432 437 425T448 407Q448 402 446 397T436 372Q428 353 418 326T397 267T376 205T357 147T343 104T338 82Q338 70 349 70Q371 70 403 102T464 185H473ZM302 516Q295 511 294 510T291 509Q289 509 287 510L281 511Q278 512 278 514Q278 515 278 515T284 521L406 652Q417 663 421 666T433 670Q435 670 446 669T465 665Q486 659 486 649Q486 643 483 639T468 627L302 516Z"  />
<glyph unicode="&#xFB;" horiz-adv-x="500" d="M473 185V161Q473 153 471 149T461 132Q442 103 428 84T400 50T375 25T347 5Q325 -9 306 -9Q269 -9 269 31Q269 42 271 53T282 90T311 163T364 295Q340 263 315 231T265 168T217 112T175 67Q135 26 109 9T61 -9Q28 -9 28 33Q28 75 68 180Q74 195 83 218T103 264T122 308T136 338Q139 345 139 347Q139 349 137 349Q135 349 126 342T104 324T75 299T44 269H40L35 283Q33 289 33 289Q33 292 45 306T80 345Q124 392 151 412T197 433Q207 433 213 427T220 413Q220 409 218 402T208 372T181 302T131 173Q117 136 109 112T101 81Q101 73 108 73Q120 73 140 87T185 124T237 179T289 244T337 314T375 381Q390 413 397 422T415 432Q427 432 437 425T448 407Q448 402 446 397T436 372Q428 353 418 326T397 267T376 205T357 147T343 104T338 82Q338 70 349 70Q371 70 403 102T464 185H473ZM368 572Q366 574 362 580T346 601Q332 591 324 585T307 573T291 562T269 548Q261 543 253 538T237 528L220 516Q211 510 208 510Q205 510 201 514T196 521Q196 523 198 525T208 535Q233 557 251 572T285 601T312 628T340 656Q352 668 365 668Q373 668 377 662T391 631Q398 612 403 599T413 576T421 555T431 532Q434 526 434 523Q434 520 429 516T422 511Q417 511 408 523L394 540L368 572Z"  />
<glyph unicode="&#xFC;" horiz-adv-x="500" d="M473 185V161Q473 153 471 149T461 132Q442 103 428 84T400 50T375 25T347 5Q325 -9 306 -9Q269 -9 269 31Q269 42 271 53T282 90T311 163T364 295Q340 263 315 231T265 168T217 112T175 67Q135 26 109 9T61 -9Q28 -9 28 33Q28 75 68 180Q74 195 83 218T103 264T122 308T136 338Q139 345 139 347Q139 349 137 349Q135 349 126 342T104 324T75 299T44 269H40L35 283Q33 289 33 289Q33 292 45 306T80 345Q124 392 151 412T197 433Q207 433 213 427T220 413Q220 409 218 402T208 372T181 302T131 173Q117 136 109 112T101 81Q101 73 108 73Q120 73 140 87T185 124T237 179T289 244T337 314T375 381Q390 413 397 422T415 432Q427 432 437 425T448 407Q448 402 446 397T436 372Q428 353 418 326T397 267T376 205T357 147T343 104T338 82Q338 70 349 70Q371 70 403 102T464 185H473ZM251 608Q264 608 277 595T290 568Q290 554 276 541T248 528Q236 528 223 540T210 565Q210 580 223 594T251 608ZM402 608Q416 608 428 595T441 568Q441 554 427 541T399 528Q387 528 374 540T361 565Q361 580 374 594T402 608Z"  />
<glyph unicode="&#xFD;" horiz-adv-x="444" d="M257 32Q278 69 291 95T314 140T330 175T342 208Q354 243 359 269T365 319Q365 348 347 372Q339 383 337 387T335 398Q335 412 346 421T374 431Q395 431 408 414T422 368Q422 320 394 244T311 68Q283 18 258 -22T210 -95T165 -153T120 -197Q34 -271 -67 -271Q-109 -271 -133 -257T-158 -219Q-158 -205 -148 -196T-124 -187Q-105 -187 -94 -207Q-86 -219 -78 -223T-48 -227Q-6 -227 36 -210T117 -158Q203 -84 203 20Q203 45 200 78T192 147T179 217T164 281Q151 328 138 345T104 362Q90 362 78 354T55 333T38 302T30 265Q29 260 28 259T20 258Q13 258 12 259T10 264Q10 290 19 321T43 376Q59 402 81 416T129 431Q169 431 193 395T233 278Q239 248 243 215T251 150T255 88T257 32ZM267 516Q260 511 259 510T256 509Q254 509 252 510L246 511Q243 512 243 514Q243 515 243 515T249 521L371 652Q382 663 386 666T398 670Q400 670 411 669T430 665Q451 659 451 649Q451 643 448 639T433 627L267 516Z"  />
<glyph unicode="&#xFE;" horiz-adv-x="462" d="M64 346Q63 345 60 345Q56 345 56 351V364Q55 367 56 368T64 371L130 386Q137 416 144 453T157 526T167 588T171 624Q171 641 163 649T128 665Q120 667 119 668T117 675Q117 679 118 681T123 686T137 689T164 694Q177 696 192 698T220 701T244 704T257 705Q268 705 268 697Q268 695 266 687Q261 673 254 646T238 582T219 499T198 402Q226 408 246 411T282 417T310 419T334 420Q383 420 411 396T440 331Q440 306 433 275T412 211T382 147T343 88Q311 48 273 27T194 5Q176 5 155 8T118 20Q110 -19 104 -56T92 -123T84 -174T81 -203Q81 -226 95 -234T157 -247Q170 -248 170 -254Q170 -270 154 -270H148L110 -269L38 -268Q29 -268 14 -268T-16 -268T-44 -269T-65 -270H-67Q-74 -270 -74 -263Q-74 -250 -62 -249Q-40 -245 -28 -241T-7 -225T8 -187T25 -117Q36 -66 45 -21T66 76T91 196T125 359L64 346ZM190 371Q172 286 161 236T145 158T138 118T136 95Q136 66 152 50T194 34Q226 34 253 57T307 127Q319 149 329 174T347 223T359 270T364 311Q364 376 270 376Q256 376 235 375T190 371Z"  />
<glyph unicode="&#xFF;" horiz-adv-x="444" d="M257 32Q278 69 291 95T314 140T330 175T342 208Q354 243 359 269T365 319Q365 348 347 372Q339 383 337 387T335 398Q335 412 346 421T374 431Q395 431 408 414T422 368Q422 320 394 244T311 68Q283 18 258 -22T210 -95T165 -153T120 -197Q34 -271 -67 -271Q-109 -271 -133 -257T-158 -219Q-158 -205 -148 -196T-124 -187Q-105 -187 -94 -207Q-86 -219 -78 -223T-48 -227Q-6 -227 36 -210T117 -158Q203 -84 203 20Q203 45 200 78T192 147T179 217T164 281Q151 328 138 345T104 362Q90 362 78 354T55 333T38 302T30 265Q29 260 28 259T20 258Q13 258 12 259T10 264Q10 290 19 321T43 376Q59 402 81 416T129 431Q169 431 193 395T233 278Q239 248 243 215T251 150T255 88T257 32ZM216 608Q229 608 242 595T255 568Q255 554 241 541T213 528Q201 528 188 540T175 565Q175 580 188 594T216 608ZM367 608Q381 608 393 595T406 568Q406 554 392 541T364 528Q352 528 339 540T326 565Q326 580 339 594T367 608Z"  />
<glyph unicode="&#x100;" horiz-adv-x="629" d="M212 231Q169 154 149 110T128 48Q128 26 173 23Q194 22 198 22T202 17Q202 -2 191 -2Q186 -2 181 -2T167 -1Q152 0 128 0T81 1Q67 1 57 1T38 1T18 0T-9 -2H-12Q-21 -2 -21 4Q-21 15 -17 18T0 24Q12 25 21 30T41 46T65 78T100 132Q175 251 228 337T318 483T373 576T399 626Q401 631 406 633L410 634L425 638L442 643Q444 644 448 644Q453 644 455 635Q469 536 486 420T523 167Q531 115 536 86T549 43T567 26T597 22Q606 20 606 15Q606 -2 593 -2L491 1L370 -2Q360 -2 360 4Q360 19 367 23Q369 24 372 24T396 25Q426 27 438 36T451 68Q451 75 450 86T447 115T442 162T433 231H212ZM428 265Q420 329 411 397T391 540Q350 469 324 424T280 350T253 301T232 265H428ZM556 733Q555 728 552 728H313Q309 728 309 730V733L317 774Q318 779 322 779H561Q565 779 565 777V776L564 774L556 733Z"  />
<glyph unicode="&#x101;" horiz-adv-x="462" d="M437 185L442 181Q448 175 448 173Q448 169 444 159T432 136T417 108T400 81Q371 36 342 13T287 -11Q270 -11 260 -1T249 26Q249 68 297 194Q280 168 260 139T218 84Q179 35 145 12T78 -11Q47 -11 28 9T9 65Q9 110 36 164T113 271Q166 328 229 366T359 421Q366 439 373 445T394 451Q419 451 419 436Q419 431 416 421T403 383Q389 342 374 293T345 201T324 127T316 88Q316 71 332 71Q352 71 379 102T433 185H437ZM292 350Q259 350 222 327T153 267T100 189T79 111Q79 87 89 74T118 60Q131 60 148 69T184 95T225 135T266 188Q292 225 307 260T322 322Q322 350 292 350ZM467 540Q466 535 463 535H234Q230 535 230 537V541Q230 542 231 544L237 569Q238 574 242 574H471Q475 574 475 572Q475 572 473 564L471 556L467 540Z"  />
<glyph unicode="&#x102;" horiz-adv-x="629" d="M212 231Q169 154 149 110T128 48Q128 26 173 23Q194 22 198 22T202 17Q202 -2 191 -2Q186 -2 181 -2T167 -1Q152 0 128 0T81 1Q67 1 57 1T38 1T18 0T-9 -2H-12Q-21 -2 -21 4Q-21 15 -17 18T0 24Q12 25 21 30T41 46T65 78T100 132Q175 251 228 337T318 483T373 576T399 626Q401 631 406 633L410 634L425 638L442 643Q444 644 448 644Q453 644 455 635Q469 536 486 420T523 167Q531 115 536 86T549 43T567 26T597 22Q606 20 606 15Q606 -2 593 -2L491 1L370 -2Q360 -2 360 4Q360 19 367 23Q369 24 372 24T396 25Q426 27 438 36T451 68Q451 75 450 86T447 115T442 162T433 231H212ZM428 265Q420 329 411 397T391 540Q350 469 324 424T280 350T253 301T232 265H428ZM566 827Q571 827 571 827T572 824Q572 821 570 815T565 800T558 783T551 767Q535 736 505 719T429 702Q377 702 352 725T327 791Q327 801 328 811T331 825Q332 827 337 827H350Q355 827 356 824T357 806Q357 780 376 766T435 752Q479 752 505 768T542 815Q545 823 546 825T553 827H566Z"  />
<glyph unicode="&#x103;" horiz-adv-x="462" d="M437 185L442 181Q448 175 448 173Q448 169 444 159T432 136T417 108T400 81Q371 36 342 13T287 -11Q270 -11 260 -1T249 26Q249 68 297 194Q280 168 260 139T218 84Q179 35 145 12T78 -11Q47 -11 28 9T9 65Q9 110 36 164T113 271Q166 328 229 366T359 421Q366 439 373 445T394 451Q419 451 419 436Q419 431 416 421T403 383Q389 342 374 293T345 201T324 127T316 88Q316 71 332 71Q352 71 379 102T433 185H437ZM292 350Q259 350 222 327T153 267T100 189T79 111Q79 87 89 74T118 60Q131 60 148 69T184 95T225 135T266 188Q292 225 307 260T322 322Q322 350 292 350ZM479 634Q484 634 484 634T485 631Q485 628 483 622T478 607T471 590T464 574Q448 543 419 526T352 509Q307 509 284 532T260 598Q260 608 261 618T264 632Q265 634 270 634H283Q288 634 289 632T290 613Q290 587 308 573T358 559Q432 559 455 622Q458 630 459 632T466 634H479Z"  />
<glyph unicode="&#x104;" horiz-adv-x="629" d="M212 231Q169 154 149 110T128 48Q128 26 173 23Q194 22 198 22T202 17Q202 -2 191 -2Q186 -2 181 -2T167 -1Q152 0 128 0T81 1Q67 1 57 1T38 1T18 0T-9 -2H-12Q-21 -2 -21 4Q-21 15 -17 18T0 24Q12 25 21 30T41 46T65 78T100 132Q175 251 228 337T318 483T373 576T399 626Q401 631 406 633L410 634L425 638L442 643Q444 644 448 644Q453 644 455 635Q469 536 486 420T523 167Q531 115 536 86T549 43T567 26T597 22Q606 20 606 15Q606 7 604 4T595 -5Q532 -51 532 -105Q532 -152 576 -152Q595 -152 620 -139H626L625 -144Q624 -152 624 -154T621 -158Q612 -168 589 -175T544 -183Q512 -183 492 -167T472 -122Q472 -92 497 -63T573 -1L491 1L370 -2Q360 -2 360 4Q360 19 367 23Q369 24 372 24T396 25Q426 27 438 36T451 68Q451 75 450 86T447 115T442 162T433 231H212ZM428 265Q420 329 411 397T391 540Q350 469 324 424T280 350T253 301T232 265H428Z"  />
<glyph unicode="&#x105;" horiz-adv-x="462" d="M437 185L442 181Q448 175 448 173Q448 169 444 159T432 136T417 108T400 81Q381 52 364 34Q352 20 340 5T320 -22Q303 -44 293 -64T283 -105Q283 -152 327 -152Q346 -152 371 -139H377L376 -144Q375 -152 375 -154T372 -158Q363 -168 340 -175T295 -183Q263 -183 243 -167T223 -122Q223 -93 244 -68T302 -9Q292 -11 287 -11Q270 -11 260 -1T249 26Q249 68 297 194Q280 168 260 139T218 84Q179 35 145 12T78 -11Q47 -11 28 9T9 65Q9 110 36 164T113 271Q166 328 229 366T359 421Q366 439 373 445T394 451Q419 451 419 436Q419 431 416 421T403 383Q389 342 374 293T345 201T324 127T316 88Q316 71 332 71Q352 71 379 102T433 185H437ZM292 350Q259 350 222 327T153 267T100 189T79 111Q79 87 89 74T118 60Q131 60 148 69T184 95T225 135T266 188Q292 225 307 260T322 322Q322 350 292 350Z"  />
<glyph unicode="&#x106;" horiz-adv-x="610" d="M438 643Q467 643 505 639T602 626Q604 625 608 625Q610 625 611 625T620 629Q621 630 624 630Q635 630 635 623Q635 623 633 615Q629 604 625 587T616 550T609 512T605 481Q604 469 595 469Q583 469 581 472T579 497Q579 526 574 541T554 569Q531 589 498 599T426 609Q366 609 316 584T228 515T169 409T148 277Q148 220 163 173T207 92T275 39T362 20Q400 20 436 33T498 69Q512 81 522 96T543 135Q546 142 550 142Q556 142 561 139T567 133Q567 129 564 123Q559 112 556 103T549 84T541 59T531 24Q530 18 528 16T516 11Q474 0 437 -5T360 -11Q291 -11 236 8T142 65T84 156T63 277Q63 357 91 424T168 540T287 616T438 643ZM413 710Q411 709 405 705T396 701Q394 701 393 702T389 704Q387 705 385 706T383 709Q383 710 386 713T393 718L527 834Q537 842 541 845T551 848Q558 848 585 839Q604 832 604 822Q604 811 587 803L413 710Z"  />
<glyph unicode="&#x107;" horiz-adv-x="351" d="M288 137L297 128Q301 124 301 120Q301 117 293 104T274 76Q209 -11 138 -11Q88 -11 58 26T28 127Q28 157 34 188T52 250T80 309T118 360Q182 432 263 432Q305 432 332 418T359 381Q359 364 350 354T327 344Q314 344 303 351T268 380Q247 398 234 398Q211 398 187 376T143 315Q123 274 111 229T99 149Q99 103 118 77T171 50Q200 50 230 73T286 136L288 137ZM242 516Q235 511 234 510T231 509Q229 509 227 510L221 511Q218 512 218 514Q218 515 218 515T224 521L346 652Q357 663 361 666T373 670Q375 670 386 669T405 665Q426 659 426 649Q426 643 423 639T408 627L242 516Z"  />
<glyph unicode="&#x108;" horiz-adv-x="610" d="M438 643Q467 643 505 639T602 626Q604 625 608 625Q610 625 611 625T620 629Q621 630 624 630Q635 630 635 623Q635 623 633 615Q629 604 625 587T616 550T609 512T605 481Q604 469 595 469Q583 469 581 472T579 497Q579 526 574 541T554 569Q531 589 498 599T426 609Q366 609 316 584T228 515T169 409T148 277Q148 220 163 173T207 92T275 39T362 20Q400 20 436 33T498 69Q512 81 522 96T543 135Q546 142 550 142Q556 142 561 139T567 133Q567 129 564 123Q559 112 556 103T549 84T541 59T531 24Q530 18 528 16T516 11Q474 0 437 -5T360 -11Q291 -11 236 8T142 65T84 156T63 277Q63 357 91 424T168 540T287 616T438 643ZM604 718Q606 714 606 713Q606 710 601 706T594 701Q592 701 590 703T577 717Q569 726 545 752T493 808Q465 786 439 767T393 732T361 709T346 700Q344 700 340 704T336 711Q336 714 339 717T354 733Q376 755 393 773T425 806T453 837T482 870Q493 882 504 882Q510 882 514 881T521 876T530 861T544 831Q548 822 553 813T564 792Q569 783 573 774T582 757L596 730L604 718Z"  />
<glyph unicode="&#x109;" horiz-adv-x="351" d="M288 137L297 128Q301 124 301 120Q301 117 293 104T274 76Q209 -11 138 -11Q88 -11 58 26T28 127Q28 157 34 188T52 250T80 309T118 360Q182 432 263 432Q305 432 332 418T359 381Q359 364 350 354T327 344Q314 344 303 351T268 380Q247 398 234 398Q211 398 187 376T143 315Q123 274 111 229T99 149Q99 103 118 77T171 50Q200 50 230 73T286 136L288 137ZM328 572Q326 574 322 580T306 601Q292 591 284 585T267 573T251 562T229 548Q221 543 213 538T197 528L180 516Q171 510 168 510Q165 510 161 514T156 521Q156 523 158 525T168 535Q193 557 211 572T245 601T272 628T300 656Q312 668 325 668Q333 668 337 662T351 631Q358 612 363 599T373 576T381 555T391 532Q394 526 394 523Q394 520 389 516T382 511Q377 511 368 523L354 540L328 572Z"  />
<glyph unicode="&#x10A;" horiz-adv-x="610" d="M438 643Q467 643 505 639T602 626Q604 625 608 625Q610 625 611 625T620 629Q621 630 624 630Q635 630 635 623Q635 623 633 615Q629 604 625 587T616 550T609 512T605 481Q604 469 595 469Q583 469 581 472T579 497Q579 526 574 541T554 569Q531 589 498 599T426 609Q366 609 316 584T228 515T169 409T148 277Q148 220 163 173T207 92T275 39T362 20Q400 20 436 33T498 69Q512 81 522 96T543 135Q546 142 550 142Q556 142 561 139T567 133Q567 129 564 123Q559 112 556 103T549 84T541 59T531 24Q530 18 528 16T516 11Q474 0 437 -5T360 -11Q291 -11 236 8T142 65T84 156T63 277Q63 357 91 424T168 540T287 616T438 643ZM465 804Q479 804 493 790T507 760Q507 753 503 746T492 732T477 721T462 717Q455 717 448 721T434 731T424 744T420 758Q420 774 434 789T465 804Z"  />
<glyph unicode="&#x10B;" horiz-adv-x="351" d="M288 137L297 128Q301 124 301 120Q301 117 293 104T274 76Q209 -11 138 -11Q88 -11 58 26T28 127Q28 157 34 188T52 250T80 309T118 360Q182 432 263 432Q305 432 332 418T359 381Q359 364 350 354T327 344Q314 344 303 351T268 380Q247 398 234 398Q211 398 187 376T143 315Q123 274 111 229T99 149Q99 103 118 77T171 50Q200 50 230 73T286 136L288 137ZM278 611Q292 611 306 597T320 567Q320 560 316 553T305 539T290 528T275 524Q268 524 261 528T247 538T237 551T233 565Q233 581 247 596T278 611Z"  />
<glyph unicode="&#x10C;" horiz-adv-x="610" d="M438 643Q467 643 505 639T602 626Q604 625 608 625Q610 625 611 625T620 629Q621 630 624 630Q635 630 635 623Q635 623 633 615Q629 604 625 587T616 550T609 512T605 481Q604 469 595 469Q583 469 581 472T579 497Q579 526 574 541T554 569Q531 589 498 599T426 609Q366 609 316 584T228 515T169 409T148 277Q148 220 163 173T207 92T275 39T362 20Q400 20 436 33T498 69Q512 81 522 96T543 135Q546 142 550 142Q556 142 561 139T567 133Q567 129 564 123Q559 112 556 103T549 84T541 59T531 24Q530 18 528 16T516 11Q474 0 437 -5T360 -11Q291 -11 236 8T142 65T84 156T63 277Q63 357 91 424T168 540T287 616T438 643ZM348 864Q346 868 346 869Q346 872 351 876T358 881Q360 881 362 879T375 865Q383 856 407 830T459 774Q487 796 513 815T559 850T591 873T606 882Q608 882 612 878T616 871Q616 868 613 865T598 849Q576 827 559 809T527 776T499 745T470 712Q459 700 448 700Q442 700 438 701T430 706T422 721T408 751Q404 760 399 769T388 790Q383 799 379 808T370 825L356 852L348 864Z"  />
<glyph unicode="&#x10D;" horiz-adv-x="351" d="M288 137L297 128Q301 124 301 120Q301 117 293 104T274 76Q209 -11 138 -11Q88 -11 58 26T28 127Q28 157 34 188T52 250T80 309T118 360Q182 432 263 432Q305 432 332 418T359 381Q359 364 350 354T327 344Q314 344 303 351T268 380Q247 398 234 398Q211 398 187 376T143 315Q123 274 111 229T99 149Q99 103 118 77T171 50Q200 50 230 73T286 136L288 137ZM281 571Q354 621 387 643T424 665Q427 665 431 661T435 654Q435 650 429 646Q417 637 406 626Q395 616 384 607T361 586Q348 574 335 562T308 537Q288 517 282 513T267 509Q252 509 245 528Q239 546 234 560T224 587T213 612T200 642Q196 651 196 653Q196 657 200 661T209 666Q213 666 219 656Q224 652 229 644Q241 625 256 607Q266 592 270 586T281 571Z"  />
<glyph unicode="&#x10E;" horiz-adv-x="703" d="M95 1L11 -1Q6 -2 3 -2T-3 -2Q-12 -2 -12 5Q-12 15 -9 18T7 22Q59 25 76 54Q80 62 86 81T102 135T123 219T152 339Q165 397 174 439T190 510T199 553T202 574Q202 594 187 601T128 609Q120 610 118 611T115 615Q115 634 127 634H143Q148 634 158 634T180 633T204 632T225 632Q231 632 236 632T249 632T273 632T317 634Q338 635 354 635T378 635Q448 635 494 623T580 583Q629 548 655 495T681 377Q681 328 669 281T635 193T581 117T510 58Q459 27 398 13T255 -2L95 1ZM364 605Q342 605 328 602T303 591T287 567T275 528Q269 501 263 475T249 422Q232 352 218 293T194 188T179 112T174 70Q174 47 191 38T251 29Q387 29 474 100Q531 146 562 218T594 372Q594 483 534 544T364 605ZM313 864Q311 868 311 869Q311 872 316 876T323 881Q325 881 327 879T340 865Q348 856 372 830T424 774Q452 796 478 815T524 850T556 873T571 882Q573 882 577 878T581 871Q581 868 578 865T563 849Q541 827 524 809T492 776T464 745T435 712Q424 700 413 700Q407 700 403 701T395 706T387 721T373 751Q369 760 364 769T353 790Q348 799 344 808T335 825L321 852L313 864Z"  />
<glyph unicode="&#x10F;" horiz-adv-x="462" d="M444 162V143Q444 130 440 120T423 90Q356 -13 302 -13Q287 -13 278 -4T269 21Q269 25 270 31T275 58T290 122T319 245Q300 206 287 180T261 135T238 99T210 65Q142 -12 91 -12Q55 -12 33 18T11 96Q11 126 20 160T45 228T83 295T131 355Q167 393 201 410T270 427Q293 427 309 422T342 403Q350 442 357 479T369 546T378 598T381 626Q381 655 337 653Q324 653 320 654T316 660Q316 677 331 680L346 684Q354 686 361 687T377 690Q388 692 398 694T420 699Q443 704 450 705T462 707Q473 707 473 698Q473 696 473 693T469 678T460 641T441 570Q437 557 430 523T412 443T390 347T369 250T352 166T341 113Q339 103 338 94T334 74Q333 67 333 65T332 61Q332 56 337 56Q345 56 357 64T383 88T411 122T437 162H444ZM269 394Q243 394 215 373T158 312Q143 291 129 265T105 212T89 160T83 116Q83 87 93 69T122 51Q134 51 151 61T187 88T225 129T262 180Q292 228 309 268T326 332Q326 362 311 378T269 394ZM617 638Q617 597 592 564T530 516Q516 510 509 508T497 506Q494 506 492 508T488 512Q484 518 484 521Q484 523 491 525Q530 539 553 558T577 600Q577 613 571 622T553 637Q537 646 530 654T522 676Q522 690 532 699T564 709Q572 709 581 704T599 690Q617 670 617 638Z"  />
<glyph unicode="&#x110;" horiz-adv-x="703" d="M70 313Q65 313 65 315Q65 316 66 318L71 344Q72 349 76 349H154Q202 554 202 574Q202 594 187 601T128 609Q120 610 118 611T115 615Q115 634 127 634H143Q148 634 158 634T180 633T204 632T225 632Q231 632 236 632T249 632T273 632T317 634Q337 635 354 635T379 635Q448 635 494 623T580 583Q629 548 655 495T681 377Q681 328 669 281T635 193T581 117T510 58Q459 27 398 13T255 -2L95 1L11 -1Q6 -2 3 -2T-3 -2Q-12 -2 -12 5Q-12 15 -9 18T7 22Q38 24 55 34T81 64Q85 75 91 94T104 142T122 213T146 313H70ZM401 349Q405 349 405 346V343L399 318Q398 313 394 313H223Q209 256 200 215T185 146T177 99T174 70Q174 47 191 38T251 29Q387 29 474 100Q531 146 562 217T594 372Q594 483 534 544T364 605Q343 605 330 603T307 593T291 575T279 544Q274 529 263 483T231 349H401Z"  />
<glyph unicode="&#x111;" horiz-adv-x="462" d="M429 523Q423 496 415 459T397 381T379 298T363 220T349 155T341 113Q339 103 338 94T334 74Q333 67 333 65T332 61Q332 56 337 56Q345 56 357 64T383 88T411 122T437 162H444V143Q444 130 440 120T423 90Q356 -13 302 -13Q287 -13 278 -4T269 21Q269 25 270 31T275 58T290 122T319 245Q300 206 287 180T261 135T238 99T210 65Q142 -12 91 -12Q55 -12 33 18T11 96Q11 126 20 160T45 228T83 295T131 355Q167 393 201 410T270 427Q293 427 309 422T342 403Q348 435 354 465T365 523H224L232 558H371Q376 584 378 602T381 626Q381 655 337 653Q324 653 320 654T316 660Q316 677 331 680L346 684Q354 686 361 687T377 690Q388 692 398 694T420 699Q443 704 450 705T462 707Q473 707 473 698Q473 696 473 693T469 678T460 641T441 570Q439 565 438 558H503L496 523H429ZM269 394Q243 394 215 373T158 312Q143 291 129 265T105 212T89 160T83 116Q83 87 93 69T122 51Q134 51 151 61T187 88T225 129T262 180Q292 228 309 268T326 332Q326 362 311 378T269 394Z"  />
<glyph unicode="&#x112;" horiz-adv-x="574" d="M527 489Q528 500 528 511T529 530Q529 552 521 566T494 588T443 600T362 604Q303 604 297 602Q291 600 287 581Q285 569 283 557T276 533Q272 519 263 474T235 345Q305 345 344 346T405 353T436 372T458 411Q463 422 469 422Q482 422 482 415Q482 413 481 410T474 386Q466 356 461 337T452 301T445 268T438 228Q437 219 430 219Q415 219 415 228V233Q416 241 416 247T416 255Q416 281 404 293T363 309Q357 310 344 310T313 311T273 312T228 313Q213 241 204 197T190 128T184 90T182 69Q182 57 185 50T202 39T242 34T312 33Q359 33 386 39T436 61Q456 76 472 98T499 148Q504 162 509 162Q516 162 521 159T526 152Q526 148 523 137T515 112T504 80T490 47L481 26L477 15Q470 -2 460 -2H452Q447 -1 422 -1T361 0T286 1T214 1Q195 1 167 1T112 1T62 0T33 -1Q26 -2 21 -2T14 -2Q0 -2 -3 -1T-6 5Q-6 15 -3 18T10 22Q34 25 49 29T75 42T92 63T104 98Q121 171 138 250T170 396T193 510T202 566Q202 588 186 597T126 610Q113 611 113 617Q113 624 116 629T124 634H133Q142 633 172 633T244 632T333 631T425 631L577 632Q591 632 591 625Q591 619 588 613Q576 581 568 552T551 489Q549 480 548 478T541 476Q527 476 527 484V489ZM512 733Q511 728 508 728H269Q265 728 265 730V733L273 774Q274 779 278 779H517Q521 779 521 777V776L520 774L512 733Z"  />
<glyph unicode="&#x113;" horiz-adv-x="370" d="M311 120L317 112Q319 110 319 107Q319 103 310 91T286 65Q210 -11 134 -11Q84 -11 57 24T29 122Q29 183 48 239T98 338T172 406T260 432Q305 432 332 410T359 352Q359 311 327 278T239 227Q224 222 212 220T186 215T154 212T108 209Q103 189 102 177T101 150Q101 101 120 75T176 49Q243 49 308 120H311ZM112 227Q157 232 186 241T240 267Q263 283 277 307T292 356Q292 376 279 389T243 402Q199 402 165 356T112 227ZM383 540Q382 535 379 535H150Q146 535 146 537V541Q146 542 147 544L153 569Q154 574 158 574H387Q391 574 391 572Q391 572 389 564L387 556L383 540Z"  />
<glyph unicode="&#x114;" horiz-adv-x="574" d="M527 489Q528 500 528 511T529 530Q529 552 521 566T494 588T443 600T362 604Q303 604 297 602Q291 600 287 581Q285 569 283 557T276 533Q272 519 263 474T235 345Q305 345 344 346T405 353T436 372T458 411Q463 422 469 422Q482 422 482 415Q482 413 481 410T474 386Q466 356 461 337T452 301T445 268T438 228Q437 219 430 219Q415 219 415 228V233Q416 241 416 247T416 255Q416 281 404 293T363 309Q357 310 344 310T313 311T273 312T228 313Q213 241 204 197T190 128T184 90T182 69Q182 57 185 50T202 39T242 34T312 33Q359 33 386 39T436 61Q456 76 472 98T499 148Q504 162 509 162Q516 162 521 159T526 152Q526 148 523 137T515 112T504 80T490 47L481 26L477 15Q470 -2 460 -2H452Q447 -1 422 -1T361 0T286 1T214 1Q195 1 167 1T112 1T62 0T33 -1Q26 -2 21 -2T14 -2Q0 -2 -3 -1T-6 5Q-6 15 -3 18T10 22Q34 25 49 29T75 42T92 63T104 98Q121 171 138 250T170 396T193 510T202 566Q202 588 186 597T126 610Q113 611 113 617Q113 624 116 629T124 634H133Q142 633 172 633T244 632T333 631T425 631L577 632Q591 632 591 625Q591 619 588 613Q576 581 568 552T551 489Q549 480 548 478T541 476Q527 476 527 484V489ZM532 827Q537 827 537 827T538 824Q538 821 536 815T531 800T524 783T517 767Q501 736 471 719T395 702Q343 702 318 725T293 791Q293 801 294 811T297 825Q298 827 303 827H316Q321 827 322 824T323 806Q323 780 342 766T401 752Q445 752 471 768T508 815Q511 823 512 825T519 827H532Z"  />
<glyph unicode="&#x115;" horiz-adv-x="370" d="M311 120L317 112Q319 110 319 107Q319 103 310 91T286 65Q210 -11 134 -11Q84 -11 57 24T29 122Q29 183 48 239T98 338T172 406T260 432Q305 432 332 410T359 352Q359 311 327 278T239 227Q224 222 212 220T186 215T154 212T108 209Q103 189 102 177T101 150Q101 101 120 75T176 49Q243 49 308 120H311ZM112 227Q157 232 186 241T240 267Q263 283 277 307T292 356Q292 376 279 389T243 402Q199 402 165 356T112 227ZM395 634Q400 634 400 634T401 631Q401 628 399 622T394 607T387 590T380 574Q364 543 335 526T268 509Q223 509 200 532T176 598Q176 608 177 618T180 632Q181 634 186 634H199Q204 634 205 632T206 613Q206 587 224 573T274 559Q348 559 371 622Q374 630 375 632T382 634H395Z"  />
<glyph unicode="&#x116;" horiz-adv-x="574" d="M527 489Q528 500 528 511T529 530Q529 552 521 566T494 588T443 600T362 604Q303 604 297 602Q291 600 287 581Q285 569 283 557T276 533Q272 519 263 474T235 345Q305 345 344 346T405 353T436 372T458 411Q463 422 469 422Q482 422 482 415Q482 413 481 410T474 386Q466 356 461 337T452 301T445 268T438 228Q437 219 430 219Q415 219 415 228V233Q416 241 416 247T416 255Q416 281 404 293T363 309Q357 310 344 310T313 311T273 312T228 313Q213 241 204 197T190 128T184 90T182 69Q182 57 185 50T202 39T242 34T312 33Q359 33 386 39T436 61Q456 76 472 98T499 148Q504 162 509 162Q516 162 521 159T526 152Q526 148 523 137T515 112T504 80T490 47L481 26L477 15Q470 -2 460 -2H452Q447 -1 422 -1T361 0T286 1T214 1Q195 1 167 1T112 1T62 0T33 -1Q26 -2 21 -2T14 -2Q0 -2 -3 -1T-6 5Q-6 15 -3 18T10 22Q34 25 49 29T75 42T92 63T104 98Q121 171 138 250T170 396T193 510T202 566Q202 588 186 597T126 610Q113 611 113 617Q113 624 116 629T124 634H133Q142 633 172 633T244 632T333 631T425 631L577 632Q591 632 591 625Q591 619 588 613Q576 581 568 552T551 489Q549 480 548 478T541 476Q527 476 527 484V489ZM395 804Q409 804 423 790T437 760Q437 753 433 746T422 732T407 721T392 717Q385 717 378 721T364 731T354 744T350 758Q350 774 364 789T395 804Z"  />
<glyph unicode="&#x117;" horiz-adv-x="370" d="M311 120L317 112Q319 110 319 107Q319 103 310 91T286 65Q210 -11 134 -11Q84 -11 57 24T29 122Q29 183 48 239T98 338T172 406T260 432Q305 432 332 410T359 352Q359 311 327 278T239 227Q224 222 212 220T186 215T154 212T108 209Q103 189 102 177T101 150Q101 101 120 75T176 49Q243 49 308 120H311ZM112 227Q157 232 186 241T240 267Q263 283 277 307T292 356Q292 376 279 389T243 402Q199 402 165 356T112 227ZM273 611Q287 611 301 597T315 567Q315 560 311 553T300 539T285 528T270 524Q263 524 256 528T242 538T232 551T228 565Q228 581 242 596T273 611Z"  />
<glyph unicode="&#x118;" horiz-adv-x="574" d="M527 489Q528 500 528 511T529 530Q529 552 521 566T494 588T443 600T362 604Q303 604 297 602Q291 600 287 581Q285 569 283 557T276 533Q272 519 263 474T235 345Q305 345 344 346T405 353T436 372T458 411Q463 422 469 422Q482 422 482 415Q482 413 481 410T474 386Q466 356 461 337T452 301T445 268T438 228Q437 219 430 219Q415 219 415 228V233Q416 241 416 247T416 255Q416 281 404 293T363 309Q357 310 344 310T313 311T273 312T228 313Q213 241 204 197T190 128T184 90T182 69Q182 57 185 50T202 39T242 34T312 33Q359 33 386 39T436 61Q456 76 472 98T499 148Q504 162 509 162Q516 162 521 159T526 152Q526 148 523 137T515 112T504 80T490 47L477 15Q475 9 472 5T462 -5Q399 -53 399 -105Q399 -152 443 -152Q462 -152 487 -139H493L492 -144Q491 -152 491 -154T488 -158Q479 -168 456 -175T411 -183Q379 -183 359 -167T339 -122Q339 -63 440 -1Q426 -1 400 -1T342 0T276 1T214 1Q195 1 167 1T112 1T62 0T33 -1Q26 -2 21 -2T14 -2Q0 -2 -3 -1T-6 5Q-6 15 -3 18T10 22Q34 25 49 29T75 42T92 63T104 98Q121 171 138 250T170 396T193 510T202 566Q202 588 186 597T126 610Q113 611 113 617Q113 624 116 629T124 634H133Q142 633 172 633T244 632T333 631T425 631L577 632Q591 632 591 625Q591 619 588 613Q576 581 568 552T551 489Q549 480 548 478T541 476Q527 476 527 484V489Z"  />
<glyph unicode="&#x119;" horiz-adv-x="370" d="M311 120L317 112Q319 110 319 107Q319 103 310 91T286 65Q261 40 234 22Q216 10 199 -4T168 -34T146 -68T137 -105Q137 -152 181 -152Q200 -152 225 -139H231L230 -144Q229 -152 229 -154T226 -158Q217 -168 194 -175T149 -183Q117 -183 97 -167T77 -122Q77 -66 169 -7Q153 -11 134 -11Q84 -11 57 24T29 122Q29 183 48 239T98 338T172 406T260 432Q305 432 332 410T359 352Q359 311 327 278T239 227Q224 222 212 220T186 215T154 212T108 209Q103 189 102 177T101 150Q101 101 120 75T176 49Q243 49 308 120H311ZM112 227Q157 232 186 241T240 267Q263 283 277 307T292 356Q292 376 279 389T243 402Q199 402 165 356T112 227Z"  />
<glyph unicode="&#x11A;" horiz-adv-x="574" d="M527 489Q528 500 528 511T529 530Q529 552 521 566T494 588T443 600T362 604Q303 604 297 602Q291 600 287 581Q285 569 283 557T276 533Q272 519 263 474T235 345Q305 345 344 346T405 353T436 372T458 411Q463 422 469 422Q482 422 482 415Q482 413 481 410T474 386Q466 356 461 337T452 301T445 268T438 228Q437 219 430 219Q415 219 415 228V233Q416 241 416 247T416 255Q416 281 404 293T363 309Q357 310 344 310T313 311T273 312T228 313Q213 241 204 197T190 128T184 90T182 69Q182 57 185 50T202 39T242 34T312 33Q359 33 386 39T436 61Q456 76 472 98T499 148Q504 162 509 162Q516 162 521 159T526 152Q526 148 523 137T515 112T504 80T490 47L481 26L477 15Q470 -2 460 -2H452Q447 -1 422 -1T361 0T286 1T214 1Q195 1 167 1T112 1T62 0T33 -1Q26 -2 21 -2T14 -2Q0 -2 -3 -1T-6 5Q-6 15 -3 18T10 22Q34 25 49 29T75 42T92 63T104 98Q121 171 138 250T170 396T193 510T202 566Q202 588 186 597T126 610Q113 611 113 617Q113 624 116 629T124 634H133Q142 633 172 633T244 632T333 631T425 631L577 632Q591 632 591 625Q591 619 588 613Q576 581 568 552T551 489Q549 480 548 478T541 476Q527 476 527 484V489ZM298 864Q296 868 296 869Q296 872 301 876T308 881Q310 881 312 879T325 865Q333 856 357 830T409 774Q437 796 463 815T509 850T541 873T556 882Q558 882 562 878T566 871Q566 868 563 865T548 849Q526 827 509 809T477 776T449 745T420 712Q409 700 398 700Q392 700 388 701T380 706T372 721T358 751Q354 760 349 769T338 790Q333 799 329 808T320 825L306 852L298 864Z"  />
<glyph unicode="&#x11B;" horiz-adv-x="370" d="M311 120L317 112Q319 110 319 107Q319 103 310 91T286 65Q210 -11 134 -11Q84 -11 57 24T29 122Q29 183 48 239T98 338T172 406T260 432Q305 432 332 410T359 352Q359 311 327 278T239 227Q224 222 212 220T186 215T154 212T108 209Q103 189 102 177T101 150Q101 101 120 75T176 49Q243 49 308 120H311ZM112 227Q157 232 186 241T240 267Q263 283 277 307T292 356Q292 376 279 389T243 402Q199 402 165 356T112 227ZM276 571Q349 621 382 643T419 665Q422 665 426 661T430 654Q430 650 424 646Q412 637 401 626Q390 616 379 607T356 586Q343 574 330 562T303 537Q283 517 277 513T262 509Q247 509 240 528Q234 546 229 560T219 587T208 612T195 642Q191 651 191 653Q191 657 195 661T204 666Q208 666 214 656Q219 652 224 644Q236 625 251 607Q261 592 265 586T276 571Z"  />
<glyph unicode="&#x11C;" horiz-adv-x="666" d="M432 292Q442 291 465 291T509 290Q520 290 535 290T566 290T593 291T610 292L647 293Q655 293 655 288Q655 278 653 275T644 270Q627 266 617 262T601 249T590 224T581 181L566 100Q562 79 560 65T557 26Q557 18 554 15T539 10L523 7L495 2Q453 -5 424 -8T365 -11Q295 -11 239 9T144 66T84 156T63 276Q63 324 74 370T107 456T159 529T228 585Q326 643 454 643Q509 643 607 625Q610 624 614 624Q619 624 627 628Q630 631 635 631Q644 631 644 625Q644 620 643 618Q640 609 637 593T631 558T626 519T622 479Q622 469 614 469Q603 469 600 471T597 480Q597 540 584 557Q576 567 559 576T518 593T468 605T418 610Q373 610 331 595T258 550Q232 527 212 496T177 429T154 354T146 276Q146 220 163 173T212 91T287 37T380 17Q429 17 455 33T490 87Q494 105 498 126T506 169T512 206T515 230Q515 249 499 256T432 267Q415 267 415 275Q415 292 425 292H432ZM587 718Q589 714 589 713Q589 710 584 706T577 701Q575 701 573 703T560 717Q552 726 528 752T476 808Q448 786 422 767T376 732T344 709T329 700Q327 700 323 704T319 711Q319 714 322 717T337 733Q359 755 376 773T408 806T436 837T465 870Q476 882 487 882Q493 882 497 881T504 876T513 861T527 831Q531 822 536 813T547 792Q552 783 556 774T565 757L579 730L587 718Z"  />
<glyph unicode="&#x11D;" horiz-adv-x="388" d="M315 374Q323 357 325 344T328 313Q328 274 315 239T280 176T227 132T162 111Q145 101 138 92T130 71Q130 56 148 45Q153 42 157 40T168 34T187 26T222 11L271 -11Q336 -40 361 -63T387 -115Q387 -146 365 -174T304 -223T214 -256T107 -269Q28 -269 -20 -243T-68 -172Q-68 -129 -13 -91T145 -26Q107 -8 91 8T75 45Q75 62 87 77T128 113Q48 130 48 229Q48 271 60 308T92 373T140 417T199 433Q207 433 213 432T232 429L244 427Q276 425 299 424T351 420L398 415Q416 413 423 409T430 396Q430 382 424 373T407 363Q401 363 382 366L357 369L330 372L315 374ZM222 404Q202 404 181 385T143 335T115 267T104 195Q104 137 147 137Q180 137 214 184Q225 199 234 219T251 261T263 304T267 343Q267 372 255 388T222 404ZM170 -37Q2 -107 2 -160Q2 -175 12 -188T41 -211T84 -227T137 -233Q215 -233 272 -196Q293 -182 306 -165T319 -133Q319 -109 279 -88Q271 -84 266 -82T252 -76T230 -66T191 -47L170 -37ZM293 572Q291 574 287 580T271 601Q257 591 249 585T232 573T216 562T194 548Q186 543 178 538T162 528L145 516Q136 510 133 510Q130 510 126 514T121 521Q121 523 123 525T133 535Q158 557 176 572T210 601T237 628T265 656Q277 668 290 668Q298 668 302 662T316 631Q323 612 328 599T338 576T346 555T356 532Q359 526 359 523Q359 520 354 516T347 511Q342 511 333 523L319 540L293 572Z"  />
<glyph unicode="&#x11E;" horiz-adv-x="666" d="M432 292Q442 291 465 291T509 290Q520 290 535 290T566 290T593 291T610 292L647 293Q655 293 655 288Q655 278 653 275T644 270Q627 266 617 262T601 249T590 224T581 181L566 100Q562 79 560 65T557 26Q557 18 554 15T539 10L523 7L495 2Q453 -5 424 -8T365 -11Q295 -11 239 9T144 66T84 156T63 276Q63 324 74 370T107 456T159 529T228 585Q326 643 454 643Q509 643 607 625Q610 624 614 624Q619 624 627 628Q630 631 635 631Q644 631 644 625Q644 620 643 618Q640 609 637 593T631 558T626 519T622 479Q622 469 614 469Q603 469 600 471T597 480Q597 540 584 557Q576 567 559 576T518 593T468 605T418 610Q373 610 331 595T258 550Q232 527 212 496T177 429T154 354T146 276Q146 220 163 173T212 91T287 37T380 17Q429 17 455 33T490 87Q494 105 498 126T506 169T512 206T515 230Q515 249 499 256T432 267Q415 267 415 275Q415 292 425 292H432ZM585 827Q590 827 590 827T591 824Q591 821 589 815T584 800T577 783T570 767Q554 736 524 719T448 702Q396 702 371 725T346 791Q346 801 347 811T350 825Q351 827 356 827H369Q374 827 375 824T376 806Q376 780 395 766T454 752Q498 752 524 768T561 815Q564 823 565 825T572 827H585Z"  />
<glyph unicode="&#x11F;" horiz-adv-x="388" d="M315 374Q323 357 325 344T328 313Q328 274 315 239T280 176T227 132T162 111Q145 101 138 92T130 71Q130 56 148 45Q153 42 157 40T168 34T187 26T222 11L271 -11Q336 -40 361 -63T387 -115Q387 -146 365 -174T304 -223T214 -256T107 -269Q28 -269 -20 -243T-68 -172Q-68 -129 -13 -91T145 -26Q107 -8 91 8T75 45Q75 62 87 77T128 113Q48 130 48 229Q48 271 60 308T92 373T140 417T199 433Q207 433 213 432T232 429L244 427Q276 425 299 424T351 420L398 415Q416 413 423 409T430 396Q430 382 424 373T407 363Q401 363 382 366L357 369L330 372L315 374ZM222 404Q202 404 181 385T143 335T115 267T104 195Q104 137 147 137Q180 137 214 184Q225 199 234 219T251 261T263 304T267 343Q267 372 255 388T222 404ZM170 -37Q2 -107 2 -160Q2 -175 12 -188T41 -211T84 -227T137 -233Q215 -233 272 -196Q293 -182 306 -165T319 -133Q319 -109 279 -88Q271 -84 266 -82T252 -76T230 -66T191 -47L170 -37ZM360 634Q365 634 365 634T366 631Q366 628 364 622T359 607T352 590T345 574Q329 543 300 526T233 509Q188 509 165 532T141 598Q141 608 142 618T145 632Q146 634 151 634H164Q169 634 170 632T171 613Q171 587 189 573T239 559Q313 559 336 622Q339 630 340 632T347 634H360Z"  />
<glyph unicode="&#x120;" horiz-adv-x="666" d="M432 292Q442 291 465 291T509 290Q520 290 535 290T566 290T593 291T610 292L647 293Q655 293 655 288Q655 278 653 275T644 270Q627 266 617 262T601 249T590 224T581 181L566 100Q562 79 560 65T557 26Q557 18 554 15T539 10L523 7L495 2Q453 -5 424 -8T365 -11Q295 -11 239 9T144 66T84 156T63 276Q63 324 74 370T107 456T159 529T228 585Q326 643 454 643Q509 643 607 625Q610 624 614 624Q619 624 627 628Q630 631 635 631Q644 631 644 625Q644 620 643 618Q640 609 637 593T631 558T626 519T622 479Q622 469 614 469Q603 469 600 471T597 480Q597 540 584 557Q576 567 559 576T518 593T468 605T418 610Q373 610 331 595T258 550Q232 527 212 496T177 429T154 354T146 276Q146 220 163 173T212 91T287 37T380 17Q429 17 455 33T490 87Q494 105 498 126T506 169T512 206T515 230Q515 249 499 256T432 267Q415 267 415 275Q415 292 425 292H432ZM468 804Q482 804 496 790T510 760Q510 753 506 746T495 732T480 721T465 717Q458 717 451 721T437 731T427 744T423 758Q423 774 437 789T468 804Z"  />
<glyph unicode="&#x121;" horiz-adv-x="388" d="M315 374Q323 357 325 344T328 313Q328 274 315 239T280 176T227 132T162 111Q145 101 138 92T130 71Q130 56 148 45Q153 42 157 40T168 34T187 26T222 11L271 -11Q336 -40 361 -63T387 -115Q387 -146 365 -174T304 -223T214 -256T107 -269Q28 -269 -20 -243T-68 -172Q-68 -129 -13 -91T145 -26Q107 -8 91 8T75 45Q75 62 87 77T128 113Q48 130 48 229Q48 271 60 308T92 373T140 417T199 433Q207 433 213 432T232 429L244 427Q276 425 299 424T351 420L398 415Q416 413 423 409T430 396Q430 382 424 373T407 363Q401 363 382 366L357 369L330 372L315 374ZM222 404Q202 404 181 385T143 335T115 267T104 195Q104 137 147 137Q180 137 214 184Q225 199 234 219T251 261T263 304T267 343Q267 372 255 388T222 404ZM170 -37Q2 -107 2 -160Q2 -175 12 -188T41 -211T84 -227T137 -233Q215 -233 272 -196Q293 -182 306 -165T319 -133Q319 -109 279 -88Q271 -84 266 -82T252 -76T230 -66T191 -47L170 -37ZM243 611Q257 611 271 597T285 567Q285 560 281 553T270 539T255 528T240 524Q233 524 226 528T212 538T202 551T198 565Q198 581 212 596T243 611Z"  />
<glyph unicode="&#x122;" horiz-adv-x="666" d="M432 292Q442 291 465 291T509 290Q520 290 535 290T566 290T593 291T610 292L647 293Q655 293 655 288Q655 278 653 275T644 270Q627 266 617 262T601 249T590 224T581 181L566 100Q562 79 560 65T557 26Q557 18 554 15T539 10L523 7L495 2Q453 -5 424 -8T365 -11Q295 -11 239 9T144 66T84 156T63 276Q63 324 74 370T107 456T159 529T228 585Q326 643 454 643Q509 643 607 625Q610 624 614 624Q619 624 627 628Q630 631 635 631Q644 631 644 625Q644 620 643 618Q640 609 637 593T631 558T626 519T622 479Q622 469 614 469Q603 469 600 471T597 480Q597 540 584 557Q576 567 559 576T518 593T468 605T418 610Q373 610 331 595T258 550Q232 527 212 496T177 429T154 354T146 276Q146 220 163 173T212 91T287 37T380 17Q429 17 455 33T490 87Q494 105 498 126T506 169T512 206T515 230Q515 249 499 256T432 267Q415 267 415 275Q415 292 425 292H432ZM388 -129Q388 -170 363 -203T301 -251Q287 -257 280 -259T268 -261Q265 -261 263 -259T259 -255Q255 -249 255 -246Q255 -244 262 -242Q301 -228 324 -209T348 -167Q348 -154 342 -145T324 -130Q308 -121 301 -113T293 -91Q293 -77 303 -68T335 -58Q343 -58 352 -63T370 -77Q388 -97 388 -129Z"  />
<glyph unicode="&#x123;" horiz-adv-x="388" d="M315 374Q323 357 325 344T328 313Q328 274 315 239T280 176T227 132T162 111Q145 101 138 92T130 71Q130 56 148 45Q153 42 157 40T168 34T187 26T222 11L271 -11Q336 -40 361 -63T387 -115Q387 -146 365 -174T304 -223T214 -256T107 -269Q28 -269 -20 -243T-68 -172Q-68 -129 -13 -91T145 -26Q107 -8 91 8T75 45Q75 62 87 77T128 113Q48 130 48 229Q48 271 60 308T92 373T140 417T199 433Q207 433 213 432T232 429L244 427Q276 425 299 424T351 420L398 415Q416 413 423 409T430 396Q430 382 424 373T407 363Q401 363 382 366L357 369L330 372L315 374ZM222 404Q202 404 181 385T143 335T115 267T104 195Q104 137 147 137Q180 137 214 184Q225 199 234 219T251 261T263 304T267 343Q267 372 255 388T222 404ZM170 -37Q2 -107 2 -160Q2 -175 12 -188T41 -211T84 -227T137 -233Q215 -233 272 -196Q293 -182 306 -165T319 -133Q319 -109 279 -88Q271 -84 266 -82T252 -76T230 -66T191 -47L170 -37ZM186 582Q186 623 211 656T273 704Q287 710 294 712T306 714Q309 714 311 712T315 708Q319 702 319 699Q319 697 312 695Q273 681 250 662T226 620Q226 607 232 598T250 583Q266 574 273 566T281 544Q281 530 271 521T239 511Q231 511 222 516T204 530Q186 550 186 582Z"  />
<glyph unicode="&#x124;" horiz-adv-x="740" d="M567 352Q576 392 584 430T598 498T607 549T611 575Q611 595 596 602T539 612Q531 612 529 613T527 617Q527 634 538 634Q543 634 548 634T580 633L695 632Q706 632 719 632T757 633Q765 634 772 634T782 634Q792 634 792 629Q792 612 775 612Q755 611 741 608T717 597T701 577T688 545Q685 536 680 511T666 449T649 369T629 278Q617 219 610 182T599 123T594 87T592 63Q592 40 606 32T662 22Q670 21 672 20T674 16Q674 -2 660 -2Q658 -2 652 -2T639 -1Q622 0 583 0T495 1Q481 1 468 1T433 -1Q428 -2 423 -2T414 -2Q403 -2 403 4Q403 15 406 17T423 21Q456 23 473 31T499 56Q507 70 513 97T531 175Q538 209 545 243T560 313H223Q199 207 187 145T174 68Q174 43 189 33T248 21Q259 21 259 14Q259 -2 243 -2Q242 -2 240 -2T220 -1Q212 -1 201 -1T178 0T153 1T132 1Q127 1 124 1T107 0Q99 0 80 0T29 -2H6Q-8 -2 -8 3Q-8 14 -5 18T10 22Q34 22 49 26T74 42T92 79T109 143Q129 230 144 303T171 432T188 524T194 573Q194 600 166 607Q158 609 145 610T125 612Q115 612 115 619Q115 634 128 634Q130 634 132 634T148 633L254 632L341 633Q349 634 355 634T365 634Q375 634 375 627Q375 618 372 615T358 612Q323 610 307 601T279 569Q278 567 277 563T273 546T265 513T253 456L235 373L231 352H567ZM614 718Q616 714 616 713Q616 710 611 706T604 701Q602 701 600 703T587 717Q579 726 555 752T503 808Q475 786 449 767T403 732T371 709T356 700Q354 700 350 704T346 711Q346 714 349 717T364 733Q386 755 403 773T435 806T463 837T492 870Q503 882 514 882Q520 882 524 881T531 876T540 861T554 831Q558 822 563 813T574 792Q579 783 583 774T592 757L606 730L614 718Z"  />
<glyph unicode="&#x125;" horiz-adv-x="444" d="M132 691Q146 694 163 697T196 702T225 705T244 707Q255 707 255 698Q255 696 253 690Q249 681 240 650T218 576T193 484T169 389Q160 352 154 330T144 292T137 264T129 237Q183 333 239 384T347 435Q382 435 401 411T421 342Q421 286 402 224T352 111T285 26T216 -8Q203 -8 195 -3T187 12Q187 32 199 46T229 60H239Q244 59 248 59T255 59Q264 59 271 62T285 73T296 95T309 130Q330 198 340 243T350 317Q350 376 310 376Q278 376 243 346T176 267T118 154T80 23Q77 7 71 1T52 -6Q38 -6 28 1T18 20Q18 30 22 42Q31 75 45 128T74 244T103 372T129 491T148 584T156 632Q156 661 119 667Q108 668 108 675Q108 686 121 689L132 691ZM253 843Q251 845 247 851T231 872Q217 862 209 856T192 844T176 833T154 819Q146 814 138 809T122 799L105 787Q96 781 93 781Q90 781 86 785T81 792Q81 794 83 796T93 806Q118 828 136 843T170 872T197 899T225 927Q237 939 250 939Q258 939 262 933T276 902Q283 883 288 870T298 847T306 826T316 803Q319 797 319 794Q319 791 314 787T307 782Q302 782 293 794L279 811L253 843Z"  />
<glyph unicode="&#x126;" horiz-adv-x="740" d="M665 450Q657 414 648 370T629 278Q617 219 610 182T599 123T594 87T592 63Q592 40 606 32T662 22Q670 21 672 20T674 16Q674 -2 660 -2Q658 -2 652 -2T639 -1Q622 0 583 0T495 1Q481 1 468 1T433 -1Q428 -2 423 -2T414 -2Q403 -2 403 4Q403 15 406 17T423 21Q456 23 473 31T499 56Q507 70 513 97T531 175Q538 209 545 243T560 313H223Q199 207 187 145T174 68Q174 43 189 33T248 21Q259 21 259 14Q259 -2 243 -2Q242 -2 240 -2T220 -1Q212 -1 201 -1T178 0T153 1T132 1Q127 1 124 1T107 0Q99 0 80 0T29 -2H6Q-8 -2 -8 3Q-8 14 -5 18T10 22Q34 22 49 26T74 42T92 79T109 143Q130 238 147 315T175 450H82L92 489H182Q187 521 190 542T194 573Q194 600 166 607Q158 609 145 610T125 612Q115 612 115 619Q115 634 128 634Q130 634 132 634T148 633L254 632L341 633Q349 634 355 634T365 634Q375 634 375 627Q375 618 372 615T358 612Q323 610 307 601T279 569Q278 567 277 564T274 551T268 528T260 489H596Q603 523 607 546T611 575Q611 595 596 602T539 612Q531 612 529 613T527 617Q527 634 538 634Q543 634 548 634T580 633L695 632Q706 632 719 632T757 633Q765 634 772 634T782 634Q792 634 792 629Q792 612 775 612Q755 611 741 608T717 597T701 577T688 545Q683 531 674 489H763L754 450H665ZM567 352Q572 378 577 402T588 450H251L235 373L231 352H567Z"  />
<glyph unicode="&#x127;" horiz-adv-x="444" d="M203 523Q194 490 186 456T169 389Q160 352 154 330T144 292T137 264T129 237Q183 333 239 384T347 435Q382 435 401 411T421 342Q421 286 402 224T352 111T285 26T216 -8Q203 -8 195 -3T187 12Q187 32 199 46T229 60H239Q244 59 248 59T255 59Q264 59 271 62T285 73T296 95T309 130Q330 198 340 243T350 317Q350 376 310 376Q278 376 243 346T176 267T118 154T80 23Q77 7 71 1T52 -6Q38 -6 28 1T18 20Q18 30 22 42Q32 77 47 136T78 264T109 400T136 523H62L70 558H143Q149 587 152 606T156 632Q156 661 119 667Q108 668 108 675Q108 686 121 689L132 691Q146 694 163 697T196 702T225 705T244 707Q255 707 255 698Q255 696 253 690Q248 680 238 644T213 558H361L354 523H203Z"  />
<glyph unicode="&#x128;" horiz-adv-x="333" d="M246 -2Q239 -1 221 -1T179 0T131 1T86 1L7 -1Q2 -2 -2 -2T-9 -2Q-20 -2 -20 4Q-20 16 -16 18T16 23Q51 26 68 37T93 71Q99 89 109 129T130 221T153 329T174 434T190 519T196 568Q196 591 180 600T125 612Q116 612 116 618Q116 634 128 634Q131 634 136 634T167 633L254 632Q267 632 283 632T317 632T348 633T371 634H377Q386 634 386 628Q386 617 381 614T351 609Q317 607 302 594T278 547Q267 504 256 455T234 355T213 256T196 169T185 102T180 65Q180 45 195 36T251 23Q264 21 266 20T268 14Q268 -2 256 -2H246ZM444 816Q448 813 448 811Q448 809 445 806L435 792Q415 767 401 752T377 727T359 715T340 712Q328 712 315 717T282 737Q267 747 257 753T240 763T227 768T214 769Q177 769 138 717Q137 713 134 713Q132 713 129 716L124 720Q120 723 120 725Q120 728 128 739T156 775Q181 806 194 816T225 826Q231 826 235 825T248 821T268 809T304 787Q327 772 335 769T354 766Q363 766 370 768T386 777T404 793T429 821Q430 824 433 824Q435 824 435 824T440 820L444 816Z"  />
<glyph unicode="&#x129;" horiz-adv-x="240" d="M215 127V108Q215 101 210 94T190 72Q111 -11 63 -11Q30 -11 30 24Q30 42 49 99Q56 116 62 133T74 170Q106 262 122 309T141 364Q142 366 142 370Q142 374 138 374Q127 374 106 359T46 309H41V325Q41 330 44 335T64 356Q98 391 132 411T189 432Q201 432 208 425T216 407Q216 399 213 388T202 355Q197 342 189 319T172 272T156 228T147 202Q142 188 137 174T127 144Q123 132 121 127T119 121T118 119T117 116Q107 90 104 78T100 58Q100 51 107 51Q114 51 126 57T152 75T182 99T209 127H215ZM328 612Q332 609 332 608Q332 606 308 579Q282 548 265 536T232 523Q215 523 187 540Q172 550 163 555T147 564T135 568T123 569Q106 569 93 561T60 529Q56 525 55 525Q53 525 51 527L45 532Q42 535 42 537Q42 540 67 569Q91 597 108 609T140 622Q147 622 152 621T164 617T181 607T206 590Q227 575 250 575Q281 575 312 614Q314 619 318 619Q318 619 322 617L328 612Z"  />
<glyph unicode="&#x12A;" horiz-adv-x="333" d="M246 -2Q239 -1 221 -1T179 0T131 1T86 1L7 -1Q2 -2 -2 -2T-9 -2Q-20 -2 -20 4Q-20 16 -16 18T16 23Q51 26 68 37T93 71Q99 89 109 129T130 221T153 329T174 434T190 519T196 568Q196 591 180 600T125 612Q116 612 116 618Q116 634 128 634Q131 634 136 634T167 633L254 632Q267 632 283 632T317 632T348 633T371 634H377Q386 634 386 628Q386 617 381 614T351 609Q317 607 302 594T278 547Q267 504 256 455T234 355T213 256T196 169T185 102T180 65Q180 45 195 36T251 23Q264 21 266 20T268 14Q268 -2 256 -2H246ZM393 733Q392 728 389 728H150Q146 728 146 730V733L154 774Q155 779 159 779H398Q402 779 402 777V776L401 774L393 733Z"  />
<glyph unicode="&#x12B;" horiz-adv-x="240" d="M215 127V108Q215 101 210 94T190 72Q111 -11 63 -11Q30 -11 30 24Q30 42 49 99Q56 116 62 133T74 170Q106 262 122 309T141 364Q142 366 142 370Q142 374 138 374Q127 374 106 359T46 309H41V325Q41 330 44 335T64 356Q98 391 132 411T189 432Q201 432 208 425T216 407Q216 399 213 388T202 355Q197 342 189 319T172 272T156 228T147 202Q142 188 137 174T127 144Q123 132 121 127T119 121T118 119T117 116Q107 90 104 78T100 58Q100 51 107 51Q114 51 126 57T152 75T182 99T209 127H215ZM302 540Q301 535 298 535H69Q65 535 65 537V541Q65 542 66 544L72 569Q73 574 77 574H306Q310 574 310 572Q310 572 308 564L306 556L302 540Z"  />
<glyph unicode="&#x12C;" horiz-adv-x="333" d="M246 -2Q239 -1 221 -1T179 0T131 1T86 1L7 -1Q2 -2 -2 -2T-9 -2Q-20 -2 -20 4Q-20 16 -16 18T16 23Q51 26 68 37T93 71Q99 89 109 129T130 221T153 329T174 434T190 519T196 568Q196 591 180 600T125 612Q116 612 116 618Q116 634 128 634Q131 634 136 634T167 633L254 632Q267 632 283 632T317 632T348 633T371 634H377Q386 634 386 628Q386 617 381 614T351 609Q317 607 302 594T278 547Q267 504 256 455T234 355T213 256T196 169T185 102T180 65Q180 45 195 36T251 23Q264 21 266 20T268 14Q268 -2 256 -2H246ZM399 827Q404 827 404 827T405 824Q405 821 403 815T398 800T391 783T384 767Q368 736 338 719T262 702Q210 702 185 725T160 791Q160 801 161 811T164 825Q165 827 170 827H183Q188 827 189 824T190 806Q190 780 209 766T268 752Q312 752 338 768T375 815Q378 823 379 825T386 827H399Z"  />
<glyph unicode="&#x12D;" horiz-adv-x="240" d="M215 127V108Q215 101 210 94T190 72Q111 -11 63 -11Q30 -11 30 24Q30 42 49 99Q56 116 62 133T74 170Q106 262 122 309T141 364Q142 366 142 370Q142 374 138 374Q127 374 106 359T46 309H41V325Q41 330 44 335T64 356Q98 391 132 411T189 432Q201 432 208 425T216 407Q216 399 213 388T202 355Q197 342 189 319T172 272T156 228T147 202Q142 188 137 174T127 144Q123 132 121 127T119 121T118 119T117 116Q107 90 104 78T100 58Q100 51 107 51Q114 51 126 57T152 75T182 99T209 127H215ZM314 634Q319 634 319 634T320 631Q320 628 318 622T313 607T306 590T299 574Q283 543 254 526T187 509Q142 509 119 532T95 598Q95 608 96 618T99 632Q100 634 105 634H118Q123 634 124 632T125 613Q125 587 143 573T193 559Q267 559 290 622Q293 630 294 632T301 634H314Z"  />
<glyph unicode="&#x12E;" horiz-adv-x="333" d="M268 14Q268 5 266 3T259 -3Q228 -27 211 -50T193 -105Q193 -152 237 -152Q256 -152 281 -139H287L286 -144Q285 -152 285 -154T282 -158Q273 -168 250 -175T205 -183Q173 -183 153 -167T133 -122Q133 -63 234 -1Q223 -1 205 -1T167 0T125 1T86 1L7 -1Q2 -2 -2 -2T-9 -2Q-20 -2 -20 4Q-20 16 -16 18T16 23Q51 26 68 37T93 71Q99 89 109 129T130 221T153 329T174 434T190 519T196 568Q196 591 180 600T125 612Q116 612 116 618Q116 634 128 634Q131 634 136 634T167 633L254 632Q267 632 283 632T317 632T348 633T371 634H377Q386 634 386 628Q386 617 381 614T351 609Q317 607 302 594T278 547Q267 504 256 455T234 355T213 256T196 169T185 102T180 65Q180 45 195 36T251 23Q264 21 266 20T268 14Z"  />
<glyph unicode="&#x12F;" horiz-adv-x="240" d="M215 127V108Q215 101 210 94T190 72L165 47Q150 29 136 9T110 -31T91 -71T83 -105Q83 -152 127 -152Q146 -152 171 -139H177L176 -144Q175 -152 175 -154T172 -158Q163 -168 140 -175T95 -183Q63 -183 43 -167T23 -122Q23 -96 45 -66T96 -3Q77 -11 63 -11Q30 -11 30 24Q30 42 49 99Q56 116 62 133T74 170Q106 262 122 309T141 364Q142 366 142 370Q142 374 138 374Q127 374 106 359T46 309H41V325Q41 330 44 335T64 356Q98 391 132 411T189 432Q201 432 208 425T216 407Q216 399 213 388T202 355Q197 342 189 319T172 272T156 228T147 202Q142 188 137 174T127 144Q123 132 121 127T119 121T118 119T117 116Q107 90 104 78T100 58Q100 51 107 51Q114 51 126 57T152 75T182 99T209 127H215ZM207 653Q222 653 235 640T248 612Q248 596 235 583T205 569Q190 569 177 582T164 610Q164 626 177 639T207 653Z"  />
<glyph unicode="&#x130;" horiz-adv-x="333" d="M246 -2Q239 -1 221 -1T179 0T131 1T86 1L7 -1Q2 -2 -2 -2T-9 -2Q-20 -2 -20 4Q-20 16 -16 18T16 23Q51 26 68 37T93 71Q99 89 109 129T130 221T153 329T174 434T190 519T196 568Q196 591 180 600T125 612Q116 612 116 618Q116 634 128 634Q131 634 136 634T167 633L254 632Q267 632 283 632T317 632T348 633T371 634H377Q386 634 386 628Q386 617 381 614T351 609Q317 607 302 594T278 547Q267 504 256 455T234 355T213 256T196 169T185 102T180 65Q180 45 195 36T251 23Q264 21 266 20T268 14Q268 -2 256 -2H246ZM276 804Q290 804 304 790T318 760Q318 753 314 746T303 732T288 721T273 717Q266 717 259 721T245 731T235 744T231 758Q231 774 245 789T276 804Z"  />
<glyph unicode="&#x131;" horiz-adv-x="240" d="M215 127V108Q215 101 210 94T190 72Q111 -11 63 -11Q30 -11 30 24Q30 42 49 99Q56 116 62 133T74 170Q106 262 122 309T141 364Q142 366 142 370Q142 374 138 374Q127 374 106 359T46 309H41V325Q41 330 44 335T64 356Q98 391 132 411T189 432Q201 432 208 425T216 407Q216 399 213 388T202 355Q197 342 189 319T172 272T156 228T147 202Q142 188 137 174T127 144Q123 132 121 127T119 121T118 119T117 116Q107 90 104 78T100 58Q100 51 107 51Q114 51 126 57T152 75T182 99T209 127H215Z"  />
<glyph unicode="&#x132;" horiz-adv-x="648" d="M246 -2Q239 -1 221 -1T179 0T131 1T86 1L7 -1Q2 -2 -2 -2T-9 -2Q-20 -2 -20 4Q-20 16 -16 18T16 23Q51 26 68 37T93 71Q99 89 109 129T130 221T153 329T174 434T190 519T196 568Q196 591 180 600T125 612Q116 612 116 618Q116 634 128 634Q131 634 136 634T167 633L254 632Q267 632 283 632T317 632T348 633T371 634H377Q386 634 386 628Q386 617 381 614T351 609Q317 607 302 594T278 547Q267 504 256 455T234 355T213 256T196 169T185 102T180 65Q180 45 195 36T251 23Q264 21 266 20T268 14Q268 -2 256 -2H246ZM456 634Q469 633 505 633T586 632H618Q624 632 638 632T667 633T694 634T707 634Q718 634 718 629Q718 611 702 610Q676 607 660 604T633 592T616 571T605 537Q590 467 579 415T559 318T542 233T525 145Q514 83 504 41T482 -32T454 -86T416 -131Q384 -163 345 -181T267 -199Q241 -199 222 -186T203 -155Q203 -141 217 -129T248 -116Q254 -116 259 -118T277 -128Q307 -146 329 -146Q344 -146 355 -140T377 -117T396 -75T416 -9Q423 20 434 71T457 184T482 310T505 430T521 523T528 570Q528 592 511 601T450 611Q435 611 435 618Q435 634 445 634H456Z"  />
<glyph unicode="&#x133;" horiz-adv-x="480" d="M215 127V108Q215 101 210 94T190 72Q111 -11 63 -11Q30 -11 30 24Q30 42 49 99Q56 116 62 133T74 170Q106 262 122 309T141 364Q142 366 142 370Q142 374 138 374Q127 374 106 359T46 309H41V325Q41 330 44 335T64 356Q98 391 132 411T189 432Q201 432 208 425T216 407Q216 399 213 388T202 355Q197 342 189 319T172 272T156 228T147 202Q142 188 137 174T127 144Q123 132 121 127T119 121T118 119T117 116Q107 90 104 78T100 58Q100 51 107 51Q114 51 126 57T152 75T182 99T209 127H215ZM207 653Q222 653 235 640T248 612Q248 596 235 583T205 569Q190 569 177 582T164 610Q164 626 177 639T207 653ZM277 283V299Q277 304 283 312T304 338Q346 383 381 407T439 431Q463 431 463 407Q463 402 462 395T456 368T441 306T413 193Q408 172 403 150T392 104L372 9Q363 -32 355 -62T338 -116T319 -156T297 -190Q269 -225 233 -246T168 -268Q148 -268 134 -258T119 -234Q119 -222 128 -212T148 -201Q153 -201 156 -202T171 -210Q184 -217 193 -219T211 -222Q236 -222 251 -193Q257 -182 260 -173T268 -151T276 -117T288 -61Q295 -26 305 16T326 105T348 199T371 290L380 326L384 343Q385 345 385 348Q385 354 378 354Q367 354 340 335T280 284L277 283ZM442 652Q456 652 469 639T482 612Q482 597 469 584T440 570Q425 570 413 582T400 610Q400 625 413 638T442 652Z"  />
<glyph unicode="&#x134;" horiz-adv-x="315" d="M123 634Q136 633 172 633T253 632H285Q291 632 305 632T334 633T361 634T374 634Q385 634 385 629Q385 611 369 610Q343 607 327 604T300 592T283 571T272 537Q257 467 246 415T226 318T209 233T192 145Q181 83 171 41T149 -32T121 -86T83 -131Q51 -163 12 -181T-66 -199Q-92 -199 -111 -186T-130 -155Q-130 -141 -116 -129T-85 -116Q-79 -116 -74 -118T-56 -128Q-26 -146 -4 -146Q11 -146 22 -140T44 -117T63 -75T83 -9Q90 20 101 71T124 184T149 310T172 430T188 523T195 570Q195 592 178 601T117 611Q102 611 102 618Q102 634 112 634H123ZM394 718Q396 714 396 713Q396 710 391 706T384 701Q382 701 380 703T367 717Q359 726 335 752T283 808Q255 786 229 767T183 732T151 709T136 700Q134 700 130 704T126 711Q126 714 129 717T144 733Q166 755 183 773T215 806T243 837T272 870Q283 882 294 882Q300 882 304 881T311 876T320 861T334 831Q338 822 343 813T354 792Q359 783 363 774T372 757L386 730L394 718Z"  />
<glyph unicode="&#x135;" horiz-adv-x="240" d="M37 283V299Q37 304 43 312T64 338Q106 383 141 407T199 431Q223 431 223 407Q223 402 222 395T216 368T201 306T173 193Q168 172 163 150T152 104L132 9Q123 -32 115 -62T98 -116T79 -156T57 -190Q29 -225 -7 -246T-72 -268Q-92 -268 -106 -258T-121 -234Q-121 -222 -112 -212T-92 -201Q-87 -201 -84 -202T-69 -210Q-56 -217 -47 -219T-29 -222Q-4 -222 11 -193Q17 -182 20 -173T28 -151T36 -117T48 -61Q55 -26 65 16T86 105T108 199T131 290L140 326L144 343Q145 345 145 348Q145 354 138 354Q127 354 100 335T40 284L37 283ZM231 572Q229 574 225 580T209 601Q195 591 187 585T170 573T154 562T132 548Q124 543 116 538T100 528L83 516Q74 510 71 510Q68 510 64 514T59 521Q59 523 61 525T71 535Q96 557 114 572T148 601T175 628T203 656Q215 668 228 668Q236 668 240 662T254 631Q261 612 266 599T276 576T284 555T294 532Q297 526 297 523Q297 520 292 516T285 511Q280 511 271 523L257 540L231 572Z"  />
<glyph unicode="&#x136;" horiz-adv-x="629" d="M314 364Q366 280 402 222T464 127T505 68T534 37T558 25T585 21Q596 20 596 14Q596 -2 583 -2L511 -1H473H434Q415 -1 400 -1T371 -2H365Q352 -2 352 5Q352 15 356 17T380 21Q421 25 421 43Q421 47 420 50T414 63T397 90T364 141Q353 157 325 203T252 324L216 297Q201 221 192 178T179 112T174 80T173 65Q173 44 186 35T233 22Q256 20 260 19T264 14Q264 -2 253 -2Q246 -2 241 -1L157 1L32 -1Q24 -2 19 -2T11 -2Q0 -2 -3 -1T-6 3Q-6 14 -1 16T33 23Q60 27 73 41T95 88Q114 168 132 249T164 399T187 514T196 574Q196 593 181 601Q176 603 173 604T165 607T151 608T124 611Q114 611 114 617Q114 623 116 627T123 632L257 631Q284 631 305 631T340 632H358Q368 632 368 628Q368 625 367 620T364 613Q362 611 358 611T333 609Q304 606 292 593T271 547Q265 523 261 504T252 461T240 408T223 333Q228 336 241 346T273 371T313 402T353 433T388 460T412 479Q475 529 500 554T526 592Q526 600 518 603T490 608Q472 610 468 610T464 616Q464 631 475 631H479L506 630H540H571L649 631H673H679Q685 631 685 627Q685 610 670 609Q661 607 651 604T628 593T596 573T550 541L314 364ZM342 -129Q342 -170 317 -203T255 -251Q241 -257 234 -259T222 -261Q219 -261 217 -259T213 -255Q209 -249 209 -246Q209 -244 216 -242Q255 -228 278 -209T302 -167Q302 -154 296 -145T278 -130Q262 -121 255 -113T247 -91Q247 -77 257 -68T289 -58Q297 -58 306 -63T324 -77Q342 -97 342 -129Z"  />
<glyph unicode="&#x137;" d="M161 320Q260 431 352 431Q393 431 414 407T435 336Q435 260 372 234Q361 230 353 228T333 223T303 219T253 215Q263 166 275 133T308 68Q345 9 379 9Q404 9 404 30Q404 35 403 37T397 50Q395 56 395 60Q395 71 406 80T429 90Q443 90 451 81T459 57Q459 42 451 28T429 4T397 -13T358 -20Q294 -20 253 35T184 214H139L137 204L124 136L111 70L105 38Q102 21 100 15T96 4Q88 -10 69 -10Q53 -10 42 -1T30 20Q30 25 31 31T37 52Q40 61 42 70T48 92T55 122T64 163Q78 226 88 273T107 358T121 425T133 483T144 540T157 605L160 623Q161 628 161 631T162 637Q162 655 136 658Q134 659 134 659T128 659Q123 660 121 660T111 661Q102 661 102 668Q102 678 104 680T119 685Q182 698 209 703T241 708Q252 708 252 699Q252 697 249 688Q247 683 243 668T234 631T222 582T208 527Q188 445 169 354L161 320ZM143 230Q147 230 150 230T159 231T177 233T209 237Q262 242 299 253T350 280Q365 296 365 339Q365 383 326 383Q313 383 297 380T265 370T234 354T205 335Q179 313 165 289T143 230ZM248 -129Q248 -170 223 -203T161 -251Q147 -257 140 -259T128 -261Q125 -261 123 -259T119 -255Q115 -249 115 -246Q115 -244 122 -242Q161 -228 184 -209T208 -167Q208 -154 202 -145T184 -130Q168 -121 161 -113T153 -91Q153 -77 163 -68T195 -58Q203 -58 212 -63T230 -77Q248 -97 248 -129Z"  />
<glyph unicode="&#x138;" d="M58 98Q60 105 63 118T70 145T76 171T81 192Q89 227 94 252T102 294L113 348Q116 361 116 370Q116 386 105 391T67 398Q53 399 51 401T49 409Q49 422 67 422H77Q109 420 126 420T161 420Q167 420 183 420T224 421H252H267Q272 421 272 419T273 411Q273 397 254 397Q231 397 220 393T199 375Q194 367 188 347T173 284L158 214Q176 226 191 236T221 256T252 278T289 305Q336 340 351 357T366 384Q366 390 358 392T324 395Q310 396 310 403Q310 409 311 415T321 421L352 420H371H397Q406 420 423 420T457 421T488 422T504 423Q513 423 513 418Q513 412 512 407T505 401Q488 398 470 389T424 362T356 317T256 249Q258 245 260 243T266 236T273 226T286 210Q297 197 315 174T347 132Q390 72 415 48T462 21Q468 19 468 15Q468 10 466 5T458 -1L370 0H286Q279 0 279 5Q279 7 281 15Q282 19 284 20T295 22Q321 23 321 33Q321 36 315 45T301 65T284 87T269 106Q255 126 235 152T189 210L153 188L143 143Q136 110 132 89T128 54Q128 34 140 29T181 21Q187 20 187 13Q187 -1 176 -1H158Q146 0 121 0T74 1Q55 1 28 1T-18 -1H-22Q-29 -1 -29 8Q-29 15 -27 18T-6 26Q23 31 36 46T58 98Z"  />
<glyph unicode="&#x139;" horiz-adv-x="518" d="M277 2Q238 2 198 2T123 1T61 0T20 -1Q15 -2 10 -2T2 -2Q-4 -2 -4 4Q-4 15 -2 18T11 21Q38 22 54 26T80 45T99 86T118 160Q133 227 148 296T175 423T194 521T201 569Q201 591 184 600T123 611Q113 611 113 617Q113 634 123 634H135Q138 634 152 634T186 633T224 632T255 632Q268 632 286 632T321 632T352 633T369 634H375Q382 634 382 628Q382 619 379 616T364 610Q344 608 332 606T310 598T296 586T286 567Q282 557 273 519T252 428T228 316T205 206T188 116T181 69Q181 45 203 40Q218 36 282 36Q344 36 379 46T439 79Q456 94 466 112T487 159Q490 168 493 168Q500 168 505 165T511 157Q511 147 503 123T475 47Q468 30 464 21T458 7T453 1T446 0Q445 0 444 0T439 0T425 0T399 1Q382 2 366 2T336 2H277ZM233 710Q231 709 225 705T216 701Q214 701 213 702T209 704Q207 705 205 706T203 709Q203 710 206 713T213 718L347 834Q357 842 361 845T371 848Q378 848 405 839Q424 832 424 822Q424 811 407 803L233 710Z"  />
<glyph unicode="&#x13A;" horiz-adv-x="241" d="M221 139V125Q221 118 217 112T193 86Q145 35 113 12T58 -11Q43 -11 34 0T24 28Q24 42 27 60T41 116Q43 124 48 144T59 192T74 250T89 310Q97 342 105 373T121 436Q143 524 152 568T162 628Q162 644 152 650T106 663Q101 664 101 668Q101 682 114 683L140 688Q190 697 212 700T248 704Q257 704 257 697Q257 695 255 687Q251 676 243 645T223 569T197 472T170 366T143 261T120 170T104 105T98 76Q98 66 107 66Q121 66 151 86T215 139H221ZM177 787Q170 782 169 781T166 780Q164 780 162 781L156 782Q153 783 153 785Q153 786 153 786T159 792L281 923Q292 934 296 937T308 941Q310 941 321 940T340 936Q361 930 361 920Q361 914 358 910T343 898L177 787Z"  />
<glyph unicode="&#x13B;" horiz-adv-x="518" d="M277 2Q238 2 198 2T123 1T61 0T20 -1Q15 -2 10 -2T2 -2Q-4 -2 -4 4Q-4 15 -2 18T11 21Q38 22 54 26T80 45T99 86T118 160Q133 227 148 296T175 423T194 521T201 569Q201 591 184 600T123 611Q113 611 113 617Q113 634 123 634H135Q138 634 152 634T186 633T224 632T255 632Q268 632 286 632T321 632T352 633T369 634H375Q382 634 382 628Q382 619 379 616T364 610Q344 608 332 606T310 598T296 586T286 567Q282 557 273 519T252 428T228 316T205 206T188 116T181 69Q181 45 203 40Q218 36 282 36Q344 36 379 46T439 79Q456 94 466 112T487 159Q490 168 493 168Q500 168 505 165T511 157Q511 147 503 123T475 47Q468 30 464 21T458 7T453 1T446 0Q445 0 444 0T439 0T425 0T399 1Q382 2 366 2T336 2H277ZM297 -129Q297 -170 272 -203T210 -251Q196 -257 189 -259T177 -261Q174 -261 172 -259T168 -255Q164 -249 164 -246Q164 -244 171 -242Q210 -228 233 -209T257 -167Q257 -154 251 -145T233 -130Q217 -121 210 -113T202 -91Q202 -77 212 -68T244 -58Q252 -58 261 -63T279 -77Q297 -97 297 -129Z"  />
<glyph unicode="&#x13C;" horiz-adv-x="241" d="M221 139V125Q221 118 217 112T193 86Q145 35 113 12T58 -11Q43 -11 34 0T24 28Q24 42 27 60T41 116Q43 124 48 144T59 192T74 250T89 310Q97 342 105 373T121 436Q143 524 152 568T162 628Q162 644 152 650T106 663Q101 664 101 668Q101 682 114 683L140 688Q190 697 212 700T248 704Q257 704 257 697Q257 695 255 687Q251 676 243 645T223 569T197 472T170 366T143 261T120 170T104 105T98 76Q98 66 107 66Q121 66 151 86T215 139H221ZM113 -129Q113 -170 88 -203T26 -251Q12 -257 5 -259T-7 -261Q-10 -261 -12 -259T-16 -255Q-20 -249 -20 -246Q-20 -244 -13 -242Q26 -228 49 -209T73 -167Q73 -154 67 -145T49 -130Q33 -121 26 -113T18 -91Q18 -77 28 -68T60 -58Q68 -58 77 -63T95 -77Q113 -97 113 -129Z"  />
<glyph unicode="&#x13D;" horiz-adv-x="518" d="M277 2Q238 2 198 2T123 1T61 0T20 -1Q15 -2 10 -2T2 -2Q-4 -2 -4 4Q-4 15 -2 18T11 21Q38 22 54 26T80 45T99 86T118 160Q133 227 148 296T175 423T194 521T201 569Q201 591 184 600T123 611Q113 611 113 617Q113 634 123 634H135Q138 634 152 634T186 633T224 632T255 632Q268 632 286 632T321 632T352 633T369 634H375Q382 634 382 628Q382 619 379 616T364 610Q344 608 332 606T310 598T296 586T286 567Q282 557 273 519T252 428T228 316T205 206T188 116T181 69Q181 45 203 40Q218 36 282 36Q344 36 379 46T439 79Q456 94 466 112T487 159Q490 168 493 168Q500 168 505 165T511 157Q511 147 503 123T475 47Q468 30 464 21T458 7T453 1T446 0Q445 0 444 0T439 0T425 0T399 1Q382 2 366 2T336 2H277ZM557 563Q557 522 532 489T470 441Q456 435 449 433T437 431Q434 431 432 433T428 437Q424 443 424 446Q424 448 431 450Q470 464 493 483T517 525Q517 538 511 547T493 562Q477 571 470 579T462 601Q462 615 472 624T504 634Q512 634 521 629T539 615Q557 595 557 563Z"  />
<glyph unicode="&#x13E;" horiz-adv-x="241" d="M221 139V125Q221 118 217 112T193 86Q145 35 113 12T58 -11Q43 -11 34 0T24 28Q24 42 27 60T41 116Q43 124 48 144T59 192T74 250T89 310Q97 342 105 373T121 436Q143 524 152 568T162 628Q162 644 152 650T106 663Q101 664 101 668Q101 682 114 683L140 688Q190 697 212 700T248 704Q257 704 257 697Q257 695 255 687Q251 676 243 645T223 569T197 472T170 366T143 261T120 170T104 105T98 76Q98 66 107 66Q121 66 151 86T215 139H221ZM396 638Q396 597 371 564T309 516Q295 510 288 508T276 506Q273 506 271 508T267 512Q263 518 263 521Q263 523 270 525Q309 539 332 558T356 600Q356 613 350 622T332 637Q316 646 309 654T301 676Q301 690 311 699T343 709Q351 709 360 704T378 690Q396 670 396 638Z"  />
<glyph unicode="&#x13F;" horiz-adv-x="725" d="M277 2Q238 2 198 2T123 1T61 0T20 -1Q15 -2 10 -2T2 -2Q-4 -2 -4 4Q-4 15 -2 18T11 21Q38 22 54 26T80 45T99 86T118 160Q133 227 148 296T175 423T194 521T201 569Q201 591 184 600T123 611Q113 611 113 617Q113 634 123 634H135Q138 634 152 634T186 633T224 632T255 632Q268 632 286 632T321 632T352 633T369 634H375Q382 634 382 628Q382 619 379 616T364 610Q344 608 332 606T310 598T296 586T286 567Q282 557 273 519T252 428T228 316T205 206T188 116T181 69Q181 45 203 40Q218 36 282 36Q344 36 379 46T439 79Q456 94 466 112T487 159Q490 168 493 168Q500 168 505 165T511 157Q511 147 503 123T475 47Q468 30 464 21T458 7T453 1T446 0Q445 0 444 0T439 0T425 0T399 1Q382 2 366 2T336 2H277ZM608 364Q622 364 636 350T650 320Q650 313 646 306T635 292T620 281T605 277Q598 277 591 281T577 291T567 304T563 318Q563 334 577 349T608 364Z"  />
<glyph unicode="&#x140;" horiz-adv-x="373" d="M221 139V125Q221 118 217 112T193 86Q145 35 113 12T58 -11Q43 -11 34 0T24 28Q24 42 27 60T41 116Q43 124 48 144T59 192T74 250T89 310Q97 342 105 373T121 436Q143 524 152 568T162 628Q162 644 152 650T106 663Q101 664 101 668Q101 682 114 683L140 688Q190 697 212 700T248 704Q257 704 257 697Q257 695 255 687Q251 676 243 645T223 569T197 472T170 366T143 261T120 170T104 105T98 76Q98 66 107 66Q121 66 151 86T215 139H221ZM321 364Q335 364 349 350T363 320Q363 313 359 306T348 292T333 281T318 277Q311 277 304 281T290 291T280 304T276 318Q276 334 290 349T321 364Z"  />
<glyph unicode="&#x141;" horiz-adv-x="518" d="M375 634Q382 634 382 628Q382 619 379 616T364 610Q342 608 329 605T306 595T292 580T281 554Q275 531 271 513T262 474T252 429T238 367Q257 379 275 391T312 417Q326 426 334 431T350 442T366 453T388 468H393L387 446Q385 438 383 433T376 421T360 408T331 388Q284 357 262 341T228 317L223 296L219 274Q212 241 205 207T193 144T185 95T181 69Q181 45 203 40Q218 36 282 36Q344 36 379 46T439 79Q456 94 466 112T487 159Q490 168 493 168Q500 168 505 165T511 157Q511 147 503 123T475 47Q468 30 464 21T458 7T453 1T446 0Q445 0 444 0T439 0T425 0T399 1Q382 2 366 2T336 2H277Q238 2 198 2T123 1T61 0T20 -1Q15 -2 10 -2T2 -2Q-4 -2 -4 4Q-4 15 -2 18T11 21Q51 24 68 34T95 73Q100 88 103 101T112 135T124 189T144 278Q130 269 116 260T88 241Q73 230 59 221Q55 219 52 217T46 212H41L46 232Q48 241 50 246T57 258T73 271T102 291Q112 298 122 305T155 328Q172 411 181 456T195 524T200 554T201 569Q201 591 184 600T123 611Q113 611 113 617Q113 634 123 634H135Q138 634 152 634T186 633T225 632T256 632Q268 632 286 632T322 632T353 633T369 634H375Z"  />
<glyph unicode="&#x142;" horiz-adv-x="241" d="M221 122Q221 112 163 55Q94 -11 58 -11Q42 -11 33 0T24 29Q24 37 25 44T30 73T45 136T75 253Q79 269 82 284T90 314Q57 292 37 279T8 259H4L9 276Q12 284 14 289T20 299T31 309T50 323L101 359Q123 446 135 495T153 571T160 608T162 628Q162 643 152 650T112 662Q104 664 103 665T101 669Q101 682 114 683L140 688Q223 704 247 704Q257 704 257 697Q257 695 255 687Q249 666 245 650T233 605T212 527T177 394L198 408L245 440L263 452H267L263 435Q260 424 257 418T249 407Q246 405 240 400T226 390L195 369Q187 364 180 359T165 348Q163 339 162 333T159 322T156 311T151 295Q125 197 112 141T98 76Q98 66 107 66Q121 66 151 87T215 139H221V125V122Z"  />
<glyph unicode="&#x143;" horiz-adv-x="721" d="M254 633Q267 633 269 632Q272 630 276 624T292 595Q311 558 324 533T351 484T381 429T424 352Q454 298 474 261T509 196T534 150T552 113Q575 223 591 301T616 432T630 516T634 566Q634 589 617 599T555 610Q538 610 538 617Q538 634 548 634H552L610 633Q623 632 636 632T664 632Q675 632 693 632T730 632T766 633T793 634H796Q804 634 804 628Q804 617 799 614T765 609Q742 605 729 600T706 579T688 536T668 459Q645 365 627 285T597 146T578 50T573 6Q573 -2 573 -4T568 -8Q567 -9 562 -10T550 -12T537 -15T530 -16Q526 -16 524 -12T512 20Q501 48 465 117T369 293Q354 319 340 345T311 398Q296 425 286 443T269 474T255 499T240 523Q213 403 195 322T165 188T150 109T145 71Q145 57 152 46T170 29Q174 27 177 27T188 25T207 23T240 20Q246 19 247 18T249 14Q249 -2 237 -2Q234 -2 229 -2T218 -1Q198 0 175 0T115 1Q98 1 82 1T41 0L-1 -2H-13H-15Q-21 -2 -21 4Q-21 20 -9 21Q23 25 42 30T73 50T94 89T114 158Q120 178 130 218T152 311T180 430T210 564Q202 578 194 586T177 600T154 608T121 610Q111 610 111 615Q111 634 128 634H142Q167 633 180 633T213 633H238H254ZM422 710Q420 709 414 705T405 701Q403 701 402 702T398 704Q396 705 394 706T392 709Q392 710 395 713T402 718L536 834Q546 842 550 845T560 848Q567 848 594 839Q613 832 613 822Q613 811 596 803L422 710Z"  />
<glyph unicode="&#x144;" horiz-adv-x="518" d="M40 273V292Q40 303 42 309T54 334Q77 380 108 407T169 434Q186 434 196 425T207 402Q207 396 206 388T200 366T190 333T174 284Q170 272 167 264T161 246T153 221T140 181Q171 235 204 281T271 360T333 413T386 432Q440 432 440 361Q440 347 438 333T430 293T413 227T381 119Q376 104 373 92T370 77Q370 75 372 75Q377 75 389 85T418 112T451 148T483 187H488V172Q488 166 487 162T484 153T476 139T462 119Q419 59 380 24T316 -11Q292 -11 292 16Q292 23 293 32T300 55Q334 167 352 241T370 339Q370 368 345 368Q323 368 297 342T231 254Q215 230 199 201T168 143T141 84T119 30Q110 7 102 -2T78 -11Q67 -11 60 -5T52 10Q52 17 64 59T96 167Q119 241 132 290T146 348Q146 358 136 358Q119 358 98 338T45 272L40 273ZM291 516Q284 511 283 510T280 509Q278 509 276 510L270 511Q267 512 267 514Q267 515 267 515T273 521L395 652Q406 663 410 666T422 670Q424 670 435 669T454 665Q475 659 475 649Q475 643 472 639T457 627L291 516Z"  />
<glyph unicode="&#x145;" horiz-adv-x="721" d="M254 633Q267 633 269 632Q272 630 276 624T292 595Q311 558 324 533T351 484T381 429T424 352Q454 298 474 261T509 196T534 150T552 113Q575 223 591 301T616 432T630 516T634 566Q634 589 617 599T555 610Q538 610 538 617Q538 634 548 634H552L610 633Q623 632 636 632T664 632Q675 632 693 632T730 632T766 633T793 634H796Q804 634 804 628Q804 617 799 614T765 609Q742 605 729 600T706 579T688 536T668 459Q645 365 627 285T597 146T578 50T573 6Q573 -2 573 -4T568 -8Q567 -9 562 -10T550 -12T537 -15T530 -16Q526 -16 524 -12T512 20Q501 48 465 117T369 293Q354 319 340 345T311 398Q296 425 286 443T269 474T255 499T240 523Q213 403 195 322T165 188T150 109T145 71Q145 57 152 46T170 29Q174 27 177 27T188 25T207 23T240 20Q246 19 247 18T249 14Q249 -2 237 -2Q234 -2 229 -2T218 -1Q198 0 175 0T115 1Q98 1 82 1T41 0L-1 -2H-13H-15Q-21 -2 -21 4Q-21 20 -9 21Q23 25 42 30T73 50T94 89T114 158Q120 178 130 218T152 311T180 430T210 564Q202 578 194 586T177 600T154 608T121 610Q111 610 111 615Q111 634 128 634H142Q167 633 180 633T213 633H238H254ZM395 -129Q395 -170 370 -203T308 -251Q294 -257 287 -259T275 -261Q272 -261 270 -259T266 -255Q262 -249 262 -246Q262 -244 269 -242Q308 -228 331 -209T355 -167Q355 -154 349 -145T331 -130Q315 -121 308 -113T300 -91Q300 -77 310 -68T342 -58Q350 -58 359 -63T377 -77Q395 -97 395 -129Z"  />
<glyph unicode="&#x146;" horiz-adv-x="518" d="M40 273V292Q40 303 42 309T54 334Q77 380 108 407T169 434Q186 434 196 425T207 402Q207 396 206 388T200 366T190 333T174 284Q170 272 167 264T161 246T153 221T140 181Q171 235 204 281T271 360T333 413T386 432Q440 432 440 361Q440 347 438 333T430 293T413 227T381 119Q376 104 373 92T370 77Q370 75 372 75Q377 75 389 85T418 112T451 148T483 187H488V172Q488 166 487 162T484 153T476 139T462 119Q419 59 380 24T316 -11Q292 -11 292 16Q292 23 293 32T300 55Q334 167 352 241T370 339Q370 368 345 368Q323 368 297 342T231 254Q215 230 199 201T168 143T141 84T119 30Q110 7 102 -2T78 -11Q67 -11 60 -5T52 10Q52 17 64 59T96 167Q119 241 132 290T146 348Q146 358 136 358Q119 358 98 338T45 272L40 273ZM258 -129Q258 -170 233 -203T171 -251Q157 -257 150 -259T138 -261Q135 -261 133 -259T129 -255Q125 -249 125 -246Q125 -244 132 -242Q171 -228 194 -209T218 -167Q218 -154 212 -145T194 -130Q178 -121 171 -113T163 -91Q163 -77 173 -68T205 -58Q213 -58 222 -63T240 -77Q258 -97 258 -129Z"  />
</font>
</defs>
</svg>
