<?xml  version="1.0" encoding="UTF-8"?>
<!DOCTYPE svg PUBLIC "-//W3C//DTD SVG 1.0//EN" "http://www.w3.org/TR/2001/REC-SVG-20010904/DTD/svg10.dtd" >
<svg xmlns="http://www.w3.org/2000/svg" >
<metadata>
<version>1.0</version>
<id><![CDATA[Legacy Square ITC W01 Md]]></id>
<vendor>Monotype Imaging Inc.</vendor>
<credits>
<name>Fonts.com WebFonts</name>
<URL>http://webfonts.fonts.com</URL>
<role>Home of the Web fonts</role>
</credits>
<license>
<URL>http://webfonts.fonts.com/Legal</URL>
</license>
<copyright><![CDATA[Copyright 2009 International Typeface Corporation. All Rights Reserved.]]></copyright>
<trademark><![CDATA[ITC Legacy is a trademark of International Typeface Corporation registered in the U.S. Patent & Trademark Office and may be registered in certain jurisdictions.]]></trademark>
<licensee>
<name></name>
</licensee>
</metadata>
<defs >
<font horiz-adv-x="1097" id="bf935f5c-2735-4901-add6-66bd4df5110b">
<font-face font-family="" panose-1="2 6 6 4 6 4 8 2 3 3" ascent="1814" descent="-561" units-per-em="2048" alphabetic="0">
</font-face>
<missing-glyph horiz-adv-x="0" />

<glyph unicode="&#xA;" />
<glyph unicode="&#xD;" horiz-adv-x="0" />
<glyph unicode=" " horiz-adv-x="492" />
<glyph unicode="!" horiz-adv-x="676" d="M225 1298H453V1040L373 330H305L225 1040V1298ZM449 31Q449 17 441 9T418 0H262Q242 0 236 8T229 31V180Q229 194 238 202T262 211H418Q432 211 440 203T449 180V31Z"  />
<glyph unicode="&quot;" horiz-adv-x="866" d="M285 692H203L154 1149V1298H334V1147L285 692ZM664 692H582L532 1149V1298H713V1147L664 692Z"  />
<glyph unicode="#" horiz-adv-x="1104" d="M1118 934L1081 791H827L764 532H1018L981 389H729L633 0H524L621 389H371L274 0H168L264 389H8L43 532H301L362 791H106L143 934H399L487 1298H594L504 934H756L846 1298H950L862 934H1118ZM719 791H469L406 532H657L719 791Z"  />
<glyph unicode="$" horiz-adv-x="1106" d="M588 -244H500V4H469Q432 4 392 5T310 11T230 23T156 43Q150 44 146 57T140 86T137 119T135 143L121 297L221 315L254 193Q259 171 265 158T282 137T305 123T338 113Q378 100 418 98T500 96V571Q438 596 375 624T260 692T176 786T143 918Q143 994 172 1052T250 1152T364 1219T500 1253V1456H588V1257Q659 1257 725 1252T860 1235Q873 1233 879 1231T889 1226T892 1219T893 1206L907 1001L817 985Q809 1013 804 1041T793 1098Q787 1122 765 1135T712 1155T649 1163T588 1165V715Q689 670 758 635T871 563T933 479T952 365Q952 282 924 221T846 117T731 49T588 12V-244ZM500 1161Q457 1155 422 1140T361 1099T321 1040T307 961Q307 915 322 882T364 825T425 783T500 750V1161ZM588 98Q679 117 729 172T780 319Q780 366 765 399T723 457T661 500T588 535V98Z"  />
<glyph unicode="%" horiz-adv-x="1487" d="M668 965Q668 882 647 815T585 701T489 628T362 602Q292 602 236 628T140 703T79 817T57 965Q57 1041 77 1106T137 1220T232 1295T362 1323Q433 1323 489 1297T586 1223T647 1109T668 965ZM522 967Q522 1030 511 1080T479 1165T430 1218T367 1237Q297 1237 254 1168T211 967Q211 899 222 847T255 760T304 706T367 688Q400 688 428 705T477 757T510 844T522 967ZM352 -25H238L1128 1300H1243L352 -25ZM1430 338Q1430 255 1409 188T1347 74T1251 1T1124 -25Q1054 -25 998 1T902 76T841 190T819 338Q819 414 839 479T899 593T994 668T1124 696Q1195 696 1251 670T1348 596T1409 482T1430 338ZM1284 338Q1284 402 1273 452T1241 538T1192 591T1128 610Q1059 610 1016 540T973 338Q973 204 1016 133T1128 61Q1161 61 1189 78T1239 130T1272 217T1284 338Z"  />
<glyph unicode="&amp;" horiz-adv-x="1462" d="M1212 -25Q1159 -25 1117 -10T1040 33T972 100T907 186Q862 141 814 103T714 36T603 -9T477 -25Q393 -25 322 -6T197 57T114 166T84 328Q84 399 109 459T179 567T282 653T410 717Q378 740 347 762T289 811T247 876T231 967Q231 1040 261 1094T341 1185T453 1239T580 1257Q653 1257 714 1245T818 1202T885 1122T909 997Q909 950 890 910T837 837T759 778T664 733Q707 704 748 665T828 580T901 485T965 385Q986 414 1008 444T1051 502T1088 555T1116 602Q1128 626 1128 641Q1128 653 1118 659T1085 666H977V750H1425V684L1346 672Q1324 669 1310 663T1284 643Q1260 613 1229 571T1162 483T1090 391T1022 305Q1031 291 1041 276T1063 244Q1080 218 1101 191T1149 142T1206 105T1270 90Q1296 90 1316 95T1354 109T1388 132T1421 162L1432 160L1470 90Q1440 64 1412 43T1352 6T1287 -17T1212 -25ZM571 1169Q499 1169 457 1125T414 991Q414 958 421 932T446 883T497 836T580 784Q617 799 645 816T693 855T723 908T733 981Q733 1021 725 1055T697 1114T647 1154T571 1169ZM496 668Q437 642 396 611T329 541T291 457T279 356Q279 302 296 258T344 182T422 133T526 115Q622 115 700 153T852 266Q810 331 777 385T705 488T617 579T496 668Z"  />
<glyph unicode="&apos;" horiz-adv-x="487" d="M285 692H203L154 1149V1298H334V1147L285 692Z"  />
<glyph unicode="(" horiz-adv-x="614" d="M221 434Q221 330 231 242T261 78T310 -68T377 -203T461 -337T561 -479L496 -520Q401 -426 320 -317T179 -88T85 164T51 432Q51 568 81 695T168 942T308 1174T496 1393L563 1350Q471 1231 407 1127T301 916T240 693T221 434Z"  />
<glyph unicode=")" horiz-adv-x="614" d="M53 -479Q107 -405 153 -338T236 -204T303 -68T352 77T382 241T393 434Q393 577 374 693T314 915T207 1126T51 1350L119 1393Q224 1287 306 1175T446 943T533 696T563 432Q563 295 530 164T437 -87T296 -317T119 -520L53 -479Z"  />
<glyph unicode="*" horiz-adv-x="1100" d="M856 893L618 936L770 750L809 682L686 610L641 692L563 901L479 676L436 610L315 682L352 743L508 936L270 893H193V1034H270L508 993L348 1190L315 1245L436 1317L471 1262L563 1028L655 1264L686 1317L809 1245L780 1198L618 993L856 1034H932V893H856Z"  />
<glyph unicode="+" horiz-adv-x="1106" d="M616 586V219H487V586H123V715H487V1079H616V715H983V586H616Z"  />
<glyph unicode="&#x2c;" horiz-adv-x="567" d="M84 -319Q117 -291 151 -263T214 -203T261 -132T279 -45Q279 -22 271 -11T251 5T226 11T200 16T180 29T172 59V172Q172 192 182 200T213 209H360Q399 209 399 172V55Q399 -37 382 -96T330 -199T247 -283T135 -375L84 -319Z"  />
<glyph unicode="-" horiz-adv-x="676" d="M598 565L561 416L78 401L113 565H598Z"  />
<glyph unicode="." horiz-adv-x="567" d="M399 31Q399 18 390 9T369 0H199Q186 0 177 9T168 31V180Q168 193 177 202T199 211H369Q381 211 390 202T399 180V31Z"  />
<glyph unicode="/" horiz-adv-x="854" d="M784 1454L80 -367H-33L672 1454H784Z"  />
<glyph unicode="0" horiz-adv-x="1106" d="M559 1323Q667 1323 750 1278T892 1148T980 941T1010 662Q1010 499 979 371T888 155T742 21T547 -25Q438 -25 354 20T213 151T126 362T96 647Q96 722 104 801T134 954T189 1094T275 1210T396 1290T559 1323ZM803 655Q803 806 788 914T741 1091T662 1194T553 1227Q492 1227 446 1193T368 1087T320 906T303 645Q303 494 318 386T365 208T443 105T551 72Q674 72 738 213T803 655Z"  />
<glyph unicode="1" horiz-adv-x="1106" d="M236 76L399 96Q444 102 460 129T477 205L479 1008Q479 1054 471 1077T438 1100Q430 1100 420 1098T397 1090L250 1024H219V1108L580 1307H672V158Q672 146 673 135T679 116T693 102T721 96H920V0H236V76Z"  />
<glyph unicode="2" horiz-adv-x="1106" d="M1010 279L936 0H109V84Q146 121 187 164T272 252T357 342T436 427T504 500T555 557Q609 618 645 670T703 770T735 861T745 952Q745 1010 732 1057T691 1137T618 1188T508 1206Q451 1206 402 1191T324 1153Q304 1138 298 1123T291 1073Q290 1061 289 1046Q288 1033 287 1015T285 975L158 963Q148 1040 146 1073T143 1108Q143 1126 161 1149T209 1196T281 1242T368 1283T464 1312T561 1323Q649 1323 718 1301T836 1234T910 1126T936 979Q936 875 895 787T778 610Q732 556 687 510T589 412T467 299T307 156L782 164Q811 165 827 169T856 187T882 229T920 305L1010 279Z"  />
<glyph unicode="3" horiz-adv-x="1106" d="M956 430Q956 329 916 245T809 101T653 8T467 -25Q420 -25 371 -21T277 -3T193 37T127 109Q115 129 111 143T106 180Q106 206 113 215T141 236L199 264Q205 267 211 269T223 272Q229 272 235 269T244 258Q250 244 255 229T268 199Q303 134 358 107T485 80Q556 80 608 105T696 173T748 275T766 399Q766 454 753 499T713 578T643 629T543 647Q519 647 500 646T462 640T426 630T385 614Q382 612 376 610T363 605T350 600T340 598Q336 598 332 609T323 633T316 659T313 676Q313 682 318 685T328 690Q365 707 406 724T488 761T564 805T627 860T671 930T688 1020Q688 1117 642 1168T496 1219Q474 1219 450 1218T403 1211T358 1197T319 1174Q304 1160 299 1151T293 1120L289 1032Q257 1029 229 1028T172 1024L162 1096Q161 1101 161 1109T159 1125Q158 1134 158 1143Q158 1168 173 1185T205 1214Q282 1270 364 1296T541 1323Q607 1323 667 1311T774 1268T849 1186T877 1059Q877 1003 857 959T805 879T731 815T645 762Q717 754 774 729T872 662T934 562T956 430Z"  />
<glyph unicode="4" horiz-adv-x="1106" d="M1049 350H840V0H670V350H51V461L707 1298H840V481H1049V393V350ZM670 1106L186 481H670V1106Z"  />
<glyph unicode="5" horiz-adv-x="1106" d="M958 1298L924 1135H430L354 889Q373 883 392 879T432 870Q559 841 650 801T803 705Q869 645 898 574T928 406Q928 314 888 236T784 99T639 8T477 -25Q410 -25 358 -18T263 6T189 51T129 123Q120 138 118 150T113 178V205Q113 223 118 231T135 246Q158 258 173 267T205 285Q213 285 227 286T248 287Q253 268 258 253T270 223Q305 146 365 116T508 86Q560 86 604 105T681 158T731 239T750 342Q750 423 727 478T661 573T559 638T430 686Q385 700 337 711T231 733L215 754L377 1298H958Z"  />
<glyph unicode="6" horiz-adv-x="1106" d="M102 502Q103 626 135 740T225 951T364 1124T545 1251Q620 1288 700 1307T870 1327Q893 1327 904 1323T920 1307L948 1245L936 1223Q925 1223 915 1224T893 1225Q792 1225 698 1196T524 1104T387 941T303 696Q384 756 457 784T614 813Q689 813 754 790T869 717T946 594T975 420Q975 322 945 240T858 99T723 8T547 -25Q435 -25 352 14T213 124T130 291T102 502ZM297 520Q297 399 314 315T365 177T446 100T557 76Q610 76 651 97T721 159T765 257T780 387Q780 462 763 518T714 612T641 669T547 688Q529 688 500 684T436 668T365 637T297 590V520Z"  />
<glyph unicode="7" horiz-adv-x="1106" d="M1034 1298V1229L338 -31L197 6V29L860 1135H289Q268 1135 254 1133T231 1125T217 1107T207 1075L180 969L90 975L119 1298H1034Z"  />
<glyph unicode="8" horiz-adv-x="1106" d="M522 -25Q423 -25 345 -3T213 60T131 162T102 297Q102 372 135 436T231 555Q301 615 408 664Q338 697 290 732T212 806T169 888T156 979Q156 1057 185 1120T267 1229T395 1298T559 1323Q745 1323 843 1253T944 1032Q944 966 918 910T831 805Q802 780 764 757T676 709Q739 678 791 648T885 582Q936 535 965 476T995 334Q995 252 959 186T858 73T708 1T522 -25ZM541 1231Q485 1231 445 1215T377 1171T337 1105T324 1022Q324 966 350 923T415 845T503 787T596 743Q647 771 680 802T731 866T757 936T764 1012Q764 1112 709 1171T541 1231ZM479 621Q423 590 386 558T325 490T293 415T283 330Q283 274 298 226T344 144T423 90T539 70Q670 70 739 134T809 307Q809 349 797 385T750 458T649 534T479 621Z"  />
<glyph unicode="9" horiz-adv-x="1106" d="M975 801Q974 687 948 582T872 385T753 218T599 88T414 5T207 -25Q189 -25 178 -21T158 -8T143 17T129 55Q129 57 131 60T135 69Q138 74 141 80Q152 78 162 78T184 78Q295 78 395 113T574 217T705 386T772 616Q692 555 619 528T463 500Q389 500 324 522T209 590T131 709T102 883Q102 981 132 1063T219 1203T354 1294T530 1327Q642 1327 725 1288T864 1178T947 1012T975 801ZM782 811Q782 900 768 976T722 1108T640 1195T520 1227Q467 1227 426 1206T356 1144T312 1045T297 915Q297 841 314 787T363 696T436 643T530 625Q556 625 589 631T657 650T724 683T782 731V811Z"  />
<glyph unicode=":" horiz-adv-x="590" d="M410 31Q410 18 401 9T379 0H209Q197 0 188 9T178 31V180Q178 193 187 202T209 211H379Q391 211 400 202T410 180V31ZM410 684Q410 672 401 663T379 653H209Q197 653 188 662T178 684V834Q178 846 187 855T209 864H379Q391 864 400 855T410 834V684Z"  />
<glyph unicode=";" horiz-adv-x="590" d="M406 55Q406 -37 388 -96T337 -199T254 -283T141 -375L90 -319Q123 -291 157 -263T220 -203T267 -132T285 -45Q285 -22 277 -11T257 5T232 11T206 16T186 29T178 59V172Q178 192 188 200T219 209H367Q385 209 395 200T406 172V55ZM410 684Q410 672 401 663T379 653L209 655Q198 655 188 663T178 684V834Q178 846 187 855T209 864H379Q391 864 400 855T410 834V684Z"  />
<glyph unicode="&lt;" horiz-adv-x="1106" d="M170 588V713L958 1094V948L319 651L958 354V207L170 588Z"  />
<glyph unicode="=" horiz-adv-x="1106" d="M123 713V840H983V713H123ZM123 438V567H983V438H123Z"  />
<glyph unicode="&gt;" horiz-adv-x="1106" d="M147 207V354L786 651L147 948V1094L936 713V588L147 207Z"  />
<glyph unicode="?" horiz-adv-x="834" d="M416 25Q416 15 409 8T391 0H209Q198 0 191 7T184 25V184Q184 194 191 201T209 209H391Q402 209 409 202T416 184V25ZM766 897Q766 838 750 795T707 720T643 663T566 617T482 574T397 528Q376 514 364 502T345 474T337 441T334 397V309L260 303Q251 362 239 424T227 547Q227 565 231 577T244 604Q257 631 278 651T324 687T376 716T428 743Q487 775 526 799T588 846T620 894T629 954Q629 1010 609 1052T555 1122T475 1164T377 1178Q311 1178 283 1171T252 1143Q250 1130 250 1120T250 1098L135 1090L115 1262L131 1284Q153 1294 179 1301T233 1313T288 1320T340 1323Q424 1323 501 1288T637 1194T731 1058T766 897Z"  />
<glyph unicode="@" horiz-adv-x="1710" d="M1247 334Q1201 314 1153 305T1067 295Q1010 295 984 317T958 387Q958 399 959 415T964 453T973 504T987 575Q935 501 889 448T803 361T726 311T655 295Q589 295 549 349T508 500Q508 547 523 601T568 709T638 812T731 899Q764 924 797 942T866 974T945 998T1040 1016L1042 1034Q1042 1039 1044 1040T1057 1042H1184Q1190 1042 1190 1036Q1190 1034 1190 1028T1188 1013T1186 997T1184 983L1116 498Q1113 476 1111 463T1108 442T1107 428T1106 416Q1106 381 1141 381Q1170 381 1205 397T1270 438Q1302 466 1329 505T1375 591T1404 691T1415 799Q1415 893 1383 970T1290 1103T1147 1189T961 1219Q873 1219 792 1196T640 1131T511 1028T412 895T349 738T326 563Q326 310 494 182Q638 68 870 68Q960 68 1042 82T1196 125Q1204 129 1206 129Q1208 129 1212 124T1219 110T1226 91T1229 70Q1229 67 1228 65T1222 60T1205 51T1174 37Q1096 6 1014 -9T836 -25Q671 -25 543 20T326 147Q242 223 198 327T154 559Q154 734 227 883T434 1139Q544 1225 683 1274T971 1323Q1091 1323 1193 1292T1372 1204Q1418 1171 1455 1128T1518 1034T1559 927T1573 811Q1573 731 1551 658T1486 523T1383 413T1247 334ZM973 905Q917 905 863 872T767 783T698 658T672 516Q672 432 719 432Q748 432 783 456T864 528Q896 563 930 604T993 688L1010 805Q1013 820 1015 835T1018 868Q1018 887 1006 896T973 905Z"  />
<glyph unicode="A" horiz-adv-x="1341" d="M1366 0H866V76L979 96Q1012 102 1012 131Q1012 139 1010 148T1004 168Q981 242 956 315T905 461H391Q378 429 364 394T336 323T310 256T287 199Q277 176 272 160T266 131Q266 111 281 104T328 96H457V0H-10V76L59 96Q73 100 83 104T101 116T115 133T129 160L635 1298H811Q836 1227 867 1138T934 951T1008 747T1083 539T1156 339T1223 158Q1230 140 1235 128T1248 109T1265 99T1292 96H1366V0ZM872 551L670 1143Q654 1105 634 1056T591 953T546 843T501 733T461 633T428 551H872Z"  />
<glyph unicode="B" horiz-adv-x="1309" d="M1227 387Q1227 299 1200 236T1126 130T1017 60T886 19T744 1T604 -4Q537 -3 478 -2Q453 -2 427 -2T378 -1T335 0T303 0H106V76L207 96Q221 99 231 105T248 123T258 155T262 205V1169Q262 1194 257 1200T227 1206H109V1298H260Q363 1298 463 1300T666 1303Q780 1303 865 1288T1008 1239T1093 1148T1122 1010Q1122 941 1099 894T1039 815T960 762T879 727V725Q943 716 1005 697T1117 639T1197 540T1227 387ZM905 979Q905 1056 884 1102T824 1172T732 1204T614 1212Q603 1212 583 1212T542 1211T499 1210T465 1208V737H623Q666 737 699 740T758 752T805 772T842 801Q876 833 890 876T905 979ZM1008 383Q1008 452 986 509T907 600Q830 647 659 647H465V145Q465 111 475 103T508 94H666Q734 94 796 110T905 161T980 250T1008 383Z"  />
<glyph unicode="C" horiz-adv-x="1356" d="M1255 997L1149 991Q1149 995 1147 1013T1142 1053Q1138 1078 1135 1108Q1131 1131 1125 1146T1096 1171Q1067 1182 1006 1194T848 1206Q584 1206 450 1069T315 651Q315 524 351 420T456 240T623 124T844 82Q925 82 976 86T1058 100T1105 126T1135 168L1186 268L1276 238L1233 57Q1228 42 1220 36T1190 23Q1158 13 1115 4T1023 -11T919 -21T811 -25Q656 -25 525 16T299 138T151 340T98 621Q98 783 154 913T314 1134T561 1274T883 1323Q991 1323 1085 1311T1257 1280Q1265 1278 1272 1275T1280 1260Q1280 1256 1280 1249T1278 1229L1255 997Z"  />
<glyph unicode="D" horiz-adv-x="1563" d="M1462 668Q1462 587 1444 512T1391 370T1309 246T1200 141Q1141 96 1075 68T930 23T758 2T553 -4Q491 -4 431 -2T309 0H100V76L211 96Q240 102 251 121T262 190V1169Q262 1188 253 1197T227 1206H94V1298H391Q416 1298 460 1299T553 1302T648 1305T723 1307Q897 1307 1034 1273T1267 1164T1412 966T1462 668ZM1249 664Q1249 946 1115 1078T715 1210H606Q572 1210 539 1209T469 1206V143Q469 129 476 120T503 106T553 98T631 96Q776 96 891 128T1085 230T1207 406T1249 664Z"  />
<glyph unicode="E" horiz-adv-x="1247" d="M1167 305L1108 0H98V76L207 96Q236 102 249 125T262 205V1163Q262 1191 256 1198T223 1206H92L90 1298H1149Q1147 1277 1146 1265T1144 1242T1141 1218T1136 1181T1129 1118T1118 1018H1014L1004 1143Q1000 1175 985 1185T940 1198Q825 1203 711 1203T471 1204V727Q559 727 653 729T829 735Q851 736 865 739T886 751T898 771T905 801L920 885H1010V489H920L905 567Q902 584 898 595T887 614T865 625T829 629Q746 629 654 632T471 635V133Q471 111 477 105T496 98Q615 99 708 100T891 109Q922 110 942 114T976 129T999 156T1020 199L1071 328L1167 305Z"  />
<glyph unicode="F" horiz-adv-x="1186" d="M1104 1018H993L987 1149Q985 1175 970 1187T913 1200L467 1206V715Q505 716 542 716T620 717T709 718T817 721Q851 723 866 735T885 766L903 868H995V461H903L885 571Q882 588 866 601T817 614Q776 614 731 614T641 616T551 617T467 618V133Q467 110 473 103T508 96H674V0H96V76L211 96Q239 101 250 128T262 207V1161Q262 1177 261 1186T254 1199T241 1205T217 1206H88V1298H1130L1104 1018Z"  />
<glyph unicode="G" horiz-adv-x="1499" d="M872 1323Q923 1323 977 1321T1083 1315T1177 1304T1249 1290Q1258 1288 1262 1286T1269 1279T1271 1269T1272 1255L1290 987L1188 973L1157 1114Q1153 1130 1148 1140T1134 1158T1114 1170T1087 1180Q1042 1194 981 1202T842 1210Q707 1210 608 1174T445 1066T350 888T319 643Q319 495 355 387T462 209T638 106T881 72Q903 72 922 73T961 76T999 81T1042 90Q1074 98 1087 103T1100 121V522Q1100 550 1091 558T1057 567H907V664H1442V584L1366 569Q1331 561 1319 543T1307 481V41Q1245 26 1186 14T1066 -7T944 -20T815 -25Q648 -25 516 13T292 131T151 331T102 618Q102 785 161 916T324 1137T568 1275T872 1323Z"  />
<glyph unicode="H" horiz-adv-x="1624" d="M1559 0H995V76L1108 96Q1137 101 1149 123T1161 203V637H465V127Q465 111 469 104T496 96H653V0H88V76L199 96Q214 98 224 103T242 121T252 153T256 205V1178Q256 1198 250 1202T229 1206H84V1298H627L625 1227L522 1206Q507 1203 496 1199T478 1184T468 1155T465 1106V737H1161V1174Q1161 1192 1154 1199T1128 1206H981V1298H1532V1227L1423 1206Q1409 1204 1399 1199T1383 1182T1373 1152T1370 1106V129Q1370 112 1376 104T1403 96H1559V0Z"  />
<glyph unicode="I" horiz-adv-x="735" d="M670 0H84V76L205 96Q221 99 232 104T249 122T259 153T262 205V1169Q262 1189 255 1197T231 1206H82V1298H647V1227L535 1206Q503 1200 487 1180T471 1108V141Q471 113 480 105T510 96H670V0Z"  />
<glyph unicode="J" horiz-adv-x="721" d="M631 1227L532 1206Q514 1202 503 1197T485 1181T476 1152T473 1106V213Q473 126 466 64T445 -48T407 -137T352 -217Q320 -257 280 -290T196 -347T104 -384T8 -397Q-51 -397 -90 -382T-150 -346Q-158 -337 -161 -330T-164 -305Q-164 -291 -161 -284T-147 -270L-74 -199H-51Q-20 -231 17 -244T98 -258Q155 -258 186 -238Q214 -221 230 -193T252 -127Q257 -95 260 -63T264 2V1171Q264 1191 258 1198T233 1206H74V1298H631V1227Z"  />
<glyph unicode="K" horiz-adv-x="1374" d="M1382 0H856V76Q891 81 919 85Q943 89 963 92T983 96Q995 99 1002 104T1010 119Q1010 125 1007 133T993 152Q984 163 957 195T892 272T810 370T722 474T640 572T575 649L463 551V129Q465 110 472 103T502 96H659V0H96V74L209 94Q224 97 234 104T250 126T259 161T262 213V1188Q262 1196 257 1201T236 1206H82V1298H629V1227L514 1208Q501 1206 492 1200T476 1183T466 1153T463 1108V659Q496 689 536 726T619 804T707 888T794 972T873 1051T938 1118Q991 1171 991 1190Q991 1199 981 1203T948 1208H844V1298H1341V1227L1264 1210Q1233 1202 1205 1182T1157 1147Q1130 1124 1095 1094T1021 1030T940 961T859 891T783 825T719 768Q752 729 794 678T883 571T981 457T1078 342T1169 236T1247 147Q1272 118 1293 107T1333 96H1382V0Z"  />
<glyph unicode="L" horiz-adv-x="1135" d="M1130 317L1071 0H92V76L207 96Q223 99 234 105T251 123T261 155T264 205V1169Q264 1191 259 1198T233 1206H80V1298H641V1227L528 1206Q512 1203 501 1198T484 1181T474 1152T471 1106V143Q471 114 479 105T504 96Q561 97 608 98T696 100T775 102T852 106Q885 109 905 112T938 125T960 152T981 199L1034 336L1130 317Z"  />
<glyph unicode="M" horiz-adv-x="1907" d="M1833 0H1284V76L1405 96Q1427 99 1434 122T1442 205L1438 1161L934 16H838L381 1149L371 182Q371 156 372 140T379 113T392 100T416 96H563V0H80V76L182 96Q213 102 223 126T238 205Q240 259 244 332T252 489T261 662T268 836T274 1000T276 1139Q276 1173 267 1189T229 1206H106V1298H539L944 283Q976 355 1013 441T1090 620T1170 806T1249 988T1321 1156T1382 1298H1808V1227L1690 1206Q1675 1204 1664 1199T1647 1183T1637 1154T1634 1106L1640 147Q1640 120 1649 108T1686 96H1833V0Z"  />
<glyph unicode="N" horiz-adv-x="1608" d="M1526 1227Q1502 1222 1492 1220T1473 1217T1454 1214T1419 1208Q1387 1202 1372 1182T1356 1108Q1356 999 1354 868T1349 593T1342 299T1335 0H1214L377 1094Q378 897 380 719Q381 643 381 564T383 413T384 278T385 172Q385 128 396 112T440 96H594V0H80V76L182 96Q199 100 210 106T229 125T239 155T244 203Q246 316 248 444T253 697T257 938T260 1139Q260 1180 249 1193T205 1206H82V1298H469Q629 1088 773 899Q834 818 898 735T1022 573T1133 428T1221 315Q1221 393 1221 493T1220 703T1218 921T1214 1126Q1214 1151 1212 1166T1203 1191T1185 1203T1155 1206H1016V1298H1526V1227Z"  />
<glyph unicode="O" horiz-adv-x="1573" d="M1481 670Q1481 572 1459 483T1393 316T1286 175T1141 68Q1062 24 965 0T760 -25Q613 -25 491 23T280 159T142 367T92 633Q92 730 114 816T176 976T274 1110T403 1214Q494 1271 596 1297T821 1323Q964 1323 1085 1275T1294 1141T1431 934T1481 670ZM1262 618Q1262 692 1249 765T1210 907T1143 1033T1049 1135T926 1202T774 1227Q661 1227 575 1182T430 1062T341 888T311 684Q311 553 345 442T442 248T596 119T801 72Q903 72 988 112T1133 225T1228 398T1262 618Z"  />
<glyph unicode="P" horiz-adv-x="1223" d="M1151 915Q1151 840 1128 781T1064 676T968 598T850 546T717 516T580 506Q551 506 522 507T459 510V141Q459 115 465 106T489 96H666V0H84V76L195 96Q212 99 223 105T241 124T251 156T254 205V1178Q254 1206 225 1206H70V1298H334Q388 1298 429 1299T506 1301T576 1304T651 1305Q753 1305 844 1291T1003 1234T1111 1116T1151 915ZM936 924Q936 1011 915 1067T850 1155T744 1200T598 1212Q563 1212 529 1211T459 1210V606Q463 606 473 605T497 603T526 601T557 600Q655 600 726 618T844 676T913 777T936 924Z"  />
<glyph unicode="Q" horiz-adv-x="1575" d="M1556 -334Q1542 -341 1522 -347T1479 -358T1431 -366T1382 -369Q1277 -369 1178 -333T989 -231Q924 -185 867 -131T758 -20Q611 -20 489 27T279 161T141 368T92 633Q92 726 113 812T175 973T273 1109T403 1214Q494 1270 596 1296T821 1323Q964 1323 1085 1275T1294 1141T1431 934T1481 670Q1481 572 1458 483T1390 316T1283 176T1141 70Q1110 53 1076 39T1004 12Q1038 -25 1074 -59T1147 -125Q1186 -158 1227 -183T1316 -226T1418 -253T1542 -262L1556 -334ZM1262 618Q1262 732 1232 841T1140 1036T987 1174T774 1227Q593 1227 465 1102Q391 1030 351 924T311 684Q311 553 345 441T443 247T597 117T801 70Q903 70 988 111T1133 224T1228 397T1262 618Z"  />
<glyph unicode="R" horiz-adv-x="1348" d="M1399 18Q1397 0 1370 -9T1303 -18Q1214 -18 1147 2T1026 61T926 156T838 283Q796 351 762 423T696 569Q622 563 553 563Q531 563 510 564T467 565V129Q467 109 474 103T504 96H662V0H94V76Q108 78 127 81T163 88Q183 92 205 96Q224 99 235 106T253 125T260 157T262 205V1163Q262 1189 254 1197T219 1206H80V1298H276Q379 1298 480 1301T684 1305Q743 1305 801 1299T913 1279T1011 1240T1089 1177T1142 1086T1161 963Q1161 896 1141 842T1085 745T999 672T887 621Q907 573 930 521T981 416T1038 315T1102 225Q1168 144 1240 106T1403 66L1399 18ZM946 948Q946 1026 924 1077T861 1158T762 1200T633 1212Q589 1212 549 1210T467 1206V672Q502 666 537 664T610 662Q690 662 752 673T858 716T923 804T946 948Z"  />
<glyph unicode="S" horiz-adv-x="1112" d="M1036 365Q1036 259 991 185T872 64T705 -4T514 -25Q481 -25 441 -23T358 -17T274 -7T197 8Q177 12 166 15T149 24T141 36T137 57L115 295L229 317L266 182Q272 161 279 148T295 127T319 114T354 102Q438 78 532 78Q620 78 680 98T776 151T828 226T844 315Q844 357 833 390T788 455T696 517T543 586Q428 631 354 670T236 752T177 843T160 956Q160 1039 195 1107T292 1223T442 1297T633 1323Q727 1323 799 1317T934 1300Q939 1298 946 1298T959 1296T969 1290T973 1276L989 1042L883 1022L856 1145Q853 1160 848 1169T833 1183T812 1192T782 1200Q756 1206 710 1211T610 1217Q560 1217 513 1205T428 1166T367 1099T344 1001Q344 951 356 918T403 857T499 802T657 735Q778 687 852 644T967 557T1022 467T1036 365Z"  />
<glyph unicode="T" horiz-adv-x="1372" d="M1331 1298L1282 987L1174 991L1178 1137V1145Q1178 1163 1174 1173T1159 1190T1132 1198T1090 1202Q1025 1204 942 1204T772 1208V139Q772 110 778 103T807 96H977L979 0H385V76L500 96Q519 99 531 105T551 123T560 154T563 205V1208Q537 1208 500 1208T423 1207T344 1205T274 1202Q245 1201 225 1197T192 1183T170 1158T154 1120L113 985L14 1001L57 1298H1331Z"  />
<glyph unicode="U" horiz-adv-x="1522" d="M1483 1227L1389 1206Q1372 1202 1360 1197T1340 1182T1329 1153T1325 1106L1319 612Q1317 509 1308 430T1278 290T1226 182T1149 98Q1081 43 976 9T735 -25Q625 -25 545 -6T410 48T319 133T265 247T240 386T233 547V1157Q233 1172 232 1181T227 1196T214 1204T190 1206H66V1298H610V1227L504 1206Q486 1203 475 1198T457 1183T447 1154T444 1106V598Q444 529 445 466T457 350T488 252T550 178T651 130T803 113Q931 113 1019 160T1143 289Q1164 340 1177 426T1190 629V653L1184 1149Q1184 1184 1173 1195T1128 1206H1004V1298H1483V1227Z"  />
<glyph unicode="V" horiz-adv-x="1352" d="M1372 1229L1294 1208Q1283 1206 1276 1202T1261 1189T1246 1164T1225 1120L731 0H590L170 1147Q163 1166 158 1177T145 1195T127 1204T98 1206H27V1298H541V1227L428 1208Q389 1205 389 1167Q389 1156 391 1144T399 1114L711 211L1073 1112Q1081 1132 1085 1147T1090 1174Q1090 1192 1076 1199T1032 1206H897V1298H1372V1229Z"  />
<glyph unicode="W" horiz-adv-x="1995" d="M2023 1227L1942 1208Q1932 1206 1924 1201T1909 1187T1894 1162T1876 1124L1378 0H1239L1016 717Q982 638 941 541T859 346T778 158T709 0H569L164 1147Q159 1162 154 1173T142 1191T125 1202T96 1206H29V1298H524V1227Q510 1225 493 1221T459 1214Q440 1210 420 1206Q381 1200 381 1167Q381 1146 393 1106L686 205Q704 247 726 301T772 415T822 538T872 661T919 775T961 874L858 1159Q849 1184 837 1195T799 1206H715V1298H1214V1227L1108 1206Q1086 1201 1077 1193T1067 1165Q1067 1146 1079 1106L1360 201L1724 1116Q1731 1133 1735 1148T1739 1174Q1739 1191 1728 1198T1690 1206H1561V1298H2023V1227Z"  />
<glyph unicode="X" horiz-adv-x="1343" d="M485 0H6V76L72 98Q92 104 112 117T152 156L563 653L201 1163Q187 1183 173 1194T139 1206H72V1298H571V1227L481 1212Q444 1206 444 1184Q444 1176 449 1161T469 1124L698 782L979 1149Q988 1160 991 1169T995 1184Q995 1206 950 1206H834V1298H1296V1225L1227 1210Q1218 1208 1211 1206T1195 1197T1175 1180T1147 1151L762 702L1116 182Q1134 156 1146 140T1169 113T1192 100T1221 96H1286V0H752V76L868 96Q884 99 893 106T903 127Q903 136 900 148T885 176L625 563L334 184Q321 167 316 150T311 123Q311 96 352 96H485V0Z"  />
<glyph unicode="Y" horiz-adv-x="1225" d="M1237 1227L1174 1212Q1155 1207 1142 1196T1114 1163L715 578L717 133Q717 110 723 103T748 96H924V0H328V76L455 96Q474 99 484 108T500 132T507 165T508 205L510 553L127 1174Q115 1194 107 1200T80 1206H12V1298H496V1229L401 1212Q369 1206 369 1186Q369 1169 383 1147L655 666L934 1128Q954 1161 954 1182Q954 1196 944 1201T915 1206H811V1298H1237V1227Z"  />
<glyph unicode="Z" horiz-adv-x="1221" d="M1159 346L1087 0H53V76L918 1206Q880 1206 831 1205T728 1203T620 1201T517 1198T431 1195T373 1192Q347 1191 327 1188T293 1177T270 1157T254 1126L205 979L100 997L158 1298H1157V1217L293 96Q380 97 458 98T609 101T748 105T881 111Q906 112 923 117T954 131T976 155T993 190L1061 367L1159 346Z"  />
<glyph unicode="[" horiz-adv-x="641" d="M571 1309H328V-424H571V-512H178V1397H571V1309Z"  />
<glyph unicode="\" horiz-adv-x="854" d="M856 -367H729L27 1454H154L856 -367Z"  />
<glyph unicode="]" horiz-adv-x="641" d="M70 1397H463V-512H70V-424H313V1309H70V1397Z"  />
<glyph unicode="^" horiz-adv-x="1106" d="M838 690L553 1169L268 690H113L477 1298H627L993 690H838Z"  />
<glyph unicode="_" horiz-adv-x="956" d="M956 -313H0V-162H956V-313Z"  />
<glyph unicode="`" horiz-adv-x="1024" d="M236 1264V1296L385 1346L395 1341L635 995L563 981L236 1264Z"  />
<glyph unicode="a" horiz-adv-x="985" d="M999 82Q999 70 994 62T971 45Q949 33 919 21T856 -2T792 -20T735 -27Q687 -27 662 -6T625 63Q586 48 544 33T459 5T373 -15T289 -23Q230 -23 190 -8T126 38T92 110T82 207Q82 254 95 287T133 343T189 381T260 406Q357 430 442 447T618 479Q620 505 620 535T621 592Q621 638 614 674T587 735T535 773T449 786Q426 786 397 784T343 774T299 755T281 721Q281 702 281 677T283 631L139 612Q137 625 134 642T127 676T122 709T119 739Q119 753 132 761T156 776Q233 827 328 858T516 889Q590 889 645 876T736 832T791 748T809 618Q809 509 805 400T801 180Q801 166 801 152T806 127T820 109T848 102Q880 102 918 118T991 150L999 145V82ZM618 391Q558 382 507 372T416 351T352 332T319 317Q298 299 292 277T285 227Q285 194 288 169T304 127T338 101T399 92Q453 92 509 108T614 145L618 391Z"  />
<glyph unicode="b" horiz-adv-x="1153" d="M1071 473Q1071 327 1009 227T838 61Q762 16 674 -4T489 -25Q420 -25 346 -15T205 14Q196 16 191 19T184 28T181 44T180 72V1223Q180 1269 173 1287T147 1305Q142 1305 138 1305T127 1303L41 1278L18 1362L305 1454H377L373 784Q457 829 534 859T692 889Q781 889 851 860T970 777T1045 646T1071 473ZM868 426Q868 493 856 553T815 660T738 734T616 762Q578 762 548 757T489 743T433 720T373 692V184Q373 164 375 152T381 131T393 118T412 109Q449 96 490 90T573 84Q653 84 709 109T800 180T852 288T868 426Z"  />
<glyph unicode="c" horiz-adv-x="889" d="M844 786Q844 774 841 768T831 754L760 680L723 678Q712 703 692 718T644 741T584 751T516 754Q448 754 402 737T327 683T286 592T274 461Q274 375 294 311T349 203T434 137T543 115Q582 115 615 120T680 135T743 161T809 199L819 193L829 145Q831 140 831 137T831 131Q831 116 811 100Q718 31 628 3T467 -25Q376 -25 305 2T183 82T107 209T80 379Q80 443 94 500T135 607T198 700T279 776Q347 829 428 859T596 889Q632 889 675 884T755 868T818 836T844 786Z"  />
<glyph unicode="d" horiz-adv-x="1163" d="M1137 43L829 -35H776V88Q681 34 606 6T455 -23Q384 -23 317 3T198 81T114 207T82 381Q82 516 132 607T276 768Q352 823 430 848T606 874Q657 874 696 869T782 850L784 1231Q784 1260 779 1274T758 1288Q755 1288 751 1288T741 1286L651 1253L629 1331L903 1454H975L958 160Q958 140 963 125T989 109Q992 109 996 110T1004 111L1137 131V43ZM784 662Q771 689 745 708T686 739T616 756T543 762Q474 762 424 739T340 674T292 570T276 434Q276 382 290 325T338 219T423 140T551 109Q579 109 604 111T655 121T711 139T778 168L784 662Z"  />
<glyph unicode="e" horiz-adv-x="936" d="M287 416Q291 352 307 295T355 195T438 126T559 100Q637 100 699 124T819 186Q829 184 831 184H836L854 133Q856 128 857 124T858 117Q858 109 853 105T838 94Q796 67 756 46T673 8T585 -16T487 -25Q387 -25 313 4T188 88T113 223T88 406Q88 511 119 599T207 751T340 851T508 887Q579 887 638 867T741 808T815 714T856 588Q858 576 859 561T862 532T863 506T864 487L287 416ZM664 555Q653 673 607 734T479 795Q437 795 401 777T339 724T298 636T283 514V502L664 555Z"  />
<glyph unicode="f" horiz-adv-x="674" d="M913 1327Q913 1296 899 1282L831 1217H799Q782 1262 743 1284T637 1307Q572 1307 530 1293T463 1245T428 1154T418 1010V862H709V748H418V131Q418 108 424 102T451 96H594V0H96V76L186 96Q214 102 221 122T229 190V748H94V836L229 860V954Q230 1008 235 1052T253 1135T291 1211T354 1290Q393 1331 432 1360T514 1408T601 1435T698 1444Q743 1444 778 1437T837 1420T877 1397T901 1374Q907 1365 910 1356T913 1327Z"  />
<glyph unicode="g" horiz-adv-x="1053" d="M479 889Q507 889 535 888T592 881Q595 880 604 878T623 872T641 867T651 864Q738 864 828 866T1006 868V752H801Q818 729 830 708T850 664T862 614T866 553Q866 469 837 412T758 313Q724 286 684 265T600 227T510 197T418 172Q409 169 396 166T370 158T348 145T338 125Q338 106 343 94T362 73T402 58T469 45Q515 37 562 31T657 20Q694 16 734 11T812 -3T886 -27T947 -65T988 -123T1004 -205Q1004 -253 982 -295T925 -372T852 -432T778 -473Q684 -518 582 -539T377 -561Q343 -561 304 -558T225 -546T149 -523T84 -485T40 -430T23 -354Q23 -313 38 -281T78 -224T135 -180T201 -143Q273 -105 352 -72Q314 -64 281 -56T223 -32T183 10T168 82Q168 142 223 166Q255 181 289 194T358 219Q304 228 260 246T178 303Q130 351 109 410T88 535Q88 617 119 682T204 794T329 864T479 889ZM690 506Q690 554 678 606T638 702T568 773T463 801Q412 801 376 782T315 730T280 657T268 573Q268 522 282 471T326 379T401 313T508 287Q513 287 517 287T526 289Q690 341 690 506ZM844 -254Q844 -235 842 -221T831 -190Q820 -168 791 -155T726 -134T656 -122T600 -115L459 -96Q388 -128 338 -155T256 -207T210 -259T195 -317Q195 -362 226 -388T302 -427T395 -445T475 -449Q503 -449 541 -445T620 -430T701 -405T773 -368T824 -318T844 -254Z"  />
<glyph unicode="h" horiz-adv-x="1190" d="M1171 0H694V76L778 96Q793 100 803 104T818 120T825 151T827 205V432Q827 503 824 562T809 655Q795 696 763 722T668 748Q590 748 521 722T389 664V139Q389 110 395 103T420 96H551V0H66L63 76L154 96Q167 99 176 104T191 121T198 153T201 207L199 1219Q199 1261 193 1277T170 1294Q159 1294 143 1288L59 1257L31 1341L313 1454H389V752Q426 774 471 798T566 841T664 874T756 887Q820 887 866 873T942 830T989 758T1010 657Q1013 620 1014 580T1016 500V141Q1016 125 1016 116T1020 103T1031 97T1051 96H1171V0Z"  />
<glyph unicode="i" horiz-adv-x="584" d="M412 1208Q412 1194 404 1185T383 1176H244Q231 1176 222 1185T213 1206V1333Q213 1346 221 1356T244 1366H383Q397 1366 404 1357T412 1333V1208ZM571 0H70V76L166 96Q182 100 191 105T206 120T213 146T215 190V666Q215 695 210 709T188 723Q177 723 162 717L68 684L47 762L326 895H406V129Q406 106 413 101T436 96H571V0Z"  />
<glyph unicode="j" horiz-adv-x="565" d="M412 1210Q412 1198 404 1188T383 1178H244Q231 1178 222 1187T213 1208V1335Q213 1348 221 1358T244 1368H383Q397 1368 404 1359T412 1337V1210ZM401 895V-31Q401 -79 399 -124T388 -212T362 -295T315 -375Q283 -418 241 -454T150 -514Q122 -528 93 -535T35 -543Q24 -543 9 -542T-22 -539T-54 -531T-82 -518Q-99 -507 -107 -499T-115 -475V-459Q-98 -436 -80 -413T-45 -367H-20Q3 -390 29 -400T86 -410Q129 -410 158 -392T197 -330Q205 -299 208 -259T211 -172V662Q211 683 205 697T182 711Q179 711 173 711T164 709L59 672L37 752L326 895H401Z"  />
<glyph unicode="k" horiz-adv-x="1063" d="M1069 96V0H637V76L705 88Q733 94 733 109Q733 117 728 125T715 143L467 436L375 369V145Q375 124 380 110T414 96H524V0H53V76L143 96Q166 101 176 119T186 186V1227Q186 1264 180 1279T158 1294Q154 1294 145 1292T125 1288T107 1283T96 1280L41 1262L20 1346L309 1454H375V467L682 717Q694 728 705 740T717 762Q717 773 709 774T688 776H600V864H1030V795L961 782Q947 779 930 770T885 741L598 532L946 141Q961 125 972 116T995 103T1019 97T1049 96H1069Z"  />
<glyph unicode="l" horiz-adv-x="584" d="M557 0H63L61 76L154 96Q169 99 178 104T194 121T202 153T205 207V1188Q205 1244 198 1267T168 1290Q163 1290 156 1289T141 1286L61 1260L39 1339L319 1454H393V135Q393 112 403 104T428 96H557V0Z"  />
<glyph unicode="m" horiz-adv-x="1749" d="M1729 0H1264V76Q1288 81 1306 85Q1322 89 1335 92T1348 96Q1362 99 1371 105T1385 122T1393 152T1395 199V451Q1395 514 1392 570T1374 662Q1356 708 1322 726T1239 745Q1202 745 1169 736T1104 712T1042 676T981 635Q984 601 985 558T987 469V135Q987 113 993 105T1022 96H1128V0H662V76L750 96Q774 102 786 128T799 199V436Q799 487 797 534T786 623Q781 647 773 669T749 708T712 735T657 745Q616 745 584 737T522 714T460 679T391 635V131Q391 108 394 102T420 96H532V0H63L66 76L156 96Q188 104 195 127T203 199V657Q203 691 197 705T176 719Q171 719 166 718T154 715L66 682L41 762L319 895H397Q396 890 395 871Q393 854 392 820T387 725Q447 769 496 799T588 849T671 878T754 887Q797 887 832 874T893 838T938 784T967 715Q1014 752 1060 784T1152 838T1239 874T1321 887Q1407 887 1458 859T1538 781T1574 664T1583 518V135Q1583 106 1589 101T1618 96H1729V0Z"  />
<glyph unicode="n" horiz-adv-x="1176" d="M1155 0H682V76L774 96Q786 98 794 104T808 121T815 151T817 199V496Q817 539 815 583T798 662T752 720T664 743Q629 743 598 737T534 717T468 683T395 637V131Q395 108 400 102T428 96H545V0H70V76L156 96Q171 100 181 106T196 123T203 153T205 201V676Q205 702 199 712T180 723Q171 723 156 717L68 682L41 760L315 893H397L389 723Q446 765 495 796T590 847T676 877T760 887Q821 887 863 872T933 829T976 766T998 688T1006 602T1008 514V135Q1008 121 1008 113T1012 102T1021 97T1038 96H1155V0Z"  />
<glyph unicode="o" horiz-adv-x="1135" d="M1047 446Q1047 342 1011 255T907 106T746 10T537 -25Q435 -25 353 6T211 95T120 235T88 420Q88 522 125 608T228 756T388 854T592 889Q695 889 779 857T922 767T1014 627T1047 446ZM838 397Q838 478 819 550T764 677T675 763T555 795Q493 795 445 773T364 711T314 616T297 494Q297 407 314 330T365 194T453 102T580 68Q641 68 689 92T770 160T820 264T838 397Z"  />
<glyph unicode="p" horiz-adv-x="1167" d="M1067 475Q1067 347 1016 253T864 84Q796 33 720 13T555 -8Q512 -8 471 -3T387 12V-401Q387 -418 392 -424T416 -430H571L573 -524H63V-451L145 -434Q173 -428 186 -410T199 -348V657Q199 689 194 705T172 721Q167 721 162 721T150 717L57 678L31 758L311 897H395L389 782Q425 801 464 820T543 855T624 879T705 889Q796 889 864 858T977 772T1044 640T1067 475ZM883 426Q883 497 868 557T818 661T731 729T602 754Q543 754 492 739T387 700V154Q437 131 484 120T584 109Q670 109 727 127T819 185T868 284T883 426Z"  />
<glyph unicode="q" horiz-adv-x="1124" d="M1100 -428V-524H618V-449L735 -428Q767 -422 774 -406T782 -352V80Q741 57 703 41T625 13T545 -4T459 -10Q371 -10 302 17T184 96T110 226T84 403Q84 516 131 606T255 759T430 855T633 889Q723 889 802 879T950 850Q966 847 969 841T973 817L971 -389Q971 -414 976 -421T1001 -428H1100ZM569 770Q426 770 357 694T287 465Q287 399 300 337T343 227T422 150T543 121Q580 121 609 122T665 130T720 147T782 176V651Q782 673 781 688T775 714T765 731T748 743Q713 760 671 765T569 770Z"  />
<glyph unicode="r" horiz-adv-x="852" d="M827 799Q827 789 826 779T819 756L766 655H721Q716 702 698 717T651 733Q619 733 591 721T534 684T472 620T397 526V143Q397 128 398 119T405 104T421 98T449 96H598V0H72V76L160 96Q175 100 185 105T200 124T207 158T209 215V670Q209 704 204 716T184 729Q179 729 174 729T160 725L72 694L45 770L303 899H395L383 639L389 637Q427 686 456 723T522 799Q544 820 565 837T609 865T657 883T715 889Q735 889 755 883T791 866T817 837T827 799Z"  />
<glyph unicode="s" horiz-adv-x="838" d="M760 231Q760 180 743 141T696 74T627 27T545 -4T457 -20T371 -25Q351 -25 314 -23T237 -17T162 -8T109 4Q102 7 100 11T96 29L78 213L190 236Q191 231 195 215T204 181Q209 160 215 135Q221 111 237 98T278 78T333 70T399 68Q431 68 463 74T522 96T565 136T582 201Q582 228 575 248T554 284T521 311T477 334Q452 346 426 356T371 377Q291 408 239 432T156 484T113 544T100 627Q100 701 133 751T219 832T336 876T463 889Q523 889 576 884T686 868Q694 866 700 864T709 854Q712 842 713 828T717 801L729 672L625 651L604 733Q599 756 588 769T557 788T510 796T442 799Q411 799 381 792T326 769T286 728T270 666Q270 643 275 627T294 597T331 570T393 541Q447 518 502 500T610 457Q685 423 722 371T760 231Z"  />
<glyph unicode="t" horiz-adv-x="727" d="M684 57Q624 23 552 0T410 -23Q337 -23 291 -4T219 52T184 141T174 258Q174 382 178 503T188 750L68 748V811Q92 832 125 862T193 926T262 992T319 1049H377L367 862H705V748Q638 748 576 749Q522 749 465 749T365 750Q361 638 358 530T354 309Q354 268 358 231T378 166T420 121T494 104Q524 104 547 107T593 118T637 135T686 158L690 156L705 117Q710 106 711 99T713 88Q713 79 707 72T684 57Z"  />
<glyph unicode="u" horiz-adv-x="1153" d="M1137 49L860 -23H782L786 109Q745 81 702 57T613 14T519 -14T420 -25Q345 -25 298 -2T223 63T186 160T176 281Q176 384 178 486T184 690Q184 712 180 724T154 737Q126 735 100 732T47 727L41 805L295 881H377Q373 789 369 700Q367 662 366 622T364 541T363 464T362 395Q362 311 368 256T390 168T435 122T510 109Q552 109 588 114T656 130T720 156T786 190V721Q786 739 781 749T754 760H641V846L887 881H975V178Q975 143 977 131T993 119Q998 119 1003 119T1014 121L1137 137V49Z"  />
<glyph unicode="v" horiz-adv-x="918" d="M940 795L891 780Q878 777 870 772T853 754T836 723T811 672L485 0H371L74 731Q68 745 62 760T37 776H-10V864H381V795L297 778Q277 773 270 768T262 752Q262 734 279 692L479 176L700 696Q705 709 710 724T715 752Q715 766 708 771T686 776H602V864H940V795Z"  />
<glyph unicode="w" horiz-adv-x="1438" d="M1454 793L1407 780Q1385 774 1373 760T1346 711L1014 0H895Q875 62 853 129T808 262T765 384T729 485L481 0H360L123 694Q114 721 108 737T95 762T83 773T66 776H16V864H416V793L336 780Q319 777 311 770T303 748Q303 738 305 727T313 700L477 182L680 618L645 723Q634 752 627 764T600 776H555V864H950L948 793L860 780Q845 777 837 771T829 745Q829 730 834 706T852 643L1006 182L1208 694Q1225 733 1225 754Q1225 765 1218 770T1194 776H1110V864H1454V793Z"  />
<glyph unicode="x" horiz-adv-x="989" d="M952 793L903 780Q897 777 890 773Q884 769 876 763T860 748L592 463L842 117Q851 103 864 99T891 94L942 96V0H522V76L598 92Q621 99 621 113Q621 121 615 133T596 164L465 358L311 162Q303 151 293 137T283 111Q283 104 288 100T307 96H381V0H23V76L86 92Q101 95 113 109T137 135L401 430L164 741Q151 758 141 767T119 776H72V864H467V793Q462 792 451 790T427 786Q413 783 397 780Q367 774 367 760Q367 752 372 742T389 717L526 530L680 715Q689 726 698 739T707 762Q707 770 700 774T674 778H616V864H952V793Z"  />
<glyph unicode="y" horiz-adv-x="934" d="M944 793Q930 789 919 786Q909 784 902 782T893 780Q884 778 877 774T862 758T841 726T811 670L489 39Q424 -88 365 -214T240 -465Q236 -473 230 -484T215 -507T198 -527T178 -535Q168 -535 154 -532T123 -523T93 -512T68 -504L63 -477Q150 -362 227 -244T373 2L80 737Q69 763 58 769T29 776H0V864H406V793L319 780Q302 777 295 771T287 750Q287 739 291 723T303 684L479 197L688 668Q694 682 703 705T713 748Q713 762 706 769T680 776H604V864H944V793Z"  />
<glyph unicode="z" horiz-adv-x="885" d="M846 244L774 0H51V76L608 770L262 764Q239 764 229 755T209 725L170 625L80 639L127 864H834V797L270 94L647 106Q670 106 685 121T711 156L766 268L846 244Z"  />
<glyph unicode="{" horiz-adv-x="651" d="M211 -147Q211 -111 211 -71T213 11T214 90T215 160Q215 229 205 275T170 350T107 391T12 403V485Q69 485 108 497T170 534T204 601T215 700Q215 733 215 776T213 866T212 958T211 1040Q211 1131 228 1198T288 1309T398 1376T569 1399V1315Q509 1314 471 1299T410 1256T378 1189T369 1100V702Q369 657 355 617T313 543T242 484T143 446Q259 420 314 348T369 160V-211Q369 -322 416 -373T569 -426V-510Q473 -509 405 -489T294 -425T231 -313T211 -147Z"  />
<glyph unicode="|" horiz-adv-x="512" d="M193 -410V1638H319V-410H193Z"  />
<glyph unicode="}" horiz-adv-x="651" d="M440 -147Q440 -244 420 -312T357 -424T246 -488T82 -510V-426Q188 -424 235 -373T283 -211V160Q283 275 337 347T508 446Q452 459 410 484T339 542T297 616T283 702V1100Q283 1149 274 1188T243 1256T181 1299T82 1315V1399Q184 1398 252 1376T363 1310T422 1198T440 1040Q440 1003 440 958T438 867T437 777T436 700Q436 642 446 601T480 535T543 497T639 485V403Q583 403 544 391T481 351T447 276T436 160Q436 128 436 90T438 11T439 -70T440 -147Z"  />
<glyph unicode="~" horiz-adv-x="1106" d="M727 518Q676 518 628 538T534 582T444 627T356 647Q308 647 266 615T184 512L104 565Q128 621 160 662T227 731T296 771T360 784Q425 784 476 764T573 719Q593 709 614 698T656 678T700 663T745 657Q767 657 789 662T833 681T877 722T922 791L1004 737Q975 675 942 633T873 566T800 529T727 518Z"  />
<glyph unicode="&#xA0;" horiz-adv-x="492" />
<glyph unicode="&#xA1;" horiz-adv-x="676" d="M453 -434H223V-176L303 535H373L453 -176V-434ZM227 834Q227 848 235 856T258 864H416Q434 864 441 856T449 834V684Q449 670 440 662T416 653H258Q246 653 237 661T227 684V834Z"  />
<glyph unicode="&#xA2;" horiz-adv-x="1106" d="M588 983Q535 975 499 951T441 888T410 795T401 674Q401 609 415 556T453 462T512 396T588 358V983ZM588 1270H672V1118Q684 1120 696 1120T723 1120Q755 1120 788 1118T853 1108T909 1089T952 1059Q963 1046 967 1038T971 1018Q971 1005 969 999T958 985L887 911H858Q832 953 783 968T672 985V346Q710 346 743 351T807 366T870 393T936 432L946 424L958 371Q958 369 959 367T961 362Q961 353 955 347T938 334Q869 281 802 253T672 215V0H588V207Q499 208 428 235T308 315T233 445T207 623Q207 748 260 847T414 1020Q497 1079 588 1104V1270Z"  />
<glyph unicode="&#xA3;" horiz-adv-x="1106" d="M981 68Q935 20 882 -2T758 -25Q693 -25 631 -16T504 6Q467 14 433 19T365 25Q336 25 306 20T244 0L217 -10Q214 -12 209 -14T199 -16Q192 -16 186 -10L141 57Q139 59 139 63Q139 70 144 72T154 80Q168 91 187 106T223 137Q261 174 288 224T315 342Q315 392 306 439T279 549H86V653H256Q239 724 228 780T217 891Q217 994 264 1081T403 1233Q463 1275 538 1299T688 1323Q736 1323 788 1315T886 1283T961 1220T993 1118Q993 1115 990 1109T975 1098Q951 1087 931 1077Q914 1069 896 1062T870 1051L850 1055Q830 1136 775 1172T645 1208Q575 1208 527 1189T448 1133T405 1046T391 930Q391 864 408 795T444 653H737V549H467Q473 524 477 506T484 472T488 443T489 416Q489 347 458 282T354 145L358 137Q406 150 446 156T524 162Q583 162 651 150Q695 142 733 136T815 129Q866 129 907 157T979 225L1006 215L1010 137V127Q1010 110 1004 98T981 68Z"  />
<glyph unicode="&#xA4;" horiz-adv-x="1071" d="M911 289L776 424Q658 340 535 340Q485 340 423 357T293 424L158 289L92 356L227 487Q185 550 166 609T147 725Q147 782 165 841T227 963L92 1096L158 1163L293 1028Q364 1078 424 1095T535 1112Q589 1112 650 1093T774 1028L911 1163L977 1096L842 963Q888 894 906 836T924 725Q924 669 905 611T842 487L977 356L911 289ZM829 727Q829 791 804 845T738 937T644 996T537 1018Q474 1018 420 995T327 932T265 839T242 727Q242 667 265 614T328 520T421 456T535 432Q595 432 648 455T742 519T805 612T829 727Z"  />
<glyph unicode="&#xA5;" horiz-adv-x="1106" d="M782 815L1004 813V719H725L641 578V571H1004V475H641L643 133Q643 110 648 103T672 96H819V0H291V76L401 96Q419 99 429 107T444 128T450 161T451 205V485H90V582H436L360 719H90V813H307L111 1174Q100 1194 93 1200T68 1206H16V1298H446V1229L365 1212Q348 1209 338 1203T328 1182Q328 1168 340 1147L590 664L848 1139Q864 1168 864 1184Q864 1206 834 1206H733V1298H1106V1227L1044 1212Q1029 1207 1018 1196T993 1163L782 815Z"  />
<glyph unicode="&#xA6;" horiz-adv-x="512" d="M319 410V-205H193V410H319ZM319 1434V819H193V1434H319Z"  />
<glyph unicode="&#xA7;" horiz-adv-x="1079" d="M762 96Q818 45 844 -5T870 -121Q870 -160 861 -195T835 -264T796 -326T750 -383Q720 -415 681 -441T599 -487T510 -516T420 -526Q351 -526 294 -513T195 -463Q176 -446 167 -433T158 -401Q158 -384 162 -377T178 -356L238 -299H285Q323 -345 369 -367T487 -389Q526 -389 567 -377T642 -341T699 -284T721 -207Q721 -143 706 -106T657 -39T566 19T428 94Q370 126 321 157T235 225T179 309T158 420Q158 465 172 505T211 581T272 648T350 709Q322 733 300 757T262 809T238 869T229 940Q229 983 236 1018T258 1083T291 1140T336 1194Q401 1265 482 1298T641 1331Q674 1331 706 1329T767 1318T822 1293T870 1249Q878 1240 883 1233T889 1210Q889 1193 884 1185T868 1167L807 1106H768Q739 1157 697 1174T594 1192Q538 1192 498 1183T432 1153T394 1094T381 1001Q381 951 403 914T463 846T548 788T647 731Q702 700 755 666T849 590T916 496T942 375Q942 324 928 284T888 210T831 149T762 96ZM586 559Q550 580 526 594T485 619T453 639T420 659Q367 619 346 574T324 479Q324 438 335 407T371 348T431 296T516 244Q567 215 605 192T678 147Q726 186 750 228T774 324Q774 365 763 396T729 454T671 505T586 559Z"  />
<glyph unicode="&#xA8;" horiz-adv-x="1024" d="M422 1067Q422 1055 414 1047T395 1038H272Q261 1038 255 1047T248 1067V1178Q248 1190 254 1198T272 1206H395Q408 1206 415 1199T422 1180V1067ZM774 1071Q774 1059 767 1051T748 1042H625Q614 1042 606 1050T598 1069V1182Q598 1193 605 1201T625 1210H748Q760 1210 767 1202T774 1182V1071Z"  />
<glyph unicode="&#xA9;" horiz-adv-x="1569" d="M979 831Q978 836 977 848T973 874Q971 889 969 905Q967 916 965 922T954 932Q939 938 906 944T819 950Q676 950 603 878T530 653Q530 584 550 528T607 431T697 368T817 346Q862 346 889 348T932 356T955 369T969 389L1004 453L1069 430L1042 319Q1039 307 1033 303T1012 293Q975 282 918 274T799 266Q710 267 635 290T506 360T420 474T389 635Q389 728 421 802T513 928T654 1008T838 1036Q850 1036 882 1035T951 1030T1019 1020T1063 1006Q1071 999 1071 983L1055 836L979 831ZM113 649Q113 742 137 827T204 988T309 1124T445 1229T605 1297T784 1321Q877 1321 962 1297T1123 1229T1259 1124T1364 988T1432 828T1456 649Q1456 510 1403 388T1259 175T1046 30T784 -23Q645 -23 523 30T310 174T166 388T113 649ZM209 649Q209 530 254 426T378 243T560 120T784 74Q903 74 1008 119T1191 243T1314 425T1360 649Q1360 768 1315 873T1191 1056T1008 1179T784 1225Q665 1225 561 1180T378 1056T255 873T209 649Z"  />
<glyph unicode="&#xAA;" horiz-adv-x="668" d="M666 821Q664 819 660 817T653 813Q638 805 619 798T578 785T537 776T500 772Q474 772 453 781T418 819Q367 801 312 788T209 774Q140 774 100 811T59 922Q59 978 82 1006T160 1051Q219 1069 280 1079T410 1100V1118Q410 1150 407 1173T393 1210T361 1232T303 1239Q254 1239 217 1227T145 1174L104 1184Q102 1202 100 1221T98 1260Q98 1265 107 1269T121 1276L131 1280Q181 1302 238 1312T350 1323Q401 1323 439 1316T503 1288T542 1233T555 1143Q555 1083 553 1023T551 903Q551 888 557 877T582 866Q605 866 625 872T666 887L668 885V834Q668 823 666 821ZM410 1036Q385 1031 366 1029T328 1024Q309 1019 291 1016T256 1006Q233 998 220 985T207 942Q207 900 226 882T285 864Q316 864 346 869T410 885V1036Z"  />
<glyph unicode="&#xAB;" horiz-adv-x="1036" d="M717 444L942 98L874 57L494 444L874 834L942 791L717 444ZM317 444L543 98L475 57L94 444L475 834L543 791L317 444Z"  />
<glyph unicode="&#xAC;" horiz-adv-x="1106" d="M842 397V713H123V840H983V397H842Z"  />
<glyph unicode="&#xAD;" horiz-adv-x="676" d="M598 565L561 416L78 401L113 565H598Z"  />
<glyph unicode="&#xAE;" horiz-adv-x="1569" d="M1204 305Q1202 297 1196 292T1180 285T1160 282T1141 281Q1090 281 1051 293T979 327T920 381T868 453Q845 490 827 529T791 608Q772 606 753 605T713 604Q703 604 693 605T674 606V371Q674 364 676 362T686 360H782L784 291H444V348L514 360Q531 364 536 373T541 414V948Q541 959 538 962T524 965H436V1032H555Q614 1032 672 1033T788 1034Q839 1034 889 1027T979 997T1044 937T1069 836Q1069 760 1027 712T915 641Q937 587 967 530T1032 430Q1069 385 1110 365T1208 342L1204 305ZM930 827Q930 869 919 896T885 938T832 960T760 967Q737 967 716 966T674 965V680Q691 678 709 677T745 676Q790 676 825 682T883 704T918 750T930 827ZM113 649Q113 742 137 827T204 988T309 1124T445 1229T605 1297T784 1321Q877 1321 962 1297T1123 1229T1259 1124T1364 988T1432 828T1456 649Q1456 510 1403 388T1259 175T1046 30T784 -23Q645 -23 523 30T310 174T166 388T113 649ZM209 649Q209 530 254 426T378 243T560 120T784 74Q903 74 1008 119T1191 243T1314 425T1360 649Q1360 768 1315 873T1191 1056T1008 1179T784 1225Q665 1225 561 1180T378 1056T255 873T209 649Z"  />
<glyph unicode="&#xAF;" horiz-adv-x="1024" d="M233 1233H791V1087H233V1233Z"  />
<glyph unicode="&#xB0;" horiz-adv-x="1100" d="M549 674Q481 674 422 699T318 769T247 873T221 999Q221 1068 246 1128T317 1234T422 1305T553 1331Q620 1331 679 1305T783 1233T853 1128T879 999Q879 932 853 873T782 770T677 700T549 674ZM547 1208Q506 1208 470 1192T408 1147T366 1080T350 999Q350 957 366 920T409 855T472 811T549 795Q590 795 626 811T690 855T734 920T750 999Q750 1042 735 1080T692 1146T627 1191T547 1208Z"  />
<glyph unicode="&#xB1;" horiz-adv-x="1106" d="M616 586V219H487V586H123V715H487V1079H616V715H983V586H616ZM123 12V141H983V12H123Z"  />
<glyph unicode="&#xB2;" horiz-adv-x="756" d="M684 1030L633 844H80V909Q115 941 157 982T241 1062T316 1136T369 1190Q431 1256 459 1310T487 1413Q487 1475 456 1512T348 1550Q314 1550 286 1542T242 1522Q232 1515 230 1508T225 1483Q225 1475 224 1456T221 1417L115 1405Q107 1461 105 1482T102 1505Q102 1523 128 1547T195 1592T285 1629T383 1645Q501 1645 568 1590T635 1430Q635 1364 608 1312T530 1206Q503 1179 475 1152T413 1095T341 1032T254 961Q317 961 382 961T522 965Q537 966 545 968T561 975T573 991T588 1018Q591 1024 595 1035T602 1051L684 1030Z"  />
<glyph unicode="&#xB3;" horiz-adv-x="756" d="M649 1108Q649 1046 623 995T551 906T447 849T324 829Q292 829 260 831T196 843T139 868T94 913Q85 927 83 938T80 963Q80 977 86 986T117 1008L137 1018Q143 1021 151 1024T168 1028Q173 1028 182 1025T195 1012Q201 993 203 988T209 977Q231 943 261 928T334 913Q375 913 406 926T457 964T488 1020T498 1090Q498 1148 468 1186T371 1225Q343 1225 324 1221T276 1206Q274 1205 270 1203T259 1199T248 1196T242 1194Q239 1194 234 1202T223 1219T215 1238T211 1251Q211 1258 217 1263T229 1272L274 1292Q304 1306 335 1320T391 1352T433 1394T449 1454Q449 1505 423 1532T340 1559Q315 1559 285 1554T240 1536Q233 1530 230 1526T227 1509L225 1448Q201 1448 176 1448T125 1442L117 1491Q116 1494 116 1499T114 1510Q113 1516 113 1524Q113 1542 124 1555T147 1577Q198 1611 253 1628T371 1645Q415 1645 456 1637T528 1610T577 1558T596 1477Q596 1448 587 1423T560 1378T520 1340T471 1309Q556 1292 602 1243T649 1108Z"  />
<glyph unicode="&#xB4;" horiz-adv-x="1024" d="M471 981L399 995L639 1341L649 1346L799 1296V1264L471 981Z"  />
<glyph unicode="&#xB5;" horiz-adv-x="1153" d="M1137 49L860 -23H782L786 109Q745 81 704 57T620 14T530 -14T432 -25Q406 -25 383 -15T332 14Q339 -4 343 -24T350 -63T354 -101T356 -131V-524H176L178 690Q178 712 174 724T147 737Q120 735 94 732T41 727L35 805L289 881H371Q368 789 366 700Q365 662 365 622T364 541T363 464T362 395Q362 311 366 256T386 169T431 123T510 109Q552 109 588 114T656 130T720 156T786 190V721Q786 739 781 750T754 762Q725 762 697 762T639 760V846L891 881H973V178Q973 143 975 131T991 119Q994 119 1001 119T1014 121L1137 137V49Z"  />
<glyph unicode="&#xB6;" horiz-adv-x="1432" d="M1462 1171Q1462 1156 1451 1143T1404 1121T1301 1107T1122 1102V-45Q1122 -105 1118 -147T1107 -221T1088 -277T1061 -324Q1045 -348 1022 -370T969 -411T907 -440T838 -451Q819 -451 815 -443T805 -408L791 -336L807 -307Q810 -307 815 -306T823 -305Q929 -291 977 -224T1026 -39V92Q984 89 956 87T907 84T867 83T825 82Q759 82 704 85T602 96T513 116T432 145Q273 217 189 346T104 649Q104 771 142 870T259 1038T458 1146T741 1184Q764 1184 802 1184T883 1182T963 1181T1026 1180V1405H1122V1180Q1183 1180 1229 1184T1308 1198T1363 1225T1397 1268H1425L1456 1194Q1459 1186 1460 1182T1462 1171ZM1026 166V1102H887Q852 1102 831 1098T799 1081Q792 1074 788 1065T782 1040T779 999T778 934V346Q778 308 778 283T780 241T784 214T791 195Q800 178 820 172T877 166H1026Z"  />
<glyph unicode="&#xB7;" horiz-adv-x="567" d="M428 674Q428 644 417 618T387 571T341 540T285 528Q255 528 229 539T182 570T151 616T139 672Q139 703 150 729T181 775T228 806T287 817Q316 817 342 806T387 775T417 729T428 674Z"  />
<glyph unicode="&#xB8;" horiz-adv-x="1024" d="M659 -270Q659 -304 642 -339T596 -401Q561 -437 513 -459T416 -481Q391 -481 367 -475T325 -458T294 -436T281 -410Q281 -400 287 -391L338 -342H365Q388 -368 408 -378T455 -389Q486 -389 506 -373T526 -328Q526 -313 520 -301T500 -276T461 -251T399 -219V-170L522 0H623L539 -131Q550 -137 557 -142T567 -150Q618 -180 638 -207T659 -270Z"  />
<glyph unicode="&#xB9;" horiz-adv-x="756" d="M162 909L279 924Q299 927 307 939T315 975L317 1446Q317 1468 315 1477T305 1487Q297 1487 274 1479L190 1444H152V1511L393 1634H467V948Q467 939 470 932T485 924H625V844H162V909Z"  />
<glyph unicode="&#xBA;" horiz-adv-x="731" d="M346 770Q281 770 228 789T138 844T80 929T59 1038Q59 1101 82 1153T147 1243T249 1302T381 1323Q447 1323 500 1304T592 1249T651 1164T672 1055Q672 992 649 940T583 850T480 791T346 770ZM356 1241Q293 1241 255 1198T217 1083Q217 1029 228 987T261 916T311 872T375 856Q438 856 476 903T514 1028Q514 1073 503 1112T471 1179T421 1224T356 1241Z"  />
<glyph unicode="&#xBB;" horiz-adv-x="1036" d="M561 57L494 100L719 446L494 791L561 834L942 446L561 57ZM162 57L94 100L319 446L94 791L162 834L543 446L162 57Z"  />
<glyph unicode="&#xBC;" horiz-adv-x="1665" d="M162 582L279 596Q299 599 307 611T315 647L317 1118Q317 1140 315 1149T305 1159Q297 1159 274 1151L190 1116H152V1184L393 1307H467V621Q467 611 470 604T485 596H625V516H162V582ZM471 -25H356L1245 1300H1360L471 -25ZM1483 207V0H1348V207H954V287L1378 784H1483V305H1616V207H1483ZM1348 625L1079 305H1348V625Z"  />
<glyph unicode="&#xBD;" horiz-adv-x="1737" d="M162 582L279 596Q299 599 307 611T315 647L317 1118Q317 1140 315 1149T305 1159Q297 1159 274 1151L190 1116H152V1184L393 1307H467V621Q467 611 470 604T485 596H625V516H162V582ZM471 -25H356L1245 1300H1360L471 -25ZM1665 186L1614 0H1061V66Q1096 98 1138 138T1222 219T1297 293T1350 346Q1412 412 1440 466T1468 569Q1468 600 1461 625T1437 669T1394 697T1329 707Q1295 707 1267 699T1223 678Q1213 672 1211 664T1206 639Q1206 631 1205 612T1202 573L1096 561Q1088 617 1086 638T1083 662Q1083 680 1109 703T1176 749T1266 786T1364 801Q1482 801 1549 746T1616 586Q1616 521 1589 468T1511 362Q1484 335 1456 308T1394 251T1322 188T1235 117Q1298 117 1363 117T1503 121Q1518 122 1526 124T1542 131T1554 147T1569 174Q1572 180 1576 191T1583 207L1665 186Z"  />
<glyph unicode="&#xBE;" horiz-adv-x="1665" d="M649 780Q649 718 623 667T551 579T447 522T324 502Q292 502 260 504T196 515T139 540T94 586Q85 600 83 611T80 635Q80 649 86 658T117 680L137 690Q143 693 151 696T168 700Q173 700 182 697T195 684Q201 665 203 660T209 649Q231 615 261 601T334 586Q375 586 406 599T457 637T488 693T498 762Q498 791 491 816T469 859T429 887T371 897Q343 897 324 893T276 879Q274 878 270 876T259 872T248 868T242 866Q239 866 234 874T223 892T215 911T211 924Q211 930 217 935T229 944L274 965Q304 978 335 992T391 1024T433 1066T449 1126Q449 1177 423 1204T340 1231Q315 1231 285 1226T240 1208Q233 1202 230 1198T227 1182L225 1120Q201 1120 176 1120T125 1114L117 1163Q116 1166 116 1171T114 1182Q113 1188 113 1196Q113 1215 124 1228T147 1249Q198 1283 253 1300T371 1317Q415 1317 456 1309T528 1282T577 1230T596 1149Q596 1120 587 1095T560 1050T520 1012T471 981Q556 964 602 915T649 780ZM471 -25H356L1245 1300H1360L471 -25ZM1483 207V0H1348V207H954V287L1378 784H1483V305H1616V207H1483ZM1348 625L1079 305H1348V625Z"  />
<glyph unicode="&#xBF;" horiz-adv-x="834" d="M418 840Q418 849 424 856T442 864H625Q636 864 642 857T649 840V680Q649 671 643 663T625 655H442Q431 655 425 663T418 680V840ZM68 -33Q68 26 84 69T127 145T190 202T268 248T352 290T436 336Q458 350 470 363T489 391T497 424T500 467V555L573 561Q583 502 594 440T606 317Q606 299 602 288T590 260Q570 220 525 188T406 121Q364 100 328 81T264 37T221 -17T205 -90Q205 -146 224 -188T278 -258T358 -299T457 -313Q517 -313 548 -308T582 -279Q584 -266 584 -255T584 -233L698 -225L719 -397L702 -420Q657 -440 600 -449T494 -459Q438 -459 384 -443T283 -398T197 -330T129 -243T84 -142T68 -33Z"  />
<glyph unicode="&#xC0;" horiz-adv-x="1341" d="M1366 0H866V76L979 96Q1012 102 1012 131Q1012 139 1010 148T1004 168Q981 242 956 315T905 461H391Q378 429 364 394T336 323T310 256T287 199Q277 176 272 160T266 131Q266 111 281 104T328 96H457V0H-10V76L59 96Q73 100 83 104T101 116T115 133T129 160L635 1298H811Q836 1227 867 1138T934 951T1008 747T1083 539T1156 339T1223 158Q1230 140 1235 128T1248 109T1265 99T1292 96H1366V0ZM872 551L670 1143Q654 1105 634 1056T591 953T546 843T501 733T461 633T428 551H872ZM480 1698V1730L629 1780L639 1775L879 1429L807 1415L480 1698Z"  />
<glyph unicode="&#xC1;" horiz-adv-x="1341" d="M1366 0H866V76L979 96Q1012 102 1012 131Q1012 139 1010 148T1004 168Q981 242 956 315T905 461H391Q378 429 364 394T336 323T310 256T287 199Q277 176 272 160T266 131Q266 111 281 104T328 96H457V0H-10V76L59 96Q73 100 83 104T101 116T115 133T129 160L635 1298H811Q836 1227 867 1138T934 951T1008 747T1083 539T1156 339T1223 158Q1230 140 1235 128T1248 109T1265 99T1292 96H1366V0ZM872 551L670 1143Q654 1105 634 1056T591 953T546 843T501 733T461 633T428 551H872ZM651 1415L579 1429L819 1775L829 1780L979 1730V1698L651 1415Z"  />
<glyph unicode="&#xC2;" horiz-adv-x="1341" d="M1366 0H866V76L979 96Q1012 102 1012 131Q1012 139 1010 148T1004 168Q981 242 956 315T905 461H391Q378 429 364 394T336 323T310 256T287 199Q277 176 272 160T266 131Q266 111 281 104T328 96H457V0H-10V76L59 96Q73 100 83 104T101 116T115 133T129 160L635 1298H811Q836 1227 867 1138T934 951T1008 747T1083 539T1156 339T1223 158Q1230 140 1235 128T1248 109T1265 99T1292 96H1366V0ZM872 551L670 1143Q654 1105 634 1056T591 953T546 843T501 733T461 633T428 551H872ZM946 1415L727 1614L506 1415L448 1448L680 1780H774L1006 1448L946 1415Z"  />
<glyph unicode="&#xC3;" horiz-adv-x="1341" d="M1366 0H866V76L979 96Q1012 102 1012 131Q1012 139 1010 148T1004 168Q981 242 956 315T905 461H391Q378 429 364 394T336 323T310 256T287 199Q277 176 272 160T266 131Q266 111 281 104T328 96H457V0H-10V76L59 96Q73 100 83 104T101 116T115 133T129 160L635 1298H811Q836 1227 867 1138T934 951T1008 747T1083 539T1156 339T1223 158Q1230 140 1235 128T1248 109T1265 99T1292 96H1366V0ZM872 551L670 1143Q654 1105 634 1056T591 953T546 843T501 733T461 633T428 551H872ZM852 1478Q835 1478 820 1481T789 1491T752 1511T706 1542Q685 1557 669 1566T641 1580T619 1587T598 1589Q563 1589 535 1561T475 1472H469L417 1511Q466 1626 516 1679T630 1732Q650 1732 669 1726T706 1710T741 1688T774 1665Q812 1642 837 1631T880 1620Q918 1620 950 1650T1009 1737H1015L1065 1696Q1026 1590 972 1534T852 1478Z"  />
<glyph unicode="&#xC4;" horiz-adv-x="1341" d="M1366 0H866V76L979 96Q1012 102 1012 131Q1012 139 1010 148T1004 168Q981 242 956 315T905 461H391Q378 429 364 394T336 323T310 256T287 199Q277 176 272 160T266 131Q266 111 281 104T328 96H457V0H-10V76L59 96Q73 100 83 104T101 116T115 133T129 160L635 1298H811Q836 1227 867 1138T934 951T1008 747T1083 539T1156 339T1223 158Q1230 140 1235 128T1248 109T1265 99T1292 96H1366V0ZM872 551L670 1143Q654 1105 634 1056T591 953T546 843T501 733T461 633T428 551H872ZM633 1501Q633 1489 625 1481T606 1472H483Q472 1472 466 1481T459 1501V1612Q459 1624 465 1632T483 1640H606Q619 1640 626 1633T633 1614V1501ZM985 1505Q985 1493 978 1485T959 1476H836Q825 1476 817 1484T809 1503V1616Q809 1627 816 1635T836 1644H959Q971 1644 978 1636T985 1616V1505Z"  />
<glyph unicode="&#xC5;" horiz-adv-x="1341" d="M1366 0H866V76L979 96Q1012 102 1012 131Q1012 139 1010 148T1004 168Q981 242 956 315T905 461H391Q378 429 364 394T336 323T310 256T287 199Q277 176 272 160T266 131Q266 111 281 104T328 96H457V0H-10V76L59 96Q73 100 83 104T101 116T115 133T129 160L635 1298H811Q836 1227 867 1138T934 951T1008 747T1083 539T1156 339T1223 158Q1230 140 1235 128T1248 109T1265 99T1292 96H1366V0ZM872 551L670 1143Q654 1105 634 1056T591 953T546 843T501 733T461 633T428 551H872ZM725 1415Q680 1415 640 1430T571 1473T525 1536T508 1614Q508 1656 525 1692T571 1756T641 1798T729 1814Q774 1814 812 1798T880 1755T925 1692T942 1614Q942 1572 926 1536T880 1473T811 1431T725 1415ZM727 1730Q679 1730 649 1698T619 1614Q619 1561 650 1527T729 1493Q776 1493 803 1526T831 1610Q831 1665 803 1697T727 1730Z"  />
<glyph unicode="&#xC6;" horiz-adv-x="1931" d="M782 76L891 96Q905 99 914 116T929 153Q935 176 938 205V502H494L295 199Q278 173 267 153T256 119Q256 108 266 102T299 96H418V0H-33V76L27 96Q40 101 50 105T70 116T89 133T111 160L825 1169Q833 1180 836 1186T840 1198Q840 1210 811 1210H741V1298H1833L1802 1018H1698L1688 1143Q1684 1175 1669 1185T1624 1198Q1510 1203 1395 1203T1155 1204V727Q1198 727 1244 727T1336 729T1427 732T1513 735Q1535 736 1549 739T1570 751T1582 771T1589 801L1604 885H1694V489H1604L1589 567Q1586 584 1582 595T1571 614T1549 624T1513 629Q1430 631 1338 633T1155 635V133Q1155 111 1161 105T1180 98Q1299 99 1392 100T1575 109Q1606 110 1626 114T1660 129T1683 156T1704 199L1755 328L1851 305L1792 0H782V76ZM938 1159Q856 1039 782 931Q750 885 718 837T655 745T600 662T557 598H938V1159Z"  />
<glyph unicode="&#xC7;" horiz-adv-x="1356" d="M905 -270Q905 -304 888 -339T842 -401Q807 -437 759 -459T662 -481Q637 -481 613 -475T570 -458T539 -436T526 -410Q526 -400 532 -391L584 -342H610Q633 -368 653 -378T700 -389Q731 -389 751 -373T772 -328Q772 -313 766 -301T746 -276T707 -251T645 -219V-170L752 -23Q608 -15 488 29T282 154T147 352T98 621Q98 783 154 913T314 1134T561 1274T883 1323Q991 1323 1085 1311T1257 1280Q1265 1278 1272 1275T1280 1260Q1280 1256 1280 1249T1278 1229L1255 997L1149 991Q1149 995 1147 1013T1142 1053Q1138 1078 1135 1108Q1131 1131 1125 1146T1096 1171Q1067 1182 1006 1194T848 1206Q584 1206 450 1069T315 651Q315 524 351 420T456 240T623 124T844 82Q925 82 976 86T1058 100T1105 126T1135 168L1186 268L1276 238L1233 57Q1228 42 1220 36T1190 23Q1131 4 1041 -8T852 -25L784 -131L813 -150Q864 -180 884 -207T905 -270Z"  />
<glyph unicode="&#xC8;" horiz-adv-x="1247" d="M1167 305L1108 0H98V76L207 96Q236 102 249 125T262 205V1163Q262 1191 256 1198T223 1206H92L90 1298H1149Q1147 1277 1146 1265T1144 1242T1141 1218T1136 1181T1129 1118T1118 1018H1014L1004 1143Q1000 1175 985 1185T940 1198Q825 1203 711 1203T471 1204V727Q559 727 653 729T829 735Q851 736 865 739T886 751T898 771T905 801L920 885H1010V489H920L905 567Q902 584 898 595T887 614T865 625T829 629Q746 629 654 632T471 635V133Q471 111 477 105T496 98Q615 99 708 100T891 109Q922 110 942 114T976 129T999 156T1020 199L1071 328L1167 305ZM418 1698V1730L567 1780L577 1775L817 1429L745 1415L418 1698Z"  />
<glyph unicode="&#xC9;" horiz-adv-x="1247" d="M1167 305L1108 0H98V76L207 96Q236 102 249 125T262 205V1163Q262 1191 256 1198T223 1206H92L90 1298H1149Q1147 1277 1146 1265T1144 1242T1141 1218T1136 1181T1129 1118T1118 1018H1014L1004 1143Q1000 1175 985 1185T940 1198Q825 1203 711 1203T471 1204V727Q559 727 653 729T829 735Q851 736 865 739T886 751T898 771T905 801L920 885H1010V489H920L905 567Q902 584 898 595T887 614T865 625T829 629Q746 629 654 632T471 635V133Q471 111 477 105T496 98Q615 99 708 100T891 109Q922 110 942 114T976 129T999 156T1020 199L1071 328L1167 305ZM598 1415L526 1429L766 1775L776 1780L926 1730V1698L598 1415Z"  />
<glyph unicode="&#xCA;" horiz-adv-x="1247" d="M1167 305L1108 0H98V76L207 96Q236 102 249 125T262 205V1163Q262 1191 256 1198T223 1206H92L90 1298H1149Q1147 1277 1146 1265T1144 1242T1141 1218T1136 1181T1129 1118T1118 1018H1014L1004 1143Q1000 1175 985 1185T940 1198Q825 1203 711 1203T471 1204V727Q559 727 653 729T829 735Q851 736 865 739T886 751T898 771T905 801L920 885H1010V489H920L905 567Q902 584 898 595T887 614T865 625T829 629Q746 629 654 632T471 635V133Q471 111 477 105T496 98Q615 99 708 100T891 109Q922 110 942 114T976 129T999 156T1020 199L1071 328L1167 305ZM856 1415L637 1614L416 1415L358 1448L590 1780H684L916 1448L856 1415Z"  />
<glyph unicode="&#xCB;" horiz-adv-x="1247" d="M1167 305L1108 0H98V76L207 96Q236 102 249 125T262 205V1163Q262 1191 256 1198T223 1206H92L90 1298H1149Q1147 1277 1146 1265T1144 1242T1141 1218T1136 1181T1129 1118T1118 1018H1014L1004 1143Q1000 1175 985 1185T940 1198Q825 1203 711 1203T471 1204V727Q559 727 653 729T829 735Q851 736 865 739T886 751T898 771T905 801L920 885H1010V489H920L905 567Q902 584 898 595T887 614T865 625T829 629Q746 629 654 632T471 635V133Q471 111 477 105T496 98Q615 99 708 100T891 109Q922 110 942 114T976 129T999 156T1020 199L1071 328L1167 305ZM563 1501Q563 1489 555 1481T536 1472H413Q402 1472 396 1481T389 1501V1612Q389 1624 395 1632T413 1640H536Q549 1640 556 1633T563 1614V1501ZM915 1505Q915 1493 908 1485T889 1476H766Q755 1476 747 1484T739 1503V1616Q739 1627 746 1635T766 1644H889Q901 1644 908 1636T915 1616V1505Z"  />
<glyph unicode="&#xCC;" horiz-adv-x="735" d="M670 0H84V76L205 96Q221 99 232 104T249 122T259 153T262 205V1169Q262 1189 255 1197T231 1206H82V1298H647V1227L535 1206Q503 1200 487 1180T471 1108V141Q471 113 480 105T510 96H670V0ZM150 1698V1730L299 1780L309 1775L549 1429L477 1415L150 1698Z"  />
<glyph unicode="&#xCD;" horiz-adv-x="735" d="M670 0H84V76L205 96Q221 99 232 104T249 122T259 153T262 205V1169Q262 1189 255 1197T231 1206H82V1298H647V1227L535 1206Q503 1200 487 1180T471 1108V141Q471 113 480 105T510 96H670V0ZM266 1415L194 1429L434 1775L444 1780L594 1730V1698L266 1415Z"  />
<glyph unicode="&#xCE;" horiz-adv-x="735" d="M670 0H84V76L205 96Q221 99 232 104T249 122T259 153T262 205V1169Q262 1189 255 1197T231 1206H82V1298H647V1227L535 1206Q503 1200 487 1180T471 1108V141Q471 113 480 105T510 96H670V0ZM594 1415L375 1614L154 1415L96 1448L328 1780H422L654 1448L594 1415Z"  />
<glyph unicode="&#xCF;" horiz-adv-x="735" d="M670 0H84V76L205 96Q221 99 232 104T249 122T259 153T262 205V1169Q262 1189 255 1197T231 1206H82V1298H647V1227L535 1206Q503 1200 487 1180T471 1108V141Q471 113 480 105T510 96H670V0ZM285 1501Q285 1489 277 1481T258 1472H135Q124 1472 118 1481T111 1501V1612Q111 1624 117 1632T135 1640H258Q271 1640 278 1633T285 1614V1501ZM637 1505Q637 1493 630 1485T611 1476H488Q477 1476 469 1484T461 1503V1616Q461 1627 468 1635T488 1644H611Q623 1644 630 1636T637 1616V1505Z"  />
<glyph unicode="&#xD0;" horiz-adv-x="1563" d="M1462 668Q1462 587 1444 512T1391 370T1309 246T1200 141Q1141 96 1075 68T930 23T758 2T553 -4Q491 -4 431 -2T309 0H100V76L211 96Q240 102 251 121T262 190V623H27V729H262V1169Q262 1188 253 1197T227 1206H94V1298H391Q416 1298 460 1299T553 1302T648 1305T723 1307Q897 1307 1034 1273T1267 1164T1412 966T1462 668ZM1249 664Q1249 946 1115 1078T715 1210H606Q572 1210 539 1209T469 1206V729H770V623H469V143Q469 129 476 120T503 106T553 98T631 96Q776 96 891 128T1085 230T1207 406T1249 664Z"  />
<glyph unicode="&#xD1;" horiz-adv-x="1608" d="M1526 1227Q1502 1222 1492 1220T1473 1217T1454 1214T1419 1208Q1387 1202 1372 1182T1356 1108Q1356 999 1354 868T1349 593T1342 299T1335 0H1214L377 1094Q378 897 380 719Q381 643 381 564T383 413T384 278T385 172Q385 128 396 112T440 96H594V0H80V76L182 96Q199 100 210 106T229 125T239 155T244 203Q246 316 248 444T253 697T257 938T260 1139Q260 1180 249 1193T205 1206H82V1298H469Q629 1088 773 899Q834 818 898 735T1022 573T1133 428T1221 315Q1221 393 1221 493T1220 703T1218 921T1214 1126Q1214 1151 1212 1166T1203 1191T1185 1203T1155 1206H1016V1298H1526V1227ZM895 1478Q878 1478 863 1481T832 1491T795 1511T749 1542Q728 1557 712 1566T684 1580T662 1587T641 1589Q606 1589 578 1561T518 1472H512L460 1511Q509 1626 559 1679T673 1732Q693 1732 712 1726T749 1710T784 1688T817 1665Q855 1642 880 1631T923 1620Q961 1620 993 1650T1052 1737H1058L1108 1696Q1069 1590 1015 1534T895 1478Z"  />
<glyph unicode="&#xD2;" horiz-adv-x="1573" d="M1481 670Q1481 572 1459 483T1393 316T1286 175T1141 68Q1062 24 965 0T760 -25Q613 -25 491 23T280 159T142 367T92 633Q92 730 114 816T176 976T274 1110T403 1214Q494 1271 596 1297T821 1323Q964 1323 1085 1275T1294 1141T1431 934T1481 670ZM1262 618Q1262 692 1249 765T1210 907T1143 1033T1049 1135T926 1202T774 1227Q661 1227 575 1182T430 1062T341 888T311 684Q311 553 345 442T442 248T596 119T801 72Q903 72 988 112T1133 225T1228 398T1262 618ZM555 1698V1730L704 1780L714 1775L954 1429L882 1415L555 1698Z"  />
<glyph unicode="&#xD3;" horiz-adv-x="1573" d="M1481 670Q1481 572 1459 483T1393 316T1286 175T1141 68Q1062 24 965 0T760 -25Q613 -25 491 23T280 159T142 367T92 633Q92 730 114 816T176 976T274 1110T403 1214Q494 1271 596 1297T821 1323Q964 1323 1085 1275T1294 1141T1431 934T1481 670ZM1262 618Q1262 692 1249 765T1210 907T1143 1033T1049 1135T926 1202T774 1227Q661 1227 575 1182T430 1062T341 888T311 684Q311 553 345 442T442 248T596 119T801 72Q903 72 988 112T1133 225T1228 398T1262 618ZM713 1415L641 1429L881 1775L891 1780L1041 1730V1698L713 1415Z"  />
<glyph unicode="&#xD4;" horiz-adv-x="1573" d="M1481 670Q1481 572 1459 483T1393 316T1286 175T1141 68Q1062 24 965 0T760 -25Q613 -25 491 23T280 159T142 367T92 633Q92 730 114 816T176 976T274 1110T403 1214Q494 1271 596 1297T821 1323Q964 1323 1085 1275T1294 1141T1431 934T1481 670ZM1262 618Q1262 692 1249 765T1210 907T1143 1033T1049 1135T926 1202T774 1227Q661 1227 575 1182T430 1062T341 888T311 684Q311 553 345 442T442 248T596 119T801 72Q903 72 988 112T1133 225T1228 398T1262 618ZM1024 1415L805 1614L584 1415L526 1448L758 1780H852L1084 1448L1024 1415Z"  />
<glyph unicode="&#xD5;" horiz-adv-x="1573" d="M1481 670Q1481 572 1459 483T1393 316T1286 175T1141 68Q1062 24 965 0T760 -25Q613 -25 491 23T280 159T142 367T92 633Q92 730 114 816T176 976T274 1110T403 1214Q494 1271 596 1297T821 1323Q964 1323 1085 1275T1294 1141T1431 934T1481 670ZM1262 618Q1262 692 1249 765T1210 907T1143 1033T1049 1135T926 1202T774 1227Q661 1227 575 1182T430 1062T341 888T311 684Q311 553 345 442T442 248T596 119T801 72Q903 72 988 112T1133 225T1228 398T1262 618ZM889 1478Q872 1478 857 1481T826 1491T789 1511T743 1542Q722 1557 706 1566T678 1580T656 1587T635 1589Q600 1589 572 1561T512 1472H506L454 1511Q503 1626 553 1679T667 1732Q687 1732 706 1726T743 1710T778 1688T811 1665Q849 1642 874 1631T917 1620Q955 1620 987 1650T1046 1737H1052L1102 1696Q1063 1590 1009 1534T889 1478Z"  />
<glyph unicode="&#xD6;" horiz-adv-x="1573" d="M1481 670Q1481 572 1459 483T1393 316T1286 175T1141 68Q1062 24 965 0T760 -25Q613 -25 491 23T280 159T142 367T92 633Q92 730 114 816T176 976T274 1110T403 1214Q494 1271 596 1297T821 1323Q964 1323 1085 1275T1294 1141T1431 934T1481 670ZM1262 618Q1262 692 1249 765T1210 907T1143 1033T1049 1135T926 1202T774 1227Q661 1227 575 1182T430 1062T341 888T311 684Q311 553 345 442T442 248T596 119T801 72Q903 72 988 112T1133 225T1228 398T1262 618ZM705 1501Q705 1489 697 1481T678 1472H555Q544 1472 538 1481T531 1501V1612Q531 1624 537 1632T555 1640H678Q691 1640 698 1633T705 1614V1501ZM1057 1505Q1057 1493 1050 1485T1031 1476H908Q897 1476 889 1484T881 1503V1616Q881 1627 888 1635T908 1644H1031Q1043 1644 1050 1636T1057 1616V1505Z"  />
<glyph unicode="&#xD7;" horiz-adv-x="1106" d="M639 651L932 360L842 270L551 561L260 270L172 358L463 649L168 942L258 1032L553 739L848 1034L936 946L639 651Z"  />
<glyph unicode="&#xD8;" horiz-adv-x="1573" d="M1094 1092Q1032 1158 948 1191T772 1225Q682 1225 605 1192T465 1098Q391 1025 351 919T311 684Q311 562 342 453T430 260L1094 1092ZM487 195Q549 135 628 103T801 70Q903 70 987 111T1132 225T1226 398T1260 618Q1260 731 1234 838T1151 1026L487 195ZM1333 1384H1444L1266 1165Q1366 1077 1423 951T1481 670Q1481 572 1459 483T1393 316T1287 175T1143 68Q1064 24 966 0T760 -25Q651 -25 557 0T385 76L240 -102H129L313 127Q208 214 150 343T92 633Q92 730 114 816T177 976T276 1110T406 1214Q497 1271 597 1297T819 1323Q928 1323 1023 1296T1198 1217L1333 1384Z"  />
<glyph unicode="&#xD9;" horiz-adv-x="1522" d="M1483 1227L1389 1206Q1372 1202 1360 1197T1340 1182T1329 1153T1325 1106L1319 612Q1317 509 1308 430T1278 290T1226 182T1149 98Q1081 43 976 9T735 -25Q625 -25 545 -6T410 48T319 133T265 247T240 386T233 547V1157Q233 1172 232 1181T227 1196T214 1204T190 1206H66V1298H610V1227L504 1206Q486 1203 475 1198T457 1183T447 1154T444 1106V598Q444 529 445 466T457 350T488 252T550 178T651 130T803 113Q931 113 1019 160T1143 289Q1164 340 1177 426T1190 629V653L1184 1149Q1184 1184 1173 1195T1128 1206H1004V1298H1483V1227ZM539 1698V1730L688 1780L698 1775L938 1429L866 1415L539 1698Z"  />
<glyph unicode="&#xDA;" horiz-adv-x="1522" d="M1483 1227L1389 1206Q1372 1202 1360 1197T1340 1182T1329 1153T1325 1106L1319 612Q1317 509 1308 430T1278 290T1226 182T1149 98Q1081 43 976 9T735 -25Q625 -25 545 -6T410 48T319 133T265 247T240 386T233 547V1157Q233 1172 232 1181T227 1196T214 1204T190 1206H66V1298H610V1227L504 1206Q486 1203 475 1198T457 1183T447 1154T444 1106V598Q444 529 445 466T457 350T488 252T550 178T651 130T803 113Q931 113 1019 160T1143 289Q1164 340 1177 426T1190 629V653L1184 1149Q1184 1184 1173 1195T1128 1206H1004V1298H1483V1227ZM754 1415L682 1429L922 1775L932 1780L1082 1730V1698L754 1415Z"  />
<glyph unicode="&#xDB;" horiz-adv-x="1522" d="M1483 1227L1389 1206Q1372 1202 1360 1197T1340 1182T1329 1153T1325 1106L1319 612Q1317 509 1308 430T1278 290T1226 182T1149 98Q1081 43 976 9T735 -25Q625 -25 545 -6T410 48T319 133T265 247T240 386T233 547V1157Q233 1172 232 1181T227 1196T214 1204T190 1206H66V1298H610V1227L504 1206Q486 1203 475 1198T457 1183T447 1154T444 1106V598Q444 529 445 466T457 350T488 252T550 178T651 130T803 113Q931 113 1019 160T1143 289Q1164 340 1177 426T1190 629V653L1184 1149Q1184 1184 1173 1195T1128 1206H1004V1298H1483V1227ZM1034 1415L815 1614L594 1415L536 1448L768 1780H862L1094 1448L1034 1415Z"  />
<glyph unicode="&#xDC;" horiz-adv-x="1522" d="M1483 1227L1389 1206Q1372 1202 1360 1197T1340 1182T1329 1153T1325 1106L1319 612Q1317 509 1308 430T1278 290T1226 182T1149 98Q1081 43 976 9T735 -25Q625 -25 545 -6T410 48T319 133T265 247T240 386T233 547V1157Q233 1172 232 1181T227 1196T214 1204T190 1206H66V1298H610V1227L504 1206Q486 1203 475 1198T457 1183T447 1154T444 1106V598Q444 529 445 466T457 350T488 252T550 178T651 130T803 113Q931 113 1019 160T1143 289Q1164 340 1177 426T1190 629V653L1184 1149Q1184 1184 1173 1195T1128 1206H1004V1298H1483V1227ZM733 1501Q733 1489 725 1481T706 1472H583Q572 1472 566 1481T559 1501V1612Q559 1624 565 1632T583 1640H706Q719 1640 726 1633T733 1614V1501ZM1085 1505Q1085 1493 1078 1485T1059 1476H936Q925 1476 917 1484T909 1503V1616Q909 1627 916 1635T936 1644H1059Q1071 1644 1078 1636T1085 1616V1505Z"  />
<glyph unicode="&#xDD;" horiz-adv-x="1225" d="M1237 1227L1174 1212Q1155 1207 1142 1196T1114 1163L715 578L717 133Q717 110 723 103T748 96H924V0H328V76L455 96Q474 99 484 108T500 132T507 165T508 205L510 553L127 1174Q115 1194 107 1200T80 1206H12V1298H496V1229L401 1212Q369 1206 369 1186Q369 1169 383 1147L655 666L934 1128Q954 1161 954 1182Q954 1196 944 1201T915 1206H811V1298H1237V1227ZM565 1415L493 1429L733 1775L743 1780L893 1730V1698L565 1415Z"  />
<glyph unicode="&#xDE;" horiz-adv-x="1223" d="M938 709Q938 796 917 852T852 939T746 983T600 995Q565 995 531 995T461 993V397Q465 396 478 395T509 393T545 392T582 391Q764 391 851 468T938 709ZM254 1169Q254 1189 248 1197T225 1206H76V1298H637V1227L524 1206Q507 1203 495 1198T476 1183T465 1153T461 1102V1083Q512 1085 555 1086T653 1087Q755 1087 846 1074T1004 1020T1111 904T1151 705Q1151 630 1128 570T1064 465T968 387T850 335T717 305T580 295Q552 295 524 296T461 299V141Q461 115 466 106T489 96H666V0H84V76L195 96Q212 99 223 105T241 124T251 156T254 205V1169Z"  />
<glyph unicode="&#xDF;" horiz-adv-x="1280" d="M1212 225Q1212 166 1186 121T1112 45T997 -2T846 -18Q777 -18 715 -13T610 -2Q593 1 589 3T582 20V33Q577 78 573 115Q569 147 567 176T563 215L670 238L694 145Q700 124 707 113T735 92Q746 87 758 84T785 78T819 75T866 74Q942 74 987 103T1032 197Q1032 225 1024 246T995 288T938 328T846 375Q799 397 750 417T659 464T592 530T565 631Q565 679 578 714T613 777T664 826T727 868Q777 899 809 922T860 971T886 1031T893 1118Q893 1221 842 1266T672 1311Q581 1311 526 1286T442 1205T403 1060T393 844V133Q393 111 397 105T424 98H518V0H76V78L164 100Q178 103 186 109T199 126T205 157T207 209V748H72V836L201 860Q206 866 206 873T207 891Q208 938 212 986T228 1083T263 1176T328 1262Q413 1343 503 1388T700 1434Q775 1434 843 1423T964 1381T1046 1295T1077 1151Q1077 1097 1061 1055T1019 978T959 916T889 866Q864 851 840 835T795 800T763 756T750 700Q750 668 755 647T780 608T837 571T936 522Q1012 486 1064 456T1150 394T1197 321T1212 225Z"  />
<glyph unicode="&#xE0;" horiz-adv-x="985" d="M999 82Q999 70 994 62T971 45Q949 33 919 21T856 -2T792 -20T735 -27Q687 -27 662 -6T625 63Q586 48 544 33T459 5T373 -15T289 -23Q230 -23 190 -8T126 38T92 110T82 207Q82 254 95 287T133 343T189 381T260 406Q357 430 442 447T618 479Q620 505 620 535T621 592Q621 638 614 674T587 735T535 773T449 786Q426 786 397 784T343 774T299 755T281 721Q281 702 281 677T283 631L139 612Q137 625 134 642T127 676T122 709T119 739Q119 753 132 761T156 776Q233 827 328 858T516 889Q590 889 645 876T736 832T791 748T809 618Q809 509 805 400T801 180Q801 166 801 152T806 127T820 109T848 102Q880 102 918 118T991 150L999 145V82ZM618 391Q558 382 507 372T416 351T352 332T319 317Q298 299 292 277T285 227Q285 194 288 169T304 127T338 101T399 92Q453 92 509 108T614 145L618 391ZM242 1264V1296L391 1346L401 1341L641 995L569 981L242 1264Z"  />
<glyph unicode="&#xE1;" horiz-adv-x="985" d="M999 82Q999 70 994 62T971 45Q949 33 919 21T856 -2T792 -20T735 -27Q687 -27 662 -6T625 63Q586 48 544 33T459 5T373 -15T289 -23Q230 -23 190 -8T126 38T92 110T82 207Q82 254 95 287T133 343T189 381T260 406Q357 430 442 447T618 479Q620 505 620 535T621 592Q621 638 614 674T587 735T535 773T449 786Q426 786 397 784T343 774T299 755T281 721Q281 702 281 677T283 631L139 612Q137 625 134 642T127 676T122 709T119 739Q119 753 132 761T156 776Q233 827 328 858T516 889Q590 889 645 876T736 832T791 748T809 618Q809 509 805 400T801 180Q801 166 801 152T806 127T820 109T848 102Q880 102 918 118T991 150L999 145V82ZM618 391Q558 382 507 372T416 351T352 332T319 317Q298 299 292 277T285 227Q285 194 288 169T304 127T338 101T399 92Q453 92 509 108T614 145L618 391ZM463 981L391 995L631 1341L641 1346L791 1296V1264L463 981Z"  />
<glyph unicode="&#xE2;" horiz-adv-x="985" d="M999 82Q999 70 994 62T971 45Q949 33 919 21T856 -2T792 -20T735 -27Q687 -27 662 -6T625 63Q586 48 544 33T459 5T373 -15T289 -23Q230 -23 190 -8T126 38T92 110T82 207Q82 254 95 287T133 343T189 381T260 406Q357 430 442 447T618 479Q620 505 620 535T621 592Q621 638 614 674T587 735T535 773T449 786Q426 786 397 784T343 774T299 755T281 721Q281 702 281 677T283 631L139 612Q137 625 134 642T127 676T122 709T119 739Q119 753 132 761T156 776Q233 827 328 858T516 889Q590 889 645 876T736 832T791 748T809 618Q809 509 805 400T801 180Q801 166 801 152T806 127T820 109T848 102Q880 102 918 118T991 150L999 145V82ZM618 391Q558 382 507 372T416 351T352 332T319 317Q298 299 292 277T285 227Q285 194 288 169T304 127T338 101T399 92Q453 92 509 108T614 145L618 391ZM721 981L502 1180L281 981L223 1014L455 1346H549L781 1014L721 981Z"  />
<glyph unicode="&#xE3;" horiz-adv-x="985" d="M999 82Q999 70 994 62T971 45Q949 33 919 21T856 -2T792 -20T735 -27Q687 -27 662 -6T625 63Q586 48 544 33T459 5T373 -15T289 -23Q230 -23 190 -8T126 38T92 110T82 207Q82 254 95 287T133 343T189 381T260 406Q357 430 442 447T618 479Q620 505 620 535T621 592Q621 638 614 674T587 735T535 773T449 786Q426 786 397 784T343 774T299 755T281 721Q281 702 281 677T283 631L139 612Q137 625 134 642T127 676T122 709T119 739Q119 753 132 761T156 776Q233 827 328 858T516 889Q590 889 645 876T736 832T791 748T809 618Q809 509 805 400T801 180Q801 166 801 152T806 127T820 109T848 102Q880 102 918 118T991 150L999 145V82ZM618 391Q558 382 507 372T416 351T352 332T319 317Q298 299 292 277T285 227Q285 194 288 169T304 127T338 101T399 92Q453 92 509 108T614 145L618 391ZM605 1044Q588 1044 573 1047T542 1057T505 1077T459 1108Q438 1123 422 1132T394 1146T372 1153T351 1155Q316 1155 288 1127T228 1038H222L170 1077Q219 1192 269 1245T383 1298Q403 1298 422 1292T459 1276T494 1254T527 1231Q565 1208 590 1197T633 1186Q671 1186 703 1216T762 1303H768L818 1262Q779 1156 725 1100T605 1044Z"  />
<glyph unicode="&#xE4;" horiz-adv-x="985" d="M999 82Q999 70 994 62T971 45Q949 33 919 21T856 -2T792 -20T735 -27Q687 -27 662 -6T625 63Q586 48 544 33T459 5T373 -15T289 -23Q230 -23 190 -8T126 38T92 110T82 207Q82 254 95 287T133 343T189 381T260 406Q357 430 442 447T618 479Q620 505 620 535T621 592Q621 638 614 674T587 735T535 773T449 786Q426 786 397 784T343 774T299 755T281 721Q281 702 281 677T283 631L139 612Q137 625 134 642T127 676T122 709T119 739Q119 753 132 761T156 776Q233 827 328 858T516 889Q590 889 645 876T736 832T791 748T809 618Q809 509 805 400T801 180Q801 166 801 152T806 127T820 109T848 102Q880 102 918 118T991 150L999 145V82ZM618 391Q558 382 507 372T416 351T352 332T319 317Q298 299 292 277T285 227Q285 194 288 169T304 127T338 101T399 92Q453 92 509 108T614 145L618 391ZM414 1067Q414 1055 406 1047T387 1038H264Q253 1038 247 1047T240 1067V1178Q240 1190 246 1198T264 1206H387Q400 1206 407 1199T414 1180V1067ZM766 1071Q766 1059 759 1051T740 1042H617Q606 1042 598 1050T590 1069V1182Q590 1193 597 1201T617 1210H740Q752 1210 759 1202T766 1182V1071Z"  />
<glyph unicode="&#xE5;" horiz-adv-x="985" d="M999 82Q999 70 994 62T971 45Q949 33 919 21T856 -2T792 -20T735 -27Q687 -27 662 -6T625 63Q586 48 544 33T459 5T373 -15T289 -23Q230 -23 190 -8T126 38T92 110T82 207Q82 254 95 287T133 343T189 381T260 406Q357 430 442 447T618 479Q620 505 620 535T621 592Q621 638 614 674T587 735T535 773T449 786Q426 786 397 784T343 774T299 755T281 721Q281 702 281 677T283 631L139 612Q137 625 134 642T127 676T122 709T119 739Q119 753 132 761T156 776Q233 827 328 858T516 889Q590 889 645 876T736 832T791 748T809 618Q809 509 805 400T801 180Q801 166 801 152T806 127T820 109T848 102Q880 102 918 118T991 150L999 145V82ZM618 391Q558 382 507 372T416 351T352 332T319 317Q298 299 292 277T285 227Q285 194 288 169T304 127T338 101T399 92Q453 92 509 108T614 145L618 391ZM500 981Q455 981 415 996T346 1039T300 1102T283 1180Q283 1222 300 1258T346 1322T416 1364T504 1380Q549 1380 587 1364T655 1321T700 1258T717 1180Q717 1138 701 1102T655 1039T586 997T500 981ZM502 1296Q454 1296 424 1264T394 1180Q394 1127 425 1093T504 1059Q551 1059 578 1092T606 1176Q606 1231 578 1263T502 1296Z"  />
<glyph unicode="&#xE6;" horiz-adv-x="1468" d="M811 418Q815 353 830 297T876 199T957 133T1077 109Q1150 109 1213 130T1337 193Q1339 195 1345 199T1354 205L1366 201L1384 137Q1386 133 1386 127Q1386 121 1383 116T1368 102Q1330 76 1289 53T1203 13T1110 -15T1008 -25Q899 -25 827 4T709 96Q667 75 621 54T524 15T415 -14T293 -25Q234 -25 194 -11T128 33T93 105T82 207Q82 254 93 287T126 343T179 382T252 410Q345 436 439 452T629 483V590Q629 639 622 674T595 731T543 763T459 774Q444 774 426 773T388 769T349 762T315 750Q294 740 284 733T274 709L276 637L137 610L123 702Q121 713 120 723T119 735Q119 748 127 756T152 776Q186 799 230 819T322 855T420 878T516 887Q600 887 658 873T754 823Q767 810 772 797Q825 842 891 865T1030 889Q1105 889 1163 868T1264 807T1336 712T1380 588Q1387 563 1390 536T1397 481L811 418ZM1186 555Q1180 606 1167 650T1130 726T1075 778T999 797Q943 797 907 770T848 701T818 608T809 506L1186 555ZM651 219Q643 270 637 311T629 397Q600 392 563 387T488 374T414 357T350 336Q333 328 321 321T301 303Q289 288 286 270T283 231Q283 196 287 170T305 127T341 101T401 92Q457 92 505 109T606 150Q622 157 631 162T646 173T653 185T655 201Q655 204 653 210T651 219Z"  />
<glyph unicode="&#xE7;" horiz-adv-x="889" d="M606 -270Q606 -304 589 -339T543 -401Q508 -437 460 -459T362 -481Q338 -481 314 -475T271 -458T240 -436T227 -410Q227 -400 233 -391L285 -342H311Q334 -368 354 -378T401 -389Q432 -389 452 -373T473 -328Q473 -313 467 -301T447 -276T408 -251T346 -219V-170L451 -25Q364 -22 295 6T179 86T106 212T80 379Q80 443 94 500T135 607T198 700T279 776Q347 829 428 859T596 889Q632 889 675 884T755 868T818 836T844 786Q844 774 841 768T831 754L760 680L723 678Q712 703 692 718T644 741T584 751T516 754Q448 754 402 737T327 683T286 592T274 461Q274 375 294 311T349 203T434 137T543 115Q582 115 615 120T680 135T743 161T809 199L819 193L829 145Q831 140 831 137T831 131Q831 116 811 100Q746 51 682 24T559 -14L485 -131L514 -150Q565 -180 585 -207T606 -270Z"  />
<glyph unicode="&#xE8;" horiz-adv-x="936" d="M287 416Q291 352 307 295T355 195T438 126T559 100Q637 100 699 124T819 186Q829 184 831 184H836L854 133Q856 128 857 124T858 117Q858 109 853 105T838 94Q796 67 756 46T673 8T585 -16T487 -25Q387 -25 313 4T188 88T113 223T88 406Q88 511 119 599T207 751T340 851T508 887Q579 887 638 867T741 808T815 714T856 588Q858 576 859 561T862 532T863 506T864 487L287 416ZM664 555Q653 673 607 734T479 795Q437 795 401 777T339 724T298 636T283 514V502L664 555ZM273 1264V1296L422 1346L432 1341L672 995L600 981L273 1264Z"  />
<glyph unicode="&#xE9;" horiz-adv-x="936" d="M287 416Q291 352 307 295T355 195T438 126T559 100Q637 100 699 124T819 186Q829 184 831 184H836L854 133Q856 128 857 124T858 117Q858 109 853 105T838 94Q796 67 756 46T673 8T585 -16T487 -25Q387 -25 313 4T188 88T113 223T88 406Q88 511 119 599T207 751T340 851T508 887Q579 887 638 867T741 808T815 714T856 588Q858 576 859 561T862 532T863 506T864 487L287 416ZM664 555Q653 673 607 734T479 795Q437 795 401 777T339 724T298 636T283 514V502L664 555ZM434 981L362 995L602 1341L612 1346L762 1296V1264L434 981Z"  />
<glyph unicode="&#xEA;" horiz-adv-x="936" d="M287 416Q291 352 307 295T355 195T438 126T559 100Q637 100 699 124T819 186Q829 184 831 184H836L854 133Q856 128 857 124T858 117Q858 109 853 105T838 94Q796 67 756 46T673 8T585 -16T487 -25Q387 -25 313 4T188 88T113 223T88 406Q88 511 119 599T207 751T340 851T508 887Q579 887 638 867T741 808T815 714T856 588Q858 576 859 561T862 532T863 506T864 487L287 416ZM664 555Q653 673 607 734T479 795Q437 795 401 777T339 724T298 636T283 514V502L664 555ZM721 981L502 1180L281 981L223 1014L455 1346H549L781 1014L721 981Z"  />
<glyph unicode="&#xEB;" horiz-adv-x="936" d="M287 416Q291 352 307 295T355 195T438 126T559 100Q637 100 699 124T819 186Q829 184 831 184H836L854 133Q856 128 857 124T858 117Q858 109 853 105T838 94Q796 67 756 46T673 8T585 -16T487 -25Q387 -25 313 4T188 88T113 223T88 406Q88 511 119 599T207 751T340 851T508 887Q579 887 638 867T741 808T815 714T856 588Q858 576 859 561T862 532T863 506T864 487L287 416ZM664 555Q653 673 607 734T479 795Q437 795 401 777T339 724T298 636T283 514V502L664 555ZM414 1067Q414 1055 406 1047T387 1038H264Q253 1038 247 1047T240 1067V1178Q240 1190 246 1198T264 1206H387Q400 1206 407 1199T414 1180V1067ZM766 1071Q766 1059 759 1051T740 1042H617Q606 1042 598 1050T590 1069V1182Q590 1193 597 1201T617 1210H740Q752 1210 759 1202T766 1182V1071Z"  />
<glyph unicode="&#xEC;" horiz-adv-x="584" d="M571 0H70V76L162 96Q178 100 187 105T202 120T209 146T211 190V666Q211 695 206 709T184 723Q177 723 162 717L68 684L47 762L326 895H408V129Q408 106 415 101T438 96H571V0ZM66 1264V1296L215 1346L225 1341L465 995L393 981L66 1264Z"  />
<glyph unicode="&#xED;" horiz-adv-x="584" d="M571 0H70V76L162 96Q178 100 187 105T202 120T209 146T211 190V666Q211 695 206 709T184 723Q177 723 162 717L68 684L47 762L326 895H408V129Q408 106 415 101T438 96H571V0ZM227 981L155 995L395 1341L405 1346L555 1296V1264L227 981Z"  />
<glyph unicode="&#xEE;" horiz-adv-x="584" d="M571 0H70V76L162 96Q178 100 187 105T202 120T209 146T211 190V666Q211 695 206 709T184 723Q177 723 162 717L68 684L47 762L326 895H408V129Q408 106 415 101T438 96H571V0ZM512 981L293 1180L72 981L14 1014L246 1346H340L572 1014L512 981Z"  />
<glyph unicode="&#xEF;" horiz-adv-x="584" d="M571 0H70V76L162 96Q178 100 187 105T202 120T209 146T211 190V666Q211 695 206 709T184 723Q177 723 162 717L68 684L47 762L326 895H408V129Q408 106 415 101T438 96H571V0ZM217 1067Q217 1055 209 1047T190 1038H67Q56 1038 50 1047T43 1067V1178Q43 1190 49 1198T67 1206H190Q203 1206 210 1199T217 1180V1067ZM569 1071Q569 1059 562 1051T543 1042H420Q409 1042 401 1050T393 1069V1182Q393 1193 400 1201T420 1210H543Q555 1210 562 1202T569 1182V1071Z"  />
<glyph unicode="&#xF0;" horiz-adv-x="1135" d="M537 -25Q444 -25 370 1T240 72Q170 129 129 218T88 420Q88 523 125 609T228 757T388 854T592 889Q643 889 682 877T756 844Q744 869 727 903T692 972T657 1040T625 1096L461 1010L410 1102L582 1196Q567 1224 557 1244T537 1282T518 1315T498 1352L602 1411L694 1257L870 1352L922 1260L745 1167Q765 1131 795 1082T859 973T926 849T987 716T1030 581T1047 453Q1047 331 1004 242T890 93T726 4T537 -25ZM838 397Q838 478 819 550T764 677T675 763T555 795Q493 795 445 773T364 711T314 616T297 494Q297 407 314 330T366 194T454 102T580 68Q641 68 688 92T769 160T819 264T838 397Z"  />
<glyph unicode="&#xF1;" horiz-adv-x="1176" d="M1155 0H682V76L774 96Q786 98 794 104T808 121T815 151T817 199V496Q817 539 815 583T798 662T752 720T664 743Q629 743 598 737T534 717T468 683T395 637V131Q395 108 400 102T428 96H545V0H70V76L156 96Q171 100 181 106T196 123T203 153T205 201V676Q205 702 199 712T180 723Q171 723 156 717L68 682L41 760L315 893H397L389 723Q446 765 495 796T590 847T676 877T760 887Q821 887 863 872T933 829T976 766T998 688T1006 602T1008 514V135Q1008 121 1008 113T1012 102T1021 97T1038 96H1155V0ZM695 1044Q678 1044 663 1047T632 1057T595 1077T549 1108Q528 1123 512 1132T484 1146T462 1153T441 1155Q406 1155 378 1127T318 1038H312L260 1077Q309 1192 359 1245T473 1298Q493 1298 512 1292T549 1276T584 1254T617 1231Q655 1208 680 1197T723 1186Q761 1186 793 1216T852 1303H858L908 1262Q869 1156 815 1100T695 1044Z"  />
<glyph unicode="&#xF2;" horiz-adv-x="1135" d="M1047 446Q1047 342 1011 255T907 106T746 10T537 -25Q435 -25 353 6T211 95T120 235T88 420Q88 522 125 608T228 756T388 854T592 889Q695 889 779 857T922 767T1014 627T1047 446ZM838 397Q838 478 819 550T764 677T675 763T555 795Q493 795 445 773T364 711T314 616T297 494Q297 407 314 330T365 194T453 102T580 68Q641 68 689 92T770 160T820 264T838 397ZM363 1264V1296L512 1346L522 1341L762 995L690 981L363 1264Z"  />
<glyph unicode="&#xF3;" horiz-adv-x="1135" d="M1047 446Q1047 342 1011 255T907 106T746 10T537 -25Q435 -25 353 6T211 95T120 235T88 420Q88 522 125 608T228 756T388 854T592 889Q695 889 779 857T922 767T1014 627T1047 446ZM838 397Q838 478 819 550T764 677T675 763T555 795Q493 795 445 773T364 711T314 616T297 494Q297 407 314 330T365 194T453 102T580 68Q641 68 689 92T770 160T820 264T838 397ZM483 981L411 995L651 1341L661 1346L811 1296V1264L483 981Z"  />
<glyph unicode="&#xF4;" horiz-adv-x="1135" d="M1047 446Q1047 342 1011 255T907 106T746 10T537 -25Q435 -25 353 6T211 95T120 235T88 420Q88 522 125 608T228 756T388 854T592 889Q695 889 779 857T922 767T1014 627T1047 446ZM838 397Q838 478 819 550T764 677T675 763T555 795Q493 795 445 773T364 711T314 616T297 494Q297 407 314 330T365 194T453 102T580 68Q641 68 689 92T770 160T820 264T838 397ZM780 981L561 1180L340 981L282 1014L514 1346H608L840 1014L780 981Z"  />
<glyph unicode="&#xF5;" horiz-adv-x="1135" d="M1047 446Q1047 342 1011 255T907 106T746 10T537 -25Q435 -25 353 6T211 95T120 235T88 420Q88 522 125 608T228 756T388 854T592 889Q695 889 779 857T922 767T1014 627T1047 446ZM838 397Q838 478 819 550T764 677T675 763T555 795Q493 795 445 773T364 711T314 616T297 494Q297 407 314 330T365 194T453 102T580 68Q641 68 689 92T770 160T820 264T838 397ZM676 1044Q659 1044 644 1047T613 1057T576 1077T530 1108Q509 1123 493 1132T465 1146T443 1153T422 1155Q387 1155 359 1127T299 1038H293L241 1077Q290 1192 340 1245T454 1298Q474 1298 493 1292T530 1276T565 1254T598 1231Q636 1208 661 1197T704 1186Q742 1186 774 1216T833 1303H839L889 1262Q850 1156 796 1100T676 1044Z"  />
<glyph unicode="&#xF6;" horiz-adv-x="1135" d="M1047 446Q1047 342 1011 255T907 106T746 10T537 -25Q435 -25 353 6T211 95T120 235T88 420Q88 522 125 608T228 756T388 854T592 889Q695 889 779 857T922 767T1014 627T1047 446ZM838 397Q838 478 819 550T764 677T675 763T555 795Q493 795 445 773T364 711T314 616T297 494Q297 407 314 330T365 194T453 102T580 68Q641 68 689 92T770 160T820 264T838 397ZM479 1067Q479 1055 471 1047T452 1038H329Q318 1038 312 1047T305 1067V1178Q305 1190 311 1198T329 1206H452Q465 1206 472 1199T479 1180V1067ZM831 1071Q831 1059 824 1051T805 1042H682Q671 1042 663 1050T655 1069V1182Q655 1193 662 1201T682 1210H805Q817 1210 824 1202T831 1182V1071Z"  />
<glyph unicode="&#xF7;" horiz-adv-x="1106" d="M659 958Q659 937 651 918T630 885T597 862T557 854Q536 854 517 862T485 884T463 918T455 958Q455 1002 484 1031T557 1061Q600 1061 629 1032T659 958ZM655 342Q655 321 647 302T626 269T593 246T553 238Q531 238 512 246T479 268T457 302T449 342Q449 363 457 382T479 414T512 436T553 444Q596 444 625 415T655 342ZM123 586V715H983V586H123Z"  />
<glyph unicode="&#xF8;" horiz-adv-x="1135" d="M1047 446Q1047 342 1011 255T907 106T746 10T537 -25Q483 -25 434 -16T342 10L270 -104H166L270 49Q228 70 195 108T137 196T101 303T88 420Q88 522 125 608T228 756T388 854T592 889Q655 889 712 876T815 840L877 938H981L887 799Q962 740 1004 651T1047 446ZM729 721Q695 756 652 775T555 795Q493 795 445 773T364 711T314 616T297 494Q297 404 314 326T367 188L729 721ZM838 397Q838 469 820 533T776 649L424 123Q455 97 494 83T580 68Q641 68 688 92T769 160T819 264T838 397Z"  />
<glyph unicode="&#xF9;" horiz-adv-x="1153" d="M1137 49L860 -23H782L786 109Q745 81 702 57T613 14T519 -14T420 -25Q345 -25 298 -2T223 63T186 160T176 281Q176 384 178 486T184 690Q184 712 180 724T154 737Q126 735 100 732T47 727L41 805L295 881H377Q373 789 369 700Q367 662 366 622T364 541T363 464T362 395Q362 311 368 256T390 168T435 122T510 109Q552 109 588 114T656 130T720 156T786 190V721Q786 739 781 749T754 760H641V846L887 881H975V178Q975 143 977 131T993 119Q998 119 1003 119T1014 121L1137 137V49ZM275 1264V1296L424 1346L434 1341L674 995L602 981L275 1264Z"  />
<glyph unicode="&#xFA;" horiz-adv-x="1153" d="M1137 49L860 -23H782L786 109Q745 81 702 57T613 14T519 -14T420 -25Q345 -25 298 -2T223 63T186 160T176 281Q176 384 178 486T184 690Q184 712 180 724T154 737Q126 735 100 732T47 727L41 805L295 881H377Q373 789 369 700Q367 662 366 622T364 541T363 464T362 395Q362 311 368 256T390 168T435 122T510 109Q552 109 588 114T656 130T720 156T786 190V721Q786 739 781 749T754 760H641V846L887 881H975V178Q975 143 977 131T993 119Q998 119 1003 119T1014 121L1137 137V49ZM518 981L446 995L686 1341L696 1346L846 1296V1264L518 981Z"  />
<glyph unicode="&#xFB;" horiz-adv-x="1153" d="M1137 49L860 -23H782L786 109Q745 81 702 57T613 14T519 -14T420 -25Q345 -25 298 -2T223 63T186 160T176 281Q176 384 178 486T184 690Q184 712 180 724T154 737Q126 735 100 732T47 727L41 805L295 881H377Q373 789 369 700Q367 662 366 622T364 541T363 464T362 395Q362 311 368 256T390 168T435 122T510 109Q552 109 588 114T656 130T720 156T786 190V721Q786 739 781 749T754 760H641V846L887 881H975V178Q975 143 977 131T993 119Q998 119 1003 119T1014 121L1137 137V49ZM797 981L578 1180L357 981L299 1014L531 1346H625L857 1014L797 981Z"  />
<glyph unicode="&#xFC;" horiz-adv-x="1153" d="M1137 49L860 -23H782L786 109Q745 81 702 57T613 14T519 -14T420 -25Q345 -25 298 -2T223 63T186 160T176 281Q176 384 178 486T184 690Q184 712 180 724T154 737Q126 735 100 732T47 727L41 805L295 881H377Q373 789 369 700Q367 662 366 622T364 541T363 464T362 395Q362 311 368 256T390 168T435 122T510 109Q552 109 588 114T656 130T720 156T786 190V721Q786 739 781 749T754 760H641V846L887 881H975V178Q975 143 977 131T993 119Q998 119 1003 119T1014 121L1137 137V49ZM494 1067Q494 1055 486 1047T467 1038H344Q333 1038 327 1047T320 1067V1178Q320 1190 326 1198T344 1206H467Q480 1206 487 1199T494 1180V1067ZM846 1071Q846 1059 839 1051T820 1042H697Q686 1042 678 1050T670 1069V1182Q670 1193 677 1201T697 1210H820Q832 1210 839 1202T846 1182V1071Z"  />
<glyph unicode="&#xFD;" horiz-adv-x="934" d="M944 793Q930 789 919 786Q909 784 902 782T893 780Q884 778 877 774T862 758T841 726T811 670L489 39Q424 -88 365 -214T240 -465Q236 -473 230 -484T215 -507T198 -527T178 -535Q168 -535 154 -532T123 -523T93 -512T68 -504L63 -477Q150 -362 227 -244T373 2L80 737Q69 763 58 769T29 776H0V864H406V793L319 780Q302 777 295 771T287 750Q287 739 291 723T303 684L479 197L688 668Q694 682 703 705T713 748Q713 762 706 769T680 776H604V864H944V793ZM377 981L305 995L545 1341L555 1346L705 1296V1264L377 981Z"  />
<glyph unicode="&#xFE;" horiz-adv-x="1167" d="M1069 475Q1069 347 1018 253T866 84Q798 33 722 13T557 -8Q514 -8 473 -3T389 12V-401Q389 -418 394 -424T418 -430H573L575 -524H66V-451L147 -434Q175 -428 187 -410T199 -348V1212Q199 1278 170 1278Q165 1278 162 1278T152 1274L59 1233L33 1315L313 1454H395L391 782Q427 801 466 820T545 855T626 879T707 889Q798 889 866 858T979 772T1046 640T1069 475ZM885 426Q885 497 870 557T820 661T733 729T604 754Q545 754 494 739T389 700V154Q439 131 486 120T586 109Q672 109 729 127T821 185T870 284T885 426Z"  />
<glyph unicode="&#xFF;" horiz-adv-x="934" d="M944 793Q930 789 919 786Q909 784 902 782T893 780Q884 778 877 774T862 758T841 726T811 670L489 39Q424 -88 365 -214T240 -465Q236 -473 230 -484T215 -507T198 -527T178 -535Q168 -535 154 -532T123 -523T93 -512T68 -504L63 -477Q150 -362 227 -244T373 2L80 737Q69 763 58 769T29 776H0V864H406V793L319 780Q302 777 295 771T287 750Q287 739 291 723T303 684L479 197L688 668Q694 682 703 705T713 748Q713 762 706 769T680 776H604V864H944V793ZM418 1067Q418 1055 410 1047T391 1038H268Q257 1038 251 1047T244 1067V1178Q244 1190 250 1198T268 1206H391Q404 1206 411 1199T418 1180V1067ZM770 1071Q770 1059 763 1051T744 1042H621Q610 1042 602 1050T594 1069V1182Q594 1193 601 1201T621 1210H744Q756 1210 763 1202T770 1182V1071Z"  />
<glyph unicode="&#x131;" horiz-adv-x="584" d="M571 0H70V76L162 96Q178 100 187 105T202 120T209 146T211 190V666Q211 695 206 709T184 723Q177 723 162 717L68 684L47 762L326 895H408V129Q408 106 415 101T438 96H571V0Z"  />
<glyph unicode="&#x152;" horiz-adv-x="2111" d="M1090 0Q1028 -11 955 -18T805 -25Q650 -25 519 16T293 138T145 340T92 621Q92 722 112 807T167 962T252 1087T360 1184Q463 1256 585 1289T860 1323Q931 1323 994 1316T1126 1298H2011Q2009 1277 2008 1265T2006 1242T2003 1218T1998 1181T1991 1118T1980 1018H1876L1866 1143Q1863 1175 1847 1185T1802 1198Q1688 1203 1573 1203T1333 1204V727Q1421 727 1515 729T1692 735Q1714 736 1727 739T1748 751T1760 771T1767 801L1782 885H1872V489H1782L1767 567Q1764 584 1761 595T1750 614T1729 624T1692 629Q1608 631 1516 633T1333 635V133Q1333 111 1339 105T1358 98Q1418 99 1470 99T1571 101T1663 104T1753 109Q1784 110 1804 114T1838 129T1861 156T1882 199L1933 328L2032 305L1970 0H1090ZM1124 1085Q1122 1105 1113 1118T1087 1143Q1068 1155 1041 1167T982 1188T914 1202T840 1208Q577 1208 444 1069T311 651Q311 524 347 420T451 240T617 124T838 82Q914 82 963 86T1043 99T1090 122T1116 156Q1121 165 1122 183T1124 215V1085Z"  />
<glyph unicode="&#x153;" horiz-adv-x="1686" d="M1028 418Q1028 410 1028 398T1030 377Q1036 318 1053 269T1102 184T1181 129T1296 109Q1369 109 1432 130T1556 193Q1558 195 1564 199T1573 205L1583 201L1604 137Q1606 133 1606 127Q1606 121 1602 116T1587 102Q1549 76 1508 53T1422 13T1329 -15T1227 -25Q1109 -25 1031 14T905 125Q839 54 745 16T537 -23Q446 -23 372 2T240 74Q168 133 128 221T88 420Q88 523 124 609T227 758T385 855T588 891Q660 891 724 874T842 825Q868 808 889 788T932 743Q989 813 1071 851T1247 889Q1322 889 1381 868T1484 807T1556 712T1599 588Q1606 563 1609 535T1614 479L1028 418ZM1405 555Q1400 606 1386 650T1350 726T1295 778T1219 797Q1163 797 1126 770T1067 701T1035 608T1024 506L1405 555ZM555 795Q497 795 451 774T371 712T321 617T303 494Q303 405 320 328T372 194T458 105T578 72Q645 72 692 101T768 179T810 289T825 416Q825 479 812 544T767 663T684 753T555 795Z"  />
<glyph unicode="&#x160;" horiz-adv-x="1112" d="M1036 365Q1036 259 991 185T872 64T705 -4T514 -25Q481 -25 441 -23T358 -17T274 -7T197 8Q177 12 166 15T149 24T141 36T137 57L115 295L229 317L266 182Q272 161 279 148T295 127T319 114T354 102Q438 78 532 78Q620 78 680 98T776 151T828 226T844 315Q844 357 833 390T788 455T696 517T543 586Q428 631 354 670T236 752T177 843T160 956Q160 1039 195 1107T292 1223T442 1297T633 1323Q727 1323 799 1317T934 1300Q939 1298 946 1298T959 1296T969 1290T973 1276L989 1042L883 1022L856 1145Q853 1160 848 1169T833 1183T812 1192T782 1200Q756 1206 710 1211T610 1217Q560 1217 513 1205T428 1166T367 1099T344 1001Q344 951 356 918T403 857T499 802T657 735Q778 687 852 644T967 557T1022 467T1036 365ZM416 1780L635 1581L856 1780L914 1747L682 1415H588L356 1747L416 1780Z"  />
<glyph unicode="&#x161;" horiz-adv-x="838" d="M760 231Q760 180 743 141T696 74T627 27T545 -4T457 -20T371 -25Q351 -25 314 -23T237 -17T162 -8T109 4Q102 7 100 11T96 29L78 213L190 236Q191 231 195 215T204 181Q209 160 215 135Q221 111 237 98T278 78T333 70T399 68Q431 68 463 74T522 96T565 136T582 201Q582 228 575 248T554 284T521 311T477 334Q452 346 426 356T371 377Q291 408 239 432T156 484T113 544T100 627Q100 701 133 751T219 832T336 876T463 889Q523 889 576 884T686 868Q694 866 700 864T709 854Q712 842 713 828T717 801L729 672L625 651L604 733Q599 756 588 769T557 788T510 796T442 799Q411 799 381 792T326 769T286 728T270 666Q270 643 275 627T294 597T331 570T393 541Q447 518 502 500T610 457Q685 423 722 371T760 231ZM229 1346L448 1147L669 1346L727 1313L495 981H401L169 1313L229 1346Z"  />
<glyph unicode="&#x178;" horiz-adv-x="1225" d="M1237 1227L1174 1212Q1155 1207 1142 1196T1114 1163L715 578L717 133Q717 110 723 103T748 96H924V0H328V76L455 96Q474 99 484 108T500 132T507 165T508 205L510 553L127 1174Q115 1194 107 1200T80 1206H12V1298H496V1229L401 1212Q369 1206 369 1186Q369 1169 383 1147L655 666L934 1128Q954 1161 954 1182Q954 1196 944 1201T915 1206H811V1298H1237V1227ZM559 1501Q559 1489 551 1481T532 1472H409Q398 1472 392 1481T385 1501V1612Q385 1624 391 1632T409 1640H532Q545 1640 552 1633T559 1614V1501ZM911 1505Q911 1493 904 1485T885 1476H762Q751 1476 743 1484T735 1503V1616Q735 1627 742 1635T762 1644H885Q897 1644 904 1636T911 1616V1505Z"  />
<glyph unicode="&#x17D;" horiz-adv-x="1221" d="M1159 346L1087 0H53V76L918 1206Q880 1206 831 1205T728 1203T620 1201T517 1198T431 1195T373 1192Q347 1191 327 1188T293 1177T270 1157T254 1126L205 979L100 997L158 1298H1157V1217L293 96Q380 97 458 98T609 101T748 105T881 111Q906 112 923 117T954 131T976 155T993 190L1061 367L1159 346ZM416 1780L635 1581L856 1780L914 1747L682 1415H588L356 1747L416 1780Z"  />
<glyph unicode="&#x17E;" horiz-adv-x="885" d="M846 244L774 0H51V76L608 770L262 764Q239 764 229 755T209 725L170 625L80 639L127 864H834V797L270 94L647 106Q670 106 685 121T711 156L766 268L846 244ZM258 1346L477 1147L698 1346L756 1313L524 981H430L198 1313L258 1346Z"  />
<glyph unicode="&#x192;" horiz-adv-x="1106" d="M1030 1073L999 1077Q997 1088 994 1101T985 1128Q973 1157 944 1177T856 1198Q796 1198 757 1171T692 1098T651 990T625 862L602 719H854L829 621H584L494 119Q481 45 465 -10T427 -109T378 -186T315 -252Q298 -268 276 -285T225 -316T163 -339T90 -348Q65 -348 35 -339T-16 -313Q-32 -301 -36 -292T-41 -268Q-41 -254 -40 -246T-33 -231L29 -172H57Q77 -203 106 -215T164 -227Q201 -227 223 -201T260 -133Q272 -98 281 -53T299 43L401 621H231L252 711L418 717L442 842Q454 900 467 946T501 1034T551 1112T623 1190Q685 1247 758 1281T913 1315Q989 1315 1046 1288T1130 1208Q1137 1197 1139 1186T1141 1163Q1141 1146 1135 1132T1114 1112L1030 1073Z"  />
<glyph unicode="&#x2C6;" horiz-adv-x="1024" d="M731 981L512 1180L291 981L233 1014L465 1346H559L791 1014L731 981Z"  />
<glyph unicode="&#x2C7;" horiz-adv-x="1024" d="M293 1346L512 1147L733 1346L791 1313L559 981H465L233 1313L293 1346Z"  />
<glyph unicode="&#x2DA;" horiz-adv-x="1024" d="M512 981Q467 981 427 996T358 1039T312 1102T295 1180Q295 1222 312 1258T358 1322T428 1364T516 1380Q561 1380 599 1364T667 1321T712 1258T729 1180Q729 1138 713 1102T667 1039T598 997T512 981ZM514 1296Q466 1296 436 1264T406 1180Q406 1127 437 1093T516 1059Q563 1059 590 1092T618 1176Q618 1231 590 1263T514 1296Z"  />
<glyph unicode="&#x2DC;" horiz-adv-x="1024" d="M623 1044Q606 1044 591 1047T560 1057T523 1077T477 1108Q456 1123 440 1132T412 1146T390 1153T369 1155Q334 1155 306 1127T246 1038H240L188 1077Q237 1192 287 1245T401 1298Q421 1298 440 1292T477 1276T512 1254T545 1231Q583 1208 608 1197T651 1186Q689 1186 721 1216T780 1303H786L836 1262Q797 1156 743 1100T623 1044Z"  />
<glyph unicode="&#x2013;" horiz-adv-x="985" d="M924 416H61V547H924V416Z"  />
<glyph unicode="&#x2014;" horiz-adv-x="1544" d="M1485 416H59V547H1485V416Z"  />
<glyph unicode="&#x2018;" horiz-adv-x="492" d="M416 1307Q367 1267 332 1234T273 1171T238 1109T227 1040Q227 1013 234 1000T253 982T277 976T302 972T320 961T328 934V825Q328 793 293 793H147Q115 793 115 825V940Q115 1019 133 1076T185 1180T266 1267T371 1354L416 1307Z"  />
<glyph unicode="&#x2019;" horiz-adv-x="492" d="M94 754Q83 765 72 776T49 801Q97 838 133 870T192 933T226 996T238 1065Q238 1092 231 1105T212 1124T187 1131T162 1135T143 1146T135 1174V1282Q135 1299 145 1307T172 1315H315Q348 1315 348 1282V1165Q348 1087 330 1030T278 926T198 840T94 754Z"  />
<glyph unicode="&#x201A;" horiz-adv-x="492" d="M61 -303Q115 -259 151 -224T209 -157T240 -96T250 -37Q250 -10 243 3T224 21T199 28T174 32T155 42T147 70V178Q147 197 157 204T184 211H330Q362 211 362 178V63Q362 -16 344 -73T291 -176T210 -263T106 -350L61 -303Z"  />
<glyph unicode="&#x201C;" horiz-adv-x="872" d="M416 1307Q367 1267 332 1234T273 1171T238 1109T227 1040Q227 1013 234 1000T253 982T277 976T302 972T320 961T328 934V825Q328 793 293 793H147Q115 793 115 825V940Q115 1019 133 1076T185 1180T266 1267T371 1354L416 1307ZM797 1307Q748 1267 713 1234T654 1171T619 1109T608 1040Q608 1013 615 1000T634 982T658 976T683 972T701 961T709 934V825Q709 793 674 793H528Q496 793 496 825V940Q496 1019 514 1076T566 1180T647 1267T752 1354L797 1307Z"  />
<glyph unicode="&#x201D;" horiz-adv-x="872" d="M94 754Q83 765 72 776T49 801Q97 838 133 870T192 933T226 996T238 1065Q238 1092 231 1105T212 1124T187 1131T162 1135T143 1146T135 1174V1282Q135 1299 145 1307T172 1315H315Q348 1315 348 1282V1165Q348 1087 330 1030T278 926T198 840T94 754ZM475 754Q464 765 453 776T430 801Q478 838 513 870T572 933T607 996T618 1065Q618 1092 611 1105T592 1124T567 1131T543 1135T524 1146T516 1174V1282Q516 1315 553 1315H696Q729 1315 729 1282V1165Q729 1087 711 1030T659 926T579 840T475 754Z"  />
<glyph unicode="&#x201E;" horiz-adv-x="872" d="M61 -303Q115 -259 151 -224T209 -157T240 -96T250 -37Q250 -10 243 3T224 21T199 28T174 32T155 42T147 70V178Q147 197 157 204T184 211H330Q362 211 362 178V63Q362 -16 344 -73T291 -176T210 -263T106 -350L61 -303ZM442 -303Q496 -259 532 -224T590 -157T621 -96T631 -37Q631 -10 624 3T605 21T580 28T555 32T536 42T528 70V178Q528 197 538 204T565 211H711Q743 211 743 178V63Q743 -16 725 -73T672 -176T591 -263T487 -350L442 -303Z"  />
<glyph unicode="&#x2020;" horiz-adv-x="1061" d="M862 659L592 690L625 346L586 -522H475L438 346L471 690L211 659H84V819H211L471 793L438 1161L436 1298H625V1161L592 793L862 819H977V659H862Z"  />
<glyph unicode="&#x2021;" horiz-adv-x="1061" d="M977 23H872L584 55L614 -319V-524H442V-319L477 55L190 23H84V174H190L477 150L449 438L477 713L190 680H84V836H190L477 805L442 1159V1298H614V1159L584 805L872 836H977V680H872L584 713L612 438L584 150L872 174H977V23Z"  />
<glyph unicode="&#x2022;" horiz-adv-x="1298" d="M922 662Q922 606 901 557T843 470T757 412T651 391Q595 391 546 412T460 470T402 556T381 662Q381 719 402 768T461 853T548 911T655 932Q710 932 758 911T843 852T901 766T922 662Z"  />
<glyph unicode="&#x2026;" horiz-adv-x="1702" d="M389 31Q389 0 358 0L201 2Q182 2 175 9T168 31V180Q168 194 177 202T201 211H358Q371 211 380 203T389 180V31ZM961 31Q961 17 953 9T930 0L774 2Q754 2 748 9T741 31V180Q741 194 750 202T774 211H930Q942 211 951 203T961 180V31ZM1534 31Q1534 0 1503 0L1348 2Q1328 2 1321 9T1313 31V180Q1313 194 1322 202T1348 211H1503Q1516 211 1525 203T1534 180V31Z"  />
<glyph unicode="&#x2030;" horiz-adv-x="2187" d="M668 965Q668 882 647 815T585 701T489 628T362 602Q292 602 236 628T140 703T79 817T57 965Q57 1041 77 1106T137 1220T232 1295T362 1323Q433 1323 489 1297T586 1223T647 1109T668 965ZM522 967Q522 1030 511 1080T479 1165T430 1218T367 1237Q297 1237 254 1168T211 967Q211 899 222 847T255 760T304 706T367 688Q400 688 428 705T477 757T510 844T522 967ZM352 -25H238L1128 1300H1243L352 -25ZM1430 338Q1430 255 1409 188T1347 74T1251 1T1124 -25Q1054 -25 998 1T902 76T841 190T819 338Q819 414 839 479T899 593T994 668T1124 696Q1195 696 1251 670T1348 596T1409 482T1430 338ZM1284 338Q1284 402 1273 452T1241 538T1192 591T1128 610Q1059 610 1016 540T973 338Q973 204 1016 133T1128 61Q1161 61 1189 78T1239 130T1272 217T1284 338ZM2130 338Q2130 255 2108 188T2047 74T1951 1T1825 -25Q1754 -25 1698 1T1602 76T1541 190T1520 338Q1520 414 1540 479T1598 593T1694 668T1825 696Q1895 696 1951 670T2047 596T2108 482T2130 338ZM1982 338Q1982 402 1971 452T1939 538T1890 591T1827 610Q1758 610 1716 540T1673 338Q1673 271 1684 220T1717 133T1766 79T1829 61Q1895 61 1938 130T1982 338Z"  />
<glyph unicode="&#x2039;" horiz-adv-x="643" d="M319 444L549 98L479 57L94 444L479 834L549 791L319 444Z"  />
<glyph unicode="&#x203A;" horiz-adv-x="643" d="M164 57L94 100L324 446L94 791L164 834L549 446L164 57Z"  />
<glyph unicode="&#x20AC;" horiz-adv-x="1106" d="M754 1323Q822 1323 890 1314T1022 1288Q1037 1285 1043 1281T1049 1268Q1049 1265 1049 1261T1047 1251L1016 1004L899 1008L897 1137Q897 1165 887 1178T854 1198Q819 1207 780 1210T702 1214Q619 1214 558 1188T454 1112T386 987T350 817H850L819 719H342Q339 684 339 649T338 582H770L739 483H344Q350 446 359 402T384 312T425 225T488 150T578 98T702 78Q753 78 792 84T858 104Q875 114 882 126T897 158L938 276L1049 256L1006 57Q1001 37 994 30T965 14Q934 3 897 -4T823 -16T752 -23T692 -25Q576 -25 483 4T321 94T208 252T147 483H23L51 582H145Q145 617 146 649T150 719H23L51 817H160Q168 850 181 900T220 1007T287 1120T391 1221T543 1295T754 1323Z"  />
<glyph unicode="&#x2122;" horiz-adv-x="1708" d="M725 1298L698 1133L631 1135L633 1212Q633 1228 628 1232T596 1237Q565 1239 526 1239T444 1239V725Q444 714 446 713T455 711H547V649H238V698L299 711Q308 712 313 714T321 720T325 734T326 758V1239Q312 1239 294 1239T258 1239T221 1239T188 1237Q162 1235 152 1228T135 1202L113 1130L51 1141L74 1298H725ZM1352 649V698L1417 711Q1422 711 1426 716T1430 743V758V1190L1188 657H1130L913 1184L909 745Q909 732 910 725T912 715T917 712T924 711H1006V649H750V698L807 711Q818 713 821 721T827 758Q830 797 833 856T839 979T844 1106T848 1212Q848 1229 845 1234T831 1239H762V1298H991L1190 813L1403 1298H1628V1251L1563 1239Q1550 1237 1545 1231T1540 1198L1544 729Q1544 717 1547 714T1561 711H1640V649H1352Z"  />

</font>
</defs>
</svg>
