<?xml  version="1.0" encoding="UTF-8"?>
<!DOCTYPE svg PUBLIC "-//W3C//DTD SVG 1.0//EN" "http://www.w3.org/TR/2001/REC-SVG-20010904/DTD/svg10.dtd" >
<svg xmlns="http://www.w3.org/2000/svg" >
<metadata>
<version>1.0</version>
<id><![CDATA[Legacy Serif ITC W01 Bk Cn]]></id>
<vendor>Monotype Imaging Inc.</vendor>
<credits>
<name>Fonts.com WebFonts</name>
<URL>http://webfonts.fonts.com</URL>
<role>Home of the Web fonts</role>
</credits>
<license>
<URL>http://webfonts.fonts.com/Legal</URL>
</license>
<copyright><![CDATA[Copyright 2009 International Typeface Corporation. All rights reserved.]]></copyright>
<trademark><![CDATA[ITC Legacy is a trademark of International Typeface Corporation registered in the U.S. Patent & Trademark Office and may be registered in certain jurisdictions.]]></trademark>
<licensee>
<name></name>
</licensee>
</metadata>
<defs >
<font horiz-adv-x="904" id="d1c66bc6-a0ec-419e-9aac-052d63f092ec">
<font-face font-family="" panose-1="2 2 5 6 6 4 8 2 3 3" ascent="1761" descent="-567" units-per-em="2048" alphabetic="0">
</font-face>
<missing-glyph horiz-adv-x="0" />

<glyph unicode="&#xA;" />
<glyph unicode="&#xD;" horiz-adv-x="0" />
<glyph unicode=" " horiz-adv-x="356" />
<glyph unicode="!" horiz-adv-x="512" d="M295 645Q291 591 288 548T283 470T279 404T276 342Q276 331 267 324T238 317Q234 317 233 320T231 326Q229 329 229 334T229 348Q227 430 224 500T217 638T208 773T195 920Q189 980 185 1026T178 1107T175 1170T174 1223Q174 1272 180 1291T203 1319Q207 1322 218 1325T243 1331T269 1335T289 1337Q317 1337 329 1315T342 1235Q342 1205 342 1179T338 1111T329 1006T313 836Q308 785 303 739T295 645ZM256 -23Q238 -23 220 -15T189 8T167 41T158 78Q158 97 166 115T188 147T220 169T256 178Q274 178 292 170T323 147T345 114T354 78Q354 60 346 42T324 9T292 -14T256 -23Z"  />
<glyph unicode="&quot;" horiz-adv-x="870" d="M594 1034Q590 1012 587 986T580 932T573 879T569 831Q568 817 567 809T562 798T551 794T530 793H528Q520 793 520 801Q518 806 517 814T514 842Q512 866 510 898T504 964T496 1031T487 1090Q482 1125 479 1148T473 1187T470 1215T469 1239Q469 1267 473 1284T487 1310T516 1323T563 1327Q595 1327 609 1311T623 1255Q623 1236 623 1220T619 1182T610 1125T594 1034ZM369 1034Q359 983 353 934T344 831Q343 817 342 809T336 798T325 794T305 793H301Q296 793 293 801Q291 806 291 814T289 842Q287 873 284 906T277 971T270 1034T262 1090Q256 1124 253 1147T247 1186T245 1215T244 1241Q244 1268 247 1285T261 1311T290 1323T338 1327Q369 1327 383 1311T397 1255Q397 1236 397 1220T393 1180T385 1123T369 1034Z"  />
<glyph unicode="#" horiz-adv-x="870" d="M926 909Q918 881 912 863T899 823Q896 812 893 809T879 805H862Q836 805 789 806T672 809Q669 797 651 725T598 514Q651 514 701 516T803 518H821Q826 518 828 518T831 512Q831 509 830 505T827 496L805 426Q800 412 797 410T780 408Q777 408 775 408T765 409T745 409T707 410H639Q625 410 616 410T600 411T587 411T573 412Q557 346 546 299T527 217T513 157T502 109T492 63T481 10Q479 4 476 0T466 -6T445 -9T410 -10Q403 -10 403 0V12Q405 17 408 28T418 57L440 137Q450 171 457 203T473 266Q481 294 486 314T496 351T504 382T510 412H233Q199 271 177 177T147 37Q145 29 144 23T141 12Q141 7 140 5T139 0Q137 -3 136 -3T129 -6Q127 -7 121 -7T107 -8T90 -9T74 -10Q63 -10 63 -2Q63 1 64 5T68 16Q83 69 109 166T170 412Q145 412 124 412T78 411T26 411T-41 410H-51Q-59 410 -59 414Q-59 417 -58 423T-53 438L-39 485Q-31 508 -28 513T-14 518H10Q25 518 48 518T97 516T149 515T197 514L270 809Q220 809 190 809T140 808T104 808T66 807H55H41Q35 807 35 813Q35 815 35 817T37 825Q39 833 43 846T55 885Q61 906 66 913T80 920Q83 920 85 919T98 918Q108 918 128 917T186 913Q213 912 228 912T254 911T273 911T295 911Q309 969 322 1024T345 1126T363 1209T375 1264Q377 1272 377 1277T379 1288Q381 1293 381 1295T381 1300Q384 1305 387 1305H389Q392 1306 399 1307T415 1309T431 1310T444 1311Q455 1311 455 1303Q455 1301 454 1298T453 1290Q451 1285 450 1280T446 1266Q439 1230 431 1196T411 1120T386 1029T356 911H635L715 1264Q724 1302 729 1305Q732 1306 739 1307T755 1309T771 1310T784 1311Q795 1311 795 1303Q795 1300 794 1294T790 1282L786 1266L696 911Q727 912 751 913T799 915T846 917T897 918H915Q919 918 922 916T926 909ZM332 811Q327 797 319 762T297 670Q279 596 258 514H537L610 809L332 811Z"  />
<glyph unicode="$" horiz-adv-x="870" d="M461 -37Q461 -71 461 -95T462 -138T462 -170T463 -193Q463 -199 462 -202T455 -205H414Q410 -205 410 -199V-186Q410 -170 410 -155T411 -117T411 -61T412 25H383Q351 25 301 29T186 45Q180 45 175 46T166 47Q158 47 151 45T139 37Q134 32 132 32T125 31Q115 31 115 35Q112 40 111 52T109 72Q93 181 87 249T80 352Q80 363 88 371T113 379Q119 379 119 365Q132 298 154 248T212 162T296 108T414 84V608Q400 614 386 621T358 637Q343 646 330 653T307 666Q258 692 222 720T162 783T127 858T115 950Q115 1012 134 1067T192 1166T285 1239T412 1278L408 1446Q408 1454 412 1454H420H434H455Q460 1454 462 1454T465 1448V1423Q465 1375 464 1340T463 1280Q500 1278 547 1274T631 1264Q648 1261 654 1261T668 1260Q674 1260 678 1262T688 1268Q691 1270 693 1270T698 1270Q709 1270 709 1264V1245Q709 1234 708 1223T707 1196Q707 1162 709 1122T715 1047Q721 1000 721 997Q721 992 715 988T692 983Q687 983 682 999Q667 1062 648 1103T603 1170T542 1208T461 1223V729Q482 718 508 705T563 678Q591 662 616 646T662 614Q725 562 755 498T786 346Q786 281 765 226T703 130T602 61T461 27V-37ZM414 1221Q372 1216 339 1198T283 1152T248 1086T236 1006Q236 963 243 929T270 865T324 808T414 752V1221ZM461 84Q554 93 605 150T657 313Q657 358 651 393T623 458T564 519T461 586V84Z"  />
<glyph unicode="%" horiz-adv-x="1157" d="M281 657Q229 657 186 680T112 745T64 847T47 979Q47 1055 67 1118T123 1226T209 1296T319 1321Q370 1321 412 1298T485 1231T532 1129T549 999Q549 925 529 863T472 755T387 683T281 657ZM608 639Q542 502 497 408T421 249T373 146T344 82T324 38T305 -2H221Q299 163 381 325T545 648T705 972T854 1300H936Q921 1275 898 1230T837 1108T743 917T608 639ZM842 -14Q789 -14 746 9T673 75T625 177T608 309Q608 386 627 449T682 557T767 626T877 651Q928 651 970 628T1044 561T1092 459T1110 330Q1110 256 1090 193T1033 84T948 12T842 -14ZM279 1257Q250 1257 226 1240T185 1192T159 1118T150 1020Q150 955 162 900T197 804T250 740T317 717Q347 717 371 733T411 780T437 853T446 950Q446 1017 434 1073T399 1170T346 1234T279 1257ZM838 590Q809 590 786 573T746 525T720 450T711 352Q711 286 723 230T758 134T811 70T877 47Q907 47 931 63T972 111T998 185T1008 283Q1008 349 995 405T960 502T906 567T838 590Z"  />
<glyph unicode="&amp;" horiz-adv-x="1257" d="M1024 -23Q984 -23 951 -9T887 38T828 121T768 246Q722 173 679 122T593 38T503 -10T403 -25Q334 -25 277 -2T180 65T117 174T94 326Q94 470 168 573T377 752Q352 768 329 790T287 840T257 899T246 967Q246 1092 338 1190Q375 1230 422 1256T526 1282Q571 1282 608 1265T672 1219T712 1149T727 1061Q727 983 685 918T547 795Q592 769 630 741T701 670T765 569T825 422Q906 556 942 641T979 772Q979 798 951 806T860 817Q849 817 846 819T842 829V842Q842 853 844 856T852 860Q863 860 901 857T1018 854Q1099 854 1140 857T1190 860Q1193 860 1194 858T1196 848Q1196 834 1195 830T1184 823Q1169 820 1156 817T1131 807T1106 788T1077 754Q1060 731 1040 699T993 621Q965 574 930 514T848 373Q866 334 878 309T898 267T914 238T928 211Q959 149 995 121T1073 92Q1102 92 1129 105T1178 143T1217 201T1241 276Q1243 284 1245 286T1255 289Q1263 289 1266 288T1270 281Q1267 225 1250 171T1202 74T1127 4T1024 -23ZM365 1149Q348 1126 339 1096T330 1034Q330 979 359 926T453 842Q467 836 480 831T508 819Q523 828 541 840T575 870Q601 898 615 930T629 1004Q629 1048 615 1084T579 1147T527 1187T467 1202Q439 1202 413 1190T365 1149ZM702 412Q681 466 655 513T595 600T519 672T422 727Q314 664 265 579T215 379Q215 311 232 256T280 163T357 105T461 84Q501 84 537 97T608 136T677 202T748 295Q737 321 726 351T702 412Z"  />
<glyph unicode="&apos;" horiz-adv-x="594" d="M346 1034Q337 983 331 934T322 831Q321 817 319 809T313 798T302 794T283 793H279Q273 793 270 801Q268 806 268 814T266 842Q264 873 261 906T255 971T248 1034T240 1090Q234 1124 230 1147T224 1186T222 1215T221 1241Q221 1268 225 1285T239 1311T268 1323T315 1327Q347 1327 361 1311T375 1255Q375 1236 375 1220T371 1180T362 1123T346 1034Z"  />
<glyph unicode="(" horiz-adv-x="614" d="M559 -489Q458 -404 387 -308T269 -114T194 78T152 252T135 393T131 487Q131 568 144 655T182 830T243 1004T328 1169T433 1319T559 1446Q567 1434 571 1428T578 1418Q581 1414 582 1413Q505 1312 450 1210T359 995T306 759T289 492Q289 352 302 229T349 -10T439 -235T582 -459L559 -489Z"  />
<glyph unicode=")" horiz-adv-x="614" d="M55 1446Q138 1375 202 1292T314 1121T394 943T446 768T474 607T483 469Q483 347 454 214T371 -48T237 -290T55 -489Q47 -478 43 -472T36 -462Q33 -458 33 -457Q110 -356 165 -254T256 -39T309 197T326 465Q326 605 313 728T266 966T176 1191T33 1415L55 1446Z"  />
<glyph unicode="*" horiz-adv-x="870" d="M766 911Q763 911 747 913T707 919T651 928T587 938T523 950T465 961Q476 945 484 937T500 918Q526 892 549 861T602 801Q623 776 636 761T656 735T665 719T668 705Q668 692 660 680T640 657T611 641T580 635Q569 635 562 636T549 649Q544 657 539 669T528 694T519 721T510 743Q505 756 502 765T493 788T481 823T459 881Q451 902 445 917T436 942L348 686Q330 631 295 631Q280 631 265 637T237 653T216 675T207 698Q207 704 208 709T214 720T226 736T246 760Q286 808 325 858T408 958Q363 950 315 941T203 918Q177 912 162 909T137 905T123 903T111 903Q86 903 73 921T59 971Q59 1003 71 1021T104 1040Q109 1040 119 1039T152 1034Q217 1022 281 1011T408 989Q370 1033 336 1072T268 1149Q247 1173 234 1188T214 1214T205 1231T203 1245Q203 1258 211 1270T231 1293T260 1309T291 1315Q302 1315 308 1313T322 1300Q328 1291 336 1270T358 1210Q375 1167 394 1117T436 1008Q450 1051 460 1079T473 1116Q484 1148 491 1169T503 1205T512 1234T522 1262Q533 1291 545 1305T575 1319Q590 1319 605 1313T634 1297T655 1275T664 1251Q664 1245 663 1241T655 1227Q649 1217 637 1202T602 1159Q588 1144 567 1119T526 1069T488 1022T465 991Q470 992 477 993T503 999T561 1010T668 1032Q692 1036 706 1039T731 1044T747 1046T760 1047Q785 1047 798 1029T811 979Q811 948 800 930T766 911Z"  />
<glyph unicode="+" horiz-adv-x="870" d="M483 598V270H387V598H68V696H387V1024H483V696H803V598H483Z"  />
<glyph unicode="&#x2c;" horiz-adv-x="408" d="M170 -342Q157 -351 141 -359T109 -375T82 -386T63 -391Q55 -391 43 -384T25 -371L27 -365Q73 -353 112 -327T180 -264T225 -187T242 -106Q242 -72 236 -52T221 -18Q212 -6 195 2T164 18Q141 29 120 47T98 94Q98 105 101 116T115 139Q147 184 188 184Q216 184 248 160Q288 125 307 72T326 -49Q326 -92 315 -133T284 -213T234 -284T170 -342Z"  />
<glyph unicode="-" horiz-adv-x="553" d="M467 399H63L88 518H489L467 399Z"  />
<glyph unicode="." horiz-adv-x="408" d="M211 -23Q193 -23 176 -15T145 8T123 41T115 78Q115 97 123 115T144 147T175 169T211 178Q229 178 247 170T278 147T300 114T309 78Q309 60 301 42T279 9T247 -14T211 -23Z"  />
<glyph unicode="/" horiz-adv-x="705" d="M356 477Q289 275 243 134T166 -104T116 -259T86 -356T69 -418T57 -469H-31Q-14 -425 -4 -397T14 -347T29 -302T47 -248Q135 17 203 225T325 595T418 877T486 1084T533 1230T564 1330T584 1398T598 1448H686Q672 1416 647 1345T582 1157T487 871T356 477Z"  />
<glyph unicode="0" horiz-adv-x="870" d="M432 -25Q357 -25 301 5T206 87T141 207T100 349T80 500T74 645Q74 717 80 795T100 948T141 1090T207 1209T303 1291T434 1321Q520 1321 587 1279T701 1153T772 943T797 649Q797 316 702 146T432 -25ZM434 1268Q383 1268 342 1231T273 1118T229 924T213 647Q213 340 267 185T434 29Q488 29 525 64T588 155T627 280T647 418T655 548T657 649Q657 810 644 927T603 1119T533 1231T434 1268Z"  />
<glyph unicode="1" horiz-adv-x="870" d="M535 1317Q543 1314 543 1305Q543 1297 542 1289T539 1260T536 1199T532 1088T529 910T528 645Q528 491 528 387T530 217Q532 149 536 116T553 68Q569 53 610 47Q629 45 652 44T702 43H717Q720 43 721 42T725 41Q729 39 729 23Q729 7 727 2T711 -4Q706 -4 698 -4T682 -3Q672 -3 662 -2Q626 0 583 0T494 0Q465 0 436 0T375 0T304 -2T221 -6Q210 -6 208 -2T205 14Q205 35 209 37Q211 39 213 39T219 41H236Q278 44 311 47Q328 49 341 53T365 63Q378 73 386 97T398 167T404 286T406 469V877Q406 970 405 1022T398 1098T385 1128T362 1133Q352 1133 332 1126T290 1108T248 1087T217 1073Q215 1073 214 1072T211 1071Q208 1071 208 1074T207 1083V1108Q207 1113 209 1115T223 1124Q249 1137 285 1159T360 1208T435 1261T498 1311Q503 1316 508 1320T516 1325Q518 1325 521 1324T535 1317Z"  />
<glyph unicode="2" horiz-adv-x="870" d="M786 307Q786 302 785 295T780 272Q777 255 775 243T768 210T758 158T739 70L731 27Q729 16 727 10T721 1T711 -3T692 -4Q681 -4 660 -4T614 -2Q593 -1 562 -1T499 0T437 1T387 2Q336 2 279 0T156 -2Q118 -2 98 -3T72 -4Q69 -4 64 -4T59 2V25Q59 28 60 30T63 35Q92 70 128 116T204 212T281 315T354 416Q422 512 466 584T537 719T575 840T586 965Q586 1023 571 1069T529 1147T464 1197T381 1214Q349 1214 317 1202T256 1169T203 1121T164 1063Q155 1046 153 1032T147 1001Q144 987 139 984T131 981Q127 981 122 984T113 991T105 999T102 1006Q102 1018 109 1040T128 1089T157 1142T193 1192Q244 1257 310 1289T455 1321Q510 1321 557 1297T640 1228T695 1124T715 991Q715 936 704 884T669 776T606 658T512 522Q495 500 473 470T413 395T321 284T184 125H410Q521 125 591 127T684 141Q707 154 724 197T760 309L762 317Q764 319 766 319Q771 319 778 316T786 307Z"  />
<glyph unicode="3" horiz-adv-x="870" d="M315 -25Q185 -25 121 51Q99 76 87 104T74 158Q74 172 80 185T97 209T119 226T145 233Q152 233 157 232T166 225T176 210T188 182Q200 150 219 125T265 80T322 51T387 41Q441 41 486 67T565 139T618 247T637 383Q637 452 622 508T577 603T505 664T408 686Q369 686 337 673T264 633Q260 629 258 629Q255 629 249 639T242 664Q242 667 247 671T270 686Q328 720 381 755T474 829T537 912T561 1010Q561 1050 553 1088T525 1155T472 1203T391 1221Q328 1221 272 1188T180 1092Q174 1079 169 1070T162 1061Q153 1061 142 1070T131 1085Q131 1093 145 1118T186 1178Q243 1250 316 1285T463 1321Q511 1321 551 1304T621 1255T667 1181T684 1087Q684 1046 672 1008T633 933T563 855T455 770Q466 770 477 771T496 772Q566 770 617 741T703 666T753 561T770 440Q770 342 735 258T638 110T493 11T315 -25Z"  />
<glyph unicode="4" horiz-adv-x="870" d="M856 379Q854 371 851 367T836 362H662Q662 287 662 224T663 112Q663 57 664 10Q664 1 661 -1T653 -4Q641 -4 630 -3T602 -2Q585 -2 571 -3T547 -4Q542 -4 540 2T537 14L539 362H55Q46 362 43 364T39 379V438Q39 444 40 450T49 467L604 1313Q607 1319 610 1319H614L618 1317Q624 1317 631 1316T646 1314T659 1310T664 1305V1303Q664 1214 664 1122T663 928T663 711T662 461H850Q859 461 862 459T866 446L856 379ZM539 461L541 1122L104 461H539Z"  />
<glyph unicode="5" horiz-adv-x="870" d="M735 1225Q730 1207 725 1196T711 1179T689 1171T653 1169H330L283 1001Q276 980 273 966T268 944Q266 939 266 935T266 924Q266 915 269 908T285 891T323 870T393 836Q462 802 511 770T598 705Q658 652 693 576T729 408Q729 320 697 242T609 104T480 10T324 -25Q289 -25 246 -12T165 25T101 85T74 164Q74 178 80 192T97 217T120 235T145 242Q159 242 169 233T188 197Q213 121 265 85T393 49Q448 49 490 70T560 129T602 222T616 342Q616 430 585 503T489 627Q475 638 449 655T387 691T310 733T223 776Q202 787 198 793T193 807Q193 810 197 832T213 897L305 1260Q311 1287 315 1293T332 1300H553Q610 1300 643 1301T696 1305T723 1314T739 1331Q744 1341 750 1341H760Q764 1341 764 1335Q764 1333 762 1322T755 1294T745 1260T735 1225Z"  />
<glyph unicode="6" horiz-adv-x="870" d="M309 614V631Q309 646 311 655T319 672Q333 696 357 717T409 754T469 779T530 788Q585 788 632 759T713 679T767 555T786 395Q786 302 761 225T691 92T584 6T446 -25Q368 -25 306 10T200 111T133 273T109 489Q109 726 185 904T401 1202Q438 1234 483 1260T574 1306T664 1335T743 1346Q760 1346 767 1343T778 1331Q781 1323 781 1311T782 1288Q782 1264 762 1264H748Q742 1264 721 1270Q707 1275 697 1275T672 1276Q649 1276 621 1267T562 1240T502 1198T444 1145Q342 1033 293 875T244 508Q244 400 259 313T302 163T372 67T467 33Q510 33 545 55T605 119T643 216T657 340Q657 421 643 486T603 598T539 669T451 694Q409 694 376 674T319 623L313 614H309Z"  />
<glyph unicode="7" horiz-adv-x="870" d="M842 1280Q842 1275 839 1270T834 1262Q742 1042 645 830T453 397Q421 325 391 256T330 109Q317 74 307 48T293 8Q282 -24 274 -33T252 -43Q242 -43 231 -38T209 -26T193 -9T186 8Q186 16 190 25T211 61Q215 68 236 108T292 217T374 384T479 602T601 865T737 1167H453Q384 1167 338 1166T263 1161T218 1154T197 1145Q189 1139 184 1131T174 1106Q169 1089 164 1062T150 987Q145 969 135 969Q106 969 106 985Q106 990 106 994T109 1004Q113 1037 116 1073T122 1144T126 1206T129 1251V1276Q129 1285 132 1292T147 1300H156Q165 1300 189 1300T247 1299T323 1298T405 1297T486 1297T555 1296Q615 1296 676 1297T797 1300Q806 1302 813 1302T827 1303Q830 1303 836 1296T842 1280Z"  />
<glyph unicode="8" horiz-adv-x="870" d="M403 -25Q330 -25 271 -2T171 62T107 162T84 293Q84 351 96 400T139 494T220 579T346 662Q301 692 261 722T189 791T140 879T121 995Q121 1066 145 1125T212 1228T315 1296T449 1321Q518 1321 573 1301T666 1245T724 1156T745 1038Q745 972 723 915T659 817Q645 803 632 791T602 766Q585 752 563 738T508 705Q562 672 612 638T700 561T762 465T786 338Q786 254 759 187T681 72T560 0T403 -25ZM430 1270Q386 1270 351 1254T290 1207T252 1133T238 1036Q238 968 255 922T303 842Q319 825 337 811T377 782Q397 768 420 756T469 727Q511 755 540 783T589 845T618 920T627 1014Q627 1143 573 1206T430 1270ZM377 641Q331 612 299 580T246 511T217 432T207 340Q207 269 223 212T269 115T344 53T446 31Q557 31 610 98T664 283Q664 341 652 386T607 472T519 553T377 641Z"  />
<glyph unicode="9" horiz-adv-x="870" d="M557 702V686Q557 671 555 662T547 645Q533 621 510 600T457 562T397 537T336 528Q280 528 234 554T154 628T101 745T82 901Q82 994 107 1071T176 1203T283 1290T420 1321Q498 1321 561 1288T667 1191T734 1034T758 819Q758 583 682 398T465 94Q428 62 383 36T292 -10T201 -39T123 -49Q106 -49 99 -46T88 -35Q85 -27 85 -15T84 8Q84 33 104 33H119Q124 33 145 27Q159 22 170 21T195 20Q218 20 246 29T304 56T364 98T422 152Q524 263 573 427T623 801Q623 908 608 994T565 1140T494 1232T399 1264Q356 1264 322 1242T263 1178T225 1081T211 956Q211 792 264 708T416 623Q458 623 491 643T547 694L553 702H557Z"  />
<glyph unicode=":" horiz-adv-x="408" d="M213 674Q195 674 178 682T147 705T125 737T117 774Q117 792 125 810T146 842T177 865T213 874Q231 874 249 866T280 843T302 810T311 774Q311 755 303 737T281 705T249 683T213 674ZM211 -23Q193 -23 176 -15T145 8T123 41T115 78Q115 97 123 115T144 147T175 169T211 178Q229 178 247 170T278 147T300 114T309 78Q309 60 301 42T279 9T247 -14T211 -23Z"  />
<glyph unicode=";" horiz-adv-x="408" d="M309 766Q309 747 301 729T279 697T247 675T211 666Q193 666 176 674T145 697T123 729T115 766Q115 784 123 802T144 833T175 855T211 864Q229 864 247 856T278 834T300 802T309 766ZM170 -342Q158 -351 142 -360T111 -376T84 -387T66 -391Q58 -391 46 -384T27 -371V-367Q74 -355 113 -328T182 -265T227 -188T244 -106Q244 -72 239 -53T223 -20Q214 -6 197 2T166 18Q143 29 122 47T100 94Q100 105 103 116T117 139Q148 184 188 184Q202 184 218 178T250 158Q290 123 309 70T328 -49Q328 -92 317 -134T285 -214T235 -284T170 -342Z"  />
<glyph unicode="&lt;" horiz-adv-x="870" d="M86 604V690L784 1053V942L209 649L784 352V242L86 604Z"  />
<glyph unicode="=" horiz-adv-x="870" d="M68 723V819H803V723H68ZM68 479V575H803V479H68Z"  />
<glyph unicode="&gt;" horiz-adv-x="870" d="M86 242V352L664 645L86 942V1053L784 688V604L86 242Z"  />
<glyph unicode="?" horiz-adv-x="647" d="M360 573Q311 544 286 524T250 479Q244 467 242 453T240 420V309Q240 298 238 295T225 291Q216 291 213 293T207 305L201 338Q188 404 181 449T174 526Q174 557 185 584T225 635Q250 653 281 671T344 709Q395 740 428 766T479 819T505 873T512 934Q512 980 500 1024T455 1108Q423 1148 380 1166T281 1184Q261 1184 247 1183T220 1178T197 1170T174 1159Q162 1153 150 1153Q128 1153 116 1176T104 1233Q104 1271 131 1291T223 1311Q313 1311 380 1264T510 1120Q526 1095 541 1067T569 1007T588 941T596 870Q596 822 581 783T539 710T473 647T389 590L360 573ZM240 -16Q223 -16 207 -8T177 13T155 43T147 78Q147 96 155 112T176 142T205 164T240 172Q257 172 273 164T302 143T322 113T330 78Q330 60 323 44T302 14T273 -8T240 -16Z"  />
<glyph unicode="@" horiz-adv-x="1409" d="M1055 330Q1014 308 971 299T893 289Q839 289 810 312T780 395Q780 407 781 422T785 459T794 512T809 588L807 590Q760 506 723 449T653 356T590 305T526 289Q472 289 442 332T412 444Q412 498 428 556T475 671T546 781T635 878T737 956T848 1008Q857 1037 873 1047T911 1057Q933 1057 948 1048T963 1024Q963 1019 963 1013T961 999Q953 955 944 900T925 785T907 666T892 558T881 473T877 424Q877 390 891 369T934 348Q988 348 1037 379T1124 469T1184 610T1206 793Q1206 902 1176 989T1090 1138T956 1233T784 1266Q667 1266 567 1214T394 1069T280 849T238 571Q238 429 277 326T395 147Q528 25 727 25Q764 25 803 29T879 42T950 62T1012 90Q1016 92 1020 92Q1021 92 1023 88T1027 78T1030 66T1032 55Q1032 53 1031 51T1024 46T1007 36T975 20Q913 -6 845 -19T698 -33Q562 -33 453 9T266 131T148 321T106 571Q106 735 158 875T302 1117T521 1277T795 1335Q909 1335 1004 1298T1169 1191T1276 1024T1315 805Q1315 725 1298 653T1247 519T1165 410T1055 330ZM786 897Q757 897 727 880T667 835T612 768T565 688T534 603T522 520Q522 474 539 446T586 418Q613 418 641 438T696 493T747 570T788 660T816 752T827 834Q827 866 819 881T786 897Z"  />
<glyph unicode="A" horiz-adv-x="1077" d="M711 -4Q701 -4 697 0T692 16Q692 32 696 35T711 41Q729 43 744 43T772 45Q784 47 793 49T809 59Q821 75 821 98Q821 114 817 132T807 174Q797 210 784 254T759 341T736 421T719 481Q662 481 608 482T500 483Q450 483 402 482T303 481Q275 396 256 335T223 233Q220 222 215 206T206 172T198 135T195 100Q195 77 203 66Q210 55 227 50T264 43T303 41T334 39Q337 39 341 39T348 37Q352 33 352 18Q352 3 348 -1T332 -6Q288 -4 247 -2T162 0Q137 0 113 -1T63 -4L27 -6Q16 -6 13 -2T10 14Q10 25 11 30T16 39Q19 41 24 41T33 43Q38 43 42 43T51 47Q56 50 59 56T70 76Q76 88 80 97T90 123Q98 138 109 165T139 244Q323 726 413 979T504 1264Q504 1282 509 1287T524 1294Q560 1297 598 1307Q602 1309 610 1309Q622 1309 625 1288Q630 1266 637 1235T657 1158T687 1046T734 887T800 670T889 383Q909 320 924 273T950 188Q972 120 987 88Q995 71 1001 63T1016 49Q1027 41 1036 42T1057 41Q1067 41 1067 18Q1067 7 1065 2T1051 -4H1028Q993 -2 955 -2T879 -2Q794 -2 756 -3T711 -4ZM322 539Q365 539 409 538T500 537Q551 537 601 538T702 539Q664 667 634 770T582 949T546 1070T528 1130L322 539Z"  />
<glyph unicode="B" horiz-adv-x="1049" d="M510 -6Q451 -6 391 -3T258 0Q221 0 185 -2T106 -4Q92 -4 89 0T86 16Q86 30 89 34T104 39Q130 42 145 43T170 47Q178 49 184 53T199 66Q209 76 215 96T224 150T228 232T229 348Q229 408 230 469Q230 521 230 579T231 688V944Q231 1070 227 1140T207 1233Q202 1241 190 1245T164 1252T136 1254T111 1255Q97 1255 95 1260T92 1280Q92 1294 95 1298T109 1303Q119 1303 136 1303T173 1302T211 1301T242 1300Q267 1300 293 1301T350 1302T418 1304T502 1305Q533 1305 566 1304T631 1297T693 1283T750 1257Q810 1219 840 1157T870 1014Q870 860 750 770Q734 759 719 751T682 733Q673 730 662 726T637 719Q708 713 757 694T848 639Q901 596 929 529T958 385Q958 276 918 201T814 80T670 14T510 -6ZM461 1251Q423 1251 402 1247T375 1237Q372 1234 371 1232T369 1225Q367 1220 367 1214T367 1200Q366 1185 365 1151T364 1069T363 963T362 842V723Q398 723 433 723T506 727Q524 727 537 728T561 731Q635 748 675 814T715 989Q715 1067 696 1117T643 1197T563 1239T461 1251ZM362 670Q360 605 360 549T360 444Q360 336 361 271T365 180Q367 140 374 115T396 75T435 55T498 49Q644 49 724 132T805 371Q805 459 781 517T712 609T602 658T453 672Q450 672 447 672T434 672T407 672T362 670Z"  />
<glyph unicode="C" horiz-adv-x="1124" d="M1051 1284Q1051 1273 1048 1260T1042 1235Q1030 1163 1025 1096T1016 971Q1016 955 1012 951T993 946Q976 946 973 952Q971 954 971 963Q970 984 969 1014T962 1077T948 1139T924 1188Q909 1205 883 1218T824 1241T752 1255T676 1260Q578 1260 499 1216T363 1093T277 903T246 662Q246 522 277 407T366 209T505 81T686 35Q792 35 871 76T999 219Q1005 229 1012 229Q1020 229 1028 225Q1034 222 1037 220T1040 213Q1040 208 1039 204T1036 195Q1025 164 1020 147T1010 115Q1007 102 1003 89T993 53Q991 47 990 39T983 25Q981 23 980 22T975 18Q972 16 969 15T958 12Q939 4 910 -2T846 -14T771 -22T688 -25Q564 -25 470 5T305 98Q257 140 220 199T157 329T118 480T104 645Q104 786 142 910T256 1125T443 1270T700 1323Q747 1323 785 1320T858 1311Q892 1306 920 1300T973 1290Q978 1288 985 1287T999 1286Q1004 1286 1007 1286T1018 1292Q1027 1298 1032 1298Q1051 1298 1051 1284Z"  />
<glyph unicode="D" horiz-adv-x="1317" d="M979 121Q933 84 881 60T770 20T649 -1T518 -8Q484 -8 453 -7T391 -5T328 -2T260 0Q203 0 165 -2T115 -4Q104 -4 97 -2T90 18Q90 32 94 35T113 41Q122 42 134 43T158 47T181 55T199 68Q206 77 212 92T222 145T229 247T231 422V993Q231 1099 226 1155T205 1231Q192 1245 181 1248T152 1253Q145 1253 138 1254T121 1255Q116 1255 108 1255T96 1260Q93 1263 93 1267T92 1280Q92 1295 96 1299T111 1303L193 1300Q213 1300 231 1299T266 1298Q317 1298 357 1300T438 1305T521 1310T618 1313Q712 1313 799 1292T952 1231Q1011 1195 1059 1137T1142 1006T1195 848T1214 672Q1214 589 1198 510T1152 359T1078 227T979 121ZM578 1257Q511 1257 473 1253T412 1237Q401 1230 394 1221T381 1192T374 1134T370 1034T368 878T367 651Q367 499 367 403T369 248T373 160T379 115Q384 94 395 81T426 60T473 50T541 47Q672 47 771 91T937 216T1037 408T1071 655Q1071 726 1061 798T1029 937T969 1062T877 1163T748 1231T578 1257Z"  />
<glyph unicode="E" horiz-adv-x="1034" d="M934 240Q929 214 922 177T903 92Q897 55 893 36T885 6Q882 -3 877 -5T864 -8L795 -4Q780 -3 750 -3T679 -2T590 -1T489 0Q413 0 348 -1T233 -3T151 -5T109 -6Q98 -6 94 -3T90 16Q90 31 94 35Q97 38 102 38T111 39Q126 41 141 42T168 45Q180 48 190 53T209 70Q226 90 229 184Q232 232 232 299T233 457V672V817Q233 930 233 1005T229 1128Q227 1176 223 1201T207 1235Q201 1243 192 1246T170 1251Q156 1253 142 1254T109 1255Q101 1257 98 1259T92 1270V1280Q92 1294 95 1298T113 1303H133Q197 1301 254 1300T362 1298T462 1297T557 1296Q626 1296 695 1297T846 1303L889 1305Q901 1305 905 1300T909 1286V1280Q898 1220 896 1167T891 1053Q891 1040 891 1032T889 1018Q889 1004 887 999Q884 991 874 991H866Q851 991 848 998T844 1020Q842 1092 831 1132T805 1190Q786 1213 730 1223T563 1233Q541 1233 515 1233T466 1232T424 1230T397 1227Q389 1225 384 1221T375 1198T371 1138T369 1026V711H385Q475 711 536 712T638 716T701 727T735 748Q745 758 751 770T760 795T766 823T770 850Q770 855 771 864T776 879Q779 882 784 882T797 883Q817 880 817 868Q817 855 816 836T812 789T809 723T807 635Q807 615 807 598T808 563T810 528T813 487Q813 476 809 470T786 463Q775 463 772 467T766 485Q766 487 766 489T765 495Q764 499 764 502Q759 544 751 569T725 612Q701 644 621 647Q579 649 521 649T385 649H369Q369 565 369 487T371 342T373 227T375 152Q376 121 380 104T402 77T454 66T549 63Q650 63 710 73T803 106Q816 116 829 134T853 175T875 225T893 281Q896 292 898 300T905 328Q907 338 915 338Q917 338 922 338T930 336Q941 333 942 328T944 315Q944 300 942 284T934 240Z"  />
<glyph unicode="F" horiz-adv-x="946" d="M897 1282Q897 1248 890 1190T881 1036V1012V995Q876 985 858 985Q846 985 842 988T836 1004Q836 1007 835 1011T834 1020Q832 1049 830 1078T823 1133Q817 1183 793 1204Q780 1213 755 1219T696 1230T620 1235T530 1237Q473 1237 442 1236T395 1231T376 1219T371 1198Q369 1185 368 1173T367 1146T366 1111T365 1061Q363 999 363 905T362 698H436Q544 698 607 700T703 714T747 751T762 823Q764 843 765 852T768 866Q771 869 774 869T784 870Q801 870 804 865T807 846Q807 827 804 777T801 645Q801 602 802 559T805 473Q805 459 803 452T788 444Q773 444 769 447T762 467Q761 472 760 479T758 493Q757 501 756 510Q750 550 739 575T695 613T601 630T434 635H414Q404 635 392 635T362 633V389Q362 313 363 257T367 161T375 100T389 68Q397 57 410 53T442 45Q459 43 480 43T524 41H539Q547 38 547 31V16Q547 8 546 4T543 -4Q540 -6 536 -6T526 -6L508 -4Q437 -2 390 -1T303 0Q263 0 225 -1T133 -4H96Q90 -4 88 -2Q82 1 82 18Q82 31 85 35T98 39Q115 41 129 41T156 43Q167 46 176 49T195 59Q203 65 209 80T220 141T227 271T229 502V954Q229 1022 229 1070T225 1153Q222 1218 207 1233Q194 1247 176 1250T129 1255H113Q102 1257 99 1261T96 1280Q96 1289 97 1294T102 1303H113H127Q149 1303 155 1302T164 1300Q220 1298 280 1297T403 1296Q471 1296 545 1297T685 1300T804 1303T883 1305Q894 1305 895 1299T897 1282Z"  />
<glyph unicode="G" horiz-adv-x="1255" d="M1165 625Q1148 622 1134 618T1110 602Q1095 581 1092 528Q1090 515 1089 482T1086 410T1084 335T1083 279Q1083 243 1083 215T1084 166T1085 129T1087 100Q1087 94 1088 87T1090 68Q1090 55 1084 48T1063 35Q970 7 876 -9T696 -25Q556 -25 447 19T261 146T144 350T104 623Q104 779 150 907T282 1128T493 1272T774 1323Q792 1323 808 1322T842 1320T881 1315T928 1307Q945 1305 963 1300T1001 1294Q1009 1294 1013 1296T1020 1300Q1028 1309 1040 1309H1044Q1051 1309 1055 1305Q1057 1300 1057 1278Q1057 1262 1056 1247T1055 1217Q1055 1194 1055 1167T1057 1113T1060 1063T1063 1026Q1063 1020 1064 1011T1065 993Q1065 984 1061 981T1047 975Q1042 973 1039 973T1032 973Q1023 973 1020 989Q1018 997 1016 1007T1012 1032Q1002 1092 991 1128T965 1178Q948 1195 921 1208T859 1229T787 1242T709 1247Q603 1247 517 1207T371 1092T277 907T244 659Q244 491 285 362T414 152Q476 95 555 65T719 35Q794 35 849 50T924 86Q933 96 939 113T950 159T956 232T958 340Q958 448 952 506T928 584Q918 595 903 600T868 608Q848 611 825 611T778 612Q764 612 760 615T756 637Q756 651 760 655T776 659Q779 659 811 657T918 655Q978 655 1038 658T1161 666Q1172 666 1175 663T1178 645Q1178 633 1176 629T1165 625Z"  />
<glyph unicode="H" horiz-adv-x="1339" d="M1225 -4Q1163 -1 1115 0T1024 2Q976 2 935 1T848 -4L829 -6Q818 -6 817 -2T815 16Q815 24 816 29T827 37Q829 39 836 39Q851 42 864 43T891 47Q902 50 911 55T928 68Q938 80 945 108T956 184T961 303T963 469V645H367V406Q367 327 367 269T371 169T379 104T393 68Q403 57 412 52T436 43Q452 41 469 41T512 39Q523 39 524 34T526 16Q526 2 524 -2T512 -6Q504 -6 491 -5T475 -4Q424 -2 382 -1T299 0Q262 0 223 -2T139 -4Q132 -5 126 -5Q121 -6 115 -6T104 -6Q101 -6 98 -6T92 -4Q86 -1 86 16Q86 29 88 34T102 39Q142 42 161 46T195 66Q218 89 223 173T229 412Q229 444 230 481Q230 513 230 555T231 645V805Q231 905 231 978T227 1104Q225 1155 221 1185T209 1229Q195 1248 168 1251Q154 1254 139 1254T104 1257Q101 1257 98 1257T92 1262Q88 1264 88 1280Q88 1294 92 1298T109 1303H125Q168 1303 214 1301T322 1298Q368 1298 398 1299T449 1300T483 1302T508 1303Q519 1303 521 1299T524 1280Q524 1265 521 1261T508 1255Q496 1255 484 1254T459 1253Q439 1250 423 1245T393 1223Q376 1200 372 1112T367 858V707H963V928V1053Q963 1079 963 1101T961 1143Q957 1214 936 1235Q922 1249 896 1252T838 1255Q835 1255 830 1255T823 1260Q820 1263 820 1267T819 1280Q819 1296 823 1300Q825 1302 828 1302T836 1303H866Q908 1301 945 1300T1020 1298Q1117 1298 1170 1300T1243 1303Q1254 1303 1257 1299T1260 1280Q1260 1255 1243 1255H1237Q1223 1255 1208 1255T1177 1251T1150 1242T1128 1223Q1121 1213 1116 1196T1108 1147T1102 1062T1100 930V487V315Q1100 278 1100 248T1102 193Q1104 142 1108 112T1120 70Q1128 59 1140 54T1167 47Q1184 44 1204 44T1247 41Q1258 39 1261 36T1264 18Q1264 1 1259 -2T1243 -6L1225 -4Z"  />
<glyph unicode="I" horiz-adv-x="608" d="M479 -4Q461 -3 435 -3T380 -2T318 -1T254 0Q214 0 178 -1T117 -4Q108 -5 100 -5Q93 -6 87 -6T78 -6Q75 -6 70 -6T61 -4Q59 -1 58 3T57 16Q57 31 63 37Q67 39 71 39T78 39Q103 41 119 41T150 45Q162 48 170 53T190 68Q204 82 212 111T224 192T230 323T231 518V891Q231 974 231 1032T227 1128Q224 1169 219 1191T203 1227Q195 1236 185 1241T160 1249Q144 1252 127 1253T86 1257Q78 1257 73 1258T66 1264Q62 1267 62 1273T61 1284Q61 1296 65 1299T80 1303H96Q171 1299 225 1299T328 1298Q366 1298 402 1298T481 1300Q489 1300 498 1301Q506 1302 514 1302T528 1303H532Q542 1303 545 1301T549 1284Q549 1270 547 1264T530 1257Q526 1255 512 1255Q469 1252 442 1248T399 1225Q384 1206 378 1170T369 1071Q367 1039 367 1001T367 915V686V422Q367 341 367 284T371 176Q374 136 377 113T389 74Q397 60 408 53T436 43Q453 41 474 41T524 41H537Q541 39 545 39Q551 33 551 16Q551 1 547 -2T530 -6L479 -4Z"  />
<glyph unicode="J" horiz-adv-x="586" d="M508 1255Q496 1254 482 1254T453 1252T426 1246T406 1231Q396 1219 389 1198T378 1140T372 1050T369 922V666V469Q369 356 369 273T366 129T359 25T348 -51T329 -110T303 -166Q290 -190 272 -216T235 -267T194 -314T154 -352Q116 -383 69 -398T-23 -414Q-41 -414 -60 -408T-96 -391T-122 -364T-133 -330Q-133 -319 -130 -308T-117 -285Q-101 -263 -87 -254T-59 -244Q-35 -244 -6 -268Q14 -284 34 -287T74 -291Q128 -289 158 -260T203 -186Q209 -166 212 -143T217 -84T220 7T225 145Q226 177 227 218T229 306T230 400T231 493T232 580T233 653V870Q233 924 233 982T231 1092Q228 1143 223 1179T207 1229Q190 1246 163 1250T92 1255Q87 1257 79 1257T68 1260Q64 1263 64 1270T63 1280Q63 1297 67 1301T84 1305Q85 1305 93 1305T112 1304Q123 1303 139 1303Q189 1301 231 1300T315 1298Q349 1298 384 1299T457 1303H480Q489 1303 499 1303T514 1305Q523 1305 528 1303T535 1290V1278Q535 1262 530 1260T508 1255Z"  />
<glyph unicode="K" horiz-adv-x="1149" d="M1159 -2Q1157 -4 1149 -4H1139Q1134 -4 1128 -4T1117 -3Q1111 -3 1104 -2Q1072 0 1041 0T981 0Q903 0 845 -3T764 -6Q755 -6 753 0T750 18Q750 34 754 38T778 43Q801 43 820 43T854 45Q884 51 889 66V68Q889 82 872 108T829 170Q802 208 768 250T702 332Q642 409 579 491T444 659L365 584V565Q367 441 367 352T369 203Q371 141 375 108T387 63Q399 48 420 45Q426 43 432 42T449 41Q457 41 467 40T489 39Q493 39 502 39T514 37Q519 35 519 32T520 18Q520 15 520 9T518 0Q516 -4 506 -4Q452 -4 400 -2T293 0Q214 0 171 -3T115 -6Q101 -6 98 -4T94 16Q94 33 97 37T115 41Q147 44 164 46T195 57Q213 71 219 113T229 227Q232 289 232 442T233 844Q235 867 235 887T236 926Q235 1002 234 1056T230 1146T223 1203T211 1233Q205 1239 198 1243T178 1249Q157 1255 117 1255Q107 1257 104 1260T98 1272V1282Q98 1287 99 1295T109 1303H115L141 1300Q182 1298 214 1297T279 1296Q317 1296 359 1297T457 1300L496 1303H502Q508 1303 509 1299T510 1282Q510 1266 508 1262Q505 1258 500 1258T492 1257Q476 1255 463 1254T436 1251Q424 1248 414 1243T395 1229Q387 1219 383 1207T377 1177T373 1136T371 1079Q369 1039 368 989T367 883T366 767T365 649Q450 737 516 809T633 938Q688 999 726 1044T789 1121T823 1175T834 1208Q834 1222 828 1230T808 1243T771 1250T715 1255Q701 1255 698 1260T694 1278Q694 1286 694 1291T698 1298Q700 1300 707 1300H717L852 1294H883Q929 1294 975 1296T1077 1303H1087Q1098 1303 1102 1301T1106 1282V1270Q1104 1263 1094 1260Q1087 1255 1077 1255Q1052 1249 1033 1240T989 1210Q949 1179 912 1141T838 1065Q811 1038 781 1007T714 938T634 855T537 756Q563 722 606 665T707 534T835 372T983 190Q1006 161 1024 138T1057 96Q1075 76 1086 66T1106 51Q1117 45 1128 44T1151 41Q1157 41 1160 39T1163 29V18Q1163 10 1163 5T1159 -2Z"  />
<glyph unicode="L" horiz-adv-x="967" d="M893 10Q891 2 889 -3T879 -8L850 -6Q769 -3 674 -2T477 0Q397 0 318 -1T164 -6H151Q144 -6 134 -6T109 -8Q90 -8 87 -4T84 12Q84 31 88 33Q91 36 98 36T111 37Q135 38 150 40T175 47T191 56T203 68Q214 83 220 115T229 201Q232 253 232 329T233 510V801V987Q232 1040 231 1080T228 1149T221 1197T209 1229Q201 1238 193 1243T174 1251Q162 1253 148 1254T119 1257Q114 1257 107 1257T96 1262Q92 1264 92 1280Q92 1305 106 1305H111L145 1303Q192 1299 232 1299T311 1298Q349 1298 389 1298T477 1303L516 1305Q535 1305 535 1284Q535 1273 535 1268T530 1260Q527 1256 519 1256T506 1255Q490 1253 473 1253T438 1249Q424 1246 413 1240T391 1219Q383 1209 380 1188T375 1141Q372 1116 372 1091T371 1047Q369 972 369 874T369 674Q369 549 369 461T369 313T370 215T373 152Q374 124 379 107T395 79T426 65T477 61H494Q552 63 600 63T686 68Q723 71 752 76T803 94Q818 103 833 124T861 175T884 239T901 307Q901 312 902 318T907 330Q911 334 920 334H928Q936 334 940 333T948 330Q951 325 951 321T952 311Q952 293 947 259T934 184T916 101T897 25L893 10Z"  />
<glyph unicode="M" horiz-adv-x="1479" d="M1405 -4Q1354 -2 1297 -1T1186 0Q1146 0 1105 -1T1026 -4H1020Q1014 -4 1011 0T1008 16Q1008 32 1012 35T1028 41H1047Q1093 44 1118 54T1157 99T1173 203T1176 395Q1176 431 1175 465T1173 537T1171 621T1169 729Q1168 788 1167 835T1165 923T1162 1005T1161 1090Q1146 1046 1133 1012T1106 940T1073 856T1026 741Q967 597 924 487T849 295T799 156T770 59Q767 44 765 39T754 29Q752 29 745 27T729 20Q723 18 718 16T707 14H705Q699 14 696 20Q694 22 694 26T692 33Q681 67 670 104T643 189T605 303T550 459T469 671T358 952Q343 991 329 1029T301 1102V1006Q301 995 301 985T299 949T297 871T295 725L293 399V293Q293 212 297 162T313 88Q321 71 333 63T362 49Q370 47 380 46T401 43Q414 41 426 41T453 41Q456 41 462 41T471 37Q475 33 475 18Q475 4 473 0T461 -4H453Q400 -2 349 -1T246 0Q202 0 160 -1T74 -4H53H49Q40 -4 37 8V18Q37 34 41 37T57 41Q76 43 91 44T119 49Q131 51 141 55T160 70Q171 83 180 104T195 161T206 250T213 381Q220 509 226 637Q229 691 231 750T236 870T239 988T240 1098Q240 1119 238 1143T229 1190T206 1228T166 1251Q150 1254 134 1254T102 1255H88Q79 1257 77 1260T74 1270V1280Q74 1294 76 1298T90 1303H102Q141 1301 176 1300T246 1298Q300 1298 329 1300T365 1303Q379 1303 383 1298T391 1280Q391 1277 392 1273T395 1264Q404 1231 423 1169T477 1008T562 770T684 444Q697 409 707 381T727 327T744 277T762 227Q779 266 795 307T825 381Q891 545 940 669T1024 886T1083 1044T1120 1154T1142 1227T1153 1276Q1155 1285 1156 1290T1159 1298Q1162 1302 1166 1302T1176 1303L1198 1300H1262Q1300 1300 1338 1300T1415 1303H1419Q1430 1303 1434 1301T1438 1282Q1438 1268 1436 1263T1421 1257H1407Q1372 1255 1351 1247T1316 1219T1299 1163T1294 1069Q1294 1035 1295 970T1297 824T1300 655T1303 486T1306 342T1309 246Q1312 174 1318 132T1339 70Q1355 51 1377 47T1423 41H1436Q1445 41 1448 38T1452 18Q1452 6 1450 1T1436 -4H1405Z"  />
<glyph unicode="N" horiz-adv-x="1311" d="M1260 1260Q1246 1256 1232 1256T1204 1253Q1190 1250 1177 1245T1149 1225Q1134 1210 1126 1174T1112 1072T1105 907T1100 668Q1098 590 1098 515T1098 365Q1098 235 1099 152T1108 29L1110 14Q1110 11 1111 9T1112 4Q1110 -7 1100 -16T1079 -25Q1071 -25 1068 -21T1053 0Q1049 5 1045 12T1037 26Q1033 33 1028 41Q947 174 857 304T673 562T488 819T311 1079L307 1085Q307 1062 308 1031T309 977Q311 853 312 714T313 434Q313 287 318 203T346 84Q363 59 393 51T471 41H489Q494 39 498 39T506 37Q510 35 510 18Q510 0 506 -2Q502 -6 489 -6Q486 -6 482 -5T473 -4Q417 -2 369 -1T272 0Q237 0 201 0T123 -4L76 -6Q68 -6 63 -3T57 14Q57 28 60 32T76 39Q84 39 88 40Q91 40 94 41Q120 44 143 51T180 78Q198 100 208 145T225 271T233 476T238 780L240 903V1034V1085Q238 1121 231 1150T209 1208Q200 1224 186 1233T155 1247T119 1253T82 1255Q70 1257 66 1261T61 1280Q61 1288 62 1295T72 1303H82H106H117Q149 1301 179 1301T238 1300Q250 1300 264 1300T305 1303Q310 1303 315 1302T324 1296Q327 1291 334 1278T344 1260Q509 1009 680 767T1028 281L1026 672Q1025 813 1024 910T1019 1072T1005 1174T981 1229Q958 1255 864 1255Q850 1255 845 1258T840 1278Q840 1293 842 1299T858 1305Q875 1305 926 1302T1059 1298Q1130 1298 1178 1300T1243 1303H1266Q1274 1303 1276 1300Q1278 1298 1278 1282Q1278 1267 1275 1265T1260 1260Z"  />
<glyph unicode="O" horiz-adv-x="1315" d="M645 -25Q527 -25 428 25T256 164T144 375T104 641Q104 788 146 913T265 1129T445 1271T674 1323Q790 1323 888 1273T1057 1133T1169 921T1210 653Q1210 507 1168 383T1050 168T871 26T645 -25ZM616 1257Q534 1257 466 1217T349 1103T273 924T246 690Q246 549 279 430T372 225T513 91T692 43Q771 43 839 79T956 180Q1012 251 1040 355T1069 592Q1069 741 1037 863T945 1073T802 1209T616 1257Z"  />
<glyph unicode="P" horiz-adv-x="973" d="M457 502Q434 502 411 503T362 506Q362 424 362 352T365 223Q367 164 371 126T387 70Q398 53 422 49T494 41Q500 39 504 39T512 39Q517 39 523 39T532 37Q537 34 538 29T539 16Q539 2 535 -2Q531 -5 526 -5T518 -6Q512 -6 494 -5T455 -4Q404 -2 360 -1T270 0Q201 0 159 -3T92 -6Q83 -6 79 -2T74 16Q74 29 77 33T92 37Q103 39 114 39T137 41Q157 44 171 50T199 72Q206 82 212 105T222 177T229 301T231 494V901Q231 969 231 1022T229 1114Q226 1193 217 1214Q212 1225 205 1232T185 1245T153 1252T102 1257Q96 1257 94 1260T90 1268V1282Q90 1294 92 1298T104 1303Q124 1303 157 1301T250 1298Q263 1298 276 1298T304 1299T337 1301T379 1303Q424 1305 459 1306T518 1307Q615 1307 686 1287T815 1219Q875 1169 906 1090T938 922Q938 827 904 750T808 617T656 532T457 502ZM485 1253Q431 1253 402 1246T369 1227Q367 1218 366 1167T363 1038T361 859T360 649V569Q391 566 413 565T455 563Q539 563 603 587T711 656T777 762T799 901Q799 988 778 1054T716 1164T617 1230T485 1253Z"  />
<glyph unicode="Q" horiz-adv-x="1307" d="M1149 -401Q1082 -401 1015 -376T881 -303T752 -185T631 -25Q515 -21 418 30T252 170T143 379T104 643Q104 788 147 912T265 1128T444 1271T670 1323Q789 1323 888 1274T1058 1135T1168 923T1208 653Q1208 530 1180 423T1097 231T965 86T788 -4Q844 -82 898 -143T1008 -245T1120 -308T1239 -330Q1258 -330 1270 -328T1305 -317Q1307 -315 1311 -315Q1317 -315 1321 -324T1325 -342Q1325 -352 1308 -362T1264 -381T1207 -395T1149 -401ZM618 1257Q534 1256 465 1215T348 1099T273 921T246 692Q246 553 278 435T369 229T508 93T686 43Q776 43 844 83T961 188Q1016 261 1041 363T1067 596Q1067 741 1035 862T943 1071T801 1208T618 1257Z"  />
<glyph unicode="R" horiz-adv-x="1087" d="M1151 6Q1149 0 1137 -4T1110 -10T1082 -13T1063 -14Q973 -14 898 30T760 158Q732 196 709 235T662 321T612 428T555 565Q529 562 496 561T430 559Q415 559 400 559T365 561V457Q365 345 365 274T367 160Q367 116 371 96T383 63Q389 55 406 51T442 44T481 42T510 41Q513 41 517 41T524 37Q526 33 526 18Q526 4 523 0T512 -4H506Q407 2 309 2Q264 2 234 1T181 -2T143 -5T109 -6Q98 -6 93 -2T88 16Q88 29 91 33T106 39Q128 40 143 41T168 46T186 53T201 66Q212 80 218 105T227 182Q229 233 229 312T233 510V631V793Q233 895 232 969T229 1094Q226 1146 222 1178T209 1227Q203 1239 193 1244T170 1251Q153 1254 141 1254T111 1255Q100 1257 97 1263T94 1280Q94 1296 98 1300Q102 1303 109 1303Q116 1303 125 1302T149 1301T188 1299T250 1298Q305 1298 348 1300T427 1304T491 1309T543 1311Q623 1311 688 1288T799 1221T870 1111T895 961Q895 839 842 750T682 610Q740 462 795 355T905 179T1015 77T1128 43H1149Q1153 41 1153 27Q1151 17 1151 13T1151 6ZM483 1255Q437 1253 413 1248T377 1231Q372 1225 370 1207T367 1157Q367 1142 367 1110T366 1038T366 955T365 872V633Q399 627 425 623T479 618Q546 618 598 634T686 687T739 782T758 926Q758 1084 694 1168T504 1255H483Z"  />
<glyph unicode="S" horiz-adv-x="901" d="M432 -25Q384 -25 329 -17T201 4Q188 6 180 7T170 8Q162 8 158 5T150 -2L147 -6Q141 -12 135 -12Q132 -12 129 -12T123 -8V-4Q120 5 117 27T111 80T104 143T98 209T94 270T92 315Q92 337 95 344T111 354Q114 356 116 356T121 358Q127 358 129 355T131 346Q133 342 133 328Q137 302 145 274T164 218T188 166T215 125Q253 80 315 59T453 37Q507 37 550 55T625 107T673 184T690 281Q690 329 683 369T649 447T574 524T440 610Q409 627 380 644T324 678Q279 706 245 735T187 801T151 881T139 981Q139 1057 164 1120T234 1228T341 1298T479 1323Q529 1323 578 1319T680 1305Q692 1302 698 1301T709 1299T716 1298T723 1298Q728 1298 732 1300T741 1305Q746 1308 748 1308T752 1309Q760 1309 762 1307T764 1298Q761 1275 761 1250T760 1202Q760 1190 760 1174T762 1140T764 1107T766 1083Q768 1065 770 1051T772 1030Q772 1021 769 1018T754 1012H745Q737 1012 735 1022Q732 1027 729 1041L725 1057Q720 1075 715 1095T702 1135T685 1173T662 1204Q651 1216 636 1227T599 1248T544 1262T467 1268Q423 1268 385 1251T320 1204T276 1132T260 1042Q260 986 270 944T306 866T378 795T496 721Q554 689 614 654T723 571Q767 525 794 463T821 309Q821 225 791 162T708 58T584 -4T432 -25Z"  />
<glyph unicode="T" horiz-adv-x="1034" d="M1010 1098Q1007 1079 1002 1058T991 1022Q988 1013 982 1011T967 1008Q956 1010 952 1013T948 1028Q948 1033 948 1043T949 1064T949 1085T950 1102V1124Q950 1155 946 1172T928 1202Q917 1213 896 1218T840 1227Q806 1230 760 1230T655 1231H604Q602 1192 601 1121T599 959T597 761T596 545V473Q598 392 598 325T600 207Q603 103 618 76Q628 62 639 55T666 45Q674 43 681 42T700 41Q711 41 725 40T762 39Q765 39 769 39T776 35Q780 33 780 16Q780 1 777 -2T762 -6Q687 -3 633 -2T528 0Q421 0 313 -6H299Q287 -6 284 -3T281 14Q281 27 283 32T299 39H340Q363 39 386 43T428 66Q448 87 455 171T463 422V834Q463 871 463 919T462 1019T462 1126T461 1231H387Q283 1231 226 1224T141 1196Q113 1174 100 1141T72 1053Q72 1051 72 1049T70 1042Q68 1039 68 1035T66 1028Q64 1019 62 1014T51 1008Q49 1008 48 1009T43 1010Q28 1012 24 1016T20 1032Q20 1043 23 1067T32 1125T44 1197T59 1276Q64 1302 67 1308T80 1315Q85 1315 88 1315T94 1311L98 1307Q102 1304 108 1301T133 1296T188 1293T289 1292H492Q520 1292 559 1292T643 1293T732 1294T816 1295T886 1296T930 1298Q958 1299 972 1299T995 1301T1006 1304T1016 1309L1022 1311Q1026 1313 1034 1313Q1044 1313 1046 1309T1049 1298Q1048 1289 1044 1264T1033 1209T1021 1149T1010 1098Z"  />
<glyph unicode="U" horiz-adv-x="1208" d="M1161 1257Q1150 1255 1140 1254T1120 1251Q1103 1249 1092 1244T1069 1223Q1058 1207 1052 1177T1044 1096Q1042 1046 1040 976T1038 811Q1038 665 1038 572T1034 436Q1031 376 1021 319T991 209Q972 158 941 116T862 42T750 -7T598 -25Q473 -25 393 5T267 95T204 241T186 440Q186 564 188 689T190 954Q190 998 189 1033T188 1098Q186 1157 182 1189T168 1233Q160 1242 150 1245T131 1251Q117 1254 104 1254T74 1255Q57 1255 57 1270V1280Q57 1289 58 1296T70 1303Q85 1303 138 1300T289 1296Q326 1296 362 1297T446 1300L473 1303Q482 1303 485 1299T489 1280Q489 1266 483 1260Q480 1258 476 1258T467 1257Q450 1255 433 1255T399 1249Q384 1246 371 1239T350 1214Q342 1200 337 1168T328 1080T324 944T322 754V563Q322 454 327 370T350 238Q364 202 386 172T441 119T520 85T629 72Q692 72 739 83T822 114T882 163T922 227Q937 262 945 304T958 391Q962 436 963 483T965 578Q965 612 965 651T964 724Q963 764 963 803Q961 901 960 973T954 1094T944 1173T926 1217Q912 1237 892 1243T848 1253Q839 1255 827 1255T801 1257Q791 1257 789 1261T786 1280Q786 1303 801 1303Q816 1303 856 1301T975 1298Q1056 1298 1102 1300T1163 1303Q1173 1303 1174 1297T1176 1280Q1176 1269 1174 1263T1161 1257Z"  />
<glyph unicode="V" horiz-adv-x="1069" d="M911 981Q843 807 794 676T710 446T650 277T608 154Q606 151 606 148T604 141Q593 106 586 78T571 25Q569 20 568 14T563 4Q561 1 557 1T545 -2Q536 -4 526 -5T505 -8T488 -11T479 -12Q472 -12 469 2Q465 25 460 52T445 117T419 208T380 339T323 519T246 760Q217 848 193 916T152 1036Q131 1099 116 1140T89 1207T66 1242T43 1255Q32 1257 27 1257T18 1257Q9 1257 8 1264T6 1282Q6 1294 7 1298T18 1303Q31 1303 75 1301T193 1298Q230 1298 256 1299T304 1300T342 1302T377 1303Q385 1303 388 1299T391 1282Q391 1266 385 1260Q382 1256 375 1256T365 1255Q343 1255 325 1255T295 1253Q258 1250 258 1206Q258 1195 263 1167T281 1098Q305 1019 345 883T446 557Q468 489 484 440T512 348T536 267T559 182Q590 274 624 373T693 572T762 772T829 967Q857 1045 873 1106T889 1194Q889 1203 888 1211T883 1225Q876 1236 864 1241T836 1249Q801 1255 754 1255Q751 1255 744 1255T731 1260Q728 1263 728 1267T727 1280Q727 1298 731 1300Q731 1302 733 1302T737 1303Q746 1303 758 1302T792 1301T845 1299T924 1298Q950 1298 976 1298T1028 1300Q1036 1300 1045 1301Q1053 1302 1061 1302T1077 1303Q1079 1303 1081 1303T1085 1300Q1090 1298 1090 1284V1272Q1090 1269 1085 1264Q1083 1262 1063 1257Q1054 1255 1046 1252T1030 1239T1013 1214T991 1171Q977 1144 958 1097T911 981Z"  />
<glyph unicode="W" horiz-adv-x="1573" d="M1581 1262Q1569 1262 1555 1257T1526 1237Q1516 1226 1506 1206T1477 1145Q1429 1032 1382 922T1290 698Q1237 564 1199 465T1133 293T1088 174T1059 95T1042 46T1032 14Q1030 6 1027 1T1014 -6Q1001 -8 990 -9T967 -14H956Q946 -14 944 -4Q942 4 940 14T932 49Q909 142 872 275T778 592Q733 485 695 390T629 219T583 90T561 12Q558 4 554 2T543 -2Q533 -4 523 -6Q515 -8 505 -9T487 -12Q484 -14 482 -14T477 -14Q472 -14 471 -11T467 4Q461 39 455 67T436 133Q424 174 409 224T372 343T322 505T252 725Q233 785 211 852T168 981T128 1097T98 1184Q87 1213 79 1228T63 1249Q57 1255 47 1257T18 1260Q10 1260 8 1264T6 1274V1284Q6 1296 10 1299T23 1303Q32 1303 76 1300T184 1296Q218 1296 251 1297T319 1300Q330 1300 340 1301Q348 1302 357 1302T371 1303Q377 1303 379 1300Q382 1297 382 1292T383 1282Q383 1279 383 1272T379 1262Q376 1258 370 1258T358 1257Q346 1255 331 1255T301 1253Q286 1251 274 1246T256 1231Q253 1226 253 1220T252 1206Q252 1186 260 1152T285 1059Q297 1019 312 967T349 848T396 696T455 508Q486 411 511 330T557 182Q605 306 654 433T748 674Q738 706 724 749T695 840T663 937T633 1028T608 1102T592 1149Q586 1166 581 1180T571 1206Q559 1238 545 1249T508 1260Q502 1262 498 1264T494 1274Q492 1276 492 1284Q492 1296 495 1300T504 1305Q516 1305 539 1304T598 1301T687 1298T809 1296Q872 1296 946 1297T1114 1303H1128Q1139 1303 1139 1284V1274Q1139 1262 1128 1262H1126Q1117 1260 1109 1258T1092 1251Q1075 1239 1063 1215T1042 1171Q1031 1146 1015 1110T975 1023T921 903T850 743Q878 656 901 582T945 440T987 307T1030 172Q1073 286 1113 392T1193 602T1272 814T1350 1036Q1365 1084 1374 1125T1384 1194Q1384 1199 1383 1203T1382 1212Q1380 1226 1375 1234T1359 1246T1330 1251T1284 1255H1268Q1258 1255 1256 1258T1253 1270V1282Q1253 1291 1256 1297T1270 1303Q1281 1303 1321 1300T1440 1296Q1476 1296 1499 1297T1536 1299T1559 1302T1575 1303Q1583 1303 1586 1302T1589 1292V1280Q1589 1268 1588 1265T1581 1262ZM827 1251Q780 1251 760 1248T733 1229Q727 1217 727 1202Q727 1182 734 1154T758 1069Q765 1047 772 1022T788 966T809 898T836 815L930 1059Q934 1069 940 1085T951 1119T961 1157T965 1192Q965 1201 963 1210T956 1225Q947 1240 915 1245T827 1251Z"  />
<glyph unicode="X" horiz-adv-x="1122" d="M418 41Q426 41 428 39Q432 37 432 20Q432 2 430 -2Q428 -4 424 -4Q410 -4 393 -4T351 -2T295 -1T219 0Q145 0 99 -3T39 -6Q27 -6 25 -2T23 18Q23 28 24 33T28 40T36 42T49 45Q58 46 66 48T83 55T101 68T123 92Q147 123 181 169T262 283T370 439T510 645Q460 734 420 807T348 938T289 1041T242 1120Q213 1167 196 1191T166 1231Q155 1245 142 1249T100 1255Q90 1255 88 1266V1280Q88 1292 90 1297T104 1303Q115 1303 131 1302T171 1301T230 1299T313 1298Q357 1298 392 1299T469 1303H477Q479 1303 481 1303T485 1300Q492 1296 492 1282Q492 1270 489 1265T473 1260Q470 1260 467 1259T459 1257Q439 1255 419 1255T383 1249Q369 1246 361 1240T352 1221Q352 1210 357 1196T375 1157Q384 1137 400 1106T443 1025T507 908T596 745Q664 846 712 919T797 1051Q832 1108 847 1147T862 1204Q862 1218 857 1227T842 1241T820 1248T795 1253Q782 1255 767 1256T731 1257Q729 1257 727 1257T723 1260Q721 1262 720 1265T719 1278Q719 1283 719 1288T721 1296Q723 1299 726 1299T735 1300Q741 1300 755 1300T787 1299T822 1299T850 1298Q952 1298 1007 1300T1077 1303Q1083 1303 1085 1300Q1089 1298 1089 1293T1090 1280Q1090 1266 1087 1263T1071 1257Q1066 1257 1061 1256T1051 1253Q1043 1251 1036 1247T1021 1234T1001 1212T973 1178Q944 1142 914 1103T844 1009T753 878T627 692Q692 578 739 497T823 353T887 244T944 150Q955 131 965 115T983 90Q995 72 1003 63T1020 49T1038 42T1063 39Q1075 39 1078 36T1081 20Q1081 11 1081 6T1077 -2Q1074 -4 1070 -4T1063 -4Q1028 -4 991 -2T903 0Q849 0 814 -1T756 -3T717 -5T690 -6Q679 -6 675 -4T670 14Q670 32 676 35Q679 38 684 38T694 39Q720 41 742 41T782 43Q815 46 815 72Q815 83 813 91T807 111Q802 122 796 134T782 162Q769 188 752 221T707 303T641 423T545 594Q519 554 499 524T464 471T438 430T416 397Q406 382 398 368T380 339T359 304T332 260Q310 224 297 199T275 155T264 122T260 94V90Q260 65 278 58T326 47Q346 45 372 43T418 41Z"  />
<glyph unicode="Y" horiz-adv-x="1008" d="M1022 1262Q1019 1258 1016 1258T1010 1257Q1003 1257 998 1256T987 1253Q981 1251 975 1249T958 1241Q940 1229 916 1192T856 1092Q811 1014 747 898T596 616Q591 608 588 602T580 588Q578 583 576 580T573 571V563Q573 488 572 433T571 336Q571 300 571 273T572 224T574 185T578 150Q581 115 585 94T600 61Q609 51 625 47T660 40T695 38T723 37Q732 37 734 33T737 16Q737 2 731 -4H725H715Q656 -2 598 -1T481 0Q438 0 397 0T311 -4L295 -6H287Q279 -6 277 -2T274 14Q274 24 276 28T289 35Q293 37 303 37Q319 39 332 39T358 41Q371 44 380 47T399 59Q411 68 418 92T428 161T433 276T436 449V510V528Q436 533 436 537T434 547Q431 555 426 567T408 602Q363 690 327 762T262 893T208 1001T162 1092Q127 1160 103 1197T61 1249Q53 1257 45 1257T27 1260H20Q10 1260 10 1272V1284Q10 1295 13 1299T27 1303H43Q97 1299 134 1298T199 1296Q220 1296 237 1296T273 1298T310 1300T352 1303H379H385Q395 1303 395 1292V1280Q395 1271 394 1267T381 1260Q370 1258 351 1258T314 1254T282 1244T268 1219Q268 1209 272 1194T288 1151T322 1076T381 954Q406 904 427 863T468 783T506 709T545 635Q597 735 641 824T719 981Q765 1072 785 1127T805 1206Q805 1222 798 1231T777 1246T739 1252T684 1255Q681 1255 674 1255T664 1257Q659 1259 658 1263T657 1276Q657 1285 657 1290T662 1298Q664 1300 670 1300H680Q726 1300 773 1299T866 1298Q889 1298 912 1298T958 1300Q966 1300 974 1301Q981 1302 988 1302T1001 1303H1004H1014Q1020 1303 1023 1299T1026 1282Q1026 1264 1022 1262Z"  />
<glyph unicode="Z" horiz-adv-x="1065" d="M1006 1257Q927 1133 862 1032T739 839T625 663T512 485T388 290T242 61Q373 65 476 67T657 74Q735 79 784 88T856 113Q873 124 886 140T911 178Q924 200 935 227T963 287Q965 290 966 296T973 305Q975 307 981 307H995Q1016 304 1016 291Q1016 280 1010 263T997 223Q989 200 982 173T965 115Q954 71 948 48T938 12Q935 0 932 -3T920 -6Q915 -6 909 -6T889 -4T853 -2T792 0T699 1T567 2Q537 2 500 2T424 2T345 1T274 0T217 -1T184 -2L82 -6Q63 -6 60 -3T57 18V25Q57 34 58 39T63 51Q130 153 186 238T292 396T384 534T468 661T549 785T633 916T723 1063T827 1235Q710 1233 621 1233T465 1229Q397 1226 352 1218T281 1198Q250 1183 232 1152T203 1090Q198 1077 194 1064T184 1038Q179 1024 174 1018T160 1012H152Q147 1012 139 1015T131 1028Q131 1033 132 1039T133 1051Q135 1066 140 1090T150 1139T161 1188T172 1225Q181 1257 186 1273T197 1298Q197 1302 199 1305T205 1309H209Q214 1309 217 1309T225 1307Q239 1300 286 1298T403 1296Q470 1296 545 1296T690 1297T813 1299T891 1303Q915 1304 937 1305Q956 1306 974 1306T1004 1307Q1012 1307 1014 1302T1016 1284Q1016 1281 1014 1273T1006 1257Z"  />
<glyph unicode="[" horiz-adv-x="602" d="M575 -457Q572 -462 569 -462T561 -463Q551 -463 538 -462T504 -460T450 -458T369 -457Q329 -457 303 -457T260 -459T232 -460T211 -461Q201 -461 201 -451Q201 -443 201 -397T202 -284T203 -139T204 11T205 139T205 219V922Q205 1033 203 1143T199 1364V1427V1442Q199 1448 199 1450T205 1452Q212 1452 223 1451T253 1448T299 1445T365 1444H446Q461 1444 480 1444T517 1446T547 1447T563 1448Q573 1448 573 1438V1407Q573 1401 570 1400T561 1399L375 1391Q346 1389 336 1384T326 1358V-285Q326 -323 327 -344T332 -377Q335 -388 337 -391T346 -397Q355 -400 372 -402T412 -406T462 -409T520 -410H541Q562 -410 568 -412T575 -428V-446V-457Z"  />
<glyph unicode="\" horiz-adv-x="793" d="M717 -473Q713 -454 707 -429T686 -362T650 -254T592 -90T506 148T387 477Q328 641 282 771T198 1002T133 1177T84 1306T49 1395T23 1454H133Q143 1405 224 1175T457 530Q477 476 500 412T548 279T599 137T653 -10Q685 -97 717 -186T784 -365L827 -473H717Z"  />
<glyph unicode="]" horiz-adv-x="602" d="M399 -246Q399 -305 399 -342T401 -400T402 -431T403 -444Q403 -452 402 -456T393 -461Q381 -461 343 -459T227 -457Q183 -457 153 -458T101 -460T67 -462T43 -463Q34 -463 31 -459T27 -432Q27 -415 32 -413T59 -410Q91 -410 126 -408T190 -404T240 -400T262 -395Q268 -390 270 -381T272 -369Q272 -363 272 -353T274 -319T276 -252T279 -135T280 45T281 305V885V1313Q279 1336 279 1349T276 1370Q276 1376 270 1383T252 1391Q241 1393 222 1393T166 1395L41 1399Q33 1399 32 1403T31 1413V1436Q31 1442 32 1445T41 1448Q47 1448 63 1448T102 1446T155 1445T217 1444Q308 1444 348 1448T395 1452Q403 1452 405 1449T408 1436V1427Q408 1420 407 1391T404 1305T401 1160T399 948V-246Z"  />
<glyph unicode="^" horiz-adv-x="870" d="M678 686L436 1186L190 686H80L397 1321H473L791 686H678Z"  />
<glyph unicode="_" horiz-adv-x="973" d="M-2 -326V-227H975V-326H-2Z"  />
<glyph unicode="`" horiz-adv-x="1018" d="M594 1014Q589 1014 577 1022T545 1051L336 1247Q320 1261 315 1271T309 1290Q309 1305 330 1311Q358 1319 378 1323T406 1327Q417 1327 423 1324T438 1305Q461 1269 483 1233T526 1161Q542 1134 553 1116T574 1084T591 1056T610 1028L612 1024Q612 1018 605 1016T594 1014Z"  />
<glyph unicode="a" horiz-adv-x="801" d="M813 96Q813 82 810 77T795 63Q738 23 680 -1T582 -25Q551 -25 530 -6T502 51V70Q451 42 411 25T337 -3T277 -16T223 -20Q146 -20 112 28T72 182V199Q72 239 79 265T103 310T143 342T203 367Q227 375 262 385T337 404T421 423T506 438L510 575V604Q510 641 506 674T489 733T449 776T379 797H356Q308 797 276 784T238 754Q236 750 236 739Q236 730 238 720T240 690Q240 678 234 671T205 655Q189 649 174 644T145 635Q140 633 136 633T127 633Q111 633 102 643Q96 652 96 664Q96 686 114 712T156 762T204 804T240 829Q283 854 333 871T434 889Q454 889 474 886T514 874Q581 847 606 797T631 674Q631 559 625 446T618 211Q618 170 621 145T631 105T650 85T680 80Q705 80 737 93T807 135L813 129V96ZM473 383Q456 383 427 378T366 363T302 341T248 313Q236 305 228 299T214 285T206 266T203 238V227Q205 147 228 107T305 66Q324 66 351 70T405 80T455 96T489 115Q495 120 498 135Q500 141 500 150T500 172Q502 195 502 231T504 324V342Q504 367 498 375T473 383Z"  />
<glyph unicode="b" horiz-adv-x="928" d="M844 494Q844 386 814 293T723 130T573 22T365 -18Q334 -18 303 -16T244 -10T194 -2T158 6Q142 9 138 12T133 23V29L135 55Q141 98 144 152T149 279T152 444T154 657Q156 748 156 835T156 1010Q156 1153 151 1225T133 1313Q121 1328 99 1331T53 1335H51Q43 1335 41 1341T39 1354Q39 1368 42 1371T55 1378Q102 1394 146 1408T225 1434Q236 1437 247 1439T264 1444Q270 1446 275 1446T285 1446Q301 1446 301 1432Q301 1428 299 1414T295 1386Q290 1337 287 1273T281 1135Q279 1092 278 1047T275 958T274 872T272 793Q358 843 426 866T555 889Q625 889 679 860T770 779T825 654T844 494ZM459 805Q424 805 378 791T270 745L268 518Q266 449 266 395T266 297V233Q269 182 273 153T291 104Q309 75 348 67T449 59Q530 59 584 85T670 159T716 272T729 414Q729 613 666 709T459 805Z"  />
<glyph unicode="c" horiz-adv-x="752" d="M625 707Q613 707 608 715L600 721Q562 759 515 776T406 793Q356 793 318 769T253 700T214 594T201 457Q201 362 221 291T276 173T361 102T469 78Q528 78 578 103T670 164Q672 166 674 168T680 170Q682 170 686 166L694 158Q697 155 698 148T700 137Q700 119 645 74Q524 -23 397 -23Q332 -23 276 6T176 89T109 216T84 381Q84 495 119 589T229 762Q292 825 358 854T506 883Q546 883 582 876T647 854T691 820T707 776Q707 763 699 751T678 729T652 713T625 707Z"  />
<glyph unicode="d" horiz-adv-x="930" d="M657 88Q606 56 568 36T499 3T439 -15T381 -20Q318 -20 264 8T171 88T109 215T86 383Q86 483 114 573T196 732T327 841T502 881Q523 881 542 880T580 876T620 867T668 852Q670 886 670 912T670 956Q670 1015 670 1065T668 1153Q666 1185 665 1213T659 1253Q651 1275 635 1282T598 1290Q595 1290 583 1290T567 1292Q563 1296 563 1307Q563 1310 563 1314T565 1321Q581 1336 599 1346T637 1370Q661 1385 685 1398T731 1422T767 1439T786 1446H797Q807 1446 807 1438Q807 1432 807 1421T805 1395Q799 1335 793 1238T783 1011T776 723T772 385V307Q772 215 774 161T783 80T800 45T829 37Q848 37 878 44T934 66Q938 70 946 70Q950 70 950 66V53Q950 45 949 38T940 25Q929 15 883 -2Q838 -18 806 -28T753 -45T717 -54T694 -57Q684 -57 677 -53T666 -36T659 -2T657 57V88ZM621 737Q592 771 546 790T446 809Q331 809 265 720T199 465Q199 358 218 284T273 163T357 95T467 74Q513 74 563 90T655 133Q655 239 657 347T659 573Q659 629 650 671T621 737Z"  />
<glyph unicode="e" horiz-adv-x="748" d="M690 569Q690 561 688 559Q686 556 683 555T668 551Q634 544 590 534T498 514T403 492T316 472T246 455T203 444Q204 351 223 282T273 168T347 99T436 76Q507 76 567 105T678 184L686 182V150Q686 133 683 126T668 106Q638 76 603 52T531 10T456 -16T381 -25Q312 -25 258 2T165 82T106 211T86 383Q86 427 92 482T113 593T152 703T211 797T293 864T403 889Q457 889 500 869T575 813T630 729T666 625Q669 618 669 612T680 606H684Q689 606 689 604T690 596V569ZM371 831Q337 831 311 813T267 765T238 699T219 625T210 553T207 496V494Q244 504 271 511T325 525T385 540T467 561Q489 567 501 571T520 580T528 591T530 608Q530 644 518 683T485 756T435 810T371 831Z"  />
<glyph unicode="f" horiz-adv-x="547" d="M186 913Q186 964 187 1001T193 1067T204 1122T223 1174Q248 1234 286 1284T369 1370T465 1426T567 1446Q606 1446 641 1436T703 1407T746 1366T762 1315Q762 1301 753 1291T727 1268Q705 1251 692 1251Q677 1251 669 1265T653 1292Q633 1324 597 1339T498 1354Q413 1354 362 1291T303 1092Q301 1053 301 1000T301 866H520Q536 866 541 864T549 848V823Q549 806 549 797T545 782Q542 777 538 777T528 776H301V295Q301 226 302 183T305 116T312 80T322 63Q330 55 336 52T352 47Q363 44 374 44T401 43H438Q441 43 447 43T457 39Q460 36 460 32T461 20Q461 5 458 0T444 -6Q436 -5 429 -5T417 -4H406Q371 -2 338 -1T270 0Q236 0 202 -1T133 -4Q124 -4 110 -5T82 -6Q70 -6 67 -3T63 16Q63 19 63 24T66 33Q72 39 82 39Q99 41 122 43T158 57Q165 65 170 81T179 126T184 196T186 297V776Q169 776 149 775T106 772Q94 772 90 774T86 793Q86 801 87 805T96 813L104 817Q145 837 186 862V913Z"  />
<glyph unicode="g" horiz-adv-x="864" d="M850 823Q850 799 844 792T815 784Q775 784 735 784T653 782Q668 761 680 735T701 681T714 623T719 569Q719 480 682 410T575 285Q549 263 520 247T459 218T395 193T332 168Q316 162 298 149T279 115Q279 92 290 76T329 49T403 32T518 23Q597 19 649 7T731 -20Q829 -71 829 -180Q829 -240 807 -291T746 -386T658 -462T553 -519T440 -555T330 -567Q302 -567 269 -562T202 -547T140 -521T92 -483Q81 -470 74 -456T64 -422T59 -373T57 -305Q57 -264 67 -240T109 -190Q157 -152 208 -120T315 -61Q288 -57 261 -48T213 -24T179 13T166 68Q166 89 170 104T184 130T207 150T240 168Q267 182 294 194T350 217Q286 230 238 258T158 329T109 425T92 543Q92 613 116 676T183 786T287 861T420 889Q463 889 496 882T567 852Q627 861 687 866T809 872Q824 872 832 870T845 863T849 848T850 823ZM356 827Q313 827 284 807T236 755T209 685T201 610Q201 474 271 388T475 270Q547 312 576 369T606 508Q606 562 591 619T544 722T465 797T356 827ZM727 -229Q727 -194 714 -169T678 -128T627 -101T567 -86Q521 -77 472 -75T375 -70Q338 -88 301 -110T235 -160T187 -225T168 -307Q168 -354 190 -386T247 -438T324 -466T406 -475Q462 -475 519 -461T622 -417T698 -341T727 -229Z"  />
<glyph unicode="h" horiz-adv-x="934" d="M905 -6Q863 -6 823 -4T741 -2Q703 -2 666 -4T590 -6H575Q566 -6 563 -3T559 16Q559 33 570 37T596 42T627 45T655 61Q661 68 665 83T673 125T677 191T678 285V551Q678 618 667 663T633 735T579 774T506 786Q476 786 448 779T392 762T338 738T285 713V406Q285 304 285 241T288 140T295 85T307 59Q313 52 324 48T349 42T374 40T395 39Q409 39 414 37T420 18Q420 3 417 -1T397 -6Q379 -6 333 -3T215 0Q183 0 151 0T86 -4Q81 -4 78 -5T70 -6Q54 -6 50 -3T45 16Q45 32 54 36T76 40T106 43T137 57Q146 65 152 87T161 151T166 257T168 414V793Q168 889 168 982T164 1171Q164 1180 163 1201T160 1246T154 1290T143 1317Q134 1326 123 1328T84 1331Q67 1331 61 1334T55 1352Q55 1366 60 1369T78 1378Q94 1385 122 1397T181 1420T240 1439T283 1448Q292 1448 297 1447T303 1434V1419Q301 1391 299 1365T295 1311Q290 1211 288 1110T285 909V758Q344 792 390 815T473 854T540 876T600 883Q668 883 707 854T767 778T793 676T799 567Q799 495 797 422T795 276Q795 213 795 175T796 113T799 79T805 61Q809 53 822 49T850 43T880 41T903 39Q917 37 920 35T924 18Q924 6 922 0T905 -6Z"  />
<glyph unicode="i" horiz-adv-x="465" d="M254 1200Q240 1200 227 1208T202 1228T185 1254T178 1282Q178 1297 185 1313T203 1343T229 1365T260 1374Q275 1374 289 1366T314 1344T333 1316T340 1286Q340 1271 333 1256T313 1228T285 1208T254 1200ZM428 -4Q405 -4 362 -2T254 0Q180 0 128 -2T59 -4Q53 -4 51 2T49 14Q49 21 51 29T61 37Q83 37 105 39T147 53Q156 59 162 72T174 115T181 191T184 311V453Q184 527 184 573T182 646T177 688T168 713Q159 728 139 731T98 735H72Q67 735 65 737T63 752Q63 760 66 763T76 772Q99 788 129 807T186 842Q195 847 209 857T240 876T271 893T297 901Q307 901 307 893Q307 884 304 819T301 618V264Q301 205 302 168T306 110T312 79T319 66Q329 57 342 53T369 47T397 45T424 43Q441 43 443 39T446 18Q446 6 444 1T428 -4Z"  />
<glyph unicode="j" horiz-adv-x="457" d="M264 1200Q249 1200 234 1208T208 1228T189 1256T182 1286Q182 1301 189 1316T208 1343T234 1364T264 1372Q279 1372 293 1364T318 1344T337 1316T344 1286Q344 1271 338 1256T320 1229T294 1208T264 1200ZM311 891Q311 871 309 850T305 809Q300 727 299 646T297 483V260Q297 191 298 122T299 -16Q299 -81 296 -147T270 -274Q257 -313 231 -361T169 -453T90 -525T0 -555Q-15 -555 -30 -552T-58 -541T-79 -521T-88 -492Q-88 -481 -82 -469T-67 -445T-46 -427T-23 -420Q-14 -420 -4 -425T18 -436T43 -448T72 -453Q87 -453 102 -447T129 -430Q141 -418 150 -393T165 -320T174 -202T178 -29L180 479Q180 546 179 588T175 654T168 691T156 709Q146 717 133 718T106 719Q88 719 77 719T61 720T55 725T53 733Q53 742 54 746T63 756Q70 761 88 774T129 803T179 838T229 871T269 895T293 905Q302 905 306 903T311 891Z"  />
<glyph unicode="k" horiz-adv-x="852" d="M864 -4Q853 -4 822 -2T737 0Q697 0 658 -1T580 -4Q569 -4 566 -1T563 14Q563 22 564 28T575 37Q582 38 594 38T619 39T640 46T649 63Q649 70 630 98T580 170L358 475L272 401Q272 298 272 237T273 142T278 93T287 68Q294 55 306 50T332 44T362 42T389 41Q398 39 399 34T401 18Q401 9 400 3T387 -4Q345 -4 304 -2T223 0Q154 0 109 -2T49 -4Q38 -4 37 1T35 18Q35 32 38 34T53 39Q71 40 83 42T105 46T120 52T131 61Q140 70 145 89T152 129T155 171T156 203V774Q156 851 156 925T156 1062T154 1171T152 1237Q151 1244 150 1255T147 1279T142 1302T133 1319Q129 1323 125 1325T113 1329T94 1332T63 1333Q51 1333 48 1336T45 1352Q45 1363 47 1367T59 1374L213 1432Q235 1440 248 1444T270 1448Q286 1448 288 1444T291 1425Q291 1421 288 1391T282 1298T275 1137T272 901V461Q286 474 315 499T380 556T452 623T519 690T568 749T588 791Q588 799 585 804T573 811T547 815T500 817Q489 817 481 819T473 829Q473 849 475 856T489 864Q525 864 557 863T625 862Q670 862 715 866T805 870H817Q822 870 824 869T827 862Q827 842 825 837T815 829Q794 825 778 821T748 811T719 795T686 772Q621 721 563 663T444 549Q458 531 488 489T557 394T638 283T717 175T784 90T825 47Q837 40 846 39T862 37T873 32T877 16Q877 10 876 3T864 -4Z"  />
<glyph unicode="l" horiz-adv-x="457" d="M420 -4Q370 -4 323 -2T225 0Q183 0 142 -3T59 -6Q45 -6 42 -2T39 16Q39 33 50 36T79 40T115 43T150 61Q157 69 162 84T170 133T174 222T176 367V838Q176 943 176 1018T174 1143T170 1224T164 1272T156 1296T145 1307Q140 1311 130 1313T109 1316T88 1317T70 1317Q56 1317 54 1322T51 1339Q51 1352 55 1356Q59 1362 73 1369T104 1384T137 1397T160 1405Q194 1418 216 1426T254 1440T278 1448T297 1450Q311 1450 311 1434Q311 1414 308 1394T305 1354Q293 1034 293 715V238Q293 182 295 148T300 95T309 66T322 51Q326 47 339 45T367 42T397 41T420 41Q432 41 434 36T436 18Q436 7 434 2T420 -4Z"  />
<glyph unicode="m" horiz-adv-x="1434" d="M1395 -4Q1353 -4 1312 -2T1229 0Q1194 0 1158 0T1085 -4Q1080 -4 1075 -5T1065 -6Q1053 -6 1050 -1T1047 16Q1047 33 1056 36T1078 40T1105 43T1130 59Q1136 68 1141 80T1151 114T1157 167T1159 248V496Q1159 578 1152 633T1126 723T1075 771T995 786Q976 786 944 778T880 757T822 726T788 690Q785 684 785 677T784 664Q784 588 783 513T782 362V184Q782 150 782 130T785 96T790 75T799 57Q804 48 825 45T897 41Q908 41 910 35T913 18Q913 12 912 4T901 -4Q855 -4 809 -2T717 0Q663 0 621 -3T565 -6Q554 -6 551 -2T547 14Q547 31 552 36T584 41Q596 41 608 43T633 57Q640 63 646 74T656 103T663 148T666 213V518Q666 601 657 653T629 734T584 775T522 786Q495 786 466 778T409 755T354 724T307 690Q295 681 292 674T289 651V260Q289 195 290 158T295 99T302 70T311 57Q330 42 355 42T403 41Q416 41 418 35T420 18Q420 7 419 2T408 -4Q367 -4 328 -2T248 0Q216 0 187 -1T134 -3T95 -5T78 -6Q65 -6 61 -2T57 16Q57 31 65 35T85 40T111 42T139 51Q149 57 155 71T165 113T170 185T172 297V557Q172 597 171 623T168 667T163 692T156 705Q148 711 137 714T100 717Q74 717 69 720T63 733Q63 744 64 749T74 760Q105 785 137 807T201 852Q216 863 231 875T264 897Q270 900 274 900T285 901Q291 901 296 900T301 891Q301 885 301 879T299 866Q293 832 292 796T291 725Q320 750 357 778T434 830T517 869T598 885Q670 885 714 844T772 735L776 739Q807 767 844 793T921 840T1003 873T1090 885Q1154 885 1191 858T1247 789T1272 696T1278 594Q1278 498 1277 405T1276 215Q1276 140 1281 105T1292 61Q1298 55 1304 51T1321 45T1349 42T1393 41Q1402 41 1404 36T1407 18Q1407 10 1406 3T1395 -4Z"  />
<glyph unicode="n" horiz-adv-x="954" d="M907 -4Q861 -4 815 -2T723 0Q686 0 651 -3T578 -6Q565 -6 562 -1T559 16Q559 31 569 35T593 41T622 45T647 59Q657 69 663 89T672 145T677 237T678 373V555Q678 596 674 637T653 710T607 763T526 784Q494 784 466 778T412 761T361 736T309 707Q298 700 295 696T291 678V279Q291 219 292 180T295 117T300 80T309 61Q316 53 328 49T355 44T384 42T408 41Q419 41 420 35T422 18Q422 6 420 1T403 -4Q361 -4 321 -3T238 -2Q179 -2 132 -4T74 -6Q63 -6 60 0T57 16Q57 31 65 35T87 41T115 44T143 57Q150 63 156 74T166 108T172 165T174 254V532Q174 543 174 568T173 622T170 675T164 709Q156 727 145 732T115 737Q105 737 96 736T78 735Q67 735 64 740T61 756Q61 765 63 769T72 778Q78 784 97 796T142 823T195 854T242 883Q257 892 266 896T285 901Q294 901 297 899T301 889Q301 870 296 833T291 743Q351 783 396 810T478 853T548 876T616 883Q677 883 713 856T768 787T793 695T799 596Q799 536 798 476T797 356V115Q797 104 800 85T811 57Q816 51 828 48T855 43T883 41T905 41Q919 41 922 37T926 18Q926 7 923 2T907 -4Z"  />
<glyph unicode="o" horiz-adv-x="903" d="M430 -23Q340 -23 275 16T167 119T105 262T84 420Q84 508 109 591T183 739T305 843T475 883Q563 883 628 844T735 743T798 602T819 446Q819 359 795 275T721 125T600 18T430 -23ZM422 821Q359 821 317 786T251 699T216 588T205 479Q205 439 212 391T233 294T270 199T323 118T395 61T485 39Q526 39 557 55T613 98T653 160T679 232T693 307T698 377Q698 431 690 488T662 600T611 702T532 782Q508 799 480 810T422 821Z"  />
<glyph unicode="p" horiz-adv-x="956" d="M438 -14Q366 -14 299 10V-145Q299 -240 299 -297T300 -386T303 -432T309 -457Q315 -472 329 -479T362 -489T398 -492T430 -494Q447 -496 451 -499T455 -520Q455 -531 453 -537T438 -543Q390 -543 340 -540T240 -537Q178 -537 131 -540T70 -543Q60 -543 58 -536T55 -520Q55 -513 55 -509T59 -501T70 -497T92 -494Q112 -492 126 -486T149 -464T163 -421T170 -352Q174 -255 176 -194T179 -93T181 -30T182 14V582Q182 625 181 652T173 694T154 714T117 719H80Q75 719 74 722T72 743Q72 748 75 753T100 776L223 872Q242 886 255 896T274 909Q284 913 295 913Q301 913 307 912T313 901Q313 878 309 852T305 801Q336 816 369 831T436 857T505 876T575 883Q653 883 709 844T802 743T855 610T872 471Q872 377 842 290T754 135T617 27T438 -14ZM498 795Q445 795 399 783T305 750Q303 628 301 506T299 262V119Q329 105 353 96T400 81T449 73T508 70Q576 70 624 98T702 171T746 274T760 391Q760 435 756 482T741 574T712 659T664 729T594 777T498 795Z"  />
<glyph unicode="q" horiz-adv-x="901" d="M868 -512Q868 -527 866 -532T852 -537Q827 -537 801 -535T748 -532Q703 -532 662 -534T590 -538T539 -543T516 -545Q507 -545 503 -542T498 -528Q498 -516 500 -511T512 -504Q524 -502 537 -501T564 -498T590 -490T612 -473Q623 -462 629 -421T640 -322T646 -199T648 -74T649 32T649 96Q618 74 589 55T530 20T466 -3T393 -12Q310 -12 252 25T156 120T101 251T84 395Q84 505 122 602T242 774Q269 799 301 820T368 857T440 882T516 891Q564 891 610 881T698 844Q703 848 712 855T731 870T750 883T766 889Q782 889 782 874Q782 860 780 846T776 817Q770 763 770 708T768 596Q766 494 766 393T766 188V-86Q766 -212 767 -284T769 -394T773 -445T780 -465Q790 -480 806 -487T854 -494Q862 -494 865 -497T868 -512ZM651 563Q651 620 646 664T622 740T565 787T463 803Q391 803 341 776T261 702T217 597T203 473Q203 404 215 335T258 211T342 121T479 86Q507 86 528 91T569 105T608 126T649 154L651 563Z"  />
<glyph unicode="r" horiz-adv-x="647" d="M631 786Q631 775 625 757T610 723T590 694T567 682Q557 682 552 695T538 724T515 753T473 766Q458 766 444 761T417 747T393 728T371 709Q365 704 355 694T334 673T314 651T303 637Q301 634 301 628T300 614T299 600T299 590V373Q299 282 300 226T303 136T309 87T319 63Q327 53 344 49T381 43T421 41T453 39Q464 37 466 34T469 16Q469 2 465 -2T446 -6Q429 -6 374 -3T244 0Q184 0 143 -3T92 -6Q80 -6 78 -1T76 16Q76 31 84 35T104 41T130 45T156 59Q163 67 168 79T176 117T180 191T182 315V449Q182 540 181 594T178 679T172 719T164 733Q156 738 147 738T129 739Q111 739 102 739T87 742T81 748T80 758Q80 769 81 773T94 784Q141 812 187 843T279 905Q282 907 286 907T293 907Q299 907 305 906T311 897Q311 889 310 883T309 868Q306 823 304 778T299 688Q309 701 327 720T367 762T415 807T464 848T511 877T549 889Q569 889 584 880T609 856T625 823T631 786Z"  />
<glyph unicode="s" horiz-adv-x="662" d="M301 -25Q261 -25 224 -20T147 -6Q138 -4 129 -2T111 0Q106 0 101 -1T92 -2Q87 -2 86 1T84 16Q84 23 86 48T88 117Q88 162 85 194T82 238Q82 250 93 254T115 258Q128 258 131 246Q139 195 149 160T180 96Q206 58 243 41T328 23Q363 23 391 34T440 67T470 116T481 180Q481 241 454 280T385 349T296 404T207 462T139 538T111 649Q111 707 131 752T186 827T269 873T373 889Q405 889 437 884T502 872Q505 872 507 871T512 870Q518 870 522 873T532 877Q545 877 545 866Q546 851 547 826T550 773T553 719T555 674Q555 663 546 661T528 659Q516 659 516 670Q514 673 514 676T512 682Q501 719 490 748T460 797T413 827T342 838Q311 838 287 827T247 797T222 751T213 696Q213 657 223 629T252 579T296 539T354 502Q398 475 441 450T518 392T573 317T594 215Q594 149 571 103T507 29T414 -12T301 -25Z"  />
<glyph unicode="t" horiz-adv-x="575" d="M586 797Q586 776 571 776H287Q286 717 284 654T279 528T274 403T272 281Q272 219 278 179T301 116T344 84T414 74Q456 74 493 89T565 125L573 121V94Q573 82 568 76T551 61Q528 45 500 30T443 2T383 -17T324 -25Q266 -25 233 -4T182 51T161 130T156 221Q156 361 162 499T174 776L98 774Q90 774 88 777T86 788Q86 796 87 799T94 809Q119 835 138 857T176 901T212 946T252 999Q261 1012 265 1016T285 1020Q290 1020 294 1018T299 1010Q299 999 296 965T289 864L567 866Q581 866 583 860T586 831V797Z"  />
<glyph unicode="u" horiz-adv-x="930" d="M918 82Q918 76 917 71T911 61Q908 57 891 49T848 31T795 11T740 -7T694 -20T666 -25Q650 -25 648 -13T645 10Q645 36 645 62T647 115Q642 112 638 110T629 104Q596 84 561 62T489 22T413 -8T334 -20Q292 -20 263 -5T213 35T181 92T163 160T154 232T152 299Q152 333 154 366T156 434V623Q156 686 154 717T137 762Q129 770 121 772T102 774H70Q57 774 55 779T53 793Q53 798 53 803T57 811Q59 813 75 819T113 834T162 851T211 867T251 880T272 885Q282 885 284 879T287 864Q287 853 285 826T280 759T275 668T272 557V338Q272 293 276 248T295 165T343 104T432 80Q450 80 484 88T553 109T615 138T647 172Q649 181 650 208T652 265T653 323T653 360V713Q653 732 652 748T646 776T630 796T598 807Q583 810 568 810T537 811Q530 811 525 812T520 823Q520 842 522 849T539 856H557Q608 856 655 864T752 879Q755 879 760 880T768 881Q777 881 778 878T780 866Q780 848 780 831T778 797Q773 728 772 595T770 266Q770 183 772 145T786 96Q798 88 817 88Q839 88 863 95T901 102Q914 102 916 99T918 82Z"  />
<glyph unicode="v" horiz-adv-x="780" d="M799 848Q799 839 798 834T786 827Q772 825 765 821T752 810T742 794T731 772Q693 691 657 608T586 440Q552 357 519 274T451 106Q441 83 432 61T416 14Q416 12 416 10T414 6Q409 -2 395 -2Q384 -4 374 -7T352 -10Q345 -10 342 -2Q342 1 340 13T332 45Q320 85 299 148T251 286T197 439T143 584T99 701T72 770Q56 802 44 815T8 829Q2 829 0 833T-2 850Q-2 858 -1 863T10 868Q48 868 88 866T166 864Q203 864 238 865T311 866Q321 866 322 860T324 846Q324 837 322 831T309 825H287Q262 825 247 823T224 816T212 804T209 786Q209 773 213 755T222 718T234 680T246 649Q286 534 324 418T403 186Q407 177 410 168T416 150Q424 170 444 218T489 330T541 462T590 594T626 705T641 774Q641 805 621 815T557 825Q534 825 529 829T524 850Q524 861 526 864T539 868Q571 868 603 866T668 864Q694 864 720 866T772 868Q791 868 795 865T799 848Z"  />
<glyph unicode="w" horiz-adv-x="1182" d="M1204 858Q1204 839 1202 834T1194 828T1182 826T1165 815Q1157 806 1151 796T1139 774Q1102 700 1071 623T1008 469Q974 387 941 307T874 145Q869 130 861 113T846 77T832 41T823 8V4Q822 1 814 -1T794 -6T773 -9T758 -10Q755 -10 753 -5T750 8T747 22T745 31Q737 73 725 113T702 195Q681 276 659 357T612 520Q561 396 509 273T412 23Q410 18 409 12T403 0Q403 -2 396 -4T380 -7T363 -9T350 -10H346Q343 -10 341 -5T338 4Q336 9 335 12T332 20Q313 76 298 132T264 244Q235 338 203 431T139 616Q134 629 124 660T102 724T79 785T59 819Q51 825 44 825T30 826T20 830T16 846Q16 858 19 863T35 868Q49 868 89 866T178 864Q213 864 248 866T319 868Q329 868 330 863T332 850Q332 841 331 834T319 827H293Q245 827 230 820T215 795Q215 782 227 738T257 633T297 503T339 371T374 260T395 193Q400 180 403 167T412 141Q455 256 499 369T586 598Q575 632 566 666T545 735Q542 744 538 757T527 783T513 806T496 821Q489 824 484 824T473 825Q455 827 450 830T444 846Q444 857 446 862T461 868Q498 868 534 866T608 864Q646 864 685 866T762 868Q777 868 779 864T782 846Q782 835 780 830T766 825Q731 825 710 824T677 818T663 806T659 788Q659 767 665 742T678 694Q716 555 754 419T827 143Q833 158 845 190T874 264T910 357T949 460T987 562T1018 655T1040 729T1049 776Q1049 804 1028 813T967 823Q941 823 936 826T930 846Q930 857 932 862T946 868Q954 868 984 865T1065 862Q1121 862 1151 865T1190 868Q1196 868 1200 867T1204 858Z"  />
<glyph unicode="x" horiz-adv-x="809" d="M764 -4Q752 -4 711 -2T612 0Q557 0 515 -2T455 -4Q445 -4 444 3T442 16Q442 21 443 27T446 35Q451 39 467 40T500 41T531 45T545 57Q545 66 534 90T506 145T469 213T430 281T396 340T375 377Q366 365 348 342T308 288T263 225T220 162T189 108T176 70Q176 62 180 56T195 47T225 41T276 39Q290 39 293 37T297 18Q297 7 294 2T279 -4Q268 -4 237 -2T162 0Q109 0 72 -2T18 -4Q4 -4 2 -1T0 16Q0 32 3 34T23 39Q30 40 36 43T50 53T68 70T92 98Q158 176 220 256T346 418L131 786Q123 799 118 806T106 818T90 823T66 827Q59 827 57 831T55 842V854Q55 862 58 865T74 868Q83 868 119 866T213 864Q272 864 308 866T352 868Q363 868 366 865T369 850Q369 833 364 829T342 825Q301 825 289 817T276 793Q276 786 278 778T285 758T299 730T322 688L424 506Q433 517 450 539T488 590T530 648T570 707T599 759T610 795Q610 802 608 807T597 817T572 823T530 825Q518 825 515 829T512 846Q512 860 515 863T530 866Q566 866 601 865T672 864Q707 864 734 866T770 868Q778 868 780 863T782 852V840Q782 832 780 830T770 827Q762 827 754 823Q742 818 718 793T663 731T601 654T539 574T488 506T455 463Q503 381 549 302T645 141Q664 110 677 91T701 62T723 47T750 43Q753 43 758 43T770 42T780 38T784 31V14Q784 6 781 1T764 -4Z"  />
<glyph unicode="y" horiz-adv-x="817" d="M836 848Q836 831 831 829T811 823Q799 821 790 808T774 784Q715 685 669 580T575 369Q495 194 423 18T279 -352Q259 -405 245 -440T219 -497T195 -531T168 -549Q151 -557 130 -558T90 -559Q72 -559 63 -557T49 -549T44 -533T43 -506Q43 -503 43 -499T45 -492Q50 -485 61 -480T78 -471Q116 -452 140 -425T184 -362Q194 -347 202 -331T219 -299Q224 -291 234 -269T258 -218T287 -155T315 -92T338 -36T352 2L330 82Q311 151 290 216T248 347T203 478T156 614Q133 682 120 720T98 779T85 805T74 817Q66 825 55 826T41 827Q35 827 33 833T31 848Q31 857 32 862T45 868Q80 868 114 866T184 864Q225 864 265 866T346 868Q352 868 354 864T356 846Q356 835 354 830T340 825Q306 825 287 823T257 815T245 802T242 784Q242 775 244 763T250 730T263 681T283 610Q318 496 354 383T428 156Q433 168 446 198T477 270T516 362T558 464T599 566T634 659T659 731T668 774Q668 788 664 797T649 813T618 822T563 825Q557 825 555 833T553 846Q553 858 556 863T571 868Q603 868 635 866T700 864Q747 864 778 867T819 870Q832 870 834 864T836 848Z"  />
<glyph unicode="z" horiz-adv-x="782" d="M745 240Q745 232 742 213T733 170T720 118T706 67T693 25T684 0Q682 -3 680 -6T672 -10Q670 -10 668 -10T664 -8Q651 -3 617 -1T512 2Q352 2 244 -2T66 -6Q52 -6 50 -4T47 8Q47 20 53 29Q98 92 143 154T233 281Q326 415 416 549T600 817Q581 817 550 817T481 815T404 812T328 807T264 797T221 780Q203 768 191 749T170 707T154 662T137 621Q134 614 127 614Q125 614 120 614T109 616T99 620T94 627Q94 632 96 635T100 643Q109 664 114 692T123 750T128 809T135 862Q137 871 139 872T150 874Q162 874 174 869T207 862Q239 860 272 859T340 858Q385 858 428 859T516 860Q569 860 606 860T669 862T709 863T729 864Q743 864 743 858V848Q743 843 743 839T737 829Q694 764 649 701T559 573Q469 440 381 309T201 45H279Q319 45 366 46T457 51T539 62T600 82Q623 94 638 112T663 152T682 196T698 242Q700 247 703 253T715 260Q724 260 734 256T745 240Z"  />
<glyph unicode="{" horiz-adv-x="602" d="M377 1206Q377 1115 379 1030T381 854Q381 784 372 726T338 623T268 543T152 487Q222 465 266 433T336 356T371 255T381 129Q381 57 379 -14T377 -158Q377 -245 389 -300T423 -386T476 -430T545 -442Q556 -442 559 -443T563 -455V-469Q563 -475 561 -478T551 -481Q501 -481 453 -471T360 -436Q323 -415 302 -381T271 -307T257 -225T254 -145Q254 -77 256 -10T258 125Q258 173 257 210T250 279T236 334T211 379Q196 399 181 413T145 437T99 453T35 463Q27 465 26 468T25 477V485Q25 495 26 500T30 509T41 513T61 516Q123 522 169 549T238 639Q245 660 249 685T255 736T257 787T258 836Q258 913 256 989T254 1143Q254 1180 257 1218T270 1293T302 1359T360 1411Q404 1436 452 1446T551 1456Q559 1456 561 1453T563 1444V1430Q563 1420 560 1419T545 1417Q506 1417 475 1408T422 1374T389 1309T377 1206Z"  />
<glyph unicode="|" horiz-adv-x="471" d="M193 -442V1421H279V-442H193Z"  />
<glyph unicode="}" horiz-adv-x="602" d="M225 1206Q225 1268 214 1309T181 1374T128 1407T57 1417Q46 1417 43 1418T39 1430V1444Q39 1450 41 1453T51 1456Q101 1456 149 1446T242 1411Q279 1390 300 1360T331 1293T345 1219T348 1143Q348 1065 346 989T344 836Q344 813 344 788T347 736T353 685T365 639Q388 577 433 550T541 516Q566 513 572 509T578 485V477Q578 471 577 468T567 463Q530 459 504 453T457 437T422 413T391 379Q376 358 367 334T352 279T346 211T344 125Q344 57 346 -10T348 -145Q348 -182 345 -224T332 -307T300 -381T242 -436Q198 -461 150 -471T51 -481Q43 -481 41 -478T39 -469V-455Q39 -445 42 -444T57 -442Q95 -442 126 -430T179 -387T213 -300T225 -158Q225 -85 223 -14T221 129Q221 199 230 255T265 355T336 432T451 487Q379 509 335 543T265 622T230 726T221 854Q221 944 223 1029T225 1206Z"  />
<glyph unicode="~" horiz-adv-x="870" d="M819 748Q810 701 793 661T749 590T686 543T602 526Q548 526 501 548T401 606Q369 629 333 645T268 662Q237 662 215 652T175 624T145 580T119 520L51 549Q58 582 72 620T111 691T175 746T270 768Q326 768 372 746T459 696Q505 664 541 650T610 635Q663 635 695 671T752 776L819 748Z"  />
<glyph unicode="&#xA0;" horiz-adv-x="356" />
<glyph unicode="&#xA1;" horiz-adv-x="512" d="M256 682Q237 682 219 690T188 713T166 746T158 782Q158 800 166 818T188 851T220 874T256 883Q275 883 293 874T324 851T346 819T354 782Q354 764 346 746T325 714T293 691T256 682ZM338 -362Q338 -388 337 -404T332 -431T324 -448T309 -459Q301 -463 290 -466T267 -471T244 -475T223 -477Q203 -477 193 -467T177 -441T171 -408T170 -375Q170 -307 175 -240T186 -106Q194 -25 201 55T217 215Q222 265 225 315T231 416Q232 426 232 440T232 468T233 495T236 518Q239 534 249 538T274 543Q277 543 279 539T282 530T283 519T283 512Q286 369 294 227T317 -59Q325 -135 331 -211T338 -362Z"  />
<glyph unicode="&#xA2;" horiz-adv-x="870" d="M690 930Q672 930 658 942T629 965Q617 972 599 979T562 992T524 1002T492 1008V770Q492 652 492 536T494 301Q502 299 510 299T526 299Q553 299 582 305T640 322T695 348T741 381H745Q750 378 756 372T762 358Q762 353 751 343T727 321T701 301T684 289Q638 258 593 238T492 209Q495 159 495 109T496 8Q496 3 495 2T487 0H446Q448 5 448 9T449 18L451 205Q363 205 298 237T189 325T124 452T102 606Q102 688 126 766T194 909T303 1023T449 1096V1194Q449 1216 448 1237T446 1280L451 1284Q456 1282 470 1281T496 1280Q496 1242 495 1205T494 1128V1102Q527 1108 559 1108Q580 1108 615 1104T685 1089T743 1059T768 1008Q768 996 760 983T741 958T716 938T690 930ZM451 1010Q385 1008 344 977T280 898T249 793T240 682Q240 624 250 567T285 459T350 369T451 309V1010Z"  />
<glyph unicode="&#xA3;" horiz-adv-x="870" d="M831 207Q831 165 818 129T782 59Q747 5 690 -22T569 -49Q526 -49 485 -38T404 -12T325 22T246 55Q226 27 197 9T133 -10Q121 -10 113 -4T100 10T93 29T90 49Q90 80 108 102T154 140T211 162T266 170Q276 193 279 217T283 266Q283 317 267 385T215 557H43Q39 557 39 561V618Q39 628 40 629T45 631L193 629Q176 692 164 755T152 883Q152 979 186 1061T289 1212Q338 1262 402 1295T539 1329Q579 1329 616 1316T680 1278T724 1220T741 1143Q741 1108 722 1082T666 1055Q642 1055 634 1068T622 1100T615 1142T598 1184T555 1216T469 1229Q418 1229 382 1206T321 1147T286 1066T274 977Q274 889 293 801T334 629L530 631Q532 631 533 631T535 625V561Q535 557 530 557H350Q364 512 372 466T381 371Q381 311 365 263T317 164Q360 156 401 138T484 102T569 69T659 55Q678 55 695 60T726 74T748 99T756 135Q756 156 747 168T726 190T706 210T696 236Q696 249 701 262T717 285T739 302T766 309Q783 309 795 298T815 271T827 238T831 207Z"  />
<glyph unicode="&#xA4;" horiz-adv-x="870" d="M793 317L676 432Q622 389 562 367T436 344Q386 344 322 363T195 432L80 317L23 377L137 485Q97 542 76 601T55 725Q55 790 76 850T137 965L23 1075L80 1135L195 1020Q261 1070 323 1088T436 1106Q490 1106 554 1086T676 1020L793 1135L848 1075L733 965Q780 903 798 844T817 725Q817 662 796 603T733 485L848 377L793 317ZM737 727Q737 794 711 849T643 943T546 1004T436 1026Q371 1026 316 1002T221 937T158 841T135 727Q135 665 158 610T223 514T319 449T436 424Q497 424 552 448T648 514T713 610T737 727Z"  />
<glyph unicode="&#xA5;" horiz-adv-x="870" d="M500 299Q500 270 500 240T502 181T507 128T516 88Q522 71 529 64T553 51Q578 43 606 42T659 39Q663 39 667 39T674 37Q677 35 677 32T678 25V18Q678 7 676 1T662 -6Q643 -6 625 -5T588 -2Q551 0 513 1T438 2Q401 2 364 1T289 -2Q270 -4 252 -5T215 -6Q203 -6 201 1T199 18V23Q199 37 218 39T262 43T312 53T350 90Q357 106 361 133T367 194T370 261T371 326V512H70Q68 512 66 514T63 518V549Q63 561 64 570T70 580H367Q347 622 328 662T289 745L70 743Q68 743 66 745T63 750V780Q63 793 64 802T70 811H256Q222 882 188 953T119 1094Q100 1128 82 1167T39 1235Q27 1250 16 1253T-5 1257T-21 1263T-27 1284Q-27 1292 -26 1297T-14 1303Q10 1303 66 1301T197 1298Q232 1298 268 1300T340 1303Q349 1303 350 1297T352 1282Q352 1265 348 1260T328 1255H293Q273 1255 256 1249T238 1219Q238 1203 253 1161T291 1063T343 945T398 826T447 724T479 659Q482 664 485 670T492 684Q596 893 650 1018T705 1192Q705 1210 701 1221T684 1240T648 1250T584 1255Q567 1255 562 1259T557 1280V1286Q557 1292 559 1297T571 1303Q624 1303 676 1301T780 1298Q837 1298 871 1300T918 1303Q927 1303 928 1298T930 1284V1276Q930 1270 928 1267T918 1262Q899 1258 885 1253T858 1241T836 1224T813 1198Q791 1169 775 1136T743 1071Q711 1006 680 941T618 811H799Q805 811 805 805Q805 800 806 791T807 770Q807 759 806 751T799 743H588L506 580H799Q805 580 805 573Q805 568 806 559T807 539Q807 528 806 520T799 512H500V299Z"  />
<glyph unicode="&#xA6;" horiz-adv-x="471" d="M193 739V1421H279V739H193ZM193 -440V240H279V-440H193Z"  />
<glyph unicode="&#xA7;" horiz-adv-x="870" d="M586 92Q628 44 647 -12T666 -131Q666 -201 641 -272T570 -400T462 -494T324 -530Q300 -530 271 -524T216 -504T173 -469T156 -418Q156 -409 160 -396T171 -369T187 -346T207 -336Q212 -336 219 -340T234 -349T247 -361T256 -371Q269 -386 286 -395T323 -411T363 -419T401 -422Q446 -422 480 -406T537 -362T572 -297T584 -217Q584 -160 566 -117T517 -38T449 28T370 88T292 150T223 222T175 311T156 426Q156 510 193 578T287 705Q246 754 227 805T207 922Q207 965 216 1011T242 1102T285 1186T344 1256T420 1303T512 1321Q537 1321 567 1314T623 1292T666 1255T684 1202Q684 1192 679 1179T665 1153T645 1133T623 1124Q614 1124 603 1139T575 1173T532 1207T465 1223Q420 1223 385 1209T326 1168T289 1106T276 1026Q276 969 295 925T344 844T414 776T495 713T576 649T646 576T696 487T715 373Q715 286 682 219T586 92ZM625 297Q625 371 594 424T517 521T415 601T311 680Q277 637 262 597T246 502Q246 428 277 374T355 277T457 195T561 117Q592 155 608 201T625 297Z"  />
<glyph unicode="&#xA8;" horiz-adv-x="1018" d="M664 1042Q649 1042 635 1048T611 1065T594 1089T588 1118Q588 1149 610 1172T664 1196Q677 1196 690 1190T713 1172T729 1148T735 1120Q735 1105 729 1091T713 1066T690 1049T664 1042ZM354 1042Q340 1042 327 1048T305 1065T289 1089T283 1118Q283 1133 289 1147T305 1172T328 1189T356 1196Q370 1196 383 1190T406 1172T423 1148T430 1120Q430 1105 424 1091T407 1066T383 1049T354 1042Z"  />
<glyph unicode="&#xA9;" horiz-adv-x="1540" d="M770 -25Q676 -25 589 -1T427 67T290 172T184 309T116 472T92 653Q92 748 117 834T187 995T296 1130T437 1232T601 1298T782 1321Q919 1321 1040 1268T1253 1122T1397 908T1450 649Q1450 508 1397 386T1251 172T1035 28T770 -25ZM762 1237Q643 1237 539 1190T357 1061T235 874T190 649Q190 529 235 422T358 234T542 106T770 59Q852 59 927 80T1066 141T1184 234T1274 355T1331 496T1352 653Q1352 775 1305 881T1178 1067T991 1191T762 1237ZM1102 997Q1102 991 1091 950T1077 827Q1077 813 1074 809T1055 805Q1039 805 1035 807T1026 825Q1022 839 1021 853T1016 882T1007 909T987 932Q973 942 952 949T907 960T862 967T823 969Q753 969 700 945T610 879T554 780T535 655Q535 587 554 528T610 424T702 354T829 328Q865 328 896 333T956 350T1008 381T1055 430Q1060 438 1069 438Q1077 438 1087 434T1098 420Q1098 415 1094 407T1087 393Q1081 376 1075 359T1063 324Q1060 315 1058 310T1053 301T1045 295T1030 291Q1013 286 987 283T932 277T876 274T829 272Q737 272 659 291T522 354T432 468T399 641Q399 738 434 810T530 929T671 1000T842 1024Q885 1024 920 1021T983 1015T1028 1009T1053 1006Q1059 1006 1064 1009T1077 1012Q1083 1012 1092 1010T1102 997Z"  />
<glyph unicode="&#xAA;" horiz-adv-x="492" d="M504 858Q504 846 502 839T489 825Q478 817 463 808T432 792T399 779T367 774Q339 774 327 788T309 829Q288 821 269 811T232 793T193 780T147 774Q120 774 102 784T73 812T56 852T51 897Q51 924 55 942T68 973T94 996T135 1016Q177 1033 221 1042T311 1057Q311 1080 312 1103T313 1149Q313 1170 310 1187T299 1217T277 1237T238 1245Q233 1245 221 1244T195 1239T171 1231T160 1219Q160 1208 161 1201T162 1188Q162 1180 158 1176T137 1165Q126 1160 113 1157T88 1153Q70 1153 70 1171Q70 1202 93 1229T150 1276T220 1309T283 1321Q320 1321 343 1309T379 1275T398 1226T403 1165Q403 1122 401 1080T399 993V924Q399 916 399 904T403 881T412 862T430 854Q447 854 463 864T494 885Q496 887 500 887Q504 887 504 883V858ZM281 1012Q269 1012 255 1008T225 998T197 984T174 971Q159 960 155 952T150 926Q150 909 152 895T160 871T177 854T209 848Q231 848 255 854T297 874Q301 878 304 887T308 907T310 929T311 952V983Q311 1002 305 1007T281 1012Z"  />
<glyph unicode="&#xAB;" horiz-adv-x="874" d="M786 801Q786 793 769 765T726 698T671 616T615 537T572 475T555 446Q555 437 561 430T573 414Q579 406 596 381T636 323T684 252T730 182T764 126T778 98Q778 92 766 87T750 76Q743 76 741 77T735 84Q655 169 576 253T414 420Q409 423 405 427T401 438Q401 446 405 451T416 463Q482 529 549 595T678 733Q680 735 692 749T717 778T743 806T758 819Q759 819 764 817T773 812T782 806T786 801ZM471 801Q471 794 454 766T412 699T357 617T302 536T259 474T242 446Q242 438 246 434Q249 429 254 424T262 414Q268 406 285 381T324 322T372 251T417 181T451 125T465 98Q465 96 461 92T452 85T441 79T432 76Q430 76 422 85T403 105T383 125T373 137Q305 209 239 280T100 420Q95 423 92 427T88 438Q88 446 92 452T102 463Q167 531 234 596T365 733Q367 735 379 749T405 778T430 806T442 819Q447 819 459 813T471 801Z"  />
<glyph unicode="&#xAC;" horiz-adv-x="870" d="M684 459V723H68V819H803V459H684Z"  />
<glyph unicode="&#xAD;" horiz-adv-x="553" d="M467 399H63L88 518H489L467 399Z"  />
<glyph unicode="&#xAE;" horiz-adv-x="1540" d="M770 -25Q676 -25 589 -1T427 67T290 172T184 309T116 472T92 653Q92 748 117 834T187 995T296 1130T437 1232T601 1298T782 1321Q919 1321 1040 1268T1253 1122T1397 908T1450 649Q1450 508 1397 386T1251 172T1035 28T770 -25ZM762 1237Q642 1237 538 1190T356 1061T235 874T190 649Q190 529 235 422T358 234T542 106T770 59Q852 59 927 80T1066 141T1184 234T1274 355T1331 496T1352 653Q1352 775 1305 881T1178 1067T991 1191T762 1237ZM1110 279Q1041 279 987 308T888 384T808 487T743 596Q716 594 689 593T633 592V512Q633 488 633 463T635 417T638 378T643 354Q650 340 667 337T703 332T736 326T750 307Q750 298 747 292T733 285Q658 285 586 285T438 283Q424 283 416 286T408 305Q408 323 420 326T448 330T480 339T506 375Q509 383 510 405T513 457T514 518T514 578V776Q514 821 513 862T506 932Q501 955 487 961T457 969T429 972T416 987Q416 998 420 1005T436 1012H473Q545 1012 617 1015T762 1018Q810 1018 856 1008T939 974T999 913T1022 819Q1022 784 1011 754T979 698T932 655T872 625Q888 595 912 555T965 474T1029 398T1098 344Q1125 329 1153 326Q1159 324 1163 323T1167 313Q1167 289 1153 284T1110 279ZM721 969Q692 969 675 968T648 959T636 937T633 897V651Q648 646 663 645T696 643Q736 643 771 650T831 676T872 724T887 799Q887 877 844 923T721 969Z"  />
<glyph unicode="&#xAF;" horiz-adv-x="1018" d="M285 1073Q275 1073 273 1075T270 1087V1161Q270 1174 276 1176T293 1178H727Q743 1178 745 1172T748 1151V1100Q748 1086 746 1080T733 1073H285Z"  />
<glyph unicode="&#xB0;" horiz-adv-x="881" d="M446 1321Q505 1321 556 1300T646 1240T705 1151T727 1042Q727 981 705 929T645 840T554 781T440 760Q380 760 328 781T237 839T176 929T154 1042Q154 1103 176 1154T238 1243T331 1300T444 1321H446ZM438 1210Q403 1210 375 1196T327 1159T296 1106T285 1042Q285 1007 296 976T327 922T376 884T440 870Q476 870 504 884T553 921T585 976T596 1042Q596 1077 584 1107T551 1161T501 1197T438 1210Z"  />
<glyph unicode="&#xB1;" horiz-adv-x="870" d="M483 598V270H387V598H70V696H387V1024H483V696H803V598H483ZM68 0V96H803V0H68Z"  />
<glyph unicode="&#xB2;" horiz-adv-x="606" d="M545 1034Q545 1029 543 1019T537 995Q532 977 525 951T512 889Q512 883 510 877T508 864Q505 846 498 841T471 836Q465 836 455 837T430 838Q401 840 359 840T272 840Q223 840 186 840T121 838Q104 838 92 837T68 836Q60 836 54 838T47 852V864Q47 869 51 879Q70 900 95 928T148 987T202 1049T250 1110Q293 1166 320 1208T362 1286T383 1356T389 1432Q389 1495 355 1532T268 1569Q250 1569 230 1567T192 1558T159 1540T133 1513Q124 1495 121 1473Q118 1456 114 1444T96 1432Q87 1432 81 1441T74 1456Q74 1484 94 1518T147 1584T224 1636T315 1657Q354 1657 387 1641T445 1597T484 1530T498 1446Q498 1412 490 1380T464 1314T419 1242T354 1157Q325 1122 275 1067T154 938H311Q378 938 416 940T476 953T507 984T526 1040Q526 1042 527 1044T528 1049Q530 1053 537 1053Q543 1053 544 1048T545 1034Z"  />
<glyph unicode="&#xB3;" horiz-adv-x="606" d="M225 825Q135 825 88 874Q74 890 65 909T55 946Q55 968 71 979T109 991Q121 991 128 986T147 952Q161 918 192 898T266 877Q297 877 325 893T375 938T409 1003T422 1081Q422 1159 386 1205T285 1251Q264 1251 249 1246T222 1234T204 1223T193 1217Q189 1217 182 1225T174 1239Q174 1247 179 1251T199 1264Q235 1282 266 1304T322 1351T359 1402T373 1458Q373 1480 368 1500T352 1537T322 1563T274 1573Q255 1573 235 1569T196 1557T162 1537T137 1507Q131 1496 125 1487T115 1477Q110 1477 104 1482T98 1493Q98 1499 107 1517T133 1559Q210 1657 322 1657Q356 1657 384 1646T433 1614T465 1565T477 1505Q477 1456 449 1415T354 1327H356Q401 1323 434 1304T488 1256T521 1191T532 1116Q532 1055 508 1002T443 910T346 848T225 825Z"  />
<glyph unicode="&#xB4;" horiz-adv-x="1018" d="M682 1245Q647 1214 623 1192T582 1154T551 1125T527 1102T503 1078T473 1049Q431 1010 420 1010Q412 1010 405 1014T397 1022L398 1023Q398 1024 398 1024T399 1026L401 1030Q409 1041 423 1063T456 1116T497 1181T543 1255Q551 1269 556 1278T567 1296Q572 1304 576 1310T584 1319Q590 1327 595 1328T610 1329Q615 1329 617 1329T627 1327Q635 1325 648 1323T684 1315Q709 1309 709 1290Q709 1279 703 1270T682 1245Z"  />
<glyph unicode="&#xB5;" horiz-adv-x="946" d="M61 815Q81 823 114 835T181 858T241 877T274 885Q282 885 284 881T287 870Q287 838 284 805T279 739Q274 639 273 539T272 338Q272 293 276 248T295 165T343 104T432 80Q443 80 463 84T506 94T554 110T599 129T633 150T649 172Q651 180 651 189T651 207V242V672Q651 703 650 726T643 766Q636 784 624 793T595 805T562 809T530 811Q525 811 520 812T514 821V834Q514 843 517 848T532 856H551Q602 858 652 865T752 879Q755 879 760 880T768 881Q777 881 778 878T780 866Q780 848 779 831T776 797Q775 782 774 751T772 688T769 628T768 592V231Q768 214 768 194T771 155T777 121T788 100Q795 94 803 92T821 90Q830 90 844 92T873 96T897 100T909 102Q916 100 917 94T918 82Q918 76 917 71T911 61Q906 55 865 38T758 -2Q727 -13 701 -19T666 -25Q650 -25 648 -13T645 10Q645 36 646 62T649 115Q644 112 640 110T631 104Q598 84 563 62T490 22T414 -8T334 -20Q308 -20 282 -13T233 12Q239 -42 244 -105T254 -229T261 -342T264 -426Q264 -458 263 -477T259 -508T252 -526T242 -537Q231 -545 213 -550T180 -555Q168 -555 160 -551T146 -534T139 -501T137 -444Q137 -302 146 -161T156 121V506Q156 581 154 627T148 701T140 741T131 758Q123 766 111 768T86 770H74Q64 770 59 773T53 791Q53 803 54 808T61 815Z"  />
<glyph unicode="&#xB6;" horiz-adv-x="1278" d="M1313 1247Q1313 1196 1285 1170T1210 1135Q1175 1127 1140 1126T1067 1124H1018V-94Q1018 -134 1017 -180T1009 -271T990 -357T956 -430T902 -481T825 -500Q801 -500 780 -493T743 -472T717 -439T707 -393Q707 -377 713 -360T730 -330T755 -308T788 -299Q803 -299 815 -303T837 -313T857 -323T879 -328Q901 -328 914 -317T936 -288T947 -250T952 -213Q959 -157 960 -103T961 8V96Q892 94 824 91T688 88Q561 88 457 128T277 241T161 417T119 649Q119 773 155 872T259 1041T427 1148T651 1186Q729 1186 806 1181T961 1176Q959 1234 958 1292T952 1409H1024Q1019 1350 1019 1291T1018 1174H1071Q1089 1174 1108 1175T1145 1179T1176 1190T1194 1208Q1199 1221 1199 1233T1202 1260Q1205 1280 1215 1295T1249 1311Q1277 1311 1295 1293T1313 1247ZM961 1124H899Q887 1124 872 1125T840 1126Q822 1126 803 1125T767 1118T736 1105T715 1081Q712 1074 710 1046T706 976T704 887T703 793T702 710T702 653V639Q702 567 702 494T705 348Q705 334 704 317T702 281Q702 262 704 245T709 215Q713 194 722 183T743 165T772 156T807 152Q825 150 844 150T883 150H961V1124Z"  />
<glyph unicode="&#xB7;" horiz-adv-x="408" d="M203 569Q187 569 170 579T139 605T115 640T106 678Q106 697 115 716T138 750T169 774T203 784Q220 784 237 775T269 750T292 717T301 680Q301 662 292 642T269 606T238 580T203 569Z"  />
<glyph unicode="&#xB8;" horiz-adv-x="1018" d="M612 8Q607 -4 599 -18T584 -45T572 -68T567 -80Q567 -93 585 -106T626 -137T667 -183T686 -252Q686 -284 672 -317T635 -378T581 -422T516 -440Q501 -440 484 -436T452 -423T428 -401T418 -369Q418 -361 421 -352T429 -334T442 -321T459 -315Q471 -315 482 -321T504 -334T528 -348T555 -354Q580 -354 593 -340T606 -301Q606 -267 586 -246T543 -210T499 -181T479 -147Q479 -143 489 -125T512 -83T540 -34T565 8H612Z"  />
<glyph unicode="&#xB9;" horiz-adv-x="606" d="M381 1651Q386 1646 387 1643T389 1634Q389 1622 387 1602T383 1540T379 1426T377 1239V975Q377 937 384 914T420 885Q437 882 459 882T500 881Q508 881 509 874T510 860Q510 843 507 840T483 836Q434 836 403 837T342 838Q305 838 265 838T164 834Q148 834 143 838T137 854V860Q137 866 138 872T147 879Q174 879 191 880T218 883T236 889T250 897Q256 901 260 913T267 951T271 1019T272 1124V1378Q272 1430 271 1458T268 1500T263 1517T256 1520Q244 1520 231 1513L154 1479Q153 1478 151 1478Q149 1477 145 1477Q142 1477 141 1481T139 1491V1507Q139 1512 142 1516T158 1526Q173 1532 197 1547T248 1580T300 1616T344 1649Q349 1652 356 1656T367 1661Q371 1661 381 1651Z"  />
<glyph unicode="&#xBA;" horiz-adv-x="625" d="M297 772Q247 772 206 791T135 846T89 931T72 1040Q72 1103 90 1155T143 1243T224 1300T330 1321Q379 1321 420 1302T490 1247T536 1164T553 1057Q553 995 534 943T480 853T399 794T297 772ZM295 1270Q266 1270 243 1256T204 1215T179 1152T170 1073Q170 1023 183 978T218 899T269 844T330 823Q357 823 380 837T419 878T445 939T455 1016Q455 1067 443 1113T408 1194T357 1249T295 1270Z"  />
<glyph unicode="&#xBB;" horiz-adv-x="874" d="M786 455Q786 447 778 436T759 414T736 392T719 375Q651 307 586 237T455 96Q454 95 451 92T444 86T437 79T432 76Q429 76 423 78T412 84T402 91T397 98Q397 106 414 134T456 201T511 283T566 362T608 423T625 449Q617 463 608 477T580 516Q575 523 560 545T526 596T486 659T448 720T420 769T408 793Q408 796 412 800T422 809T433 816T442 819Q449 819 452 815T459 807Q559 696 668 586Q694 560 721 534T774 479Q779 474 782 469T786 455ZM479 455Q479 447 471 436T452 414T429 392T412 375Q344 307 279 237T147 96Q146 95 143 92T137 86T130 79T125 76Q122 76 116 78T105 84T95 91T90 98Q90 106 107 134T149 201T203 283T258 362T300 423T317 449Q309 463 300 477T272 516Q267 523 253 545T219 596T179 659T141 720T112 769T100 793Q100 796 104 800T114 809T126 816T135 819Q141 819 144 815T152 807Q203 751 254 696T360 586Q386 560 414 534T467 479Q472 474 475 469T479 455Z"  />
<glyph unicode="&#xBC;" horiz-adv-x="1341" d="M381 1325Q386 1320 387 1317T389 1308Q389 1296 387 1276T383 1214T379 1100T377 913V649Q377 611 384 588T420 559Q437 556 459 556T500 555Q508 555 509 548T510 534Q510 517 507 514T483 510Q434 510 403 511T342 512Q305 512 265 512T164 508Q148 508 143 512T137 528V534Q137 540 138 546T147 553Q174 553 191 554T218 557T236 563T250 571Q256 575 260 587T267 625T271 693T272 798V1052Q272 1104 271 1132T268 1174T263 1191T256 1194Q244 1194 231 1187L154 1153Q153 1152 151 1152Q149 1151 145 1151Q142 1151 141 1155T139 1165V1181Q139 1186 142 1190T158 1200Q173 1206 197 1221T248 1254T300 1290T344 1323Q349 1326 356 1330T367 1335Q371 1335 381 1325ZM737 639Q674 509 629 416T552 257T502 151T470 81T451 35T438 -2H338Q356 32 414 147T569 463Q657 643 718 768T820 978T886 1114T925 1199T948 1253T966 1298H1065Q1052 1277 1028 1230T964 1105T869 911T737 639ZM1325 237Q1323 229 1319 225T1298 221H1198Q1198 179 1198 143T1199 80Q1199 48 1200 22Q1200 7 1194 5T1179 2H1116Q1107 2 1102 10T1097 24V221H792Q780 221 774 223T768 243V274Q768 281 778 299L1163 811Q1168 817 1171 818T1184 819Q1192 819 1195 813T1198 798V301H1308Q1321 301 1326 298T1331 278L1325 237ZM1097 301Q1097 388 1097 446T1098 545T1099 612T1100 663Q1065 623 1033 582T968 497Q933 449 896 398T827 301H1097Z"  />
<glyph unicode="&#xBD;" horiz-adv-x="1403" d="M381 1325Q386 1320 387 1317T389 1308Q389 1296 387 1276T383 1214T379 1100T377 913V649Q377 611 384 588T420 559Q437 556 459 556T500 555Q508 555 509 548T510 534Q510 517 507 514T483 510Q434 510 403 511T342 512Q305 512 265 512T164 508Q148 508 143 512T137 528V534Q137 540 138 546T147 553Q174 553 191 554T218 557T236 563T250 571Q256 575 260 587T267 625T271 693T272 798V1052Q272 1104 271 1132T268 1174T263 1191T256 1194Q244 1194 231 1187L154 1153Q153 1152 151 1152Q149 1151 145 1151Q142 1151 141 1155T139 1165V1181Q139 1186 142 1190T158 1200Q173 1206 197 1221T248 1254T300 1290T344 1323Q349 1326 356 1330T367 1335Q371 1335 381 1325ZM737 639Q674 509 629 416T552 257T502 151T470 81T451 35T438 -2H338Q356 32 414 147T569 463Q657 643 718 768T820 978T886 1114T925 1199T948 1253T966 1298H1065Q1052 1277 1028 1230T964 1105T869 911T737 639ZM1342 198Q1342 193 1340 183T1334 159Q1329 141 1322 115T1309 53Q1309 47 1307 41T1305 28Q1302 10 1295 5T1268 0Q1262 0 1252 1T1227 2Q1198 4 1156 4T1069 4Q1020 4 983 4T918 2Q901 2 889 1T865 0Q857 0 851 2T844 16V28Q844 33 848 43Q867 64 892 92T945 151T999 213T1047 274Q1090 330 1117 372T1159 450T1180 520T1186 596Q1186 659 1152 696T1065 733Q1047 733 1027 731T989 722T956 704T930 677Q921 659 918 637Q915 620 911 608T893 596Q884 596 878 605T871 620Q871 648 891 682T944 748T1021 800T1112 821Q1151 821 1184 805T1242 761T1281 694T1295 610Q1295 576 1287 544T1261 478T1216 406T1151 321Q1122 286 1072 231T951 102H1108Q1175 102 1213 104T1273 117T1304 148T1323 204Q1323 206 1324 208T1325 213Q1327 217 1334 217Q1340 217 1341 212T1342 198Z"  />
<glyph unicode="&#xBE;" horiz-adv-x="1341" d="M225 499Q135 499 88 548Q74 564 65 583T55 620Q55 642 71 653T109 665Q121 665 128 660T147 626Q161 592 192 572T266 551Q297 551 325 567T375 612T409 677T422 755Q422 833 386 879T285 925Q264 925 249 920T222 908T204 897T193 891Q189 891 182 899T174 913Q174 921 179 925T199 938Q235 956 266 978T322 1025T359 1076T373 1132Q373 1154 368 1174T352 1211T322 1237T274 1247Q255 1247 235 1243T196 1231T162 1211T137 1181Q131 1170 125 1161T115 1151Q110 1151 104 1156T98 1167Q98 1173 107 1191T133 1233Q210 1331 322 1331Q356 1331 384 1320T433 1288T465 1239T477 1179Q477 1130 449 1089T354 1001H356Q401 997 434 978T488 930T521 865T532 790Q532 729 508 676T443 584T346 522T225 499ZM737 639Q674 509 629 416T552 257T502 151T470 81T451 35T438 -2H338Q356 32 414 147T569 463Q657 643 718 768T820 978T886 1114T925 1199T948 1253T966 1298H1065Q1052 1277 1028 1230T964 1105T869 911T737 639ZM1325 237Q1323 229 1319 225T1298 221H1198Q1198 179 1198 143T1199 80Q1199 48 1200 22Q1200 7 1194 5T1179 2H1116Q1107 2 1102 10T1097 24V221H792Q780 221 774 223T768 243V274Q768 281 778 299L1163 811Q1168 817 1171 818T1184 819Q1192 819 1195 813T1198 798V301H1308Q1321 301 1326 298T1331 278L1325 237ZM1097 301Q1097 388 1097 446T1098 545T1099 612T1100 663Q1065 623 1033 582T968 497Q933 449 896 398T827 301H1097Z"  />
<glyph unicode="&#xBF;" horiz-adv-x="647" d="M408 680Q389 680 372 688T341 711T319 744T311 780Q311 798 319 816T340 849T370 872T408 881Q427 881 445 872T476 849T498 817T506 780Q506 762 498 744T476 712T444 689T408 680ZM424 -459Q372 -459 330 -444T253 -403T188 -342T131 -264Q96 -210 71 -147T45 -18Q45 44 67 90T124 171T200 232T280 282T349 327T391 375Q397 390 399 405T401 438V549Q401 564 405 568T430 573Q441 573 445 561T451 539Q460 488 469 434T479 328Q479 315 478 301T471 274Q460 246 432 224T368 181T292 138T220 86T166 17T145 -76Q145 -127 159 -171T202 -248T271 -300T367 -319Q385 -319 397 -318T421 -314T444 -307T471 -295Q483 -289 496 -289Q512 -289 522 -299T539 -325T547 -356T549 -385Q549 -409 537 -423T505 -446T464 -456T424 -459Z"  />
<glyph unicode="&#xC0;" horiz-adv-x="1077" d="M711 -4Q701 -4 697 0T692 16Q692 32 696 35T711 41Q729 43 744 43T772 45Q784 47 793 49T809 59Q821 75 821 98Q821 114 817 132T807 174Q797 210 784 254T759 341T736 421T719 481Q662 481 608 482T500 483Q450 483 402 482T303 481Q275 396 256 335T223 233Q220 222 215 206T206 172T198 135T195 100Q195 77 203 66Q210 55 227 50T264 43T303 41T334 39Q337 39 341 39T348 37Q352 33 352 18Q352 3 348 -1T332 -6Q288 -4 247 -2T162 0Q137 0 113 -1T63 -4L27 -6Q16 -6 13 -2T10 14Q10 25 11 30T16 39Q19 41 24 41T33 43Q38 43 42 43T51 47Q56 50 59 56T70 76Q76 88 80 97T90 123Q98 138 109 165T139 244Q323 726 413 979T504 1264Q504 1282 509 1287T524 1294Q560 1297 598 1307Q602 1309 610 1309Q622 1309 625 1288Q630 1266 637 1235T657 1158T687 1046T734 887T800 670T889 383Q909 320 924 273T950 188Q972 120 987 88Q995 71 1001 63T1016 49Q1027 41 1036 42T1057 41Q1067 41 1067 18Q1067 7 1065 2T1051 -4H1028Q993 -2 955 -2T879 -2Q794 -2 756 -3T711 -4ZM322 539Q365 539 409 538T500 537Q551 537 601 538T702 539Q664 667 634 770T582 949T546 1070T528 1130L322 539ZM621 1444Q616 1444 604 1452T572 1481L363 1677Q347 1691 342 1701T336 1720Q336 1735 357 1741Q385 1749 405 1753T433 1757Q444 1757 450 1754T465 1735Q488 1699 510 1663T553 1591Q569 1564 580 1546T601 1514T618 1486T637 1458L639 1454Q639 1448 632 1446T621 1444Z"  />
<glyph unicode="&#xC1;" horiz-adv-x="1077" d="M711 -4Q701 -4 697 0T692 16Q692 32 696 35T711 41Q729 43 744 43T772 45Q784 47 793 49T809 59Q821 75 821 98Q821 114 817 132T807 174Q797 210 784 254T759 341T736 421T719 481Q662 481 608 482T500 483Q450 483 402 482T303 481Q275 396 256 335T223 233Q220 222 215 206T206 172T198 135T195 100Q195 77 203 66Q210 55 227 50T264 43T303 41T334 39Q337 39 341 39T348 37Q352 33 352 18Q352 3 348 -1T332 -6Q288 -4 247 -2T162 0Q137 0 113 -1T63 -4L27 -6Q16 -6 13 -2T10 14Q10 25 11 30T16 39Q19 41 24 41T33 43Q38 43 42 43T51 47Q56 50 59 56T70 76Q76 88 80 97T90 123Q98 138 109 165T139 244Q323 726 413 979T504 1264Q504 1282 509 1287T524 1294Q560 1297 598 1307Q602 1309 610 1309Q622 1309 625 1288Q630 1266 637 1235T657 1158T687 1046T734 887T800 670T889 383Q909 320 924 273T950 188Q972 120 987 88Q995 71 1001 63T1016 49Q1027 41 1036 42T1057 41Q1067 41 1067 18Q1067 7 1065 2T1051 -4H1028Q993 -2 955 -2T879 -2Q794 -2 756 -3T711 -4ZM322 539Q365 539 409 538T500 537Q551 537 601 538T702 539Q664 667 634 770T582 949T546 1070T528 1130L322 539ZM766 1675Q731 1644 707 1622T666 1584T635 1555T611 1532T587 1508T557 1479Q515 1440 504 1440Q496 1440 489 1444T481 1452L482 1453Q482 1454 482 1454T483 1456L485 1460Q493 1471 507 1493T540 1546T581 1611T627 1685Q635 1699 640 1708T651 1726Q656 1734 660 1740T668 1749Q674 1757 679 1758T694 1759Q699 1759 701 1759T711 1757Q719 1755 732 1753T768 1745Q793 1739 793 1720Q793 1709 787 1700T766 1675Z"  />
<glyph unicode="&#xC2;" horiz-adv-x="1077" d="M711 -4Q701 -4 697 0T692 16Q692 32 696 35T711 41Q729 43 744 43T772 45Q784 47 793 49T809 59Q821 75 821 98Q821 114 817 132T807 174Q797 210 784 254T759 341T736 421T719 481Q662 481 608 482T500 483Q450 483 402 482T303 481Q275 396 256 335T223 233Q220 222 215 206T206 172T198 135T195 100Q195 77 203 66Q210 55 227 50T264 43T303 41T334 39Q337 39 341 39T348 37Q352 33 352 18Q352 3 348 -1T332 -6Q288 -4 247 -2T162 0Q137 0 113 -1T63 -4L27 -6Q16 -6 13 -2T10 14Q10 25 11 30T16 39Q19 41 24 41T33 43Q38 43 42 43T51 47Q56 50 59 56T70 76Q76 88 80 97T90 123Q98 138 109 165T139 244Q323 726 413 979T504 1264Q504 1282 509 1287T524 1294Q560 1297 598 1307Q602 1309 610 1309Q622 1309 625 1288Q630 1266 637 1235T657 1158T687 1046T734 887T800 670T889 383Q909 320 924 273T950 188Q972 120 987 88Q995 71 1001 63T1016 49Q1027 41 1036 42T1057 41Q1067 41 1067 18Q1067 7 1065 2T1051 -4H1028Q993 -2 955 -2T879 -2Q794 -2 756 -3T711 -4ZM322 539Q365 539 409 538T500 537Q551 537 601 538T702 539Q664 667 634 770T582 949T546 1070T528 1130L322 539ZM735 1423Q733 1423 730 1424T723 1431L682 1472Q670 1484 649 1505T607 1548T570 1584T549 1599Q546 1599 543 1598T533 1590T514 1571T479 1536Q375 1425 365 1425Q360 1425 352 1434T344 1450Q346 1455 346 1457T348 1462Q353 1467 360 1478T383 1511Q395 1528 409 1550T437 1596T464 1641T486 1681Q501 1709 510 1725T526 1749T538 1759T551 1761Q557 1761 562 1760T574 1751Q577 1746 580 1741T588 1726Q593 1718 599 1708T613 1685Q658 1607 689 1554T744 1466Q752 1455 752 1444Q752 1438 746 1431T735 1423Z"  />
<glyph unicode="&#xC3;" horiz-adv-x="1077" d="M711 -4Q701 -4 697 0T692 16Q692 32 696 35T711 41Q729 43 744 43T772 45Q784 47 793 49T809 59Q821 75 821 98Q821 114 817 132T807 174Q797 210 784 254T759 341T736 421T719 481Q662 481 608 482T500 483Q450 483 402 482T303 481Q275 396 256 335T223 233Q220 222 215 206T206 172T198 135T195 100Q195 77 203 66Q210 55 227 50T264 43T303 41T334 39Q337 39 341 39T348 37Q352 33 352 18Q352 3 348 -1T332 -6Q288 -4 247 -2T162 0Q137 0 113 -1T63 -4L27 -6Q16 -6 13 -2T10 14Q10 25 11 30T16 39Q19 41 24 41T33 43Q38 43 42 43T51 47Q56 50 59 56T70 76Q76 88 80 97T90 123Q98 138 109 165T139 244Q323 726 413 979T504 1264Q504 1282 509 1287T524 1294Q560 1297 598 1307Q602 1309 610 1309Q622 1309 625 1288Q630 1266 637 1235T657 1158T687 1046T734 887T800 670T889 383Q909 320 924 273T950 188Q972 120 987 88Q995 71 1001 63T1016 49Q1027 41 1036 42T1057 41Q1067 41 1067 18Q1067 7 1065 2T1051 -4H1028Q993 -2 955 -2T879 -2Q794 -2 756 -3T711 -4ZM322 539Q365 539 409 538T500 537Q551 537 601 538T702 539Q664 667 634 770T582 949T546 1070T528 1130L322 539ZM774 1604Q706 1483 641 1483Q618 1483 592 1494T528 1532Q509 1546 496 1554T473 1567T454 1573T434 1575Q416 1575 401 1569T374 1552T352 1529T332 1503Q325 1489 320 1489Q315 1489 307 1493T299 1505V1509Q299 1510 302 1517T310 1534T320 1556T332 1577Q363 1636 391 1659T457 1683Q478 1683 503 1674T563 1638Q598 1612 618 1603T662 1593Q677 1593 689 1596T713 1608T738 1630T768 1667Q773 1673 775 1676T780 1679Q783 1679 792 1676T801 1663Q801 1657 792 1641T774 1604Z"  />
<glyph unicode="&#xC4;" horiz-adv-x="1077" d="M711 -4Q701 -4 697 0T692 16Q692 32 696 35T711 41Q729 43 744 43T772 45Q784 47 793 49T809 59Q821 75 821 98Q821 114 817 132T807 174Q797 210 784 254T759 341T736 421T719 481Q662 481 608 482T500 483Q450 483 402 482T303 481Q275 396 256 335T223 233Q220 222 215 206T206 172T198 135T195 100Q195 77 203 66Q210 55 227 50T264 43T303 41T334 39Q337 39 341 39T348 37Q352 33 352 18Q352 3 348 -1T332 -6Q288 -4 247 -2T162 0Q137 0 113 -1T63 -4L27 -6Q16 -6 13 -2T10 14Q10 25 11 30T16 39Q19 41 24 41T33 43Q38 43 42 43T51 47Q56 50 59 56T70 76Q76 88 80 97T90 123Q98 138 109 165T139 244Q323 726 413 979T504 1264Q504 1282 509 1287T524 1294Q560 1297 598 1307Q602 1309 610 1309Q622 1309 625 1288Q630 1266 637 1235T657 1158T687 1046T734 887T800 670T889 383Q909 320 924 273T950 188Q972 120 987 88Q995 71 1001 63T1016 49Q1027 41 1036 42T1057 41Q1067 41 1067 18Q1067 7 1065 2T1051 -4H1028Q993 -2 955 -2T879 -2Q794 -2 756 -3T711 -4ZM322 539Q365 539 409 538T500 537Q551 537 601 538T702 539Q664 667 634 770T582 949T546 1070T528 1130L322 539ZM699 1472Q684 1472 670 1478T646 1495T629 1519T623 1548Q623 1579 645 1602T699 1626Q712 1626 725 1620T748 1602T764 1578T770 1550Q770 1535 764 1521T748 1496T725 1479T699 1472ZM389 1472Q375 1472 362 1478T340 1495T324 1519T318 1548Q318 1563 324 1577T340 1602T363 1619T391 1626Q405 1626 418 1620T441 1602T458 1578T465 1550Q465 1535 459 1521T442 1496T418 1479T389 1472Z"  />
<glyph unicode="&#xC5;" horiz-adv-x="1077" d="M711 -4Q701 -4 697 0T692 16Q692 32 696 35T711 41Q729 43 744 43T772 45Q784 47 793 49T809 59Q821 75 821 98Q821 114 817 132T807 174Q797 210 784 254T759 341T736 421T719 481Q662 481 608 482T500 483Q450 483 402 482T303 481Q275 396 256 335T223 233Q220 222 215 206T206 172T198 135T195 100Q195 77 203 66Q210 55 227 50T264 43T303 41T334 39Q337 39 341 39T348 37Q352 33 352 18Q352 3 348 -1T332 -6Q288 -4 247 -2T162 0Q137 0 113 -1T63 -4L27 -6Q16 -6 13 -2T10 14Q10 25 11 30T16 39Q19 41 24 41T33 43Q38 43 42 43T51 47Q56 50 59 56T70 76Q76 88 80 97T90 123Q98 138 109 165T139 244Q323 726 413 979T504 1264Q504 1282 509 1287T524 1294Q560 1297 598 1307Q602 1309 610 1309Q622 1309 625 1288Q630 1266 637 1235T657 1158T687 1046T734 887T800 670T889 383Q909 320 924 273T950 188Q972 120 987 88Q995 71 1001 63T1016 49Q1027 41 1036 42T1057 41Q1067 41 1067 18Q1067 7 1065 2T1051 -4H1028Q993 -2 955 -2T879 -2Q794 -2 756 -3T711 -4ZM322 539Q365 539 409 538T500 537Q551 537 601 538T702 539Q664 667 634 770T582 949T546 1070T528 1130L322 539ZM563 1704Q526 1704 502 1673T477 1591Q477 1539 501 1508T563 1477Q601 1477 626 1508T651 1591Q651 1642 626 1673T563 1704ZM563 1423Q529 1423 501 1435T452 1470T420 1524T408 1591Q408 1627 420 1657T453 1710T503 1744T567 1757Q599 1757 627 1744T676 1709T709 1656T721 1591Q721 1555 709 1524T676 1471T626 1436T563 1423Z"  />
<glyph unicode="&#xC6;" horiz-adv-x="1491" d="M1401 315Q1401 308 1398 284T1388 227T1375 158T1362 89T1350 34T1341 6Q1338 -2 1334 -5T1321 -8Q1233 -3 1145 -2T969 0Q884 0 799 0T629 -4Q613 -4 597 -6T565 -8Q553 -8 550 -3T547 16Q547 34 560 37T591 41T630 46T666 70Q674 80 679 111T686 185T689 273T690 360V524L348 522Q338 500 322 466T287 393T249 311T214 230T188 161T178 113Q178 95 185 83T203 63T228 52T256 47Q271 46 279 45T292 42T296 38T297 31V16Q297 8 295 2T287 -4Q276 -4 238 -2T139 0Q110 0 89 0T50 -1T18 -1T-12 -2Q-22 -2 -27 -1T-33 12Q-33 37 -27 37Q-17 39 -1 50T29 78Q61 120 86 167T137 260Q177 334 217 407T295 555Q305 573 324 609T368 693T422 794T480 904T535 1011T582 1107T615 1180T627 1221Q627 1237 620 1244T602 1253T579 1255T555 1257Q547 1259 545 1261T543 1270V1278Q543 1290 545 1297T561 1305Q569 1305 575 1304T590 1303Q693 1299 796 1298T1004 1296Q1079 1296 1153 1297T1303 1303Q1314 1303 1324 1304T1346 1305Q1366 1305 1366 1286V1280Q1348 1166 1348 1053Q1348 1049 1348 1041T1348 1025T1346 1010T1343 999Q1341 993 1338 992T1329 991H1321Q1305 991 1303 999T1300 1020Q1299 1038 1298 1061T1292 1108T1281 1153T1262 1190Q1245 1210 1186 1221T1020 1233Q954 1233 913 1233T854 1227Q837 1222 833 1214T829 1194Q827 1146 826 1098T825 989V711Q841 711 871 710T938 709Q975 709 1015 710T1090 716T1153 728T1192 748Q1207 763 1213 783T1223 822T1227 857T1233 879Q1236 882 1242 882T1253 883Q1274 883 1274 864Q1274 807 1269 750T1264 635Q1264 598 1267 562T1270 487Q1270 470 1265 467T1243 463Q1231 463 1228 468T1223 485Q1221 502 1219 519T1212 553T1201 585T1182 614Q1172 626 1161 632T1129 643T1073 648T977 649H825Q825 399 831 152Q831 138 832 123T842 94Q847 84 859 78T888 69T923 64T958 63H1006Q1031 63 1065 63T1136 68T1205 81T1260 106Q1277 118 1291 140T1316 186T1335 236T1350 281Q1351 283 1352 290T1356 306T1359 320T1362 328Q1369 338 1376 338Q1401 338 1401 315ZM690 1075V1110Q690 1132 689 1153T682 1196Q674 1182 668 1170T655 1143Q586 1002 517 864T379 586Q435 584 489 584T600 584H690V1075Z"  />
<glyph unicode="&#xC7;" horiz-adv-x="1124" d="M1051 1284Q1051 1273 1048 1260T1042 1235Q1030 1163 1025 1096T1016 971Q1016 955 1012 951T993 946Q976 946 973 952Q971 954 971 963Q970 984 969 1014T962 1077T948 1139T924 1188Q909 1205 883 1218T824 1241T752 1255T676 1260Q578 1260 499 1216T363 1093T277 903T246 662Q246 522 277 407T366 209T505 81T686 35Q792 35 871 76T999 219Q1005 229 1012 229Q1020 229 1028 225Q1034 222 1037 220T1040 213Q1040 208 1039 204T1036 195Q1030 173 1023 153T1010 115Q1005 99 1001 84T993 53Q988 35 986 30T977 20L958 12Q939 4 910 -3T846 -15T771 -22T688 -25H680Q675 -36 668 -50T655 -78T645 -100T641 -113Q641 -126 658 -138T697 -170T736 -216T754 -285Q754 -317 740 -350T703 -411T649 -455T584 -473Q569 -473 552 -469T519 -456T495 -434T485 -401Q485 -394 488 -385T497 -367T510 -354T526 -348Q538 -348 549 -354T572 -367T596 -381T623 -387Q647 -387 660 -373T674 -334Q674 -300 654 -279T611 -243T567 -213T547 -180Q547 -176 556 -158T579 -115T608 -65T633 -23Q530 -16 449 13T305 98Q257 140 220 199T157 329T118 480T104 645Q104 786 142 910T256 1125T443 1270T700 1323Q747 1323 785 1320T858 1311Q892 1306 920 1300T973 1290Q978 1288 985 1287T999 1286Q1004 1286 1007 1286T1018 1292Q1027 1298 1032 1298Q1051 1298 1051 1284Z"  />
<glyph unicode="&#xC8;" horiz-adv-x="1034" d="M934 240Q929 214 922 177T903 92Q897 55 893 36T885 6Q882 -3 877 -5T864 -8L795 -4Q780 -3 750 -3T679 -2T590 -1T489 0Q413 0 348 -1T233 -3T151 -5T109 -6Q98 -6 94 -3T90 16Q90 31 94 35Q97 38 102 38T111 39Q126 41 141 42T168 45Q180 48 190 53T209 70Q226 90 229 184Q232 232 232 299T233 457V672V817Q233 930 233 1005T229 1128Q227 1176 223 1201T207 1235Q201 1243 192 1246T170 1251Q156 1253 142 1254T109 1255Q101 1257 98 1259T92 1270V1280Q92 1294 95 1298T113 1303H133Q197 1301 254 1300T362 1298T462 1297T557 1296Q626 1296 695 1297T846 1303L889 1305Q901 1305 905 1300T909 1286V1280Q898 1220 896 1167T891 1053Q891 1040 891 1032T889 1018Q889 1004 887 999Q884 991 874 991H866Q851 991 848 998T844 1020Q842 1092 831 1132T805 1190Q786 1213 730 1223T563 1233Q541 1233 515 1233T466 1232T424 1230T397 1227Q389 1225 384 1221T375 1198T371 1138T369 1026V711H385Q475 711 536 712T638 716T701 727T735 748Q745 758 751 770T760 795T766 823T770 850Q770 855 771 864T776 879Q779 882 784 882T797 883Q817 880 817 868Q817 855 816 836T812 789T809 723T807 635Q807 615 807 598T808 563T810 528T813 487Q813 476 809 470T786 463Q775 463 772 467T766 485Q766 487 766 489T765 495Q764 499 764 502Q759 544 751 569T725 612Q701 644 621 647Q579 649 521 649T385 649H369Q369 565 369 487T371 342T373 227T375 152Q376 121 380 104T402 77T454 66T549 63Q650 63 710 73T803 106Q816 116 829 134T853 175T875 225T893 281Q896 292 898 300T905 328Q907 338 915 338Q917 338 922 338T930 336Q941 333 942 328T944 315Q944 300 942 284T934 240ZM600 1444Q595 1444 583 1452T551 1481L342 1677Q326 1691 321 1701T315 1720Q315 1735 336 1741Q364 1749 384 1753T412 1757Q423 1757 429 1754T444 1735Q467 1699 489 1663T532 1591Q548 1564 559 1546T580 1514T597 1486T616 1458L618 1454Q618 1448 611 1446T600 1444Z"  />
<glyph unicode="&#xC9;" horiz-adv-x="1034" d="M934 240Q929 214 922 177T903 92Q897 55 893 36T885 6Q882 -3 877 -5T864 -8L795 -4Q780 -3 750 -3T679 -2T590 -1T489 0Q413 0 348 -1T233 -3T151 -5T109 -6Q98 -6 94 -3T90 16Q90 31 94 35Q97 38 102 38T111 39Q126 41 141 42T168 45Q180 48 190 53T209 70Q226 90 229 184Q232 232 232 299T233 457V672V817Q233 930 233 1005T229 1128Q227 1176 223 1201T207 1235Q201 1243 192 1246T170 1251Q156 1253 142 1254T109 1255Q101 1257 98 1259T92 1270V1280Q92 1294 95 1298T113 1303H133Q197 1301 254 1300T362 1298T462 1297T557 1296Q626 1296 695 1297T846 1303L889 1305Q901 1305 905 1300T909 1286V1280Q898 1220 896 1167T891 1053Q891 1040 891 1032T889 1018Q889 1004 887 999Q884 991 874 991H866Q851 991 848 998T844 1020Q842 1092 831 1132T805 1190Q786 1213 730 1223T563 1233Q541 1233 515 1233T466 1232T424 1230T397 1227Q389 1225 384 1221T375 1198T371 1138T369 1026V711H385Q475 711 536 712T638 716T701 727T735 748Q745 758 751 770T760 795T766 823T770 850Q770 855 771 864T776 879Q779 882 784 882T797 883Q817 880 817 868Q817 855 816 836T812 789T809 723T807 635Q807 615 807 598T808 563T810 528T813 487Q813 476 809 470T786 463Q775 463 772 467T766 485Q766 487 766 489T765 495Q764 499 764 502Q759 544 751 569T725 612Q701 644 621 647Q579 649 521 649T385 649H369Q369 565 369 487T371 342T373 227T375 152Q376 121 380 104T402 77T454 66T549 63Q650 63 710 73T803 106Q816 116 829 134T853 175T875 225T893 281Q896 292 898 300T905 328Q907 338 915 338Q917 338 922 338T930 336Q941 333 942 328T944 315Q944 300 942 284T934 240ZM725 1675Q690 1644 666 1622T625 1584T594 1555T570 1532T546 1508T516 1479Q474 1440 463 1440Q455 1440 448 1444T440 1452L441 1453Q441 1454 441 1454T442 1456L444 1460Q452 1471 466 1493T499 1546T540 1611T586 1685Q594 1699 599 1708T610 1726Q615 1734 619 1740T627 1749Q633 1757 638 1758T653 1759Q658 1759 660 1759T670 1757Q678 1755 691 1753T727 1745Q752 1739 752 1720Q752 1709 746 1700T725 1675Z"  />
<glyph unicode="&#xCA;" horiz-adv-x="1034" d="M934 240Q929 214 922 177T903 92Q897 55 893 36T885 6Q882 -3 877 -5T864 -8L795 -4Q780 -3 750 -3T679 -2T590 -1T489 0Q413 0 348 -1T233 -3T151 -5T109 -6Q98 -6 94 -3T90 16Q90 31 94 35Q97 38 102 38T111 39Q126 41 141 42T168 45Q180 48 190 53T209 70Q226 90 229 184Q232 232 232 299T233 457V672V817Q233 930 233 1005T229 1128Q227 1176 223 1201T207 1235Q201 1243 192 1246T170 1251Q156 1253 142 1254T109 1255Q101 1257 98 1259T92 1270V1280Q92 1294 95 1298T113 1303H133Q197 1301 254 1300T362 1298T462 1297T557 1296Q626 1296 695 1297T846 1303L889 1305Q901 1305 905 1300T909 1286V1280Q898 1220 896 1167T891 1053Q891 1040 891 1032T889 1018Q889 1004 887 999Q884 991 874 991H866Q851 991 848 998T844 1020Q842 1092 831 1132T805 1190Q786 1213 730 1223T563 1233Q541 1233 515 1233T466 1232T424 1230T397 1227Q389 1225 384 1221T375 1198T371 1138T369 1026V711H385Q475 711 536 712T638 716T701 727T735 748Q745 758 751 770T760 795T766 823T770 850Q770 855 771 864T776 879Q779 882 784 882T797 883Q817 880 817 868Q817 855 816 836T812 789T809 723T807 635Q807 615 807 598T808 563T810 528T813 487Q813 476 809 470T786 463Q775 463 772 467T766 485Q766 487 766 489T765 495Q764 499 764 502Q759 544 751 569T725 612Q701 644 621 647Q579 649 521 649T385 649H369Q369 565 369 487T371 342T373 227T375 152Q376 121 380 104T402 77T454 66T549 63Q650 63 710 73T803 106Q816 116 829 134T853 175T875 225T893 281Q896 292 898 300T905 328Q907 338 915 338Q917 338 922 338T930 336Q941 333 942 328T944 315Q944 300 942 284T934 240ZM714 1423Q712 1423 709 1424T702 1431L661 1472Q649 1484 628 1505T586 1548T549 1584T528 1599Q525 1599 522 1598T512 1590T493 1571T458 1536Q354 1425 344 1425Q339 1425 331 1434T323 1450Q325 1455 325 1457T327 1462Q332 1467 339 1478T362 1511Q374 1528 388 1550T416 1596T443 1641T465 1681Q480 1709 489 1725T505 1749T517 1759T530 1761Q536 1761 541 1760T553 1751Q556 1746 559 1741T567 1726Q572 1718 578 1708T592 1685Q637 1607 668 1554T723 1466Q731 1455 731 1444Q731 1438 725 1431T714 1423Z"  />
<glyph unicode="&#xCB;" horiz-adv-x="1034" d="M934 240Q929 214 922 177T903 92Q897 55 893 36T885 6Q882 -3 877 -5T864 -8L795 -4Q780 -3 750 -3T679 -2T590 -1T489 0Q413 0 348 -1T233 -3T151 -5T109 -6Q98 -6 94 -3T90 16Q90 31 94 35Q97 38 102 38T111 39Q126 41 141 42T168 45Q180 48 190 53T209 70Q226 90 229 184Q232 232 232 299T233 457V672V817Q233 930 233 1005T229 1128Q227 1176 223 1201T207 1235Q201 1243 192 1246T170 1251Q156 1253 142 1254T109 1255Q101 1257 98 1259T92 1270V1280Q92 1294 95 1298T113 1303H133Q197 1301 254 1300T362 1298T462 1297T557 1296Q626 1296 695 1297T846 1303L889 1305Q901 1305 905 1300T909 1286V1280Q898 1220 896 1167T891 1053Q891 1040 891 1032T889 1018Q889 1004 887 999Q884 991 874 991H866Q851 991 848 998T844 1020Q842 1092 831 1132T805 1190Q786 1213 730 1223T563 1233Q541 1233 515 1233T466 1232T424 1230T397 1227Q389 1225 384 1221T375 1198T371 1138T369 1026V711H385Q475 711 536 712T638 716T701 727T735 748Q745 758 751 770T760 795T766 823T770 850Q770 855 771 864T776 879Q779 882 784 882T797 883Q817 880 817 868Q817 855 816 836T812 789T809 723T807 635Q807 615 807 598T808 563T810 528T813 487Q813 476 809 470T786 463Q775 463 772 467T766 485Q766 487 766 489T765 495Q764 499 764 502Q759 544 751 569T725 612Q701 644 621 647Q579 649 521 649T385 649H369Q369 565 369 487T371 342T373 227T375 152Q376 121 380 104T402 77T454 66T549 63Q650 63 710 73T803 106Q816 116 829 134T853 175T875 225T893 281Q896 292 898 300T905 328Q907 338 915 338Q917 338 922 338T930 336Q941 333 942 328T944 315Q944 300 942 284T934 240ZM674 1472Q659 1472 645 1478T621 1495T604 1519T598 1548Q598 1579 620 1602T674 1626Q687 1626 700 1620T723 1602T739 1578T745 1550Q745 1535 739 1521T723 1496T700 1479T674 1472ZM364 1472Q350 1472 337 1478T315 1495T299 1519T293 1548Q293 1563 299 1577T315 1602T338 1619T366 1626Q380 1626 393 1620T416 1602T433 1578T440 1550Q440 1535 434 1521T417 1496T393 1479T364 1472Z"  />
<glyph unicode="&#xCC;" horiz-adv-x="608" d="M479 -4Q461 -3 435 -3T380 -2T318 -1T254 0Q214 0 178 -1T117 -4Q108 -5 100 -5Q93 -6 87 -6T78 -6Q75 -6 70 -6T61 -4Q59 -1 58 3T57 16Q57 31 63 37Q67 39 71 39T78 39Q103 41 119 41T150 45Q162 48 170 53T190 68Q204 82 212 111T224 192T230 323T231 518V891Q231 974 231 1032T227 1128Q224 1169 219 1191T203 1227Q195 1236 185 1241T160 1249Q144 1252 127 1253T86 1257Q78 1257 73 1258T66 1264Q62 1267 62 1273T61 1284Q61 1296 65 1299T80 1303H96Q171 1299 225 1299T328 1298Q366 1298 402 1298T481 1300Q489 1300 498 1301Q506 1302 514 1302T528 1303H532Q542 1303 545 1301T549 1284Q549 1270 547 1264T530 1257Q526 1255 512 1255Q469 1252 442 1248T399 1225Q384 1206 378 1170T369 1071Q367 1039 367 1001T367 915V686V422Q367 341 367 284T371 176Q374 136 377 113T389 74Q397 60 408 53T436 43Q453 41 474 41T524 41H537Q541 39 545 39Q551 33 551 16Q551 1 547 -2T530 -6L479 -4ZM356 1444Q351 1444 339 1452T307 1481L98 1677Q82 1691 77 1701T71 1720Q71 1735 92 1741Q120 1749 140 1753T168 1757Q179 1757 185 1754T200 1735Q223 1699 245 1663T288 1591Q304 1564 315 1546T336 1514T353 1486T372 1458L374 1454Q374 1448 367 1446T356 1444Z"  />
<glyph unicode="&#xCD;" horiz-adv-x="608" d="M479 -4Q461 -3 435 -3T380 -2T318 -1T254 0Q214 0 178 -1T117 -4Q108 -5 100 -5Q93 -6 87 -6T78 -6Q75 -6 70 -6T61 -4Q59 -1 58 3T57 16Q57 31 63 37Q67 39 71 39T78 39Q103 41 119 41T150 45Q162 48 170 53T190 68Q204 82 212 111T224 192T230 323T231 518V891Q231 974 231 1032T227 1128Q224 1169 219 1191T203 1227Q195 1236 185 1241T160 1249Q144 1252 127 1253T86 1257Q78 1257 73 1258T66 1264Q62 1267 62 1273T61 1284Q61 1296 65 1299T80 1303H96Q171 1299 225 1299T328 1298Q366 1298 402 1298T481 1300Q489 1300 498 1301Q506 1302 514 1302T528 1303H532Q542 1303 545 1301T549 1284Q549 1270 547 1264T530 1257Q526 1255 512 1255Q469 1252 442 1248T399 1225Q384 1206 378 1170T369 1071Q367 1039 367 1001T367 915V686V422Q367 341 367 284T371 176Q374 136 377 113T389 74Q397 60 408 53T436 43Q453 41 474 41T524 41H537Q541 39 545 39Q551 33 551 16Q551 1 547 -2T530 -6L479 -4ZM522 1675Q487 1644 463 1622T422 1584T391 1555T367 1532T343 1508T313 1479Q271 1440 260 1440Q252 1440 245 1444T237 1452L238 1453Q238 1454 238 1454T239 1456L241 1460Q249 1471 263 1493T296 1546T337 1611T383 1685Q391 1699 396 1708T407 1726Q412 1734 416 1740T424 1749Q430 1757 435 1758T450 1759Q455 1759 457 1759T467 1757Q475 1755 488 1753T524 1745Q549 1739 549 1720Q549 1709 543 1700T522 1675Z"  />
<glyph unicode="&#xCE;" horiz-adv-x="608" d="M479 -4Q461 -3 435 -3T380 -2T318 -1T254 0Q214 0 178 -1T117 -4Q108 -5 100 -5Q93 -6 87 -6T78 -6Q75 -6 70 -6T61 -4Q59 -1 58 3T57 16Q57 31 63 37Q67 39 71 39T78 39Q103 41 119 41T150 45Q162 48 170 53T190 68Q204 82 212 111T224 192T230 323T231 518V891Q231 974 231 1032T227 1128Q224 1169 219 1191T203 1227Q195 1236 185 1241T160 1249Q144 1252 127 1253T86 1257Q78 1257 73 1258T66 1264Q62 1267 62 1273T61 1284Q61 1296 65 1299T80 1303H96Q171 1299 225 1299T328 1298Q366 1298 402 1298T481 1300Q489 1300 498 1301Q506 1302 514 1302T528 1303H532Q542 1303 545 1301T549 1284Q549 1270 547 1264T530 1257Q526 1255 512 1255Q469 1252 442 1248T399 1225Q384 1206 378 1170T369 1071Q367 1039 367 1001T367 915V686V422Q367 341 367 284T371 176Q374 136 377 113T389 74Q397 60 408 53T436 43Q453 41 474 41T524 41H537Q541 39 545 39Q551 33 551 16Q551 1 547 -2T530 -6L479 -4ZM491 1423Q489 1423 486 1424T479 1431L438 1472Q426 1484 405 1505T363 1548T326 1584T305 1599Q302 1599 299 1598T289 1590T270 1571T235 1536Q131 1425 121 1425Q116 1425 108 1434T100 1450Q102 1455 102 1457T104 1462Q109 1467 116 1478T139 1511Q151 1528 165 1550T193 1596T220 1641T242 1681Q257 1709 266 1725T282 1749T294 1759T307 1761Q313 1761 318 1760T330 1751Q333 1746 336 1741T344 1726Q349 1718 355 1708T369 1685Q414 1607 445 1554T500 1466Q508 1455 508 1444Q508 1438 502 1431T491 1423Z"  />
<glyph unicode="&#xCF;" horiz-adv-x="608" d="M479 -4Q461 -3 435 -3T380 -2T318 -1T254 0Q214 0 178 -1T117 -4Q108 -5 100 -5Q93 -6 87 -6T78 -6Q75 -6 70 -6T61 -4Q59 -1 58 3T57 16Q57 31 63 37Q67 39 71 39T78 39Q103 41 119 41T150 45Q162 48 170 53T190 68Q204 82 212 111T224 192T230 323T231 518V891Q231 974 231 1032T227 1128Q224 1169 219 1191T203 1227Q195 1236 185 1241T160 1249Q144 1252 127 1253T86 1257Q78 1257 73 1258T66 1264Q62 1267 62 1273T61 1284Q61 1296 65 1299T80 1303H96Q171 1299 225 1299T328 1298Q366 1298 402 1298T481 1300Q489 1300 498 1301Q506 1302 514 1302T528 1303H532Q542 1303 545 1301T549 1284Q549 1270 547 1264T530 1257Q526 1255 512 1255Q469 1252 442 1248T399 1225Q384 1206 378 1170T369 1071Q367 1039 367 1001T367 915V686V422Q367 341 367 284T371 176Q374 136 377 113T389 74Q397 60 408 53T436 43Q453 41 474 41T524 41H537Q541 39 545 39Q551 33 551 16Q551 1 547 -2T530 -6L479 -4ZM451 1472Q436 1472 422 1478T398 1495T381 1519T375 1548Q375 1579 397 1602T451 1626Q464 1626 477 1620T500 1602T516 1578T522 1550Q522 1535 516 1521T500 1496T477 1479T451 1472ZM141 1472Q127 1472 114 1478T92 1495T76 1519T70 1548Q70 1563 76 1577T92 1602T115 1619T143 1626Q157 1626 170 1620T193 1602T210 1578T217 1550Q217 1535 211 1521T194 1496T170 1479T141 1472Z"  />
<glyph unicode="&#xD0;" horiz-adv-x="1317" d="M979 121Q933 84 881 60T770 20T649 -1T518 -8Q484 -8 453 -7T391 -5T328 -2T260 0Q203 0 165 -2T115 -4Q104 -4 97 -2T90 18Q90 32 94 35T113 41Q122 42 134 43T158 47T181 55T199 68Q206 77 212 92T222 145T229 247T231 422V625H70V702H231V993Q231 1099 226 1155T205 1231Q192 1245 181 1248T152 1253Q145 1253 138 1254T121 1255Q116 1255 108 1255T96 1260Q93 1263 93 1267T92 1280Q92 1295 96 1299T111 1303L193 1300Q213 1300 231 1299T266 1298Q317 1298 357 1300T438 1305T521 1310T618 1313Q712 1313 799 1292T952 1231Q1011 1195 1059 1137T1142 1006T1195 848T1214 672Q1214 589 1198 510T1152 359T1078 227T979 121ZM578 1257Q511 1257 473 1253T412 1237Q402 1230 395 1221T382 1192T374 1138T370 1046T368 905T367 702H711V625H367Q367 483 367 391T369 243T373 159T379 115Q384 94 395 81T426 60T473 50T541 47Q672 47 771 91T937 216T1037 408T1071 655Q1071 726 1061 798T1029 937T969 1062T877 1163T748 1231T578 1257Z"  />
<glyph unicode="&#xD1;" horiz-adv-x="1311" d="M1260 1260Q1246 1256 1232 1256T1204 1253Q1190 1250 1177 1245T1149 1225Q1134 1210 1126 1174T1112 1072T1105 907T1100 668Q1098 590 1098 515T1098 365Q1098 235 1099 152T1108 29L1110 14Q1110 11 1111 9T1112 4Q1110 -7 1100 -16T1079 -25Q1071 -25 1068 -21T1053 0Q1049 5 1045 12T1037 26Q1033 33 1028 41Q947 174 857 304T673 562T488 819T311 1079L307 1085Q307 1062 308 1031T309 977Q311 853 312 714T313 434Q313 287 318 203T346 84Q363 59 393 51T471 41H489Q494 39 498 39T506 37Q510 35 510 18Q510 0 506 -2Q502 -6 489 -6Q486 -6 482 -5T473 -4Q417 -2 369 -1T272 0Q237 0 201 0T123 -4L76 -6Q68 -6 63 -3T57 14Q57 28 60 32T76 39Q84 39 88 40Q91 40 94 41Q120 44 143 51T180 78Q198 100 208 145T225 271T233 476T238 780L240 903V1034V1085Q238 1121 231 1150T209 1208Q200 1224 186 1233T155 1247T119 1253T82 1255Q70 1257 66 1261T61 1280Q61 1288 62 1295T72 1303H82H106H117Q149 1301 179 1301T238 1300Q250 1300 264 1300T305 1303Q310 1303 315 1302T324 1296Q327 1291 334 1278T344 1260Q509 1009 680 767T1028 281L1026 672Q1025 813 1024 910T1019 1072T1005 1174T981 1229Q958 1255 864 1255Q850 1255 845 1258T840 1278Q840 1293 842 1299T858 1305Q875 1305 926 1302T1059 1298Q1130 1298 1178 1300T1243 1303H1266Q1274 1303 1276 1300Q1278 1298 1278 1282Q1278 1267 1275 1265T1260 1260ZM885 1604Q817 1483 752 1483Q729 1483 703 1494T639 1532Q620 1546 607 1554T584 1567T565 1573T545 1575Q527 1575 512 1569T485 1552T463 1529T443 1503Q436 1489 431 1489Q426 1489 418 1493T410 1505V1509Q410 1510 413 1517T421 1534T431 1556T443 1577Q474 1636 502 1659T568 1683Q589 1683 614 1674T674 1638Q709 1612 729 1603T773 1593Q788 1593 800 1596T824 1608T849 1630T879 1667Q884 1673 886 1676T891 1679Q894 1679 903 1676T912 1663Q912 1657 903 1641T885 1604Z"  />
<glyph unicode="&#xD2;" horiz-adv-x="1315" d="M645 -25Q527 -25 428 25T256 164T144 375T104 641Q104 788 146 913T265 1129T445 1271T674 1323Q790 1323 888 1273T1057 1133T1169 921T1210 653Q1210 507 1168 383T1050 168T871 26T645 -25ZM616 1257Q534 1257 466 1217T349 1103T273 924T246 690Q246 549 279 430T372 225T513 91T692 43Q771 43 839 79T956 180Q1012 251 1040 355T1069 592Q1069 741 1037 863T945 1073T802 1209T616 1257ZM723 1444Q718 1444 706 1452T674 1481L465 1677Q449 1691 444 1701T438 1720Q438 1735 459 1741Q487 1749 507 1753T535 1757Q546 1757 552 1754T567 1735Q590 1699 612 1663T655 1591Q671 1564 682 1546T703 1514T720 1486T739 1458L741 1454Q741 1448 734 1446T723 1444Z"  />
<glyph unicode="&#xD3;" horiz-adv-x="1315" d="M645 -25Q527 -25 428 25T256 164T144 375T104 641Q104 788 146 913T265 1129T445 1271T674 1323Q790 1323 888 1273T1057 1133T1169 921T1210 653Q1210 507 1168 383T1050 168T871 26T645 -25ZM616 1257Q534 1257 466 1217T349 1103T273 924T246 690Q246 549 279 430T372 225T513 91T692 43Q771 43 839 79T956 180Q1012 251 1040 355T1069 592Q1069 741 1037 863T945 1073T802 1209T616 1257ZM889 1675Q854 1644 830 1622T789 1584T758 1555T734 1532T710 1508T680 1479Q638 1440 627 1440Q619 1440 612 1444T604 1452L605 1453Q605 1454 605 1454T606 1456L608 1460Q616 1471 630 1493T663 1546T704 1611T750 1685Q758 1699 763 1708T774 1726Q779 1734 783 1740T791 1749Q797 1757 802 1758T817 1759Q822 1759 824 1759T834 1757Q842 1755 855 1753T891 1745Q916 1739 916 1720Q916 1709 910 1700T889 1675Z"  />
<glyph unicode="&#xD4;" horiz-adv-x="1315" d="M645 -25Q527 -25 428 25T256 164T144 375T104 641Q104 788 146 913T265 1129T445 1271T674 1323Q790 1323 888 1273T1057 1133T1169 921T1210 653Q1210 507 1168 383T1050 168T871 26T645 -25ZM616 1257Q534 1257 466 1217T349 1103T273 924T246 690Q246 549 279 430T372 225T513 91T692 43Q771 43 839 79T956 180Q1012 251 1040 355T1069 592Q1069 741 1037 863T945 1073T802 1209T616 1257ZM847 1423Q845 1423 842 1424T835 1431L794 1472Q782 1484 761 1505T719 1548T682 1584T661 1599Q658 1599 655 1598T645 1590T626 1571T591 1536Q487 1425 477 1425Q472 1425 464 1434T456 1450Q458 1455 458 1457T460 1462Q465 1467 472 1478T495 1511Q507 1528 521 1550T549 1596T576 1641T598 1681Q613 1709 622 1725T638 1749T650 1759T663 1761Q669 1761 674 1760T686 1751Q689 1746 692 1741T700 1726Q705 1718 711 1708T725 1685Q770 1607 801 1554T856 1466Q864 1455 864 1444Q864 1438 858 1431T847 1423Z"  />
<glyph unicode="&#xD5;" horiz-adv-x="1315" d="M645 -25Q527 -25 428 25T256 164T144 375T104 641Q104 788 146 913T265 1129T445 1271T674 1323Q790 1323 888 1273T1057 1133T1169 921T1210 653Q1210 507 1168 383T1050 168T871 26T645 -25ZM616 1257Q534 1257 466 1217T349 1103T273 924T246 690Q246 549 279 430T372 225T513 91T692 43Q771 43 839 79T956 180Q1012 251 1040 355T1069 592Q1069 741 1037 863T945 1073T802 1209T616 1257ZM876 1604Q808 1483 743 1483Q720 1483 694 1494T630 1532Q611 1546 598 1554T575 1567T556 1573T536 1575Q518 1575 503 1569T476 1552T454 1529T434 1503Q427 1489 422 1489Q417 1489 409 1493T401 1505V1509Q401 1510 404 1517T412 1534T422 1556T434 1577Q465 1636 493 1659T559 1683Q580 1683 605 1674T665 1638Q700 1612 720 1603T764 1593Q779 1593 791 1596T815 1608T840 1630T870 1667Q875 1673 877 1676T882 1679Q885 1679 894 1676T903 1663Q903 1657 894 1641T876 1604Z"  />
<glyph unicode="&#xD6;" horiz-adv-x="1315" d="M645 -25Q527 -25 428 25T256 164T144 375T104 641Q104 788 146 913T265 1129T445 1271T674 1323Q790 1323 888 1273T1057 1133T1169 921T1210 653Q1210 507 1168 383T1050 168T871 26T645 -25ZM616 1257Q534 1257 466 1217T349 1103T273 924T246 690Q246 549 279 430T372 225T513 91T692 43Q771 43 839 79T956 180Q1012 251 1040 355T1069 592Q1069 741 1037 863T945 1073T802 1209T616 1257ZM807 1472Q792 1472 778 1478T754 1495T737 1519T731 1548Q731 1579 753 1602T807 1626Q820 1626 833 1620T856 1602T872 1578T878 1550Q878 1535 872 1521T856 1496T833 1479T807 1472ZM497 1472Q483 1472 470 1478T448 1495T432 1519T426 1548Q426 1563 432 1577T448 1602T471 1619T499 1626Q513 1626 526 1620T549 1602T566 1578T573 1550Q573 1535 567 1521T550 1496T526 1479T497 1472Z"  />
<glyph unicode="&#xD7;" horiz-adv-x="870" d="M682 334L434 582L188 334L123 399L369 647L123 895L188 961L434 713L684 956L748 897L500 647L748 401L682 334Z"  />
<glyph unicode="&#xD8;" horiz-adv-x="1315" d="M645 -25Q558 -25 483 2T342 80L227 -98Q219 -109 213 -109H141Q135 -109 135 -104Q135 -99 143 -88L285 131Q200 221 152 351T104 641Q104 788 146 913T265 1129T445 1271T674 1323Q764 1323 842 1293T987 1206L1102 1384Q1104 1388 1107 1388T1114 1389H1184Q1190 1389 1190 1384V1382Q1190 1380 1188 1378L1040 1153Q1121 1062 1165 935T1210 653Q1210 507 1168 383T1050 168T871 26T645 -25ZM616 1257Q534 1257 466 1217T349 1103T273 924T246 690Q246 556 275 443T358 244L920 1106Q861 1178 784 1217T616 1257ZM1069 592Q1069 726 1043 839T967 1038L408 178Q465 113 537 78T692 43Q771 43 839 79T956 180Q1012 251 1040 355T1069 592Z"  />
<glyph unicode="&#xD9;" horiz-adv-x="1208" d="M1161 1257Q1150 1255 1140 1254T1120 1251Q1103 1249 1092 1244T1069 1223Q1058 1207 1052 1177T1044 1096Q1042 1046 1040 976T1038 811Q1038 665 1038 572T1034 436Q1031 376 1021 319T991 209Q972 158 941 116T862 42T750 -7T598 -25Q473 -25 393 5T267 95T204 241T186 440Q186 564 188 689T190 954Q190 998 189 1033T188 1098Q186 1157 182 1189T168 1233Q160 1242 150 1245T131 1251Q117 1254 104 1254T74 1255Q57 1255 57 1270V1280Q57 1289 58 1296T70 1303Q85 1303 138 1300T289 1296Q326 1296 362 1297T446 1300L473 1303Q482 1303 485 1299T489 1280Q489 1266 483 1260Q480 1258 476 1258T467 1257Q450 1255 433 1255T399 1249Q384 1246 371 1239T350 1214Q342 1200 337 1168T328 1080T324 944T322 754V563Q322 454 327 370T350 238Q364 202 386 172T441 119T520 85T629 72Q692 72 739 83T822 114T882 163T922 227Q937 262 945 304T958 391Q962 436 963 483T965 578Q965 612 965 651T964 724Q963 764 963 803Q961 901 960 973T954 1094T944 1173T926 1217Q912 1237 892 1243T848 1253Q839 1255 827 1255T801 1257Q791 1257 789 1261T786 1280Q786 1303 801 1303Q816 1303 856 1301T975 1298Q1056 1298 1102 1300T1163 1303Q1173 1303 1174 1297T1176 1280Q1176 1269 1174 1263T1161 1257ZM682 1444Q677 1444 665 1452T633 1481L424 1677Q408 1691 403 1701T397 1720Q397 1735 418 1741Q446 1749 466 1753T494 1757Q505 1757 511 1754T526 1735Q549 1699 571 1663T614 1591Q630 1564 641 1546T662 1514T679 1486T698 1458L700 1454Q700 1448 693 1446T682 1444Z"  />
<glyph unicode="&#xDA;" horiz-adv-x="1208" d="M1161 1257Q1150 1255 1140 1254T1120 1251Q1103 1249 1092 1244T1069 1223Q1058 1207 1052 1177T1044 1096Q1042 1046 1040 976T1038 811Q1038 665 1038 572T1034 436Q1031 376 1021 319T991 209Q972 158 941 116T862 42T750 -7T598 -25Q473 -25 393 5T267 95T204 241T186 440Q186 564 188 689T190 954Q190 998 189 1033T188 1098Q186 1157 182 1189T168 1233Q160 1242 150 1245T131 1251Q117 1254 104 1254T74 1255Q57 1255 57 1270V1280Q57 1289 58 1296T70 1303Q85 1303 138 1300T289 1296Q326 1296 362 1297T446 1300L473 1303Q482 1303 485 1299T489 1280Q489 1266 483 1260Q480 1258 476 1258T467 1257Q450 1255 433 1255T399 1249Q384 1246 371 1239T350 1214Q342 1200 337 1168T328 1080T324 944T322 754V563Q322 454 327 370T350 238Q364 202 386 172T441 119T520 85T629 72Q692 72 739 83T822 114T882 163T922 227Q937 262 945 304T958 391Q962 436 963 483T965 578Q965 612 965 651T964 724Q963 764 963 803Q961 901 960 973T954 1094T944 1173T926 1217Q912 1237 892 1243T848 1253Q839 1255 827 1255T801 1257Q791 1257 789 1261T786 1280Q786 1303 801 1303Q816 1303 856 1301T975 1298Q1056 1298 1102 1300T1163 1303Q1173 1303 1174 1297T1176 1280Q1176 1269 1174 1263T1161 1257ZM848 1675Q813 1644 789 1622T748 1584T717 1555T693 1532T669 1508T639 1479Q597 1440 586 1440Q578 1440 571 1444T563 1452L564 1453Q564 1454 564 1454T565 1456L567 1460Q575 1471 589 1493T622 1546T663 1611T709 1685Q717 1699 722 1708T733 1726Q738 1734 742 1740T750 1749Q756 1757 761 1758T776 1759Q781 1759 783 1759T793 1757Q801 1755 814 1753T850 1745Q875 1739 875 1720Q875 1709 869 1700T848 1675Z"  />
<glyph unicode="&#xDB;" horiz-adv-x="1208" d="M1161 1257Q1150 1255 1140 1254T1120 1251Q1103 1249 1092 1244T1069 1223Q1058 1207 1052 1177T1044 1096Q1042 1046 1040 976T1038 811Q1038 665 1038 572T1034 436Q1031 376 1021 319T991 209Q972 158 941 116T862 42T750 -7T598 -25Q473 -25 393 5T267 95T204 241T186 440Q186 564 188 689T190 954Q190 998 189 1033T188 1098Q186 1157 182 1189T168 1233Q160 1242 150 1245T131 1251Q117 1254 104 1254T74 1255Q57 1255 57 1270V1280Q57 1289 58 1296T70 1303Q85 1303 138 1300T289 1296Q326 1296 362 1297T446 1300L473 1303Q482 1303 485 1299T489 1280Q489 1266 483 1260Q480 1258 476 1258T467 1257Q450 1255 433 1255T399 1249Q384 1246 371 1239T350 1214Q342 1200 337 1168T328 1080T324 944T322 754V563Q322 454 327 370T350 238Q364 202 386 172T441 119T520 85T629 72Q692 72 739 83T822 114T882 163T922 227Q937 262 945 304T958 391Q962 436 963 483T965 578Q965 612 965 651T964 724Q963 764 963 803Q961 901 960 973T954 1094T944 1173T926 1217Q912 1237 892 1243T848 1253Q839 1255 827 1255T801 1257Q791 1257 789 1261T786 1280Q786 1303 801 1303Q816 1303 856 1301T975 1298Q1056 1298 1102 1300T1163 1303Q1173 1303 1174 1297T1176 1280Q1176 1269 1174 1263T1161 1257ZM827 1423Q825 1423 822 1424T815 1431L774 1472Q762 1484 741 1505T699 1548T662 1584T641 1599Q638 1599 635 1598T625 1590T606 1571T571 1536Q467 1425 457 1425Q452 1425 444 1434T436 1450Q438 1455 438 1457T440 1462Q445 1467 452 1478T475 1511Q487 1528 501 1550T529 1596T556 1641T578 1681Q593 1709 602 1725T618 1749T630 1759T643 1761Q649 1761 654 1760T666 1751Q669 1746 672 1741T680 1726Q685 1718 691 1708T705 1685Q750 1607 781 1554T836 1466Q844 1455 844 1444Q844 1438 838 1431T827 1423Z"  />
<glyph unicode="&#xDC;" horiz-adv-x="1208" d="M1161 1257Q1150 1255 1140 1254T1120 1251Q1103 1249 1092 1244T1069 1223Q1058 1207 1052 1177T1044 1096Q1042 1046 1040 976T1038 811Q1038 665 1038 572T1034 436Q1031 376 1021 319T991 209Q972 158 941 116T862 42T750 -7T598 -25Q473 -25 393 5T267 95T204 241T186 440Q186 564 188 689T190 954Q190 998 189 1033T188 1098Q186 1157 182 1189T168 1233Q160 1242 150 1245T131 1251Q117 1254 104 1254T74 1255Q57 1255 57 1270V1280Q57 1289 58 1296T70 1303Q85 1303 138 1300T289 1296Q326 1296 362 1297T446 1300L473 1303Q482 1303 485 1299T489 1280Q489 1266 483 1260Q480 1258 476 1258T467 1257Q450 1255 433 1255T399 1249Q384 1246 371 1239T350 1214Q342 1200 337 1168T328 1080T324 944T322 754V563Q322 454 327 370T350 238Q364 202 386 172T441 119T520 85T629 72Q692 72 739 83T822 114T882 163T922 227Q937 262 945 304T958 391Q962 436 963 483T965 578Q965 612 965 651T964 724Q963 764 963 803Q961 901 960 973T954 1094T944 1173T926 1217Q912 1237 892 1243T848 1253Q839 1255 827 1255T801 1257Q791 1257 789 1261T786 1280Q786 1303 801 1303Q816 1303 856 1301T975 1298Q1056 1298 1102 1300T1163 1303Q1173 1303 1174 1297T1176 1280Q1176 1269 1174 1263T1161 1257ZM797 1472Q782 1472 768 1478T744 1495T727 1519T721 1548Q721 1579 743 1602T797 1626Q810 1626 823 1620T846 1602T862 1578T868 1550Q868 1535 862 1521T846 1496T823 1479T797 1472ZM487 1472Q473 1472 460 1478T438 1495T422 1519T416 1548Q416 1563 422 1577T438 1602T461 1619T489 1626Q503 1626 516 1620T539 1602T556 1578T563 1550Q563 1535 557 1521T540 1496T516 1479T487 1472Z"  />
<glyph unicode="&#xDD;" horiz-adv-x="1008" d="M1022 1262Q1019 1258 1016 1258T1010 1257Q1003 1257 998 1256T987 1253Q981 1251 975 1249T958 1241Q940 1229 916 1192T856 1092Q811 1014 747 898T596 616Q591 608 588 602T580 588Q578 583 576 580T573 571V563Q573 488 572 433T571 336Q571 300 571 273T572 224T574 185T578 150Q581 115 585 94T600 61Q609 51 625 47T660 40T695 38T723 37Q732 37 734 33T737 16Q737 2 731 -4H725H715Q656 -2 598 -1T481 0Q438 0 397 0T311 -4L295 -6H287Q279 -6 277 -2T274 14Q274 24 276 28T289 35Q293 37 303 37Q319 39 332 39T358 41Q371 44 380 47T399 59Q411 68 418 92T428 161T433 276T436 449V510V528Q436 533 436 537T434 547Q431 555 426 567T408 602Q363 690 327 762T262 893T208 1001T162 1092Q127 1160 103 1197T61 1249Q53 1257 45 1257T27 1260H20Q10 1260 10 1272V1284Q10 1295 13 1299T27 1303H43Q97 1299 134 1298T199 1296Q220 1296 237 1296T273 1298T310 1300T352 1303H379H385Q395 1303 395 1292V1280Q395 1271 394 1267T381 1260Q370 1258 351 1258T314 1254T282 1244T268 1219Q268 1209 272 1194T288 1151T322 1076T381 954Q406 904 427 863T468 783T506 709T545 635Q597 735 641 824T719 981Q765 1072 785 1127T805 1206Q805 1222 798 1231T777 1246T739 1252T684 1255Q681 1255 674 1255T664 1257Q659 1259 658 1263T657 1276Q657 1285 657 1290T662 1298Q664 1300 670 1300H680Q726 1300 773 1299T866 1298Q889 1298 912 1298T958 1300Q966 1300 974 1301Q981 1302 988 1302T1001 1303H1004H1014Q1020 1303 1023 1299T1026 1282Q1026 1264 1022 1262ZM725 1675Q690 1644 666 1622T625 1584T594 1555T570 1532T546 1508T516 1479Q474 1440 463 1440Q455 1440 448 1444T440 1452L441 1453Q441 1454 441 1454T442 1456L444 1460Q452 1471 466 1493T499 1546T540 1611T586 1685Q594 1699 599 1708T610 1726Q615 1734 619 1740T627 1749Q633 1757 638 1758T653 1759Q658 1759 660 1759T670 1757Q678 1755 691 1753T727 1745Q752 1739 752 1720Q752 1709 746 1700T725 1675Z"  />
<glyph unicode="&#xDE;" horiz-adv-x="973" d="M457 322Q445 322 432 322T407 323T384 324T367 326Q367 262 368 217T373 140T380 92T391 68Q405 52 432 48T483 41Q505 39 517 39T535 37Q538 34 538 27T539 16Q539 4 536 -1T518 -6Q456 -6 394 -3T270 0Q224 0 180 -3T88 -6Q77 -6 76 0T74 16Q74 29 77 32T92 37Q118 40 146 44T195 68Q207 79 214 106T225 164T230 224T231 268V979Q231 1045 230 1090T225 1165T215 1211T199 1237Q189 1246 168 1249T126 1254T87 1257T66 1264Q64 1267 64 1274T63 1284Q63 1292 64 1298T76 1305Q92 1305 146 1301T311 1296Q410 1296 462 1300T526 1305Q542 1305 544 1302T547 1282Q547 1265 542 1260T520 1255L481 1253Q460 1251 438 1247T401 1229Q390 1218 384 1201T375 1163T372 1124T371 1090Q408 1092 444 1093T518 1094Q557 1094 598 1092T678 1081T754 1058T823 1018Q854 992 876 958T913 884T933 804T940 725Q940 621 900 546T792 420T638 346T457 322ZM487 1042Q478 1042 461 1042T425 1039T392 1032T371 1018Q369 1015 369 1003T368 975T367 941T367 909V387Q412 381 457 381Q534 381 597 402T705 464T774 565T799 705Q799 781 780 843T722 949T625 1017T487 1042Z"  />
<glyph unicode="&#xDF;" horiz-adv-x="934" d="M610 -18Q589 -18 558 -15T499 -2T450 26T430 74Q430 84 434 95T446 117T464 133T485 139Q497 139 510 123T543 88T588 53T649 37Q684 37 709 51T749 89T772 142T780 203Q780 249 770 281T740 339T691 385T623 428Q585 449 550 471T488 521T445 584T428 668Q428 743 463 798T561 891Q602 916 628 941T668 997T688 1063T694 1145Q694 1186 683 1224T648 1291T591 1337T512 1354Q459 1354 423 1343T363 1307T325 1247T301 1163Q297 1142 295 1105T292 1019T291 910T291 782V336Q291 243 293 188T298 104T308 65T322 51Q328 48 340 47T364 45T385 43T397 41Q399 38 399 32T399 23Q399 9 397 4T381 -2Q343 -2 305 -1T227 0Q187 0 148 -2T68 -4Q60 -4 59 -1T57 14Q57 30 61 34T84 41Q98 43 113 44T143 53Q159 63 163 82T170 119Q171 138 172 161T173 210T174 261T174 311V778Q151 776 128 775T82 774Q77 774 76 776T74 793Q74 801 75 803T84 809Q130 833 174 860V932Q174 997 180 1052T204 1156T251 1250T328 1343Q376 1393 438 1418T569 1444Q624 1444 666 1424T737 1369T780 1288T795 1190Q795 1123 784 1076T754 997T712 943T664 905T616 873T574 839T544 793T532 725Q532 673 559 638T627 574T715 519T804 457T872 374T899 254Q899 187 878 137T819 52T728 0T610 -18Z"  />
<glyph unicode="&#xE0;" horiz-adv-x="801" d="M813 96Q813 82 810 77T795 63Q738 23 680 -1T582 -25Q551 -25 530 -6T502 51V70Q451 42 411 25T337 -3T277 -16T223 -20Q146 -20 112 28T72 182V199Q72 239 79 265T103 310T143 342T203 367Q227 375 262 385T337 404T421 423T506 438L510 575V604Q510 641 506 674T489 733T449 776T379 797H356Q308 797 276 784T238 754Q236 750 236 739Q236 730 238 720T240 690Q240 678 234 671T205 655Q189 649 174 644T145 635Q140 633 136 633T127 633Q111 633 102 643Q96 652 96 664Q96 686 114 712T156 762T204 804T240 829Q283 854 333 871T434 889Q454 889 474 886T514 874Q581 847 606 797T631 674Q631 559 625 446T618 211Q618 170 621 145T631 105T650 85T680 80Q705 80 737 93T807 135L813 129V96ZM473 383Q456 383 427 378T366 363T302 341T248 313Q236 305 228 299T214 285T206 266T203 238V227Q205 147 228 107T305 66Q324 66 351 70T405 80T455 96T489 115Q495 120 498 135Q500 141 500 150T500 172Q502 195 502 231T504 324V342Q504 367 498 375T473 383ZM471 1014Q466 1014 454 1022T422 1051L213 1247Q197 1261 192 1271T186 1290Q186 1305 207 1311Q235 1319 255 1323T283 1327Q294 1327 300 1324T315 1305Q338 1269 360 1233T403 1161Q419 1134 430 1116T451 1084T468 1056T487 1028L489 1024Q489 1018 482 1016T471 1014Z"  />
<glyph unicode="&#xE1;" horiz-adv-x="801" d="M813 96Q813 82 810 77T795 63Q738 23 680 -1T582 -25Q551 -25 530 -6T502 51V70Q451 42 411 25T337 -3T277 -16T223 -20Q146 -20 112 28T72 182V199Q72 239 79 265T103 310T143 342T203 367Q227 375 262 385T337 404T421 423T506 438L510 575V604Q510 641 506 674T489 733T449 776T379 797H356Q308 797 276 784T238 754Q236 750 236 739Q236 730 238 720T240 690Q240 678 234 671T205 655Q189 649 174 644T145 635Q140 633 136 633T127 633Q111 633 102 643Q96 652 96 664Q96 686 114 712T156 762T204 804T240 829Q283 854 333 871T434 889Q454 889 474 886T514 874Q581 847 606 797T631 674Q631 559 625 446T618 211Q618 170 621 145T631 105T650 85T680 80Q705 80 737 93T807 135L813 129V96ZM473 383Q456 383 427 378T366 363T302 341T248 313Q236 305 228 299T214 285T206 266T203 238V227Q205 147 228 107T305 66Q324 66 351 70T405 80T455 96T489 115Q495 120 498 135Q500 141 500 150T500 172Q502 195 502 231T504 324V342Q504 367 498 375T473 383ZM582 1245Q547 1214 523 1192T482 1154T451 1125T427 1102T403 1078T373 1049Q331 1010 320 1010Q312 1010 305 1014T297 1022L298 1023Q298 1024 298 1024T299 1026L301 1030Q309 1041 323 1063T356 1116T397 1181T443 1255Q451 1269 456 1278T467 1296Q472 1304 476 1310T484 1319Q490 1327 495 1328T510 1329Q515 1329 517 1329T527 1327Q535 1325 548 1323T584 1315Q609 1309 609 1290Q609 1279 603 1270T582 1245Z"  />
<glyph unicode="&#xE2;" horiz-adv-x="801" d="M813 96Q813 82 810 77T795 63Q738 23 680 -1T582 -25Q551 -25 530 -6T502 51V70Q451 42 411 25T337 -3T277 -16T223 -20Q146 -20 112 28T72 182V199Q72 239 79 265T103 310T143 342T203 367Q227 375 262 385T337 404T421 423T506 438L510 575V604Q510 641 506 674T489 733T449 776T379 797H356Q308 797 276 784T238 754Q236 750 236 739Q236 730 238 720T240 690Q240 678 234 671T205 655Q189 649 174 644T145 635Q140 633 136 633T127 633Q111 633 102 643Q96 652 96 664Q96 686 114 712T156 762T204 804T240 829Q283 854 333 871T434 889Q454 889 474 886T514 874Q581 847 606 797T631 674Q631 559 625 446T618 211Q618 170 621 145T631 105T650 85T680 80Q705 80 737 93T807 135L813 129V96ZM473 383Q456 383 427 378T366 363T302 341T248 313Q236 305 228 299T214 285T206 266T203 238V227Q205 147 228 107T305 66Q324 66 351 70T405 80T455 96T489 115Q495 120 498 135Q500 141 500 150T500 172Q502 195 502 231T504 324V342Q504 367 498 375T473 383ZM593 993Q591 993 588 994T581 1001L540 1042Q528 1054 507 1075T465 1118T428 1154T407 1169Q404 1169 401 1168T391 1160T372 1141T337 1106Q233 995 223 995Q218 995 210 1004T202 1020Q204 1025 204 1027T206 1032Q211 1037 218 1048T241 1081Q253 1098 267 1120T295 1166T322 1211T344 1251Q359 1279 368 1295T384 1319T396 1329T409 1331Q415 1331 420 1330T432 1321Q435 1316 438 1311T446 1296Q451 1288 457 1278T471 1255Q516 1177 547 1124T602 1036Q610 1025 610 1014Q610 1008 604 1001T593 993Z"  />
<glyph unicode="&#xE3;" horiz-adv-x="801" d="M813 96Q813 82 810 77T795 63Q738 23 680 -1T582 -25Q551 -25 530 -6T502 51V70Q451 42 411 25T337 -3T277 -16T223 -20Q146 -20 112 28T72 182V199Q72 239 79 265T103 310T143 342T203 367Q227 375 262 385T337 404T421 423T506 438L510 575V604Q510 641 506 674T489 733T449 776T379 797H356Q308 797 276 784T238 754Q236 750 236 739Q236 730 238 720T240 690Q240 678 234 671T205 655Q189 649 174 644T145 635Q140 633 136 633T127 633Q111 633 102 643Q96 652 96 664Q96 686 114 712T156 762T204 804T240 829Q283 854 333 871T434 889Q454 889 474 886T514 874Q581 847 606 797T631 674Q631 559 625 446T618 211Q618 170 621 145T631 105T650 85T680 80Q705 80 737 93T807 135L813 129V96ZM473 383Q456 383 427 378T366 363T302 341T248 313Q236 305 228 299T214 285T206 266T203 238V227Q205 147 228 107T305 66Q324 66 351 70T405 80T455 96T489 115Q495 120 498 135Q500 141 500 150T500 172Q502 195 502 231T504 324V342Q504 367 498 375T473 383ZM618 1174Q550 1053 485 1053Q462 1053 436 1064T372 1102Q353 1116 340 1124T317 1137T298 1143T278 1145Q260 1145 245 1139T218 1122T196 1099T176 1073Q169 1059 164 1059Q159 1059 151 1063T143 1075V1079Q143 1080 146 1087T154 1104T164 1126T176 1147Q207 1206 235 1229T301 1253Q322 1253 347 1244T407 1208Q442 1182 462 1173T506 1163Q521 1163 533 1166T557 1178T582 1200T612 1237Q617 1243 619 1246T624 1249Q627 1249 636 1246T645 1233Q645 1227 636 1211T618 1174Z"  />
<glyph unicode="&#xE4;" horiz-adv-x="801" d="M813 96Q813 82 810 77T795 63Q738 23 680 -1T582 -25Q551 -25 530 -6T502 51V70Q451 42 411 25T337 -3T277 -16T223 -20Q146 -20 112 28T72 182V199Q72 239 79 265T103 310T143 342T203 367Q227 375 262 385T337 404T421 423T506 438L510 575V604Q510 641 506 674T489 733T449 776T379 797H356Q308 797 276 784T238 754Q236 750 236 739Q236 730 238 720T240 690Q240 678 234 671T205 655Q189 649 174 644T145 635Q140 633 136 633T127 633Q111 633 102 643Q96 652 96 664Q96 686 114 712T156 762T204 804T240 829Q283 854 333 871T434 889Q454 889 474 886T514 874Q581 847 606 797T631 674Q631 559 625 446T618 211Q618 170 621 145T631 105T650 85T680 80Q705 80 737 93T807 135L813 129V96ZM473 383Q456 383 427 378T366 363T302 341T248 313Q236 305 228 299T214 285T206 266T203 238V227Q205 147 228 107T305 66Q324 66 351 70T405 80T455 96T489 115Q495 120 498 135Q500 141 500 150T500 172Q502 195 502 231T504 324V342Q504 367 498 375T473 383ZM564 1042Q549 1042 535 1048T511 1065T494 1089T488 1118Q488 1149 510 1172T564 1196Q577 1196 590 1190T613 1172T629 1148T635 1120Q635 1105 629 1091T613 1066T590 1049T564 1042ZM254 1042Q240 1042 227 1048T205 1065T189 1089T183 1118Q183 1133 189 1147T205 1172T228 1189T256 1196Q270 1196 283 1190T306 1172T323 1148T330 1120Q330 1105 324 1091T307 1066T283 1049T254 1042Z"  />
<glyph unicode="&#xE5;" horiz-adv-x="801" d="M813 96Q813 82 810 77T795 63Q738 23 680 -1T582 -25Q551 -25 530 -6T502 51V70Q451 42 411 25T337 -3T277 -16T223 -20Q146 -20 112 28T72 182V199Q72 239 79 265T103 310T143 342T203 367Q227 375 262 385T337 404T421 423T506 438L510 575V604Q510 641 506 674T489 733T449 776T379 797H356Q308 797 276 784T238 754Q236 750 236 739Q236 730 238 720T240 690Q240 678 234 671T205 655Q189 649 174 644T145 635Q140 633 136 633T127 633Q111 633 102 643Q96 652 96 664Q96 686 114 712T156 762T204 804T240 829Q283 854 333 871T434 889Q454 889 474 886T514 874Q581 847 606 797T631 674Q631 559 625 446T618 211Q618 170 621 145T631 105T650 85T680 80Q705 80 737 93T807 135L813 129V96ZM473 383Q456 383 427 378T366 363T302 341T248 313Q236 305 228 299T214 285T206 266T203 238V227Q205 147 228 107T305 66Q324 66 351 70T405 80T455 96T489 115Q495 120 498 135Q500 141 500 150T500 172Q502 195 502 231T504 324V342Q504 367 498 375T473 383ZM401 1274Q364 1274 340 1243T315 1161Q315 1109 339 1078T401 1047Q439 1047 464 1078T489 1161Q489 1212 464 1243T401 1274ZM401 993Q367 993 339 1005T290 1040T258 1094T246 1161Q246 1197 258 1227T291 1280T341 1314T405 1327Q437 1327 465 1314T514 1279T547 1226T559 1161Q559 1125 547 1094T514 1041T464 1006T401 993Z"  />
<glyph unicode="&#xE6;" horiz-adv-x="1151" d="M1094 563Q1094 557 1086 555T1073 551Q1011 539 951 526T831 498Q776 485 721 473T612 444Q612 405 615 363T626 280T650 202T691 137T752 93T838 76Q912 76 970 104T1081 184L1090 182V154Q1090 137 1087 129T1071 106Q1015 49 940 13T784 -23Q707 -23 644 8T545 111Q512 85 473 62T392 21T307 -7T221 -18Q171 -18 142 4T97 62T77 139T72 221Q72 260 80 286T104 330T144 362T203 391Q274 420 352 438T506 469Q508 503 509 536T510 604Q510 646 505 681T483 742T436 782T358 797Q345 797 325 795T285 787T251 769T236 739Q236 727 238 714T240 688Q240 676 233 670T211 657Q188 648 169 641T127 633Q96 633 96 664Q96 684 112 708T152 756T199 799T240 829Q283 854 330 870T428 887Q490 887 533 864T604 786Q641 836 693 862T807 889Q865 889 908 867T983 807T1035 723T1069 625Q1072 618 1072 612T1087 606Q1092 606 1093 603T1094 596V563ZM776 825Q741 825 715 809T671 765T640 704T622 634T613 565T610 506V494Q675 512 740 528T870 561Q891 566 903 570T923 579T932 590T934 608Q934 640 924 678T894 748T845 803T776 825ZM516 209Q516 220 512 249T508 332V360Q508 379 503 395T479 412Q465 412 435 406T371 389T303 365T248 338Q222 322 213 307T203 260Q203 235 206 201T219 137T250 85T305 63Q328 63 362 71T428 95T484 132T514 180Q516 188 516 194T516 209Z"  />
<glyph unicode="&#xE7;" horiz-adv-x="752" d="M397 -23Q332 -23 276 6T176 89T109 216T84 381Q84 495 119 589T229 762Q292 825 358 854T506 883Q546 883 582 876T647 854T691 820T707 776Q707 763 699 751T678 729T652 713T625 707Q613 707 608 715L600 721Q562 759 515 776T406 793Q356 793 318 769T253 700T214 594T201 457Q201 362 221 291T276 173T361 102T469 78Q529 78 581 104T674 168H684L694 158Q696 153 698 147T700 137Q700 119 645 74Q550 -3 451 -18Q449 -21 443 -33T431 -59T419 -85T414 -100Q414 -108 419 -116T440 -135Q520 -190 520 -262Q520 -295 506 -327T469 -384T417 -424T358 -440Q321 -440 295 -421T268 -373Q268 -354 279 -338T305 -322Q310 -322 312 -322T319 -326Q324 -328 332 -332T356 -346Q374 -360 397 -360Q419 -360 432 -347T446 -311Q446 -255 358 -207Q326 -190 326 -166Q326 -162 337 -142T362 -97T389 -52T408 -23H397Z"  />
<glyph unicode="&#xE8;" horiz-adv-x="748" d="M690 569Q690 561 688 559Q686 556 683 555T668 551Q634 544 590 534T498 514T403 492T316 472T246 455T203 444Q204 351 223 282T273 168T347 99T436 76Q507 76 567 105T678 184L686 182V150Q686 133 683 126T668 106Q638 76 603 52T531 10T456 -16T381 -25Q312 -25 258 2T165 82T106 211T86 383Q86 427 92 482T113 593T152 703T211 797T293 864T403 889Q457 889 500 869T575 813T630 729T666 625Q669 618 669 612T680 606H684Q689 606 689 604T690 596V569ZM371 831Q337 831 311 813T267 765T238 699T219 625T210 553T207 496V494Q244 504 271 511T325 525T385 540T467 561Q489 567 501 571T520 580T528 591T530 608Q530 644 518 683T485 756T435 810T371 831ZM496 1014Q491 1014 479 1022T447 1051L238 1247Q222 1261 217 1271T211 1290Q211 1305 232 1311Q260 1319 280 1323T308 1327Q319 1327 325 1324T340 1305Q363 1269 385 1233T428 1161Q444 1134 455 1116T476 1084T493 1056T512 1028L514 1024Q514 1018 507 1016T496 1014Z"  />
<glyph unicode="&#xE9;" horiz-adv-x="748" d="M690 569Q690 561 688 559Q686 556 683 555T668 551Q634 544 590 534T498 514T403 492T316 472T246 455T203 444Q204 351 223 282T273 168T347 99T436 76Q507 76 567 105T678 184L686 182V150Q686 133 683 126T668 106Q638 76 603 52T531 10T456 -16T381 -25Q312 -25 258 2T165 82T106 211T86 383Q86 427 92 482T113 593T152 703T211 797T293 864T403 889Q457 889 500 869T575 813T630 729T666 625Q669 618 669 612T680 606H684Q689 606 689 604T690 596V569ZM371 831Q337 831 311 813T267 765T238 699T219 625T210 553T207 496V494Q244 504 271 511T325 525T385 540T467 561Q489 567 501 571T520 580T528 591T530 608Q530 644 518 683T485 756T435 810T371 831ZM563 1245Q528 1214 504 1192T463 1154T432 1125T408 1102T384 1078T354 1049Q312 1010 301 1010Q293 1010 286 1014T278 1022L279 1023Q279 1024 279 1024T280 1026L282 1030Q290 1041 304 1063T337 1116T378 1181T424 1255Q432 1269 437 1278T448 1296Q453 1304 457 1310T465 1319Q471 1327 476 1328T491 1329Q496 1329 498 1329T508 1327Q516 1325 529 1323T565 1315Q590 1309 590 1290Q590 1279 584 1270T563 1245Z"  />
<glyph unicode="&#xEA;" horiz-adv-x="748" d="M690 569Q690 561 688 559Q686 556 683 555T668 551Q634 544 590 534T498 514T403 492T316 472T246 455T203 444Q204 351 223 282T273 168T347 99T436 76Q507 76 567 105T678 184L686 182V150Q686 133 683 126T668 106Q638 76 603 52T531 10T456 -16T381 -25Q312 -25 258 2T165 82T106 211T86 383Q86 427 92 482T113 593T152 703T211 797T293 864T403 889Q457 889 500 869T575 813T630 729T666 625Q669 618 669 612T680 606H684Q689 606 689 604T690 596V569ZM371 831Q337 831 311 813T267 765T238 699T219 625T210 553T207 496V494Q244 504 271 511T325 525T385 540T467 561Q489 567 501 571T520 580T528 591T530 608Q530 644 518 683T485 756T435 810T371 831ZM610 993Q608 993 605 994T598 1001L557 1042Q545 1054 524 1075T482 1118T445 1154T424 1169Q421 1169 418 1168T408 1160T389 1141T354 1106Q250 995 240 995Q235 995 227 1004T219 1020Q221 1025 221 1027T223 1032Q228 1037 235 1048T258 1081Q270 1098 284 1120T312 1166T339 1211T361 1251Q376 1279 385 1295T401 1319T413 1329T426 1331Q432 1331 437 1330T449 1321Q452 1316 455 1311T463 1296Q468 1288 474 1278T488 1255Q533 1177 564 1124T619 1036Q627 1025 627 1014Q627 1008 621 1001T610 993Z"  />
<glyph unicode="&#xEB;" horiz-adv-x="748" d="M690 569Q690 561 688 559Q686 556 683 555T668 551Q634 544 590 534T498 514T403 492T316 472T246 455T203 444Q204 351 223 282T273 168T347 99T436 76Q507 76 567 105T678 184L686 182V150Q686 133 683 126T668 106Q638 76 603 52T531 10T456 -16T381 -25Q312 -25 258 2T165 82T106 211T86 383Q86 427 92 482T113 593T152 703T211 797T293 864T403 889Q457 889 500 869T575 813T630 729T666 625Q669 618 669 612T680 606H684Q689 606 689 604T690 596V569ZM371 831Q337 831 311 813T267 765T238 699T219 625T210 553T207 496V494Q244 504 271 511T325 525T385 540T467 561Q489 567 501 571T520 580T528 591T530 608Q530 644 518 683T485 756T435 810T371 831ZM580 1042Q565 1042 551 1048T527 1065T510 1089T504 1118Q504 1149 526 1172T580 1196Q593 1196 606 1190T629 1172T645 1148T651 1120Q651 1105 645 1091T629 1066T606 1049T580 1042ZM270 1042Q256 1042 243 1048T221 1065T205 1089T199 1118Q199 1133 205 1147T221 1172T244 1189T272 1196Q286 1196 299 1190T322 1172T339 1148T346 1120Q346 1105 340 1091T323 1066T299 1049T270 1042Z"  />
<glyph unicode="&#xEC;" horiz-adv-x="465" d="M428 -4Q405 -4 362 -2T254 0Q180 0 128 -2T59 -4Q53 -4 51 2T49 14Q49 21 51 29T61 37Q83 37 105 39T147 53Q156 59 162 72T174 115T181 191T184 311V453Q184 527 184 573T182 646T177 688T168 713Q159 728 139 731T98 735H72Q67 735 65 737T63 752Q63 760 66 763T76 772Q99 788 129 807T186 842Q195 847 209 857T240 876T271 893T297 901Q307 901 307 893Q307 884 304 819T301 618V264Q301 205 302 168T306 110T312 79T319 66Q329 57 342 53T369 47T397 45T424 43Q441 43 443 39T446 18Q446 6 444 1T428 -4ZM289 1014Q284 1014 272 1022T240 1051L31 1247Q15 1261 10 1271T4 1290Q4 1305 25 1311Q53 1319 73 1323T101 1327Q112 1327 118 1324T133 1305Q156 1269 178 1233T221 1161Q237 1134 248 1116T269 1084T286 1056T305 1028L307 1024Q307 1018 300 1016T289 1014Z"  />
<glyph unicode="&#xED;" horiz-adv-x="465" d="M428 -4Q405 -4 362 -2T254 0Q180 0 128 -2T59 -4Q53 -4 51 2T49 14Q49 21 51 29T61 37Q83 37 105 39T147 53Q156 59 162 72T174 115T181 191T184 311V453Q184 527 184 573T182 646T177 688T168 713Q159 728 139 731T98 735H72Q67 735 65 737T63 752Q63 760 66 763T76 772Q99 788 129 807T186 842Q195 847 209 857T240 876T271 893T297 901Q307 901 307 893Q307 884 304 819T301 618V264Q301 205 302 168T306 110T312 79T319 66Q329 57 342 53T369 47T397 45T424 43Q441 43 443 39T446 18Q446 6 444 1T428 -4ZM418 1245Q383 1214 359 1192T318 1154T287 1125T263 1102T239 1078T209 1049Q167 1010 156 1010Q148 1010 141 1014T133 1022L134 1023Q134 1024 134 1024T135 1026L137 1030Q145 1041 159 1063T192 1116T233 1181T279 1255Q287 1269 292 1278T303 1296Q308 1304 312 1310T320 1319Q326 1327 331 1328T346 1329Q351 1329 353 1329T363 1327Q371 1325 384 1323T420 1315Q445 1309 445 1290Q445 1279 439 1270T418 1245Z"  />
<glyph unicode="&#xEE;" horiz-adv-x="465" d="M428 -4Q405 -4 362 -2T254 0Q180 0 128 -2T59 -4Q53 -4 51 2T49 14Q49 21 51 29T61 37Q83 37 105 39T147 53Q156 59 162 72T174 115T181 191T184 311V453Q184 527 184 573T182 646T177 688T168 713Q159 728 139 731T98 735H72Q67 735 65 737T63 752Q63 760 66 763T76 772Q99 788 129 807T186 842Q195 847 209 857T240 876T271 893T297 901Q307 901 307 893Q307 884 304 819T301 618V264Q301 205 302 168T306 110T312 79T319 66Q329 57 342 53T369 47T397 45T424 43Q441 43 443 39T446 18Q446 6 444 1T428 -4ZM426 993Q424 993 421 994T414 1001L373 1042Q361 1054 340 1075T298 1118T261 1154T240 1169Q237 1169 234 1168T224 1160T205 1141T170 1106Q66 995 56 995Q51 995 43 1004T35 1020Q37 1025 37 1027T39 1032Q44 1037 51 1048T74 1081Q86 1098 100 1120T128 1166T155 1211T177 1251Q192 1279 201 1295T217 1319T229 1329T242 1331Q248 1331 253 1330T265 1321Q268 1316 271 1311T279 1296Q284 1288 290 1278T304 1255Q349 1177 380 1124T435 1036Q443 1025 443 1014Q443 1008 437 1001T426 993Z"  />
<glyph unicode="&#xEF;" horiz-adv-x="465" d="M428 -4Q405 -4 362 -2T254 0Q180 0 128 -2T59 -4Q53 -4 51 2T49 14Q49 21 51 29T61 37Q83 37 105 39T147 53Q156 59 162 72T174 115T181 191T184 311V453Q184 527 184 573T182 646T177 688T168 713Q159 728 139 731T98 735H72Q67 735 65 737T63 752Q63 760 66 763T76 772Q99 788 129 807T186 842Q195 847 209 857T240 876T271 893T297 901Q307 901 307 893Q307 884 304 819T301 618V264Q301 205 302 168T306 110T312 79T319 66Q329 57 342 53T369 47T397 45T424 43Q441 43 443 39T446 18Q446 6 444 1T428 -4ZM390 1042Q375 1042 361 1048T337 1065T320 1089T314 1118Q314 1149 336 1172T390 1196Q403 1196 416 1190T439 1172T455 1148T461 1120Q461 1105 455 1091T439 1066T416 1049T390 1042ZM80 1042Q66 1042 53 1048T31 1065T15 1089T9 1118Q9 1133 15 1147T31 1172T54 1189T82 1196Q96 1196 109 1190T132 1172T149 1148T156 1120Q156 1105 150 1091T133 1066T109 1049T80 1042Z"  />
<glyph unicode="&#xF0;" horiz-adv-x="903" d="M430 -23Q340 -23 275 16T167 119T105 262T84 420Q84 507 107 590T177 739T295 843T465 883Q513 883 553 866T629 819Q597 909 547 995T440 1159Q437 1156 425 1143T397 1112T363 1072T329 1033T302 1001T289 985L238 1034Q276 1072 318 1117T406 1214Q402 1219 390 1235T361 1272T327 1317T293 1361T268 1394T258 1409Q258 1413 263 1417T276 1426T291 1433T301 1436Q307 1436 320 1426T349 1399T383 1364T416 1327T443 1295T459 1276L610 1446L657 1397Q642 1381 622 1360T581 1316T539 1270T498 1225Q565 1139 623 1047T725 856T794 652T819 434Q819 347 794 265T719 119T597 16T430 -23ZM426 821Q364 821 322 787T253 700T216 589T205 479Q205 431 211 384T231 291Q244 249 266 205T321 124T394 63T485 39Q546 39 586 74T652 160T687 270T698 377Q698 471 676 552T617 693T530 787T426 821Z"  />
<glyph unicode="&#xF1;" horiz-adv-x="954" d="M907 -4Q861 -4 815 -2T723 0Q686 0 651 -3T578 -6Q565 -6 562 -1T559 16Q559 31 569 35T593 41T622 45T647 59Q657 69 663 89T672 145T677 237T678 373V555Q678 596 674 637T653 710T607 763T526 784Q494 784 466 778T412 761T361 736T309 707Q298 700 295 696T291 678V279Q291 219 292 180T295 117T300 80T309 61Q316 53 328 49T355 44T384 42T408 41Q419 41 420 35T422 18Q422 6 420 1T403 -4Q361 -4 321 -3T238 -2Q179 -2 132 -4T74 -6Q63 -6 60 0T57 16Q57 31 65 35T87 41T115 44T143 57Q150 63 156 74T166 108T172 165T174 254V532Q174 543 174 568T173 622T170 675T164 709Q156 727 145 732T115 737Q105 737 96 736T78 735Q67 735 64 740T61 756Q61 765 63 769T72 778Q78 784 97 796T142 823T195 854T242 883Q257 892 266 896T285 901Q294 901 297 899T301 889Q301 870 296 833T291 743Q351 783 396 810T478 853T548 876T616 883Q677 883 713 856T768 787T793 695T799 596Q799 536 798 476T797 356V115Q797 104 800 85T811 57Q816 51 828 48T855 43T883 41T905 41Q919 41 922 37T926 18Q926 7 923 2T907 -4ZM710 1174Q642 1053 577 1053Q554 1053 528 1064T464 1102Q445 1116 432 1124T409 1137T390 1143T370 1145Q352 1145 337 1139T310 1122T288 1099T268 1073Q261 1059 256 1059Q251 1059 243 1063T235 1075V1079Q235 1080 238 1087T246 1104T256 1126T268 1147Q299 1206 327 1229T393 1253Q414 1253 439 1244T499 1208Q534 1182 554 1173T598 1163Q613 1163 625 1166T649 1178T674 1200T704 1237Q709 1243 711 1246T716 1249Q719 1249 728 1246T737 1233Q737 1227 728 1211T710 1174Z"  />
<glyph unicode="&#xF2;" horiz-adv-x="903" d="M430 -23Q340 -23 275 16T167 119T105 262T84 420Q84 508 109 591T183 739T305 843T475 883Q563 883 628 844T735 743T798 602T819 446Q819 359 795 275T721 125T600 18T430 -23ZM422 821Q359 821 317 786T251 699T216 588T205 479Q205 439 212 391T233 294T270 199T323 118T395 61T485 39Q526 39 557 55T613 98T653 160T679 232T693 307T698 377Q698 431 690 488T662 600T611 702T532 782Q508 799 480 810T422 821ZM543 1014Q538 1014 526 1022T494 1051L285 1247Q269 1261 264 1271T258 1290Q258 1305 279 1311Q307 1319 327 1323T355 1327Q366 1327 372 1324T387 1305Q410 1269 432 1233T475 1161Q491 1134 502 1116T523 1084T540 1056T559 1028L561 1024Q561 1018 554 1016T543 1014Z"  />
<glyph unicode="&#xF3;" horiz-adv-x="903" d="M430 -23Q340 -23 275 16T167 119T105 262T84 420Q84 508 109 591T183 739T305 843T475 883Q563 883 628 844T735 743T798 602T819 446Q819 359 795 275T721 125T600 18T430 -23ZM422 821Q359 821 317 786T251 699T216 588T205 479Q205 439 212 391T233 294T270 199T323 118T395 61T485 39Q526 39 557 55T613 98T653 160T679 232T693 307T698 377Q698 431 690 488T662 600T611 702T532 782Q508 799 480 810T422 821ZM610 1245Q575 1214 551 1192T510 1154T479 1125T455 1102T431 1078T401 1049Q359 1010 348 1010Q340 1010 333 1014T325 1022L326 1023Q326 1024 326 1024T327 1026L329 1030Q337 1041 351 1063T384 1116T425 1181T471 1255Q479 1269 484 1278T495 1296Q500 1304 504 1310T512 1319Q518 1327 523 1328T538 1329Q543 1329 545 1329T555 1327Q563 1325 576 1323T612 1315Q637 1309 637 1290Q637 1279 631 1270T610 1245Z"  />
<glyph unicode="&#xF4;" horiz-adv-x="903" d="M430 -23Q340 -23 275 16T167 119T105 262T84 420Q84 508 109 591T183 739T305 843T475 883Q563 883 628 844T735 743T798 602T819 446Q819 359 795 275T721 125T600 18T430 -23ZM422 821Q359 821 317 786T251 699T216 588T205 479Q205 439 212 391T233 294T270 199T323 118T395 61T485 39Q526 39 557 55T613 98T653 160T679 232T693 307T698 377Q698 431 690 488T662 600T611 702T532 782Q508 799 480 810T422 821ZM649 993Q647 993 644 994T637 1001L596 1042Q584 1054 563 1075T521 1118T484 1154T463 1169Q460 1169 457 1168T447 1160T428 1141T393 1106Q289 995 279 995Q274 995 266 1004T258 1020Q260 1025 260 1027T262 1032Q267 1037 274 1048T297 1081Q309 1098 323 1120T351 1166T378 1211T400 1251Q415 1279 424 1295T440 1319T452 1329T465 1331Q471 1331 476 1330T488 1321Q491 1316 494 1311T502 1296Q507 1288 513 1278T527 1255Q572 1177 603 1124T658 1036Q666 1025 666 1014Q666 1008 660 1001T649 993Z"  />
<glyph unicode="&#xF5;" horiz-adv-x="903" d="M430 -23Q340 -23 275 16T167 119T105 262T84 420Q84 508 109 591T183 739T305 843T475 883Q563 883 628 844T735 743T798 602T819 446Q819 359 795 275T721 125T600 18T430 -23ZM422 821Q359 821 317 786T251 699T216 588T205 479Q205 439 212 391T233 294T270 199T323 118T395 61T485 39Q526 39 557 55T613 98T653 160T679 232T693 307T698 377Q698 431 690 488T662 600T611 702T532 782Q508 799 480 810T422 821ZM684 1174Q616 1053 551 1053Q528 1053 502 1064T438 1102Q419 1116 406 1124T383 1137T364 1143T344 1145Q326 1145 311 1139T284 1122T262 1099T242 1073Q235 1059 230 1059Q225 1059 217 1063T209 1075V1079Q209 1080 212 1087T220 1104T230 1126T242 1147Q273 1206 301 1229T367 1253Q388 1253 413 1244T473 1208Q508 1182 528 1173T572 1163Q587 1163 599 1166T623 1178T648 1200T678 1237Q683 1243 685 1246T690 1249Q693 1249 702 1246T711 1233Q711 1227 702 1211T684 1174Z"  />
<glyph unicode="&#xF6;" horiz-adv-x="903" d="M430 -23Q340 -23 275 16T167 119T105 262T84 420Q84 508 109 591T183 739T305 843T475 883Q563 883 628 844T735 743T798 602T819 446Q819 359 795 275T721 125T600 18T430 -23ZM422 821Q359 821 317 786T251 699T216 588T205 479Q205 439 212 391T233 294T270 199T323 118T395 61T485 39Q526 39 557 55T613 98T653 160T679 232T693 307T698 377Q698 431 690 488T662 600T611 702T532 782Q508 799 480 810T422 821ZM615 1042Q600 1042 586 1048T562 1065T545 1089T539 1118Q539 1149 561 1172T615 1196Q628 1196 641 1190T664 1172T680 1148T686 1120Q686 1105 680 1091T664 1066T641 1049T615 1042ZM305 1042Q291 1042 278 1048T256 1065T240 1089T234 1118Q234 1133 240 1147T256 1172T279 1189T307 1196Q321 1196 334 1190T357 1172T374 1148T381 1120Q381 1105 375 1091T358 1066T334 1049T305 1042Z"  />
<glyph unicode="&#xF7;" horiz-adv-x="870" d="M436 844Q420 844 404 852T374 874T353 903T344 936Q344 953 352 969T373 999T402 1020T436 1028Q451 1028 467 1020T496 999T517 970T526 938Q526 921 518 905T496 875T467 853T436 844ZM68 602V698H803V602H68ZM436 270Q420 270 404 278T374 300T353 329T344 362Q344 379 352 396T373 426T402 447T436 455Q451 455 467 447T496 426T517 397T526 365Q526 348 518 331T496 301T467 279T436 270Z"  />
<glyph unicode="&#xF8;" horiz-adv-x="903" d="M430 -23Q371 -23 324 -7T240 39L150 -96Q148 -99 146 -100T139 -102H92Q84 -102 84 -98Q84 -95 85 -93T90 -86L199 78Q169 111 148 151T112 235T91 326T84 420Q84 508 109 591T183 739T305 843T475 883Q538 883 589 862T678 807L766 938Q769 944 776 944H823Q831 944 831 940Q831 937 830 935T825 928L717 766Q769 701 794 616T819 446Q819 359 795 275T721 125T600 18T430 -23ZM422 821Q359 821 317 786T251 699T216 588T205 479Q205 448 209 412T221 339T241 263T272 190L610 702Q595 725 575 745T532 782Q508 799 480 810T422 821ZM698 377Q698 443 685 514T641 649L305 139Q339 94 383 67T485 39Q526 39 557 55T613 98T653 160T679 232T693 307T698 377Z"  />
<glyph unicode="&#xF9;" horiz-adv-x="930" d="M918 82Q918 76 917 71T911 61Q908 57 891 49T848 31T795 11T740 -7T694 -20T666 -25Q650 -25 648 -13T645 10Q645 36 645 62T647 115Q642 112 638 110T629 104Q596 84 561 62T489 22T413 -8T334 -20Q292 -20 263 -5T213 35T181 92T163 160T154 232T152 299Q152 333 154 366T156 434V623Q156 686 154 717T137 762Q129 770 121 772T102 774H70Q57 774 55 779T53 793Q53 798 53 803T57 811Q59 813 75 819T113 834T162 851T211 867T251 880T272 885Q282 885 284 879T287 864Q287 853 285 826T280 759T275 668T272 557V338Q272 293 276 248T295 165T343 104T432 80Q450 80 484 88T553 109T615 138T647 172Q649 181 650 208T652 265T653 323T653 360V713Q653 732 652 748T646 776T630 796T598 807Q583 810 568 810T537 811Q530 811 525 812T520 823Q520 842 522 849T539 856H557Q608 856 655 864T752 879Q755 879 760 880T768 881Q777 881 778 878T780 866Q780 848 780 831T778 797Q773 728 772 595T770 266Q770 183 772 145T786 96Q798 88 817 88Q839 88 863 95T901 102Q914 102 916 99T918 82ZM520 1014Q515 1014 503 1022T471 1051L262 1247Q246 1261 241 1271T235 1290Q235 1305 256 1311Q284 1319 304 1323T332 1327Q343 1327 349 1324T364 1305Q387 1269 409 1233T452 1161Q468 1134 479 1116T500 1084T517 1056T536 1028L538 1024Q538 1018 531 1016T520 1014Z"  />
<glyph unicode="&#xFA;" horiz-adv-x="930" d="M918 82Q918 76 917 71T911 61Q908 57 891 49T848 31T795 11T740 -7T694 -20T666 -25Q650 -25 648 -13T645 10Q645 36 645 62T647 115Q642 112 638 110T629 104Q596 84 561 62T489 22T413 -8T334 -20Q292 -20 263 -5T213 35T181 92T163 160T154 232T152 299Q152 333 154 366T156 434V623Q156 686 154 717T137 762Q129 770 121 772T102 774H70Q57 774 55 779T53 793Q53 798 53 803T57 811Q59 813 75 819T113 834T162 851T211 867T251 880T272 885Q282 885 284 879T287 864Q287 853 285 826T280 759T275 668T272 557V338Q272 293 276 248T295 165T343 104T432 80Q450 80 484 88T553 109T615 138T647 172Q649 181 650 208T652 265T653 323T653 360V713Q653 732 652 748T646 776T630 796T598 807Q583 810 568 810T537 811Q530 811 525 812T520 823Q520 842 522 849T539 856H557Q608 856 655 864T752 879Q755 879 760 880T768 881Q777 881 778 878T780 866Q780 848 780 831T778 797Q773 728 772 595T770 266Q770 183 772 145T786 96Q798 88 817 88Q839 88 863 95T901 102Q914 102 916 99T918 82ZM631 1245Q596 1214 572 1192T531 1154T500 1125T476 1102T452 1078T422 1049Q380 1010 369 1010Q361 1010 354 1014T346 1022L347 1023Q347 1024 347 1024T348 1026L350 1030Q358 1041 372 1063T405 1116T446 1181T492 1255Q500 1269 505 1278T516 1296Q521 1304 525 1310T533 1319Q539 1327 544 1328T559 1329Q564 1329 566 1329T576 1327Q584 1325 597 1323T633 1315Q658 1309 658 1290Q658 1279 652 1270T631 1245Z"  />
<glyph unicode="&#xFB;" horiz-adv-x="930" d="M918 82Q918 76 917 71T911 61Q908 57 891 49T848 31T795 11T740 -7T694 -20T666 -25Q650 -25 648 -13T645 10Q645 36 645 62T647 115Q642 112 638 110T629 104Q596 84 561 62T489 22T413 -8T334 -20Q292 -20 263 -5T213 35T181 92T163 160T154 232T152 299Q152 333 154 366T156 434V623Q156 686 154 717T137 762Q129 770 121 772T102 774H70Q57 774 55 779T53 793Q53 798 53 803T57 811Q59 813 75 819T113 834T162 851T211 867T251 880T272 885Q282 885 284 879T287 864Q287 853 285 826T280 759T275 668T272 557V338Q272 293 276 248T295 165T343 104T432 80Q450 80 484 88T553 109T615 138T647 172Q649 181 650 208T652 265T653 323T653 360V713Q653 732 652 748T646 776T630 796T598 807Q583 810 568 810T537 811Q530 811 525 812T520 823Q520 842 522 849T539 856H557Q608 856 655 864T752 879Q755 879 760 880T768 881Q777 881 778 878T780 866Q780 848 780 831T778 797Q773 728 772 595T770 266Q770 183 772 145T786 96Q798 88 817 88Q839 88 863 95T901 102Q914 102 916 99T918 82ZM647 993Q645 993 642 994T635 1001L594 1042Q582 1054 561 1075T519 1118T482 1154T461 1169Q458 1169 455 1168T445 1160T426 1141T391 1106Q287 995 277 995Q272 995 264 1004T256 1020Q258 1025 258 1027T260 1032Q265 1037 272 1048T295 1081Q307 1098 321 1120T349 1166T376 1211T398 1251Q413 1279 422 1295T438 1319T450 1329T463 1331Q469 1331 474 1330T486 1321Q489 1316 492 1311T500 1296Q505 1288 511 1278T525 1255Q570 1177 601 1124T656 1036Q664 1025 664 1014Q664 1008 658 1001T647 993Z"  />
<glyph unicode="&#xFC;" horiz-adv-x="930" d="M918 82Q918 76 917 71T911 61Q908 57 891 49T848 31T795 11T740 -7T694 -20T666 -25Q650 -25 648 -13T645 10Q645 36 645 62T647 115Q642 112 638 110T629 104Q596 84 561 62T489 22T413 -8T334 -20Q292 -20 263 -5T213 35T181 92T163 160T154 232T152 299Q152 333 154 366T156 434V623Q156 686 154 717T137 762Q129 770 121 772T102 774H70Q57 774 55 779T53 793Q53 798 53 803T57 811Q59 813 75 819T113 834T162 851T211 867T251 880T272 885Q282 885 284 879T287 864Q287 853 285 826T280 759T275 668T272 557V338Q272 293 276 248T295 165T343 104T432 80Q450 80 484 88T553 109T615 138T647 172Q649 181 650 208T652 265T653 323T653 360V713Q653 732 652 748T646 776T630 796T598 807Q583 810 568 810T537 811Q530 811 525 812T520 823Q520 842 522 849T539 856H557Q608 856 655 864T752 879Q755 879 760 880T768 881Q777 881 778 878T780 866Q780 848 780 831T778 797Q773 728 772 595T770 266Q770 183 772 145T786 96Q798 88 817 88Q839 88 863 95T901 102Q914 102 916 99T918 82ZM617 1042Q602 1042 588 1048T564 1065T547 1089T541 1118Q541 1149 563 1172T617 1196Q630 1196 643 1190T666 1172T682 1148T688 1120Q688 1105 682 1091T666 1066T643 1049T617 1042ZM307 1042Q293 1042 280 1048T258 1065T242 1089T236 1118Q236 1133 242 1147T258 1172T281 1189T309 1196Q323 1196 336 1190T359 1172T376 1148T383 1120Q383 1105 377 1091T360 1066T336 1049T307 1042Z"  />
<glyph unicode="&#xFD;" horiz-adv-x="817" d="M836 848Q836 831 831 829T811 823Q799 821 790 808T774 784Q715 685 669 580T575 369Q495 194 423 18T279 -352Q259 -405 245 -440T219 -497T195 -531T168 -549Q151 -557 130 -558T90 -559Q72 -559 63 -557T49 -549T44 -533T43 -506Q43 -503 43 -499T45 -492Q50 -485 61 -480T78 -471Q116 -452 140 -425T184 -362Q194 -347 202 -331T219 -299Q224 -291 234 -269T258 -218T287 -155T315 -92T338 -36T352 2L330 82Q311 151 290 216T248 347T203 478T156 614Q133 682 120 720T98 779T85 805T74 817Q66 825 55 826T41 827Q35 827 33 833T31 848Q31 857 32 862T45 868Q80 868 114 866T184 864Q225 864 265 866T346 868Q352 868 354 864T356 846Q356 835 354 830T340 825Q306 825 287 823T257 815T245 802T242 784Q242 775 244 763T250 730T263 681T283 610Q318 496 354 383T428 156Q433 168 446 198T477 270T516 362T558 464T599 566T634 659T659 731T668 774Q668 788 664 797T649 813T618 822T563 825Q557 825 555 833T553 846Q553 858 556 863T571 868Q603 868 635 866T700 864Q747 864 778 867T819 870Q832 870 834 864T836 848ZM623 1245Q588 1214 564 1192T523 1154T492 1125T468 1102T444 1078T414 1049Q372 1010 361 1010Q353 1010 346 1014T338 1022L339 1023Q339 1024 339 1024T340 1026L342 1030Q350 1041 364 1063T397 1116T438 1181T484 1255Q492 1269 497 1278T508 1296Q513 1304 517 1310T525 1319Q531 1327 536 1328T551 1329Q556 1329 558 1329T568 1327Q576 1325 589 1323T625 1315Q650 1309 650 1290Q650 1279 644 1270T623 1245Z"  />
<glyph unicode="&#xFE;" horiz-adv-x="956" d="M303 801Q334 816 367 831T435 857T505 876T575 883Q653 883 709 844T802 743T855 610T872 471Q872 377 842 290T754 135T617 27T438 -14Q366 -14 299 10V-145Q299 -240 299 -297T300 -386T303 -432T309 -457Q315 -472 329 -479T362 -489T398 -492T430 -494Q447 -496 451 -499T455 -520Q455 -531 453 -537T438 -543Q390 -543 340 -540T240 -537Q178 -537 131 -540T70 -543Q60 -543 58 -536T55 -520Q55 -513 55 -509T59 -501T70 -497T92 -494Q112 -492 126 -486T149 -464T163 -421T170 -352Q174 -255 176 -194T179 -93T181 -30T182 14V582Q182 740 181 871T176 1096T166 1246T152 1307Q146 1311 136 1313T115 1316T94 1317T76 1317Q62 1317 60 1322T57 1339Q57 1352 61 1356Q65 1362 79 1369T110 1384T143 1397T166 1405Q200 1418 223 1426T261 1440T285 1448T303 1450Q317 1450 317 1434Q317 1414 314 1394T311 1354Q308 1274 307 1208T304 1078T303 948T303 801ZM498 795Q445 795 398 783T303 750Q301 628 300 506T299 262V119Q329 105 353 96T400 81T449 73T508 70Q576 70 624 98T702 171T746 274T760 391Q760 435 756 482T741 574T712 659T664 729T594 777T498 795Z"  />
<glyph unicode="&#xFF;" horiz-adv-x="817" d="M836 848Q836 831 831 829T811 823Q799 821 790 808T774 784Q715 685 669 580T575 369Q495 194 423 18T279 -352Q259 -405 245 -440T219 -497T195 -531T168 -549Q151 -557 130 -558T90 -559Q72 -559 63 -557T49 -549T44 -533T43 -506Q43 -503 43 -499T45 -492Q50 -485 61 -480T78 -471Q116 -452 140 -425T184 -362Q194 -347 202 -331T219 -299Q224 -291 234 -269T258 -218T287 -155T315 -92T338 -36T352 2L330 82Q311 151 290 216T248 347T203 478T156 614Q133 682 120 720T98 779T85 805T74 817Q66 825 55 826T41 827Q35 827 33 833T31 848Q31 857 32 862T45 868Q80 868 114 866T184 864Q225 864 265 866T346 868Q352 868 354 864T356 846Q356 835 354 830T340 825Q306 825 287 823T257 815T245 802T242 784Q242 775 244 763T250 730T263 681T283 610Q318 496 354 383T428 156Q433 168 446 198T477 270T516 362T558 464T599 566T634 659T659 731T668 774Q668 788 664 797T649 813T618 822T563 825Q557 825 555 833T553 846Q553 858 556 863T571 868Q603 868 635 866T700 864Q747 864 778 867T819 870Q832 870 834 864T836 848ZM594 1042Q579 1042 565 1048T541 1065T524 1089T518 1118Q518 1149 540 1172T594 1196Q607 1196 620 1190T643 1172T659 1148T665 1120Q665 1105 659 1091T643 1066T620 1049T594 1042ZM284 1042Q270 1042 257 1048T235 1065T219 1089T213 1118Q213 1133 219 1147T235 1172T258 1189T286 1196Q300 1196 313 1190T336 1172T353 1148T360 1120Q360 1105 354 1091T337 1066T313 1049T284 1042Z"  />
<glyph unicode="&#x131;" horiz-adv-x="465" d="M428 -4Q405 -4 362 -2T254 0Q180 0 128 -2T59 -4Q53 -4 51 2T49 14Q49 21 51 29T61 37Q83 37 105 39T147 53Q156 59 162 72T174 115T181 191T184 311V453Q184 527 184 573T182 646T177 688T168 713Q159 728 139 731T98 735H72Q67 735 65 737T63 752Q63 760 66 763T76 772Q99 788 129 807T186 842Q195 847 209 857T240 876T271 893T297 901Q307 901 307 893Q307 884 304 819T301 618V264Q301 205 302 168T306 110T312 79T319 66Q329 57 342 53T369 47T397 45T424 43Q441 43 443 39T446 18Q446 6 444 1T428 -4Z"  />
<glyph unicode="&#x152;" horiz-adv-x="1735" d="M1645 315Q1645 310 1641 286T1631 228T1617 156T1603 86T1591 31T1585 6Q1580 -2 1576 -5T1563 -8Q1464 -2 1365 -1T1167 0Q1121 0 1074 -1T979 -2Q962 -2 943 -2T907 -4Q892 -6 878 -9T848 -14Q808 -21 768 -23T688 -25Q637 -25 586 -19T485 2T391 39T305 98Q250 146 212 211T149 349T115 498T104 645Q104 783 141 906T254 1121T440 1268T700 1323Q738 1323 774 1321T846 1313Q863 1310 879 1306T913 1300Q941 1298 968 1298T1022 1298Q1082 1296 1140 1296T1257 1296Q1330 1296 1402 1297T1546 1303Q1557 1303 1566 1304T1587 1305Q1596 1305 1602 1301T1608 1288V1280Q1600 1223 1597 1167T1591 1053Q1591 1050 1591 1042T1590 1026T1589 1010T1587 999Q1585 993 1581 992T1571 991H1563Q1550 991 1547 996T1544 1012Q1544 1030 1543 1055T1538 1105T1526 1152T1505 1190Q1491 1206 1461 1215T1394 1228T1324 1232T1268 1233H1262Q1221 1233 1174 1232T1096 1227Q1079 1225 1075 1213T1071 1186Q1071 1142 1070 1096T1069 989V711Q1085 711 1115 710T1182 709Q1219 709 1259 710T1335 716T1398 728T1436 748Q1450 764 1456 784T1465 823T1470 857T1477 879Q1480 882 1487 882T1497 883Q1502 883 1509 880T1516 870Q1516 812 1512 753T1507 635Q1507 597 1509 557T1511 479Q1511 467 1504 465T1485 463Q1474 463 1470 469T1466 485Q1466 499 1464 517T1456 553T1443 586T1425 612Q1417 621 1406 627T1372 639T1314 646T1221 649H1069Q1069 524 1069 401T1075 152Q1075 138 1076 124T1083 96Q1089 85 1102 79T1131 69T1166 64T1202 63H1247Q1273 63 1308 63T1379 68T1447 81T1501 106Q1519 119 1533 140T1559 185T1578 235T1591 281Q1594 292 1598 305T1606 328Q1608 338 1618 338Q1636 338 1640 332T1645 315ZM926 1178Q908 1202 878 1218T812 1244T742 1259T678 1264Q599 1264 537 1238T428 1166T348 1061T294 935T264 798T254 662Q254 595 263 523T294 381T348 249T430 139T541 63T686 35Q709 35 735 37T788 45T838 60T883 84Q897 94 906 109T922 154T931 229T934 346V1047Q934 1060 934 1077T932 1113T930 1148T926 1178Z"  />
<glyph unicode="&#x153;" horiz-adv-x="1354" d="M1296 569Q1296 560 1291 557T1274 551Q1141 523 1026 497T813 446Q813 387 821 322T855 202T926 112T1047 76Q1118 76 1175 106T1282 186L1292 182V150Q1292 134 1288 126T1272 106Q1246 79 1213 55T1143 13T1067 -15T989 -25Q896 -25 833 26T739 162Q687 72 610 25T430 -23Q340 -23 275 16T167 119T105 262T84 420Q84 508 109 591T183 739T305 843T475 883Q568 883 640 834T752 700Q770 739 795 773T853 834T924 875T1008 891Q1067 891 1111 868T1186 808T1238 722T1270 625Q1273 614 1276 611T1288 608Q1291 608 1292 603T1295 591T1296 578T1296 569ZM975 831Q941 831 916 813T874 766T845 701T827 627T818 555T815 496Q880 513 944 528T1071 561Q1083 565 1094 567T1115 574T1129 587T1135 610Q1135 641 1124 679T1092 752T1042 808T975 831ZM426 821Q363 821 321 786T255 699T220 588T209 479Q209 431 215 384T236 291Q248 249 270 205T323 124T395 63T485 39Q546 39 586 74T651 160T686 270T696 377Q696 430 689 488T664 602T616 704T537 784Q512 801 484 811T426 821Z"  />
<glyph unicode="&#x160;" horiz-adv-x="901" d="M432 -25Q384 -25 329 -17T201 4Q188 6 180 7T170 8Q162 8 158 5T150 -2L147 -6Q141 -12 135 -12Q132 -12 129 -12T123 -8V-4Q120 5 117 27T111 80T104 143T98 209T94 270T92 315Q92 337 95 344T111 354Q114 356 116 356T121 358Q127 358 129 355T131 346Q133 342 133 328Q137 302 145 274T164 218T188 166T215 125Q253 80 315 59T453 37Q507 37 550 55T625 107T673 184T690 281Q690 329 683 369T649 447T574 524T440 610Q409 627 380 644T324 678Q279 706 245 735T187 801T151 881T139 981Q139 1057 164 1120T234 1228T341 1298T479 1323Q529 1323 578 1319T680 1305Q692 1302 698 1301T709 1299T716 1298T723 1298Q728 1298 732 1300T741 1305Q746 1308 748 1308T752 1309Q760 1309 762 1307T764 1298Q761 1275 761 1250T760 1202Q760 1190 760 1174T762 1140T764 1107T766 1083Q768 1065 770 1051T772 1030Q772 1021 769 1018T754 1012H745Q737 1012 735 1022Q732 1027 729 1041L725 1057Q720 1075 715 1095T702 1135T685 1173T662 1204Q651 1216 636 1227T599 1248T544 1262T467 1268Q423 1268 385 1251T320 1204T276 1132T260 1042Q260 986 270 944T306 866T378 795T496 721Q554 689 614 654T723 571Q767 525 794 463T821 309Q821 225 791 162T708 58T584 -4T432 -25ZM273 1761Q275 1761 278 1760T285 1753L326 1712Q338 1700 359 1679T401 1636T438 1600T459 1585Q462 1585 465 1586T475 1594T494 1613T529 1649Q633 1759 643 1759Q648 1759 656 1750T664 1735Q662 1730 662 1728T660 1722Q655 1717 648 1706T625 1673Q613 1656 599 1634T571 1588T544 1543T522 1503Q507 1475 498 1459T482 1435T470 1425T457 1423Q451 1423 446 1424T434 1434Q431 1439 428 1444T420 1458Q415 1466 410 1476T396 1499Q351 1578 319 1630T264 1718Q259 1724 258 1730T256 1741Q256 1747 262 1754T273 1761Z"  />
<glyph unicode="&#x161;" horiz-adv-x="662" d="M301 -25Q261 -25 224 -20T147 -6Q138 -4 129 -2T111 0Q106 0 101 -1T92 -2Q87 -2 86 1T84 16Q84 23 86 48T88 117Q88 162 85 194T82 238Q82 250 93 254T115 258Q128 258 131 246Q139 195 149 160T180 96Q206 58 243 41T328 23Q363 23 391 34T440 67T470 116T481 180Q481 241 454 280T385 349T296 404T207 462T139 538T111 649Q111 707 131 752T186 827T269 873T373 889Q405 889 437 884T502 872Q505 872 507 871T512 870Q518 870 522 873T532 877Q545 877 545 866Q546 851 547 826T550 773T553 719T555 674Q555 663 546 661T528 659Q516 659 516 670Q514 673 514 676T512 682Q501 719 490 748T460 797T413 827T342 838Q311 838 287 827T247 797T222 751T213 696Q213 657 223 629T252 579T296 539T354 502Q398 475 441 450T518 392T573 317T594 215Q594 149 571 103T507 29T414 -12T301 -25ZM164 1331Q166 1331 169 1330T176 1323L217 1282Q229 1270 250 1249T292 1206T329 1170T350 1155Q353 1155 356 1156T366 1164T385 1183T420 1219Q524 1329 534 1329Q539 1329 547 1320T555 1305Q553 1300 553 1298T551 1292Q546 1287 539 1276T516 1243Q504 1226 490 1204T462 1158T435 1113T413 1073Q398 1045 389 1029T373 1005T361 995T348 993Q342 993 337 994T325 1004Q322 1009 319 1014T311 1028Q306 1036 301 1046T287 1069Q242 1148 210 1200T155 1288Q150 1294 149 1300T147 1311Q147 1317 153 1324T164 1331Z"  />
<glyph unicode="&#x178;" horiz-adv-x="1008" d="M1022 1262Q1019 1258 1016 1258T1010 1257Q1003 1257 998 1256T987 1253Q981 1251 975 1249T958 1241Q940 1229 916 1192T856 1092Q811 1014 747 898T596 616Q591 608 588 602T580 588Q578 583 576 580T573 571V563Q573 488 572 433T571 336Q571 300 571 273T572 224T574 185T578 150Q581 115 585 94T600 61Q609 51 625 47T660 40T695 38T723 37Q732 37 734 33T737 16Q737 2 731 -4H725H715Q656 -2 598 -1T481 0Q438 0 397 0T311 -4L295 -6H287Q279 -6 277 -2T274 14Q274 24 276 28T289 35Q293 37 303 37Q319 39 332 39T358 41Q371 44 380 47T399 59Q411 68 418 92T428 161T433 276T436 449V510V528Q436 533 436 537T434 547Q431 555 426 567T408 602Q363 690 327 762T262 893T208 1001T162 1092Q127 1160 103 1197T61 1249Q53 1257 45 1257T27 1260H20Q10 1260 10 1272V1284Q10 1295 13 1299T27 1303H43Q97 1299 134 1298T199 1296Q220 1296 237 1296T273 1298T310 1300T352 1303H379H385Q395 1303 395 1292V1280Q395 1271 394 1267T381 1260Q370 1258 351 1258T314 1254T282 1244T268 1219Q268 1209 272 1194T288 1151T322 1076T381 954Q406 904 427 863T468 783T506 709T545 635Q597 735 641 824T719 981Q765 1072 785 1127T805 1206Q805 1222 798 1231T777 1246T739 1252T684 1255Q681 1255 674 1255T664 1257Q659 1259 658 1263T657 1276Q657 1285 657 1290T662 1298Q664 1300 670 1300H680Q726 1300 773 1299T866 1298Q889 1298 912 1298T958 1300Q966 1300 974 1301Q981 1302 988 1302T1001 1303H1004H1014Q1020 1303 1023 1299T1026 1282Q1026 1264 1022 1262ZM674 1472Q659 1472 645 1478T621 1495T604 1519T598 1548Q598 1579 620 1602T674 1626Q687 1626 700 1620T723 1602T739 1578T745 1550Q745 1535 739 1521T723 1496T700 1479T674 1472ZM364 1472Q350 1472 337 1478T315 1495T299 1519T293 1548Q293 1563 299 1577T315 1602T338 1619T366 1626Q380 1626 393 1620T416 1602T433 1578T440 1550Q440 1535 434 1521T417 1496T393 1479T364 1472Z"  />
<glyph unicode="&#x17D;" horiz-adv-x="1065" d="M1006 1257Q927 1133 862 1032T739 839T625 663T512 485T388 290T242 61Q373 65 476 67T657 74Q735 79 784 88T856 113Q873 124 886 140T911 178Q924 200 935 227T963 287Q965 290 966 296T973 305Q975 307 981 307H995Q1016 304 1016 291Q1016 280 1010 263T997 223Q989 200 982 173T965 115Q954 71 948 48T938 12Q935 0 932 -3T920 -6Q915 -6 909 -6T889 -4T853 -2T792 0T699 1T567 2Q537 2 500 2T424 2T345 1T274 0T217 -1T184 -2L82 -6Q63 -6 60 -3T57 18V25Q57 34 58 39T63 51Q130 153 186 238T292 396T384 534T468 661T549 785T633 916T723 1063T827 1235Q710 1233 621 1233T465 1229Q397 1226 352 1218T281 1198Q250 1183 232 1152T203 1090Q198 1077 194 1064T184 1038Q179 1024 174 1018T160 1012H152Q147 1012 139 1015T131 1028Q131 1033 132 1039T133 1051Q135 1066 140 1090T150 1139T161 1188T172 1225Q181 1257 186 1273T197 1298Q197 1302 199 1305T205 1309H209Q214 1309 217 1309T225 1307Q239 1300 286 1298T403 1296Q470 1296 545 1296T690 1297T813 1299T891 1303Q915 1304 937 1305Q956 1306 974 1306T1004 1307Q1012 1307 1014 1302T1016 1284Q1016 1281 1014 1273T1006 1257ZM353 1761Q355 1761 358 1760T365 1753L406 1712Q418 1700 439 1679T481 1636T518 1600T539 1585Q542 1585 545 1586T555 1594T574 1613T609 1649Q713 1759 723 1759Q728 1759 736 1750T744 1735Q742 1730 742 1728T740 1722Q735 1717 728 1706T705 1673Q693 1656 679 1634T651 1588T624 1543T602 1503Q587 1475 578 1459T562 1435T550 1425T537 1423Q531 1423 526 1424T514 1434Q511 1439 508 1444T500 1458Q495 1466 490 1476T476 1499Q431 1578 399 1630T344 1718Q339 1724 338 1730T336 1741Q336 1747 342 1754T353 1761Z"  />
<glyph unicode="&#x17E;" horiz-adv-x="782" d="M745 240Q745 232 742 213T733 170T720 118T706 67T693 25T684 0Q682 -3 680 -6T672 -10Q670 -10 668 -10T664 -8Q651 -3 617 -1T512 2Q352 2 244 -2T66 -6Q52 -6 50 -4T47 8Q47 20 53 29Q98 92 143 154T233 281Q326 415 416 549T600 817Q581 817 550 817T481 815T404 812T328 807T264 797T221 780Q203 768 191 749T170 707T154 662T137 621Q134 614 127 614Q125 614 120 614T109 616T99 620T94 627Q94 632 96 635T100 643Q109 664 114 692T123 750T128 809T135 862Q137 871 139 872T150 874Q162 874 174 869T207 862Q239 860 272 859T340 858Q385 858 428 859T516 860Q569 860 606 860T669 862T709 863T729 864Q743 864 743 858V848Q743 843 743 839T737 829Q694 764 649 701T559 573Q469 440 381 309T201 45H279Q319 45 366 46T457 51T539 62T600 82Q623 94 638 112T663 152T682 196T698 242Q700 247 703 253T715 260Q724 260 734 256T745 240ZM236 1331Q238 1331 241 1330T248 1323L289 1282Q301 1270 322 1249T364 1206T401 1170T422 1155Q425 1155 428 1156T438 1164T457 1183T492 1219Q596 1329 606 1329Q611 1329 619 1320T627 1305Q625 1300 625 1298T623 1292Q618 1287 611 1276T588 1243Q576 1226 562 1204T534 1158T507 1113T485 1073Q470 1045 461 1029T445 1005T433 995T420 993Q414 993 409 994T397 1004Q394 1009 391 1014T383 1028Q378 1036 373 1046T359 1069Q314 1148 282 1200T227 1288Q222 1294 221 1300T219 1311Q219 1317 225 1324T236 1331Z"  />
<glyph unicode="&#x192;" horiz-adv-x="870" d="M860 1124Q840 1124 831 1141T811 1179T783 1217T731 1235Q683 1235 651 1214T596 1159T561 1085T537 1006Q517 930 504 853T479 696H649Q655 696 655 688Q655 685 653 675T647 653Q642 638 640 635T631 631H471Q457 531 444 432T414 231Q404 180 396 130T375 29Q353 -58 314 -140T205 -281Q174 -307 139 -324T61 -342Q46 -342 29 -337T-1 -323T-24 -300T-33 -268Q-33 -258 -28 -246T-15 -224T4 -208T27 -201Q45 -201 56 -209T77 -228T98 -247T127 -256Q158 -256 178 -236Q188 -224 198 -201T219 -133T242 -20T268 150L336 631H217Q209 631 209 637Q209 640 211 651T219 682Q221 687 222 687T229 688L346 696Q355 752 366 808T392 920T429 1027T483 1128Q506 1164 538 1199T608 1261T690 1304T778 1321Q806 1321 834 1313T884 1289T921 1250T936 1196Q936 1162 914 1143T860 1124Z"  />
<glyph unicode="&#x2C6;" horiz-adv-x="1018" d="M700 993Q698 993 695 994T688 1001L647 1042Q635 1054 614 1075T572 1118T535 1154T514 1169Q511 1169 508 1168T498 1160T479 1141T444 1106Q340 995 330 995Q325 995 317 1004T309 1020Q311 1025 311 1027T313 1032Q318 1037 325 1048T348 1081Q360 1098 374 1120T402 1166T429 1211T451 1251Q466 1279 475 1295T491 1319T503 1329T516 1331Q522 1331 527 1330T539 1321Q542 1316 545 1311T553 1296Q558 1288 564 1278T578 1255Q623 1177 654 1124T709 1036Q717 1025 717 1014Q717 1008 711 1001T700 993Z"  />
<glyph unicode="&#x2C7;" horiz-adv-x="1018" d="M326 1331Q328 1331 331 1330T338 1323L379 1282Q391 1270 412 1249T454 1206T491 1170T512 1155Q515 1155 518 1156T528 1164T547 1183T582 1219Q686 1329 696 1329Q701 1329 709 1320T717 1305Q715 1300 715 1298T713 1292Q708 1287 701 1276T678 1243Q666 1226 652 1204T624 1158T597 1113T575 1073Q560 1045 551 1029T535 1005T523 995T510 993Q504 993 499 994T487 1004Q484 1009 481 1014T473 1028Q468 1036 463 1046T449 1069Q404 1148 372 1200T317 1288Q312 1294 311 1300T309 1311Q309 1317 315 1324T326 1331Z"  />
<glyph unicode="&#x2DA;" horiz-adv-x="1020" d="M520 1274Q483 1274 459 1243T434 1161Q434 1109 458 1078T520 1047Q558 1047 583 1078T608 1161Q608 1212 583 1243T520 1274ZM520 993Q486 993 458 1005T409 1040T377 1094T365 1161Q365 1197 377 1227T410 1280T460 1314T524 1327Q556 1327 584 1314T633 1279T666 1226T678 1161Q678 1125 666 1094T633 1041T583 1006T520 993Z"  />
<glyph unicode="&#x2DC;" horiz-adv-x="1018" d="M733 1174Q665 1053 600 1053Q577 1053 551 1064T487 1102Q468 1116 455 1124T432 1137T413 1143T393 1145Q375 1145 360 1139T333 1122T311 1099T291 1073Q284 1059 279 1059Q274 1059 266 1063T258 1075V1079Q258 1080 261 1087T269 1104T279 1126T291 1147Q322 1206 350 1229T416 1253Q437 1253 462 1244T522 1208Q557 1182 577 1173T621 1163Q636 1163 648 1166T672 1178T697 1200T727 1237Q732 1243 734 1246T739 1249Q742 1249 751 1246T760 1233Q760 1227 751 1211T733 1174Z"  />
<glyph unicode="&#x2013;" horiz-adv-x="1004" d="M80 430V489H924V430H80Z"  />
<glyph unicode="&#x2014;" horiz-adv-x="2007" d="M80 432V492H1927V432H80Z"  />
<glyph unicode="&#x2018;" horiz-adv-x="408" d="M166 1100Q166 1069 171 1050T186 1020Q196 1008 210 1000T238 985Q261 974 282 957T303 913Q303 904 300 894T287 870Q270 850 252 839T213 827Q185 827 154 852Q112 886 93 935T74 1047Q74 1127 116 1197T231 1319Q273 1348 300 1356T338 1364Q346 1364 360 1354T383 1337Q335 1326 295 1302T227 1244T182 1174T166 1100Z"  />
<glyph unicode="&#x2019;" horiz-adv-x="408" d="M176 877Q163 868 147 860T115 845T88 834T70 829Q66 829 60 832T48 839T35 848T25 856Q73 867 113 892T181 950T226 1021T242 1096Q242 1138 226 1164T170 1208Q147 1219 126 1236T104 1280Q104 1300 121 1323Q138 1343 156 1354T195 1366Q209 1366 225 1360T256 1341Q296 1309 315 1260T334 1147Q334 1107 323 1069T291 995T241 930T176 877Z"  />
<glyph unicode="&#x201A;" horiz-adv-x="408" d="M344 -35Q344 -76 333 -115T300 -190T250 -255T186 -307Q179 -312 165 -319T134 -335T102 -348T80 -354Q72 -354 58 -344T35 -328Q75 -319 113 -297T183 -243T233 -172T252 -88Q252 -52 242 -30T217 5T184 27T151 43T125 64T115 98Q115 113 123 128T145 155T174 174T205 182Q222 182 237 176T266 158Q310 124 327 72T344 -35Z"  />
<glyph unicode="&#x201C;" horiz-adv-x="807" d="M530 1104Q530 1085 533 1062T549 1024Q561 1010 581 1000T620 979T654 954T668 918Q668 903 660 888T638 861T608 842T578 834Q561 834 546 840T516 858Q472 893 455 945T438 1051Q438 1092 449 1131T481 1206T530 1271T594 1323Q601 1327 615 1335T646 1351T677 1364T700 1370Q708 1370 719 1363T745 1343Q705 1334 667 1312T598 1259T549 1188T530 1104ZM188 1104Q188 1067 198 1045T223 1010T257 988T290 972T316 952T326 918Q326 903 318 888T296 861T267 842T236 834Q219 834 205 840T176 858Q132 893 114 944T96 1051Q96 1092 107 1131T140 1206T190 1271T254 1323Q261 1327 275 1335T306 1351T337 1364T360 1370Q364 1370 370 1367T383 1360T396 1351T406 1343Q366 1334 327 1312T257 1259T207 1188T188 1104Z"  />
<glyph unicode="&#x201D;" horiz-adv-x="807" d="M682 1151Q682 1111 671 1072T638 997T589 931T526 879Q520 875 505 868T474 853T442 840T420 834Q411 834 396 844T375 860Q415 869 453 891T522 944T571 1015T590 1098Q590 1116 588 1139T571 1178Q560 1191 540 1201T501 1222T467 1248T453 1284Q453 1299 461 1314T483 1341T512 1362T543 1370Q560 1370 576 1364T604 1346Q626 1329 641 1307T665 1259T678 1206T682 1151ZM342 1151Q342 1110 330 1071T297 996T247 930T184 879Q178 875 163 868T132 853T100 840T78 834Q74 834 68 837T55 844T42 852T33 860Q73 869 111 891T181 944T231 1015T250 1098Q250 1122 247 1139T236 1169T214 1191T178 1212Q168 1218 157 1225T136 1240T120 1260T113 1284Q113 1299 121 1314T143 1342T172 1362T203 1370Q220 1370 235 1364T262 1346Q307 1310 324 1259T342 1151Z"  />
<glyph unicode="&#x201E;" horiz-adv-x="807" d="M692 -35Q692 -76 681 -115T649 -190T600 -256T537 -307Q530 -311 515 -318T484 -333T452 -346T430 -352Q421 -352 407 -343T385 -328Q425 -319 463 -297T532 -243T581 -172T600 -88Q600 -69 597 -47T582 -8Q570 6 551 16T512 38T479 63T465 98Q465 113 473 128T494 155T522 174T553 182Q570 182 585 176T614 158Q659 123 675 71T692 -35ZM352 -35Q352 -77 341 -116T308 -190T258 -254T195 -307Q187 -313 173 -321T143 -336T112 -349T88 -354Q80 -354 66 -344T43 -328Q84 -319 123 -297T192 -244T241 -173T260 -88Q260 -64 257 -47T246 -17T224 6T188 27Q177 32 166 38T145 53T129 73T123 98Q123 113 131 128T153 155T182 174T213 182Q230 182 245 176T274 158Q318 124 335 72T352 -35Z"  />
<glyph unicode="&#x2020;" horiz-adv-x="870" d="M797 625Q792 625 785 626T768 633Q722 652 685 664T614 684T544 695T467 698Q468 594 482 517T526 377Q531 369 533 362T535 352Q535 349 535 344T530 330Q516 273 506 199T488 26T476 -195T471 -473Q471 -514 464 -526T430 -539Q415 -539 407 -537T395 -528T390 -508T389 -471Q387 -301 383 -172T373 53T357 216T336 330Q333 338 333 342T332 350Q332 363 342 383Q360 423 371 457T390 527T400 603T406 696Q359 694 322 691T251 682T188 665T123 639Q91 627 74 627Q62 627 45 638T10 664T-19 696T-31 725Q-31 739 -19 756T10 790T45 816T78 827Q86 827 96 824T113 819Q152 801 186 789T255 770T326 759T406 756Q403 834 398 895T385 1006T366 1099T340 1182Q337 1190 336 1196T334 1206Q334 1221 345 1241T373 1280T408 1312T440 1325Q452 1325 470 1312T504 1280T531 1241T543 1206Q543 1196 535 1180Q516 1139 504 1096T483 1003T472 892T467 756Q512 757 548 761T619 772T689 790T766 817Q781 823 793 823Q806 823 825 813T860 789T889 759T901 729Q901 714 890 696T864 662T830 636T797 625Z"  />
<glyph unicode="&#x2021;" horiz-adv-x="870" d="M819 -39Q814 -39 806 -36T788 -27Q740 -1 665 15T504 37Q510 -109 528 -219T573 -399Q573 -404 574 -410T575 -422Q575 -438 565 -458T541 -497T511 -527T483 -539Q474 -539 460 -526T431 -495T407 -457T397 -422Q397 -417 397 -412T401 -399Q419 -352 431 -305T452 -205T464 -94T469 37Q420 35 380 31T306 18T241 -1T182 -29Q179 -31 171 -34T158 -37Q150 -37 137 -29T102 -2Q82 13 74 27T66 53Q66 67 75 84T98 117T126 143T152 154Q155 154 161 152T176 145Q242 111 309 93T436 74H469Q467 119 462 164T448 249T430 322T408 375Q397 394 397 399Q397 404 400 412T406 426Q436 494 452 569T471 727Q429 726 389 722T313 709T248 691T199 670Q165 651 156 651Q146 651 131 661T101 687T77 717T66 743Q66 755 76 772T100 804T131 831T160 842Q163 842 171 839T190 829Q246 797 317 781T471 762Q468 845 463 907T451 1019T433 1110T408 1192Q401 1206 401 1217Q401 1230 411 1249T435 1284T466 1313T494 1325Q504 1325 518 1313T546 1284T570 1249T580 1217Q580 1207 573 1190Q556 1148 545 1108T526 1020T514 909T508 762Q602 767 670 782T795 827Q814 838 819 838Q830 838 846 828T877 804T902 775T913 750Q913 738 903 721T877 688T846 661T819 649Q813 649 797 657Q761 676 729 689T662 710T591 722T508 727Q512 671 516 633T526 562T543 497T571 422Q574 414 574 408T575 399Q575 396 573 388T569 375Q558 352 547 315T527 236T513 152T506 76Q547 77 587 81T664 93T729 111T780 133Q810 150 821 150Q831 150 846 140T877 114T902 84T913 59Q913 47 903 30T878 -2T847 -28T819 -39Z"  />
<glyph unicode="&#x2022;" horiz-adv-x="1049" d="M524 395Q470 395 423 415T341 471T285 555T264 657Q264 711 284 758T340 841T423 897T524 918Q578 918 625 898T708 842T763 759T784 657Q784 603 764 555T708 472T626 416T524 395Z"  />
<glyph unicode="&#x2026;" horiz-adv-x="1315" d="M1096 -23Q1078 -23 1060 -15T1028 8T1006 41T997 78Q997 97 1005 115T1028 147T1060 169T1096 178Q1114 178 1132 170T1163 147T1185 114T1194 78Q1194 59 1186 41T1164 9T1132 -14T1096 -23ZM659 -23Q641 -23 624 -15T594 8T572 41T563 78Q563 97 571 115T592 147T623 169T659 178Q678 178 695 170T727 147T749 114T758 78Q758 59 750 41T727 9T696 -14T659 -23ZM219 -23Q201 -23 184 -15T154 8T132 41T123 78Q123 97 131 115T152 147T183 169T219 178Q237 178 255 170T286 147T308 114T317 78Q317 60 309 42T287 9T255 -14T219 -23Z"  />
<glyph unicode="&#x2030;" horiz-adv-x="1833" d="M1501 -14Q1447 -14 1402 9T1325 75T1275 177T1257 309Q1257 386 1277 449T1335 557T1425 626T1540 651Q1592 651 1636 628T1713 561T1763 459T1782 330Q1782 256 1761 193T1702 84T1613 12T1501 -14ZM295 657Q241 657 197 680T120 745T69 847T51 979Q51 1055 71 1118T129 1226T219 1296T334 1321Q387 1321 431 1298T506 1231T555 1129T573 999Q573 925 552 863T494 755T406 683T295 657ZM633 639Q564 502 516 407T436 246T384 141T352 76T333 33T319 -2H233Q258 43 317 158T473 463Q560 635 622 757T726 963T796 1101T840 1190T867 1250T889 1300H975Q960 1275 936 1230T872 1108T774 917T633 639ZM877 -14Q823 -14 778 9T701 75T651 177T633 309Q633 386 653 449T711 557T799 626T913 651Q966 651 1010 628T1087 561T1137 459T1155 330Q1155 256 1134 193T1075 84T987 12T877 -14ZM1497 590Q1467 590 1442 573T1400 525T1372 450T1362 352Q1362 287 1375 231T1413 134T1469 70T1540 47Q1571 47 1596 63T1638 111T1665 185T1675 283Q1675 349 1662 405T1624 502T1568 567T1497 590ZM291 1257Q261 1257 237 1240T195 1192T168 1118T158 1020Q158 955 171 900T208 804T263 740T332 717Q394 717 430 779T467 950Q467 1017 454 1073T418 1170T362 1234T291 1257ZM872 590Q842 590 818 573T776 525T749 450T739 352Q739 286 752 230T789 134T844 70T913 47Q944 47 969 63T1012 111T1039 185T1049 283Q1049 349 1036 405T999 502T943 567T872 590Z"  />
<glyph unicode="&#x2039;" horiz-adv-x="528" d="M475 801Q475 794 458 766T415 699T359 617T303 536T260 474T242 446Q242 438 246 434Q249 429 254 424T262 414Q268 406 285 381T326 323T374 252T419 182T453 126T467 98Q467 96 463 92T454 85T443 79T436 76H434Q419 91 404 106T375 137Q307 209 239 280T98 420Q93 423 90 427T86 438Q86 443 96 456T123 487T159 524T197 561T229 592T248 610Q294 657 340 704T428 803Q430 806 435 812T444 819Q446 819 451 817T461 812T471 806T475 801Z"  />
<glyph unicode="&#x203A;" horiz-adv-x="528" d="M459 457Q459 453 441 433T394 383T331 319T266 253T210 197T178 162Q176 159 164 145T138 116T112 89T96 76Q91 76 81 82T70 94Q70 101 87 129T130 196T186 278T242 358T285 421T303 449Q303 450 287 475T245 536T191 616T136 697T95 763T78 797Q78 799 82 803T91 810T101 816T109 819Q113 817 121 809T139 790T157 771T168 758Q236 686 306 616T446 475Q450 472 454 467T459 457Z"  />
<glyph unicode="&#x2044;" horiz-adv-x="190" d="M131 639Q68 509 23 416T-54 257T-104 151T-136 81T-155 35T-168 -2H-268Q-250 32 -192 147T-37 463Q51 643 112 768T214 978T280 1114T319 1199T342 1253T360 1298H459Q446 1277 422 1230T358 1105T263 911T131 639Z"  />
</font>
</defs>
</svg>
