<?xml  version="1.0" encoding="UTF-8"?>
<!DOCTYPE svg PUBLIC "-//W3C//DTD SVG 1.0//EN" "http://www.w3.org/TR/2001/REC-SVG-20010904/DTD/svg10.dtd" >
<svg xmlns="http://www.w3.org/2000/svg" >
<metadata>
<version>1.0</version>
<id><![CDATA[Legacy Serif ITC W01 Lt Cn It]]></id>
<vendor>Monotype Imaging Inc.</vendor>
<credits>
<name>Fonts.com WebFonts</name>
<URL>http://webfonts.fonts.com</URL>
<role>Home of the Web fonts</role>
</credits>
<license>
<URL>http://webfonts.fonts.com/Legal</URL>
</license>
<copyright><![CDATA[Copyright 2009 International Typeface Corporation. All rights reserved.]]></copyright>
<trademark><![CDATA[ITC Legacy is a trademark of International Typeface Corporation registered in the U.S. Patent & Trademark Office and may be registered in certain jurisdictions.]]></trademark>
<licensee>
<name></name>
</licensee>
</metadata>
<defs >
<font horiz-adv-x="853" id="dd13fb7e-f510-4dd7-b21e-9ddbe6bb5107">
<font-face font-family="" panose-1="2 2 4 6 6 4 8 9 3 3" ascent="1741" descent="-569" units-per-em="2048" alphabetic="0">
</font-face>
<missing-glyph horiz-adv-x="0" />

<glyph unicode="&#xA;" />
<glyph unicode="&#xD;" horiz-adv-x="0" />
<glyph unicode=" " horiz-adv-x="338" />
<glyph unicode="!" horiz-adv-x="508" d="M223 330Q220 313 218 304T213 289T206 283T195 281Q187 281 183 281T178 287Q178 293 181 305T186 328Q208 431 223 546T252 782T279 1025T313 1266Q317 1287 326 1300T349 1321T379 1330T414 1333Q434 1333 445 1325T457 1294Q457 1288 457 1282T455 1268Q431 1144 399 1024T335 787T273 556T223 330ZM147 -20Q134 -20 121 -13T97 6T79 31T72 57Q72 72 80 86T100 112T127 131T156 139Q169 139 182 132T206 113T224 88T231 61Q230 47 222 33T202 7T176 -12T147 -20Z"  />
<glyph unicode="&quot;" horiz-adv-x="850" d="M418 1030Q398 981 381 930T350 825Q348 814 347 807T343 797T337 792T326 791Q309 791 309 801Q309 806 310 811T313 825Q324 879 329 930T340 1036Q345 1095 348 1147T365 1257Q373 1299 393 1310T446 1321Q468 1321 481 1314T494 1286Q494 1264 488 1234T470 1171T446 1101T418 1030ZM713 1030Q693 981 676 930T645 825Q643 814 642 807T638 797T632 792T621 791Q604 791 604 801Q604 806 605 811T608 825Q619 879 624 930T635 1036Q640 1095 643 1147T659 1257Q667 1299 688 1310T741 1321Q763 1321 775 1314T788 1286Q788 1264 782 1234T765 1171T741 1101T713 1030Z"  />
<glyph unicode="#" horiz-adv-x="850" d="M854 825L850 821Q847 818 846 815T840 811L649 815Q642 785 633 744T615 661T598 579T584 512L782 514Q785 514 788 514T791 508Q791 504 788 500L772 430Q770 422 768 420T760 418L563 420L477 12Q477 9 475 5T467 -2L426 -4Q421 -4 420 -4T418 2Q418 5 418 7T420 16Q426 41 434 75T451 149T469 228T486 304T500 371T510 420Q486 420 452 420T383 420T314 420T258 418Q251 389 241 340T218 233T194 118T172 12Q170 3 168 1T158 -2Q153 -2 149 -2T140 -3Q136 -4 131 -4Q122 -4 118 -3T113 6Q113 8 114 11T115 18L207 418H20Q14 418 11 419T8 426Q8 429 8 432T10 440L29 504Q31 510 33 513T41 516L227 512Q236 551 242 577T253 624T261 662T269 700T279 747T293 813Q257 812 222 812T158 811H96Q86 811 86 823V827L109 901Q114 911 123 911L313 907L391 1286Q393 1292 394 1296T403 1300L440 1303H444Q451 1303 451 1296V1292L365 905H616L696 1288Q698 1294 700 1297T709 1300L743 1305Q748 1305 752 1304T756 1294Q756 1292 756 1282T752 1260L668 905Q690 906 723 906T789 908Q826 909 866 909Q872 909 872 901Q872 899 871 897T870 893L854 825ZM279 512H530Q546 580 562 656T596 813Q558 814 520 814T447 815T385 815T344 815L279 512Z"  />
<glyph unicode="$" horiz-adv-x="850" d="M733 975Q724 975 723 982T721 997Q721 1033 718 1067T702 1129T666 1177T600 1206L504 696Q538 659 574 617T639 529T688 432T707 328Q707 263 685 204T622 99T527 26T406 -2Q396 -2 387 -2T369 0L336 -199Q334 -210 330 -212T315 -215Q314 -215 309 -215T298 -215T288 -214T283 -211L326 2Q284 7 241 14T160 39Q152 43 143 43Q138 43 130 39T119 35Q108 35 105 39T102 59Q102 128 109 198T127 336Q129 347 130 353T145 360Q156 360 160 353T164 336Q164 328 163 321T162 307Q162 254 167 211T190 135T242 82T336 55L434 602Q400 639 366 675T305 751T261 835T244 934Q244 1006 265 1067T328 1172T428 1241T563 1266L590 1417Q592 1427 599 1429T633 1432Q641 1432 641 1430L608 1262Q630 1260 648 1255T682 1243T709 1232T727 1227Q739 1227 749 1235T770 1243Q778 1243 778 1237Q778 1225 775 1201T768 1146T760 1081T754 1014Q753 1006 753 999T753 987T747 978T733 975ZM342 977Q342 939 352 907T380 846T420 790T467 737L553 1210H543Q490 1210 452 1192T390 1143T354 1069T342 977ZM379 53Q440 54 483 73T552 127T590 210T602 315Q602 353 591 386T563 451T522 510T475 565L379 53Z"  />
<glyph unicode="%" horiz-adv-x="1233" d="M885 -14Q834 -14 798 9T739 70T705 152T694 240Q694 282 702 331T728 430T770 524T829 605T905 661T999 682Q1051 682 1088 662T1150 607T1186 530T1198 440Q1198 398 1189 348T1162 248T1118 150T1056 67T978 8T885 -14ZM240 -53Q233 -53 225 -49T209 -37T198 -22T193 -8Q193 3 203 15T219 35Q314 162 404 292T582 555T756 820T930 1087Q879 1064 828 1048T719 1032Q663 1032 606 1049V1016Q606 973 598 923T574 823T533 725T475 642T398 583T303 561Q250 561 214 584T156 645T125 728T115 819Q115 862 123 911T149 1008T192 1100T252 1177T329 1231T424 1251Q487 1251 530 1217T594 1124Q626 1098 664 1090T743 1081Q765 1081 799 1087T867 1105T932 1133T977 1167Q985 1178 998 1199T1025 1242T1054 1280T1081 1296Q1098 1296 1110 1284T1122 1255Q1122 1234 1113 1219T1091 1193T1063 1171T1036 1147L969 1053Q918 978 868 906T768 760Q681 632 600 503T434 244Q396 182 356 122T276 -2Q273 -7 270 -15T262 -32T252 -46T240 -53ZM1008 629Q969 629 938 605T883 543T842 458T813 362T797 271T791 199Q791 175 796 147T814 93T846 52T897 35Q937 35 969 59T1026 121T1069 208T1099 306T1116 399T1122 475Q1122 501 1116 528T1095 578T1060 615T1008 629ZM532 1090Q509 1114 498 1135T477 1188Q455 1202 426 1202Q388 1202 357 1178T301 1116T260 1029T231 934T215 843T209 772Q209 745 215 717T234 666T268 629T322 614Q358 614 387 636T441 693T483 773T513 861T531 946T537 1014Q537 1032 537 1051T532 1090Z"  />
<glyph unicode="&amp;" horiz-adv-x="1612" d="M645 813Q671 840 707 879T775 964T831 1055T854 1143Q854 1153 851 1162T844 1179T837 1197T834 1217Q834 1238 849 1259T889 1280Q905 1280 916 1273T933 1254T943 1228T946 1200Q946 1165 923 1117T861 1013T769 897T657 776L270 381Q288 314 322 259T403 165T510 104T641 82Q774 82 886 131T1079 267T1207 467T1253 713Q1253 749 1245 784T1219 847T1172 892T1102 909Q1060 909 1024 890T960 840T917 770T901 690Q901 672 915 666T946 653T977 635T991 596Q991 570 974 551T930 532Q907 532 892 543T867 571T854 608T850 647Q850 718 876 782T948 895T1056 972T1190 1001Q1230 1001 1271 987T1352 952T1428 906T1494 860T1546 825T1581 811Q1590 811 1595 820T1604 843T1607 869T1608 889Q1608 917 1603 932T1589 957T1572 970T1555 978T1542 990T1536 1012Q1536 1032 1549 1047T1583 1063Q1604 1063 1616 1051T1634 1020T1641 983T1642 948Q1642 938 1642 916T1639 868T1633 813T1621 761T1602 722T1573 707Q1559 707 1536 719T1485 751T1424 793T1359 837T1295 874T1235 897Q1269 857 1284 808T1300 707Q1300 610 1279 518T1217 343T1117 191T984 71T820 -7T629 -35Q521 -35 438 6T299 116T215 276T186 467Q186 578 217 672T317 854Q336 879 358 901T407 940T462 967T524 977Q554 977 577 966T615 935T639 892T647 840Q647 833 647 826T645 813ZM467 879Q431 879 401 862T346 815T304 749T274 674T256 598T250 532Q250 503 253 475T262 418Q327 481 388 546T510 678Q527 696 542 718T557 768Q557 787 551 807T534 843T505 869T467 879Z"  />
<glyph unicode="&apos;" horiz-adv-x="532" d="M395 1030Q355 930 328 825Q326 814 325 807T321 797T315 792T303 791Q287 791 287 801Q287 806 288 811T291 825Q302 879 307 930T317 1036Q322 1095 326 1147T342 1257Q350 1299 371 1310T424 1321Q446 1321 458 1314T471 1286Q471 1264 465 1234T447 1171T423 1101T395 1030Z"  />
<glyph unicode="(" horiz-adv-x="657" d="M389 -498Q389 -500 386 -504T379 -511T370 -517T362 -520Q357 -520 352 -511T344 -498Q240 -332 186 -155T131 221Q131 384 170 547T282 863T457 1148T688 1384Q693 1388 699 1392T711 1399Q716 1397 723 1388T733 1374Q731 1369 729 1366T723 1360Q599 1227 506 1091T351 807T258 498T227 154Q227 -17 261 -175T381 -481Q383 -484 386 -488T389 -498Z"  />
<glyph unicode=")" horiz-adv-x="657" d="M266 1374Q268 1379 278 1388T295 1397Q300 1397 304 1388T311 1376Q363 1293 402 1209T469 1038T510 858T524 668Q524 494 486 331T377 19T202 -262T-33 -506Q-38 -509 -43 -514T-55 -520Q-60 -518 -68 -510T-76 -496Q-74 -493 -73 -490T-68 -483Q56 -351 149 -214T305 70T399 380T430 725Q430 894 395 1052T274 1358Q272 1361 270 1365T266 1374Z"  />
<glyph unicode="*" horiz-adv-x="850" d="M827 922Q822 922 814 923T797 926Q786 928 778 929T766 932L543 948L676 776Q678 773 685 766T701 749T715 729T721 711Q721 701 714 691T696 671T670 657T641 651Q634 651 626 661T611 685T597 710T590 725L498 924L401 696Q392 668 381 659T356 649Q342 649 329 654T304 668T286 686T279 705Q279 716 284 723T295 739Q303 747 310 755T324 772L453 950L229 922Q227 922 221 921T206 918T188 915T172 913Q129 913 129 971Q129 1030 166 1030Q170 1030 180 1029T200 1027T219 1025T231 1024L453 999L317 1174Q312 1180 305 1188T291 1205T279 1222T274 1239Q274 1249 280 1259T298 1278T323 1292T352 1298Q357 1298 362 1298T371 1292Q375 1288 379 1280T387 1261T396 1241T403 1225L498 1026L592 1249Q604 1278 614 1290T637 1303Q651 1303 665 1297T690 1283T709 1264T717 1245Q717 1239 710 1228T686 1194L543 999L788 1032Q798 1034 807 1035T821 1036Q841 1036 853 1022T866 979Q866 950 855 936T827 922Z"  />
<glyph unicode="+" horiz-adv-x="850" d="M526 612V303H444V612H137V692H444V993H526V692H825V612H526Z"  />
<glyph unicode="&#x2c;" horiz-adv-x="369" d="M-96 -385Q-101 -387 -109 -388T-125 -391T-139 -394T-147 -395Q-149 -395 -155 -389T-166 -377V-375Q-102 -361 -46 -337T51 -277T115 -195T139 -90Q139 -49 123 -30T88 2T53 27T37 70Q37 80 45 92T64 115T88 132T111 139Q131 139 150 124T184 83T208 21T217 -57Q217 -126 191 -179T122 -273T22 -341T-96 -385Z"  />
<glyph unicode="-" horiz-adv-x="532" d="M463 524L444 440H70L88 524H463Z"  />
<glyph unicode="." horiz-adv-x="369" d="M119 -20Q106 -20 93 -13T68 6T50 31T43 57Q43 72 51 86T71 112T98 131T127 139Q140 139 153 132T178 113T196 88T203 61Q202 47 194 33T174 7T148 -12T119 -20Z"  />
<glyph unicode="/" horiz-adv-x="739" d="M-125 -369Q-70 -264 -4 -135T137 136T289 431T446 735T599 1034T743 1315H811Q770 1237 719 1141T612 938T496 714T374 479T253 243T137 17T31 -191T-59 -369H-125Z"  />
<glyph unicode="0" horiz-adv-x="850" d="M309 1124Q372 1223 445 1269T596 1315Q657 1315 706 1288T788 1208T840 1079T858 905Q858 827 846 728T809 526T744 325T650 151T527 27T371 -20Q314 -20 267 7T187 85T136 213T117 389Q117 483 131 585T170 785T231 970T309 1124ZM379 29Q416 29 450 47T513 99T569 177T616 276Q646 353 671 444T714 629T742 810T752 969Q752 1111 712 1188T594 1266Q559 1266 525 1247T460 1193T401 1109T352 999Q323 919 299 829T258 649T232 477T223 330Q224 265 232 210T258 115T306 52T379 29Z"  />
<glyph unicode="1" horiz-adv-x="850" d="M481 131Q481 92 494 73T530 45T579 35T635 33Q649 33 652 31T655 25Q655 18 653 8T645 -2Q620 -2 554 1T379 4Q279 4 219 1T152 -2Q144 -2 138 -1T131 10Q131 21 132 26T138 34T148 36T164 39Q180 41 198 42T236 46T272 52T305 66Q323 76 337 104T364 171T386 257T406 352L514 918Q525 972 531 1017T537 1090Q537 1110 531 1125T500 1141Q478 1141 453 1134T404 1117T363 1100T340 1092Q336 1092 336 1100Q336 1117 339 1122T356 1135Q364 1139 386 1151T438 1180T503 1218T571 1257Q593 1269 613 1281T650 1302T677 1317T690 1323Q695 1323 700 1314T705 1298Q705 1292 703 1288T698 1278Q694 1266 688 1242T673 1184T656 1106T637 1012L520 406Q511 356 504 312T492 232T484 170T481 131Z"  />
<glyph unicode="2" horiz-adv-x="850" d="M750 291Q753 289 756 287T760 279Q760 277 759 276T758 272Q755 262 753 256T748 244Q746 239 745 236Q727 183 713 139Q707 120 701 101T689 66T681 37T676 18Q671 3 667 1T651 -2Q647 -2 640 -2T626 -1Q617 -1 608 0Q583 2 554 2T489 2Q398 2 288 0T61 -2H41Q30 -2 26 0T20 10L16 31Q14 36 14 38T14 43Q14 49 19 54T35 74Q96 141 162 210T292 349T417 484T528 612Q615 718 661 818T707 1018Q707 1063 695 1101T660 1166T602 1209T522 1225Q445 1225 382 1183T274 1065Q268 1054 263 1043T250 1012H231V1067Q231 1086 239 1098T256 1126Q281 1169 316 1205T392 1267T476 1308T563 1323Q630 1323 677 1302T755 1245T800 1159T815 1053Q815 976 798 908T751 779T681 665T596 563Q547 510 493 458T381 352T261 240T133 117H311Q401 117 459 118T552 123T604 129T629 137Q646 146 661 163T688 201T710 243T727 281Q730 289 733 291T739 293Q741 293 743 293T750 291Z"  />
<glyph unicode="3" horiz-adv-x="850" d="M498 741Q562 741 608 721T685 664T730 578T745 467Q745 399 727 337T675 220T597 120T500 44T389 -5T272 -23Q224 -23 188 -12T129 16T94 54T82 94Q82 110 88 121T102 143Q124 168 141 168Q152 168 162 161T184 137Q213 99 252 79T352 59Q385 59 410 63T457 77T496 100T535 135Q562 164 581 199T611 273T628 350T633 426Q633 480 620 523T581 597T519 643T438 659Q413 659 392 654T355 643T329 632T313 627Q310 627 307 632T301 645Q299 650 298 653T297 659Q297 666 303 669T322 678Q326 680 331 682T345 689T365 701T395 719Q450 750 501 785T592 863T654 957T678 1071Q678 1113 667 1142T636 1190T590 1217T535 1225Q468 1225 413 1191T303 1077H291V1120Q291 1130 295 1138T305 1155Q365 1239 441 1279T596 1319Q627 1319 661 1307T725 1270T772 1206T791 1112Q791 1058 776 1008T725 912T635 824T498 741Z"  />
<glyph unicode="4" horiz-adv-x="850" d="M838 377Q835 369 831 367T815 365L637 367L578 8Q576 3 575 2T571 0Q551 -2 523 -4T471 -8Q466 -8 466 -7T465 -2L535 367Q416 367 298 367T55 362Q44 362 40 363T35 373Q35 376 35 381T37 393L43 424Q45 429 47 433T59 449Q141 546 219 644T379 842Q421 893 467 950T560 1066T656 1183T750 1296Q761 1309 765 1313T772 1317Q777 1317 781 1313T795 1303Q803 1296 807 1293T811 1282Q811 1279 810 1272T806 1254T801 1234T797 1217Q781 1145 766 1065T733 892T696 689T651 451Q669 451 697 451T755 451T813 452T860 455L864 451L838 377ZM115 449Q152 447 197 447T289 446Q326 446 363 446T435 447T499 449T551 451Q580 602 612 774T680 1149Q588 1036 510 938T363 754T233 592T115 449Z"  />
<glyph unicode="5" horiz-adv-x="850" d="M831 1237Q823 1208 814 1196T793 1180Q785 1178 750 1177T653 1176Q585 1176 529 1178T438 1180L344 963Q341 955 339 945T336 926Q336 918 352 906T395 877Q467 831 528 782T633 676T703 557T729 420Q729 323 691 235T584 84Q530 31 462 6T322 -20Q275 -20 234 -7T162 30T112 84T92 147Q92 167 98 178T121 203Q130 209 139 213T156 217Q167 217 175 210T190 186Q216 118 259 86T365 53Q434 53 484 78T566 144T613 240T629 352Q629 419 613 472T567 569T498 650T412 725Q373 757 343 777T292 809T261 829T250 844Q250 849 256 864Q273 906 294 958T339 1066T387 1181T434 1296Q437 1303 442 1303Q473 1303 502 1302T564 1301T634 1299T721 1298Q747 1298 765 1299T796 1302T816 1308T829 1317Q834 1322 837 1323T846 1325Q856 1325 856 1321Q856 1319 855 1315T852 1305L831 1237Z"  />
<glyph unicode="6" horiz-adv-x="850" d="M844 1262Q833 1262 823 1263T801 1264Q726 1264 650 1220T506 1092T383 890T293 623Q286 594 279 558T265 480T256 394T252 305Q252 251 259 202T285 116T334 56T412 33Q461 33 499 57T567 122T618 213T653 315T673 415T680 498Q680 563 666 605T630 671T578 704T520 713Q485 713 443 694T362 647H356V672Q356 680 359 683T375 696Q434 743 484 765T588 788Q640 788 679 768T744 712T784 627T797 520Q797 458 785 395T749 271T690 158T610 66T508 3T387 -20Q329 -20 283 2T203 67T153 175T135 324Q135 472 168 604T256 849T384 1052T534 1205T691 1303T838 1337Q859 1337 864 1321T870 1288Q870 1276 866 1269T844 1262Z"  />
<glyph unicode="7" horiz-adv-x="850" d="M936 1217Q934 1214 910 1174T835 1051T706 839T518 532Q491 488 462 440T403 342T344 245T287 152Q259 105 237 71T203 10Q190 -15 183 -29T158 -43Q142 -43 126 -28T109 6Q109 20 119 33T135 55Q144 69 157 87T193 137Q257 235 332 351T490 599T662 874T846 1171Q809 1172 767 1173T689 1174H606Q601 1174 583 1174T539 1174T484 1172T428 1171T383 1169T356 1167Q339 1165 326 1162T301 1147Q292 1138 283 1122T266 1088T252 1054T242 1026Q239 1017 237 1015T231 1012Q229 1012 227 1012T219 1014Q209 1016 209 1026Q209 1028 211 1035T215 1050T220 1068T225 1083Q228 1097 233 1113T244 1151Q250 1171 257 1206T272 1270Q277 1288 282 1293T305 1298Q379 1295 465 1295T639 1294Q726 1294 803 1295T940 1296Q949 1296 952 1295T961 1282Q964 1276 965 1274T967 1268Q967 1265 957 1251T936 1217Z"  />
<glyph unicode="8" horiz-adv-x="850" d="M559 690Q598 644 633 603T697 519T741 430T758 328Q758 241 730 176T652 66T532 -1T381 -23Q312 -23 260 -1T172 59T118 146T100 250Q100 304 113 359T162 468T260 574T422 672Q376 720 347 764T300 847T277 920T270 983Q270 1061 295 1123T363 1228T466 1295T594 1319Q658 1319 704 1297T781 1237T827 1150T842 1049Q842 974 819 919T756 821T665 748T559 690ZM580 1272Q547 1272 511 1258T445 1214T395 1134T375 1014Q375 981 382 949T408 881T456 806T530 719Q590 752 629 789T691 869T724 960T733 1063Q733 1107 722 1145T691 1211T643 1256T580 1272ZM455 643Q393 610 348 572T272 488T228 385T213 258Q213 207 229 164T270 90T328 42T395 25Q447 25 493 40T572 89T625 175T645 303Q645 340 637 376T607 452T549 538T455 643Z"  />
<glyph unicode="9" horiz-adv-x="850" d="M152 35Q163 35 173 34T195 33Q270 33 345 77T489 205T612 407T702 674Q709 702 716 739T730 817T739 902T743 991Q743 1045 736 1094T710 1181T662 1241T584 1264Q535 1264 496 1240T428 1178T377 1090T342 991T322 893T315 811Q315 746 329 704T365 638T417 605T475 596Q510 596 553 615T633 662H639V637Q639 629 636 626T621 612Q562 566 511 543T408 520Q355 520 316 540T251 597T212 682T199 788Q199 849 211 912T246 1034T305 1144T385 1234T486 1295T608 1317Q666 1317 712 1295T792 1229T842 1121T860 973Q860 825 827 693T739 447T611 244T461 91T305 -7T158 -41Q147 -41 141 -36T131 -24T126 -9T125 8Q125 21 130 28T152 35Z"  />
<glyph unicode=":" horiz-adv-x="369" d="M129 -20Q116 -20 103 -13T78 6T60 31T53 57Q53 72 61 86T81 112T108 131T137 139Q150 139 163 132T188 113T206 88T213 61Q212 47 204 33T184 7T158 -12T129 -20ZM248 674Q234 674 221 681T196 700T179 725T172 752Q172 765 180 779T200 806T227 826T256 834Q269 834 282 827T307 808T325 782T332 754Q331 741 323 727T303 701T277 682T248 674Z"  />
<glyph unicode=";" horiz-adv-x="369" d="M-117 -391Q-123 -393 -129 -394T-139 -395Q-143 -395 -150 -389Q-153 -386 -155 -384T-160 -377V-375Q-97 -361 -42 -337T55 -279T121 -201T145 -102Q145 -78 141 -61T130 -31T114 -10T94 6Q85 11 75 17T57 31Q43 42 43 70Q43 80 51 92T70 115T94 132T117 139Q136 139 155 124T189 83T213 21T223 -57Q223 -126 198 -180T128 -276T21 -346T-117 -391ZM256 678Q243 678 230 685T206 704T189 729T182 756Q182 771 190 785T210 811T236 830T264 838Q278 838 291 831T316 812T333 787T340 760Q340 746 332 732T312 705T285 686T256 678Z"  />
<glyph unicode="&lt;" horiz-adv-x="850" d="M127 608V696L815 1055V963L209 653L815 340V248L127 608Z"  />
<glyph unicode="=" horiz-adv-x="850" d="M135 741V819H827V741H135ZM135 483V563H827V483H135Z"  />
<glyph unicode="&gt;" horiz-adv-x="850" d="M127 250V342L735 651L127 965V1057L815 696V608L127 250Z"  />
<glyph unicode="?" horiz-adv-x="676" d="M598 811Q581 791 545 760T438 668Q384 623 351 590T299 530T274 482T268 440Q268 400 294 371T383 324V319L369 301Q365 297 362 297Q332 297 301 311T245 349T203 405T186 473Q186 505 195 534T229 597T300 674T420 778Q477 826 514 863T572 932T602 991T610 1047Q610 1084 596 1116T558 1172T501 1209T428 1223Q390 1223 358 1216T291 1182Q275 1169 264 1169Q257 1169 250 1175T238 1190T229 1211T225 1235Q225 1250 237 1264T269 1290T315 1309T371 1317Q431 1317 485 1289T582 1216T649 1111T674 991Q674 943 655 900T598 811ZM223 -20Q209 -20 196 -13T171 6T154 31T147 57Q147 72 155 86T176 112T203 131T231 139Q244 139 257 132T282 113T300 88T307 61Q307 47 299 33T279 7T251 -12T223 -20Z"  />
<glyph unicode="@" horiz-adv-x="1499" d="M938 317Q878 317 851 341T823 406Q823 418 826 441T834 495T848 563T866 639Q853 613 836 579T797 510T751 439T699 377T641 334T578 317Q556 317 536 328T499 359T473 409T463 475Q463 524 478 578T523 688T592 795T683 892T791 970T913 1022Q920 1047 927 1059T954 1071Q973 1071 989 1067T1006 1040Q1006 1037 1005 1034T1004 1028Q995 972 986 914T967 800T950 691T936 596T925 521T920 471Q918 463 918 458T918 446Q918 420 930 408T977 395Q1038 395 1093 422T1190 500T1255 625T1280 793Q1280 902 1248 988T1158 1135T1016 1228T829 1260Q704 1260 598 1210T415 1070T294 852T250 569Q250 430 290 332T398 170T557 78T750 49Q889 49 1019 97T1255 229Q1260 232 1264 235T1272 238Q1281 238 1285 226T1290 207Q1290 198 1283 192T1266 180Q1220 144 1161 108T1033 44T889 -2T737 -20Q597 -20 487 17T299 127T180 311T139 569Q139 729 192 865T340 1102T562 1260T842 1317Q959 1317 1058 1281T1228 1179T1340 1021T1380 817Q1380 756 1364 695T1317 579T1246 476T1155 393T1051 337T938 317ZM739 874Q704 849 674 809T620 724T583 630T569 541Q569 482 584 458T629 434Q653 434 681 455T737 511T792 591T839 684T872 780T885 868Q885 894 875 910T844 926Q825 926 800 914T739 874Z"  />
<glyph unicode="A" horiz-adv-x="1034" d="M997 10Q994 -2 987 -2Q943 -2 893 -1T770 0Q713 0 675 -2T633 -4Q627 -4 624 -2T621 10Q621 16 623 23T637 31Q674 31 715 37Q729 39 738 44T754 57Q762 67 765 79T768 111Q768 141 762 197Q756 253 751 307Q746 353 742 402T735 487H612H348Q344 479 339 468T329 447Q323 436 317 424Q282 351 257 296T215 199T190 130T182 84Q182 67 188 58T205 43T233 36T270 33Q279 32 287 32Q294 31 299 31T307 31Q312 31 314 31T317 25L315 6Q313 -2 308 -3T297 -4Q249 -2 202 0T104 2Q56 2 22 -1T-20 -4Q-28 -4 -33 -3T-39 8V12Q-37 25 -34 27T-25 31H-14Q8 35 25 44T61 77T105 144T168 262Q232 385 286 489T388 683T474 847T545 985Q553 1001 569 1032T606 1110Q617 1133 629 1157T651 1203T670 1246T682 1282Q684 1290 685 1292T692 1296Q697 1298 703 1299T719 1305Q725 1308 728 1309T737 1313Q742 1315 745 1316T752 1317Q757 1317 758 1313T762 1298Q782 1090 807 838T864 305Q876 205 884 151T902 71T924 40T958 33L981 31Q990 29 993 29T997 18V10ZM672 1141Q642 1082 604 1006T526 849T445 685T371 530Q405 528 452 528T551 528Q602 528 649 528T729 530Q720 662 703 814T672 1141Z"  />
<glyph unicode="B" horiz-adv-x="969" d="M696 731Q687 726 662 716T612 698Q667 693 715 674T797 621T852 534T872 410Q872 306 838 229T744 99T603 22T428 -4Q374 -4 318 -2T190 0Q154 0 121 -1T61 -3T16 -5T-8 -6Q-18 -6 -18 4Q-18 9 -16 13T-12 23Q-10 26 -6 27T14 31Q56 35 82 42T125 70T154 133T180 250L289 840Q304 919 314 977T330 1076T339 1143T342 1186Q342 1197 342 1205T340 1221Q335 1245 319 1253T281 1264Q268 1266 253 1267T223 1268Q214 1268 212 1269T209 1276V1284Q212 1296 213 1299T225 1303Q231 1303 238 1302T259 1301T293 1299T346 1298Q421 1298 495 1301T641 1305Q766 1305 831 1238T897 1053Q897 998 881 950T838 860T774 786T696 731ZM594 1268Q555 1268 532 1265T495 1257T477 1244T469 1229Q467 1222 462 1198T451 1146T440 1091T432 1051L371 707H440Q501 708 546 716T626 740T684 778T727 831Q755 878 769 927T784 1040Q784 1091 773 1133T739 1205T680 1251T594 1268ZM596 653Q580 658 561 662T516 666Q505 667 485 667T441 668T396 668T362 668L287 238Q279 197 275 168T270 115Q270 90 277 75T300 50T344 38T414 35Q488 35 550 60T658 133T729 251T756 414Q756 502 714 566T596 653Z"  />
<glyph unicode="C" horiz-adv-x="1022" d="M1044 1198Q1039 1180 1037 1161T1032 1124L1012 995Q1010 990 1009 987T1001 983Q989 983 986 986T983 997V1036Q983 1079 981 1107T974 1154T958 1185T932 1208Q894 1234 839 1252T717 1270Q632 1270 563 1238T440 1151T346 1023T280 868T242 699T229 530Q229 413 254 319T325 157T437 53T584 16Q632 16 679 28T769 68T846 140T905 250Q908 264 915 264Q918 264 926 260Q934 257 934 250Q934 247 934 245T932 238Q916 190 902 141T877 43Q875 35 869 32T854 25L848 23Q779 1 715 -11T584 -23Q476 -23 389 16T239 128T143 304T109 535Q109 621 125 712T176 891T261 1056T382 1192T540 1285T735 1319Q780 1319 835 1313T969 1290Q1001 1284 1010 1282T1022 1280Q1028 1280 1032 1282T1042 1288Q1047 1290 1055 1290Q1065 1287 1065 1282Q1065 1279 1063 1270T1057 1248T1050 1223T1044 1198Z"  />
<glyph unicode="D" horiz-adv-x="1212" d="M279 793Q306 944 322 1036T338 1176Q338 1205 332 1222T312 1250T278 1264T229 1270H207Q197 1270 197 1276Q197 1293 201 1298T215 1303Q265 1301 315 1299T416 1296Q470 1296 524 1301T635 1307Q749 1307 842 1274T1002 1176T1105 1013T1141 788Q1141 597 1088 450T939 201T715 48T434 -4Q356 -4 282 -1T129 2Q91 2 51 0T-31 -2Q-37 -2 -37 4Q-37 21 -33 25T-18 31H-14Q10 33 30 34T66 40T95 51T119 74Q129 88 138 110T157 165T177 245T199 354L279 793ZM299 332Q285 254 278 204T270 125Q270 95 278 78T307 52T361 41T446 39Q546 39 628 69T775 151T886 276T965 431T1011 604T1026 786Q1026 929 991 1022T893 1169T748 1244T571 1266Q536 1266 514 1258T478 1224T452 1154T428 1036L299 332Z"  />
<glyph unicode="E" horiz-adv-x="963" d="M915 1010Q913 1000 910 999T897 997Q891 997 889 999T887 1010Q887 1013 888 1029T891 1059Q897 1105 897 1139Q897 1178 886 1200T845 1235T762 1250T625 1253Q571 1253 541 1252T494 1246T473 1229T463 1196L369 698H459Q491 698 523 698T586 701T642 707T686 717Q705 724 721 746T750 793T771 837T782 856Q799 856 799 846V840Q784 791 773 747T753 658T735 569T719 473Q717 465 715 464T707 463Q699 463 696 463T692 469Q692 491 694 509T696 543Q696 579 689 600T666 632T630 646T580 651Q524 653 470 653T360 655L299 322Q282 233 276 190T270 129Q270 103 277 87T308 62T378 50T502 47Q549 47 582 51T640 62T684 82T721 109Q761 143 789 194T836 301L838 311Q838 317 846 317Q852 317 857 313T862 303Q862 291 853 256T831 177T802 92T774 23Q769 12 764 5T750 -2Q656 -2 563 1T375 4Q278 4 181 1T-18 -2Q-23 -2 -25 -2T-27 4Q-27 15 -25 20T-20 27T-12 30T-2 31Q35 34 59 39T102 57Q111 64 118 71T133 94T148 133T165 198T187 297T215 440L309 942Q326 1033 334 1096T342 1194Q342 1237 320 1254T254 1272Q247 1272 238 1272T220 1273T205 1276T199 1282Q199 1294 203 1298T213 1303Q224 1303 304 1299T526 1294Q639 1294 750 1297T973 1300Q987 1300 987 1290Q987 1281 981 1266Q972 1241 962 1209T944 1142T928 1073T915 1010Z"  />
<glyph unicode="F" horiz-adv-x="895" d="M911 1012Q909 1001 908 999T901 997Q890 997 887 998T883 1008Q883 1045 886 1075T889 1130Q889 1170 880 1194T845 1232T771 1249T649 1253H539Q512 1253 496 1249T470 1228T453 1182T436 1100L360 680L473 682Q540 683 586 683T663 693T716 730T758 811Q764 828 767 834T774 840Q779 840 785 838T791 829Q791 826 790 822T786 811Q763 721 744 632T711 451Q708 436 698 436H694Q684 436 684 446Q684 466 686 488T688 526Q688 565 680 587T645 621T572 634T449 637H352L287 258Q279 210 275 177T270 121Q270 90 280 72T307 45T344 34T385 31H424Q439 31 448 29T457 20Q457 9 453 3T442 -4Q371 -4 305 -2T174 0Q125 0 91 0T35 -2T1 -3T-18 -4Q-26 -4 -30 -4T-35 2Q-35 12 -34 17T-30 26T-20 29T-2 31Q48 35 77 46T125 83T155 151T178 262L328 1102Q333 1128 334 1149T336 1188Q336 1216 330 1232T311 1257T278 1267T231 1272Q226 1272 220 1272T207 1273T197 1278T193 1286Q193 1299 198 1301T211 1303Q296 1298 378 1296T545 1294Q651 1294 756 1297T969 1300Q974 1300 976 1298T979 1288Q979 1285 978 1280T975 1266Q966 1239 957 1205T939 1137T923 1069T911 1012Z"  />
<glyph unicode="G" horiz-adv-x="1108" d="M1042 987Q1042 973 1039 970T1030 967Q1016 967 1014 971T1012 995V1020Q1012 1047 1010 1072T1003 1119T994 1157T985 1180Q972 1199 941 1215T869 1243T783 1261T696 1268Q617 1268 552 1237T435 1151T345 1026T280 875T242 712T229 551Q229 441 249 344T315 175T432 60T608 18Q663 18 699 26T759 52T794 98T815 166Q826 220 835 272T851 367T862 437T866 473Q866 500 857 516T830 540T789 552T733 557Q712 559 702 559T692 565Q692 582 695 586T707 590Q750 590 791 587T872 584Q922 584 971 586T1071 592Q1077 592 1081 591T1085 584V573Q1083 565 1079 565T1069 563Q1039 557 1022 548T993 518T974 463T956 371L928 209Q923 184 920 165T914 127T910 90T909 47V33Q909 28 907 27T895 23L870 16Q804 -1 732 -12T590 -23Q492 -23 405 11T252 114T149 286T111 530Q111 696 155 840T283 1092T485 1261T750 1323Q791 1323 833 1317T913 1303T981 1289T1028 1282Q1042 1282 1047 1288T1065 1294Q1071 1294 1075 1293T1079 1284Q1079 1279 1074 1255T1063 1192T1050 1101T1042 987Z"  />
<glyph unicode="H" horiz-adv-x="1247" d="M1284 1270Q1247 1267 1223 1256T1180 1212T1147 1122T1114 969L1001 365Q984 272 976 214T967 119Q967 90 973 74T994 49T1031 37T1087 33H1098Q1104 33 1107 32T1110 23Q1110 6 1106 1T1098 -4Q1088 -4 1032 -1T887 2Q836 2 786 0T680 -2Q672 -2 672 6Q672 20 674 25T688 31L721 33Q755 35 779 43T822 82T857 173T893 342L948 651H358L332 510Q312 402 300 334T281 223T272 160T270 123Q270 100 273 85T287 59T322 42T385 31H391Q399 29 402 29T406 23Q406 -2 393 -2Q350 -2 305 0T211 2Q137 2 77 0T-18 -2Q-23 -2 -23 6Q-23 25 -19 28T-2 31Q29 33 54 38T86 47Q105 56 119 74T145 127T170 220T199 365L307 961Q321 1036 328 1087T336 1174Q336 1202 331 1219T311 1247T274 1263T215 1270Q205 1270 205 1276Q205 1290 207 1295T215 1300Q268 1300 315 1297T414 1294Q460 1294 511 1296T608 1303Q623 1303 623 1296L621 1282Q619 1276 618 1274T604 1270Q566 1265 540 1259T494 1231T460 1168T432 1051L369 711H961L1010 997Q1021 1056 1027 1098T1034 1174Q1034 1202 1028 1220T1009 1249T973 1264T918 1270H911Q908 1270 906 1270T903 1276Q903 1281 905 1290T913 1300Q969 1300 1025 1298T1137 1296Q1183 1296 1227 1298T1319 1300Q1323 1300 1323 1294Q1323 1277 1320 1275T1309 1272L1284 1270Z"  />
<glyph unicode="I" horiz-adv-x="549" d="M332 510Q312 402 300 334T281 223T272 160T270 123Q270 100 273 85T287 59T322 42T385 31H406Q414 29 417 29T420 23Q420 12 417 4T408 -4Q364 -4 312 -1T211 2Q174 2 138 1T70 -1T12 -3T-31 -4Q-35 -4 -35 6Q-35 25 -31 28T-14 31Q1 32 17 34T48 38T73 43T86 47Q105 56 119 74T145 127T170 220T199 365L307 961Q321 1036 328 1087T336 1174Q336 1202 330 1219T308 1247T269 1263T209 1270Q199 1270 199 1276Q199 1290 201 1295T209 1300Q262 1300 312 1297T414 1294Q465 1294 519 1298T616 1303Q632 1303 634 1301T637 1296L635 1282Q633 1276 629 1273T612 1270Q582 1270 556 1264T506 1236T465 1170T432 1051L332 510Z"  />
<glyph unicode="J" horiz-adv-x="565" d="M324 379Q302 255 284 159T246 -16Q236 -55 224 -93T196 -166T161 -232T117 -287Q61 -342 1 -375T-117 -408Q-160 -408 -192 -390T-227 -342Q-227 -330 -223 -317T-212 -293T-192 -274T-164 -266Q-153 -266 -136 -276T-102 -297Q-84 -314 -62 -318T-18 -322Q9 -322 33 -302T79 -233T123 -99T168 115L319 961Q333 1036 340 1087T348 1174Q348 1205 342 1223T319 1250T274 1263T201 1270Q190 1270 190 1276Q190 1290 193 1295T201 1300Q253 1300 314 1297T426 1294Q451 1294 479 1295T534 1298T587 1301T633 1303Q648 1303 650 1301T653 1296L651 1282Q649 1276 645 1273T629 1270Q590 1270 561 1264T511 1234T474 1168T444 1051L324 379Z"  />
<glyph unicode="K" horiz-adv-x="1057" d="M356 647Q381 670 413 700T481 764T553 830T619 893T672 943T705 975Q757 1026 794 1063T860 1130Q889 1161 904 1186T920 1225Q920 1248 898 1259T825 1270Q814 1270 809 1271T803 1280Q803 1286 805 1294T817 1303Q833 1302 854 1301T896 1300T937 1299T971 1298Q1005 1298 1031 1299T1076 1300T1111 1302T1139 1303Q1151 1303 1153 1299T1155 1284Q1155 1275 1153 1272T1139 1268Q1123 1268 1100 1256T1059 1227L936 1118Q898 1083 847 1039T741 946T630 848T526 754Q585 631 633 536T720 366T791 233T850 123Q862 100 872 83T895 55T926 37T973 29H981Q989 29 993 28T997 20L995 6Q993 0 991 -2T981 -4Q933 -4 887 -2T795 0Q714 0 665 -2T608 -4Q600 -4 599 -1T598 10Q598 16 600 19T610 23Q651 27 675 31T713 43T731 59T735 80Q735 91 730 106T715 141L449 686L346 594L332 510Q312 402 300 334T281 223T272 160T270 123Q270 100 272 85T284 59T317 42T379 31H399Q407 29 410 29T414 23Q414 12 411 4T401 -4Q358 -4 309 -1T211 2Q137 2 73 -1T-25 -4Q-29 -4 -29 6Q-29 25 -25 28T-8 31Q23 32 51 38T86 47Q105 56 119 74T145 127T170 220T199 365L307 961Q321 1036 328 1087T336 1174Q336 1202 331 1219T311 1247T274 1263T215 1270Q205 1270 205 1276Q205 1290 207 1295T215 1300Q268 1300 315 1297T414 1294Q465 1294 515 1298T608 1303Q624 1303 626 1301T629 1296L627 1282Q625 1276 621 1273T604 1270Q574 1270 549 1264T502 1236T464 1170T432 1051L356 647Z"  />
<glyph unicode="L" horiz-adv-x="868" d="M729 -6Q721 -6 692 -5T618 -1T513 2T387 4Q325 4 265 3T153 0T62 -3T4 -4Q-6 -4 -6 4Q-6 6 -6 8T-4 14Q-2 27 0 29T12 31Q60 33 89 40T138 76T173 162T207 322L336 1024Q345 1077 349 1114T354 1178Q354 1205 347 1222T325 1250T291 1264T244 1268H223Q217 1268 216 1271T215 1284Q215 1295 217 1297T231 1300Q281 1298 331 1296T430 1294Q454 1294 481 1294T535 1296T589 1298T639 1300Q647 1300 649 1300T651 1294V1282Q650 1277 650 1275T647 1272T640 1271T627 1270Q588 1266 562 1259T515 1228T479 1154T446 1018L309 311Q297 248 291 205T285 133Q285 90 299 74T342 53Q370 48 403 48T487 47Q526 47 557 49T614 58T663 74T705 100Q728 119 747 144T781 197T807 254T827 311Q830 319 831 323T836 328Q838 328 839 327T842 326Q851 323 852 318T854 307Q854 296 848 274Q840 245 826 197T795 98Q784 70 778 52T766 23Q760 9 753 2T729 -6Z"  />
<glyph unicode="M" horiz-adv-x="1389" d="M1456 1282Q1427 1282 1404 1278T1362 1264T1330 1234T1307 1186Q1299 1164 1291 1116T1272 1008L1149 276Q1140 219 1135 177T1130 109Q1130 82 1139 66T1166 41T1210 29T1272 25Q1277 25 1279 24T1282 18Q1282 6 1280 2T1266 -2Q1250 -2 1202 0T1063 2Q1013 2 963 0T860 -2Q849 -2 848 0T846 14Q846 22 850 24T860 27L874 29Q921 33 949 44T995 83T1024 158T1049 281L1198 1169L1194 1171Q1106 1003 1039 875T918 647T825 469T750 325T686 197T625 68Q622 60 619 55T612 41Q612 39 611 35T606 29Q604 27 598 25T588 20Q585 18 579 16T567 14Q565 14 564 16T561 29Q554 96 548 146T536 244T522 343T503 465T477 630T440 860L395 1143L389 1141Q375 1072 359 993T327 831T294 667T263 514T238 383T219 285Q208 229 203 189T197 121Q197 89 205 71T229 43T272 31T334 27H348Q356 27 356 23Q356 19 356 16T355 9Q354 5 354 2Q354 -2 350 -2Q348 -2 345 -1T336 0Q307 1 259 2T164 4Q113 4 78 3T20 1T-14 -1T-29 -2Q-37 -2 -38 0T-39 12Q-39 22 -36 24T-27 27L-10 29Q17 31 37 37T73 61T105 112T135 203Q153 265 174 352T222 558T282 833T360 1186Q362 1189 362 1192T362 1198Q353 1241 317 1256T215 1274Q209 1274 208 1276T207 1286Q207 1289 210 1296T219 1303Q225 1303 235 1302T262 1301T301 1299T356 1298Q382 1298 408 1298T463 1300Q478 1300 483 1299T489 1290Q489 1287 489 1281T492 1255Q494 1220 503 1151T526 993T556 800T589 592T620 390T645 211Q709 335 771 454T897 692T1023 932T1151 1182Q1174 1232 1194 1288Q1197 1297 1201 1300T1217 1303Q1241 1301 1267 1301T1319 1300Q1354 1300 1390 1301T1458 1303Q1464 1303 1464 1298Q1464 1295 1464 1290T1460 1282H1456Z"  />
<glyph unicode="N" horiz-adv-x="1200" d="M395 1110Q390 1086 383 1051T368 973T352 885T335 796T320 714T307 647Q303 627 296 590T280 507T262 408T245 306T232 211T227 135Q227 126 227 119T229 104Q236 66 258 52T307 35Q316 34 328 33T351 31T369 30T379 29Q395 29 395 25L393 10Q391 4 389 1T379 -2Q356 -2 312 1T182 4Q128 4 75 3T-33 -4Q-39 -4 -40 -2T-41 6Q-41 15 -39 22T-29 29Q18 33 48 39T97 61T130 108T158 193Q175 254 194 355T246 610L256 655Q279 767 302 892T354 1157V1167Q354 1198 337 1222T295 1255Q270 1263 250 1265T201 1268Q193 1268 189 1269T184 1276Q184 1278 185 1280T186 1286Q188 1295 190 1299T199 1303Q208 1303 243 1300T344 1296Q364 1296 382 1296T420 1298H428Q436 1298 438 1295T444 1280Q452 1260 458 1243T473 1208Q524 1077 580 948T694 692T808 441T915 195Q953 394 989 590T1057 991Q1063 1038 1070 1079T1077 1155Q1077 1177 1074 1195T1062 1228T1037 1250T995 1262Q975 1264 959 1265T922 1268Q912 1270 909 1270T905 1276Q905 1281 906 1290T918 1300H930Q1036 1294 1143 1294Q1235 1294 1327 1300Q1341 1300 1341 1294Q1341 1283 1338 1279T1323 1272Q1311 1271 1296 1270T1265 1265T1235 1258T1212 1247Q1195 1236 1184 1218T1161 1171Q1150 1140 1140 1096T1116 983Q1096 878 1076 775T1034 565Q1031 551 1024 513T1007 422T987 309T967 190T950 81T940 -2Q940 -10 933 -14T913 -23Q902 -28 896 -30T887 -33Q882 -33 882 -29T879 -20Q874 -5 868 14T856 49Q835 105 820 146T790 223T762 291T729 364T688 455T633 578Q618 612 599 656T558 748T514 847T470 945T430 1035T395 1110Z"  />
<glyph unicode="O" horiz-adv-x="1171" d="M516 -23Q421 -23 346 16T219 125T140 287T113 489Q113 605 135 711T196 910T291 1078T414 1208T557 1291T717 1321Q811 1321 886 1282T1013 1175T1092 1015T1120 815Q1120 695 1098 586T1036 384T940 216T817 87T673 6T516 -23ZM694 1272Q626 1272 565 1242T453 1157T360 1027T291 862T247 670T231 461Q231 370 250 291T308 154T404 61T539 27Q640 27 725 93T871 270T967 529T1001 838Q1001 931 981 1010T922 1148T826 1239T694 1272Z"  />
<glyph unicode="P" horiz-adv-x="956" d="M602 1268Q566 1268 545 1265T509 1247T486 1201T465 1112L360 586Q386 583 417 581T483 578Q585 578 656 610T772 702T836 843T856 1026Q856 1150 793 1209T602 1268ZM219 1286Q221 1295 222 1297T229 1300H236Q276 1300 316 1298T410 1296Q456 1296 490 1297T561 1300Q581 1302 604 1303T666 1305Q729 1305 784 1289T879 1237T943 1145T967 1010Q967 907 939 820T855 670T718 572T530 537Q495 537 449 539T352 551L303 283Q298 254 292 212T285 121Q285 86 292 69T316 45T356 35T412 29H422Q428 29 428 23Q428 21 428 18T426 10Q424 1 423 -1T410 -4Q323 2 219 2Q129 2 70 -1T-4 -4Q-12 -4 -12 4V12Q-10 23 -8 26T0 29Q5 29 17 30T35 33Q72 38 96 45T138 77T170 157T203 311L319 942Q336 1035 346 1100T356 1188Q356 1212 350 1227T329 1252T289 1264T227 1270Q219 1270 219 1278V1286Z"  />
<glyph unicode="Q" horiz-adv-x="1174" d="M666 53Q651 46 630 38T584 23T530 11T467 6Q390 6 326 39T214 134T141 285T115 487Q115 599 135 704T194 902T286 1072T406 1204T550 1290T713 1321Q800 1321 874 1286T1002 1186T1087 1026T1118 813Q1118 711 1100 613T1045 426T954 257T829 113Q791 79 749 47T653 -17T527 -84T362 -154Q404 -165 448 -181T538 -216T627 -253T713 -289Q778 -317 834 -329T938 -342Q1010 -342 1064 -317T1155 -248H1163V-266Q1163 -276 1161 -283T1149 -299Q1087 -356 1022 -389T877 -422Q842 -422 806 -416T723 -396T620 -357T485 -297Q437 -275 401 -261T336 -237T283 -223T236 -215Q207 -231 188 -238T154 -246Q138 -246 131 -236T123 -209Q123 -192 134 -180T165 -159T210 -146T264 -141Q275 -141 285 -141T307 -143Q366 -119 414 -97T504 -51T585 -4T668 49L666 53ZM690 1272Q619 1272 558 1239T445 1149T354 1016T286 854T244 677T229 500Q229 389 250 305T309 164T403 80T526 51Q602 51 666 81T784 166T877 294T945 454T987 636T1001 829Q1001 934 979 1016T916 1156T818 1242T690 1272Z"  />
<glyph unicode="R" horiz-adv-x="1044" d="M1040 2Q1025 -4 998 -8T938 -12Q876 -12 824 25T725 138T636 329T553 600H467Q445 600 418 601T362 606L340 487Q312 344 299 258T285 123Q285 95 288 78T306 51T349 37T428 29Q436 29 438 28T440 23V8Q438 -1 434 -2T420 -4Q303 2 186 2Q111 2 64 -1T-6 -4Q-12 -4 -12 2Q-12 21 -7 24T10 29Q55 33 83 37T131 63Q143 77 153 100T172 161T192 253T217 383L326 975Q341 1060 350 1115T360 1202Q360 1211 359 1219T356 1233Q353 1240 344 1246T323 1256T296 1262T268 1266Q234 1268 225 1270T215 1278V1280Q215 1282 215 1284T217 1292Q219 1298 221 1299T229 1300Q270 1300 307 1297T379 1294Q442 1294 503 1298T629 1303Q690 1303 747 1294T849 1255T921 1174T948 1036Q948 961 926 893T864 771T772 680T659 627Q711 444 757 327T848 142T936 49T1030 23H1042Q1049 23 1050 21T1051 14Q1051 8 1049 7T1040 2ZM584 1270Q556 1270 539 1269T512 1264T497 1255T489 1243Q486 1232 479 1200T463 1122T442 1018T419 899T395 775T371 655Q399 650 435 646T500 641Q664 641 746 737T829 1028Q829 1156 766 1213T584 1270Z"  />
<glyph unicode="S" horiz-adv-x="821" d="M791 1264Q786 1244 781 1215T772 1153T764 1086T758 1022Q756 1010 755 1007T748 1004H737Q731 1004 730 1007T729 1018V1079Q729 1105 727 1132T717 1180Q707 1204 685 1221T637 1249T584 1265T537 1270Q495 1270 457 1255T388 1210T340 1135T322 1030Q322 970 336 927T375 849T431 782T498 709Q535 666 570 627T634 545T679 452T696 338Q696 249 671 182T599 69T490 0T350 -23Q320 -23 294 -21T240 -13T183 -1T115 16Q108 18 103 19T92 20Q87 20 81 18T70 16Q65 16 64 22T63 49Q63 79 66 117T73 195T82 269T92 328Q95 343 99 350T111 358Q120 358 123 356T127 346Q127 331 125 312T123 276Q123 219 139 173T184 94T256 45T352 27Q409 27 455 45T534 96T584 175T602 276Q602 337 590 380T555 460T500 531T430 610Q396 649 360 688T295 770T246 862T227 971Q227 1062 253 1127T326 1235T433 1297T565 1317Q605 1317 643 1311T723 1294Q732 1292 741 1290T762 1288Q768 1288 775 1290T788 1292Q795 1292 795 1286Q795 1281 794 1277T791 1264Z"  />
<glyph unicode="T" horiz-adv-x="952" d="M1092 1159Q1079 1108 1071 1079T1057 1035T1048 1016T1040 1012Q1029 1012 1026 1014T1022 1022Q1022 1024 1022 1027T1024 1042Q1029 1076 1031 1102T1034 1151Q1034 1179 1029 1196T1005 1222T947 1235T844 1241L672 1245L492 248Q482 198 479 164T475 104Q475 79 481 65T504 43T553 32T635 27Q647 27 650 25T653 18Q653 6 651 1T639 -4Q522 2 410 2Q293 2 182 -4Q174 -4 171 -3T168 4Q168 12 170 18T180 25Q238 27 272 33T326 60T357 124T383 244L565 1243H440Q353 1243 301 1238T218 1215T169 1161T131 1063L121 1030Q118 1022 116 1016T106 1010Q95 1010 93 1013T90 1020Q90 1023 90 1030T92 1042Q97 1069 100 1082T107 1113T120 1158T143 1243Q150 1268 154 1282T162 1303T167 1311T174 1313Q179 1313 180 1312T184 1309Q206 1296 318 1294T614 1292Q688 1292 756 1292T884 1293T991 1295T1071 1298Q1090 1300 1099 1305T1118 1311Q1121 1311 1123 1311T1126 1305Q1126 1301 1125 1298T1124 1292Q1122 1283 1113 1246T1092 1159Z"  />
<glyph unicode="U" horiz-adv-x="1083" d="M1202 1270Q1163 1264 1140 1255T1102 1221T1076 1155T1049 1040Q1014 889 989 739Q962 584 934 467T873 265T799 125T708 36T594 -10T453 -23Q352 -23 289 6T191 82T142 184T129 295Q129 358 138 421T164 559L244 963Q261 1052 267 1112T274 1186Q274 1212 269 1227T249 1251T211 1264T147 1270Q137 1270 137 1278Q137 1293 140 1298T152 1303Q203 1298 246 1296T334 1294Q383 1294 434 1297T547 1300Q552 1300 553 1300T555 1294Q555 1283 554 1279T550 1273T542 1271T528 1270Q484 1267 458 1256T415 1211T384 1118T350 958L272 569Q268 549 262 517T250 449T240 381T236 328Q236 265 247 214T290 128T377 73T520 53Q636 53 708 110T823 268Q846 324 875 447T932 743Q940 795 950 853T970 969T985 1077T991 1167Q991 1202 980 1221T950 1251T904 1265T846 1272Q836 1272 836 1278Q836 1290 838 1294T846 1298Q871 1298 919 1296T1038 1294Q1083 1294 1114 1294T1167 1296T1202 1297T1223 1298Q1231 1298 1231 1292Q1231 1284 1229 1278T1217 1272L1202 1270Z"  />
<glyph unicode="V" horiz-adv-x="958" d="M1120 1268Q1117 1268 1110 1267T1096 1264Q1073 1258 1055 1242T1012 1188T954 1084T866 913Q817 815 768 719T674 532T588 361T516 213T460 96T426 16Q421 7 418 5T410 0Q397 -5 389 -7T369 -14Q366 -16 363 -16T358 -16Q355 -16 354 -16T352 -10Q349 13 347 35T342 92Q325 287 304 480T262 870Q252 966 244 1032T229 1143T215 1211T199 1248T176 1263T145 1268L123 1270Q117 1270 116 1272T115 1282V1288Q115 1297 119 1298T133 1300Q163 1300 182 1300T218 1298T253 1297T299 1296Q313 1296 336 1296T385 1298T433 1299T471 1300Q483 1300 486 1299T489 1292V1284Q487 1273 484 1272T473 1270Q431 1267 405 1263T364 1249T345 1222T340 1174Q340 1146 349 1058T371 840L438 156Q445 169 453 185T469 217Q477 235 485 252Q606 499 686 672T819 956Q870 1060 892 1120T915 1212Q915 1226 912 1235T896 1251T859 1262T791 1268Q787 1268 783 1269T778 1276Q778 1291 781 1295T795 1300Q807 1300 826 1300T869 1298T916 1297T961 1296Q1029 1296 1071 1299T1126 1303Q1134 1303 1136 1302T1139 1296Q1139 1282 1136 1275T1120 1268Z"  />
<glyph unicode="W" horiz-adv-x="1364" d="M1552 1274Q1550 1272 1546 1272T1540 1272H1532Q1510 1270 1494 1264T1460 1236T1418 1174T1356 1061Q1325 1001 1293 940T1229 813Q1132 609 1033 411T846 8Q845 6 839 3T824 -4T806 -11T791 -14Q786 -14 785 -12T784 -4V10Q777 90 768 173T748 337T726 490T705 623Q671 560 629 480T543 315T459 149T389 4Q386 1 380 -5T348 -12Q345 -12 345 -9T342 2L340 20Q321 170 302 306T264 571T225 822T186 1065Q175 1135 168 1176T151 1237T126 1264T86 1272H72Q55 1272 55 1280Q55 1290 58 1295Q59 1298 61 1300Q89 1300 131 1298T221 1296Q247 1296 274 1296T326 1297T373 1298T414 1300Q422 1300 424 1300T426 1294Q426 1279 424 1277T412 1272L389 1270Q354 1267 333 1263T301 1250T285 1225T281 1180Q281 1166 286 1121T301 1004T324 840T352 638T385 408T420 160Q448 215 485 287T559 432T631 573T690 688Q687 704 681 748T668 849T653 969T636 1089T621 1185T608 1237Q600 1256 582 1264T547 1272Q534 1272 525 1273T516 1280Q516 1300 528 1300Q559 1300 640 1297T846 1294Q971 1294 1043 1298T1137 1303Q1139 1301 1140 1300T1141 1296Q1141 1274 1130 1274Q1112 1274 1097 1270T1065 1248T1026 1198T972 1107T894 963T784 752Q791 698 801 626T822 475T844 313T864 158L1176 817Q1210 889 1234 942T1276 1035T1305 1102T1322 1149T1330 1183T1333 1212Q1333 1230 1328 1241T1311 1258T1278 1267T1225 1272Q1217 1272 1215 1274T1212 1278Q1212 1280 1212 1282T1214 1290Q1218 1300 1223 1300Q1229 1300 1260 1298T1341 1296Q1398 1296 1454 1298T1552 1300Q1559 1300 1559 1296Q1559 1285 1557 1281T1552 1274ZM838 1268Q810 1268 790 1267T756 1259T736 1238T729 1196Q729 1168 731 1138T738 1064T752 962T774 819Q835 940 870 1013T924 1128T948 1189T954 1221Q954 1252 928 1260T852 1268H838Z"  />
<glyph unicode="X" horiz-adv-x="1004" d="M1112 1272Q1096 1272 1078 1265T1042 1245T1009 1219T981 1190Q956 1161 925 1123T849 1031T745 904T604 731L575 696Q577 691 586 663T609 593T640 498T676 390T714 280T752 181T785 104T811 61Q830 41 851 37T909 31Q919 29 923 29T928 20Q928 3 926 0T909 -4Q817 2 727 2Q647 2 591 -1T504 -4Q499 -4 497 -3T494 4Q494 16 497 22T512 29Q555 31 583 33T627 41T649 58T655 88Q655 110 645 151T615 256T566 408T498 612Q491 605 484 596T469 577Q461 566 453 555Q375 455 314 379T210 245T144 149T121 84Q121 59 147 44T231 29H264Q272 29 275 28T279 20Q279 18 279 16T276 8Q274 0 271 -1T260 -2Q248 -2 233 -2T196 0T146 1T78 2Q46 2 17 1T-36 -1T-74 -3T-92 -4Q-98 -4 -106 -3T-115 8Q-115 21 -112 25T-98 31Q-81 35 -65 42T-27 68T25 117T100 201Q138 244 178 291T256 384T330 473T395 553T446 617T479 657L469 684Q419 827 388 925T335 1087T299 1188T271 1241T237 1263T188 1270H182Q176 1270 175 1271T174 1278Q174 1293 177 1298T190 1303Q244 1303 300 1300T412 1296Q450 1296 488 1298T565 1300Q571 1300 571 1294Q571 1276 566 1273T549 1268Q515 1266 492 1263T453 1254T431 1237T424 1208Q424 1191 429 1166T446 1106Q454 1080 463 1048T485 973T514 878T553 760L559 743Q593 784 631 831T707 927T778 1022T838 1108T879 1178T895 1223Q895 1251 864 1257T776 1266Q762 1266 758 1268T754 1276Q754 1294 758 1297T774 1300Q814 1297 855 1297T936 1296Q1010 1296 1052 1298T1118 1300Q1121 1300 1122 1300T1124 1294Q1124 1279 1122 1276T1112 1272Z"  />
<glyph unicode="Y" horiz-adv-x="905" d="M1100 1282Q1098 1270 1092 1268T1075 1266Q1060 1265 1046 1260T1011 1237T958 1182T874 1081Q834 1032 792 979T707 870T622 761T539 655Q530 643 525 632T517 608T513 583T508 555Q503 535 496 497T479 413T461 318T445 225T433 148T428 102Q428 76 435 62T459 41T503 32T569 27Q580 27 584 25T588 16Q588 7 585 2T563 -4Q556 -4 544 -3T508 -1T449 1T362 2Q305 2 248 0T135 -4Q126 -4 124 -3T121 4Q121 20 125 23T147 29Q196 32 227 37T277 58T308 102T330 182Q344 256 358 328T383 460T401 559T408 606Q408 615 405 626T397 653L262 1061Q237 1139 221 1180T188 1241T154 1264T106 1270H100Q90 1272 90 1278Q90 1303 98 1303Q101 1303 117 1302T158 1300T217 1297T289 1296Q335 1296 380 1296T469 1300Q478 1300 482 1299T487 1292Q487 1274 482 1271T465 1268H455Q423 1266 400 1264T363 1257T343 1241T336 1212Q336 1181 359 1098T426 889Q439 850 451 814T474 749T491 699T500 672Q508 684 526 709T561 756Q621 831 678 911T795 1069Q829 1115 850 1153T872 1217Q872 1241 848 1256T764 1272H748Q744 1272 743 1272T741 1278Q741 1303 752 1303Q758 1303 803 1300T936 1296Q972 1296 997 1296T1041 1298T1072 1299T1096 1300Q1102 1300 1102 1296Q1102 1293 1102 1290T1100 1282Z"  />
<glyph unicode="Z" horiz-adv-x="922" d="M965 1233Q943 1205 837 1056T541 647L102 45Q237 46 337 48T508 56T625 70T696 94Q731 114 767 173T838 324Q841 333 844 335T850 338Q859 338 862 335T866 328Q866 325 866 320T862 301Q857 282 849 252T829 186T805 111T776 33Q764 1 760 -6T752 -14Q745 -14 735 -10T707 -4Q626 -1 542 1T373 4Q263 4 162 2T-16 -6Q-30 -6 -33 -5T-37 4V14Q-37 24 -12 57T51 139Q102 210 146 270T237 393T335 527T457 690Q518 774 566 842T659 974T750 1105T852 1249Q844 1249 833 1249T812 1248Q801 1247 788 1247Q690 1245 619 1243T497 1239T413 1234T359 1226T325 1215T303 1200Q290 1188 279 1175T259 1143T239 1101T217 1044L207 1016Q202 1003 200 1001T195 999Q190 999 186 1001Q177 1006 175 1008T172 1016Q172 1014 177 1033T191 1084T210 1155T231 1231Q240 1261 245 1277T253 1302T259 1311T264 1313Q267 1313 269 1313T279 1309Q286 1304 309 1301T364 1297T432 1295T500 1294Q596 1294 684 1295T840 1299T950 1303T995 1305Q998 1305 1001 1304T1004 1300Q1004 1295 1003 1290T997 1278T986 1261T965 1233Z"  />
<glyph unicode="[" horiz-adv-x="631" d="M682 1389Q682 1382 676 1380T647 1376Q601 1373 569 1372T514 1369T478 1360T455 1341T439 1307T426 1251Q397 1104 364 929T294 558T220 150T141 -283Q132 -334 126 -366T119 -420Q119 -442 131 -452T166 -465T225 -469T309 -471H322Q325 -471 331 -471T338 -475Q338 -477 337 -483T334 -494Q332 -497 330 -499T319 -502Q307 -502 275 -500T170 -498Q135 -498 96 -500T18 -508Q13 -508 12 -508T10 -502Q12 -492 18 -466T35 -383Q58 -267 86 -121T145 186T205 515T264 841T318 1141T362 1391Q364 1400 366 1403T377 1407Q378 1407 387 1406T412 1404T445 1402T485 1401Q520 1401 551 1402T608 1404T649 1406T670 1407Q678 1407 680 1407T682 1401V1389Z"  />
<glyph unicode="\" horiz-adv-x="639" d="M410 -369Q395 -211 381 -80T355 165T332 375T309 562T287 738T265 915T242 1103T217 1315H281Q302 1105 326 895T376 474T427 53T473 -369H410Z"  />
<glyph unicode="]" horiz-adv-x="631" d="M-98 -489Q-98 -483 -92 -481T-63 -477Q6 -473 45 -472T106 -461T138 -427T158 -352Q187 -205 220 -30T289 341T363 749T442 1182Q452 1233 458 1265T465 1319Q465 1341 453 1351T417 1364T358 1368T274 1370H262Q259 1370 253 1370T246 1374Q246 1376 247 1382T250 1393Q252 1396 254 1398T264 1401Q270 1401 281 1401T309 1399T352 1398T414 1397Q449 1397 488 1399T565 1407Q570 1407 571 1407T573 1401Q571 1392 566 1366T549 1282Q526 1166 498 1020T439 713T379 384T319 58T265 -242T221 -492Q219 -501 217 -504T207 -508Q204 -508 172 -505T98 -502Q63 -502 32 -503T-25 -505T-66 -507T-86 -508Q-94 -508 -96 -508T-98 -502V-489Z"  />
<glyph unicode="^" horiz-adv-x="850" d="M750 723L473 1266L193 723H102L428 1346H516L840 723H750Z"  />
<glyph unicode="_" horiz-adv-x="995" d="M-133 -229H842V-309H-133V-229Z"  />
<glyph unicode="`" horiz-adv-x="1030" d="M672 997Q662 997 659 998T651 1004L449 1237Q428 1260 428 1274Q428 1281 436 1288T457 1302T487 1313T524 1317Q534 1317 539 1311T549 1296L676 1022Q679 1017 681 1012T684 1004Q684 997 672 997Z"  />
<glyph unicode="a" horiz-adv-x="805" d="M690 166Q641 73 592 25T504 -23Q478 -23 461 -3T444 49Q444 70 451 107T470 193T500 303T537 428L528 432Q514 406 495 372T455 303T412 233T373 172Q307 70 252 24T141 -23Q93 -23 65 18T37 131Q37 176 49 227T83 333T138 443T213 553Q301 671 407 749T629 862Q641 900 656 912T694 924Q711 924 716 917T721 897Q721 892 720 885T717 866T709 835T696 788Q680 731 662 665T627 531T595 400T567 282T548 192T541 143Q541 102 571 102Q590 102 613 124T661 184T711 271T758 375L762 369Q770 354 770 350Q770 342 763 322T745 276T719 220T690 166ZM518 752Q485 752 445 728T362 663T280 568T209 454T159 332T139 211Q139 158 157 126T209 94Q230 94 255 108T313 156T386 247T475 389Q498 429 517 471T549 554T570 631T578 696Q578 716 575 727T564 744T545 751T518 752Z"  />
<glyph unicode="b" horiz-adv-x="780" d="M207 -23Q180 -23 158 -12T119 21T93 71T84 135Q84 157 85 178T92 234T107 325T135 473Q152 565 169 656T200 833T227 994T249 1130T263 1231T268 1288Q268 1323 253 1339T193 1370Q172 1376 172 1378Q172 1380 173 1383T174 1389Q174 1392 180 1394T195 1399Q230 1407 264 1416T336 1432L381 1440Q386 1442 390 1442T401 1442Q410 1442 410 1432Q410 1428 410 1426T408 1417Q408 1411 405 1398T395 1362Q387 1331 380 1298T367 1231Q341 1102 317 977T272 749T237 573T215 475L221 473Q271 584 319 662T413 789T504 860T592 883Q654 883 687 833T721 692Q721 612 699 528T639 364T550 215T442 91T325 8T207 -23ZM541 795Q506 795 465 765T382 684T301 569T232 435T184 297T166 172Q166 146 169 122T183 79T210 49T256 37Q288 37 325 59T400 120T473 214T537 334Q577 428 600 515T623 668Q623 694 618 717T603 757T578 785T541 795Z"  />
<glyph unicode="c" horiz-adv-x="582" d="M516 262L528 246Q532 242 532 238Q532 234 527 224T516 201T502 177T489 158Q463 113 433 80T372 23T312 -11T260 -23Q215 -23 180 -3T122 53T86 142T74 258Q74 313 85 377T116 506T166 630T233 737Q296 818 357 851T479 885Q550 885 594 861T639 793Q639 770 630 751T598 731Q583 731 569 743T543 772Q515 807 494 822T438 838Q389 838 342 789T254 653Q235 612 220 565T193 471T176 379T170 297Q170 247 175 204T195 129T234 79T301 61Q329 61 358 77T414 121T466 185T514 262H516Z"  />
<glyph unicode="d" horiz-adv-x="827" d="M776 1171Q771 1151 762 1105T739 994T709 854T677 699T646 541T617 396T594 278T580 201Q580 198 578 185T572 154T566 120T563 92Q563 86 568 81T580 76Q599 76 624 99T676 158T727 234T770 309H774L772 270Q771 252 764 233T745 194T722 157T698 121Q649 47 609 11T530 -25Q506 -25 494 -8T481 41Q481 56 489 101T512 212T543 360T580 530L578 532Q553 469 525 411T468 302T412 207T362 131Q305 51 254 13T160 -25Q95 -25 63 30T31 184Q31 259 51 339T105 495T183 641T278 761T381 843T483 874Q522 874 554 864T616 815Q635 912 651 995T679 1145T698 1257T705 1325Q705 1336 703 1344T693 1358T668 1367T625 1370Q615 1370 610 1369T600 1368Q594 1368 594 1374Q594 1379 595 1383T598 1393Q599 1394 605 1396T621 1402T641 1408T659 1413Q683 1419 709 1425T759 1437T799 1445T821 1448Q836 1448 836 1434Q836 1429 832 1410T822 1365T809 1308T795 1251T783 1202T776 1171ZM483 827Q449 827 416 806T351 752T292 676T241 591T200 508T172 440Q164 420 156 390T139 323T126 250T121 178Q121 154 124 133T135 95T155 70T186 61Q226 61 271 99T361 198T448 332T522 477T573 610T592 705Q592 741 584 764T562 802T527 821T483 827Z"  />
<glyph unicode="e" horiz-adv-x="643" d="M426 473Q400 464 378 458T330 447T271 439T190 434Q184 396 180 359T176 283Q176 242 182 204T202 135T240 87T297 68Q322 68 350 76T409 103T474 155T545 236H547L551 227Q553 224 553 222T553 217Q553 196 502 133Q373 -23 248 -23Q167 -23 121 47T74 248Q74 333 88 413T129 564T191 694T270 795T361 861T461 885Q497 885 527 873T579 840T613 789T625 723Q625 682 611 644T571 574T508 516T426 473ZM440 850Q400 850 363 822T295 743T238 620T195 457Q241 462 276 469T338 487T388 511T432 543Q453 560 470 584T500 635T520 691T528 745Q528 792 505 821T440 850Z"  />
<glyph unicode="f" horiz-adv-x="424" d="M768 1321Q768 1295 750 1280T705 1264Q689 1264 681 1275T664 1313Q653 1345 629 1358T567 1372Q528 1372 498 1353T446 1303T406 1235T377 1161Q370 1139 363 1112T348 1048T331 959T311 838L510 842H514Q518 842 518 838V833Q518 831 516 823L508 786Q506 783 505 782T498 780H303L205 117Q181 -44 155 -167T91 -373T3 -500T-123 -543Q-165 -543 -192 -524T-219 -475Q-219 -449 -206 -433T-176 -416Q-170 -416 -163 -420T-143 -436Q-122 -456 -105 -467T-68 -479Q-36 -479 -13 -453T27 -378T58 -264T82 -119T105 48T129 231L207 780H100Q94 780 94 782Q94 785 95 789Q96 792 96 795T98 801Q100 806 102 807T111 811L215 831Q221 862 226 897T238 967Q249 1031 263 1078T295 1165T336 1237T391 1307Q447 1370 507 1405T621 1440Q687 1440 727 1408T768 1321Z"  />
<glyph unicode="g" horiz-adv-x="670" d="M729 770Q727 768 719 768Q682 768 645 775T563 791L526 797Q551 758 559 717T567 639Q567 558 544 487T482 362T391 273T279 233Q260 219 250 205T234 178T227 154T225 135Q225 117 234 102T258 78Q298 50 345 23T442 -31Q558 -93 608 -147T659 -252Q659 -315 622 -372T520 -473T371 -543T190 -569Q124 -569 71 -555T-21 -514T-79 -451T-100 -371Q-100 -328 -74 -283T3 -196T125 -116T287 -49Q251 -30 226 -13T186 22T165 56T158 94Q158 111 161 126T173 158T199 193T244 233Q212 236 183 253T133 300T99 371T86 463Q86 550 107 627T163 761T246 852T346 885Q360 885 373 882T401 877L424 872Q492 867 558 862T692 846Q721 843 732 838T743 817Q743 814 743 810T741 799Q738 785 735 779T729 770ZM389 856Q364 856 338 836T288 780T241 699T203 600T178 495T168 391Q168 329 190 294T254 258Q288 258 318 285T379 365Q399 399 417 442T450 532T472 624T481 709Q481 739 475 765T456 812T427 844T389 856ZM494 -172Q458 -144 418 -120T338 -74L309 -57Q151 -129 77 -206T2 -352Q2 -387 20 -416T71 -466T145 -500T236 -512Q304 -512 368 -495T481 -436Q518 -405 541 -367T565 -291Q565 -277 563 -264T553 -236T531 -206T494 -172Z"  />
<glyph unicode="h" horiz-adv-x="778" d="M383 -16Q338 -16 338 27Q338 32 338 37T340 49Q348 74 360 81T395 88H436Q454 89 468 95T495 118T520 164T547 240Q576 339 600 447T625 668Q625 795 551 795Q518 795 479 765T400 682T320 557T246 402T186 227T145 43Q140 11 130 0T100 -12Q79 -12 67 1T55 37Q55 46 56 57T63 82Q73 127 83 179T107 300T137 463T178 682Q200 796 221 905T258 1103T283 1253T293 1331Q293 1355 288 1366T273 1381T250 1385T219 1386Q217 1386 212 1386T207 1389Q205 1391 205 1401Q205 1406 215 1409L223 1411Q252 1417 282 1424T342 1438Q367 1443 382 1445T408 1448Q422 1448 422 1434Q422 1431 422 1428T420 1419Q416 1406 408 1373T390 1291T368 1184T343 1060T316 928T289 799Q274 724 262 669T241 572T224 495T209 428L215 424Q261 523 312 608T414 755T514 853T604 889Q661 889 693 840T725 700Q725 623 710 540T669 377T609 226T536 101T459 16T383 -16Z"  />
<glyph unicode="i" horiz-adv-x="461" d="M455 1257Q455 1245 449 1233T432 1212T409 1196T383 1190Q371 1190 359 1195T338 1210T322 1230T315 1253Q315 1266 321 1278T338 1301T361 1317T387 1323Q399 1323 411 1317T433 1302T449 1281T455 1257ZM98 643V666Q98 670 98 674T103 684T114 701T137 729Q197 800 252 840T350 883Q369 883 379 869T389 834Q389 820 386 798T369 731L215 233Q203 190 193 156T182 100Q182 89 185 83T199 76Q209 76 223 82T260 107T313 159T389 246H391V217Q391 211 390 206T385 194T373 175T350 147Q278 62 225 20T131 -23Q116 -23 106 -16T91 1T84 24T82 49Q82 72 90 107T115 199Q126 233 136 270T160 346L281 745Q283 753 284 758T285 768Q285 784 268 784Q257 784 245 778T218 762T190 739T163 713Q132 682 100 643H98Z"  />
<glyph unicode="j" horiz-adv-x="414" d="M328 1178Q316 1178 305 1183T284 1198T270 1220T264 1245Q264 1259 270 1272T286 1295T308 1312T332 1319Q343 1319 354 1313T375 1296T391 1274T397 1249Q397 1236 391 1223T375 1200T353 1184T328 1178ZM49 596V616Q49 627 58 641T94 690Q169 783 228 832T326 881Q344 881 352 872T360 840Q360 832 359 823T354 790T341 725T317 610L184 -8Q166 -92 152 -151T123 -254T94 -328T57 -389Q33 -425 5 -454T-53 -505T-110 -537T-160 -549Q-195 -549 -218 -537T-242 -498Q-242 -489 -239 -478T-230 -457T-215 -441T-195 -434Q-181 -434 -168 -440T-143 -453Q-122 -465 -96 -465Q-91 -465 -86 -465T-76 -463Q-44 -455 -22 -418T16 -331T43 -227T63 -129L233 670Q237 685 240 700T244 735Q244 743 242 747T229 752Q218 752 202 742T167 716T130 681T95 645T68 614T53 596H49Z"  />
<glyph unicode="k" horiz-adv-x="823" d="M612 -41Q505 -41 435 80T324 453H223L188 274Q182 242 175 206T162 134T149 67T137 16Q132 -2 124 -12T102 -23Q96 -23 90 -21T76 -16Q41 -2 41 37Q41 42 42 46T45 57T50 73T57 98Q62 118 67 138T78 184T91 245T109 330Q136 461 156 558T192 731T220 867T243 984T265 1102T289 1237Q290 1248 292 1261T296 1288T299 1313T301 1329Q301 1352 287 1364T236 1376H209Q203 1376 202 1380T201 1389V1391Q201 1397 203 1400T223 1409Q278 1421 312 1428T366 1440T397 1445T416 1448Q422 1448 427 1446T432 1438V1430Q432 1426 432 1423T430 1415Q426 1405 419 1374T401 1297T379 1197T354 1083Q336 995 318 908T279 727L256 631Q350 756 440 820T608 885Q676 885 706 834T737 688Q737 611 707 565T629 496Q611 487 594 481T553 471T499 464T422 459Q439 352 465 271T514 137Q546 65 582 34T651 2Q679 2 695 19T711 55Q711 69 704 81T696 109Q696 120 699 130T713 150Q721 158 729 161T745 164Q762 164 774 151T786 113Q786 84 773 57T736 8T680 -27T612 -41ZM565 823Q538 823 511 813T456 787T402 749T354 705Q332 682 313 659T277 608T249 548T227 473Q259 475 289 477T362 483Q447 491 511 505T610 561Q627 583 634 615T641 694Q641 757 622 790T565 823Z"  />
<glyph unicode="l" horiz-adv-x="432" d="M446 1413Q432 1359 418 1301T389 1178L170 190Q164 166 160 146T156 117Q156 109 158 104T168 98Q194 98 248 141T377 274H381V256Q381 248 380 242T375 227T361 205T334 170Q251 69 194 24T106 -23Q86 -23 72 -10T57 45Q57 55 59 75T65 122T74 177T86 233L229 893Q268 1074 289 1175T311 1305Q310 1326 305 1336T287 1352T256 1360T207 1368Q204 1368 203 1368T201 1374V1382Q203 1390 204 1393T217 1399L260 1409Q303 1419 332 1425T382 1435T416 1440T440 1442Q451 1442 451 1434Q451 1426 446 1413Z"  />
<glyph unicode="m" horiz-adv-x="1276" d="M1219 285Q1214 275 1208 264T1196 244Q1162 189 1124 140T1050 55T983 -3T930 -25Q916 -25 908 -15T899 14Q899 35 918 111Q926 143 932 166T943 210T954 253T966 304T983 374T1008 473Q1023 535 1033 579T1050 655T1058 708T1061 743Q1061 765 1054 779T1028 793Q1003 793 972 767T906 697T836 595T770 473Q749 431 725 374T676 256T632 137T600 33Q592 2 583 -8T557 -18Q535 -18 521 -3T506 31Q506 40 507 49T512 72Q521 103 528 132T543 190Q552 231 563 271T586 350Q624 502 644 602T664 739Q664 762 651 777T618 793Q586 793 551 765T478 686T404 568T334 420T272 253T225 76Q218 47 214 30T206 3T195 -9T180 -12Q154 -12 137 2T119 37Q119 42 119 46T121 59Q123 69 127 85T139 133Q144 151 152 186T171 265T194 359T217 459Q243 575 274 711Q276 719 277 728T279 745Q279 768 250 768Q227 768 201 748T152 700T110 644T86 598L80 586H74V612Q74 621 75 628T79 644T89 665T106 696Q159 793 209 841T303 889Q324 889 336 880T353 858T359 827T360 795Q360 767 351 725T326 626T289 497T244 336Q276 396 307 453T369 565Q400 619 432 669T500 764Q549 827 593 858T674 889Q709 889 730 861T752 782Q752 761 749 732T735 657Q732 645 728 626T717 582T703 529T689 474Q672 410 653 336H659Q799 619 905 752T1085 885Q1121 885 1141 854T1161 766Q1161 746 1159 724T1152 671T1136 595T1110 487Q1106 474 1098 444T1080 377T1059 300T1038 224T1021 163T1012 131Q1012 128 1010 120T1008 106Q1008 103 1009 99T1018 94Q1035 94 1061 120T1137 213Q1154 236 1175 266T1221 336H1223V305Q1223 300 1223 296T1219 285Z"  />
<glyph unicode="n" horiz-adv-x="858" d="M791 244Q755 182 720 133T653 49T595 -4T549 -23Q529 -23 521 -10T512 23Q512 43 515 61T524 98Q553 216 577 317T618 498T645 632T655 713Q655 780 608 780Q589 780 566 768T517 727T461 654T397 543Q370 492 343 428T289 298T240 167T201 49Q188 7 178 -9T150 -25Q106 -25 106 16Q106 24 107 32T111 49Q119 83 136 153T178 330Q197 409 214 481T243 609T263 702T270 750Q268 771 260 775T244 780Q215 780 175 730T86 563H84V598Q84 608 84 615T87 631T95 652T109 682Q149 778 201 832T301 887Q339 887 352 868T365 821Q365 800 360 777T350 735Q346 721 343 710T337 685T328 651T315 600Q308 574 301 551T286 498T268 432T244 342L252 338Q303 455 358 555T467 728T572 842T666 883Q708 883 730 848T752 739Q752 724 751 710T748 679T742 642T731 594Q719 540 698 454T643 231Q634 195 629 172T620 136T617 115T616 104Q616 99 620 99T627 98Q633 98 646 110T676 144T714 192T755 249T795 309T831 365H834V352Q834 341 833 333T827 313T814 286T791 244Z"  />
<glyph unicode="o" horiz-adv-x="760" d="M557 154Q498 67 427 22T276 -23Q181 -23 128 51T74 262Q74 347 89 426T131 575T197 702T280 800T377 864T483 887Q577 887 631 808T686 586Q686 530 677 473T651 359T610 251T557 154ZM459 850Q399 850 347 784T252 602Q236 558 223 509T199 410T184 313T178 225Q178 180 185 142T207 74T243 29T293 12Q356 12 409 74T506 246Q524 292 538 341T563 439T578 535T584 625Q584 674 576 715T552 787T513 833T459 850Z"  />
<glyph unicode="p" horiz-adv-x="813" d="M578 182Q522 104 460 58T326 12Q291 12 256 21T184 53L133 -250Q122 -318 117 -364T111 -428Q111 -451 130 -466T203 -487Q226 -489 240 -489T262 -489Q268 -489 271 -490T274 -500Q274 -515 272 -519T258 -524Q247 -524 235 -524T200 -523T144 -521T57 -518Q40 -518 15 -518T-36 -519T-86 -521T-121 -524H-125Q-133 -524 -133 -514Q-133 -502 -131 -499T-117 -494Q-89 -490 -69 -486T-35 -473T-10 -448T8 -405T25 -337T43 -238Q61 -134 79 -32T119 186T166 439T223 752L111 721Q103 719 100 718Q97 717 94 717Q92 717 92 723V745Q92 749 93 750T102 754L229 793Q232 804 234 813T239 838T246 883T258 963Q262 988 266 1004T277 1029T298 1041T332 1044Q353 1044 361 1035T369 1014Q369 1008 367 995T360 967Q351 932 343 896T328 819Q412 841 468 849T571 858Q656 858 700 811T745 680Q745 629 733 566T699 435T646 302T578 182ZM477 803Q437 803 398 795T317 778Q298 671 283 590T256 447T236 343T223 268T216 216T213 178Q213 118 238 86T330 53Q387 53 437 107T532 258Q552 302 570 349T603 446T626 548T635 653Q635 732 599 767T477 803Z"  />
<glyph unicode="q" horiz-adv-x="815" d="M575 303Q537 249 496 197T411 105T318 39T217 14Q154 14 115 71T76 231Q76 309 97 388T153 540T233 676T329 785T432 858T532 885Q567 885 601 873T659 838Q672 825 679 818T694 797Q705 812 719 832T743 868Q747 873 748 876T752 879Q755 879 763 874T772 864Q772 862 772 859T770 850Q761 813 754 777T739 707Q738 702 732 666T715 573T691 445T663 301Q630 129 590 -88Q562 -231 550 -311T537 -430Q537 -455 542 -467T557 -485T579 -491T606 -494L627 -496Q635 -498 639 -498T643 -502Q643 -505 642 -509T639 -518Q637 -523 633 -523T614 -524Q606 -524 564 -521T449 -518Q430 -518 406 -519T358 -521T318 -523T297 -524Q285 -524 282 -522T279 -514V-506Q279 -496 287 -496Q292 -496 299 -495T311 -494Q349 -489 371 -483T409 -458T435 -399T461 -289Q470 -244 481 -191T506 -69T538 91T580 301L575 303ZM543 844Q505 844 463 813T379 731T301 612T234 472T188 326T170 190Q170 125 190 89T252 53Q277 53 309 74T377 131T449 214T517 316T575 426T616 537Q626 569 633 613T641 702Q641 730 636 756T620 801T590 832T543 844Z"  />
<glyph unicode="r" horiz-adv-x="676" d="M649 692Q629 692 623 706T616 752Q616 778 604 787T578 797Q555 797 529 770T473 696T415 589T359 464T306 335T261 216T228 121T209 63Q195 14 184 -3T150 -20Q128 -20 119 -8T109 23Q109 32 109 38T113 63Q118 82 126 118T152 221Q167 287 183 354T213 487Q222 529 231 569T248 646T261 711T266 760Q266 769 262 778T242 788Q219 788 199 771T160 729Q138 700 120 667T90 602H86L84 627Q84 635 84 640T88 653Q90 660 94 670T104 694Q197 887 289 887Q317 887 331 873T348 834V817Q348 785 341 741T324 644T300 537T273 429T248 329T229 246L240 242Q248 265 253 278T261 300T269 318T278 342T292 381T315 446Q355 561 396 644T477 781T552 859T618 885Q644 885 661 876T689 853T704 819T709 780Q709 766 707 751T699 722T680 701T649 692Z"  />
<glyph unicode="s" horiz-adv-x="489" d="M408 768Q373 791 348 801T299 811Q276 811 256 800T220 770T195 728T186 680Q186 659 191 641T207 601T238 549T287 475Q335 406 360 357T385 264Q385 209 362 157T299 65T210 1T106 -23Q58 -23 28 -5T-2 59Q-2 75 5 93T33 111Q50 111 72 99T111 78Q129 69 143 65T170 58T192 56T211 55H213Q230 55 247 65T279 91T303 128T313 170Q313 190 309 211T294 259T262 321T211 406Q185 446 169 474T143 524T129 568T125 614Q125 661 147 709T206 796T287 860T377 885Q393 885 412 880T448 863T476 836T487 799Q487 777 476 766T449 754Q428 754 408 768Z"  />
<glyph unicode="t" horiz-adv-x="471" d="M553 795Q551 785 548 783T528 780L319 782L272 592Q239 458 220 375T192 240T181 164T178 121Q178 96 199 96Q211 96 233 109T285 145T354 200T436 270H440V254Q440 237 433 228T414 205Q317 95 243 38T129 -20Q107 -20 96 -1T84 61Q84 91 88 132T102 236T129 384T174 590L217 780H115Q110 780 110 781T109 784L113 801Q115 811 125 813L231 840L276 1026Q278 1034 281 1046T287 1065Q290 1070 298 1072T315 1077Q331 1080 344 1082T367 1085Q385 1085 385 1067Q385 1061 384 1056T381 1042L332 840L551 842Q561 842 561 836Q561 834 560 828T557 815L553 795Z"  />
<glyph unicode="u" horiz-adv-x="868" d="M838 311Q833 302 829 293T819 270Q812 254 792 219T745 143T689 66T635 10Q596 -18 565 -18Q539 -18 524 2T508 59Q508 76 519 121T548 227T587 354T628 482T662 587T682 649H678Q632 571 586 496T496 354T413 232T342 137Q274 53 230 18T154 -18Q128 -18 116 1T104 63Q104 107 122 181T174 367Q183 397 198 442T229 535T261 624T283 686Q284 689 287 698T294 718T300 738T303 750Q303 755 301 757T291 760Q280 760 267 750T238 725Q209 694 176 652T117 565H111V588Q111 598 123 621Q134 638 152 664T194 720T243 780T294 833T342 872T383 887Q402 887 409 877T416 850Q416 830 409 809T393 762Q385 739 373 705T345 621T308 504T258 348Q246 308 236 273T219 209T209 162T205 135Q205 130 205 125T207 115Q211 104 227 104Q249 105 284 136T362 218T450 336T539 476T620 626T684 772Q689 788 698 809T717 854Q723 868 730 877T750 887Q755 887 761 886T776 879Q792 871 796 861T801 838Q801 822 796 806T782 766Q771 732 756 683T724 576T690 458T657 343T630 242T612 168Q610 162 609 153T608 135Q608 123 612 115T629 106Q649 106 675 128T729 188T786 275T840 377H844V342Q844 333 843 326T838 311Z"  />
<glyph unicode="v" horiz-adv-x="768" d="M457 203Q408 152 363 110T279 38T206 -8T147 -25Q121 -25 112 -5T102 43Q102 52 102 60T104 78Q107 101 110 124T118 175T131 240T152 326T183 440T229 590Q235 606 241 627T254 668T264 706T268 735Q268 748 254 748Q244 748 223 732T174 689T118 632T63 571H61V590Q61 599 65 607T82 633Q121 687 160 732T236 812T304 865T356 885Q373 885 381 878T389 852Q389 824 373 768T328 621Q303 538 281 457T243 308T217 192T207 129Q207 103 214 96T231 88Q282 88 406 203Q461 254 509 319T594 452T651 586T672 707Q672 722 669 736T655 760Q650 765 640 780T629 815Q629 826 633 838T649 862Q660 875 673 880T698 885Q717 885 728 873T746 845T754 810T756 778Q756 727 737 660T679 516T585 360T457 203Z"  />
<glyph unicode="w" horiz-adv-x="1171" d="M887 248Q836 186 789 136T698 51T617 -3T549 -23Q524 -23 517 -6T510 37Q510 68 518 116T540 226T575 362T621 520H618Q541 395 473 295T346 124T240 15T158 -25Q138 -25 124 1T109 70Q109 107 119 169T148 311T192 481T248 670Q253 685 257 702T262 731Q262 748 252 748Q242 748 220 730T171 686T114 628T61 571H59V592Q59 599 60 606T68 625T91 656T135 709Q167 746 199 778T260 834T315 871T358 885Q372 885 378 878T385 854Q385 829 372 781T332 651Q267 438 237 304T207 119Q207 106 211 96T223 86Q248 87 292 130T390 245T507 409T631 600Q634 611 635 617T638 628T641 638T645 655Q650 679 654 694T661 722T669 747T678 778Q682 793 688 812T705 847T731 874T766 885Q788 885 799 869T811 829Q811 817 809 806T801 780T785 749T758 709Q724 595 697 496T649 322T618 197T606 135Q606 129 604 122T602 104Q602 93 606 85T623 76Q647 76 683 99T761 160T846 248T926 354Q955 396 979 442T1021 534T1049 623T1059 705Q1059 717 1056 735T1044 766Q1030 789 1027 797T1024 817Q1024 827 1029 839T1045 861T1067 878T1094 885Q1121 885 1135 857T1149 780Q1149 734 1132 674T1081 544T998 399T887 248Z"  />
<glyph unicode="x" horiz-adv-x="862" d="M137 594L129 610Q127 612 125 619T123 629Q123 639 126 653T133 683T141 712T147 735Q169 803 203 843T279 885Q311 885 335 857T379 756Q381 746 384 733T394 694T411 625T438 512Q514 626 566 698T654 812T715 868T764 883Q798 883 813 859T829 784Q829 755 827 741T819 713Q814 705 804 697T780 688Q775 688 772 692T766 711Q764 729 760 739T750 755T738 762T727 764Q715 764 704 761T677 748T643 718T598 666Q553 609 516 563T449 471Q466 402 482 328T520 186Q539 128 555 105T594 82Q613 82 634 95T678 134T723 193T768 270H770V238Q770 227 767 216T752 180Q729 134 704 97T654 34T605 -6T561 -20Q523 -20 501 8T457 111Q454 124 450 139T437 184T416 262T383 391Q320 294 278 230T213 133Q198 110 177 82T133 30T85 -10T39 -27Q2 -27 -18 2T-39 92Q-39 119 -34 135T-21 161T-5 174T8 180Q13 182 16 182T23 182Q37 182 41 172T47 139Q47 116 52 103T74 90Q98 90 128 117T196 190T278 300T373 434Q347 538 331 605T302 713T277 768T248 784Q229 784 213 769T183 727T158 666T139 594H137Z"  />
<glyph unicode="y" horiz-adv-x="807" d="M557 145Q469 -34 392 -165T239 -381T80 -508T-102 -551Q-125 -551 -153 -547T-205 -530T-247 -497T-264 -444Q-264 -423 -250 -404T-211 -385Q-194 -385 -183 -399T-164 -430Q-155 -456 -131 -466T-70 -477Q-14 -477 39 -457T141 -404T229 -328T301 -240Q333 -194 352 -158T381 -93T394 -42T397 -2V25Q393 79 388 146T376 287T360 434T340 573Q330 634 319 677T292 747T258 786T213 799Q184 799 160 778T118 722T88 640T72 543Q72 537 70 536T59 535Q50 535 48 535T45 541Q45 568 49 597T59 656T76 714T98 766Q127 820 165 851T246 883Q280 883 308 866T358 812T396 715T424 573Q432 511 439 444T453 308T466 174T477 49Q519 133 544 189T586 286T614 357T637 422Q662 488 674 555T686 670Q686 704 681 725T653 772Q636 792 632 801T627 825Q627 850 644 866T688 883Q722 883 741 849T760 758Q760 662 708 504T557 145Z"  />
<glyph unicode="z" horiz-adv-x="772" d="M571 -96Q539 -96 509 -84T446 -50T377 6T295 82Q266 111 244 120T201 129Q170 129 148 110T115 53Q110 35 100 19T70 2Q50 2 41 16T31 57Q32 84 43 105T71 144T109 173T152 193Q206 268 253 331T345 453T431 565T518 676Q527 687 540 703T567 739Q539 741 513 744T455 752Q410 757 362 765T270 774Q249 774 236 773T215 768T200 758T188 743Q182 735 175 722T162 692Q156 677 151 663T143 641Q138 625 129 625Q121 625 116 630T111 637Q111 640 111 645T115 662T123 692T137 737Q146 766 152 784T163 812T169 828T174 840Q186 863 202 873T246 883Q258 883 270 881T305 874Q317 872 333 870T371 864T424 853T494 838Q544 827 573 824T625 817Q631 826 639 837T657 858Q665 866 675 872T700 879Q716 879 724 867T733 838Q733 823 727 807T706 776T668 750T610 735Q544 649 479 560T346 383Q311 337 280 295T209 199H227Q264 199 294 191T352 167T403 131T453 84Q471 67 488 49T526 10Q541 -5 553 -15T578 -32T602 -40T631 -43Q649 -43 663 -32T678 -4Q678 5 677 10T670 25Q664 36 662 42T659 59Q659 73 668 88T698 104Q726 104 743 87T760 41Q760 15 745 -10T705 -54T645 -84T571 -96Z"  />
<glyph unicode="{" horiz-adv-x="653" d="M47 444Q50 461 52 465T59 469H72Q186 471 251 532T340 707Q344 730 349 752T360 807T375 886T395 1004Q405 1068 413 1111T431 1186T450 1241T473 1286Q508 1346 572 1384T733 1423Q744 1423 747 1423T750 1417Q750 1408 746 1406T725 1401Q683 1397 649 1378T588 1328T543 1254T516 1163Q499 1070 483 972T449 780Q393 472 133 451V446Q195 439 235 420T299 373T332 310T342 236Q342 194 335 152T319 68Q298 -43 284 -115T262 -231T250 -298T246 -336Q246 -368 255 -395T282 -443T327 -475T389 -487Q393 -487 393 -494L391 -502Q391 -505 385 -505T373 -506Q335 -506 297 -498T229 -468T179 -412T160 -324Q160 -312 160 -304T161 -286T163 -264T168 -231Q177 -177 187 -128T207 -30T227 68T246 170Q249 192 251 210T254 248Q254 300 239 334T198 390T139 420T70 432Q63 432 54 432T45 436Q45 438 46 439T47 444Z"  />
<glyph unicode="|" horiz-adv-x="461" d="M233 -442V1421H311V-442H233Z"  />
<glyph unicode="}" horiz-adv-x="653" d="M563 473Q560 456 558 453T551 449H539Q425 447 359 385T270 211Q265 188 261 165T250 110T235 31T215 -86Q205 -150 197 -193T179 -268T160 -323T137 -369Q102 -429 38 -467T-123 -506Q-134 -506 -136 -506T-139 -500Q-139 -490 -136 -488T-115 -483Q-30 -475 23 -410T94 -246Q111 -153 128 -55T162 137Q218 446 477 467V471Q415 478 375 497T311 544T278 607T268 682Q268 724 275 766T291 850Q312 961 326 1032T348 1148T361 1215T365 1253Q365 1284 356 1312T328 1360T283 1393T221 1405Q217 1405 217 1411L219 1419Q219 1422 226 1422T238 1423Q275 1423 313 1415T382 1385T432 1329T451 1241Q451 1229 451 1221T450 1203T447 1181T442 1149Q433 1095 423 1046T404 948T384 850T365 748Q361 726 359 707T356 670Q356 617 371 583T413 528T472 498T541 485Q547 485 556 485T565 481Q565 479 564 478T563 473Z"  />
<glyph unicode="~" horiz-adv-x="850" d="M827 737Q819 696 804 661T763 600T704 560T625 545Q574 545 530 565T438 621Q409 644 376 660T317 676Q261 676 232 641T180 539L115 567Q120 593 132 626T168 689T228 739T319 760Q344 760 367 753T413 735T455 711T494 684Q537 656 569 644T633 631Q680 631 708 665T760 766L827 737Z"  />
<glyph unicode="&#xA0;" horiz-adv-x="338" />
<glyph unicode="&#xA1;" horiz-adv-x="508" d="M242 512Q245 529 247 538T252 553T259 559T270 561Q278 561 282 561T287 555Q287 549 284 536T279 514Q256 410 241 295T213 59T186 -184T152 -424Q148 -445 138 -458T115 -479T85 -489T51 -492Q31 -492 20 -484T8 -453Q8 -446 8 -440T10 -426Q34 -302 65 -182T129 55T192 286T242 512ZM317 862Q330 862 343 855T368 836T386 810T393 784Q393 769 385 755T365 729T338 710T309 702Q296 702 283 709T258 728T240 753T233 780Q234 794 242 808T263 835T289 854T317 862Z"  />
<glyph unicode="&#xA2;" horiz-adv-x="850" d="M719 965Q699 966 684 980T653 1011T623 1044T586 1063Q571 988 554 899T519 714T481 517T444 319Q466 328 489 346T536 389T582 444T625 510L639 514Q644 505 648 497T653 479Q653 474 653 471T649 463Q629 427 606 391T556 323T497 266T428 227L387 0H324Q335 51 345 107T367 217H365Q324 217 292 236T238 289T205 372T193 481Q193 539 203 604T233 734T282 862T349 976T435 1065T539 1120L567 1298H629L598 1130Q683 1130 723 1106T764 1034Q764 999 752 982T719 965ZM381 897Q360 854 344 808T317 715T299 626T293 545Q293 432 316 378T387 315Q405 407 423 497T458 679T492 863T526 1053Q488 1039 450 999T381 897Z"  />
<glyph unicode="&#xA3;" horiz-adv-x="850" d="M836 1075Q831 1073 827 1073T817 1073Q794 1073 785 1086T776 1122Q776 1165 764 1190T733 1229T689 1245T639 1249Q578 1249 534 1231T459 1183T409 1110T380 1020T366 919T362 815Q362 767 362 721T367 627H592L580 582H369Q372 535 372 512T373 469Q373 424 368 384T350 305T313 227T252 143Q305 135 351 120T443 90T532 63T625 51Q652 51 673 62T709 89T731 125T739 160Q739 173 732 182T716 200T700 217T692 238Q692 248 697 257T711 274T728 286T745 291Q754 291 763 288T779 275T790 249T795 209Q795 167 775 125T721 50T645 -4T557 -25Q511 -25 464 -19T371 4Q323 23 280 36T186 59Q149 17 120 3T70 -12Q53 -12 43 -4T33 27Q33 57 52 78T99 114T159 136T219 143Q257 191 271 244T285 356Q285 378 284 401T280 451T274 510T266 582H90L104 627H262Q257 669 257 696T256 748Q256 876 287 975T385 1161Q419 1206 457 1236T536 1286T618 1314T700 1323Q742 1323 776 1309T833 1273T868 1224T881 1171Q881 1158 880 1143T874 1113T860 1088T836 1075Z"  />
<glyph unicode="&#xA4;" horiz-adv-x="850" d="M836 322L723 434Q670 391 609 369T481 346Q456 346 427 350T366 365T303 392T240 434L125 322L72 375L188 485Q148 538 125 597T102 725Q102 793 124 854T188 965L72 1077L125 1130L240 1018Q305 1067 367 1085T481 1104Q508 1104 538 1099T600 1083T662 1056T721 1018L836 1130L889 1077L772 965Q820 906 840 847T860 725Q860 659 838 600T772 485L889 375L836 322ZM784 727Q784 794 758 850T690 946T593 1008T483 1030Q416 1030 360 1006T264 940T201 843T178 727Q178 665 201 610T266 512T363 445T481 420Q543 420 598 444T694 511T760 609T784 727Z"  />
<glyph unicode="&#xA5;" horiz-adv-x="850" d="M1055 1266Q1040 1266 1027 1261T997 1242T960 1204T909 1143Q897 1129 879 1106T840 1053T794 992T747 928Q692 854 631 770H778Q784 770 787 770T791 764L782 723Q780 717 779 716T772 715H594Q566 681 552 661T531 625T520 590T512 541L750 543Q755 543 758 542T762 537Q762 535 760 521T756 496Q754 485 743 485Q696 485 651 486Q613 486 572 486T500 487L457 238Q449 194 445 163T440 111Q440 88 444 75T459 54T491 42T547 35Q568 33 574 32T580 23Q580 7 578 2T571 -4Q516 -4 469 -1T377 2Q329 2 282 1T184 -4Q176 -4 176 2Q176 22 180 27T195 33H211Q247 35 271 41T312 67T341 129T367 244L410 487L174 485Q168 485 168 492Q168 493 168 500T174 537Q174 540 176 540T180 541H420Q425 567 428 583T432 614Q432 620 429 635T423 667T415 697T410 715H209Q201 715 201 719Q202 723 204 729Q206 737 211 762Q214 770 221 770H395L313 1020Q296 1071 284 1108T262 1172T243 1214T225 1241Q211 1257 193 1260T143 1268Q137 1268 134 1268T131 1274Q131 1300 145 1300Q187 1300 228 1297T311 1294Q359 1294 405 1297T502 1300Q507 1300 508 1298T510 1284Q508 1270 504 1269T489 1266Q457 1264 435 1262T399 1254T379 1237T373 1204Q373 1179 383 1142T410 1049L518 682L760 1032Q808 1101 830 1147T852 1219Q852 1245 828 1255T756 1268H748Q737 1268 733 1270T729 1278Q729 1292 730 1296T737 1300Q747 1300 783 1296T887 1292Q927 1292 966 1294T1055 1300Q1063 1300 1065 1299T1067 1292Q1067 1277 1065 1272T1055 1266Z"  />
<glyph unicode="&#xA6;" horiz-adv-x="461" d="M233 739V1421H309V739H233ZM233 -440V240H309V-440H233Z"  />
<glyph unicode="&#xA7;" horiz-adv-x="825" d="M713 1124Q708 1124 704 1127T688 1143Q662 1174 626 1190T547 1206Q510 1206 478 1193T421 1156T382 1102T367 1034Q367 1008 372 984T397 920T454 818T555 653Q586 604 607 564T641 489T660 423T666 360Q666 257 611 176T434 31Q476 -37 493 -92T510 -201Q510 -269 484 -331T413 -442T310 -520T190 -549Q157 -549 128 -540T77 -515T42 -479T29 -438Q29 -409 47 -387T90 -365Q96 -365 99 -365T106 -371Q111 -373 117 -385Q122 -390 125 -396T135 -410Q151 -434 185 -449T254 -465Q334 -465 381 -419T428 -293Q428 -259 421 -225T394 -147T344 -47T266 88Q234 140 213 181T179 256T160 320T154 379Q154 413 161 448T183 517T216 579T260 629Q269 637 278 644T301 660T332 680T379 709L369 729L360 741Q341 775 329 801T309 849T300 891T297 934Q297 1006 322 1072T391 1188T492 1268T612 1298Q646 1298 673 1290T720 1268T751 1236T762 1198Q762 1183 758 1170T746 1147T730 1130T713 1124ZM403 678Q326 638 287 579T248 444Q248 392 268 333T336 193Q338 191 342 182T358 158Q368 141 382 117T418 59Q495 104 533 166T571 305Q571 339 564 371T538 446T487 543T403 678Z"  />
<glyph unicode="&#xA8;" horiz-adv-x="1022" d="M549 1053Q539 1053 529 1059T509 1075T495 1096T489 1118Q489 1129 495 1142T511 1168T533 1188T557 1196Q569 1196 579 1189T598 1171T611 1148T616 1124Q616 1113 610 1101T594 1078T573 1060T549 1053ZM805 1053Q794 1053 784 1059T766 1075T753 1096T748 1118Q748 1130 753 1143T768 1168T789 1188T813 1196Q825 1196 835 1189T854 1171T867 1148T872 1124Q872 1113 866 1101T850 1078T829 1060T805 1053Z"  />
<glyph unicode="&#xA9;" horiz-adv-x="1477" d="M784 -12Q655 -12 543 39T346 180T214 390T166 649Q166 740 188 823T251 979T349 1110T476 1212T626 1277T795 1300Q877 1300 954 1276T1098 1209T1222 1106T1318 973T1381 817T1403 645Q1403 508 1355 389T1222 180T1025 40T784 -12ZM774 1247Q662 1247 563 1199T389 1069T271 877T227 645Q227 520 271 411T390 219T567 89T784 41Q900 41 1001 88T1178 218T1296 411T1339 649Q1339 732 1319 808T1263 951T1175 1072T1061 1166T926 1226T774 1247ZM1075 1012Q1070 996 1066 976T1057 935T1050 893T1044 854Q1042 843 1040 841T1032 838Q1020 838 1017 840T1014 860V877Q1014 908 1008 927T985 961Q959 984 922 996T840 1008Q772 1008 715 978T617 895T552 768T528 610Q528 542 545 486T594 389T669 326T766 303Q912 303 973 440Q978 451 983 451Q992 451 996 446T1001 438V434L999 426Q996 418 992 404T982 373T972 338T963 305Q959 297 955 296T942 291Q900 278 854 271T762 264Q684 264 621 288T514 356T446 465T422 610Q422 706 454 786T543 925T679 1016T852 1049Q880 1049 919 1045T993 1034L1026 1028Q1032 1026 1038 1026T1049 1026Q1054 1026 1058 1029T1067 1032Q1073 1032 1076 1029T1079 1024Q1079 1022 1078 1020T1075 1012Z"  />
<glyph unicode="&#xAA;" horiz-adv-x="606" d="M616 885Q578 831 539 802T465 772Q442 772 433 785T424 819Q424 840 428 860T439 903T456 953T479 1014Q458 986 429 945T364 866T286 800T197 772Q159 772 139 798T119 870Q119 910 136 954T184 1042T257 1127T349 1204T454 1265T565 1305Q575 1328 584 1335T614 1343Q627 1343 634 1342T641 1329Q641 1325 641 1321T638 1308T632 1288T621 1257Q604 1212 585 1153T549 1039T521 943T510 891Q510 878 515 875T528 872Q542 872 555 879T582 902T614 945T655 1012H662L676 1004Q678 1001 678 997Q678 994 673 982T659 954T639 919T616 885ZM279 1075Q250 1033 232 994T213 915Q213 889 225 873T258 856Q282 856 311 876T369 928T427 999T476 1077T511 1148T524 1200Q524 1223 492 1223Q474 1223 450 1215T397 1190T338 1144T279 1075Z"  />
<glyph unicode="&#xAB;" horiz-adv-x="842" d="M186 473Q205 437 225 396T266 312T304 228T338 150Q343 139 345 133T348 121Q348 114 340 111L324 102L315 98Q311 98 299 117Q268 165 240 205T182 285T119 364T45 453Q43 456 40 459T37 467Q37 473 47 481Q113 531 161 571T254 650T345 733T453 834Q458 839 463 842T471 846Q474 846 477 844T487 836Q494 831 497 829T500 823Q500 820 499 818T494 811Q444 753 407 710T335 629T266 555T186 473ZM510 473Q529 437 549 396T590 312T628 228T662 150Q667 139 669 133T672 121Q672 114 664 111L647 102L639 98Q635 98 623 117Q592 165 564 205T506 285T443 364T369 453Q367 456 364 459T360 467Q360 470 362 473T371 481Q437 531 485 571T578 650T668 733T776 834Q781 839 786 842T795 846Q798 846 801 844T811 836Q817 831 820 829T823 823Q823 820 822 818T817 811Q768 753 731 710T659 629T590 555T510 473Z"  />
<glyph unicode="&#xAC;" horiz-adv-x="850" d="M719 442V741H125V819H817V442H719Z"  />
<glyph unicode="&#xAD;" horiz-adv-x="532" d="M463 524L444 440H70L88 524H463Z"  />
<glyph unicode="&#xAE;" horiz-adv-x="1477" d="M784 -12Q655 -12 543 39T346 180T214 390T166 649Q166 740 188 823T251 979T349 1110T476 1212T626 1277T795 1300Q877 1300 954 1276T1098 1209T1222 1106T1318 973T1381 817T1403 645Q1403 508 1355 389T1222 180T1025 40T784 -12ZM774 1247Q662 1247 563 1199T389 1069T271 877T227 645Q227 520 271 411T390 219T567 89T784 41Q900 41 1001 88T1178 218T1296 411T1339 649Q1339 732 1319 808T1263 951T1175 1072T1061 1166T926 1226T774 1247ZM1051 270Q994 270 950 304T862 420Q853 438 846 454T829 492T808 545T778 625H696L662 446Q655 412 652 389T649 358Q649 329 671 318T750 303Q759 303 761 301T764 293Q764 276 752 276Q707 276 663 277T573 279Q536 279 515 279T482 278T463 277T446 276Q438 276 436 278T434 287Q434 295 437 299T446 303Q478 308 497 315T528 339T550 389T571 479L643 821Q655 883 660 917T666 963Q666 986 647 995T580 1008Q569 1008 566 1010T563 1014Q563 1025 567 1030T575 1036L612 1034Q620 1034 629 1033T653 1032Q681 1032 706 1032T768 1036Q794 1038 815 1038T850 1038Q1059 1038 1059 870Q1059 789 1009 728T866 641Q897 554 926 491T985 386T1045 325T1110 305Q1115 305 1120 305T1133 307Q1137 307 1137 303Q1137 294 1134 288T1122 278T1095 272T1051 270ZM815 1008Q795 1008 787 1002T774 981Q771 970 768 957T760 920L705 666Q720 663 732 660T760 657Q836 657 881 688Q918 713 940 761T963 862Q963 930 924 969T815 1008Z"  />
<glyph unicode="&#xAF;" horiz-adv-x="1022" d="M483 1130H858Q862 1130 862 1126L850 1065Q850 1061 846 1061H471Q467 1061 467 1065L479 1126L483 1130Z"  />
<glyph unicode="&#xB0;" horiz-adv-x="850" d="M528 780Q471 780 421 800T334 857T276 943T254 1049Q254 1106 275 1155T334 1240T421 1296T528 1317Q586 1317 636 1297T723 1240T781 1155T803 1049Q803 992 782 943T723 858T636 801T528 780ZM528 1241Q489 1241 457 1227T401 1188T365 1128T352 1051Q352 1008 365 972T401 911T456 871T528 856Q567 856 600 870T656 910T692 971T705 1049Q705 1092 692 1127T656 1187T600 1227T528 1241Z"  />
<glyph unicode="&#xB1;" horiz-adv-x="850" d="M131 41V121H813V41H131ZM516 612V303H434V612H127V692H434V993H516V692H817V612H516Z"  />
<glyph unicode="&#xB2;" horiz-adv-x="594" d="M608 1026Q614 1026 619 1024T625 1014Q625 1009 624 1004T620 994Q618 989 616 983Q610 964 598 934T575 872Q569 852 561 844T547 836Q532 836 520 836T496 838T471 839T440 840Q323 840 249 838T150 836Q137 836 132 838T127 848L125 870Q125 875 126 879T139 893L268 1020Q360 1111 419 1174T513 1285T560 1372T573 1454Q573 1507 545 1540T463 1573Q429 1573 399 1561T345 1528T305 1483T283 1432H264V1473Q264 1482 269 1497T281 1520Q299 1547 322 1570T373 1609T429 1635T489 1645Q534 1645 567 1632T621 1596T652 1542T662 1475Q662 1430 650 1388T618 1309T571 1238T516 1178Q451 1113 371 1051T217 920H334Q391 920 427 921T486 923T520 927T537 932Q550 938 560 953T579 985T595 1013T608 1026Z"  />
<glyph unicode="&#xB3;" horiz-adv-x="594" d="M645 1511Q645 1446 603 1393T467 1292Q541 1284 578 1239T616 1124Q616 1061 589 1006T517 911T415 847T299 823Q265 823 241 830T200 849T176 875T168 901Q168 912 172 919T182 934Q192 943 199 946T215 950Q221 950 230 944T248 930Q266 908 290 897T352 885Q392 885 416 896T465 930Q482 946 493 966T512 1009T523 1055T526 1100Q526 1162 495 1197T408 1233Q388 1233 374 1230T352 1223Q343 1220 336 1217T326 1214Q319 1214 314 1219T309 1233Q309 1241 313 1243T322 1249L377 1278Q412 1296 444 1317T501 1364T540 1420T555 1487Q555 1534 530 1553T471 1573Q417 1573 382 1549T317 1473H303V1503Q303 1511 306 1520T315 1536Q356 1587 406 1613T510 1640Q532 1640 556 1633T599 1610T632 1570T645 1511Z"  />
<glyph unicode="&#xB4;" horiz-adv-x="1022" d="M872 1235Q838 1210 799 1180T719 1118T641 1056T571 1001L567 997Q565 995 561 995T553 995L549 997Q543 997 543 1001Q543 1008 551 1016Q570 1037 596 1068T651 1132T707 1199T758 1258T798 1300T821 1317Q829 1317 842 1314T869 1305T893 1291T903 1274Q903 1266 896 1257T872 1235Z"  />
<glyph unicode="&#xB5;" horiz-adv-x="868" d="M309 137Q294 119 277 95T239 50T193 13T139 -2Q122 -2 104 14Q93 -60 83 -122T63 -232T47 -314T37 -362Q32 -382 28 -394T17 -414T-2 -425T-33 -428Q-47 -428 -55 -418T-63 -391Q-63 -381 -53 -337T-24 -222T20 -56T78 152Q93 207 109 260T141 367Q150 397 165 442T196 535T228 624T250 686Q251 689 254 698T261 718T267 738T270 750Q270 755 268 757T258 760Q247 760 234 750T205 725Q176 694 143 652T84 565H78V588Q78 598 90 621Q101 638 119 664T161 720T210 780T261 833T310 872T350 887Q369 887 376 877T383 850Q383 830 376 809T360 762Q352 739 340 705T312 621T275 504T225 348Q213 308 203 273T187 209T176 162T172 135Q172 130 172 125T174 115Q178 104 195 104Q217 105 252 136T329 218T418 336T507 476T587 626T651 772Q656 788 665 809T684 854Q690 868 697 877T717 887Q722 887 728 886T743 879Q759 871 763 861T768 838Q768 822 763 806T750 766Q739 732 724 683T691 576T657 458T625 343T598 242T580 168Q578 162 577 153T575 135Q575 123 579 115T596 106Q616 106 642 128T696 188T753 275T807 377H811V342Q811 333 810 326T805 311Q800 302 796 293T786 270Q779 254 759 219T712 143T656 66T602 10Q565 -18 532 -18Q506 -18 491 2T475 59Q475 76 486 121T515 227T554 354T595 482T629 587T649 649H645Q599 571 553 496T463 354T380 232T309 137Z"  />
<glyph unicode="&#xB6;" horiz-adv-x="1108" d="M1212 1186Q1212 1169 1198 1158T1163 1139T1122 1127T1085 1122Q1065 1120 1027 1120T926 1118V-37Q926 -94 925 -132T920 -199T912 -248T901 -291Q890 -326 870 -355T825 -406T773 -439T719 -451Q708 -451 704 -447T696 -426L684 -358L694 -334Q779 -329 822 -254T866 -49V96Q835 93 814 91T774 88T740 87T705 86Q597 86 520 100T383 150Q255 221 188 350T121 653Q121 790 163 899T285 1077Q318 1106 354 1126T433 1159T526 1178T639 1184Q698 1184 752 1182T866 1180V1405H926V1180H997Q1034 1180 1061 1186T1107 1202T1140 1228T1161 1264H1180L1208 1200Q1210 1195 1211 1192T1212 1186ZM866 1118H745Q706 1118 682 1115T645 1096T628 1045T623 950V346Q623 280 626 242T640 185T672 161T729 156H866V1118Z"  />
<glyph unicode="&#xB7;" horiz-adv-x="369" d="M240 588Q227 588 214 595T189 614T171 639T164 665Q164 680 172 694T192 720T219 739T248 747Q261 747 274 740T299 721T317 696T324 669Q323 655 315 641T295 615T269 596T240 588Z"  />
<glyph unicode="&#xB8;" horiz-adv-x="1022" d="M283 -135Q290 -127 303 -111T332 -75T364 -35T393 0H428Q421 -10 412 -23T392 -49T373 -75T358 -94Q338 -121 338 -133Q338 -142 345 -149T362 -164Q388 -186 403 -206T418 -252Q418 -261 417 -270T414 -289Q406 -321 385 -349T337 -397T281 -430T227 -442Q195 -442 175 -430T154 -395Q154 -392 155 -389T156 -383Q161 -366 169 -352T186 -338Q200 -338 206 -345T223 -358Q242 -369 252 -373T276 -377Q301 -377 319 -365T344 -324Q346 -317 346 -313T346 -303Q346 -281 335 -265T307 -236Q284 -217 271 -206T258 -180Q258 -163 283 -135Z"  />
<glyph unicode="&#xB9;" horiz-adv-x="594" d="M326 1509Q326 1512 328 1515T342 1524Q359 1531 389 1546T452 1578T513 1610T555 1634Q569 1645 573 1645Q577 1645 583 1637T590 1626Q590 1622 587 1613T581 1594T574 1576T571 1567Q561 1527 548 1466T520 1336T490 1194T463 1061Q452 1007 447 971T442 911Q442 891 446 887Q456 876 477 873T526 870H549Q557 870 559 864T561 846Q561 836 545 836Q501 836 454 838T365 840Q340 840 321 840T284 838T251 837T219 836Q213 836 208 837T203 846Q205 857 209 863T221 870Q269 873 290 876T322 889Q329 896 335 905T348 934T361 984T379 1067L451 1409Q459 1449 461 1468T463 1501Q463 1514 461 1518T453 1522Q442 1522 429 1520T403 1513Q398 1511 388 1507T368 1499T349 1492T336 1489Q331 1489 329 1490T326 1497V1509Z"  />
<glyph unicode="&#xBA;" horiz-adv-x="557" d="M590 1044Q575 993 548 945T483 858T395 796T287 772Q216 772 175 817T133 940Q133 1018 159 1087T230 1208T333 1290T455 1321Q493 1321 521 1307T567 1267T593 1209T602 1139Q602 1090 590 1044ZM430 1282Q393 1282 358 1249T296 1165T253 1052T236 930Q236 879 253 845T303 811Q344 811 380 846T444 935T488 1049T504 1163Q504 1214 486 1248T430 1282Z"  />
<glyph unicode="&#xBB;" horiz-adv-x="842" d="M643 471Q624 507 604 548T564 632T526 717T492 795Q487 806 484 812T481 823Q481 830 489 834L506 842L514 846Q518 846 530 827Q561 779 589 739T647 660T710 581T784 492Q786 488 789 485T793 477Q793 474 791 471T782 463Q716 413 668 373T575 294T485 211T377 111Q372 106 367 102T358 98Q355 98 352 101T342 109Q336 114 333 116T330 121Q330 124 331 126T336 133Q385 191 422 234T494 315T563 389T643 471ZM319 471Q300 507 280 548T240 632T202 717T168 795Q163 806 161 812T158 823Q158 830 166 834L182 842L190 846Q195 846 207 827Q238 779 266 739T324 660T387 581T461 492Q463 488 466 485T469 477Q469 474 467 471T459 463Q393 413 345 373T252 294T161 211T53 111Q48 106 43 102T35 98Q32 98 29 101T18 109Q12 114 9 116T6 121Q6 124 7 126T12 133Q61 191 98 234T170 315T240 389T319 471Z"  />
<glyph unicode="&#xBC;" horiz-adv-x="1409" d="M287 1183Q287 1186 289 1189T303 1198Q320 1205 350 1220T413 1252T474 1284T516 1308Q530 1319 534 1319Q538 1319 544 1311T551 1300Q551 1296 548 1287T542 1268T535 1250T532 1241Q522 1201 509 1140T481 1010T451 868T424 735Q413 681 408 645T403 585Q403 565 407 561Q417 550 438 547T487 544H510Q518 544 520 538T522 520Q522 510 506 510Q462 510 415 512T326 514Q301 514 282 514T245 512T212 511T180 510Q174 510 169 511T164 520Q166 531 170 537T182 544Q230 547 251 550T283 563Q290 570 296 579T309 608T322 658T340 741L412 1083Q420 1123 422 1142T424 1175Q424 1188 422 1192T414 1196Q403 1196 390 1194T364 1187Q359 1185 349 1181T329 1173T310 1166T297 1163Q292 1163 290 1164T287 1171V1183ZM318 -35Q430 142 535 311T743 649T947 985T1151 1327H1233Q1158 1209 1098 1113T986 936T891 784T804 645T719 505T626 354T520 178T393 -35H318ZM1368 231Q1365 223 1360 222T1345 221H1235L1194 2Q1184 0 1170 -1T1138 -2Q1130 -2 1123 -2T1108 0L1153 221Q1078 221 1004 221T852 219Q839 219 834 220T829 231Q829 245 833 255T848 280L1296 790Q1302 798 1308 801T1317 804Q1320 804 1323 804T1329 800L1337 794Q1343 789 1346 787T1349 778Q1349 772 1348 767T1345 753Q1331 702 1318 636T1290 491L1249 284H1386L1368 231ZM1165 284L1245 680L899 282L1165 284Z"  />
<glyph unicode="&#xBD;" horiz-adv-x="1430" d="M287 1183Q287 1186 289 1189T303 1198Q320 1205 350 1220T413 1252T474 1284T516 1308Q530 1319 534 1319Q538 1319 544 1311T551 1300Q551 1296 548 1287T542 1268T535 1250T532 1241Q522 1201 509 1140T481 1010T451 868T424 735Q413 681 408 645T403 585Q403 565 407 561Q417 550 438 547T487 544H510Q518 544 520 538T522 520Q522 510 506 510Q462 510 415 512T326 514Q301 514 282 514T245 512T212 511T180 510Q174 510 169 511T164 520Q166 531 170 537T182 544Q230 547 251 550T283 563Q290 570 296 579T309 608T322 658T340 741L412 1083Q420 1123 422 1142T424 1175Q424 1188 422 1192T414 1196Q403 1196 390 1194T364 1187Q359 1185 349 1181T329 1173T310 1166T297 1163Q292 1163 290 1164T287 1171V1183ZM318 -35Q430 142 535 311T743 649T947 985T1151 1327H1233Q1158 1209 1098 1113T986 936T891 784T804 645T719 505T626 354T520 178T393 -35H318ZM1321 190Q1327 190 1332 188T1338 178Q1338 173 1337 168T1333 158Q1331 153 1329 147Q1323 128 1311 98T1288 36Q1282 16 1274 8T1260 0Q1245 0 1233 0T1209 2T1184 3T1153 4Q1036 4 962 2T863 0Q850 0 845 2T840 12L838 34Q838 39 839 43T852 57L981 184Q1073 275 1132 338T1226 449T1273 536T1286 618Q1286 671 1258 704T1176 737Q1142 737 1112 725T1058 692T1018 647T996 596H977V637Q977 646 982 661T994 684Q1012 711 1035 734T1086 773T1142 799T1202 809Q1247 809 1280 796T1334 760T1365 706T1375 639Q1375 594 1363 552T1331 473T1284 402T1229 342Q1164 277 1084 215T930 84H1047Q1104 84 1140 85T1199 87T1233 91T1250 96Q1263 102 1273 117T1292 149T1308 177T1321 190Z"  />
<glyph unicode="&#xBE;" horiz-adv-x="1409" d="M606 1185Q606 1120 564 1067T428 966Q502 958 539 913T577 798Q577 735 550 680T478 585T376 521T260 497Q226 497 202 504T161 523T137 549T129 575Q129 586 133 593T143 608Q153 617 160 620T176 624Q182 624 191 618T209 604Q227 582 251 571T313 559Q353 559 377 570T426 604Q443 620 454 640T473 683T484 729T487 774Q487 836 456 871T369 907Q349 907 335 904T313 897Q304 894 297 891T287 888Q280 888 275 893T270 907Q270 915 274 917T283 923L338 952Q373 970 405 991T462 1038T501 1094T516 1161Q516 1208 491 1227T432 1247Q378 1247 343 1223T278 1147H264V1177Q264 1185 267 1194T276 1210Q317 1261 367 1287T471 1314Q493 1314 517 1307T560 1284T593 1244T606 1185ZM318 -35Q430 142 535 311T743 649T947 985T1151 1327H1233Q1158 1209 1098 1113T986 936T891 784T804 645T719 505T626 354T520 178T393 -35H318ZM1368 231Q1365 223 1360 222T1345 221H1235L1194 2Q1184 0 1170 -1T1138 -2Q1130 -2 1123 -2T1108 0L1153 221Q1078 221 1004 221T852 219Q839 219 834 220T829 231Q829 245 833 255T848 280L1296 790Q1302 798 1308 801T1317 804Q1320 804 1323 804T1329 800L1337 794Q1343 789 1346 787T1349 778Q1349 772 1348 767T1345 753Q1331 702 1318 636T1290 491L1249 284H1386L1368 231ZM1165 284L1245 680L899 282L1165 284Z"  />
<glyph unicode="&#xBF;" horiz-adv-x="676" d="M78 33Q86 43 99 55T131 84T176 123T238 176Q292 221 325 254T377 314T402 361T408 403Q408 444 382 473T293 520V524L307 543Q311 547 313 547Q343 547 374 533T430 495T472 439T489 371Q489 339 481 310T447 247T376 170T256 66Q198 18 161 -19T103 -88T74 -147T66 -203Q66 -240 79 -272T117 -328T175 -365T248 -379Q286 -379 318 -372T385 -338Q393 -332 400 -329T412 -326Q419 -326 426 -332T438 -347T447 -367T451 -391Q451 -406 439 -420T407 -446T361 -465T305 -473Q245 -473 190 -445T94 -372T27 -268T2 -147Q2 -99 21 -57T78 33ZM453 864Q466 864 479 857T504 838T521 812T528 786Q528 772 520 758T500 732T472 713T444 705Q431 705 418 712T394 730T376 755T369 782Q369 796 377 810T397 837T425 856T453 864Z"  />
<glyph unicode="&#xC0;" horiz-adv-x="1034" d="M997 10Q994 -2 987 -2Q943 -2 893 -1T770 0Q713 0 675 -2T633 -4Q627 -4 624 -2T621 10Q621 16 623 23T637 31Q674 31 715 37Q729 39 738 44T754 57Q762 67 765 79T768 111Q768 141 762 197Q756 253 751 307Q746 353 742 402T735 487H612H348Q344 479 339 468T329 447Q323 436 317 424Q282 351 257 296T215 199T190 130T182 84Q182 67 188 58T205 43T233 36T270 33Q279 32 287 32Q294 31 299 31T307 31Q312 31 314 31T317 25L315 6Q313 -2 308 -3T297 -4Q249 -2 202 0T104 2Q56 2 22 -1T-20 -4Q-28 -4 -33 -3T-39 8V12Q-37 25 -34 27T-25 31H-14Q8 35 25 44T61 77T105 144T168 262Q232 385 286 489T388 683T474 847T545 985Q553 1001 569 1032T606 1110Q617 1133 629 1157T651 1203T670 1246T682 1282Q684 1290 685 1292T692 1296Q697 1298 703 1299T719 1305Q725 1308 728 1309T737 1313Q742 1315 745 1316T752 1317Q757 1317 758 1313T762 1298Q782 1090 807 838T864 305Q876 205 884 151T902 71T924 40T958 33L981 31Q990 29 993 29T997 18V10ZM672 1141Q642 1082 604 1006T526 849T445 685T371 530Q405 528 452 528T551 528Q602 528 649 528T729 530Q720 662 703 814T672 1141ZM811 1421Q801 1421 798 1422T790 1428L588 1661Q567 1684 567 1698Q567 1705 575 1712T596 1726T626 1737T663 1741Q673 1741 678 1735T688 1720L815 1446Q818 1441 820 1436T823 1428Q823 1421 811 1421Z"  />
<glyph unicode="&#xC1;" horiz-adv-x="1034" d="M997 10Q994 -2 987 -2Q943 -2 893 -1T770 0Q713 0 675 -2T633 -4Q627 -4 624 -2T621 10Q621 16 623 23T637 31Q674 31 715 37Q729 39 738 44T754 57Q762 67 765 79T768 111Q768 141 762 197Q756 253 751 307Q746 353 742 402T735 487H612H348Q344 479 339 468T329 447Q323 436 317 424Q282 351 257 296T215 199T190 130T182 84Q182 67 188 58T205 43T233 36T270 33Q279 32 287 32Q294 31 299 31T307 31Q312 31 314 31T317 25L315 6Q313 -2 308 -3T297 -4Q249 -2 202 0T104 2Q56 2 22 -1T-20 -4Q-28 -4 -33 -3T-39 8V12Q-37 25 -34 27T-25 31H-14Q8 35 25 44T61 77T105 144T168 262Q232 385 286 489T388 683T474 847T545 985Q553 1001 569 1032T606 1110Q617 1133 629 1157T651 1203T670 1246T682 1282Q684 1290 685 1292T692 1296Q697 1298 703 1299T719 1305Q725 1308 728 1309T737 1313Q742 1315 745 1316T752 1317Q757 1317 758 1313T762 1298Q782 1090 807 838T864 305Q876 205 884 151T902 71T924 40T958 33L981 31Q990 29 993 29T997 18V10ZM672 1141Q642 1082 604 1006T526 849T445 685T371 530Q405 528 452 528T551 528Q602 528 649 528T729 530Q720 662 703 814T672 1141ZM1005 1659Q971 1634 932 1604T852 1542T774 1480T704 1425L700 1421Q698 1419 694 1419T686 1419L682 1421Q676 1421 676 1425Q676 1432 684 1440Q703 1461 729 1492T784 1556T840 1623T891 1682T931 1724T954 1741Q962 1741 975 1738T1002 1729T1026 1715T1036 1698Q1036 1690 1029 1681T1005 1659Z"  />
<glyph unicode="&#xC2;" horiz-adv-x="1034" d="M997 10Q994 -2 987 -2Q943 -2 893 -1T770 0Q713 0 675 -2T633 -4Q627 -4 624 -2T621 10Q621 16 623 23T637 31Q674 31 715 37Q729 39 738 44T754 57Q762 67 765 79T768 111Q768 141 762 197Q756 253 751 307Q746 353 742 402T735 487H612H348Q344 479 339 468T329 447Q323 436 317 424Q282 351 257 296T215 199T190 130T182 84Q182 67 188 58T205 43T233 36T270 33Q279 32 287 32Q294 31 299 31T307 31Q312 31 314 31T317 25L315 6Q313 -2 308 -3T297 -4Q249 -2 202 0T104 2Q56 2 22 -1T-20 -4Q-28 -4 -33 -3T-39 8V12Q-37 25 -34 27T-25 31H-14Q8 35 25 44T61 77T105 144T168 262Q232 385 286 489T388 683T474 847T545 985Q553 1001 569 1032T606 1110Q617 1133 629 1157T651 1203T670 1246T682 1282Q684 1290 685 1292T692 1296Q697 1298 703 1299T719 1305Q725 1308 728 1309T737 1313Q742 1315 745 1316T752 1317Q757 1317 758 1313T762 1298Q782 1090 807 838T864 305Q876 205 884 151T902 71T924 40T958 33L981 31Q990 29 993 29T997 18V10ZM672 1141Q642 1082 604 1006T526 849T445 685T371 530Q405 528 452 528T551 528Q602 528 649 528T729 530Q720 662 703 814T672 1141ZM907 1438Q881 1481 848 1528T786 1622Q784 1619 768 1604T728 1566T678 1519T629 1473T590 1437T573 1423Q567 1423 565 1428L561 1432Q555 1438 555 1442Q555 1448 560 1452T571 1462Q596 1489 622 1521T675 1586T726 1653T772 1716Q778 1726 786 1733T807 1741Q819 1741 826 1735T840 1704Q845 1680 858 1647T886 1578T915 1510T938 1454Q940 1448 941 1445T942 1438Q942 1433 936 1427T926 1421Q917 1421 907 1438Z"  />
<glyph unicode="&#xC3;" horiz-adv-x="1034" d="M997 10Q994 -2 987 -2Q943 -2 893 -1T770 0Q713 0 675 -2T633 -4Q627 -4 624 -2T621 10Q621 16 623 23T637 31Q674 31 715 37Q729 39 738 44T754 57Q762 67 765 79T768 111Q768 141 762 197Q756 253 751 307Q746 353 742 402T735 487H612H348Q344 479 339 468T329 447Q323 436 317 424Q282 351 257 296T215 199T190 130T182 84Q182 67 188 58T205 43T233 36T270 33Q279 32 287 32Q294 31 299 31T307 31Q312 31 314 31T317 25L315 6Q313 -2 308 -3T297 -4Q249 -2 202 0T104 2Q56 2 22 -1T-20 -4Q-28 -4 -33 -3T-39 8V12Q-37 25 -34 27T-25 31H-14Q8 35 25 44T61 77T105 144T168 262Q232 385 286 489T388 683T474 847T545 985Q553 1001 569 1032T606 1110Q617 1133 629 1157T651 1203T670 1246T682 1282Q684 1290 685 1292T692 1296Q697 1298 703 1299T719 1305Q725 1308 728 1309T737 1313Q742 1315 745 1316T752 1317Q757 1317 758 1313T762 1298Q782 1090 807 838T864 305Q876 205 884 151T902 71T924 40T958 33L981 31Q990 29 993 29T997 18V10ZM672 1141Q642 1082 604 1006T526 849T445 685T371 530Q405 528 452 528T551 528Q602 528 649 528T729 530Q720 662 703 814T672 1141ZM713 1655Q723 1655 731 1653T751 1645T777 1626T817 1591Q848 1562 866 1554T903 1546Q921 1546 938 1555T969 1579T995 1608T1016 1636Q1022 1646 1023 1648T1028 1651Q1033 1651 1041 1643T1049 1630Q1049 1628 1045 1620Q1030 1598 1011 1569T968 1515T919 1472T869 1454Q850 1454 828 1469T780 1505Q758 1523 743 1534T718 1551T699 1559T682 1561Q664 1561 648 1553T617 1531T592 1504T572 1477Q568 1472 565 1467T559 1462Q554 1462 547 1470T539 1483Q539 1485 543 1493Q571 1536 594 1567T638 1617T676 1646T713 1655Z"  />
<glyph unicode="&#xC4;" horiz-adv-x="1034" d="M997 10Q994 -2 987 -2Q943 -2 893 -1T770 0Q713 0 675 -2T633 -4Q627 -4 624 -2T621 10Q621 16 623 23T637 31Q674 31 715 37Q729 39 738 44T754 57Q762 67 765 79T768 111Q768 141 762 197Q756 253 751 307Q746 353 742 402T735 487H612H348Q344 479 339 468T329 447Q323 436 317 424Q282 351 257 296T215 199T190 130T182 84Q182 67 188 58T205 43T233 36T270 33Q279 32 287 32Q294 31 299 31T307 31Q312 31 314 31T317 25L315 6Q313 -2 308 -3T297 -4Q249 -2 202 0T104 2Q56 2 22 -1T-20 -4Q-28 -4 -33 -3T-39 8V12Q-37 25 -34 27T-25 31H-14Q8 35 25 44T61 77T105 144T168 262Q232 385 286 489T388 683T474 847T545 985Q553 1001 569 1032T606 1110Q617 1133 629 1157T651 1203T670 1246T682 1282Q684 1290 685 1292T692 1296Q697 1298 703 1299T719 1305Q725 1308 728 1309T737 1313Q742 1315 745 1316T752 1317Q757 1317 758 1313T762 1298Q782 1090 807 838T864 305Q876 205 884 151T902 71T924 40T958 33L981 31Q990 29 993 29T997 18V10ZM672 1141Q642 1082 604 1006T526 849T445 685T371 530Q405 528 452 528T551 528Q602 528 649 528T729 530Q720 662 703 814T672 1141ZM639 1477Q629 1477 619 1483T599 1499T585 1520T579 1542Q579 1553 585 1566T601 1592T623 1612T647 1620Q659 1620 669 1613T688 1595T701 1572T706 1548Q706 1537 700 1525T684 1502T663 1484T639 1477ZM895 1477Q884 1477 874 1483T856 1499T843 1520T838 1542Q838 1554 843 1567T858 1592T879 1612T903 1620Q915 1620 925 1613T944 1595T957 1572T962 1548Q962 1537 956 1525T940 1502T919 1484T895 1477Z"  />
<glyph unicode="&#xC5;" horiz-adv-x="1034" d="M997 10Q994 -2 987 -2Q943 -2 893 -1T770 0Q713 0 675 -2T633 -4Q627 -4 624 -2T621 10Q621 16 623 23T637 31Q674 31 715 37Q729 39 738 44T754 57Q762 67 765 79T768 111Q768 141 762 197Q756 253 751 307Q746 353 742 402T735 487H612H348Q344 479 339 468T329 447Q323 436 317 424Q282 351 257 296T215 199T190 130T182 84Q182 67 188 58T205 43T233 36T270 33Q279 32 287 32Q294 31 299 31T307 31Q312 31 314 31T317 25L315 6Q313 -2 308 -3T297 -4Q249 -2 202 0T104 2Q56 2 22 -1T-20 -4Q-28 -4 -33 -3T-39 8V12Q-37 25 -34 27T-25 31H-14Q8 35 25 44T61 77T105 144T168 262Q232 385 286 489T388 683T474 847T545 985Q553 1001 569 1032T606 1110Q617 1133 629 1157T651 1203T670 1246T682 1282Q684 1290 685 1292T692 1296Q697 1298 703 1299T719 1305Q725 1308 728 1309T737 1313Q742 1315 745 1316T752 1317Q757 1317 758 1313T762 1298Q782 1090 807 838T864 305Q876 205 884 151T902 71T924 40T958 33L981 31Q990 29 993 29T997 18V10ZM672 1141Q642 1082 604 1006T526 849T445 685T371 530Q405 528 452 528T551 528Q602 528 649 528T729 530Q720 662 703 814T672 1141ZM749 1421Q683 1421 644 1457T604 1557Q604 1591 618 1619T656 1667T713 1697T784 1708Q823 1708 851 1697T896 1667T921 1624T929 1573Q929 1545 918 1518T884 1470T828 1435T749 1421ZM778 1673Q735 1673 709 1639T682 1552Q682 1458 755 1458Q796 1458 823 1487T850 1573Q850 1619 833 1646T778 1673Z"  />
<glyph unicode="&#xC6;" horiz-adv-x="1491" d="M838 942Q846 992 854 1032T869 1106T881 1168T889 1221Q865 1184 834 1136T766 1034T690 923T614 810T542 705T481 616Q529 616 579 615T680 614Q706 614 731 615T780 616L838 942ZM1442 1012Q1440 1002 1438 1001T1425 999Q1419 999 1416 1001T1413 1012Q1413 1015 1413 1024T1419 1065Q1421 1087 1422 1105T1423 1139Q1423 1181 1410 1204T1359 1239T1258 1252T1094 1255Q1071 1255 1055 1254T1026 1246T1006 1226T991 1190Q988 1179 982 1149T968 1077T951 985T933 884T914 785T897 698Q967 698 1018 698T1107 701T1170 707T1214 717Q1230 723 1245 737T1270 772Q1285 806 1296 831T1311 856Q1327 856 1327 846V840Q1312 791 1301 747T1281 658T1264 569T1247 473Q1245 465 1243 464T1235 463Q1224 463 1222 464T1219 475Q1219 479 1220 487T1222 506T1224 528T1225 547Q1225 581 1218 601T1195 632T1158 646T1108 651Q1052 653 998 653T889 655Q861 515 844 421T816 266T803 175T799 129Q799 103 806 87T838 63T907 52T1030 49Q1102 49 1153 64T1241 106T1302 170T1346 252Q1351 264 1354 276T1364 309Q1368 317 1374 317Q1380 317 1385 313T1391 303Q1375 244 1359 190Q1352 167 1345 143T1331 97T1316 55T1303 23Q1298 12 1293 5T1278 -2Q1190 -2 1103 1T926 4Q826 4 726 3T522 -4Q514 -4 512 -2T510 6V10Q510 20 512 22T524 27L543 29Q586 34 613 41T659 71T689 137T715 258L770 569Q730 569 686 570T600 571Q557 571 517 570T446 569Q392 491 339 420T244 287T176 178T150 98Q150 67 176 51T268 35H279Q285 35 288 33T291 23Q291 16 289 7T279 -2Q232 -2 175 -1T61 0Q33 0 8 0T-38 -2T-72 -3T-90 -4Q-102 -4 -102 6Q-102 23 -99 29T-84 35H-78Q-51 35 -30 49T15 90T66 157T135 250Q226 368 307 477T468 695T627 918T793 1161Q825 1209 825 1231Q825 1248 808 1253T770 1259T732 1263T715 1274Q715 1292 718 1298T729 1305Q788 1305 846 1301T963 1296Q1036 1296 1110 1296T1253 1297T1383 1299T1495 1303Q1516 1303 1516 1290Q1516 1285 1509 1268Q1500 1242 1491 1210T1472 1144T1455 1075T1442 1012Z"  />
<glyph unicode="&#xC7;" horiz-adv-x="1022" d="M426 -135Q432 -128 442 -115T466 -85T493 -51T520 -18Q425 -8 349 35T220 150T138 319T109 535Q109 621 125 712T176 891T261 1056T382 1192T540 1285T735 1319Q778 1319 827 1314T948 1294Q957 1292 968 1290T991 1286T1010 1282T1022 1280Q1028 1280 1032 1282T1042 1288Q1047 1290 1055 1290Q1065 1287 1065 1282Q1065 1279 1063 1270T1057 1248T1050 1223T1044 1198Q1039 1180 1037 1161T1032 1124L1012 995Q1010 990 1009 987T1001 983Q989 983 986 986T983 997V1036Q983 1079 981 1107T974 1154T958 1185T932 1208Q894 1234 839 1252T717 1270Q632 1270 563 1238T440 1151T346 1023T280 868T242 699T229 530Q229 413 254 319T325 157T437 53T584 16Q632 16 679 28T769 68T846 140T905 250Q908 264 915 264Q918 264 926 260Q934 257 934 250Q934 247 934 245T932 238Q916 190 902 141T877 43Q875 35 869 32T854 25L848 23Q779 1 715 -11T584 -23Q576 -23 570 -22T555 -20Q541 -40 526 -61T502 -94Q481 -121 481 -133Q481 -142 489 -149T506 -164Q532 -186 546 -206T561 -252Q561 -261 560 -270T557 -289Q549 -321 529 -349T481 -397T425 -430T371 -442Q339 -442 318 -430T297 -395Q297 -392 298 -389T299 -383Q304 -366 312 -352T330 -338Q344 -338 350 -345T367 -358Q385 -369 395 -373T420 -377Q445 -377 463 -365T487 -324Q489 -317 489 -313T489 -303Q489 -281 479 -265T451 -236Q428 -217 415 -206T401 -180Q401 -171 407 -160T426 -135Z"  />
<glyph unicode="&#xC8;" horiz-adv-x="963" d="M915 1010Q913 1000 910 999T897 997Q891 997 889 999T887 1010Q887 1013 888 1029T891 1059Q897 1105 897 1139Q897 1178 886 1200T845 1235T762 1250T625 1253Q571 1253 541 1252T494 1246T473 1229T463 1196L369 698H459Q491 698 523 698T586 701T642 707T686 717Q705 724 721 746T750 793T771 837T782 856Q799 856 799 846V840Q784 791 773 747T753 658T735 569T719 473Q717 465 715 464T707 463Q699 463 696 463T692 469Q692 491 694 509T696 543Q696 579 689 600T666 632T630 646T580 651Q524 653 470 653T360 655L299 322Q282 233 276 190T270 129Q270 103 277 87T308 62T378 50T502 47Q549 47 582 51T640 62T684 82T721 109Q761 143 789 194T836 301L838 311Q838 317 846 317Q852 317 857 313T862 303Q862 291 853 256T831 177T802 92T774 23Q769 12 764 5T750 -2Q656 -2 563 1T375 4Q278 4 181 1T-18 -2Q-23 -2 -25 -2T-27 4Q-27 15 -25 20T-20 27T-12 30T-2 31Q35 34 59 39T102 57Q111 64 118 71T133 94T148 133T165 198T187 297T215 440L309 942Q326 1033 334 1096T342 1194Q342 1237 320 1254T254 1272Q247 1272 238 1272T220 1273T205 1276T199 1282Q199 1294 203 1298T213 1303Q224 1303 304 1299T526 1294Q639 1294 750 1297T973 1300Q987 1300 987 1290Q987 1281 981 1266Q972 1241 962 1209T944 1142T928 1073T915 1010ZM742 1421Q732 1421 729 1422T721 1428L519 1661Q498 1684 498 1698Q498 1705 506 1712T527 1726T557 1737T594 1741Q604 1741 609 1735T619 1720L746 1446Q749 1441 751 1436T754 1428Q754 1421 742 1421Z"  />
<glyph unicode="&#xC9;" horiz-adv-x="963" d="M915 1010Q913 1000 910 999T897 997Q891 997 889 999T887 1010Q887 1013 888 1029T891 1059Q897 1105 897 1139Q897 1178 886 1200T845 1235T762 1250T625 1253Q571 1253 541 1252T494 1246T473 1229T463 1196L369 698H459Q491 698 523 698T586 701T642 707T686 717Q705 724 721 746T750 793T771 837T782 856Q799 856 799 846V840Q784 791 773 747T753 658T735 569T719 473Q717 465 715 464T707 463Q699 463 696 463T692 469Q692 491 694 509T696 543Q696 579 689 600T666 632T630 646T580 651Q524 653 470 653T360 655L299 322Q282 233 276 190T270 129Q270 103 277 87T308 62T378 50T502 47Q549 47 582 51T640 62T684 82T721 109Q761 143 789 194T836 301L838 311Q838 317 846 317Q852 317 857 313T862 303Q862 291 853 256T831 177T802 92T774 23Q769 12 764 5T750 -2Q656 -2 563 1T375 4Q278 4 181 1T-18 -2Q-23 -2 -25 -2T-27 4Q-27 15 -25 20T-20 27T-12 30T-2 31Q35 34 59 39T102 57Q111 64 118 71T133 94T148 133T165 198T187 297T215 440L309 942Q326 1033 334 1096T342 1194Q342 1237 320 1254T254 1272Q247 1272 238 1272T220 1273T205 1276T199 1282Q199 1294 203 1298T213 1303Q224 1303 304 1299T526 1294Q639 1294 750 1297T973 1300Q987 1300 987 1290Q987 1281 981 1266Q972 1241 962 1209T944 1142T928 1073T915 1010ZM872 1659Q838 1634 799 1604T719 1542T641 1480T571 1425L567 1421Q565 1419 561 1419T553 1419L549 1421Q543 1421 543 1425Q543 1432 551 1440Q570 1461 596 1492T651 1556T707 1623T758 1682T798 1724T821 1741Q829 1741 842 1738T869 1729T893 1715T903 1698Q903 1690 896 1681T872 1659Z"  />
<glyph unicode="&#xCA;" horiz-adv-x="963" d="M915 1010Q913 1000 910 999T897 997Q891 997 889 999T887 1010Q887 1013 888 1029T891 1059Q897 1105 897 1139Q897 1178 886 1200T845 1235T762 1250T625 1253Q571 1253 541 1252T494 1246T473 1229T463 1196L369 698H459Q491 698 523 698T586 701T642 707T686 717Q705 724 721 746T750 793T771 837T782 856Q799 856 799 846V840Q784 791 773 747T753 658T735 569T719 473Q717 465 715 464T707 463Q699 463 696 463T692 469Q692 491 694 509T696 543Q696 579 689 600T666 632T630 646T580 651Q524 653 470 653T360 655L299 322Q282 233 276 190T270 129Q270 103 277 87T308 62T378 50T502 47Q549 47 582 51T640 62T684 82T721 109Q761 143 789 194T836 301L838 311Q838 317 846 317Q852 317 857 313T862 303Q862 291 853 256T831 177T802 92T774 23Q769 12 764 5T750 -2Q656 -2 563 1T375 4Q278 4 181 1T-18 -2Q-23 -2 -25 -2T-27 4Q-27 15 -25 20T-20 27T-12 30T-2 31Q35 34 59 39T102 57Q111 64 118 71T133 94T148 133T165 198T187 297T215 440L309 942Q326 1033 334 1096T342 1194Q342 1237 320 1254T254 1272Q247 1272 238 1272T220 1273T205 1276T199 1282Q199 1294 203 1298T213 1303Q224 1303 304 1299T526 1294Q639 1294 750 1297T973 1300Q987 1300 987 1290Q987 1281 981 1266Q972 1241 962 1209T944 1142T928 1073T915 1010ZM815 1438Q789 1481 756 1528T694 1622Q692 1619 676 1604T636 1566T586 1519T537 1473T498 1437T481 1423Q475 1423 473 1428L469 1432Q463 1438 463 1442Q463 1448 468 1452T479 1462Q504 1489 530 1521T583 1586T634 1653T680 1716Q686 1726 694 1733T715 1741Q727 1741 734 1735T748 1704Q753 1680 766 1647T794 1578T823 1510T846 1454Q848 1448 849 1445T850 1438Q850 1433 844 1427T834 1421Q825 1421 815 1438Z"  />
<glyph unicode="&#xCB;" horiz-adv-x="963" d="M915 1010Q913 1000 910 999T897 997Q891 997 889 999T887 1010Q887 1013 888 1029T891 1059Q897 1105 897 1139Q897 1178 886 1200T845 1235T762 1250T625 1253Q571 1253 541 1252T494 1246T473 1229T463 1196L369 698H459Q491 698 523 698T586 701T642 707T686 717Q705 724 721 746T750 793T771 837T782 856Q799 856 799 846V840Q784 791 773 747T753 658T735 569T719 473Q717 465 715 464T707 463Q699 463 696 463T692 469Q692 491 694 509T696 543Q696 579 689 600T666 632T630 646T580 651Q524 653 470 653T360 655L299 322Q282 233 276 190T270 129Q270 103 277 87T308 62T378 50T502 47Q549 47 582 51T640 62T684 82T721 109Q761 143 789 194T836 301L838 311Q838 317 846 317Q852 317 857 313T862 303Q862 291 853 256T831 177T802 92T774 23Q769 12 764 5T750 -2Q656 -2 563 1T375 4Q278 4 181 1T-18 -2Q-23 -2 -25 -2T-27 4Q-27 15 -25 20T-20 27T-12 30T-2 31Q35 34 59 39T102 57Q111 64 118 71T133 94T148 133T165 198T187 297T215 440L309 942Q326 1033 334 1096T342 1194Q342 1237 320 1254T254 1272Q247 1272 238 1272T220 1273T205 1276T199 1282Q199 1294 203 1298T213 1303Q224 1303 304 1299T526 1294Q639 1294 750 1297T973 1300Q987 1300 987 1290Q987 1281 981 1266Q972 1241 962 1209T944 1142T928 1073T915 1010ZM518 1477Q508 1477 498 1483T478 1499T464 1520T458 1542Q458 1553 464 1566T480 1592T502 1612T526 1620Q538 1620 548 1613T567 1595T580 1572T585 1548Q585 1537 579 1525T563 1502T542 1484T518 1477ZM774 1477Q763 1477 753 1483T735 1499T722 1520T717 1542Q717 1554 722 1567T737 1592T758 1612T782 1620Q794 1620 804 1613T823 1595T836 1572T841 1548Q841 1537 835 1525T819 1502T798 1484T774 1477Z"  />
<glyph unicode="&#xCC;" horiz-adv-x="549" d="M332 510Q312 402 300 334T281 223T272 160T270 123Q270 100 273 85T287 59T322 42T385 31H406Q414 29 417 29T420 23Q420 12 417 4T408 -4Q364 -4 312 -1T211 2Q174 2 138 1T70 -1T12 -3T-31 -4Q-35 -4 -35 6Q-35 25 -31 28T-14 31Q1 32 17 34T48 38T73 43T86 47Q105 56 119 74T145 127T170 220T199 365L307 961Q321 1036 328 1087T336 1174Q336 1202 330 1219T308 1247T269 1263T209 1270Q199 1270 199 1276Q199 1290 201 1295T209 1300Q262 1300 312 1297T414 1294Q465 1294 519 1298T616 1303Q632 1303 634 1301T637 1296L635 1282Q633 1276 629 1273T612 1270Q582 1270 556 1264T506 1236T465 1170T432 1051L332 510ZM551 1421Q541 1421 538 1422T530 1428L328 1661Q307 1684 307 1698Q307 1705 315 1712T336 1726T366 1737T403 1741Q413 1741 418 1735T428 1720L555 1446Q558 1441 560 1436T563 1428Q563 1421 551 1421Z"  />
<glyph unicode="&#xCD;" horiz-adv-x="549" d="M332 510Q312 402 300 334T281 223T272 160T270 123Q270 100 273 85T287 59T322 42T385 31H406Q414 29 417 29T420 23Q420 12 417 4T408 -4Q364 -4 312 -1T211 2Q174 2 138 1T70 -1T12 -3T-31 -4Q-35 -4 -35 6Q-35 25 -31 28T-14 31Q1 32 17 34T48 38T73 43T86 47Q105 56 119 74T145 127T170 220T199 365L307 961Q321 1036 328 1087T336 1174Q336 1202 330 1219T308 1247T269 1263T209 1270Q199 1270 199 1276Q199 1290 201 1295T209 1300Q262 1300 312 1297T414 1294Q465 1294 519 1298T616 1303Q632 1303 634 1301T637 1296L635 1282Q633 1276 629 1273T612 1270Q582 1270 556 1264T506 1236T465 1170T432 1051L332 510ZM706 1659Q672 1634 633 1604T553 1542T475 1480T405 1425L401 1421Q399 1419 395 1419T387 1419L383 1421Q377 1421 377 1425Q377 1432 385 1440Q404 1461 430 1492T485 1556T541 1623T592 1682T632 1724T655 1741Q663 1741 676 1738T703 1729T727 1715T737 1698Q737 1690 730 1681T706 1659Z"  />
<glyph unicode="&#xCE;" horiz-adv-x="549" d="M332 510Q312 402 300 334T281 223T272 160T270 123Q270 100 273 85T287 59T322 42T385 31H406Q414 29 417 29T420 23Q420 12 417 4T408 -4Q364 -4 312 -1T211 2Q174 2 138 1T70 -1T12 -3T-31 -4Q-35 -4 -35 6Q-35 25 -31 28T-14 31Q1 32 17 34T48 38T73 43T86 47Q105 56 119 74T145 127T170 220T199 365L307 961Q321 1036 328 1087T336 1174Q336 1202 330 1219T308 1247T269 1263T209 1270Q199 1270 199 1276Q199 1290 201 1295T209 1300Q262 1300 312 1297T414 1294Q465 1294 519 1298T616 1303Q632 1303 634 1301T637 1296L635 1282Q633 1276 629 1273T612 1270Q582 1270 556 1264T506 1236T465 1170T432 1051L332 510ZM608 1438Q582 1481 549 1528T487 1622Q485 1619 469 1604T429 1566T379 1519T330 1473T291 1437T274 1423Q268 1423 266 1428L262 1432Q256 1438 256 1442Q256 1448 261 1452T272 1462Q297 1489 323 1521T376 1586T427 1653T473 1716Q479 1726 487 1733T508 1741Q520 1741 527 1735T541 1704Q546 1680 559 1647T587 1578T616 1510T639 1454Q641 1448 642 1445T643 1438Q643 1433 637 1427T627 1421Q618 1421 608 1438Z"  />
<glyph unicode="&#xCF;" horiz-adv-x="549" d="M332 510Q312 402 300 334T281 223T272 160T270 123Q270 100 273 85T287 59T322 42T385 31H406Q414 29 417 29T420 23Q420 12 417 4T408 -4Q364 -4 312 -1T211 2Q174 2 138 1T70 -1T12 -3T-31 -4Q-35 -4 -35 6Q-35 25 -31 28T-14 31Q1 32 17 34T48 38T73 43T86 47Q105 56 119 74T145 127T170 220T199 365L307 961Q321 1036 328 1087T336 1174Q336 1202 330 1219T308 1247T269 1263T209 1270Q199 1270 199 1276Q199 1290 201 1295T209 1300Q262 1300 312 1297T414 1294Q465 1294 519 1298T616 1303Q632 1303 634 1301T637 1296L635 1282Q633 1276 629 1273T612 1270Q582 1270 556 1264T506 1236T465 1170T432 1051L332 510ZM352 1477Q342 1477 332 1483T312 1499T298 1520T292 1542Q292 1553 298 1566T314 1592T336 1612T360 1620Q372 1620 382 1613T401 1595T414 1572T419 1548Q419 1537 413 1525T397 1502T376 1484T352 1477ZM608 1477Q597 1477 587 1483T569 1499T556 1520T551 1542Q551 1554 556 1567T571 1592T592 1612T616 1620Q628 1620 638 1613T657 1595T670 1572T675 1548Q675 1537 669 1525T653 1502T632 1484T608 1477Z"  />
<glyph unicode="&#xD0;" horiz-adv-x="1212" d="M279 793Q306 944 322 1036T338 1176Q338 1205 332 1222T312 1250T278 1264T229 1270H207Q197 1270 197 1276Q197 1293 201 1298T215 1303Q265 1301 315 1299T416 1296Q470 1296 524 1301T635 1307Q749 1307 842 1274T1002 1176T1105 1013T1141 788Q1141 597 1088 450T939 201T715 48T434 -4Q356 -4 282 -1T129 2Q91 2 51 0T-31 -2Q-37 -2 -37 4Q-37 21 -33 25T-18 31H-14Q10 33 30 34T66 40T95 51T119 74Q129 88 138 110T157 165T177 245T199 354L254 655H127L137 705H262L279 793ZM367 705H668L657 655H358L299 332Q285 254 278 204T270 125Q270 95 278 78T307 52T361 41T446 39Q546 39 628 69T775 151T886 276T965 431T1011 604T1026 786Q1026 929 991 1022T893 1169T748 1244T571 1266Q536 1266 514 1258T478 1224T452 1154T428 1036L367 705Z"  />
<glyph unicode="&#xD1;" horiz-adv-x="1200" d="M395 1110Q390 1086 383 1051T368 973T352 885T335 796T320 714T307 647Q303 627 296 590T280 507T262 408T245 306T232 211T227 135Q227 126 227 119T229 104Q236 66 258 52T307 35Q316 34 328 33T351 31T369 30T379 29Q395 29 395 25L393 10Q391 4 389 1T379 -2Q356 -2 312 1T182 4Q128 4 75 3T-33 -4Q-39 -4 -40 -2T-41 6Q-41 15 -39 22T-29 29Q18 33 48 39T97 61T130 108T158 193Q175 254 194 355T246 610L256 655Q279 767 302 892T354 1157V1167Q354 1198 337 1222T295 1255Q270 1263 250 1265T201 1268Q193 1268 189 1269T184 1276Q184 1278 185 1280T186 1286Q188 1295 190 1299T199 1303Q208 1303 243 1300T344 1296Q364 1296 382 1296T420 1298H428Q436 1298 438 1295T444 1280Q452 1260 458 1243T473 1208Q524 1077 580 948T694 692T808 441T915 195Q953 394 989 590T1057 991Q1063 1038 1070 1079T1077 1155Q1077 1177 1074 1195T1062 1228T1037 1250T995 1262Q975 1264 959 1265T922 1268Q912 1270 909 1270T905 1276Q905 1281 906 1290T918 1300H930Q1036 1294 1143 1294Q1235 1294 1327 1300Q1341 1300 1341 1294Q1341 1283 1338 1279T1323 1272Q1311 1271 1296 1270T1265 1265T1235 1258T1212 1247Q1195 1236 1184 1218T1161 1171Q1150 1140 1140 1096T1116 983Q1096 878 1076 775T1034 565Q1031 551 1024 513T1007 422T987 309T967 190T950 81T940 -2Q940 -10 933 -14T913 -23Q902 -28 896 -30T887 -33Q882 -33 882 -29T879 -20Q874 -5 868 14T856 49Q835 105 820 146T790 223T762 291T729 364T688 455T633 578Q618 612 599 656T558 748T514 847T470 945T430 1035T395 1110ZM739 1655Q749 1655 757 1653T777 1645T803 1626T843 1591Q874 1562 892 1554T929 1546Q947 1546 964 1555T995 1579T1021 1608T1042 1636Q1048 1646 1049 1648T1054 1651Q1059 1651 1067 1643T1075 1630Q1075 1628 1071 1620Q1056 1598 1037 1569T994 1515T945 1472T895 1454Q876 1454 854 1469T806 1505Q784 1523 769 1534T744 1551T725 1559T708 1561Q690 1561 674 1553T643 1531T618 1504T598 1477Q594 1472 591 1467T585 1462Q580 1462 573 1470T565 1483Q565 1485 569 1493Q597 1536 620 1567T664 1617T702 1646T739 1655Z"  />
<glyph unicode="&#xD2;" horiz-adv-x="1171" d="M516 -23Q421 -23 346 16T219 125T140 287T113 489Q113 605 135 711T196 910T291 1078T414 1208T557 1291T717 1321Q811 1321 886 1282T1013 1175T1092 1015T1120 815Q1120 695 1098 586T1036 384T940 216T817 87T673 6T516 -23ZM694 1272Q626 1272 565 1242T453 1157T360 1027T291 862T247 670T231 461Q231 370 250 291T308 154T404 61T539 27Q640 27 725 93T871 270T967 529T1001 838Q1001 931 981 1010T922 1148T826 1239T694 1272ZM819 1421Q809 1421 806 1422T798 1428L596 1661Q575 1684 575 1698Q575 1705 583 1712T604 1726T634 1737T671 1741Q681 1741 686 1735T696 1720L823 1446Q826 1441 828 1436T831 1428Q831 1421 819 1421Z"  />
<glyph unicode="&#xD3;" horiz-adv-x="1171" d="M516 -23Q421 -23 346 16T219 125T140 287T113 489Q113 605 135 711T196 910T291 1078T414 1208T557 1291T717 1321Q811 1321 886 1282T1013 1175T1092 1015T1120 815Q1120 695 1098 586T1036 384T940 216T817 87T673 6T516 -23ZM694 1272Q626 1272 565 1242T453 1157T360 1027T291 862T247 670T231 461Q231 370 250 291T308 154T404 61T539 27Q640 27 725 93T871 270T967 529T1001 838Q1001 931 981 1010T922 1148T826 1239T694 1272ZM960 1659Q926 1634 887 1604T807 1542T729 1480T659 1425L655 1421Q653 1419 649 1419T641 1419L637 1421Q631 1421 631 1425Q631 1432 639 1440Q658 1461 684 1492T739 1556T795 1623T846 1682T886 1724T909 1741Q917 1741 930 1738T957 1729T981 1715T991 1698Q991 1690 984 1681T960 1659Z"  />
<glyph unicode="&#xD4;" horiz-adv-x="1171" d="M516 -23Q421 -23 346 16T219 125T140 287T113 489Q113 605 135 711T196 910T291 1078T414 1208T557 1291T717 1321Q811 1321 886 1282T1013 1175T1092 1015T1120 815Q1120 695 1098 586T1036 384T940 216T817 87T673 6T516 -23ZM694 1272Q626 1272 565 1242T453 1157T360 1027T291 862T247 670T231 461Q231 370 250 291T308 154T404 61T539 27Q640 27 725 93T871 270T967 529T1001 838Q1001 931 981 1010T922 1148T826 1239T694 1272ZM893 1438Q867 1481 834 1528T772 1622Q770 1619 754 1604T714 1566T664 1519T615 1473T576 1437T559 1423Q553 1423 551 1428L547 1432Q541 1438 541 1442Q541 1448 546 1452T557 1462Q582 1489 608 1521T661 1586T712 1653T758 1716Q764 1726 772 1733T793 1741Q805 1741 812 1735T826 1704Q831 1680 844 1647T872 1578T901 1510T924 1454Q926 1448 927 1445T928 1438Q928 1433 922 1427T912 1421Q903 1421 893 1438Z"  />
<glyph unicode="&#xD5;" horiz-adv-x="1171" d="M516 -23Q421 -23 346 16T219 125T140 287T113 489Q113 605 135 711T196 910T291 1078T414 1208T557 1291T717 1321Q811 1321 886 1282T1013 1175T1092 1015T1120 815Q1120 695 1098 586T1036 384T940 216T817 87T673 6T516 -23ZM694 1272Q626 1272 565 1242T453 1157T360 1027T291 862T247 670T231 461Q231 370 250 291T308 154T404 61T539 27Q640 27 725 93T871 270T967 529T1001 838Q1001 931 981 1010T922 1148T826 1239T694 1272ZM678 1655Q688 1655 696 1653T716 1645T742 1626T782 1591Q813 1562 831 1554T868 1546Q886 1546 903 1555T934 1579T960 1608T981 1636Q987 1646 988 1648T993 1651Q998 1651 1006 1643T1014 1630Q1014 1628 1010 1620Q995 1598 976 1569T933 1515T884 1472T834 1454Q815 1454 793 1469T745 1505Q723 1523 708 1534T683 1551T664 1559T647 1561Q629 1561 613 1553T582 1531T557 1504T537 1477Q533 1472 530 1467T524 1462Q519 1462 512 1470T504 1483Q504 1485 508 1493Q536 1536 559 1567T603 1617T641 1646T678 1655Z"  />
<glyph unicode="&#xD6;" horiz-adv-x="1171" d="M516 -23Q421 -23 346 16T219 125T140 287T113 489Q113 605 135 711T196 910T291 1078T414 1208T557 1291T717 1321Q811 1321 886 1282T1013 1175T1092 1015T1120 815Q1120 695 1098 586T1036 384T940 216T817 87T673 6T516 -23ZM694 1272Q626 1272 565 1242T453 1157T360 1027T291 862T247 670T231 461Q231 370 250 291T308 154T404 61T539 27Q640 27 725 93T871 270T967 529T1001 838Q1001 931 981 1010T922 1148T826 1239T694 1272ZM631 1477Q621 1477 611 1483T591 1499T577 1520T571 1542Q571 1553 577 1566T593 1592T615 1612T639 1620Q651 1620 661 1613T680 1595T693 1572T698 1548Q698 1537 692 1525T676 1502T655 1484T631 1477ZM887 1477Q876 1477 866 1483T848 1499T835 1520T830 1542Q830 1554 835 1567T850 1592T871 1612T895 1620Q907 1620 917 1613T936 1595T949 1572T954 1548Q954 1537 948 1525T932 1502T911 1484T887 1477Z"  />
<glyph unicode="&#xD7;" horiz-adv-x="850" d="M522 653L762 414L702 356L465 594L227 358L170 416L408 651L168 891L225 950L465 711L705 948L762 893L522 653Z"  />
<glyph unicode="&#xD8;" horiz-adv-x="1171" d="M258 80Q187 149 150 255T113 489Q113 605 135 711T196 910T291 1078T414 1208T557 1291T717 1321Q791 1321 853 1297T965 1227L1063 1384H1118L997 1192Q1057 1123 1088 1027T1120 815Q1120 695 1098 586T1036 384T940 216T817 87T673 6T516 -23Q450 -23 395 -4T293 49L186 -125H131L258 80ZM694 1272Q626 1272 565 1242T453 1157T360 1027T291 862T247 670T231 461Q231 371 249 294T305 158L920 1153Q879 1209 823 1240T694 1272ZM1001 838Q1001 915 987 983T946 1106L334 117Q372 73 423 50T539 27Q640 27 725 93T871 270T967 529T1001 838Z"  />
<glyph unicode="&#xD9;" horiz-adv-x="1083" d="M1202 1270Q1163 1264 1140 1255T1102 1221T1076 1155T1049 1040Q1014 889 989 739Q962 584 934 467T873 265T799 125T708 36T594 -10T453 -23Q352 -23 289 6T191 82T142 184T129 295Q129 358 138 421T164 559L244 963Q261 1052 267 1112T274 1186Q274 1212 269 1227T249 1251T211 1264T147 1270Q137 1270 137 1278Q137 1293 140 1298T152 1303Q203 1298 246 1296T334 1294Q383 1294 434 1297T547 1300Q552 1300 553 1300T555 1294Q555 1283 554 1279T550 1273T542 1271T528 1270Q484 1267 458 1256T415 1211T384 1118T350 958L272 569Q268 549 262 517T250 449T240 381T236 328Q236 265 247 214T290 128T377 73T520 53Q636 53 708 110T823 268Q846 324 875 447T932 743Q940 795 950 853T970 969T985 1077T991 1167Q991 1202 980 1221T950 1251T904 1265T846 1272Q836 1272 836 1278Q836 1290 838 1294T846 1298Q871 1298 919 1296T1038 1294Q1083 1294 1114 1294T1167 1296T1202 1297T1223 1298Q1231 1298 1231 1292Q1231 1284 1229 1278T1217 1272L1202 1270ZM797 1421Q787 1421 784 1422T776 1428L574 1661Q553 1684 553 1698Q553 1705 561 1712T582 1726T612 1737T649 1741Q659 1741 664 1735T674 1720L801 1446Q804 1441 806 1436T809 1428Q809 1421 797 1421Z"  />
<glyph unicode="&#xDA;" horiz-adv-x="1083" d="M1202 1270Q1163 1264 1140 1255T1102 1221T1076 1155T1049 1040Q1014 889 989 739Q962 584 934 467T873 265T799 125T708 36T594 -10T453 -23Q352 -23 289 6T191 82T142 184T129 295Q129 358 138 421T164 559L244 963Q261 1052 267 1112T274 1186Q274 1212 269 1227T249 1251T211 1264T147 1270Q137 1270 137 1278Q137 1293 140 1298T152 1303Q203 1298 246 1296T334 1294Q383 1294 434 1297T547 1300Q552 1300 553 1300T555 1294Q555 1283 554 1279T550 1273T542 1271T528 1270Q484 1267 458 1256T415 1211T384 1118T350 958L272 569Q268 549 262 517T250 449T240 381T236 328Q236 265 247 214T290 128T377 73T520 53Q636 53 708 110T823 268Q846 324 875 447T932 743Q940 795 950 853T970 969T985 1077T991 1167Q991 1202 980 1221T950 1251T904 1265T846 1272Q836 1272 836 1278Q836 1290 838 1294T846 1298Q871 1298 919 1296T1038 1294Q1083 1294 1114 1294T1167 1296T1202 1297T1223 1298Q1231 1298 1231 1292Q1231 1284 1229 1278T1217 1272L1202 1270ZM958 1659Q924 1634 885 1604T805 1542T727 1480T657 1425L653 1421Q651 1419 647 1419T639 1419L635 1421Q629 1421 629 1425Q629 1432 637 1440Q656 1461 682 1492T737 1556T793 1623T844 1682T884 1724T907 1741Q915 1741 928 1738T955 1729T979 1715T989 1698Q989 1690 982 1681T958 1659Z"  />
<glyph unicode="&#xDB;" horiz-adv-x="1083" d="M1202 1270Q1163 1264 1140 1255T1102 1221T1076 1155T1049 1040Q1014 889 989 739Q962 584 934 467T873 265T799 125T708 36T594 -10T453 -23Q352 -23 289 6T191 82T142 184T129 295Q129 358 138 421T164 559L244 963Q261 1052 267 1112T274 1186Q274 1212 269 1227T249 1251T211 1264T147 1270Q137 1270 137 1278Q137 1293 140 1298T152 1303Q203 1298 246 1296T334 1294Q383 1294 434 1297T547 1300Q552 1300 553 1300T555 1294Q555 1283 554 1279T550 1273T542 1271T528 1270Q484 1267 458 1256T415 1211T384 1118T350 958L272 569Q268 549 262 517T250 449T240 381T236 328Q236 265 247 214T290 128T377 73T520 53Q636 53 708 110T823 268Q846 324 875 447T932 743Q940 795 950 853T970 969T985 1077T991 1167Q991 1202 980 1221T950 1251T904 1265T846 1272Q836 1272 836 1278Q836 1290 838 1294T846 1298Q871 1298 919 1296T1038 1294Q1083 1294 1114 1294T1167 1296T1202 1297T1223 1298Q1231 1298 1231 1292Q1231 1284 1229 1278T1217 1272L1202 1270ZM881 1438Q855 1481 822 1528T760 1622Q758 1619 742 1604T702 1566T652 1519T603 1473T564 1437T547 1423Q541 1423 539 1428L535 1432Q529 1438 529 1442Q529 1448 534 1452T545 1462Q570 1489 596 1521T649 1586T700 1653T746 1716Q752 1726 760 1733T781 1741Q793 1741 800 1735T814 1704Q819 1680 832 1647T860 1578T889 1510T912 1454Q914 1448 915 1445T916 1438Q916 1433 910 1427T900 1421Q891 1421 881 1438Z"  />
<glyph unicode="&#xDC;" horiz-adv-x="1083" d="M1202 1270Q1163 1264 1140 1255T1102 1221T1076 1155T1049 1040Q1014 889 989 739Q962 584 934 467T873 265T799 125T708 36T594 -10T453 -23Q352 -23 289 6T191 82T142 184T129 295Q129 358 138 421T164 559L244 963Q261 1052 267 1112T274 1186Q274 1212 269 1227T249 1251T211 1264T147 1270Q137 1270 137 1278Q137 1293 140 1298T152 1303Q203 1298 246 1296T334 1294Q383 1294 434 1297T547 1300Q552 1300 553 1300T555 1294Q555 1283 554 1279T550 1273T542 1271T528 1270Q484 1267 458 1256T415 1211T384 1118T350 958L272 569Q268 549 262 517T250 449T240 381T236 328Q236 265 247 214T290 128T377 73T520 53Q636 53 708 110T823 268Q846 324 875 447T932 743Q940 795 950 853T970 969T985 1077T991 1167Q991 1202 980 1221T950 1251T904 1265T846 1272Q836 1272 836 1278Q836 1290 838 1294T846 1298Q871 1298 919 1296T1038 1294Q1083 1294 1114 1294T1167 1296T1202 1297T1223 1298Q1231 1298 1231 1292Q1231 1284 1229 1278T1217 1272L1202 1270ZM586 1477Q576 1477 566 1483T546 1499T532 1520T526 1542Q526 1553 532 1566T548 1592T570 1612T594 1620Q606 1620 616 1613T635 1595T648 1572T653 1548Q653 1537 647 1525T631 1502T610 1484T586 1477ZM842 1477Q831 1477 821 1483T803 1499T790 1520T785 1542Q785 1554 790 1567T805 1592T826 1612T850 1620Q862 1620 872 1613T891 1595T904 1572T909 1548Q909 1537 903 1525T887 1502T866 1484T842 1477Z"  />
<glyph unicode="&#xDD;" horiz-adv-x="905" d="M1100 1282Q1098 1270 1092 1268T1075 1266Q1060 1265 1046 1260T1011 1237T958 1182T874 1081Q834 1032 792 979T707 870T622 761T539 655Q530 643 525 632T517 608T513 583T508 555Q503 535 496 497T479 413T461 318T445 225T433 148T428 102Q428 76 435 62T459 41T503 32T569 27Q580 27 584 25T588 16Q588 7 585 2T563 -4Q556 -4 544 -3T508 -1T449 1T362 2Q305 2 248 0T135 -4Q126 -4 124 -3T121 4Q121 20 125 23T147 29Q196 32 227 37T277 58T308 102T330 182Q344 256 358 328T383 460T401 559T408 606Q408 615 405 626T397 653L262 1061Q237 1139 221 1180T188 1241T154 1264T106 1270H100Q90 1272 90 1278Q90 1303 98 1303Q101 1303 117 1302T158 1300T217 1297T289 1296Q335 1296 380 1296T469 1300Q478 1300 482 1299T487 1292Q487 1274 482 1271T465 1268H455Q423 1266 400 1264T363 1257T343 1241T336 1212Q336 1181 359 1098T426 889Q439 850 451 814T474 749T491 699T500 672Q508 684 526 709T561 756Q621 831 678 911T795 1069Q829 1115 850 1153T872 1217Q872 1241 848 1256T764 1272H748Q744 1272 743 1272T741 1278Q741 1303 752 1303Q758 1303 803 1300T936 1296Q972 1296 997 1296T1041 1298T1072 1299T1096 1300Q1102 1300 1102 1296Q1102 1293 1102 1290T1100 1282ZM882 1659Q848 1634 809 1604T729 1542T651 1480T581 1425L577 1421Q575 1419 571 1419T563 1419L559 1421Q553 1421 553 1425Q553 1432 561 1440Q580 1461 606 1492T661 1556T717 1623T768 1682T808 1724T831 1741Q839 1741 852 1738T879 1729T903 1715T913 1698Q913 1690 906 1681T882 1659Z"  />
<glyph unicode="&#xDE;" horiz-adv-x="956" d="M555 1028Q519 1028 498 1025T463 1007T440 961T420 872L326 373Q352 370 379 368T442 365Q544 365 614 393T728 476T790 608T809 786Q809 910 746 969T555 1028ZM319 338Q309 282 304 246T295 187T292 149T291 123Q291 100 294 85T308 59T343 42T406 31H426Q434 29 437 29T440 23Q440 12 437 4T428 -4Q385 -4 332 -1T231 2Q194 2 158 1T91 -1T33 -3T-10 -4Q-14 -4 -14 6Q-14 25 -10 28T6 31Q21 32 37 34T68 38T93 43T106 47Q125 56 139 74T166 127T190 220T219 365L328 961Q342 1036 349 1087T356 1174Q356 1202 350 1219T328 1247T289 1263T229 1270Q219 1270 219 1276Q219 1290 221 1295T229 1300Q282 1300 332 1297T434 1294Q459 1294 486 1295T540 1298T591 1301T637 1303Q652 1303 654 1301T657 1296L655 1282Q653 1276 649 1273T633 1270Q588 1270 560 1265T512 1239T481 1176T455 1059Q472 1059 483 1060T514 1061Q534 1063 557 1064T618 1065Q681 1065 736 1049T832 997T896 905T920 770Q920 667 893 585T811 444T676 355T489 324Q454 324 412 326T319 338Z"  />
<glyph unicode="&#xDF;" horiz-adv-x="741" d="M600 885Q560 858 535 833T495 783T475 736T469 690Q469 672 471 652T481 608T507 551T553 477Q606 403 629 354T653 262Q653 205 629 154T566 63T481 1T387 -23Q364 -23 343 -19T305 -6T278 17T268 53Q268 88 280 100T309 113Q311 113 323 108T348 95T373 83T387 76Q421 60 442 57T487 53Q503 53 520 63T550 91T573 130T582 176Q582 197 579 215T565 259T529 325T463 428Q437 466 422 497T400 552T391 596T389 631Q389 665 393 694T413 752T458 812T537 879Q583 913 613 947T661 1021T686 1107T694 1210Q694 1244 687 1272T662 1320T616 1352T543 1364Q493 1364 457 1343T394 1290T351 1218T324 1141Q317 1117 312 1096T300 1044T286 965T266 841T237 655T197 389Q178 264 162 166T132 -8T105 -142T78 -245T50 -326T18 -395Q-20 -468 -70 -508T-170 -549Q-208 -549 -232 -530T-256 -481Q-256 -470 -251 -459T-238 -438T-222 -424T-205 -418Q-197 -418 -193 -420Q-186 -423 -179 -429T-156 -449Q-132 -469 -109 -469Q-81 -469 -65 -442T-35 -360Q-26 -326 -16 -272T7 -145T33 15T61 205Q88 395 110 537T151 785T188 965T225 1093T265 1186T313 1262Q344 1305 380 1339T455 1398T532 1435T608 1448Q646 1448 677 1432T732 1389T767 1326T780 1247Q780 1126 735 1035T600 885Z"  />
<glyph unicode="&#xE0;" horiz-adv-x="805" d="M690 166Q641 73 592 25T504 -23Q478 -23 461 -3T444 49Q444 70 451 107T470 193T500 303T537 428L528 432Q514 406 495 372T455 303T412 233T373 172Q307 70 252 24T141 -23Q93 -23 65 18T37 131Q37 176 49 227T83 333T138 443T213 553Q301 671 407 749T629 862Q641 900 656 912T694 924Q711 924 716 917T721 897Q721 892 720 885T717 866T709 835T696 788Q680 731 662 665T627 531T595 400T567 282T548 192T541 143Q541 102 571 102Q590 102 613 124T661 184T711 271T758 375L762 369Q770 354 770 350Q770 342 763 322T745 276T719 220T690 166ZM518 752Q485 752 445 728T362 663T280 568T209 454T159 332T139 211Q139 158 157 126T209 94Q230 94 255 108T313 156T386 247T475 389Q498 429 517 471T549 554T570 631T578 696Q578 716 575 727T564 744T545 751T518 752ZM701 997Q691 997 688 998T680 1004L478 1237Q457 1260 457 1274Q457 1281 465 1288T486 1302T516 1313T553 1317Q563 1317 568 1311T578 1296L705 1022Q708 1017 710 1012T713 1004Q713 997 701 997Z"  />
<glyph unicode="&#xE1;" horiz-adv-x="805" d="M690 166Q641 73 592 25T504 -23Q478 -23 461 -3T444 49Q444 70 451 107T470 193T500 303T537 428L528 432Q514 406 495 372T455 303T412 233T373 172Q307 70 252 24T141 -23Q93 -23 65 18T37 131Q37 176 49 227T83 333T138 443T213 553Q301 671 407 749T629 862Q641 900 656 912T694 924Q711 924 716 917T721 897Q721 892 720 885T717 866T709 835T696 788Q680 731 662 665T627 531T595 400T567 282T548 192T541 143Q541 102 571 102Q590 102 613 124T661 184T711 271T758 375L762 369Q770 354 770 350Q770 342 763 322T745 276T719 220T690 166ZM518 752Q485 752 445 728T362 663T280 568T209 454T159 332T139 211Q139 158 157 126T209 94Q230 94 255 108T313 156T386 247T475 389Q498 429 517 471T549 554T570 631T578 696Q578 716 575 727T564 744T545 751T518 752ZM882 1235Q848 1210 809 1180T729 1118T651 1056T581 1001L577 997Q575 995 571 995T563 995L559 997Q553 997 553 1001Q553 1008 561 1016Q580 1037 606 1068T661 1132T717 1199T768 1258T808 1300T831 1317Q839 1317 852 1314T879 1305T903 1291T913 1274Q913 1266 906 1257T882 1235Z"  />
<glyph unicode="&#xE2;" horiz-adv-x="805" d="M690 166Q641 73 592 25T504 -23Q478 -23 461 -3T444 49Q444 70 451 107T470 193T500 303T537 428L528 432Q514 406 495 372T455 303T412 233T373 172Q307 70 252 24T141 -23Q93 -23 65 18T37 131Q37 176 49 227T83 333T138 443T213 553Q301 671 407 749T629 862Q641 900 656 912T694 924Q711 924 716 917T721 897Q721 892 720 885T717 866T709 835T696 788Q680 731 662 665T627 531T595 400T567 282T548 192T541 143Q541 102 571 102Q590 102 613 124T661 184T711 271T758 375L762 369Q770 354 770 350Q770 342 763 322T745 276T719 220T690 166ZM518 752Q485 752 445 728T362 663T280 568T209 454T159 332T139 211Q139 158 157 126T209 94Q230 94 255 108T313 156T386 247T475 389Q498 429 517 471T549 554T570 631T578 696Q578 716 575 727T564 744T545 751T518 752ZM756 1014Q730 1057 697 1104T635 1198Q633 1195 617 1180T577 1142T527 1095T478 1049T439 1013T422 999Q416 999 414 1004L410 1008Q404 1014 404 1018Q404 1024 409 1028T420 1038Q445 1065 471 1097T524 1162T575 1229T621 1292Q627 1302 635 1309T656 1317Q668 1317 675 1311T689 1280Q694 1256 707 1223T735 1154T764 1086T787 1030Q789 1024 790 1021T791 1014Q791 1009 785 1003T775 997Q766 997 756 1014Z"  />
<glyph unicode="&#xE3;" horiz-adv-x="805" d="M690 166Q641 73 592 25T504 -23Q478 -23 461 -3T444 49Q444 70 451 107T470 193T500 303T537 428L528 432Q514 406 495 372T455 303T412 233T373 172Q307 70 252 24T141 -23Q93 -23 65 18T37 131Q37 176 49 227T83 333T138 443T213 553Q301 671 407 749T629 862Q641 900 656 912T694 924Q711 924 716 917T721 897Q721 892 720 885T717 866T709 835T696 788Q680 731 662 665T627 531T595 400T567 282T548 192T541 143Q541 102 571 102Q590 102 613 124T661 184T711 271T758 375L762 369Q770 354 770 350Q770 342 763 322T745 276T719 220T690 166ZM518 752Q485 752 445 728T362 663T280 568T209 454T159 332T139 211Q139 158 157 126T209 94Q230 94 255 108T313 156T386 247T475 389Q498 429 517 471T549 554T570 631T578 696Q578 716 575 727T564 744T545 751T518 752ZM580 1231Q590 1231 598 1229T618 1221T644 1202T684 1167Q715 1138 733 1130T770 1122Q788 1122 805 1131T836 1155T862 1184T883 1212Q889 1222 890 1224T895 1227Q900 1227 908 1219T916 1206Q916 1204 912 1196Q897 1174 878 1145T835 1091T786 1048T736 1030Q717 1030 695 1045T647 1081Q625 1099 610 1110T585 1127T566 1135T549 1137Q531 1137 515 1129T484 1107T459 1080T439 1053Q435 1048 432 1043T426 1038Q421 1038 414 1046T406 1059Q406 1061 410 1069Q438 1112 461 1143T505 1193T543 1222T580 1231Z"  />
<glyph unicode="&#xE4;" horiz-adv-x="805" d="M690 166Q641 73 592 25T504 -23Q478 -23 461 -3T444 49Q444 70 451 107T470 193T500 303T537 428L528 432Q514 406 495 372T455 303T412 233T373 172Q307 70 252 24T141 -23Q93 -23 65 18T37 131Q37 176 49 227T83 333T138 443T213 553Q301 671 407 749T629 862Q641 900 656 912T694 924Q711 924 716 917T721 897Q721 892 720 885T717 866T709 835T696 788Q680 731 662 665T627 531T595 400T567 282T548 192T541 143Q541 102 571 102Q590 102 613 124T661 184T711 271T758 375L762 369Q770 354 770 350Q770 342 763 322T745 276T719 220T690 166ZM518 752Q485 752 445 728T362 663T280 568T209 454T159 332T139 211Q139 158 157 126T209 94Q230 94 255 108T313 156T386 247T475 389Q498 429 517 471T549 554T570 631T578 696Q578 716 575 727T564 744T545 751T518 752ZM492 1053Q482 1053 472 1059T452 1075T438 1096T432 1118Q432 1129 438 1142T454 1168T476 1188T500 1196Q512 1196 522 1189T541 1171T554 1148T559 1124Q559 1113 553 1101T537 1078T516 1060T492 1053ZM748 1053Q737 1053 727 1059T709 1075T696 1096T691 1118Q691 1130 696 1143T711 1168T732 1188T756 1196Q768 1196 778 1189T797 1171T810 1148T815 1124Q815 1113 809 1101T793 1078T772 1060T748 1053Z"  />
<glyph unicode="&#xE5;" horiz-adv-x="805" d="M690 166Q641 73 592 25T504 -23Q478 -23 461 -3T444 49Q444 70 451 107T470 193T500 303T537 428L528 432Q514 406 495 372T455 303T412 233T373 172Q307 70 252 24T141 -23Q93 -23 65 18T37 131Q37 176 49 227T83 333T138 443T213 553Q301 671 407 749T629 862Q641 900 656 912T694 924Q711 924 716 917T721 897Q721 892 720 885T717 866T709 835T696 788Q680 731 662 665T627 531T595 400T567 282T548 192T541 143Q541 102 571 102Q590 102 613 124T661 184T711 271T758 375L762 369Q770 354 770 350Q770 342 763 322T745 276T719 220T690 166ZM518 752Q485 752 445 728T362 663T280 568T209 454T159 332T139 211Q139 158 157 126T209 94Q230 94 255 108T313 156T386 247T475 389Q498 429 517 471T549 554T570 631T578 696Q578 716 575 727T564 744T545 751T518 752ZM635 997Q569 997 530 1033T490 1133Q490 1167 504 1195T542 1243T599 1273T670 1284Q709 1284 737 1273T782 1243T807 1200T815 1149Q815 1121 804 1094T770 1046T714 1011T635 997ZM664 1249Q621 1249 595 1215T568 1128Q568 1034 641 1034Q682 1034 709 1063T736 1149Q736 1195 719 1222T664 1249Z"  />
<glyph unicode="&#xE6;" horiz-adv-x="1065" d="M657 623Q650 601 645 582T636 542T627 502T616 457Q700 467 761 493T863 557T922 643T942 745Q942 790 920 819T856 848Q833 848 807 836T755 797T703 727T657 623ZM498 197Q498 239 503 279T518 367H510Q463 278 418 206T327 83T236 5T143 -23Q94 -23 66 18T37 131Q37 176 50 228T88 334T146 445T221 555Q309 673 415 751T637 864Q648 902 662 914T700 926Q716 926 721 919T727 899Q727 895 727 890T724 875T718 850T707 811Q747 848 791 866T874 885Q910 885 940 873T992 840T1026 789T1038 723Q1038 658 1009 607T926 520T792 461T610 432Q601 394 594 343T586 248Q586 211 592 179T612 122T650 83T711 68Q735 68 763 76T821 103T886 155T958 236Q963 231 964 225T965 217Q965 208 951 185T913 133Q784 -23 659 -23Q606 -23 575 -3T526 49T504 120T498 197ZM555 762Q520 762 476 737T385 671T294 574T216 457T160 332T139 211Q139 158 158 128T211 98Q232 98 258 107T316 146T389 227T479 365Q505 410 528 464T569 568T597 660T608 721Q608 749 594 755T555 762Z"  />
<glyph unicode="&#xE7;" horiz-adv-x="582" d="M231 -20Q154 -8 114 65T74 258Q74 313 85 377T116 506T166 630T233 737Q296 818 357 851T479 885Q550 885 594 861T639 793Q639 770 630 751T598 731Q583 731 569 743T543 772Q515 807 494 822T438 838Q389 838 342 789T254 653Q235 612 220 565T193 471T176 379T170 297Q170 247 175 204T195 129T234 79T301 61Q329 61 358 77T414 121T466 185T514 262H516L528 246Q532 242 532 238Q532 234 527 224T516 201T502 177T489 158Q464 116 435 83T377 28T319 -7T268 -23L231 -74Q211 -100 211 -113Q211 -122 218 -128T236 -143Q262 -165 276 -186T291 -231Q291 -241 290 -250T287 -268Q279 -300 258 -328T210 -377T154 -410T100 -422Q68 -422 48 -410T27 -375Q27 -372 28 -369T29 -362Q34 -345 42 -331T59 -317Q73 -317 79 -324T96 -338Q115 -349 125 -352T150 -356Q174 -356 192 -344T217 -303Q219 -297 219 -293T219 -283Q219 -261 208 -244T180 -215Q157 -196 144 -185T131 -160Q131 -141 156 -115L231 -20Z"  />
<glyph unicode="&#xE8;" horiz-adv-x="643" d="M426 473Q400 464 378 458T330 447T271 439T190 434Q184 396 180 359T176 283Q176 242 182 204T202 135T240 87T297 68Q322 68 350 76T409 103T474 155T545 236H547L551 227Q553 224 553 222T553 217Q553 196 502 133Q373 -23 248 -23Q167 -23 121 47T74 248Q74 333 88 413T129 564T191 694T270 795T361 861T461 885Q497 885 527 873T579 840T613 789T625 723Q625 682 611 644T571 574T508 516T426 473ZM440 850Q400 850 363 822T295 743T238 620T195 457Q241 462 276 469T338 487T388 511T432 543Q453 560 470 584T500 635T520 691T528 745Q528 792 505 821T440 850ZM582 997Q572 997 569 998T561 1004L359 1237Q338 1260 338 1274Q338 1281 346 1288T367 1302T397 1313T434 1317Q444 1317 449 1311T459 1296L586 1022Q589 1017 591 1012T594 1004Q594 997 582 997Z"  />
<glyph unicode="&#xE9;" horiz-adv-x="643" d="M426 473Q400 464 378 458T330 447T271 439T190 434Q184 396 180 359T176 283Q176 242 182 204T202 135T240 87T297 68Q322 68 350 76T409 103T474 155T545 236H547L551 227Q553 224 553 222T553 217Q553 196 502 133Q373 -23 248 -23Q167 -23 121 47T74 248Q74 333 88 413T129 564T191 694T270 795T361 861T461 885Q497 885 527 873T579 840T613 789T625 723Q625 682 611 644T571 574T508 516T426 473ZM440 850Q400 850 363 822T295 743T238 620T195 457Q241 462 276 469T338 487T388 511T432 543Q453 560 470 584T500 635T520 691T528 745Q528 792 505 821T440 850ZM735 1235Q701 1210 662 1180T582 1118T504 1056T434 1001L430 997Q428 995 424 995T416 995L412 997Q406 997 406 1001Q406 1008 414 1016Q433 1037 459 1068T514 1132T570 1199T621 1258T661 1300T684 1317Q692 1317 705 1314T732 1305T756 1291T766 1274Q766 1266 759 1257T735 1235Z"  />
<glyph unicode="&#xEA;" horiz-adv-x="643" d="M426 473Q400 464 378 458T330 447T271 439T190 434Q184 396 180 359T176 283Q176 242 182 204T202 135T240 87T297 68Q322 68 350 76T409 103T474 155T545 236H547L551 227Q553 224 553 222T553 217Q553 196 502 133Q373 -23 248 -23Q167 -23 121 47T74 248Q74 333 88 413T129 564T191 694T270 795T361 861T461 885Q497 885 527 873T579 840T613 789T625 723Q625 682 611 644T571 574T508 516T426 473ZM440 850Q400 850 363 822T295 743T238 620T195 457Q241 462 276 469T338 487T388 511T432 543Q453 560 470 584T500 635T520 691T528 745Q528 792 505 821T440 850ZM641 1014Q615 1057 582 1104T520 1198Q518 1195 502 1180T462 1142T412 1095T363 1049T324 1013T307 999Q301 999 299 1004L295 1008Q289 1014 289 1018Q289 1024 294 1028T305 1038Q330 1065 356 1097T409 1162T460 1229T506 1292Q512 1302 520 1309T541 1317Q553 1317 560 1311T574 1280Q579 1256 592 1223T620 1154T649 1086T672 1030Q674 1024 675 1021T676 1014Q676 1009 670 1003T660 997Q651 997 641 1014Z"  />
<glyph unicode="&#xEB;" horiz-adv-x="643" d="M426 473Q400 464 378 458T330 447T271 439T190 434Q184 396 180 359T176 283Q176 242 182 204T202 135T240 87T297 68Q322 68 350 76T409 103T474 155T545 236H547L551 227Q553 224 553 222T553 217Q553 196 502 133Q373 -23 248 -23Q167 -23 121 47T74 248Q74 333 88 413T129 564T191 694T270 795T361 861T461 885Q497 885 527 873T579 840T613 789T625 723Q625 682 611 644T571 574T508 516T426 473ZM440 850Q400 850 363 822T295 743T238 620T195 457Q241 462 276 469T338 487T388 511T432 543Q453 560 470 584T500 635T520 691T528 745Q528 792 505 821T440 850ZM365 1053Q355 1053 345 1059T325 1075T311 1096T305 1118Q305 1129 311 1142T327 1168T349 1188T373 1196Q385 1196 395 1189T414 1171T427 1148T432 1124Q432 1113 426 1101T410 1078T389 1060T365 1053ZM621 1053Q610 1053 600 1059T582 1075T569 1096T564 1118Q564 1130 569 1143T584 1168T605 1188T629 1196Q641 1196 651 1189T670 1171T683 1148T688 1124Q688 1113 682 1101T666 1078T645 1060T621 1053Z"  />
<glyph unicode="&#xEC;" horiz-adv-x="461" d="M98 643V666Q98 670 98 674T103 684T114 701T137 729Q197 800 252 840T350 883Q369 883 379 869T389 834Q389 820 386 798T369 731L215 233Q203 190 193 156T182 100Q182 89 185 83T199 76Q209 76 223 82T260 107T313 159T389 246H391V217Q391 211 390 206T385 194T373 175T350 147Q278 62 225 20T131 -23Q116 -23 106 -16T91 1T84 24T82 49Q82 72 90 107T115 199Q126 233 136 270T160 346L281 745Q283 753 284 758T285 768Q285 784 268 784Q257 784 245 778T218 762T190 739T163 713Q132 682 100 643H98ZM461 997Q451 997 448 998T440 1004L238 1237Q217 1260 217 1274Q217 1281 225 1288T246 1302T276 1313T313 1317Q323 1317 328 1311T338 1296L465 1022Q468 1017 470 1012T473 1004Q473 997 461 997Z"  />
<glyph unicode="&#xED;" horiz-adv-x="461" d="M98 643V666Q98 670 98 674T103 684T114 701T137 729Q197 800 252 840T350 883Q369 883 379 869T389 834Q389 820 386 798T369 731L215 233Q203 190 193 156T182 100Q182 89 185 83T199 76Q209 76 223 82T260 107T313 159T389 246H391V217Q391 211 390 206T385 194T373 175T350 147Q278 62 225 20T131 -23Q116 -23 106 -16T91 1T84 24T82 49Q82 72 90 107T115 199Q126 233 136 270T160 346L281 745Q283 753 284 758T285 768Q285 784 268 784Q257 784 245 778T218 762T190 739T163 713Q132 682 100 643H98ZM612 1235Q578 1210 539 1180T459 1118T381 1056T311 1001L307 997Q305 995 301 995T293 995L289 997Q283 997 283 1001Q283 1008 291 1016Q310 1037 336 1068T391 1132T447 1199T498 1258T538 1300T561 1317Q569 1317 582 1314T609 1305T633 1291T643 1274Q643 1266 636 1257T612 1235Z"  />
<glyph unicode="&#xEE;" horiz-adv-x="461" d="M98 643V666Q98 670 98 674T103 684T114 701T137 729Q197 800 252 840T350 883Q369 883 379 869T389 834Q389 820 386 798T369 731L215 233Q203 190 193 156T182 100Q182 89 185 83T199 76Q209 76 223 82T260 107T313 159T389 246H391V217Q391 211 390 206T385 194T373 175T350 147Q278 62 225 20T131 -23Q116 -23 106 -16T91 1T84 24T82 49Q82 72 90 107T115 199Q126 233 136 270T160 346L281 745Q283 753 284 758T285 768Q285 784 268 784Q257 784 245 778T218 762T190 739T163 713Q132 682 100 643H98ZM530 1014Q504 1057 471 1104T409 1198Q407 1195 391 1180T351 1142T301 1095T252 1049T213 1013T196 999Q190 999 188 1004L184 1008Q178 1014 178 1018Q178 1024 183 1028T194 1038Q219 1065 245 1097T298 1162T349 1229T395 1292Q401 1302 409 1309T430 1317Q442 1317 449 1311T463 1280Q468 1256 481 1223T509 1154T538 1086T561 1030Q563 1024 564 1021T565 1014Q565 1009 559 1003T549 997Q540 997 530 1014Z"  />
<glyph unicode="&#xEF;" horiz-adv-x="461" d="M98 643V666Q98 670 98 674T103 684T114 701T137 729Q197 800 252 840T350 883Q369 883 379 869T389 834Q389 820 386 798T369 731L215 233Q203 190 193 156T182 100Q182 89 185 83T199 76Q209 76 223 82T260 107T313 159T389 246H391V217Q391 211 390 206T385 194T373 175T350 147Q278 62 225 20T131 -23Q116 -23 106 -16T91 1T84 24T82 49Q82 72 90 107T115 199Q126 233 136 270T160 346L281 745Q283 753 284 758T285 768Q285 784 268 784Q257 784 245 778T218 762T190 739T163 713Q132 682 100 643H98ZM264 1053Q254 1053 244 1059T224 1075T210 1096T204 1118Q204 1129 210 1142T226 1168T248 1188T272 1196Q284 1196 294 1189T313 1171T326 1148T331 1124Q331 1113 325 1101T309 1078T288 1060T264 1053ZM520 1053Q509 1053 499 1059T481 1075T468 1096T463 1118Q463 1130 468 1143T483 1168T504 1188T528 1196Q540 1196 550 1189T569 1171T582 1148T587 1124Q587 1113 581 1101T565 1078T544 1060T520 1053Z"  />
<glyph unicode="&#xF0;" horiz-adv-x="752" d="M555 154Q496 67 425 22T274 -23Q178 -23 125 51T72 262Q72 347 87 426T129 575T195 702T278 800T375 864T481 887Q512 887 539 878T588 852Q588 858 588 878T586 926T582 988T576 1058T568 1128T557 1190Q549 1186 534 1179T499 1164T459 1145T420 1126Q403 1118 387 1110T365 1102Q362 1102 360 1107T355 1120T352 1134T350 1145Q350 1152 362 1155Q384 1164 403 1172T443 1189T490 1209T549 1235Q541 1266 535 1291T522 1337T508 1376T494 1413Q490 1421 485 1432T479 1454Q479 1464 500 1464Q512 1463 519 1460T532 1453T540 1442T547 1430Q554 1415 564 1390T583 1338T599 1290T608 1264Q658 1285 694 1302T764 1337Q767 1339 775 1344T786 1350Q793 1350 795 1342T803 1319Q805 1314 806 1311T807 1305Q807 1301 800 1298T786 1292L623 1217Q635 1164 646 1100T667 965T682 822T688 680Q688 655 687 632T684 586Q680 530 671 473T645 359T607 251T555 154ZM457 850Q397 850 345 784T250 602Q234 558 221 509T197 410T182 313T176 225Q176 180 183 142T205 74T241 29T291 12Q354 12 407 74T504 246Q522 292 536 341T561 439T576 535T582 625Q582 674 574 715T550 787T511 833T457 850Z"  />
<glyph unicode="&#xF1;" horiz-adv-x="858" d="M791 244Q755 182 720 133T653 49T595 -4T549 -23Q529 -23 521 -10T512 23Q512 43 515 61T524 98Q553 216 577 317T618 498T645 632T655 713Q655 780 608 780Q589 780 566 768T517 727T461 654T397 543Q370 492 343 428T289 298T240 167T201 49Q188 7 178 -9T150 -25Q106 -25 106 16Q106 24 107 32T111 49Q119 83 136 153T178 330Q197 409 214 481T243 609T263 702T270 750Q268 771 260 775T244 780Q215 780 175 730T86 563H84V598Q84 608 84 615T87 631T95 652T109 682Q149 778 201 832T301 887Q339 887 352 868T365 821Q365 800 360 777T350 735Q346 721 343 710T337 685T328 651T315 600Q308 574 301 551T286 498T268 432T244 342L252 338Q303 455 358 555T467 728T572 842T666 883Q708 883 730 848T752 739Q752 724 751 710T748 679T742 642T731 594Q719 540 698 454T643 231Q634 195 629 172T620 136T617 115T616 104Q616 99 620 99T627 98Q633 98 646 110T676 144T714 192T755 249T795 309T831 365H834V352Q834 341 833 333T827 313T814 286T791 244ZM490 1231Q500 1231 508 1229T528 1221T554 1202T594 1167Q625 1138 643 1130T680 1122Q698 1122 715 1131T746 1155T772 1184T793 1212Q799 1222 800 1224T805 1227Q810 1227 818 1219T826 1206Q826 1204 822 1196Q807 1174 788 1145T745 1091T696 1048T646 1030Q627 1030 605 1045T557 1081Q535 1099 520 1110T495 1127T476 1135T459 1137Q441 1137 425 1129T394 1107T369 1080T349 1053Q345 1048 342 1043T336 1038Q331 1038 324 1046T316 1059Q316 1061 320 1069Q348 1112 371 1143T415 1193T453 1222T490 1231Z"  />
<glyph unicode="&#xF2;" horiz-adv-x="760" d="M557 154Q498 67 427 22T276 -23Q181 -23 128 51T74 262Q74 347 89 426T131 575T197 702T280 800T377 864T483 887Q577 887 631 808T686 586Q686 530 677 473T651 359T610 251T557 154ZM459 850Q399 850 347 784T252 602Q236 558 223 509T199 410T184 313T178 225Q178 180 185 142T207 74T243 29T293 12Q356 12 409 74T506 246Q524 292 538 341T563 439T578 535T584 625Q584 674 576 715T552 787T513 833T459 850ZM613 997Q603 997 600 998T592 1004L390 1237Q369 1260 369 1274Q369 1281 377 1288T398 1302T428 1313T465 1317Q475 1317 480 1311T490 1296L617 1022Q620 1017 622 1012T625 1004Q625 997 613 997Z"  />
<glyph unicode="&#xF3;" horiz-adv-x="760" d="M557 154Q498 67 427 22T276 -23Q181 -23 128 51T74 262Q74 347 89 426T131 575T197 702T280 800T377 864T483 887Q577 887 631 808T686 586Q686 530 677 473T651 359T610 251T557 154ZM459 850Q399 850 347 784T252 602Q236 558 223 509T199 410T184 313T178 225Q178 180 185 142T207 74T243 29T293 12Q356 12 409 74T506 246Q524 292 538 341T563 439T578 535T584 625Q584 674 576 715T552 787T513 833T459 850ZM743 1235Q709 1210 670 1180T590 1118T512 1056T442 1001L438 997Q436 995 432 995T424 995L420 997Q414 997 414 1001Q414 1008 422 1016Q441 1037 467 1068T522 1132T578 1199T629 1258T669 1300T692 1317Q700 1317 713 1314T740 1305T764 1291T774 1274Q774 1266 767 1257T743 1235Z"  />
<glyph unicode="&#xF4;" horiz-adv-x="760" d="M557 154Q498 67 427 22T276 -23Q181 -23 128 51T74 262Q74 347 89 426T131 575T197 702T280 800T377 864T483 887Q577 887 631 808T686 586Q686 530 677 473T651 359T610 251T557 154ZM459 850Q399 850 347 784T252 602Q236 558 223 509T199 410T184 313T178 225Q178 180 185 142T207 74T243 29T293 12Q356 12 409 74T506 246Q524 292 538 341T563 439T578 535T584 625Q584 674 576 715T552 787T513 833T459 850ZM684 1014Q658 1057 625 1104T563 1198Q561 1195 545 1180T505 1142T455 1095T406 1049T367 1013T350 999Q344 999 342 1004L338 1008Q332 1014 332 1018Q332 1024 337 1028T348 1038Q373 1065 399 1097T452 1162T503 1229T549 1292Q555 1302 563 1309T584 1317Q596 1317 603 1311T617 1280Q622 1256 635 1223T663 1154T692 1086T715 1030Q717 1024 718 1021T719 1014Q719 1009 713 1003T703 997Q694 997 684 1014Z"  />
<glyph unicode="&#xF5;" horiz-adv-x="760" d="M557 154Q498 67 427 22T276 -23Q181 -23 128 51T74 262Q74 347 89 426T131 575T197 702T280 800T377 864T483 887Q577 887 631 808T686 586Q686 530 677 473T651 359T610 251T557 154ZM459 850Q399 850 347 784T252 602Q236 558 223 509T199 410T184 313T178 225Q178 180 185 142T207 74T243 29T293 12Q356 12 409 74T506 246Q524 292 538 341T563 439T578 535T584 625Q584 674 576 715T552 787T513 833T459 850ZM463 1231Q473 1231 481 1229T501 1221T527 1202T567 1167Q598 1138 616 1130T653 1122Q671 1122 688 1131T719 1155T745 1184T766 1212Q772 1222 773 1224T778 1227Q783 1227 791 1219T799 1206Q799 1204 795 1196Q780 1174 761 1145T718 1091T669 1048T619 1030Q600 1030 578 1045T530 1081Q508 1099 493 1110T468 1127T449 1135T432 1137Q414 1137 398 1129T367 1107T342 1080T322 1053Q318 1048 315 1043T309 1038Q304 1038 297 1046T289 1059Q289 1061 293 1069Q321 1112 344 1143T388 1193T426 1222T463 1231Z"  />
<glyph unicode="&#xF6;" horiz-adv-x="760" d="M557 154Q498 67 427 22T276 -23Q181 -23 128 51T74 262Q74 347 89 426T131 575T197 702T280 800T377 864T483 887Q577 887 631 808T686 586Q686 530 677 473T651 359T610 251T557 154ZM459 850Q399 850 347 784T252 602Q236 558 223 509T199 410T184 313T178 225Q178 180 185 142T207 74T243 29T293 12Q356 12 409 74T506 246Q524 292 538 341T563 439T578 535T584 625Q584 674 576 715T552 787T513 833T459 850ZM416 1053Q406 1053 396 1059T376 1075T362 1096T356 1118Q356 1129 362 1142T378 1168T400 1188T424 1196Q436 1196 446 1189T465 1171T478 1148T483 1124Q483 1113 477 1101T461 1078T440 1060T416 1053ZM672 1053Q661 1053 651 1059T633 1075T620 1096T615 1118Q615 1130 620 1143T635 1168T656 1188T680 1196Q692 1196 702 1189T721 1171T734 1148T739 1124Q739 1113 733 1101T717 1078T696 1060T672 1053Z"  />
<glyph unicode="&#xF7;" horiz-adv-x="850" d="M469 864Q440 864 420 884T399 934Q399 963 419 983T469 1004Q498 1004 518 984T539 934Q539 905 519 885T469 864ZM121 610V690H811V610H121ZM469 297Q440 297 420 317T399 367Q399 396 419 416T469 436Q498 436 518 416T539 367Q539 338 519 318T469 297Z"  />
<glyph unicode="&#xF8;" horiz-adv-x="760" d="M2 -84L113 74Q93 109 84 156T74 262Q74 347 89 426T131 575T197 702T280 800T377 864T483 887Q530 887 566 868T629 811L709 924H752L649 776Q666 739 676 692T686 586Q686 530 677 473T651 359T610 251T557 154Q498 67 427 22T276 -23Q187 -23 133 43L45 -84H2ZM459 850Q399 850 347 784T252 602Q236 558 223 509T199 410T184 313T178 225Q178 211 178 198T180 172L571 729Q557 785 529 817T459 850ZM584 625Q584 639 583 652T580 680L188 123Q202 72 228 42T293 12Q356 12 409 74T506 246Q524 292 538 341T563 439T578 535T584 625Z"  />
<glyph unicode="&#xF9;" horiz-adv-x="868" d="M838 311Q833 302 829 293T819 270Q812 254 792 219T745 143T689 66T635 10Q596 -18 565 -18Q539 -18 524 2T508 59Q508 76 519 121T548 227T587 354T628 482T662 587T682 649H678Q632 571 586 496T496 354T413 232T342 137Q274 53 230 18T154 -18Q128 -18 116 1T104 63Q104 107 122 181T174 367Q183 397 198 442T229 535T261 624T283 686Q284 689 287 698T294 718T300 738T303 750Q303 755 301 757T291 760Q280 760 267 750T238 725Q209 694 176 652T117 565H111V588Q111 598 123 621Q134 638 152 664T194 720T243 780T294 833T342 872T383 887Q402 887 409 877T416 850Q416 830 409 809T393 762Q385 739 373 705T345 621T308 504T258 348Q246 308 236 273T219 209T209 162T205 135Q205 130 205 125T207 115Q211 104 227 104Q249 105 284 136T362 218T450 336T539 476T620 626T684 772Q689 788 698 809T717 854Q723 868 730 877T750 887Q755 887 761 886T776 879Q792 871 796 861T801 838Q801 822 796 806T782 766Q771 732 756 683T724 576T690 458T657 343T630 242T612 168Q610 162 609 153T608 135Q608 123 612 115T629 106Q649 106 675 128T729 188T786 275T840 377H844V342Q844 333 843 326T838 311ZM654 997Q644 997 641 998T633 1004L431 1237Q410 1260 410 1274Q410 1281 418 1288T439 1302T469 1313T506 1317Q516 1317 521 1311T531 1296L658 1022Q661 1017 663 1012T666 1004Q666 997 654 997Z"  />
<glyph unicode="&#xFA;" horiz-adv-x="868" d="M838 311Q833 302 829 293T819 270Q812 254 792 219T745 143T689 66T635 10Q596 -18 565 -18Q539 -18 524 2T508 59Q508 76 519 121T548 227T587 354T628 482T662 587T682 649H678Q632 571 586 496T496 354T413 232T342 137Q274 53 230 18T154 -18Q128 -18 116 1T104 63Q104 107 122 181T174 367Q183 397 198 442T229 535T261 624T283 686Q284 689 287 698T294 718T300 738T303 750Q303 755 301 757T291 760Q280 760 267 750T238 725Q209 694 176 652T117 565H111V588Q111 598 123 621Q134 638 152 664T194 720T243 780T294 833T342 872T383 887Q402 887 409 877T416 850Q416 830 409 809T393 762Q385 739 373 705T345 621T308 504T258 348Q246 308 236 273T219 209T209 162T205 135Q205 130 205 125T207 115Q211 104 227 104Q249 105 284 136T362 218T450 336T539 476T620 626T684 772Q689 788 698 809T717 854Q723 868 730 877T750 887Q755 887 761 886T776 879Q792 871 796 861T801 838Q801 822 796 806T782 766Q771 732 756 683T724 576T690 458T657 343T630 242T612 168Q610 162 609 153T608 135Q608 123 612 115T629 106Q649 106 675 128T729 188T786 275T840 377H844V342Q844 333 843 326T838 311ZM868 1235Q834 1210 795 1180T715 1118T637 1056T567 1001L563 997Q561 995 557 995T549 995L545 997Q539 997 539 1001Q539 1008 547 1016Q566 1037 592 1068T647 1132T703 1199T754 1258T794 1300T817 1317Q825 1317 838 1314T865 1305T889 1291T899 1274Q899 1266 892 1257T868 1235Z"  />
<glyph unicode="&#xFB;" horiz-adv-x="868" d="M838 311Q833 302 829 293T819 270Q812 254 792 219T745 143T689 66T635 10Q596 -18 565 -18Q539 -18 524 2T508 59Q508 76 519 121T548 227T587 354T628 482T662 587T682 649H678Q632 571 586 496T496 354T413 232T342 137Q274 53 230 18T154 -18Q128 -18 116 1T104 63Q104 107 122 181T174 367Q183 397 198 442T229 535T261 624T283 686Q284 689 287 698T294 718T300 738T303 750Q303 755 301 757T291 760Q280 760 267 750T238 725Q209 694 176 652T117 565H111V588Q111 598 123 621Q134 638 152 664T194 720T243 780T294 833T342 872T383 887Q402 887 409 877T416 850Q416 830 409 809T393 762Q385 739 373 705T345 621T308 504T258 348Q246 308 236 273T219 209T209 162T205 135Q205 130 205 125T207 115Q211 104 227 104Q249 105 284 136T362 218T450 336T539 476T620 626T684 772Q689 788 698 809T717 854Q723 868 730 877T750 887Q755 887 761 886T776 879Q792 871 796 861T801 838Q801 822 796 806T782 766Q771 732 756 683T724 576T690 458T657 343T630 242T612 168Q610 162 609 153T608 135Q608 123 612 115T629 106Q649 106 675 128T729 188T786 275T840 377H844V342Q844 333 843 326T838 311ZM784 1014Q758 1057 725 1104T663 1198Q661 1195 645 1180T605 1142T555 1095T506 1049T467 1013T450 999Q444 999 442 1004L438 1008Q432 1014 432 1018Q432 1024 437 1028T448 1038Q473 1065 499 1097T552 1162T603 1229T649 1292Q655 1302 663 1309T684 1317Q696 1317 703 1311T717 1280Q722 1256 735 1223T763 1154T792 1086T815 1030Q817 1024 818 1021T819 1014Q819 1009 813 1003T803 997Q794 997 784 1014Z"  />
<glyph unicode="&#xFC;" horiz-adv-x="868" d="M838 311Q833 302 829 293T819 270Q812 254 792 219T745 143T689 66T635 10Q596 -18 565 -18Q539 -18 524 2T508 59Q508 76 519 121T548 227T587 354T628 482T662 587T682 649H678Q632 571 586 496T496 354T413 232T342 137Q274 53 230 18T154 -18Q128 -18 116 1T104 63Q104 107 122 181T174 367Q183 397 198 442T229 535T261 624T283 686Q284 689 287 698T294 718T300 738T303 750Q303 755 301 757T291 760Q280 760 267 750T238 725Q209 694 176 652T117 565H111V588Q111 598 123 621Q134 638 152 664T194 720T243 780T294 833T342 872T383 887Q402 887 409 877T416 850Q416 830 409 809T393 762Q385 739 373 705T345 621T308 504T258 348Q246 308 236 273T219 209T209 162T205 135Q205 130 205 125T207 115Q211 104 227 104Q249 105 284 136T362 218T450 336T539 476T620 626T684 772Q689 788 698 809T717 854Q723 868 730 877T750 887Q755 887 761 886T776 879Q792 871 796 861T801 838Q801 822 796 806T782 766Q771 732 756 683T724 576T690 458T657 343T630 242T612 168Q610 162 609 153T608 135Q608 123 612 115T629 106Q649 106 675 128T729 188T786 275T840 377H844V342Q844 333 843 326T838 311ZM477 1053Q467 1053 457 1059T437 1075T423 1096T417 1118Q417 1129 423 1142T439 1168T461 1188T485 1196Q497 1196 507 1189T526 1171T539 1148T544 1124Q544 1113 538 1101T522 1078T501 1060T477 1053ZM733 1053Q722 1053 712 1059T694 1075T681 1096T676 1118Q676 1130 681 1143T696 1168T717 1188T741 1196Q753 1196 763 1189T782 1171T795 1148T800 1124Q800 1113 794 1101T778 1078T757 1060T733 1053Z"  />
<glyph unicode="&#xFD;" horiz-adv-x="807" d="M557 145Q469 -34 392 -165T239 -381T80 -508T-102 -551Q-125 -551 -153 -547T-205 -530T-247 -497T-264 -444Q-264 -423 -250 -404T-211 -385Q-194 -385 -183 -399T-164 -430Q-155 -456 -131 -466T-70 -477Q-14 -477 39 -457T141 -404T229 -328T301 -240Q333 -194 352 -158T381 -93T394 -42T397 -2V25Q393 79 388 146T376 287T360 434T340 573Q330 634 319 677T292 747T258 786T213 799Q184 799 160 778T118 722T88 640T72 543Q72 537 70 536T59 535Q50 535 48 535T45 541Q45 568 49 597T59 656T76 714T98 766Q127 820 165 851T246 883Q280 883 308 866T358 812T396 715T424 573Q432 511 439 444T453 308T466 174T477 49Q519 133 544 189T586 286T614 357T637 422Q662 488 674 555T686 670Q686 704 681 725T653 772Q636 792 632 801T627 825Q627 850 644 866T688 883Q722 883 741 849T760 758Q760 662 708 504T557 145ZM747 1235Q713 1210 674 1180T594 1118T516 1056T446 1001L442 997Q440 995 436 995T428 995L424 997Q418 997 418 1001Q418 1008 426 1016Q445 1037 471 1068T526 1132T582 1199T633 1258T673 1300T696 1317Q704 1317 717 1314T744 1305T768 1291T778 1274Q778 1266 771 1257T747 1235Z"  />
<glyph unicode="&#xFE;" horiz-adv-x="813" d="M477 803Q437 803 398 795T317 778Q298 671 283 590T256 447T236 343T223 268T216 216T213 178Q213 118 238 86T330 53Q387 53 437 107T532 258Q552 302 570 349T603 446T626 548T635 653Q635 732 599 767T477 803ZM324 817Q408 839 466 848T571 858Q656 858 700 811T745 680Q745 629 733 566T699 435T646 302T578 182Q522 104 460 58T326 12Q291 12 256 21T184 53L133 -250Q122 -318 117 -364T111 -428Q111 -451 130 -466T203 -487Q226 -489 240 -489T262 -489Q268 -489 271 -490T274 -500Q274 -515 272 -519T258 -524Q247 -524 235 -524T200 -523T144 -521T57 -518Q40 -518 15 -518T-36 -519T-86 -521T-121 -524H-125Q-133 -524 -133 -514Q-133 -502 -131 -499T-117 -494Q-89 -490 -69 -486T-35 -473T-10 -448T8 -405T25 -337T43 -238Q61 -134 79 -32T119 186T166 439T223 752L111 721Q103 719 100 718Q97 717 94 717Q92 717 92 723V745Q92 749 93 750T102 754L229 793L248 893Q282 1074 299 1175T317 1305Q316 1326 311 1336T293 1352T262 1360T213 1368Q210 1368 209 1368T207 1374V1382Q209 1390 210 1393T223 1399L266 1409Q309 1419 338 1425T388 1435T422 1440T446 1442Q457 1442 457 1434Q457 1429 456 1424T453 1413Q439 1359 425 1301T397 1178L324 817Z"  />
<glyph unicode="&#xFF;" horiz-adv-x="807" d="M557 145Q469 -34 392 -165T239 -381T80 -508T-102 -551Q-125 -551 -153 -547T-205 -530T-247 -497T-264 -444Q-264 -423 -250 -404T-211 -385Q-194 -385 -183 -399T-164 -430Q-155 -456 -131 -466T-70 -477Q-14 -477 39 -457T141 -404T229 -328T301 -240Q333 -194 352 -158T381 -93T394 -42T397 -2V25Q393 79 388 146T376 287T360 434T340 573Q330 634 319 677T292 747T258 786T213 799Q184 799 160 778T118 722T88 640T72 543Q72 537 70 536T59 535Q50 535 48 535T45 541Q45 568 49 597T59 656T76 714T98 766Q127 820 165 851T246 883Q280 883 308 866T358 812T396 715T424 573Q432 511 439 444T453 308T466 174T477 49Q519 133 544 189T586 286T614 357T637 422Q662 488 674 555T686 670Q686 704 681 725T653 772Q636 792 632 801T627 825Q627 850 644 866T688 883Q722 883 741 849T760 758Q760 662 708 504T557 145ZM369 1053Q359 1053 349 1059T329 1075T315 1096T309 1118Q309 1129 315 1142T331 1168T353 1188T377 1196Q389 1196 399 1189T418 1171T431 1148T436 1124Q436 1113 430 1101T414 1078T393 1060T369 1053ZM625 1053Q614 1053 604 1059T586 1075T573 1096T568 1118Q568 1130 573 1143T588 1168T609 1188T633 1196Q645 1196 655 1189T674 1171T687 1148T692 1124Q692 1113 686 1101T670 1078T649 1060T625 1053Z"  />
<glyph unicode="&#x131;" horiz-adv-x="461" d="M98 643V666Q98 670 98 674T103 684T114 701T137 729Q197 800 252 840T350 883Q369 883 379 869T389 834Q389 820 386 798T369 731L215 233Q203 190 193 156T182 100Q182 89 185 83T199 76Q209 76 223 82T260 107T313 159T389 246H391V217Q391 211 390 206T385 194T373 175T350 147Q278 62 225 20T131 -23Q116 -23 106 -16T91 1T84 24T82 49Q82 72 90 107T115 199Q126 233 136 270T160 346L281 745Q283 753 284 758T285 768Q285 784 268 784Q257 784 245 778T218 762T190 739T163 713Q132 682 100 643H98Z"  />
<glyph unicode="&#x152;" horiz-adv-x="1548" d="M762 2Q714 -7 673 -10T584 -14Q457 -14 367 23T218 129T133 299T106 524Q106 690 150 835T277 1087T476 1257T737 1319Q778 1319 841 1315T969 1294Q1017 1292 1061 1292T1151 1292Q1228 1292 1296 1292T1417 1294T1505 1295T1552 1296Q1573 1296 1573 1286Q1573 1277 1567 1262Q1562 1249 1555 1224T1540 1169T1524 1108T1508 1052T1497 1010T1491 993Q1483 993 1478 994T1473 1006Q1473 1041 1477 1068T1481 1116Q1481 1168 1462 1196T1405 1238T1308 1254T1169 1257Q1137 1257 1117 1256T1083 1248T1063 1229T1049 1194Q1045 1185 1041 1161T1030 1106L954 698Q1032 698 1084 698T1172 701T1230 707T1272 717Q1293 725 1310 748T1339 797Q1353 831 1359 843T1368 856Q1384 856 1384 846V840Q1370 791 1359 747T1339 658T1321 569T1305 473Q1303 465 1300 464T1292 463Q1284 463 1281 463T1278 469Q1278 491 1280 509T1282 543Q1282 579 1275 600T1252 632T1215 646T1165 651Q1110 653 1055 653T946 655Q925 544 910 463T883 324Q875 279 870 246T862 190T858 153T856 129Q856 101 864 85T897 61T967 51T1087 49Q1170 49 1224 67T1315 119T1375 198T1419 301Q1425 317 1432 317Q1438 317 1443 313T1448 303Q1448 295 1439 261T1417 182T1388 94T1360 23Q1355 12 1350 5T1335 -2Q1244 -2 1153 1T967 4Q914 4 864 4T762 2ZM717 1278Q642 1278 577 1251T456 1173T358 1052T285 894T239 707T223 498Q223 443 228 387T247 279T287 182T353 102T451 49T586 29Q618 29 649 36T702 61Q721 77 737 121T768 250L895 942Q909 1016 918 1072T928 1167Q928 1198 918 1219T884 1254T819 1272T717 1278Z"  />
<glyph unicode="&#x153;" horiz-adv-x="1110" d="M467 850Q432 850 398 822T333 747T275 638T228 506T197 364T186 225Q186 180 193 142T215 74T251 29T301 12Q343 12 380 41T450 118T507 231T551 365T578 506T588 641Q588 737 556 793T467 850ZM881 473Q856 464 834 458T786 447T727 439T647 434Q642 403 636 356T629 264Q629 225 634 190T654 127T693 84T754 68Q779 68 807 76T866 103T930 155T1001 236H1004Q1004 229 1007 226T1010 217Q1010 211 1008 207Q979 150 940 107T859 35T777 -8T705 -23Q675 -23 649 -13T602 18T567 74T549 156Q523 120 495 88T433 31T363 -8T285 -23Q189 -23 136 51T82 262Q82 388 114 501T201 700T328 836T481 887Q518 887 547 874T598 838T635 783T662 713Q684 750 714 781T778 836T848 872T918 885Q954 885 984 873T1035 840T1069 789T1081 723Q1081 682 1067 644T1027 574T964 516T881 473ZM895 850Q855 850 818 822T749 743T692 620T651 457Q696 462 731 469T795 487T845 511T889 543Q910 560 927 584T957 635T977 691T985 745Q985 792 961 821T895 850Z"  />
<glyph unicode="&#x160;" horiz-adv-x="821" d="M791 1264Q786 1244 781 1215T772 1153T764 1086T758 1022Q756 1010 755 1007T748 1004H737Q731 1004 730 1007T729 1018V1079Q729 1105 727 1132T717 1180Q707 1204 685 1221T637 1249T584 1265T537 1270Q495 1270 457 1255T388 1210T340 1135T322 1030Q322 970 336 927T375 849T431 782T498 709Q535 666 570 627T634 545T679 452T696 338Q696 249 671 182T599 69T490 0T350 -23Q320 -23 294 -21T240 -13T183 -1T115 16Q108 18 103 19T92 20Q87 20 81 18T70 16Q65 16 64 22T63 49Q63 79 66 117T73 195T82 269T92 328Q95 343 99 350T111 358Q120 358 123 356T127 346Q127 331 125 312T123 276Q123 219 139 173T184 94T256 45T352 27Q409 27 455 45T534 96T584 175T602 276Q602 337 590 380T555 460T500 531T430 610Q396 649 360 688T295 770T246 862T227 971Q227 1062 253 1127T326 1235T433 1297T565 1317Q605 1317 643 1311T723 1294Q732 1292 741 1290T762 1288Q768 1288 775 1290T788 1292Q795 1292 795 1286Q795 1281 794 1277T791 1264ZM430 1724Q456 1681 488 1634T550 1540Q553 1543 569 1558T609 1596T658 1643T707 1689T745 1725T763 1739Q770 1739 772 1735L776 1731Q782 1725 782 1720Q782 1714 777 1710T765 1700Q741 1673 714 1641T661 1576T611 1509T565 1446Q559 1437 551 1429T530 1421Q518 1421 511 1427T497 1458Q492 1482 479 1516T450 1585T421 1653T399 1708Q397 1714 396 1717T395 1724Q395 1729 401 1735T411 1741Q419 1741 430 1724Z"  />
<glyph unicode="&#x161;" horiz-adv-x="489" d="M408 768Q373 791 348 801T299 811Q276 811 256 800T220 770T195 728T186 680Q186 659 191 641T207 601T238 549T287 475Q335 406 360 357T385 264Q385 209 362 157T299 65T210 1T106 -23Q58 -23 28 -5T-2 59Q-2 75 5 93T33 111Q50 111 72 99T111 78Q129 69 143 65T170 58T192 56T211 55H213Q230 55 247 65T279 91T303 128T313 170Q313 190 309 211T294 259T262 321T211 406Q185 446 169 474T143 524T129 568T125 614Q125 661 147 709T206 796T287 860T377 885Q393 885 412 880T448 863T476 836T487 799Q487 777 476 766T449 754Q428 754 408 768ZM312 1300Q338 1257 370 1210T432 1116Q435 1119 451 1134T491 1172T540 1219T589 1265T627 1301T645 1315Q652 1315 654 1311L658 1307Q664 1301 664 1296Q664 1290 659 1286T647 1276Q623 1249 596 1217T543 1152T493 1085T447 1022Q441 1013 433 1005T412 997Q400 997 393 1003T379 1034Q374 1058 361 1092T332 1161T303 1229T281 1284Q279 1290 278 1293T277 1300Q277 1305 283 1311T293 1317Q301 1317 312 1300Z"  />
<glyph unicode="&#x178;" horiz-adv-x="905" d="M1100 1282Q1098 1270 1092 1268T1075 1266Q1060 1265 1046 1260T1011 1237T958 1182T874 1081Q834 1032 792 979T707 870T622 761T539 655Q530 643 525 632T517 608T513 583T508 555Q503 535 496 497T479 413T461 318T445 225T433 148T428 102Q428 76 435 62T459 41T503 32T569 27Q580 27 584 25T588 16Q588 7 585 2T563 -4Q556 -4 544 -3T508 -1T449 1T362 2Q305 2 248 0T135 -4Q126 -4 124 -3T121 4Q121 20 125 23T147 29Q196 32 227 37T277 58T308 102T330 182Q344 256 358 328T383 460T401 559T408 606Q408 615 405 626T397 653L262 1061Q237 1139 221 1180T188 1241T154 1264T106 1270H100Q90 1272 90 1278Q90 1303 98 1303Q101 1303 117 1302T158 1300T217 1297T289 1296Q335 1296 380 1296T469 1300Q478 1300 482 1299T487 1292Q487 1274 482 1271T465 1268H455Q423 1266 400 1264T363 1257T343 1241T336 1212Q336 1181 359 1098T426 889Q439 850 451 814T474 749T491 699T500 672Q508 684 526 709T561 756Q621 831 678 911T795 1069Q829 1115 850 1153T872 1217Q872 1241 848 1256T764 1272H748Q744 1272 743 1272T741 1278Q741 1303 752 1303Q758 1303 803 1300T936 1296Q972 1296 997 1296T1041 1298T1072 1299T1096 1300Q1102 1300 1102 1296Q1102 1293 1102 1290T1100 1282ZM483 1477Q473 1477 463 1483T443 1499T429 1520T423 1542Q423 1553 429 1566T445 1592T467 1612T491 1620Q503 1620 513 1613T532 1595T545 1572T550 1548Q550 1537 544 1525T528 1502T507 1484T483 1477ZM739 1477Q728 1477 718 1483T700 1499T687 1520T682 1542Q682 1554 687 1567T702 1592T723 1612T747 1620Q759 1620 769 1613T788 1595T801 1572T806 1548Q806 1537 800 1525T784 1502T763 1484T739 1477Z"  />
<glyph unicode="&#x17D;" horiz-adv-x="922" d="M965 1233Q943 1205 837 1056T541 647L102 45Q237 46 337 48T508 56T625 70T696 94Q731 114 767 173T838 324Q841 333 844 335T850 338Q859 338 862 335T866 328Q866 325 866 320T862 301Q857 282 849 252T829 186T805 111T776 33Q764 1 760 -6T752 -14Q745 -14 735 -10T707 -4Q626 -1 542 1T373 4Q263 4 162 2T-16 -6Q-30 -6 -33 -5T-37 4V14Q-37 24 -12 57T51 139Q102 210 146 270T237 393T335 527T457 690Q518 774 566 842T659 974T750 1105T852 1249Q844 1249 833 1249T812 1248Q801 1247 788 1247Q690 1245 619 1243T497 1239T413 1234T359 1226T325 1215T303 1200Q290 1188 279 1175T259 1143T239 1101T217 1044L207 1016Q202 1003 200 1001T195 999Q190 999 186 1001Q177 1006 175 1008T172 1016Q172 1014 177 1033T191 1084T210 1155T231 1231Q240 1261 245 1277T253 1302T259 1311T264 1313Q267 1313 269 1313T279 1309Q286 1304 309 1301T364 1297T432 1295T500 1294Q596 1294 684 1295T840 1299T950 1303T995 1305Q998 1305 1001 1304T1004 1300Q1004 1295 1003 1290T997 1278T986 1261T965 1233ZM490 1724Q516 1681 548 1634T610 1540Q613 1543 629 1558T669 1596T718 1643T767 1689T805 1725T823 1739Q830 1739 832 1735L836 1731Q842 1725 842 1720Q842 1714 837 1710T825 1700Q801 1673 774 1641T721 1576T671 1509T625 1446Q619 1437 611 1429T590 1421Q578 1421 571 1427T557 1458Q552 1482 539 1516T510 1585T481 1653T459 1708Q457 1714 456 1717T455 1724Q455 1729 461 1735T471 1741Q479 1741 490 1724Z"  />
<glyph unicode="&#x17E;" horiz-adv-x="772" d="M571 -96Q539 -96 509 -84T446 -50T377 6T295 82Q266 111 244 120T201 129Q170 129 148 110T115 53Q110 35 100 19T70 2Q50 2 41 16T31 57Q32 84 43 105T71 144T109 173T152 193Q206 268 253 331T345 453T431 565T518 676Q527 687 540 703T567 739Q539 741 513 744T455 752Q410 757 362 765T270 774Q249 774 236 773T215 768T200 758T188 743Q182 735 175 722T162 692Q156 677 151 663T143 641Q138 625 129 625Q121 625 116 630T111 637Q111 640 111 645T115 662T123 692T137 737Q146 766 152 784T163 812T169 828T174 840Q186 863 202 873T246 883Q258 883 270 881T305 874Q317 872 333 870T371 864T424 853T494 838Q544 827 573 824T625 817Q631 826 639 837T657 858Q665 866 675 872T700 879Q716 879 724 867T733 838Q733 823 727 807T706 776T668 750T610 735Q544 649 479 560T346 383Q311 337 280 295T209 199H227Q264 199 294 191T352 167T403 131T453 84Q471 67 488 49T526 10Q541 -5 553 -15T578 -32T602 -40T631 -43Q649 -43 663 -32T678 -4Q678 5 677 10T670 25Q664 36 662 42T659 59Q659 73 668 88T698 104Q726 104 743 87T760 41Q760 15 745 -10T705 -54T645 -84T571 -96ZM373 1300Q399 1257 431 1210T493 1116Q496 1119 512 1134T552 1172T601 1219T650 1265T688 1301T706 1315Q713 1315 715 1311L719 1307Q725 1301 725 1296Q725 1290 720 1286T708 1276Q684 1249 657 1217T604 1152T554 1085T508 1022Q502 1013 494 1005T473 997Q461 997 454 1003T440 1034Q435 1058 422 1092T393 1161T364 1229T342 1284Q340 1290 339 1293T338 1300Q338 1305 344 1311T354 1317Q362 1317 373 1300Z"  />
<glyph unicode="&#x192;" horiz-adv-x="850" d="M901 1143Q886 1143 879 1155T866 1186Q857 1220 837 1233T786 1247Q726 1247 687 1215T623 1131T584 1018T557 895Q549 851 542 808T526 707H719Q724 707 726 706T729 700V696L721 657Q719 649 717 647T709 645L516 647L473 397Q466 354 458 295T438 168T412 29T377 -111T331 -240T272 -347T196 -419T100 -446Q52 -446 33 -428T14 -387Q14 -365 27 -348Q47 -319 66 -319Q82 -319 100 -340Q122 -360 134 -365T164 -371Q195 -371 216 -348T256 -267T292 -113T334 127L418 647H315Q305 647 305 651Q305 655 307 659L311 676Q313 682 313 683T319 686Q332 688 343 690T367 695T395 701T430 709Q446 804 462 882T502 1024T558 1141T639 1239Q677 1274 724 1295T829 1317Q860 1317 885 1308T927 1284T954 1248T963 1204Q961 1176 946 1160T901 1143Z"  />
<glyph unicode="&#x2C6;" horiz-adv-x="1022" d="M815 1014Q789 1057 756 1104T694 1198Q692 1195 676 1180T636 1142T586 1095T537 1049T498 1013T481 999Q475 999 473 1004L469 1008Q463 1014 463 1018Q463 1024 468 1028T479 1038Q504 1065 530 1097T583 1162T634 1229T680 1292Q686 1302 694 1309T715 1317Q727 1317 734 1311T748 1280Q753 1256 766 1223T794 1154T823 1086T846 1030Q848 1024 849 1021T850 1014Q850 1009 844 1003T834 997Q825 997 815 1014Z"  />
<glyph unicode="&#x2C7;" horiz-adv-x="1022" d="M539 1300Q565 1257 597 1210T659 1116Q662 1119 678 1134T718 1172T767 1219T816 1265T854 1301T872 1315Q879 1315 881 1311L885 1307Q891 1301 891 1296Q891 1290 886 1286T874 1276Q850 1249 823 1217T770 1152T720 1085T674 1022Q668 1013 660 1005T639 997Q627 997 620 1003T606 1034Q601 1058 588 1092T559 1161T530 1229T508 1284Q506 1290 505 1293T504 1300Q504 1305 510 1311T520 1317Q528 1317 539 1300Z"  />
<glyph unicode="&#x2DA;" horiz-adv-x="1022" d="M651 997Q585 997 546 1033T506 1133Q506 1167 520 1195T558 1243T615 1273T686 1284Q725 1284 753 1273T798 1243T823 1200T831 1149Q831 1121 820 1094T786 1046T730 1011T651 997ZM680 1249Q637 1249 611 1215T584 1128Q584 1034 657 1034Q698 1034 725 1063T752 1149Q752 1195 735 1222T680 1249Z"  />
<glyph unicode="&#x2DC;" horiz-adv-x="1022" d="M592 1231Q602 1231 610 1229T630 1221T656 1202T696 1167Q727 1138 745 1130T782 1122Q800 1122 817 1131T848 1155T874 1184T895 1212Q901 1222 902 1224T907 1227Q912 1227 920 1219T928 1206Q928 1204 924 1196Q909 1174 890 1145T847 1091T798 1048T748 1030Q729 1030 707 1045T659 1081Q637 1099 622 1110T597 1127T578 1135T561 1137Q543 1137 527 1129T496 1107T471 1080T451 1053Q447 1048 444 1043T438 1038Q433 1038 426 1046T418 1059Q418 1061 422 1069Q450 1112 473 1143T517 1193T555 1222T592 1231Z"  />
<glyph unicode="&#x2013;" horiz-adv-x="1004" d="M928 451H68L84 512H942L928 451Z"  />
<glyph unicode="&#x2014;" horiz-adv-x="2007" d="M1931 451H68L84 512H1946L1931 451Z"  />
<glyph unicode="&#x2018;" horiz-adv-x="391" d="M526 1372Q464 1359 412 1339T322 1289T262 1222T240 1133Q240 1110 245 1094T258 1066T277 1046T299 1030Q308 1025 318 1021T336 1008Q352 997 352 975Q352 966 345 956T328 936T307 921T285 915Q267 915 246 928T208 964T180 1020T168 1092Q168 1171 201 1224T281 1312T381 1363T473 1389Q482 1391 492 1393T508 1395Q513 1395 514 1393T518 1386L526 1372Z"  />
<glyph unicode="&#x2019;" horiz-adv-x="391" d="M76 938Q137 951 189 971T279 1021T340 1089T362 1178Q362 1207 354 1225T333 1255T306 1275T279 1291T259 1309T250 1337Q250 1346 257 1356T274 1374T295 1389T317 1395Q335 1395 355 1381T393 1343T422 1284T434 1210Q434 1151 411 1104T345 1020T245 958T119 920Q109 918 101 917T90 915Q86 915 84 920L76 938Z"  />
<glyph unicode="&#x201A;" horiz-adv-x="391" d="M-145 -317Q-85 -304 -33 -285T59 -237T120 -171T143 -84Q143 -52 135 -32T114 0T86 19T59 34T38 52T29 80Q29 88 35 98T52 118T73 133T96 139Q114 139 134 126T172 90T201 34T213 -37Q213 -99 191 -147T127 -233T27 -295T-106 -336Q-116 -338 -122 -339T-131 -340Q-135 -340 -137 -336L-145 -317Z"  />
<glyph unicode="&#x201C;" horiz-adv-x="721" d="M532 1372Q472 1359 420 1339T329 1290T268 1223T246 1135Q246 1089 263 1068T302 1034T340 1011T358 975Q358 966 352 956T335 936T313 921T291 915Q273 915 253 928T215 964T186 1020T174 1092Q174 1152 197 1202T261 1291T360 1354T489 1391Q499 1393 505 1394T516 1395Q520 1395 522 1391L532 1372ZM852 1372Q791 1359 739 1339T648 1289T587 1222T565 1133Q565 1088 583 1067T622 1033T662 1010T680 975Q680 966 673 956T656 936T633 921T610 915Q592 915 572 928T535 964T506 1020T494 1092Q494 1152 517 1202T581 1291T680 1354T809 1391Q818 1393 825 1394T838 1395Q842 1395 844 1391L852 1372Z"  />
<glyph unicode="&#x201D;" horiz-adv-x="721" d="M401 938Q462 951 514 971T605 1019T666 1086T688 1174Q688 1205 680 1224T659 1256T632 1276T605 1290T584 1308T575 1335Q575 1344 581 1354T598 1374T620 1389T643 1395Q661 1395 681 1382T719 1346T748 1290T760 1219Q760 1157 738 1109T673 1024T572 961T440 920Q431 918 425 917T416 915Q412 915 412 920L401 938ZM80 938Q141 951 193 971T284 1021T345 1089T367 1178Q367 1209 359 1228T338 1259T311 1277T284 1291T263 1308T254 1335Q254 1344 260 1354T277 1374T299 1389T322 1395Q340 1395 360 1382T397 1346T426 1290T438 1219Q438 1157 416 1108T352 1022T251 960T119 920Q109 918 103 917T94 915Q90 915 88 920L80 938Z"  />
<glyph unicode="&#x201E;" horiz-adv-x="721" d="M184 -317Q245 -304 297 -284T388 -236T449 -169T471 -82Q471 -50 463 -31T442 1T415 21T388 36T367 53T358 80Q358 88 364 98T381 118T403 133T426 139Q444 139 464 126T502 90T531 34T543 -37Q543 -155 462 -231T223 -336Q209 -339 206 -339T199 -340Q195 -340 195 -336L184 -317ZM-145 -317Q-85 -304 -33 -284T58 -235T119 -167T141 -78Q141 -47 133 -28T112 3T85 22T58 36T38 52T29 80Q29 88 35 98T52 118T73 133T96 139Q114 139 134 126T172 90T201 34T213 -37Q213 -96 195 -142T139 -225T40 -288T-106 -336Q-116 -338 -122 -339T-131 -340Q-135 -340 -137 -336L-145 -317Z"  />
<glyph unicode="&#x2020;" horiz-adv-x="850" d="M836 678Q816 669 804 662T782 655Q774 655 768 658T750 668Q726 682 696 688T632 698T567 702T508 705Q503 684 498 656T488 596T480 528T477 459Q477 428 480 399T492 344Q492 341 493 339T494 334Q494 326 490 322T483 309Q464 272 445 207T406 64T370 -101T337 -266T311 -412T293 -518Q290 -535 285 -546T266 -557Q252 -557 247 -553T242 -537Q242 -532 243 -526T246 -512Q252 -481 260 -435T278 -334T298 -216T319 -90Q322 -72 329 -30T343 65T355 173T360 272Q360 286 357 303T354 328Q354 339 358 345T367 360Q388 397 404 444T431 538T451 629T467 702Q438 701 405 701T336 700T267 692T203 672Q195 667 186 661T166 655Q154 655 144 663T126 681T114 702T109 717Q109 722 117 733T137 756T163 777T190 786Q198 786 207 783T223 774Q245 759 303 750T436 741H477Q486 789 492 828T504 904T511 976T514 1051Q514 1085 509 1115T504 1174Q504 1188 514 1209T538 1251T569 1285T598 1300Q608 1300 617 1287T634 1256T645 1222T649 1198Q649 1189 647 1181T639 1163Q621 1131 605 1087T574 988T546 872T518 741Q539 742 571 742T637 744T703 750T756 764Q774 772 785 778T807 784Q813 784 824 777T846 761T866 740T874 721Q874 694 836 678Z"  />
<glyph unicode="&#x2021;" horiz-adv-x="850" d="M813 688Q782 668 766 668Q760 668 755 670T741 676Q714 689 682 697T616 709T547 716T483 719Q479 700 475 673T468 615T462 549T459 483Q459 454 464 429T469 381Q469 375 461 354T442 313Q430 284 420 258T401 203T384 137T367 51Q378 49 389 49T414 49Q442 49 474 51T538 57T595 68T639 84Q647 89 652 92T664 96Q668 96 678 90T698 74T717 52T725 29Q725 18 715 6T692 -16T665 -32T645 -39Q637 -39 628 -36T606 -23Q585 -10 557 -4T497 6T430 9T360 12Q346 -59 333 -147T319 -328Q319 -344 320 -362T322 -396T325 -428T326 -453Q326 -461 318 -478T298 -511T269 -540T238 -553Q228 -553 219 -542T203 -515T192 -485T188 -463Q188 -449 194 -434T209 -399Q230 -351 246 -305T274 -210T296 -107T317 12Q228 12 159 8T45 -20Q36 -25 29 -29T10 -33Q2 -33 -4 -28T-16 -16L-33 0Q-47 14 -47 31Q-47 38 -40 49T-21 71T5 90T31 98Q39 98 46 94T59 86Q79 75 102 68T156 58T228 53T326 51Q334 88 341 146T348 264Q348 298 342 331T336 377Q336 383 339 387T348 403Q369 444 383 485T408 566T427 644T444 719Q384 717 338 715T257 707T197 695T150 676Q145 674 139 671T127 668Q119 668 111 676T95 696T83 718T78 733Q78 740 85 751T102 773T125 791T147 799Q155 799 162 796T176 788Q193 781 215 776T270 766T347 758T453 754Q467 823 477 906T487 1077Q487 1106 484 1136T481 1196Q481 1208 489 1225T509 1259T536 1288T563 1300Q575 1300 584 1289T601 1262T612 1231T616 1210Q616 1201 614 1192T606 1171Q577 1108 559 1051T529 942T509 843T492 754Q516 754 554 755T632 759T708 768T764 786Q777 795 788 795Q797 795 807 788T825 771T840 750T846 731Q846 717 838 708T813 688Z"  />
<glyph unicode="&#x2022;" horiz-adv-x="1024" d="M565 885Q610 885 650 867T721 818T768 746T786 659Q786 612 769 572T721 500T649 452T561 434Q516 434 476 451T405 500T356 571T338 659Q338 707 355 748T404 819T476 867T565 885Z"  />
<glyph unicode="&#x2026;" horiz-adv-x="1106" d="M119 -20Q106 -20 93 -13T68 6T50 31T43 57Q43 72 51 86T71 112T98 131T127 139Q140 139 153 132T178 113T196 88T203 61Q202 47 194 33T174 7T148 -12T119 -20ZM487 -20Q474 -20 461 -13T437 5T419 30T412 57Q412 72 420 86T440 112T467 131T496 139Q509 139 522 132T546 113T564 88T571 61Q570 47 562 33T542 7T516 -12T487 -20ZM858 -20Q845 -20 832 -13T807 5T789 30T782 57Q782 72 790 86T810 112T837 131T866 139Q879 139 892 132T917 113T935 88T942 61Q941 47 933 33T913 7T887 -12T858 -20Z"  />
<glyph unicode="&#x2030;" horiz-adv-x="1808" d="M885 -14Q834 -14 798 9T739 70T705 152T694 240Q694 282 702 331T728 430T770 524T829 605T905 661T999 682Q1051 682 1088 662T1150 607T1186 530T1198 440Q1198 398 1189 348T1162 248T1118 150T1056 67T978 8T885 -14ZM240 -53Q233 -53 225 -49T209 -37T198 -22T193 -8Q193 3 203 15T219 35Q314 162 404 292T582 555T756 820T930 1087Q879 1064 828 1048T719 1032Q663 1032 606 1049V1016Q606 973 598 923T574 823T533 725T475 642T398 583T303 561Q250 561 214 584T156 645T125 728T115 819Q115 862 123 911T149 1008T192 1100T252 1177T329 1231T424 1251Q487 1251 530 1217T594 1124Q626 1098 664 1090T743 1081Q765 1081 799 1087T867 1105T932 1133T977 1167Q985 1178 998 1199T1025 1242T1054 1280T1081 1296Q1098 1296 1110 1284T1122 1255Q1122 1234 1113 1219T1091 1193T1063 1171T1036 1147L969 1053Q918 978 868 906T768 760Q681 632 600 503T434 244Q396 182 356 122T276 -2Q273 -7 270 -15T262 -32T252 -46T240 -53ZM1008 629Q969 629 938 605T883 543T842 458T813 362T797 271T791 199Q791 175 796 147T814 93T846 52T897 35Q937 35 969 59T1026 121T1069 208T1099 306T1116 399T1122 475Q1122 501 1116 528T1095 578T1060 615T1008 629ZM532 1090Q509 1114 498 1135T477 1188Q455 1202 426 1202Q388 1202 357 1178T301 1116T260 1029T231 934T215 843T209 772Q209 745 215 717T234 666T268 629T322 614Q358 614 387 636T441 693T483 773T513 861T531 946T537 1014Q537 1032 537 1051T532 1090ZM1462 -14Q1411 -14 1375 9T1316 70T1283 152T1272 240Q1272 282 1280 331T1305 430T1347 524T1407 605T1483 661T1577 682Q1628 682 1665 662T1727 607T1764 530T1776 440Q1776 398 1767 348T1740 248T1696 150T1634 67T1556 8T1462 -14ZM1585 629Q1547 629 1516 605T1461 543T1420 458T1391 362T1374 271T1368 199Q1368 175 1373 147T1391 93T1424 52T1475 35Q1515 35 1547 59T1604 121T1647 208T1677 306T1694 399T1700 475Q1700 501 1694 528T1673 578T1637 615T1585 629Z"  />
<glyph unicode="&#x2039;" horiz-adv-x="518" d="M186 473Q205 437 225 396T266 312T304 228T338 150Q343 139 345 133T348 121Q348 114 340 111L324 102L315 98Q311 98 299 117Q268 165 240 205T182 285T119 364T45 453Q43 456 40 459T37 467Q37 473 47 481Q113 531 161 571T254 650T345 733T453 834Q458 839 463 842T471 846Q474 846 477 844T487 836Q494 831 497 829T500 823Q500 820 499 818T494 811Q444 753 407 710T335 629T266 555T186 473Z"  />
<glyph unicode="&#x203A;" horiz-adv-x="518" d="M319 471Q300 507 280 548T240 632T202 717T168 795Q163 806 161 812T158 823Q158 830 166 834L182 842L190 846Q195 846 207 827Q238 779 266 739T324 660T387 581T461 492Q463 488 466 485T469 477Q469 474 467 471T459 463Q393 413 345 373T252 294T161 211T53 111Q48 106 43 102T35 98Q32 98 29 101T18 109Q12 114 9 116T6 121Q6 124 7 126T12 133Q61 191 98 234T170 315T240 389T319 471Z"  />
<glyph unicode="&#x2044;" horiz-adv-x="283" d="M-276 -35Q-164 142 -59 311T149 649T353 985T557 1327H639Q564 1209 504 1113T392 936T297 784T210 645T125 505T32 354T-74 178T-201 -35H-276Z"  />
<glyph unicode="&#x2074;" horiz-adv-x="594" d="M676 1067Q673 1059 668 1058T653 1057H543L502 838Q492 836 478 835T446 834Q438 834 431 834T416 836L461 1057Q386 1057 312 1057T160 1055Q147 1055 142 1056T137 1067Q137 1081 141 1091T156 1116L604 1626Q610 1634 616 1637T625 1640Q628 1640 631 1640T637 1636L645 1630Q651 1625 654 1623T657 1614Q657 1608 656 1603T653 1589Q639 1538 626 1472T598 1327L557 1120H694L676 1067ZM473 1120L553 1516L207 1118L473 1120Z"  />
<glyph unicode="&#x20AC;" horiz-adv-x="850" d="M299 512Q294 467 293 423T291 330Q291 265 299 210T325 115T373 52T446 29Q494 29 540 39T627 76T702 144T760 252Q763 266 770 266Q772 266 780 262Q788 259 788 252Q788 249 788 247T786 240Q771 192 757 143T731 45Q729 37 723 34T709 27L702 25Q633 3 569 -8T438 -20Q309 -20 247 73T184 365Q184 403 184 440T188 512H92Q86 512 86 518Q86 519 86 526T92 563Q92 566 94 566T98 567H195Q200 614 207 656T223 741H127Q119 741 119 745Q120 749 122 755Q124 760 125 768T129 788Q132 797 139 797H236Q269 920 318 1016T425 1179T547 1280T674 1315Q708 1315 745 1307T834 1288Q849 1285 861 1283T877 1280Q883 1280 887 1282T897 1288Q901 1290 909 1290Q920 1288 920 1282Q920 1279 918 1270T911 1248T904 1223T899 1198Q894 1180 892 1161T887 1124L866 995Q864 990 863 987T856 983Q844 983 841 986T838 997V1036Q838 1079 835 1107T825 1154T808 1188T786 1217Q772 1233 741 1249T672 1266Q626 1266 579 1233T489 1140T409 992T344 797H696Q703 797 706 797T709 791L700 750Q698 743 697 742T690 741H332Q322 699 316 656T303 567H606Q611 567 614 566T618 561Q618 559 616 546T612 522Q610 516 608 514T600 512H299Z"  />
<glyph unicode="&#x2122;" horiz-adv-x="1653" d="M537 664Q501 666 466 667T393 668Q364 668 337 667T287 665T251 663T233 662Q227 662 227 668Q229 674 230 682T244 690Q270 691 288 693T319 704T341 727T358 770Q361 782 369 816T388 893T409 980T428 1059L469 1241H420Q372 1241 341 1239T288 1228T253 1204T223 1161Q220 1155 216 1149T205 1143Q202 1143 195 1144T188 1153Q188 1160 194 1176T208 1212T227 1253T246 1292Q249 1297 252 1297T266 1298Q268 1298 271 1297T277 1293Q281 1290 285 1288Q290 1286 307 1286T351 1285T412 1284T485 1284Q559 1284 612 1284T703 1285T764 1287T802 1289T823 1293T834 1298Q836 1300 840 1300Q848 1300 848 1296Q845 1284 836 1259T815 1208T793 1163T774 1143Q763 1143 760 1144T756 1151Q756 1163 759 1177T762 1202Q762 1227 738 1234T649 1241H569L477 825Q471 796 467 776T463 739Q463 710 477 699T537 688Q559 688 559 684Q559 679 557 672T547 664H537ZM1591 676Q1589 667 1587 666T1579 664Q1554 664 1532 666T1487 668Q1440 668 1393 667T1311 666H1305Q1298 666 1297 667T1296 674Q1296 690 1313 690Q1350 690 1369 694T1399 713Q1408 725 1419 765T1444 866T1473 1003T1505 1161Q1441 1070 1395 1004T1317 891T1263 813T1227 760T1202 723T1182 692Q1180 687 1172 684T1154 678T1136 674T1126 672Q1124 672 1123 681T1118 702Q1110 755 1099 808T1075 917T1045 1030T1010 1153Q986 1055 969 986T942 869T927 790T922 739Q922 705 939 697T997 688H1001Q1010 688 1010 684Q1010 679 1008 673T997 666Q970 666 942 667T885 668Q850 668 813 666T737 664Q729 664 729 668Q729 673 733 681T743 690Q770 691 788 695T820 711T843 743T864 797Q889 869 917 965T973 1186Q975 1194 976 1201T977 1217Q977 1261 930 1264Q913 1266 900 1266T887 1270Q887 1272 888 1274T889 1282Q891 1288 893 1291T905 1294Q928 1292 951 1292T997 1292Q1014 1292 1031 1292T1067 1294Q1081 1294 1084 1293T1087 1280Q1087 1270 1092 1242T1107 1173T1127 1083T1151 984T1176 886T1200 799Q1261 878 1311 946T1403 1074T1477 1186T1538 1286Q1540 1291 1542 1291T1550 1292Q1629 1292 1668 1293T1712 1294Q1720 1294 1720 1290Q1720 1287 1719 1278T1710 1268Q1687 1268 1671 1266T1642 1254T1622 1225T1606 1174Q1601 1150 1594 1114T1578 1036T1561 951T1545 870T1533 804T1526 764Q1524 753 1523 745T1522 731Q1522 708 1535 701T1587 690Q1593 690 1593 684L1591 676Z"  />

</font>
</defs>
</svg>
