<?xml  version="1.0" encoding="UTF-8"?>
<!DOCTYPE svg PUBLIC "-//W3C//DTD SVG 1.0//EN" "http://www.w3.org/TR/2001/REC-SVG-20010904/DTD/svg10.dtd" >
<svg xmlns="http://www.w3.org/2000/svg" >
<metadata>
<version>1.0</version>
<id><![CDATA[Legacy Serif ITC W01 XLt Cn It]]></id>
<vendor>Monotype Imaging Inc.</vendor>
<credits>
<name>Fonts.com WebFonts</name>
<URL>http://webfonts.fonts.com</URL>
<role>Home of the Web fonts</role>
</credits>
<license>
<URL>http://webfonts.fonts.com/Legal</URL>
</license>
<copyright><![CDATA[Copyright 2009 International Typeface Corporation. All rights reserved.]]></copyright>
<trademark><![CDATA[ITC Legacy is a trademark of International Typeface Corporation registered in the U.S. Patent & Trademark Office and may be registered in certain jurisdictions.]]></trademark>
<licensee>
<name></name>
</licensee>
</metadata>
<defs >
<font horiz-adv-x="844" id="de8b6d35-2d2d-4080-ada1-14b852909976">
<font-face font-family="" panose-1="2 2 3 6 6 4 8 9 3 3" ascent="1749" descent="-559" units-per-em="2048" alphabetic="0">
</font-face>
<missing-glyph horiz-adv-x="0" />

<glyph unicode="&#xA;" />
<glyph unicode="&#xD;" horiz-adv-x="0" />
<glyph unicode=" " horiz-adv-x="344" />
<glyph unicode="!" horiz-adv-x="516" d="M209 297Q209 301 210 303Q210 305 211 307Q245 468 267 613T307 881T338 1103T367 1272Q371 1291 375 1303T388 1321T410 1330T446 1333Q463 1333 470 1327T477 1305Q477 1300 477 1295T475 1282Q457 1174 431 1070T373 852T307 605T242 309Q239 292 236 282T219 272Q211 272 209 273T207 279Q207 282 207 286T209 297ZM170 -20Q158 -20 146 -14T125 3T109 26T102 49Q103 61 110 74T129 98T153 116T178 123Q189 123 201 116T223 99T239 76T246 53Q246 42 238 29T219 5T194 -13T170 -20Z"  />
<glyph unicode="&quot;" horiz-adv-x="840" d="M694 1038Q674 988 656 939T618 823Q616 817 613 807T606 797Q588 797 588 803Q588 811 589 814T590 821Q607 886 616 952T635 1087Q643 1150 648 1193T659 1262Q665 1283 670 1295T683 1312T702 1319T729 1321Q746 1321 762 1315T778 1292Q778 1284 776 1277T772 1262Q758 1200 738 1148T694 1038ZM393 1038Q373 988 355 939T317 823Q315 817 312 807T305 797Q287 797 287 803Q287 811 288 814T289 821Q306 886 315 952T334 1087Q342 1150 347 1193T358 1262Q364 1283 369 1295T382 1312T401 1319T428 1321Q445 1321 461 1315T477 1292Q477 1284 475 1277T471 1262Q457 1200 437 1148T393 1038Z"  />
<glyph unicode="#" horiz-adv-x="840" d="M326 821L256 506H520L588 821H326ZM844 899Q848 899 848 895Q848 893 848 891T846 883L829 827Q826 819 823 819L633 821L565 506L760 510Q764 510 764 506Q764 504 764 502T762 494L745 438Q742 430 739 430L549 432L457 0H410L502 432H240L150 0H100L195 432L2 428Q-2 428 -2 432Q-2 434 -2 436T0 444L16 500Q19 508 23 508L213 506L281 821L86 817Q82 817 82 821Q82 823 82 826T84 834L100 889Q103 897 106 897L297 895L383 1298H430L342 895H604L690 1298H737L649 895L844 899Z"  />
<glyph unicode="$" horiz-adv-x="840" d="M602 1432L567 1264Q588 1260 603 1257T630 1250T653 1242T680 1231Q684 1229 692 1229Q697 1229 709 1237Q717 1245 725 1245H729Q735 1245 736 1244T737 1239Q737 1236 735 1224T733 1210Q728 1181 725 1155T720 1108T716 1074T715 1057Q715 1044 714 1029T711 1006Q711 1003 711 1002T710 998Q709 996 709 995Q707 993 705 993T700 993Q694 993 693 995T692 1006Q692 1008 692 1013T691 1024Q690 1030 690 1038Q690 1077 687 1108T670 1163T630 1201T559 1225L459 684Q520 616 559 566T621 474T653 397T662 324Q662 250 642 190T582 88T481 23T340 0H328L291 -205Q288 -215 287 -215L248 -213L291 2Q231 7 186 19T121 41Q116 43 112 44T104 45Q101 45 98 44T92 43Q87 40 85 38T78 35Q72 35 70 36T68 49V66Q69 90 71 121T76 185T82 249T88 303Q89 315 90 320T91 329T92 334T94 340Q94 346 102 346Q107 346 110 346T113 340Q113 328 112 315T111 291Q111 223 118 177T145 103T201 59T297 37L406 616Q353 672 316 714T255 794T222 867T211 948Q211 1018 233 1076T295 1177T389 1242T508 1266H532L561 1425Q561 1427 562 1429T565 1432H602ZM287 975Q287 943 293 915T316 858T360 795T428 715L524 1227Q457 1227 412 1208T339 1155T299 1075T287 975ZM334 33Q402 35 450 54T528 109T572 194T586 307Q586 338 579 368T555 432T510 505T438 592L334 33Z"  />
<glyph unicode="%" horiz-adv-x="1149" d="M815 -20Q776 -20 744 -1T690 54T655 137T643 244Q643 332 667 410T731 548T822 641T928 676Q968 676 999 659T1051 610T1084 534T1096 436Q1096 342 1072 259T1008 114T918 16T815 -20ZM973 1155Q887 1026 816 917T682 711T563 527T453 354T345 181T231 -4Q220 -23 212 -40T190 -57Q178 -57 168 -44T158 -25Q158 -15 166 -6T186 20Q251 117 308 204T420 373T526 538T635 707T752 890T883 1096Q838 1068 783 1050T670 1032Q639 1032 609 1038T551 1057V1026Q551 1010 551 993T549 960T548 935T547 924Q534 848 508 781T445 663T365 583T270 553Q189 553 147 620T104 807Q104 900 127 980T191 1119T282 1211T391 1245Q445 1245 487 1214T543 1120Q558 1104 577 1095T618 1080T659 1073T696 1071Q759 1071 814 1095T920 1157Q929 1173 940 1195T963 1236T989 1270T1014 1284Q1023 1284 1033 1276T1044 1249Q1044 1231 1029 1208T973 1155ZM934 637Q902 637 874 617T821 562T777 482T744 387T723 286T715 190Q715 153 722 121T742 65T776 28T821 14Q854 14 883 34T938 89T984 170T1019 266T1041 369T1049 469Q1049 503 1041 534T1018 587T982 623T934 637ZM504 1098Q490 1114 482 1124T468 1144T459 1164T451 1192Q434 1204 421 1206T395 1208Q352 1208 313 1169T243 1065T194 922T176 762Q176 687 203 642T283 596Q326 596 366 635T438 737T487 878T506 1036Q506 1050 506 1064T504 1098Z"  />
<glyph unicode="&amp;" horiz-adv-x="1583" d="M1511 731Q1503 731 1497 732T1482 738T1462 751T1432 772Q1397 798 1367 823T1305 870Q1274 890 1241 905T1165 926Q1187 902 1201 874T1223 816T1234 757T1237 700Q1237 608 1215 518T1151 348T1050 200T918 83T759 5T578 -23Q486 -23 410 13T278 113T193 266T162 461Q162 508 171 565T200 680T246 792T310 889T390 957T487 983Q516 983 537 972T573 943T595 902T602 854Q602 845 601 837T598 819L594 803Q663 882 706 938T773 1036T806 1109T815 1167Q815 1185 809 1206Q806 1220 806 1228T805 1243Q807 1265 820 1280T852 1296Q866 1296 874 1287T887 1264T893 1237T895 1214Q895 1180 876 1137T824 1043T747 938T651 827Q599 769 544 712T438 604T342 508T266 432L229 391Q270 230 365 146T594 61Q734 61 846 116T1038 264T1161 477T1204 725Q1204 768 1196 806T1170 873T1128 919T1071 936H1065Q1051 935 1030 931T985 916T937 890T894 850T862 794T850 721Q850 702 862 689T903 668Q917 665 924 654T932 627Q932 602 917 586T879 569Q854 569 834 595T813 668Q813 738 838 799T908 905T1011 977T1139 1004Q1177 1004 1212 994T1282 966T1353 921T1432 862Q1459 841 1481 829T1520 815Q1534 815 1540 825T1550 852Q1553 867 1553 884T1554 918Q1554 950 1547 968T1522 995Q1497 1008 1493 1014T1489 1032Q1489 1048 1499 1059T1524 1071Q1534 1071 1543 1067T1560 1050T1571 1016T1575 958Q1575 893 1571 849T1558 779T1538 742T1511 731ZM436 909Q394 909 361 888T303 834T261 758T232 672T216 588T211 518Q211 492 213 466T221 420L436 647Q455 666 472 684T502 723Q524 754 524 793Q524 850 499 879T436 909Z"  />
<glyph unicode="&apos;" horiz-adv-x="653" d="M465 1038Q445 988 427 939T389 823Q387 817 384 807T377 797Q358 797 358 803Q358 811 359 814T360 821Q377 886 386 952T406 1087Q414 1150 419 1193T430 1262Q435 1283 440 1295T454 1312T473 1319T500 1321Q517 1321 533 1315T549 1292Q549 1284 547 1277T543 1262Q529 1200 509 1148T465 1038Z"  />
<glyph unicode="(" horiz-adv-x="625" d="M344 -498Q345 -499 345 -500T347 -502Q348 -503 348 -504Q348 -509 342 -513T332 -518Q326 -518 314 -496T276 -428Q198 -279 160 -118T121 217Q121 388 158 554T270 881Q298 943 336 1007T420 1134T515 1254T618 1360Q638 1378 648 1388T664 1399Q666 1399 671 1391T676 1378L674 1376Q621 1321 567 1253T464 1107T371 946T295 778Q244 641 217 485T190 164Q190 -36 230 -199T344 -498Z"  />
<glyph unicode=")" horiz-adv-x="625" d="M285 1384Q285 1389 290 1394T299 1399Q305 1399 318 1377T354 1309Q512 1013 512 664Q512 492 475 327T362 0Q333 -62 295 -126T211 -253T116 -373T14 -479Q-27 -518 -31 -518Q-34 -518 -39 -512T-45 -500Q9 -443 63 -374T167 -227T260 -66T336 102Q387 240 414 396T442 717Q442 817 432 906T401 1078T353 1234T289 1376L285 1384Z"  />
<glyph unicode="*" horiz-adv-x="840" d="M557 961L702 762Q704 760 711 754T725 739T739 721T745 702Q745 695 740 687T725 671T703 658T678 653Q671 653 664 662T651 684T641 707T635 721L532 950L424 690Q415 662 406 656T389 649Q377 649 365 654T344 667T328 683T322 696Q322 709 334 721T354 743Q355 745 359 750T379 778T425 843T510 963L260 932Q259 932 253 931T238 928T220 925T205 924Q191 924 182 934T172 971Q172 1002 180 1011T199 1020Q203 1020 213 1019T233 1015T252 1012T262 1010L512 987L360 1188Q352 1197 345 1205T330 1223Q324 1232 321 1237T317 1247Q317 1254 322 1263T337 1279T359 1292T385 1298Q391 1298 395 1296Q398 1293 403 1285T416 1255Q418 1252 419 1248T422 1239Q424 1234 426 1229L535 999L639 1257Q650 1286 658 1294T674 1303Q686 1303 698 1298T719 1284T735 1268T741 1253Q741 1248 733 1238T721 1223Q711 1208 705 1202L555 987L801 1018Q805 1018 809 1019Q816 1020 827 1022Q837 1024 846 1025T858 1026Q874 1026 883 1017T893 979Q893 950 884 941T864 932L557 961Z"  />
<glyph unicode="+" horiz-adv-x="840" d="M465 616V307H391V616H84V688H391V989H465V688H766V616H465Z"  />
<glyph unicode="&#x2c;" horiz-adv-x="367" d="M-143 -356Q-146 -356 -151 -357T-160 -358Q-164 -358 -164 -356L-170 -342V-340L-162 -338Q-111 -325 -61 -304T29 -252T94 -179T119 -80Q119 -43 102 -24T49 14Q27 27 17 39T6 63Q6 72 12 82T27 102T48 118T70 125Q90 125 111 113T151 78T181 24T193 -47Q193 -116 161 -168T78 -259T-31 -321T-143 -356Z"  />
<glyph unicode="-" horiz-adv-x="512" d="M446 440H45L70 524H467L446 440Z"  />
<glyph unicode="." horiz-adv-x="367" d="M100 -20Q89 -20 77 -14T55 3T39 26T33 49Q34 61 41 74T60 98T84 116T109 123Q119 123 131 116T153 99T169 76T176 53Q176 42 168 29T149 5T124 -13T100 -20Z"  />
<glyph unicode="/" horiz-adv-x="848" d="M950 1315Q880 1204 822 1110T710 931T607 765T503 596T391 413T262 200T106 -56T-84 -369H-145Q8 -117 144 104T399 518Q520 714 640 911T885 1315H950Z"  />
<glyph unicode="0" horiz-adv-x="840" d="M106 649Q118 722 139 800T189 954T257 1096T342 1213T444 1293T565 1323Q635 1323 681 1285T755 1186T794 1047T805 889Q805 824 800 762T784 649Q753 479 704 354T594 146T463 24T322 -16Q269 -16 226 11T152 91T103 223T86 406Q86 461 90 521T106 649ZM555 1288Q499 1288 453 1254T369 1166T304 1042T255 901T220 764T199 649Q193 613 187 572T175 488T167 400T164 313Q164 253 172 200T200 106T254 42T340 18Q395 18 440 51T521 137T584 259T632 397T667 533T692 649Q698 680 705 718T717 799T725 888T729 979Q729 1040 721 1095T694 1194T640 1262T555 1288Z"  />
<glyph unicode="1" horiz-adv-x="840" d="M590 -2Q540 0 481 1T356 2Q302 2 264 1T199 -1T157 -3T131 -4Q121 -4 121 0Q123 12 125 15T133 18Q208 22 247 28T305 51Q319 63 328 85T347 144T366 237T391 369Q399 410 408 456Q416 495 425 544T444 645Q453 693 462 739T478 820Q486 861 494 899Q509 983 517 1036T526 1118Q526 1144 520 1154T498 1165Q483 1165 465 1159Q437 1151 405 1135T326 1102Q323 1100 318 1099T311 1098Q309 1098 309 1102V1108Q309 1113 311 1115T326 1124Q351 1138 393 1161T479 1210T563 1260T625 1298Q642 1311 647 1311Q648 1311 650 1308T654 1302Q657 1298 659 1294V1290Q656 1279 651 1259T639 1210Q629 1166 616 1105T589 973T559 824T529 666T500 510T473 365Q456 274 447 206T438 96Q438 78 439 66T446 49Q456 37 473 31T513 23T561 20T614 18Q623 18 623 14V8Q621 2 621 0T612 -2H590Z"  />
<glyph unicode="2" horiz-adv-x="840" d="M211 1028L213 1073Q213 1093 219 1104T238 1135Q264 1176 298 1210T371 1270T454 1309T541 1323Q608 1323 653 1302T727 1242T766 1151T778 1036Q778 968 762 906T713 782T632 659T520 528Q476 481 425 433T316 330T193 215T55 80L465 82Q518 82 549 85T602 105T641 157T682 254Q684 256 685 264T692 272Q697 272 703 271T709 264Q709 256 700 234T678 179T650 102T623 8Q621 -1 616 -2T604 -4Q542 -4 488 -1T375 2Q278 2 183 0T-10 -2Q-16 -2 -22 4T-29 27Q-29 33 -22 39T-12 49Q85 156 175 246T343 415T485 567T594 712T665 861T690 1024Q690 1085 677 1128T638 1200T578 1241T500 1255Q450 1255 407 1237T328 1188T266 1116T225 1028H211Z"  />
<glyph unicode="3" horiz-adv-x="840" d="M274 1096V1126Q274 1133 275 1140T283 1155Q310 1196 343 1226T414 1277T489 1308T565 1319Q611 1319 646 1304T706 1261T742 1195T754 1110Q754 1043 733 991T671 895T571 812T436 733Q446 735 455 735T473 735Q524 735 566 718T637 667T682 586T698 477Q698 372 662 282T561 125T404 20T201 -18Q159 -18 129 -7T80 21T51 56T41 90Q41 99 46 109T58 129T75 144T94 150Q102 150 110 144T127 123Q141 97 158 81T198 56T249 44T313 41Q376 41 419 60T502 123Q519 141 539 172T576 245T604 338T616 446Q616 509 599 552T551 621T478 658T385 670Q357 670 333 665T281 645Q271 641 270 641Q268 641 265 646T262 657Q262 661 267 665T279 672Q292 679 310 688T367 721Q440 764 496 803T590 884T648 974T668 1083Q668 1136 654 1168T617 1216T565 1238T504 1243Q438 1243 382 1202T281 1098L274 1096Z"  />
<glyph unicode="4" horiz-adv-x="840" d="M793 1300Q799 1295 801 1294T803 1286Q803 1281 800 1264T793 1235Q774 1161 758 1079T725 899T688 689T641 440Q656 440 685 440T748 440T812 440T862 442L864 440L842 377Q840 371 837 370T827 369H627L561 -2L473 -10Q476 6 481 31T492 86T504 148T517 212Q532 286 549 369H111H47Q44 369 40 370T35 379Q35 382 36 391T39 406Q41 412 43 417T55 434Q140 539 226 639T393 842Q486 957 581 1071T770 1300Q775 1309 780 1309Q781 1309 793 1300ZM561 440Q577 521 592 601T623 766T656 947T694 1157Q591 1029 509 927T356 741T225 583T106 440H561Z"  />
<glyph unicode="5" horiz-adv-x="840" d="M803 1321Q811 1321 811 1317Q811 1315 810 1310T807 1298L793 1251Q788 1237 784 1229T772 1217T751 1211T715 1210H475H422L309 954Q301 935 301 922Q301 911 310 899T352 868Q427 822 488 770T593 660T660 536T684 399Q684 301 650 223T562 91T438 9T297 -20Q238 -20 196 -3T125 39T84 93T70 145Q70 151 74 161T85 181T102 198T125 205Q136 205 142 197T154 174Q174 103 224 69T365 35Q413 35 457 56T536 119T590 224T610 373Q610 457 581 521T503 638T387 739T246 836Q240 839 237 844T233 854Q233 856 233 858T236 862L408 1284Q414 1298 416 1301T424 1305H436Q454 1304 468 1303T503 1302T560 1301T655 1300Q708 1300 735 1303T775 1310T790 1317T797 1321H803Z"  />
<glyph unicode="6" horiz-adv-x="840" d="M307 649V670Q307 676 314 682T328 694Q391 739 448 760T561 782Q613 782 651 763T715 710T753 628T766 524Q766 460 754 395T716 269T655 156T572 64T467 3T342 -20Q283 -20 236 1T155 65T103 171T84 317Q84 388 95 467T129 629T185 794T264 952Q310 1031 375 1101T514 1223T668 1306T823 1337Q831 1337 835 1333T842 1321T845 1307T846 1294Q846 1283 839 1281T821 1278Q815 1278 804 1279T786 1280Q687 1278 599 1227T438 1089T309 882T219 627Q211 595 204 557T189 478T178 392T174 305Q174 248 183 196T214 103T274 40T369 16Q427 16 472 40T551 105T609 196T648 302T669 408T676 504Q676 572 662 614T622 680T561 712T483 721Q464 721 442 715T397 699T352 676T311 649H307Z"  />
<glyph unicode="7" horiz-adv-x="840" d="M918 1262Q914 1257 802 1075T463 528Q407 439 346 342T229 152Q200 104 180 68T145 4Q133 -22 128 -29T111 -37Q95 -37 83 -27T66 -6Q61 4 61 8Q61 14 67 23T80 41Q89 53 103 73T139 127Q208 228 287 351T455 613T641 903T840 1212Q803 1213 756 1213T667 1214H567Q511 1214 464 1213Q444 1213 424 1213T387 1212T358 1210T340 1208Q317 1203 302 1196T273 1174T247 1133T217 1063Q214 1053 211 1053Q209 1053 207 1053T201 1055Q196 1057 196 1058T195 1063Q195 1066 196 1070T199 1079Q201 1087 203 1095T209 1116T217 1144T229 1184Q236 1202 242 1226T256 1282Q259 1294 262 1298T276 1303Q349 1303 434 1301T606 1298Q693 1298 771 1299T911 1303Q914 1303 916 1302T920 1296L924 1284Q924 1282 925 1280T926 1276Q926 1274 923 1270T918 1262Z"  />
<glyph unicode="8" horiz-adv-x="840" d="M494 692Q531 652 567 611T633 524T681 429T700 324Q700 243 675 179T602 70T486 1T334 -23Q266 -23 215 0T129 60T78 147T61 248Q61 295 73 350T122 461T223 574T393 678Q343 729 311 771T260 850T234 921T227 991Q227 1067 250 1128T316 1232T418 1298T547 1321Q605 1321 649 1300T724 1244T769 1161T784 1063Q784 999 768 949T725 860T667 793T602 745T541 713T494 692ZM530 1290Q486 1290 447 1274T378 1224T332 1140T315 1020Q315 981 322 947T348 876T397 801T473 711Q532 745 574 780T644 857T685 950T698 1067Q698 1116 686 1157T652 1227T599 1273T530 1290ZM414 655Q282 586 216 490T150 252Q150 198 164 154T203 77T264 28T342 10Q397 10 446 25T533 75T592 163T614 295Q614 335 605 373T573 454T512 545T414 655Z"  />
<glyph unicode="9" horiz-adv-x="840" d="M594 670V649Q594 643 587 637T573 625Q510 580 453 559T340 537Q288 537 250 556T186 609T148 691T135 795Q135 860 147 923T185 1045T246 1154T329 1240T433 1298T559 1319Q617 1319 665 1298T746 1233T798 1127T817 981Q817 910 806 831T772 670T716 505T637 346Q591 267 526 197T387 75T233 -8T78 -39Q70 -39 66 -35T59 -23T56 -9T55 4Q55 15 62 17T80 20Q86 20 97 19T115 18Q214 20 302 71T463 210T591 416T682 672Q689 703 697 741T712 821T723 906T727 993Q727 1051 718 1103T687 1195T627 1258T532 1282Q474 1282 429 1259T350 1199T292 1113T253 1012T232 909T225 815Q225 747 239 705T279 639T340 607T418 598Q437 598 459 604T504 620T549 643T590 670H594Z"  />
<glyph unicode=":" horiz-adv-x="367" d="M104 -20Q93 -20 81 -14T59 3T43 26T37 49Q38 61 45 74T64 98T88 116T113 123Q123 123 135 116T157 99T173 76T180 53Q179 42 171 29T152 5T128 -13T104 -20ZM270 686Q259 686 248 692T227 709T211 732T205 756Q205 767 212 779T230 802T255 820T281 827Q291 827 303 821T325 804T341 782T348 758Q347 747 339 735T320 711T295 693T270 686Z"  />
<glyph unicode=";" horiz-adv-x="367" d="M365 758Q364 746 356 733T337 709T312 691T289 684Q277 684 265 691T244 708T228 731T221 754Q221 766 228 779T247 802T272 820T297 827Q308 827 320 820T342 803T358 781T365 758ZM-111 -356Q-114 -356 -119 -357T-127 -358Q-129 -358 -131 -356T-135 -348L-137 -340L-129 -338Q-78 -325 -28 -304T62 -252T127 -179T152 -80Q152 -43 135 -24T82 14Q60 27 50 39T39 63Q39 72 45 82T60 102T81 118T102 125Q123 125 145 113T184 77T213 21T225 -55Q225 -120 194 -171T113 -259T5 -320T-111 -356Z"  />
<glyph unicode="&lt;" horiz-adv-x="840" d="M74 627V678L776 1049V965L178 653L776 338V256L74 627Z"  />
<glyph unicode="=" horiz-adv-x="840" d="M766 485H84V563H766V485ZM766 743H84V821H766V743Z"  />
<glyph unicode="&gt;" horiz-adv-x="840" d="M94 256V338L692 651L94 965V1049L797 678V627L94 256Z"  />
<glyph unicode="?" horiz-adv-x="707" d="M362 299Q284 311 244 355T203 465Q203 496 210 523T242 582T313 657T436 762Q496 810 535 847T597 918T630 982T639 1049Q639 1087 626 1121T588 1182T529 1223T455 1239Q413 1239 381 1232T313 1196Q305 1190 300 1187T289 1184Q283 1184 276 1189T264 1203T256 1222T252 1241Q252 1253 262 1266T292 1291T338 1310T397 1317Q458 1317 513 1289T610 1216T675 1113T700 995Q700 938 675 892T611 808T528 736T444 670Q389 625 354 593T300 535T273 487T266 440Q266 394 295 365T377 319V315L362 299ZM223 -20Q211 -20 199 -14T178 3T162 26T156 49Q156 61 164 74T183 98T207 116T231 123Q242 123 254 116T276 99T292 76T299 53Q299 42 291 29T271 5T246 -13T223 -20Z"  />
<glyph unicode="@" horiz-adv-x="1526" d="M1284 229Q1286 229 1290 226T1296 221Q1300 217 1300 215Q1300 212 1292 207Q1228 160 1162 119T1027 47T883 -2T727 -20Q600 -20 497 16T319 120T205 288T164 512Q164 582 176 659Q203 816 274 938T450 1145T683 1273T956 1317Q1059 1317 1151 1286T1312 1197T1421 1057T1462 874Q1462 823 1450 768Q1428 662 1373 579T1244 438T1087 348T926 311H915Q871 311 856 331T840 381Q840 403 845 426T858 473Q865 492 870 507T883 541T898 582T920 639H913Q873 586 835 533T752 430Q729 406 707 384T661 346T614 321T569 311Q550 311 532 319T499 342T476 377T467 424Q467 429 468 433T469 442Q478 506 502 562T563 670T647 769T748 860Q811 911 882 949T1030 1006Q1037 1023 1042 1032T1051 1046T1061 1052T1075 1053Q1080 1053 1088 1053T1102 1051Q1108 1048 1108 1042Q1108 1039 1107 1036T1104 1026Q1087 982 1068 929T1030 818T993 706T961 603T936 522T924 473Q922 462 921 452T920 432Q920 407 932 394T979 381H987Q1064 381 1129 410T1244 492T1329 614T1380 766Q1387 798 1390 828T1393 887Q1393 984 1359 1059T1263 1185T1119 1262T938 1288Q825 1288 714 1247T510 1127T350 930T258 659Q252 625 250 592T248 528Q248 411 284 318T384 159T537 60T733 25Q813 25 891 41T1040 85T1173 150T1284 229ZM922 918Q890 918 852 899T776 847T702 772T636 684T588 593T563 508Q561 500 561 494T561 479Q561 445 574 424T625 403Q651 403 686 428T757 492T830 579T895 675T945 763T969 829Q971 839 972 846T973 862Q973 885 962 901T922 918Z"  />
<glyph unicode="A" horiz-adv-x="1008" d="M748 1309Q748 1306 749 1297T750 1284Q765 1080 786 844T831 328Q851 102 868 57Q879 33 898 28T944 20H961Q965 20 965 16V8Q965 3 964 1T958 -2H934Q902 0 870 1T807 2Q757 2 710 1T614 -2H602Q598 -2 598 2V8Q600 16 600 17T610 20H635Q686 20 713 25T754 47Q760 56 762 71T764 109Q764 152 758 226T743 418Q742 432 741 445Q740 456 739 468T737 492H340Q324 464 305 426T266 344T230 258T198 178T176 115T168 78Q168 60 174 49T194 31T230 21T287 18H297Q300 18 301 18T303 12V8Q301 2 301 -1T295 -4L260 -2Q225 0 192 0T127 0Q46 0 12 -2T-25 -4Q-31 -4 -31 2V6Q-29 12 -27 14T-10 18Q11 21 28 29T64 61T108 130T172 250Q235 375 289 481T391 678T476 844T547 985Q552 995 562 1015T586 1061T614 1116T643 1175T670 1232T690 1280Q695 1291 695 1293T702 1298Q715 1303 727 1308T743 1313Q748 1313 748 1309ZM680 1180Q660 1140 636 1090T583 984T525 867T466 748T408 631T356 524H735Q724 670 711 831T680 1180Z"  />
<glyph unicode="B" horiz-adv-x="926" d="M745 788Q707 756 663 735T575 700V698L594 696Q659 688 705 665T782 606T826 520T840 412Q840 310 810 232T722 102T583 23T395 -4Q352 -4 307 -1T217 2Q104 2 55 0T2 -2Q-2 -2 -2 0Q-2 2 -1 7T0 14Q2 19 4 19T18 20Q37 23 52 24T80 26T103 31T123 43Q132 51 139 61T152 90T165 138T181 215T202 328T233 487L340 1034Q349 1084 354 1126T360 1212Q360 1244 352 1257Q341 1276 317 1279T248 1282H238Q231 1282 229 1283T227 1292Q229 1300 232 1301T240 1303H252Q284 1301 316 1300T379 1298Q410 1298 441 1300T506 1305Q543 1308 578 1308T633 1309Q749 1309 807 1245T866 1069Q866 985 836 912T745 788ZM584 1284Q546 1284 523 1282T487 1275T468 1259T459 1233Q458 1229 456 1217T450 1187T442 1149T434 1107Q424 1058 412 997L352 702H434Q522 702 587 726T695 797T759 910T780 1059Q780 1167 729 1225T584 1284ZM590 664Q573 670 555 672T510 674Q496 675 470 675T416 676H348L326 567Q317 525 307 469T288 360Q277 299 268 236Q259 186 254 149T248 86Q248 77 248 70T252 57Q264 33 300 28T406 23Q487 24 551 51T659 130T727 253T750 416Q750 508 708 574T590 664Z"  />
<glyph unicode="C" horiz-adv-x="985" d="M911 252Q911 247 908 237T903 221Q898 208 892 189T878 145T864 94T850 39Q848 31 845 29T834 23Q765 0 703 -11T578 -23Q468 -23 382 16T237 128T146 307T115 547Q115 641 132 735T184 915T270 1075T390 1204T542 1290T727 1321Q755 1321 783 1319T842 1313T910 1300T991 1280Q996 1278 1001 1278T1008 1278Q1011 1278 1014 1280T1020 1284Q1028 1288 1032 1288H1036Q1041 1288 1042 1286T1044 1282Q1044 1273 1038 1252T1026 1200Q1018 1163 1011 1112T993 995Q993 987 983 987Q977 989 975 989T973 1001Q973 1008 974 1015T975 1034Q977 1053 977 1068T977 1098Q977 1129 975 1148T967 1181T954 1204T934 1223Q896 1254 836 1269T707 1284Q617 1284 545 1249T418 1154T322 1018T257 861T219 699T207 551Q207 429 233 329T307 157T423 46T575 6Q631 6 678 18T765 59T834 134T887 248Q890 254 892 258T897 262Q899 262 900 261T903 260Q908 257 909 256T911 252Z"  />
<glyph unicode="D" horiz-adv-x="1133" d="M436 -4Q399 -4 367 -3T305 -1T243 2T178 4Q149 4 116 3T43 0L12 -2Q9 -2 7 -3T2 -4Q-3 -4 -3 -3T-4 2Q-4 14 -1 16T10 18H18Q52 22 77 26T119 43Q137 55 149 87T174 183T206 353T256 618L287 776Q305 872 318 945T340 1072T352 1162T356 1221Q356 1240 348 1251T326 1269T297 1277T266 1280Q248 1282 235 1282T221 1288Q221 1300 227 1300H254Q283 1300 309 1298T360 1296Q397 1296 430 1297T494 1300T558 1303T627 1305Q731 1305 819 1274T972 1180T1073 1026T1110 811Q1110 701 1090 598T1032 404T936 238T804 109T637 26T436 -4ZM1020 809Q1020 933 987 1022T896 1168T761 1253T596 1280Q555 1280 529 1278T485 1261T457 1217T435 1130T408 988T369 776L338 618Q317 508 301 424T273 276T256 168T250 96Q250 72 255 58T278 36T328 26T416 23Q528 23 616 56T772 147T887 282T963 447T1006 627T1020 809Z"  />
<glyph unicode="E" horiz-adv-x="944" d="M883 1001Q880 1001 877 1004T874 1010Q874 1022 875 1033T879 1057Q881 1077 883 1096T885 1135Q885 1179 874 1205T831 1244T747 1260T608 1264H537Q511 1264 496 1260T472 1242T456 1202T440 1130L352 692H453Q520 692 588 698Q631 701 658 708T704 730T736 771T762 838Q764 841 766 850T772 860Q775 860 779 859T784 852Q784 850 783 848T782 844Q761 756 740 671T702 496Q701 493 701 488T699 476T696 466T690 461Q688 461 684 461T680 465Q680 491 685 516T690 567Q690 603 680 622T644 651T571 662T451 664H346L276 279Q270 243 266 209T256 139Q254 127 253 115T252 88Q252 70 258 60T285 46T346 40T455 39Q478 39 513 40T585 47T655 63T707 90Q726 108 742 132T771 185T796 241T815 293Q817 296 819 304T823 313Q825 313 829 311T834 305Q834 299 828 277T813 224T793 159T772 94T754 41T743 14Q741 12 737 5T727 -2Q650 1 574 1T420 2Q314 2 207 -1T-8 -4H-12Q-16 -4 -16 -2Q-16 13 1 16T42 21T91 26T135 47Q144 55 155 95T179 192T204 314T227 438T245 541T256 600L319 946Q325 978 332 1018T346 1096T357 1166T362 1214Q362 1244 349 1258T317 1277T274 1282T229 1284Q227 1284 222 1285T217 1288Q217 1299 220 1301T236 1303Q310 1303 382 1301T528 1298Q635 1298 740 1301T952 1305Q957 1305 961 1304T965 1296Q965 1294 962 1281T953 1249T940 1204T926 1153Q913 1105 904 1064T891 1008Q891 1001 883 1001Z"  />
<glyph unicode="F" horiz-adv-x="868" d="M903 995Q903 992 900 992T895 991Q889 991 888 993T887 999Q887 1009 888 1023T891 1051Q893 1069 895 1089T897 1133Q897 1175 886 1200T847 1240T775 1259T662 1264H565Q520 1264 498 1256T464 1228T449 1180T436 1110L350 674H475Q580 674 640 684T725 729Q739 748 746 768T762 809Q764 812 767 823T774 834Q779 834 782 832T786 823Q786 821 785 820T784 817Q767 761 754 705T729 592Q723 560 717 527T702 461Q700 456 698 446T690 436Q685 436 684 436T682 442Q682 465 686 489T690 539Q690 568 684 588T656 620T590 637T471 643H344L270 240Q261 192 257 152T252 86Q252 65 259 52T283 31T328 21T399 18Q412 18 416 18T420 12Q420 6 418 1T408 -4Q385 -4 339 -1T203 2Q147 2 94 -1T-14 -4Q-18 -4 -18 -2Q-18 3 -17 7T-12 14Q-10 16 8 17T45 20Q70 22 92 27T129 47Q143 60 153 88T172 148T185 211T195 260L328 967Q340 1035 350 1098T360 1210Q360 1254 336 1269T254 1284Q229 1284 229 1288Q229 1293 231 1298T238 1303Q290 1303 336 1302T425 1300T508 1297T590 1296Q767 1296 862 1299T977 1303Q983 1303 983 1298Q983 1295 980 1282T970 1250T957 1205T942 1153Q928 1103 917 1059T903 995Z"  />
<glyph unicode="G" horiz-adv-x="1057" d="M1055 1268Q1054 1267 1052 1251T1045 1210T1037 1154T1029 1091T1023 1032T1020 985Q1020 979 1017 977T1008 975Q1001 975 1000 977T999 985Q999 1016 998 1046T995 1102T989 1148T979 1180Q966 1203 935 1220T863 1248T778 1264T694 1270Q611 1270 542 1239T418 1154T323 1028T255 875T215 709T201 541Q201 411 228 312T307 145T432 43T598 8Q654 8 688 16T742 42T773 90T793 164Q800 204 809 250T827 340T840 418T846 469Q846 497 841 513T820 539T772 551T690 557H678Q673 557 673 561T672 573Q672 580 673 581T680 582H688Q735 579 774 579T852 578Q895 578 938 579T1040 584Q1045 584 1047 583T1049 575Q1047 567 1047 565T1038 561Q1008 556 989 550T957 526T935 472T913 369L885 199Q879 164 876 141T871 100T869 70T868 43V31Q868 25 850 19T804 6T740 -5T673 -14T613 -20T573 -23Q477 -23 393 10T245 110T146 279T109 518Q109 690 154 836T283 1088T484 1255T745 1315Q797 1315 839 1309T915 1295T973 1281T1012 1274Q1026 1274 1033 1281T1051 1288Q1054 1288 1055 1288T1057 1282Q1057 1280 1057 1277T1055 1268Z"  />
<glyph unicode="H" horiz-adv-x="1214" d="M217 1292Q217 1298 223 1299T250 1300Q293 1300 338 1297T426 1294Q494 1294 540 1298T608 1303Q614 1303 614 1298Q614 1289 611 1287T594 1282Q586 1281 574 1280T547 1277T520 1271T496 1260Q485 1251 476 1236T456 1190T434 1111T408 985L354 698H950L1010 995Q1022 1055 1028 1111T1034 1212Q1034 1256 1010 1268Q990 1279 961 1280T903 1284Q899 1284 899 1292Q899 1298 901 1299T911 1300Q937 1300 990 1297T1114 1294Q1193 1294 1237 1297T1298 1300Q1303 1300 1304 1299T1305 1292Q1305 1284 1296 1284Q1281 1282 1263 1281T1227 1277T1193 1268T1165 1249Q1157 1240 1147 1215T1128 1155T1108 1078T1090 993L965 346Q949 269 942 201T934 84Q934 55 944 42T972 23T1011 17T1057 16Q1060 16 1066 16T1073 12Q1073 9 1073 3T1067 -4Q1022 -4 975 -1T881 2Q825 2 771 -1T662 -4Q657 -4 657 4Q657 13 662 15T682 18Q693 18 708 19T740 23T771 28T793 37Q816 51 837 124T885 346L940 659H348L281 322Q267 253 261 194T254 94Q254 67 257 53T273 31T309 22T373 16Q376 16 380 16T385 12Q385 4 384 0T377 -4Q367 -4 351 -3T311 -1T253 1T174 2Q126 2 79 -1T-16 -4Q-19 -4 -19 -1T-20 6Q-20 16 -10 16Q6 17 23 17T57 20T90 27T119 43Q127 50 137 75T159 139T181 224T201 322L328 989Q339 1046 347 1104T356 1214Q356 1243 346 1257T311 1276Q291 1281 267 1282T221 1284Q217 1284 217 1292Z"  />
<glyph unicode="I" horiz-adv-x="543" d="M281 322Q267 253 261 194T254 94Q254 67 258 53T276 31T314 22T379 16Q382 16 386 16T391 12Q391 4 390 0T383 -4Q363 -4 316 -1T178 2Q112 2 60 -1T-12 -4Q-15 -4 -15 -1T-16 6Q-16 18 -6 18Q39 20 71 24T123 43Q131 50 139 65T157 111T178 193T205 322L332 989Q343 1046 351 1104T360 1214Q360 1243 348 1257T315 1274Q295 1279 271 1281T233 1284Q229 1284 229 1292Q229 1298 232 1300T246 1303Q263 1303 311 1299T426 1294Q494 1294 547 1298T623 1303Q629 1303 629 1298Q629 1289 626 1286T608 1282Q595 1282 580 1281T551 1276T523 1269T502 1260Q486 1247 475 1232T453 1187T433 1111T408 985L281 322Z"  />
<glyph unicode="J" horiz-adv-x="535" d="M283 299Q267 212 254 144T228 23T202 -72T172 -148T137 -212T92 -272Q40 -337 -19 -372T-139 -408Q-189 -408 -215 -386T-242 -338Q-242 -328 -238 -317T-226 -296T-208 -280T-188 -274Q-180 -274 -174 -278T-152 -295Q-129 -317 -106 -325T-57 -334Q-26 -334 0 -319T50 -270T94 -181T133 -45Q144 3 161 85T201 287L326 989Q337 1046 345 1104T354 1214Q354 1243 342 1257T309 1274Q299 1276 286 1278T260 1281T235 1283T217 1284Q213 1284 213 1292Q213 1298 215 1300T229 1303Q238 1303 257 1302T303 1299T361 1296T426 1294Q494 1294 547 1298T623 1303Q629 1303 629 1298Q629 1289 626 1286T608 1282Q595 1282 580 1281T551 1277T523 1270T502 1260Q485 1248 474 1233T452 1188T432 1111T408 985L283 299Z"  />
<glyph unicode="K" horiz-adv-x="1032" d="M342 643Q345 645 369 667T428 723T506 795T587 872T657 938T702 981Q764 1043 808 1084T881 1155Q910 1184 923 1205T936 1243Q936 1254 931 1261T914 1273T880 1280T825 1284H817Q807 1284 807 1288Q807 1297 811 1303Q813 1305 819 1305T827 1305Q836 1305 850 1304T884 1302T924 1299T967 1298Q1005 1298 1046 1298T1124 1303Q1131 1303 1133 1302T1135 1294Q1135 1284 1130 1284H1120Q1106 1284 1087 1275T1047 1249Q1027 1234 998 1208T922 1139Q882 1103 831 1058T725 963T614 862T506 762L670 410Q719 303 755 231T817 113Q825 100 830 90T840 72Q849 52 860 41Q873 29 891 23T944 16H952Q959 16 960 15T961 10Q961 8 960 4T956 -2Q954 -4 948 -4Q943 -4 935 -4T911 -2T869 -1T801 0Q747 0 694 -1T586 -4Q583 -4 582 -4T580 2Q582 7 582 9T588 12H590L672 16Q712 19 731 35Q737 41 737 53Q737 64 732 79T719 113Q693 175 667 234T612 354L446 705L334 606L281 322Q268 253 261 194T254 94Q254 67 258 53T276 31T314 22T379 16Q382 16 386 16T391 12Q391 4 390 0T383 -4Q363 -4 316 -1T178 2Q112 2 60 -1T-12 -4Q-15 -4 -15 -1T-16 6Q-16 18 -6 18Q39 20 71 24T123 43Q131 50 139 65T157 111T178 193T205 322L332 989Q343 1046 351 1104T360 1214Q360 1243 348 1257T315 1274Q295 1279 271 1281T233 1284Q229 1284 229 1292Q229 1298 232 1300T246 1303Q263 1303 311 1299T426 1294Q494 1294 547 1298T623 1303Q629 1303 629 1298Q629 1289 626 1286T608 1282Q595 1282 580 1281T551 1276T523 1269T502 1260Q486 1247 475 1232T453 1187T433 1111T408 985L342 643Z"  />
<glyph unicode="L" horiz-adv-x="854" d="M4 -4Q-4 -4 -6 -4T-8 0V6Q-8 16 2 16Q39 17 61 18T98 22T120 30T139 45Q144 51 149 60T160 91T174 148T193 241T220 380T258 578L311 864Q337 1007 352 1096T367 1206Q367 1239 354 1255Q340 1271 314 1275T242 1282Q238 1282 238 1286Q238 1289 239 1294T248 1300Q273 1300 295 1299T341 1297T392 1295T455 1294Q492 1294 518 1295T565 1298T600 1301T631 1303Q636 1303 636 1301T637 1294Q637 1284 629 1284H621Q580 1281 551 1275T504 1255Q484 1241 472 1215T449 1143T426 1030T395 866L338 575Q317 467 301 387T274 250T258 155T252 94Q252 74 256 63T267 47T287 40T315 39H473Q550 39 601 49T690 96Q725 131 752 180T801 293Q806 305 806 308T809 311H813Q815 310 816 309T818 307Q819 306 819 305Q819 298 813 276Q805 246 790 195T758 92Q747 64 741 46T729 14Q724 3 718 1T707 -2Q674 -2 629 -2T532 0T429 1T330 2Q237 2 176 1T78 -1T25 -3T4 -4Z"  />
<glyph unicode="M" horiz-adv-x="1362" d="M1442 1292Q1442 1284 1434 1284Q1378 1281 1349 1275T1307 1255Q1299 1247 1293 1232T1280 1192T1267 1129T1251 1042L1139 373Q1127 304 1119 254T1106 168T1099 111T1096 74Q1096 61 1097 55T1102 43Q1109 34 1119 29T1145 22T1184 18T1241 16Q1246 16 1246 14T1247 6Q1245 0 1244 -1T1237 -2H1229Q1206 -2 1181 -1T1130 1T1079 3T1032 4Q989 4 940 1T846 -2H842Q838 -2 838 8Q838 16 848 16Q901 21 932 28T977 49Q987 58 995 79T1013 141T1033 241T1059 389L1208 1221H1206Q1111 1036 1038 896T907 648T807 459T728 311T664 184T604 63Q599 52 597 48T592 37Q590 34 588 31T582 25Q577 23 572 21T561 18Q557 18 557 31Q549 126 538 219T512 411T480 622T444 864L403 1157H399Q350 931 314 763T252 473Q223 329 208 242T193 106Q193 86 195 72T203 49Q214 31 249 25T342 18Q348 18 348 14Q348 9 346 4T336 -2Q327 -2 317 -2T288 0T242 1T172 2Q88 2 39 0T-16 -2Q-19 -2 -21 -1T-23 6Q-23 14 -21 16T-12 18Q16 18 45 25T94 53Q106 65 118 94T145 179T181 319T229 527T296 817T385 1200Q378 1222 371 1236T351 1260T319 1272T268 1278L238 1280Q234 1280 233 1280T231 1286Q231 1291 232 1295T242 1300Q251 1300 274 1299T340 1298H453Q460 1298 464 1293T471 1260Q479 1182 491 1092T516 906T544 712T573 518T600 335T623 170Q686 296 751 419T882 668T1015 921T1151 1184Q1157 1197 1164 1212T1178 1241T1190 1268T1198 1288Q1200 1298 1214 1298Q1222 1298 1240 1297T1296 1296Q1346 1296 1379 1298T1438 1300Q1442 1300 1442 1292Z"  />
<glyph unicode="N" horiz-adv-x="1194" d="M1309 1294Q1309 1291 1308 1288T1303 1284H1294Q1286 1284 1270 1283T1235 1278T1199 1268T1171 1253Q1151 1235 1137 1197T1107 1086T1070 899T1016 614Q1014 606 1012 597Q1010 589 1009 581T1006 567Q964 352 939 211T909 18Q907 -2 906 -10T899 -20Q896 -22 893 -24T881 -29Q879 -29 878 -30T874 -31Q869 -31 868 -26T864 -10Q862 -1 859 12T850 45Q831 102 815 146T783 231T751 311T715 395T673 496T621 625Q608 656 592 695T557 777T521 863T484 948Q443 1044 399 1145V1149Q387 1089 376 1029Q366 978 356 918T336 807Q335 804 333 794T328 769T322 736T315 700Q307 657 297 604Q278 503 264 425T241 286T228 183T223 111Q223 68 233 51Q241 39 254 33T286 25T328 22T379 18Q385 18 385 14Q385 5 383 2T373 -2Q350 -2 305 1T184 4Q91 4 -6 -2L-20 -4Q-24 -4 -24 -2T-25 8Q-25 16 -22 17T-14 18H-2Q36 20 67 28T117 51Q135 66 147 99T173 195T206 358T256 608Q267 660 276 703Q280 721 283 739T290 772T296 797T299 811Q311 868 318 905T332 979T347 1060T369 1176Q369 1179 370 1182T371 1188Q371 1194 367 1202Q357 1227 344 1242T312 1266T270 1277T215 1280Q204 1280 203 1282T201 1292Q201 1300 203 1301T211 1303Q215 1303 222 1302T241 1301T275 1299T332 1298H418Q427 1298 430 1286Q438 1268 444 1250T459 1212Q514 1077 570 947T681 688T791 431T897 172L977 614Q998 733 1014 824T1041 984T1057 1100T1063 1180Q1063 1231 1044 1251Q1029 1270 998 1273T918 1282Q902 1284 900 1285T897 1292Q897 1297 898 1300T905 1303Q913 1303 923 1302T953 1300T1008 1297T1100 1296Q1206 1296 1253 1299T1305 1303Q1309 1303 1309 1294Z"  />
<glyph unicode="O" horiz-adv-x="1118" d="M1096 817Q1096 741 1081 650T1036 465T958 284T847 128T700 18T518 -23Q428 -23 358 15T238 121T163 280T137 479Q137 594 157 701T215 902T305 1073T421 1205T559 1290T713 1321Q803 1321 874 1283T994 1176T1070 1016T1096 817ZM543 10Q629 10 697 51T816 159T904 314T964 492T997 673T1008 836Q1008 936 988 1019T928 1162T829 1255T692 1288Q621 1288 559 1257T444 1169T352 1036T283 867T240 670T225 457Q225 358 245 276T306 135T405 43T543 10Z"  />
<glyph unicode="P" horiz-adv-x="938" d="M236 1303Q282 1303 337 1300T446 1296Q491 1296 536 1299T633 1303Q698 1303 753 1289T849 1243T911 1157T934 1024Q934 929 909 842T831 689T699 582T510 541Q495 541 475 541T430 542T380 547T328 557L293 371Q271 251 262 185T252 86Q252 52 260 47Q269 39 284 34T316 25T350 21T379 20H387Q393 20 393 14Q393 11 392 5T385 -2Q374 -2 325 1T176 4Q131 4 103 3T57 1T27 -1T0 -2Q-8 -2 -10 -2T-12 2Q-12 14 -9 17T6 20Q63 20 92 28T133 47Q140 54 147 71T162 125T182 220T211 371L334 1024Q338 1050 343 1081T351 1140T357 1189T360 1219Q360 1253 346 1268Q341 1273 327 1276T295 1281T259 1284T229 1286Q225 1286 225 1290Q225 1303 236 1303ZM737 1241Q702 1263 656 1269T553 1276Q518 1276 501 1271T475 1255Q471 1250 465 1232T451 1185T435 1118T418 1036L332 582Q364 577 392 573T459 569Q574 569 647 600T766 698Q782 722 797 758T824 837T843 925T850 1012Q850 1084 825 1144T737 1241Z"  />
<glyph unicode="Q" horiz-adv-x="1118" d="M1120 -281Q1096 -305 1066 -327T1001 -366T927 -393T842 -403Q800 -403 768 -398T699 -380T613 -343T485 -285Q437 -263 404 -247T342 -220T289 -203T233 -193Q196 -207 175 -213T141 -219Q124 -219 121 -214T115 -197Q115 -182 127 -171T159 -153T201 -143T246 -139Q255 -139 263 -139T279 -141Q318 -124 365 -103T463 -56T565 -2T664 59L662 63Q639 50 617 41T570 25T519 15T461 12Q387 12 327 45T225 141T160 291T137 489Q137 601 157 706T215 905T305 1075T422 1208T559 1294T713 1325Q794 1325 864 1291T985 1191T1065 1031T1094 819Q1094 716 1074 619T1015 432T921 263T795 119Q756 83 714 52T618 -10T494 -76T328 -152Q371 -163 418 -182T514 -222T609 -264T698 -301Q811 -344 899 -344Q973 -344 1029 -317T1126 -244L1130 -242V-258Q1130 -269 1120 -281ZM690 1290Q616 1290 553 1257T438 1166T346 1029T279 858T237 664T223 459Q223 253 298 154T520 55Q584 55 645 85T760 170T859 298T936 460T986 645T1004 844Q1004 950 982 1033T919 1173T820 1260T690 1290Z"  />
<glyph unicode="R" horiz-adv-x="1032" d="M1010 10Q1010 6 1008 4Q998 -4 971 -8T903 -12Q849 -12 800 20T707 126T621 318T543 608Q531 606 517 606T487 605T459 604T438 604Q414 606 393 607T340 614L317 489Q303 408 291 347T271 238T259 156T254 96Q254 62 264 45Q272 33 298 26T352 18Q374 18 386 18T405 16T412 14T414 12Q414 -4 406 -4Q395 -4 334 -1T168 2Q126 2 86 2T6 -2L-10 -4Q-18 -4 -18 0Q-18 5 -17 10T-10 16Q9 17 29 18T67 21T101 28T129 45Q141 56 149 78T167 142T189 250T221 414L332 997Q347 1082 354 1135T362 1217Q362 1248 354 1253Q343 1263 324 1270T258 1280Q236 1282 230 1284T223 1288Q223 1291 224 1295T229 1300H231Q278 1295 311 1295T375 1294Q438 1294 499 1300T625 1307Q679 1307 730 1297T820 1258T883 1176T907 1038Q907 963 884 897T822 778T731 688T621 633Q657 478 695 362T776 168T868 51T977 12Q985 12 992 12T1010 14V10ZM549 1276Q517 1274 494 1268T463 1237Q460 1228 454 1198T438 1122T418 1020T395 901T371 774T346 651Q372 648 409 642T504 635Q574 635 632 661T733 736T799 855T823 1012Q823 1096 807 1147T760 1227T685 1266T584 1276H549Z"  />
<glyph unicode="S" horiz-adv-x="768" d="M705 1028Q705 1053 707 1077T709 1133Q709 1165 702 1193T670 1241Q641 1264 596 1274T510 1284Q468 1284 429 1266T361 1214T315 1136T297 1036Q297 988 302 953T322 884T367 810T446 717L483 676Q519 635 550 597T605 516T642 425T655 315Q655 236 631 173T564 67T460 0T326 -23Q269 -23 218 -15T100 14Q95 16 88 17T74 18Q68 18 65 17T55 16Q51 16 51 25Q54 88 61 161T78 297L84 330Q87 347 87 350T96 354Q102 354 104 353T106 346V338Q104 315 103 292T102 248Q102 228 104 206T111 162T127 120T156 84Q188 53 235 33T328 12Q382 12 427 28T506 76T559 156T578 268Q578 317 572 356T549 434T504 511T434 600L399 641Q352 695 318 738T262 823T230 906T219 999Q219 1069 244 1127T315 1231Q362 1277 415 1298T541 1319Q565 1319 606 1313T705 1292Q714 1290 723 1289T741 1288Q746 1288 750 1289T760 1290Q764 1290 764 1288Q764 1286 764 1284T762 1272Q754 1235 745 1168T725 1022Q725 1017 723 1017T717 1016Q709 1016 707 1017T705 1028Z"  />
<glyph unicode="T" horiz-adv-x="926" d="M1053 1163Q1048 1145 1043 1127T1033 1092T1024 1062T1018 1042Q1015 1032 1008 1032Q995 1032 995 1042Q995 1056 1004 1086T1014 1161Q1014 1183 1010 1202T991 1231Q981 1238 967 1242T924 1249T846 1253T719 1255H645Q630 1177 615 1100T586 951T560 816T539 702L494 467Q479 389 468 328T448 221T435 143T430 88Q430 60 440 43Q450 28 479 23T573 18H580Q585 18 585 15T586 6Q586 0 585 -1T578 -2Q569 -2 546 -2T491 0T418 1T332 2Q303 2 275 1T224 -1T185 -3T164 -4Q156 -4 156 6Q158 14 161 15T180 18Q223 22 252 23T301 39Q316 50 327 77T351 155T377 282T414 469L459 700Q473 771 485 838T509 974T533 1111T559 1255H508Q427 1255 376 1254T294 1249T245 1240T215 1225Q189 1208 167 1162T119 1049Q116 1041 115 1038T109 1034Q107 1034 103 1034T98 1040Q98 1042 98 1045T100 1055Q110 1101 124 1154T158 1266L170 1300Q172 1305 173 1310T178 1315Q181 1315 182 1314T186 1311Q195 1305 219 1302T290 1296T412 1293T600 1292Q700 1292 798 1294T997 1298Q1016 1298 1028 1298T1049 1300T1064 1303T1075 1309Q1078 1312 1079 1312T1083 1313Q1090 1313 1090 1309Q1090 1307 1087 1295T1081 1270Q1077 1254 1074 1242T1068 1218T1061 1194T1053 1163Z"  />
<glyph unicode="U" horiz-adv-x="1081" d="M1077 1243Q1065 1226 1053 1193T1028 1104T1000 968T965 776Q948 679 932 593T898 430T856 290T801 172Q744 78 651 28T436 -23Q353 -23 296 -5T202 48T150 137T133 262Q133 299 137 337T152 426Q157 455 165 494T184 589T210 717T242 889L252 948Q272 1050 281 1113T291 1212Q291 1247 281 1257Q273 1266 257 1270T221 1277T184 1280T154 1282Q145 1282 145 1288Q145 1303 154 1303Q171 1303 217 1299T326 1294Q371 1294 418 1296T528 1303H545Q551 1303 553 1302T555 1294Q555 1286 554 1284T547 1282Q497 1282 461 1274T410 1249Q402 1241 395 1221T379 1166T360 1082T336 967L260 571Q259 567 256 548T249 502T239 441T230 377T222 320T219 279Q219 222 231 178T273 104T355 58T487 41Q599 41 675 96T799 258Q813 289 825 326T851 418T879 551T915 743L930 829Q955 972 969 1061T983 1198Q983 1236 971 1251Q952 1274 919 1277T834 1284Q829 1284 829 1292Q829 1303 834 1303H840Q888 1299 935 1297T1030 1294Q1107 1294 1141 1297T1190 1300Q1194 1300 1194 1296Q1194 1290 1193 1286T1184 1282Q1156 1280 1126 1274T1077 1243Z"  />
<glyph unicode="V" horiz-adv-x="946" d="M379 0Q371 -3 360 -8T346 -14Q344 -14 344 -10Q342 2 342 23T338 80Q333 143 330 207T322 334L301 584Q293 681 285 778T268 973Q260 1065 254 1120T241 1206T228 1250T215 1270Q206 1279 182 1280T139 1284Q135 1284 135 1294Q135 1297 135 1300T141 1303H166Q188 1302 204 1301T234 1300T265 1299T303 1298Q321 1298 346 1298T397 1299T447 1301T489 1303H498Q501 1303 502 1302T504 1294Q504 1285 501 1285T489 1282Q468 1280 449 1280T411 1280T378 1274T352 1257Q344 1251 340 1235T336 1178Q336 1152 337 1115T344 1022L379 598Q383 548 387 498T397 394T408 282T420 158Q492 310 550 426T654 632T735 793T799 922Q817 960 838 1006T879 1096T911 1179T924 1239Q924 1252 918 1260Q912 1265 904 1269T881 1276T843 1280T786 1282Q783 1282 782 1283T780 1290Q780 1303 788 1303L825 1300Q864 1298 899 1297T969 1296Q998 1296 1026 1297T1087 1300H1122Q1128 1300 1128 1290Q1128 1280 1118 1280Q1090 1278 1069 1274T1028 1249Q1006 1229 983 1187T922 1071Q913 1054 903 1035T883 995T863 956T846 922Q795 822 744 722T644 528T553 350T476 197T418 80T385 8Q383 5 383 4T379 0Z"  />
<glyph unicode="W" horiz-adv-x="1352" d="M1556 1292Q1556 1282 1546 1282H1534Q1516 1282 1500 1278T1466 1256T1423 1201T1364 1096Q1333 1036 1299 969T1233 836Q1174 719 1128 626T1044 458T978 323T924 211T877 112T834 16Q827 4 825 0T811 -8Q805 -10 802 -10T797 -10Q793 -10 793 -2Q793 0 789 36T778 129L719 641Q653 516 593 400Q567 350 540 298T488 194T440 98T401 16Q398 8 394 3T379 -6L362 -10Q360 -10 359 -1T358 16Q345 134 329 271T294 548T259 823T227 1075Q218 1162 210 1206T188 1264Q182 1271 173 1274T152 1278T129 1280T109 1282Q104 1282 104 1292Q104 1295 105 1297T111 1300Q115 1300 127 1300T162 1298T221 1297T309 1296Q375 1296 413 1298T457 1300Q461 1300 461 1294Q461 1289 460 1285T449 1280Q432 1279 412 1279T373 1277T337 1268T307 1249Q302 1244 301 1232T299 1200Q299 1170 304 1112T317 979T337 814T360 631L426 141L711 696L666 1075Q660 1128 655 1162T646 1218T637 1249T627 1266Q620 1272 610 1275T589 1279T568 1281T549 1282Q543 1282 543 1292Q543 1295 543 1299T549 1303Q567 1303 586 1302T640 1300T728 1297T868 1296Q939 1296 987 1297T1066 1299T1114 1302T1141 1303Q1146 1303 1146 1301T1147 1292Q1147 1282 1137 1282Q1117 1280 1103 1277T1075 1266Q1067 1261 1059 1252T1041 1227T1019 1190T991 1139Q976 1110 957 1077T915 999T862 899T795 770L784 752Q790 694 799 621T817 466T838 302T860 143Q877 179 902 231T956 345T1018 473T1082 605T1142 732T1194 842Q1202 860 1217 890T1251 957T1287 1032T1321 1108T1346 1175T1356 1225Q1356 1259 1329 1269T1239 1280H1231Q1226 1280 1226 1282T1225 1290Q1225 1296 1226 1299T1233 1303Q1241 1303 1280 1300T1384 1296Q1456 1296 1498 1299T1550 1303Q1553 1303 1554 1302T1556 1292ZM973 1241Q973 1250 969 1257T951 1268T916 1274T860 1276Q815 1276 786 1273T743 1255Q733 1245 733 1214Q733 1184 739 1132T756 997L778 801Q804 854 829 905T875 1000T911 1077T934 1126Q948 1157 960 1188T973 1241Z"  />
<glyph unicode="X" horiz-adv-x="1032" d="M727 311Q761 197 787 130T829 43Q837 34 849 28T874 19T900 15T922 14H930Q936 14 936 4Q936 -2 934 -3T926 -4Q915 -4 893 -3T841 -1T773 1T694 2Q660 2 627 1T559 -2Q549 -2 549 2Q549 5 550 7Q550 9 551 10Q553 20 563 20Q606 20 633 23T677 32T699 50T705 76Q705 91 701 113T691 161T677 212T664 256L551 623L340 354Q284 283 248 232T192 147T164 91T156 57Q156 49 162 43T184 31T228 23T301 20H309Q314 20 314 17T315 6Q315 1 312 -1T297 -4Q281 -4 233 -2T119 0Q79 0 40 -2T-41 -4Q-47 -4 -49 -3T-51 6Q-51 15 -48 15T-39 18Q-35 18 -33 19Q-31 19 -29 20Q-11 24 6 33T50 68T117 141T219 266L537 664L422 1051Q405 1107 393 1145T372 1209T357 1248T344 1268Q330 1277 305 1280T260 1284Q257 1284 256 1285T254 1294Q254 1303 264 1303H281Q332 1301 382 1299T485 1296Q507 1296 528 1296T571 1298Q579 1298 587 1299Q594 1299 600 1299T610 1300Q618 1300 618 1296L616 1286Q614 1281 614 1281T602 1278Q582 1277 561 1276T522 1271T491 1263T473 1249Q467 1240 467 1221Q467 1198 476 1160T504 1059L604 723L844 1040Q954 1184 954 1235Q954 1263 923 1270T834 1278H827Q821 1278 821 1282V1286Q823 1295 826 1296T840 1298H852Q861 1298 899 1296T1010 1294Q1047 1294 1071 1295T1111 1297T1137 1299T1155 1300Q1161 1300 1161 1296V1290Q1159 1282 1158 1282T1151 1280Q1149 1280 1146 1280T1140 1279Q1136 1278 1133 1278Q1119 1276 1109 1273T1086 1262T1056 1238T1013 1191T949 1113T856 995L614 686L727 311Z"  />
<glyph unicode="Y" horiz-adv-x="842" d="M485 729Q515 768 547 811T611 899T676 986T737 1069Q778 1125 802 1165T827 1231Q825 1262 788 1272T698 1282Q693 1282 693 1284T692 1292Q692 1298 695 1300T711 1303Q732 1303 775 1300T895 1296Q949 1296 984 1299T1022 1303Q1027 1303 1029 1302T1032 1296Q1032 1293 1031 1287T1022 1280Q1000 1278 983 1273T944 1247T886 1185T793 1069Q712 969 636 867T479 664Q464 645 456 630T443 603T437 581T434 561Q429 537 424 508T414 452Q409 421 403 391L393 342Q376 252 367 188T358 88Q358 57 365 49Q371 38 384 32T415 22T453 17T494 16Q499 16 500 15T502 6Q502 -2 492 -2H471Q425 0 379 1T285 2Q216 2 170 -1T96 -4Q87 -4 86 -2T84 6Q84 14 86 15T94 16H102Q147 19 180 24T231 45Q237 51 242 59T252 83T264 127T280 200T302 310T334 467Q335 474 337 482Q339 488 340 495T342 508Q348 542 353 564T358 608Q358 621 357 634T350 664Q321 763 285 868T217 1069Q202 1113 191 1144T172 1198T156 1235T141 1257Q130 1270 108 1276T57 1282Q54 1282 53 1282T51 1288Q51 1296 53 1298T61 1300Q69 1300 79 1299T104 1297T142 1295T199 1294Q264 1294 313 1297T408 1300Q414 1300 414 1296Q414 1285 410 1282T389 1278Q371 1277 350 1277T310 1275T277 1267T258 1247Q256 1243 256 1233Q256 1217 261 1195T276 1141L432 651Q437 660 442 668T452 684T466 703T485 729Z"  />
<glyph unicode="Z" horiz-adv-x="961" d="M1024 1296Q1024 1291 1021 1287T1014 1278Q1007 1269 984 1238T925 1159T841 1046T739 907T623 749T498 578L96 29H141Q194 29 252 30T370 35T484 42T587 52T669 65T721 80Q745 92 761 108T790 146T815 197T844 264Q845 270 848 276Q850 281 852 286T856 295Q861 307 863 311T870 315Q872 315 877 315T883 309Q883 306 882 303T879 291Q874 273 865 243T845 176T819 99T791 20Q787 14 786 10T780 -4Q778 -7 778 -8T772 -10Q770 -10 769 -10T762 -8Q757 -7 747 -5T716 -1T658 2T563 4H479Q363 4 282 4T148 3T64 1T18 0T-3 -1T-10 -2Q-16 -2 -16 2Q-16 8 -10 14Q10 42 30 71T74 131L901 1264H872Q747 1261 660 1260T513 1256T417 1245T358 1221Q339 1207 324 1182T296 1129T273 1072T256 1022Q253 1016 248 1016Q246 1016 240 1017T233 1024Q233 1027 233 1031T236 1042Q244 1075 251 1103T267 1158T285 1215T307 1282Q310 1293 313 1302T324 1311Q329 1311 329 1310T332 1309Q349 1299 393 1296T489 1292Q608 1292 738 1294T993 1298H1020Q1024 1298 1024 1296Z"  />
<glyph unicode="[" horiz-adv-x="596" d="M27 -483Q45 -388 66 -269T112 -17T163 261T217 549Q265 807 302 1022T369 1397Q371 1402 371 1404T377 1407Q406 1405 436 1404T498 1403Q536 1403 573 1405T647 1407Q660 1407 664 1407T668 1401Q668 1393 665 1389T649 1384Q636 1384 619 1384T584 1382T549 1379T518 1376Q497 1374 482 1369T455 1352T435 1318T420 1262Q410 1214 398 1152T369 1004T331 806T281 545Q242 341 216 191T171 -69T141 -250T121 -371Q119 -380 118 -390T117 -410Q117 -434 126 -452T160 -473Q172 -474 192 -474T233 -475T273 -476T305 -477Q316 -477 320 -477T324 -483Q324 -493 321 -496T305 -500Q239 -500 169 -502T35 -506Q25 -506 25 -498Q25 -495 25 -492T27 -483Z"  />
<glyph unicode="\" horiz-adv-x="821" d="M399 1315Q418 1143 445 920T504 418Q516 316 527 224T548 38T570 -154T596 -369H543Q526 -210 512 -79T485 166T461 376T439 564T418 740T396 917T372 1104T344 1315H399Z"  />
<glyph unicode="]" horiz-adv-x="596" d="M559 1384Q541 1289 520 1170T473 918T422 640T369 352Q321 94 284 -121T217 -496Q215 -501 215 -503T209 -506Q180 -504 150 -503T88 -502Q50 -502 13 -504T-61 -506Q-74 -506 -78 -506T-82 -500Q-82 -492 -79 -488T-63 -483Q-50 -483 -34 -483T1 -481T36 -478T68 -475Q89 -474 104 -469T131 -451T150 -417T166 -360Q176 -312 188 -250T217 -102T255 95T305 356Q344 560 370 709T415 966T444 1147T465 1272Q467 1281 468 1291T469 1311Q469 1335 460 1353T426 1374Q414 1375 394 1375T353 1376T312 1377T281 1378Q270 1378 266 1378T262 1384Q262 1394 265 1397T281 1401Q347 1401 417 1403T551 1407Q561 1407 561 1399Q561 1396 561 1393T559 1384Z"  />
<glyph unicode="^" horiz-adv-x="840" d="M713 723L436 1229L182 723H98L408 1333H459L795 723H713Z"  />
<glyph unicode="_" horiz-adv-x="983" d="M-119 -229H856L858 -295H-119V-229Z"  />
<glyph unicode="`" horiz-adv-x="1008" d="M426 1245Q418 1255 414 1261T406 1270T402 1277T401 1286Q401 1295 408 1299T434 1311Q450 1317 457 1320T471 1323Q477 1323 481 1317T494 1294L633 1026Q633 1024 634 1023T635 1020Q635 1018 629 1018H616Q610 1018 608 1021T600 1030L426 1245Z"  />
<glyph unicode="a" horiz-adv-x="799" d="M762 336Q727 245 688 178T613 66T544 -1T489 -23Q469 -23 457 -6T444 43Q444 70 451 110T472 202T505 315T549 444L545 446Q529 418 507 382T460 308T411 234T367 170Q291 64 229 21T119 -23Q82 -23 57 16T31 125Q31 183 46 239T87 347T146 450T215 547Q263 612 318 665T431 757T547 822T662 860Q669 882 675 894T686 913T698 922T713 924Q724 924 727 922T731 911Q731 909 723 879T702 802T672 698T640 585T609 479T584 397Q553 295 538 227T522 133Q522 116 528 102T557 88Q576 88 601 110T653 171T707 260T758 365L764 360Q770 357 770 354Q770 351 767 346T762 336ZM569 774Q537 774 495 754T407 700T317 622T238 530Q179 450 142 361T104 180Q104 131 119 102T172 72Q204 72 249 107T342 198T439 326T526 469T588 608T612 723Q612 751 602 762T569 774Z"  />
<glyph unicode="b" horiz-adv-x="788" d="M211 1399Q262 1413 305 1421T397 1440Q407 1442 414 1443T426 1444Q428 1444 430 1444T432 1442Q426 1425 412 1370T381 1239Q361 1152 343 1066T307 900T273 749T245 620T222 523T207 465L213 463Q262 567 316 645T425 775T530 853T625 879Q690 879 717 835T745 711Q745 635 726 552T673 386T590 230T482 100T354 11T211 -23Q178 -23 155 -12T117 21T95 70T88 133Q88 199 106 284T145 469L289 1135Q301 1195 307 1238T313 1321Q313 1358 285 1369T205 1384Q201 1384 201 1391Q201 1396 211 1399ZM573 811Q529 811 482 779T388 693T301 572T227 431T177 290T158 164Q158 102 182 65T266 27Q320 27 370 58T465 141T547 260T610 401T651 546T666 682Q666 710 662 733T648 774T620 801T573 811Z"  />
<glyph unicode="c" horiz-adv-x="567" d="M510 252L512 246Q516 238 516 236Q516 228 508 215Q486 173 457 131T393 55T318 -1T233 -23Q152 -23 112 49T72 252Q72 314 83 379T114 508T164 629T231 737Q291 817 359 852T489 887Q526 887 552 880T595 860T619 832T627 799Q627 770 617 762T596 754Q577 754 561 769T529 802T493 835T446 850Q398 850 345 808T244 674Q220 627 203 574T173 467T156 363T150 274Q150 163 179 103T276 43Q304 43 333 58T392 101T451 167T508 252H510Z"  />
<glyph unicode="d" horiz-adv-x="831" d="M852 1446Q858 1446 858 1440Q858 1431 855 1421T845 1386T827 1315T797 1188Q792 1166 782 1120T759 1010T729 871T696 718T663 563T632 420T607 301T590 221Q582 183 576 147T569 92Q569 78 573 73T586 68Q602 68 626 85T678 131T731 201T776 289H778V279Q778 256 768 231T741 180Q678 71 626 22T532 -27Q515 -27 502 -13T489 39Q489 70 501 126T530 252T568 396T606 541L598 543Q569 478 537 411T468 280T394 162T316 66T236 1T154 -23Q98 -23 69 30T39 180Q39 248 59 326T113 481T192 630T289 756T395 844T502 877Q521 877 538 876T573 868T606 848T641 813Q646 835 655 874T674 961T696 1060T716 1159T732 1243T741 1298Q741 1306 743 1315T745 1333Q745 1343 742 1352T731 1367T708 1378T668 1382H645Q634 1382 631 1383T627 1389Q627 1399 655 1405Q674 1409 698 1414T747 1424T793 1434T829 1442Q836 1444 841 1445T852 1446ZM502 844Q475 844 446 830T388 791T331 731T276 653Q235 585 205 519T156 393T128 281T119 190Q119 141 126 113T144 70T170 51T199 47Q234 47 277 84T366 179T454 310T531 452T588 584T614 682Q614 690 615 697T616 713Q616 778 584 811T502 844Z"  />
<glyph unicode="e" horiz-adv-x="631" d="M164 449Q151 386 149 334T147 248Q147 183 157 144T185 82T226 53T276 45Q312 45 345 59T408 97T468 151T526 215H528Q530 213 531 210T532 205Q532 202 521 185T481 137Q406 56 343 17T215 -23Q141 -23 104 46T66 246Q66 331 82 411T126 563T193 694T277 796T371 863T469 887Q535 887 574 848T614 741Q614 678 593 632T537 553T455 501T359 469T259 454T164 449ZM444 842Q384 842 341 815T265 738T209 622T166 475Q253 475 323 487T442 529T518 608T545 731Q545 760 536 781T513 815T481 835T444 842Z"  />
<glyph unicode="f" horiz-adv-x="473" d="M236 827Q242 862 244 875T250 901Q268 976 284 1033T322 1139T372 1231T444 1323Q497 1382 560 1411T680 1440Q734 1440 764 1410T795 1331Q795 1305 787 1294T752 1282Q741 1282 735 1288T721 1317Q710 1352 691 1372T633 1393Q558 1393 505 1345T415 1219T354 1039T311 829H541Q545 829 545 825Q545 823 544 818T541 807L537 791Q537 786 530 786H303L199 217Q185 142 175 86T156 -14Q144 -75 131 -133T99 -245T55 -350T-6 -446Q-86 -545 -180 -545Q-220 -545 -239 -529T-258 -492Q-258 -473 -244 -459T-217 -444Q-209 -444 -201 -450T-188 -461Q-168 -482 -153 -489T-117 -496Q-84 -496 -58 -472T-8 -392T36 -246T80 -25Q88 22 95 67T111 158L227 786H113Q109 786 109 788V791L111 795Q114 801 115 803T123 807L236 827Z"  />
<glyph unicode="g" horiz-adv-x="705" d="M745 786Q742 786 725 788T659 797Q638 800 630 801T614 804T597 806T561 811Q581 776 586 745T592 684Q592 609 574 535T519 401T426 299T293 248Q213 186 213 131Q213 74 295 31Q307 25 329 14T389 -18Q419 -34 464 -55T553 -106T626 -174T657 -264Q657 -321 620 -373T517 -464T364 -527T178 -551Q39 -551 -37 -502T-113 -365Q-113 -322 -85 -279T-4 -194T124 -117T293 -51Q225 -19 190 17T154 96Q154 171 270 248Q238 250 223 256T195 270Q153 295 136 345T119 473Q119 505 127 547T150 636T189 726T242 806T310 863T393 885Q409 885 428 884T463 877L485 870Q521 868 551 867T610 862T668 856T731 848Q747 846 756 844T769 840T775 833T776 821Q776 796 769 791T745 786ZM434 860Q402 860 370 837T309 777T255 691T212 592T183 490T172 399Q172 336 197 305T268 274Q306 274 344 295T420 369Q443 403 464 446T501 537T527 631T537 717Q537 780 508 820T434 860ZM496 -164Q481 -156 471 -150T444 -133T395 -105T309 -59Q263 -79 205 -105T96 -165T10 -244T-25 -342Q-25 -383 -4 -414T52 -468T134 -501T233 -512Q302 -512 368 -498T485 -442Q533 -407 556 -364T580 -279Q580 -250 557 -218T496 -164Z"  />
<glyph unicode="h" horiz-adv-x="795" d="M369 -18Q355 -18 350 -11T344 8Q344 13 344 19T346 33Q352 59 366 65T410 72H442Q448 72 461 78T491 103T529 158T567 254Q594 341 611 405T639 517T653 603T657 676Q657 705 654 730T642 773T621 801T586 811Q550 811 506 780T416 693T325 563T240 402T170 223T123 37Q118 9 109 -2T86 -14Q83 -14 80 -13T74 -12Q57 -9 51 -1T45 18Q45 29 48 41T55 68Q69 122 88 197T128 361T173 548T220 748T264 949T303 1141Q319 1219 327 1269T336 1343Q336 1374 323 1381T283 1391L252 1393Q248 1393 248 1395Q248 1400 250 1402T262 1407Q294 1413 325 1420T387 1434Q413 1439 426 1441T449 1444Q454 1444 454 1443T455 1438Q455 1436 455 1433T453 1425Q449 1412 440 1378T419 1294T392 1184T362 1057T330 924T299 795Q287 744 278 709T262 644T247 589T232 531T213 458T188 358H190Q259 506 319 606T432 769T534 858T629 885H631Q682 883 708 842T735 723Q735 653 719 571T674 406T610 248T532 112T449 18T369 -18Z"  />
<glyph unicode="i" horiz-adv-x="434" d="M391 1180Q380 1180 370 1186T352 1202T339 1224T334 1249Q335 1262 341 1275T356 1298T376 1314T399 1321Q421 1321 438 1302T455 1257V1253Q455 1240 449 1227T434 1204T414 1187T391 1180ZM94 647V662Q94 666 95 670T100 681T111 698T131 723Q148 743 162 760T193 791Q239 834 277 856T346 879Q363 879 370 867T377 836Q377 822 374 807T368 777T360 750T354 731L160 158Q155 142 150 126T145 96Q145 76 160 76Q179 76 208 95T267 140T323 194T362 240H365V215Q365 210 364 205T357 192T343 174T319 147Q245 64 193 21T102 -23Q81 -23 72 -10T63 29Q63 75 76 116T102 193L268 690Q269 696 272 705T278 723T283 743T285 760Q285 769 283 773T270 778Q252 778 236 772T200 750T155 710T96 647H94Z"  />
<glyph unicode="j" horiz-adv-x="442" d="M393 1188Q373 1188 358 1207T342 1249Q342 1261 348 1274T363 1298T384 1316T406 1323Q426 1323 441 1303T457 1260Q457 1248 451 1235T436 1212T415 1195T393 1188ZM88 610V623Q88 626 89 629T94 639T108 657T135 688Q216 782 276 829T371 877Q397 877 397 844Q397 838 397 832T393 810T383 766T364 691T333 573T287 401Q274 356 263 310T240 215Q211 106 191 18T151 -144T106 -278T41 -393Q-12 -464 -69 -506T-186 -549Q-214 -549 -233 -537T-252 -504Q-252 -496 -250 -487T-242 -469Q-232 -454 -226 -448T-211 -442Q-205 -442 -198 -446T-180 -453Q-147 -465 -121 -465Q-96 -465 -77 -456T-37 -430Q-28 -423 -13 -398T20 -337T53 -256T80 -166L283 664Q288 681 290 705T293 737Q293 754 279 754H272Q262 752 244 742T201 712T149 667T92 610H88Z"  />
<glyph unicode="k" horiz-adv-x="860" d="M233 1399Q233 1404 236 1406T250 1411Q331 1430 371 1436T426 1442Q431 1442 442 1441T453 1436Q453 1434 453 1432T451 1425Q447 1415 441 1385T425 1310T405 1210T379 1096Q357 1006 340 915T297 731L270 625L272 623Q323 698 373 748T469 829T556 872T629 885Q684 885 710 846T737 719Q737 648 718 592T645 508Q627 499 607 492T561 481T503 473T428 469Q438 409 451 355T480 256T509 174T535 113Q561 56 599 23T680 -10Q702 -10 718 10T735 53Q735 64 729 76Q726 84 724 91T721 106Q721 112 725 120T735 134T749 145T766 150Q780 150 789 137T799 100Q799 74 787 49T754 4T704 -28T641 -41Q539 -41 465 84T354 461H238Q221 365 200 263T162 63Q158 44 156 28T149 1T137 -16T117 -23Q112 -23 106 -22T94 -18Q79 -13 74 -5T68 14Q68 28 72 45T82 84Q86 103 90 122T101 168T115 231T135 319Q160 430 180 517T215 676T243 804T266 913Q268 918 269 926T270 936Q292 1041 305 1115T328 1241Q333 1266 334 1284T336 1319Q336 1343 330 1356T313 1377T284 1387T242 1389H238Q233 1389 233 1393V1399ZM588 825Q560 825 532 815T475 787T420 747T369 698Q340 668 319 643T284 594T259 543T242 483Q266 486 277 486T299 487Q338 488 388 490T485 500T572 523T629 563Q646 588 654 622T662 705Q662 730 659 752T647 790T625 815T588 825Z"  />
<glyph unicode="l" horiz-adv-x="461" d="M479 1432Q474 1416 466 1386T446 1309L190 274Q175 209 167 168T158 109Q158 84 174 84Q191 84 217 102T274 148T333 207T387 266H391V250Q391 245 389 239T385 229Q380 221 372 209T344 174Q253 67 197 22T109 -23Q72 -23 72 35Q73 48 74 63T79 99T87 148T102 215L340 1188Q351 1233 358 1269T365 1327Q365 1345 358 1354T337 1368T305 1373T264 1376Q256 1376 256 1380Q256 1396 266 1399L285 1403Q337 1417 377 1426T440 1440Q445 1442 454 1443T471 1444Q474 1444 477 1444T481 1438Q481 1436 480 1435T479 1432Z"  />
<glyph unicode="m" horiz-adv-x="1329" d="M1257 287Q1255 282 1251 273T1235 246Q1198 190 1160 141T1087 56T1020 -2T967 -23Q957 -23 953 -15T948 6Q948 23 954 48T973 111L1075 483Q1095 558 1109 617T1128 721Q1130 730 1130 737T1130 752Q1130 783 1120 800T1085 817Q1059 817 1028 791T961 721T890 617T818 493T751 361T691 232T645 118T616 31Q611 12 605 -2T584 -16Q581 -16 578 -15T569 -12Q554 -6 548 2T541 27Q541 35 542 45T549 70L641 362Q659 421 675 484T703 601T722 697T729 756Q729 790 719 805T682 821Q649 821 609 791T525 707T437 582T353 427T278 254T219 74Q211 45 207 28T198 3T190 -8T180 -10Q159 -10 149 3T139 33Q141 38 141 42T143 51Q145 60 149 78T162 127L279 561Q289 598 297 633T313 698T324 748T328 776Q326 792 319 800T291 809Q264 807 237 784T186 729T143 663T111 606H106V621Q106 632 107 639T113 655Q116 665 123 678T145 717Q173 764 200 796T253 849T301 879T342 889Q373 889 385 872T397 827Q397 798 391 768Q388 753 384 737T375 705Q362 658 332 558T256 317L262 315Q279 349 300 391T347 480T402 575T463 670Q494 715 527 755T595 825T664 872T733 889Q764 889 782 867T801 799Q801 767 793 722T769 615T730 475T676 297L682 295Q684 300 697 328T733 398T784 494T847 601T918 706T994 798T1069 862T1141 887Q1178 887 1192 858T1206 784Q1206 769 1205 752T1200 717Q1195 683 1187 649T1171 584T1156 530T1145 494L1040 137Q1035 122 1034 112T1032 96Q1032 88 1040 88Q1052 88 1071 102T1112 139T1157 188T1202 241T1239 288T1262 319V303Q1262 298 1261 295T1257 287Z"  />
<glyph unicode="n" horiz-adv-x="881" d="M842 326Q829 306 817 287T793 248Q709 120 646 50T539 -20Q518 -20 518 10Q518 30 524 57Q537 113 553 167T584 268Q609 349 629 424T665 562T688 676T696 756Q696 780 687 797T655 815Q623 815 587 787T513 712T437 603T364 474T297 338T239 208T195 99T168 23Q162 1 155 -12T129 -25Q114 -25 108 -18T102 2Q102 11 103 21T109 43Q118 81 137 150T182 313L188 334Q224 458 249 545T287 690Q292 712 293 729T295 760Q295 803 268 803Q250 803 231 790T190 754T147 698T102 627L96 614V629Q96 638 101 652T127 702Q181 798 230 842T324 889Q348 889 358 870T369 819Q369 793 363 761T348 690Q337 646 323 598T292 500T259 400T227 303L233 299Q377 588 497 735T702 883Q722 883 735 875T756 853T767 820T770 780Q767 735 760 697T743 621Q716 512 685 398T623 172Q615 144 612 128T608 104Q608 96 612 95T621 94Q648 97 700 157T840 346L846 354V342Q846 339 846 336T842 326Z"  />
<glyph unicode="o" horiz-adv-x="731" d="M207 711Q263 796 333 841T479 887Q567 887 616 822T666 631Q666 569 655 497T620 352T563 211T484 91T381 8T256 -23Q168 -23 120 47T72 248Q72 382 109 500T207 711ZM276 4Q339 4 401 68T508 254Q525 300 540 352T566 459T583 567T590 670Q590 712 583 747T560 807T523 847T473 862Q402 862 344 802T240 627Q198 518 174 415T150 211Q150 115 181 60T276 4Z"  />
<glyph unicode="p" horiz-adv-x="748" d="M223 793Q233 841 240 886T254 979Q257 999 260 1011T269 1031T287 1041T317 1044Q348 1044 348 1020Q348 1012 346 1003T340 983Q335 965 329 941T318 892T308 847T303 813L336 821Q457 858 545 858Q629 858 673 815T717 670Q717 612 705 548T670 421T619 298T557 193Q498 109 430 62T291 14Q256 14 225 24T156 61L100 -252Q89 -317 84 -359T78 -430Q78 -462 86 -476T114 -495T162 -500T233 -502H242Q245 -502 247 -502T250 -508Q250 -510 249 -511T248 -514Q246 -523 244 -524T236 -526Q231 -526 188 -523T43 -520Q-15 -520 -50 -521T-104 -523T-132 -525T-143 -526Q-150 -526 -150 -520V-516Q-150 -510 -148 -508T-139 -504Q-99 -498 -75 -498T-35 -483Q-24 -473 -16 -454T2 -398T21 -307T47 -172L217 756Q180 748 143 735T80 713V729Q80 741 82 744T90 750Q106 756 127 763Q144 769 169 776T223 793ZM209 346Q200 301 190 256T180 170Q180 144 185 123T205 86T241 62T299 53Q361 53 416 106T520 262Q568 358 600 455T633 653Q633 732 599 767T479 803Q422 803 379 794T295 774L209 346Z"  />
<glyph unicode="q" horiz-adv-x="795" d="M754 866Q754 864 752 856T748 842Q734 789 717 711T679 541T637 346T596 143T557 -52T524 -222T502 -352T492 -426V-436Q492 -478 515 -489T580 -504H588Q596 -504 596 -510L594 -518Q592 -523 590 -524T580 -526Q570 -526 535 -523T422 -520Q348 -520 311 -523T262 -526Q257 -526 256 -524T254 -514Q254 -509 255 -508T262 -504Q268 -502 270 -502H274Q295 -499 310 -498T337 -496T358 -491T375 -481Q385 -472 394 -454T412 -401T432 -316T459 -190L571 346L565 348Q531 295 490 237T400 129T299 47T188 14Q125 14 91 63T57 203Q57 288 78 358T127 489Q163 568 212 640T314 767T422 854T524 887Q547 887 571 882T616 865T654 837T682 797L729 862Q732 867 735 872T741 877Q744 877 749 873T754 866ZM526 852Q486 852 440 817T349 723T263 589T190 436Q164 367 148 301T131 170Q131 116 150 85T213 53Q240 53 275 75T348 134T425 221T498 324T561 433T606 537Q617 569 626 612T635 700Q635 730 630 757T611 806T578 839T526 852Z"  />
<glyph unicode="r" horiz-adv-x="657" d="M96 614V629Q96 637 100 652T113 682Q128 713 150 749T197 815T252 865T311 885Q337 885 346 863T356 809Q356 778 352 741T342 682Q313 555 278 425T209 166H215Q230 203 252 263T303 395T364 540T430 680Q483 779 532 834T637 889Q671 889 690 866T709 797Q709 781 706 766T697 739T681 720T657 713Q637 713 631 724T625 750Q625 758 626 765T627 780Q627 797 622 811T598 825Q582 825 564 808T529 768T497 721T473 682Q455 652 432 607T383 508T330 391T276 265T226 138T182 18Q174 -3 170 -14T150 -25Q127 -25 119 -13T111 14Q111 36 117 57L227 471Q246 539 257 580T274 651Q277 661 280 674T285 703T289 732T291 758Q291 776 286 789T264 803Q247 803 228 789T189 750T147 694T104 625L102 621Q101 619 100 618T98 614H96Z"  />
<glyph unicode="s" horiz-adv-x="520" d="M477 776Q469 776 459 783T432 801Q412 813 388 817T344 821Q306 821 277 813T225 776Q193 735 193 686Q193 660 201 634T223 581T252 531T283 485L328 422Q357 380 378 332T399 231Q399 191 384 151T330 68Q310 46 288 29T239 1T181 -17T109 -23Q53 -23 31 -7T8 47Q8 67 17 75T41 84Q56 84 73 78T102 66Q130 55 156 48T207 41Q239 43 262 51T307 82Q329 104 337 127T346 176Q346 223 322 273T260 377L215 442Q139 552 139 635Q139 680 156 718T205 791Q247 837 295 862T406 887Q467 887 488 869T510 819Q510 801 501 789T477 776Z"  />
<glyph unicode="t" horiz-adv-x="502" d="M571 788Q571 784 567 784H332L279 578Q259 499 241 429T208 301T186 199T178 127Q178 86 199 86Q220 86 249 102T308 142T368 192T420 238L442 258Q450 264 449 254T442 238Q399 190 354 146T260 59Q220 24 185 3T125 -18Q108 -18 100 -1T92 47Q92 88 103 148T131 278T168 423T207 571L260 786L139 784Q135 784 135 788L137 799Q137 802 140 805T154 811L272 834L324 1026L330 1047Q332 1055 340 1060T369 1071Q375 1073 380 1073T391 1073Q397 1073 401 1071T406 1061Q406 1058 405 1054T401 1042L344 834L569 836Q572 836 576 836T580 831L571 788Z"  />
<glyph unicode="u" horiz-adv-x="885" d="M842 328Q839 301 827 285Q812 259 795 232T762 179T729 128T700 84Q668 36 627 9T551 -18Q528 -18 517 -5T506 37Q506 46 507 55T510 78Q516 117 532 172T569 288T614 414T659 534T697 634T721 700L733 737H731Q670 636 608 540T487 362T379 215T295 115Q259 76 233 51T185 10T148 -11T115 -18Q96 -18 89 -3T82 39Q82 64 87 96T102 161T121 228T141 288T158 335T168 362Q180 395 198 444T235 544T271 639T297 707Q303 721 305 730T307 745Q307 756 301 756Q293 756 281 749T254 730T223 701T191 669Q154 630 113 580L111 578Q109 580 107 581T104 586V588Q104 590 106 592Q112 604 125 622T152 658T177 690T190 707Q231 758 262 792T318 848T361 879T393 889Q403 889 407 883T412 866Q412 854 408 839T399 811Q391 790 377 753T347 670T312 577T278 484T249 403T229 348Q220 321 210 290T191 228T176 169T170 121Q170 86 190 86Q214 86 254 120T344 214T449 349T556 507T653 672T729 825Q733 833 737 842Q740 849 743 857T750 870Q756 887 772 887Q783 887 795 879Q809 867 809 850Q809 847 808 844T807 838Q804 821 799 807T786 776Q745 653 715 559T664 395T629 279T608 209Q605 197 602 183T597 154T594 128T592 109Q592 96 596 88T612 80Q631 80 653 98T696 139Q733 180 770 238T842 352V328Z"  />
<glyph unicode="v" horiz-adv-x="801" d="M86 586V600Q86 608 90 616T100 631Q141 687 182 733T260 814T330 866T383 885Q389 885 394 880T399 862Q398 852 396 840T388 805T371 742T340 637Q314 552 290 468T248 315T217 196T203 129Q201 120 201 112T201 98Q201 80 206 75T229 70Q254 71 292 94T371 152T452 232T524 319Q565 374 598 429T655 536T692 634T705 717Q705 735 701 748T682 780Q666 804 666 825Q666 849 688 868Q699 878 707 881T723 885Q734 885 742 878T756 859T765 832T768 801Q768 719 742 639T674 482T576 334T461 199Q358 86 284 33T158 -20Q142 -20 134 -8T125 41Q125 67 131 108T152 211T191 360T252 565Q252 568 253 570Q253 572 254 573Q269 619 279 651T295 706T304 742T307 762Q307 770 305 771T297 772Q282 772 254 751T195 700T136 640T90 590L88 586H86Z"  />
<glyph unicode="w" horiz-adv-x="1157" d="M80 586V600Q80 605 81 611T90 628T112 657T152 705Q184 745 217 778T279 836T332 873T369 887Q374 887 383 883T393 860Q393 854 392 845T386 819T373 773T352 700Q350 695 348 687T343 672Q340 663 338 655Q301 542 275 454T233 298T209 185T201 109Q201 57 223 57Q243 57 272 81T337 146T412 241T490 354T569 476T643 594L676 647L691 707Q697 731 703 754T713 788Q718 806 724 823T739 854T757 876T782 885H791Q811 882 820 872T829 846Q829 823 816 794T768 715Q755 673 740 622T709 517T678 410T651 309Q630 228 616 175T602 92Q602 57 625 57Q657 57 702 88T795 166T887 268T961 373Q989 420 1012 462T1052 546T1079 629T1090 713Q1090 749 1073 780Q1062 797 1060 803T1057 821Q1058 831 1063 842T1076 863T1096 879T1120 885Q1136 885 1149 864T1163 797Q1163 709 1122 604T999 377Q979 346 948 304T878 218T799 130T716 53T638 -2T571 -23Q540 -23 531 -5T522 39Q522 51 523 64T526 90Q531 118 541 160T569 261T609 398T664 575H659Q550 395 471 280T334 97T237 3T168 -23Q154 -23 141 -5T127 55Q128 92 135 140T157 255T197 410T256 614Q260 628 265 647T275 684Q280 705 287 727Q290 739 292 748T295 764Q295 774 287 774Q265 774 220 733T92 596L82 586H80Z"  />
<glyph unicode="x" horiz-adv-x="864" d="M137 614Q137 623 140 639T148 675T158 712T168 745Q190 815 225 850T295 885Q315 885 329 878T356 850T378 795T401 705L446 498Q504 586 549 648T628 754T686 822T729 861T762 879T788 883Q811 883 825 861T840 791Q840 779 840 766T837 740T831 719T817 705Q807 700 801 700Q796 700 795 702T793 713Q789 753 782 776T752 799Q740 799 726 793T694 773T654 733T602 670Q578 639 559 614T523 565T490 518T455 469Q456 466 457 461T459 451Q460 446 461 440Q478 368 492 301T522 182T555 99T596 68Q621 68 648 92T700 150T745 220T778 279H782V256Q782 247 781 241T777 228T770 214T762 195Q750 170 728 134T679 63T621 5T565 -20Q540 -20 522 -3T485 58T448 181T401 383Q401 386 400 390Q399 393 399 396T397 403Q370 360 338 311T272 214T204 120T141 41Q106 1 81 -13T35 -27Q12 -27 -7 -3T-27 74Q-27 112 -22 132T8 162Q13 164 17 165T25 166Q34 166 39 159T47 135Q50 95 58 84T82 72Q102 72 132 99T201 174T287 288T389 434Q365 541 351 613T325 728T300 791T266 811Q248 811 231 793T199 744T171 674T150 592L137 614Z"  />
<glyph unicode="y" horiz-adv-x="807" d="M528 104Q446 -52 370 -173T214 -377T48 -503T-141 -547Q-164 -547 -191 -542T-242 -525T-281 -492T-297 -440Q-297 -420 -281 -404T-244 -387Q-217 -387 -205 -422Q-191 -457 -167 -470T-106 -483Q-29 -483 37 -455T158 -378T260 -269T346 -141Q360 -117 369 -99T383 -65T391 -35T393 -4Q393 5 392 21T390 54T387 87T385 111Q383 132 381 168T374 250T363 350T350 461Q342 538 331 602T304 712T265 785T207 811Q181 811 157 794T113 744T80 665T61 563Q58 542 58 537T49 532Q44 532 42 533T39 541Q39 567 44 602T60 675T87 750T127 817T179 865T246 883Q286 883 315 852T366 767T401 638T424 475Q430 418 436 366T447 260T455 153T459 37Q523 157 574 273Q596 322 616 376T653 483T680 586T692 678Q692 697 691 711T685 738T673 761T653 786Q650 793 643 805T635 834Q635 845 640 854T659 872Q670 879 678 881T694 883Q710 883 721 873T741 846Q751 826 753 802T756 756Q756 708 742 642T700 492T629 311T528 104Z"  />
<glyph unicode="z" horiz-adv-x="762" d="M123 649Q123 665 130 684T145 729Q155 762 161 783T172 816T180 836T188 850Q199 868 213 876T252 885Q292 885 338 877T434 858Q482 849 531 839T631 823L637 834Q651 857 669 871T702 885Q719 885 727 876T737 854Q737 841 732 828T714 803T681 784T631 772Q521 620 407 467T186 176H211Q235 176 261 173T313 159T366 132T416 86Q428 74 451 50T512 -14Q528 -30 541 -39T565 -54T588 -61T614 -63Q642 -63 661 -47T680 -8Q680 4 673 13T666 37Q666 49 679 59T709 70Q718 70 724 65T735 53T741 38T743 25Q742 3 729 -19T692 -60T636 -90T567 -102Q539 -102 511 -92T452 -62T384 -10T303 63Q272 92 246 108T193 125Q152 123 130 102T94 37Q85 6 63 6Q46 6 39 19T31 47V53Q33 75 44 94T71 129T105 156T141 172Q189 238 244 313T357 467T474 622T590 770Q565 771 548 771T518 773T491 776T461 780Q414 786 367 792T276 799Q241 799 224 793T197 774Q190 766 185 756T174 729Q168 714 162 696T145 653Q141 639 133 639Q128 639 126 642T123 649Z"  />
<glyph unicode="{" horiz-adv-x="586" d="M662 1438Q662 1423 653 1423Q585 1423 544 1394T475 1297T428 1118T385 842Q372 749 354 681T306 567T231 498T119 471Q164 469 193 455T241 417T266 358T274 281Q274 238 268 188T252 82T231 -31T209 -150Q201 -195 193 -244T184 -340Q184 -372 190 -399T211 -447T252 -480T319 -492Q324 -492 324 -494Q324 -496 323 -502T317 -508Q260 -508 223 -494T163 -454T132 -393T123 -317Q123 -283 128 -245T139 -168T154 -90T168 -14Q183 79 199 159T215 303Q215 339 208 367T182 414T132 443T55 453Q45 453 45 461V471Q48 487 52 489T70 492Q153 492 197 520T265 599T300 724T326 889Q339 964 348 1034T371 1165T403 1278T455 1366T536 1423T655 1444Q660 1444 661 1443T662 1438Z"  />
<glyph unicode="|" horiz-adv-x="455" d="M211 -442V1421H285V-442H211Z"  />
<glyph unicode="}" horiz-adv-x="586" d="M-82 -502Q-82 -487 -74 -487Q-7 -487 35 -458T104 -361T152 -182T195 94Q208 187 226 255T274 369T349 438T461 465Q416 466 386 480T338 519T313 578T305 655Q305 698 311 748T328 853T349 966T371 1085Q379 1130 387 1179T395 1276Q395 1307 389 1335T368 1383T327 1415T260 1427Q256 1427 256 1430Q256 1432 256 1438T262 1444Q320 1444 357 1430T417 1390T448 1329T457 1253Q457 1218 452 1181T441 1104T426 1026T412 950Q396 857 381 777T365 633Q365 597 372 569T398 522T447 493T524 483Q535 483 535 475V465Q531 449 528 447T510 444Q427 444 383 416T315 336T280 211T254 47Q241 -28 232 -98T209 -229T176 -342T124 -430T44 -487T-76 -508Q-81 -508 -81 -507T-82 -502Z"  />
<glyph unicode="~" horiz-adv-x="840" d="M811 731Q800 691 783 658T740 600T680 561T600 547Q547 547 503 571T412 631Q383 651 349 666T287 682Q254 682 230 672T188 643T156 599T129 545L78 571Q84 597 97 629T134 690T196 738T287 758Q342 758 385 736T467 684Q510 653 544 638T610 623Q663 623 696 659T758 758L811 731Z"  />
<glyph unicode="&#xA0;" horiz-adv-x="344" />
<glyph unicode="&#xA1;" horiz-adv-x="516" d="M274 567Q274 566 274 565T273 561Q272 559 272 557Q238 396 216 251T176 -17T146 -239T117 -408Q113 -427 108 -439T95 -457T73 -466T37 -469Q20 -469 13 -463T6 -440Q6 -435 6 -431T8 -418Q26 -310 53 -206T111 12T176 259T242 555Q245 572 247 582T264 592Q272 592 274 592T276 586Q276 583 276 578T274 567ZM313 885Q325 885 337 878T358 861T374 838T381 815Q380 803 373 790T354 766T330 748T305 741Q294 741 282 748T261 765T245 788T238 811Q238 823 246 836T265 860T289 878T313 885Z"  />
<glyph unicode="&#xA2;" horiz-adv-x="840" d="M791 1042Q791 1033 789 1023T783 1004T771 989T752 983Q732 983 715 998T679 1033T639 1067T588 1083Q544 885 502 690T418 297Q452 303 486 324T550 375T605 436T649 496L653 498Q656 493 661 487T666 475Q649 439 621 400T557 327T482 266T403 229L358 12H311L360 221Q355 219 351 219T342 219Q289 219 254 242T196 301T165 383T156 473Q156 532 168 599T202 732T259 862T337 978T435 1067T553 1118Q562 1160 570 1200T586 1282H631Q623 1244 614 1205T596 1126Q605 1128 615 1128T635 1128Q655 1128 682 1125T733 1112T774 1086T791 1042ZM545 1077Q498 1067 458 1036T385 959T326 859T282 748T255 639T246 543Q246 508 249 467T266 388T306 325T377 295Q422 491 464 685T545 1077Z"  />
<glyph unicode="&#xA3;" horiz-adv-x="840" d="M805 1085Q783 1085 779 1097T774 1124V1143Q774 1176 761 1198T727 1234T678 1254T623 1260Q563 1260 519 1242T443 1192T391 1118T359 1029T343 932T338 834Q338 781 338 729T342 625Q398 625 451 626T561 627V625L553 590L551 588H342Q342 553 344 519T346 449Q346 395 341 352T321 272T283 199T219 125Q267 120 310 107T395 79T478 54T565 43Q587 43 613 48T662 66T700 99T715 147Q715 170 709 182T694 201T679 215T672 233Q672 249 685 264T715 279Q729 279 738 273T752 256T760 233T762 209Q762 162 741 120T685 46T606 -4T516 -23Q462 -23 417 -12T330 15T247 44T158 63Q149 54 135 41T106 17T75 -3T45 -12Q33 -12 24 -3T14 20Q14 49 33 69T79 101T137 119T188 127Q236 172 253 227T270 346Q270 406 266 467T256 588H66L63 590Q64 594 65 600T67 612T71 622T78 627L256 625Q254 662 252 697T250 770Q250 822 255 872T272 970T306 1063T360 1151Q384 1182 419 1213T494 1269T578 1309T662 1325Q699 1325 736 1317T803 1290T851 1241T870 1167Q870 1135 856 1110T805 1085Z"  />
<glyph unicode="&#xA4;" horiz-adv-x="840" d="M793 342L698 436Q647 393 585 370T457 346Q431 346 402 350T342 365T278 393T215 436L121 342L70 395L166 485Q126 538 103 597T80 725Q80 794 102 854T166 965L70 1057L121 1110L215 1016Q281 1066 343 1085T457 1104Q484 1104 515 1099T577 1082T639 1055T696 1016L793 1110L844 1057L748 965Q796 908 816 848T836 725Q836 657 813 598T748 485L844 395L793 342ZM762 727Q762 794 736 850T667 946T570 1008T459 1030Q393 1030 337 1006T241 940T177 843T154 727Q154 665 178 609T243 511T339 445T457 420Q519 420 574 444T671 511T737 609T762 727Z"  />
<glyph unicode="&#xA5;" horiz-adv-x="840" d="M170 727L176 762L180 764H369Q364 780 353 819T326 910T293 1017T259 1123T226 1207T199 1253Q192 1259 182 1262T160 1268T138 1272T119 1274Q108 1274 105 1275T102 1288Q102 1299 107 1301T121 1303Q135 1303 182 1300T305 1296Q364 1296 401 1299T453 1303Q461 1303 462 1300T463 1288Q463 1277 460 1276T440 1274Q431 1274 416 1273T389 1272Q376 1272 364 1271T341 1264T325 1248T319 1221Q319 1204 327 1169T347 1088T376 986T410 875T444 765T473 664Q554 782 612 866T710 1010T773 1106T809 1168T825 1205T829 1231Q829 1240 827 1248T812 1263T776 1274T709 1278Q702 1278 702 1292Q702 1294 704 1298T709 1303Q727 1303 766 1300T866 1296Q903 1296 940 1300T1014 1305Q1019 1305 1020 1304T1022 1298Q1022 1287 1021 1284T1008 1278L995 1276Q968 1271 926 1226T829 1110T712 948T582 764H748V762Q747 760 746 754T744 742T742 730T739 723L555 725Q523 684 503 656T473 598Q468 584 465 568T459 537H709L711 535Q710 532 710 527T708 515T706 503T702 496Q639 496 577 497T451 498L403 242Q395 203 390 166T385 94Q385 65 394 51T418 30T454 24T498 23Q501 23 511 23T522 18Q522 10 521 4T512 -2Q467 -2 423 1T334 4Q286 4 238 1T141 -2Q137 -2 137 0Q137 19 141 22T162 25Q172 25 185 25T212 27T239 32T260 41Q273 49 284 70T304 118T320 177T332 237T341 291T348 330L381 498H131L129 500L135 532L139 537H389Q392 554 396 573T401 610Q401 639 394 668T379 725L174 723L170 727Z"  />
<glyph unicode="&#xA6;" horiz-adv-x="455" d="M209 739V1421H285V739H209ZM209 -440V240H285V-440H209Z"  />
<glyph unicode="&#xA7;" horiz-adv-x="840" d="M778 1157Q773 1157 770 1160T760 1174Q735 1209 697 1224T614 1239Q566 1239 526 1221T456 1172T411 1102T395 1020Q395 991 401 963T428 893T485 790T582 633Q612 585 631 548T663 481T679 423T684 367Q684 315 670 267T626 176T547 93T428 18Q449 -19 464 -49T488 -107T502 -158T506 -207Q506 -274 479 -335T407 -444T300 -520T172 -549Q137 -549 107 -540T56 -517T22 -486T10 -451Q10 -426 25 -412T63 -397Q69 -397 72 -398T79 -403T88 -416T102 -438Q121 -466 157 -482T231 -498Q275 -498 314 -483T384 -439T431 -371T449 -285Q449 -248 441 -214T415 -137T365 -39T285 96Q254 147 233 186T200 259T182 320T176 375Q176 442 195 495T249 589T330 661T432 715Q423 733 408 757T379 810T355 873T344 944Q344 1019 371 1083T443 1195T548 1270T674 1298Q710 1298 738 1291T785 1271T815 1242T825 1210Q825 1184 810 1171T778 1157ZM446 696Q400 676 362 651T297 594T254 525T238 442Q238 401 248 361T276 282T313 207T354 139Q364 122 377 100T416 37Q459 60 497 90T563 154T607 227T623 307Q623 345 616 379T588 456T534 556T446 696Z"  />
<glyph unicode="&#xA8;" horiz-adv-x="891" d="M522 1135Q521 1125 514 1114T497 1093T475 1077T451 1071Q442 1071 432 1077T413 1091T399 1110T393 1128Q393 1140 399 1153T416 1176T439 1193T463 1200Q472 1200 482 1194T501 1178T516 1157T522 1135ZM680 1071Q671 1071 661 1077T642 1091T629 1110T623 1128Q623 1140 629 1153T646 1176T668 1193T692 1200Q701 1200 711 1194T731 1178T746 1157T752 1135Q751 1125 744 1114T727 1093T704 1077T680 1071Z"  />
<glyph unicode="&#xA9;" horiz-adv-x="1567" d="M1487 649Q1487 559 1464 476T1398 320T1296 188T1164 86T1008 20T834 -4Q744 -4 661 19T504 85T372 187T270 319T204 475T180 649Q180 739 203 822T269 979T371 1111T504 1213T660 1279T834 1303Q924 1303 1007 1280T1163 1214T1295 1112T1397 979T1463 823T1487 649ZM1432 649Q1432 773 1385 882T1257 1072T1066 1200T834 1247Q751 1247 675 1226T533 1165T412 1072T318 951T258 808T236 649Q236 567 257 491T318 348T411 227T532 133T675 73T834 51Q957 51 1066 98T1256 226T1385 416T1432 649ZM1112 971Q1100 936 1093 901T1077 829Q1077 824 1069 821Q1066 819 1064 819T1059 819Q1057 819 1057 829V852V870Q1057 896 1053 915T1038 946Q1029 955 1013 961T977 971T936 977T893 979Q835 979 784 956T692 891T624 789T586 655Q580 613 580 575Q580 457 637 388T805 319Q882 319 929 343T1014 416Q1017 421 1020 425T1028 430Q1030 430 1033 428T1036 424Q1036 422 1033 415T1026 403Q1018 389 1014 380T1007 363T1001 349T993 332Q988 321 984 317T971 309Q943 301 899 297T801 293Q731 293 675 311T579 364T518 451T496 571Q496 603 502 641Q513 723 547 790T635 906T758 981T913 1008Q943 1008 971 1005T1021 999T1060 992T1083 989Q1094 989 1106 995Q1111 997 1112 997T1116 997Q1120 997 1120 995Q1120 992 1119 989T1112 971Z"  />
<glyph unicode="&#xAA;" horiz-adv-x="614" d="M680 995Q678 990 673 978T659 951T640 918T618 885Q580 828 542 800T473 772Q456 772 446 783T436 809Q436 819 438 833T449 873T473 944T514 1057Q500 1038 480 1010T437 950T386 886T329 829T270 788T209 772Q174 772 155 794T135 860Q135 914 160 966T240 1085Q272 1124 312 1159T397 1222T490 1272T586 1305Q596 1330 604 1336T627 1343Q641 1343 646 1343T651 1337Q651 1329 646 1314T631 1272Q615 1227 595 1166T556 1046T524 943T510 889Q510 856 539 856Q554 856 570 867T602 898T636 945T670 1004H672V1001L680 995ZM213 909Q213 880 225 861T264 842Q287 842 317 863T379 918T442 993T497 1076T536 1154T551 1214Q551 1231 545 1237Q537 1245 520 1245Q499 1245 470 1233T407 1198T342 1144T285 1077Q254 1034 235 991T213 909Z"  />
<glyph unicode="&#xAB;" d="M834 840Q839 835 840 834T842 829Q842 826 838 822T829 811Q778 751 741 708T669 628T599 555T516 471Q543 421 565 377T608 290T646 207T682 123Q684 120 684 118T684 113Q684 107 678 104Q675 102 670 100T662 98Q656 98 651 106Q627 151 601 190T548 266T489 342T424 422L393 459Q389 463 389 465Q389 467 395 473Q441 508 477 537T545 594T606 646T666 700T731 759T809 829Q822 844 825 844Q828 844 834 840ZM506 840Q511 835 512 834T514 829Q514 826 511 822T502 811Q451 751 414 708T342 628T271 555T188 471Q215 421 237 377T280 290T318 207T354 123Q356 120 356 118T356 113Q356 107 350 104Q347 102 342 100T334 98Q329 98 324 106Q299 151 274 190T220 266T161 342T96 422L66 459Q61 462 61 465Q61 467 68 473Q113 508 149 537T217 594T278 646T338 700T403 759T481 829Q494 844 498 844Q502 844 506 840Z"  />
<glyph unicode="&#xAC;" horiz-adv-x="840" d="M676 444V743H84V821H766V444H676Z"  />
<glyph unicode="&#xAD;" horiz-adv-x="512" d="M446 440H45L70 524H467L446 440Z"  />
<glyph unicode="&#xAE;" horiz-adv-x="1567" d="M1487 649Q1487 559 1464 476T1398 320T1296 188T1164 86T1008 20T834 -4Q744 -4 661 19T504 85T372 187T270 319T204 475T180 649Q180 739 203 822T269 979T371 1111T504 1213T660 1279T834 1303Q924 1303 1007 1280T1163 1214T1295 1112T1397 979T1463 823T1487 649ZM1432 649Q1432 773 1385 882T1257 1072T1066 1200T834 1247Q751 1247 675 1226T533 1165T412 1072T318 951T258 808T236 649Q236 567 257 491T318 348T411 227T532 133T675 73T834 51Q957 51 1066 98T1256 226T1385 416T1432 649ZM1120 315Q1117 301 1111 299T1079 297Q1027 297 982 321T903 391Q888 410 876 436T853 491T836 552T825 612L723 608L676 610L664 553Q648 472 641 430T633 367V354Q636 339 657 331T721 317Q730 317 728 310T723 303H713Q681 303 649 304T584 305Q547 305 518 304T451 301Q438 301 438 305V309Q440 317 442 317T459 319Q488 324 508 333T543 377Q550 392 556 414T571 469T588 546T610 647Q623 710 632 757T648 838T657 896T662 934V938Q662 963 646 972T594 985Q588 985 588 989V991Q588 1001 594 1001Q614 1001 633 1000T672 999Q729 999 780 1003T895 1008Q997 1008 1044 968T1092 862Q1092 853 1091 844T1087 823Q1073 761 1024 713T897 639Q919 565 945 506T999 404T1058 339T1120 315ZM999 803Q1006 828 1006 852Q1006 915 964 949T852 983Q825 983 808 981T779 974T761 962T750 944Q746 938 742 921T733 883L682 643Q702 638 718 636T754 633Q851 633 916 674T999 803Z"  />
<glyph unicode="&#xAF;" horiz-adv-x="1030" d="M479 1149Q482 1157 489 1157H856Q861 1157 862 1156T864 1149L852 1102Q849 1094 842 1094H477Q469 1094 469 1098L479 1149Z"  />
<glyph unicode="&#xB0;" horiz-adv-x="840" d="M506 788Q450 788 403 808T323 865T271 950T252 1059Q252 1116 274 1165T333 1249T421 1305T528 1325Q583 1325 629 1305T708 1248T759 1163T778 1057Q778 999 757 950T698 865T612 809T506 788ZM520 1264Q482 1264 448 1248T389 1205T348 1139T332 1057Q332 1014 345 976T382 910T438 866T508 850Q548 850 583 866T644 910T685 976T700 1059Q700 1103 687 1140T649 1205T592 1248T520 1264Z"  />
<glyph unicode="&#xB1;" horiz-adv-x="840" d="M84 0V74H766V0H84ZM465 616V307H391V616H84V688H391V989H465V688H766V616H465Z"  />
<glyph unicode="&#xB2;" horiz-adv-x="596" d="M252 1442L254 1475Q256 1489 259 1502T270 1526Q287 1551 310 1572T361 1609T417 1633T475 1642Q521 1642 552 1629T602 1592T629 1536T637 1464Q637 1422 627 1384T595 1309T541 1234T467 1155Q438 1126 402 1094T328 1030Q293 999 251 967T166 895Q196 895 230 895T300 896T369 896T434 897Q465 897 484 899T516 911T541 941T567 999Q569 1004 571 1008T586 1012Q591 1012 591 1009T592 999Q592 996 589 985T580 963Q570 941 559 910T537 844Q533 836 527 835T516 834Q499 834 478 834T440 836Q426 836 404 837T367 838Q255 838 194 836T117 834Q109 834 103 839T96 858Q96 861 100 865T109 874Q157 922 201 964T287 1044Q344 1099 394 1149T482 1249T541 1350T563 1456Q563 1525 532 1557T449 1589Q417 1589 388 1579T335 1549T293 1502T264 1442H252Z"  />
<glyph unicode="&#xB3;" horiz-adv-x="596" d="M299 1489V1513Q299 1517 300 1524T307 1538Q342 1586 392 1612T489 1638Q554 1638 587 1602T621 1507Q621 1468 608 1438T571 1381T513 1333T434 1288Q503 1286 544 1245T586 1128Q586 1063 562 1008T494 912T389 848T254 825Q225 825 204 832T168 850T148 873T141 895Q141 909 155 923T184 938Q202 938 211 920Q230 891 257 882T326 872Q364 872 391 883T442 920Q454 930 467 948T491 991T509 1046T516 1110Q516 1146 505 1170T475 1209T430 1230T373 1237Q356 1237 339 1233T303 1221Q301 1219 297 1219H293Q290 1219 288 1222T285 1231Q285 1239 299 1245Q305 1248 322 1256T356 1274Q400 1298 435 1322T496 1372T535 1428T549 1491Q549 1521 541 1539T519 1566T487 1578T451 1581Q409 1581 372 1558T309 1489H299Z"  />
<glyph unicode="&#xB4;" horiz-adv-x="1030" d="M559 1032Q580 1057 610 1092T673 1166T736 1241T788 1303Q804 1321 808 1325T821 1329Q827 1329 835 1328T868 1315Q884 1309 887 1302T891 1292Q891 1287 886 1278T864 1257Q830 1232 794 1203T722 1143T651 1084T584 1030Q576 1024 569 1018T559 1012Q556 1012 553 1013T549 1018Q549 1020 553 1025T559 1032Z"  />
<glyph unicode="&#xB5;" horiz-adv-x="885" d="M147 362Q159 395 177 444T214 544T250 639T276 707Q283 721 285 730T287 745Q287 756 281 756Q273 756 261 749T233 730T202 701T170 669Q133 630 92 580L90 578Q88 580 86 581T84 586V588Q84 590 86 592Q92 604 105 622T131 658T156 690T170 707Q211 758 242 792T298 848T341 879T373 889Q382 889 386 883T391 866Q391 854 388 839T379 811Q371 790 357 753T327 670T292 577T258 484T229 403T209 348Q200 321 190 292T172 235T159 181T154 135Q154 118 162 109T182 100Q205 99 245 133T333 224T434 356T538 511T633 673T709 825Q713 833 717 842Q720 849 723 857T729 870Q735 887 752 887Q763 887 774 879Q788 867 788 850Q788 847 787 844T786 838Q783 821 778 807T766 776Q725 653 695 559T643 395T608 279T588 209Q585 197 582 183T577 154T573 128T571 109Q571 96 575 88T592 80Q610 80 633 98T676 139Q713 180 749 238T821 352V328Q818 301 807 285Q792 259 775 232T742 179T709 128T680 84Q664 60 645 41T606 9T567 -11T530 -18Q507 -18 496 -5T485 37Q485 46 486 55T489 78Q495 117 511 172T548 288T593 414T638 534T676 634T700 700L713 737H711Q650 636 588 541T469 366T365 224T287 129Q254 94 230 69T187 28T153 5T121 -2Q110 -2 102 8T88 29Q77 -19 68 -55T52 -120T39 -175T26 -228T12 -288T-4 -362Q-8 -379 -11 -391T-19 -410T-33 -422T-59 -428Q-64 -430 -68 -430T-76 -430Q-102 -430 -102 -408V-401Q-98 -375 -85 -330T-50 -216T4 -51T80 172Q94 212 112 264T147 362Z"  />
<glyph unicode="&#xB6;" horiz-adv-x="1206" d="M948 1180Q1001 1180 1038 1183T1101 1194T1144 1218T1174 1260H1188Q1189 1257 1193 1249T1202 1230T1212 1208T1221 1190V1186Q1221 1168 1203 1157T1157 1138T1094 1127T1029 1122T971 1121T934 1120V-41Q934 -119 932 -178T916 -284T875 -364T795 -426Q779 -434 760 -442T723 -451Q715 -451 710 -440T700 -414T694 -385T690 -365L700 -344Q741 -342 774 -323T831 -267T868 -172T881 -37V100Q837 95 795 93T709 90Q668 90 626 92T543 101T463 120T387 154Q318 193 269 247T189 366T144 503T129 653Q129 908 256 1046T641 1184Q701 1184 761 1182T881 1180V1405H934V1180H948ZM881 1120H748Q709 1120 684 1116T645 1093T624 1041T618 946V346Q618 289 620 252T632 192T666 161T733 152H881V1120Z"  />
<glyph unicode="&#xB7;" horiz-adv-x="367" d="M196 574Q185 574 173 580T151 597T135 620T129 643Q130 655 137 668T156 692T180 710T205 717Q215 717 227 710T249 693T265 670T272 647Q272 636 264 623T245 599T220 581T196 574Z"  />
<glyph unicode="&#xB8;" horiz-adv-x="1030" d="M260 -156Q260 -149 262 -143T272 -129L406 20L426 23L350 -72Q347 -77 341 -86T334 -104Q334 -117 341 -126T360 -143Q386 -165 398 -187T410 -233Q410 -240 409 -246T406 -258Q399 -288 379 -317T333 -371T276 -409T217 -424Q185 -424 169 -411T152 -381Q152 -367 161 -353T184 -338Q189 -338 199 -343T223 -360Q233 -370 243 -373T266 -377Q294 -377 317 -359T348 -309Q350 -303 351 -298T352 -287Q352 -256 334 -231T281 -184Q267 -176 264 -169T260 -156Z"  />
<glyph unicode="&#xB9;" horiz-adv-x="596" d="M315 1507Q315 1510 317 1513T332 1522Q349 1529 376 1543T431 1572T485 1601T524 1624Q532 1630 536 1632T543 1634Q546 1634 552 1626T559 1616Q559 1612 557 1604T553 1588T549 1573T547 1565Q537 1525 524 1464T495 1334T465 1192T438 1059Q427 1005 422 964T416 899Q416 880 420 874Q429 863 450 861T500 858H522Q530 858 533 857T537 844Q537 834 520 834Q477 834 437 836T354 838Q305 838 273 836T209 834Q203 834 198 835T193 844Q195 855 198 856T209 858Q233 859 249 860T277 864T296 869T309 877Q317 884 323 895T336 927T351 981T369 1065L440 1407Q448 1447 452 1473T457 1513Q457 1526 454 1530T446 1534Q441 1534 437 1534T428 1532Q425 1532 415 1528T393 1518Q388 1515 378 1511T358 1503T339 1496T326 1493Q321 1493 318 1494T315 1501V1507Z"  />
<glyph unicode="&#xBA;" horiz-adv-x="578" d="M305 772Q236 772 198 814T160 934Q160 1014 186 1084T255 1207T355 1290T473 1321Q510 1321 536 1308T580 1271T605 1217T614 1149Q614 1088 592 1022T530 900T432 808T305 772ZM449 1298Q425 1298 401 1282T354 1238T311 1174T276 1096T253 1011T244 926Q244 899 248 875T262 834T286 806T322 795Q360 795 397 828T465 915T513 1033T532 1163Q532 1192 528 1217T514 1260T488 1288T449 1298Z"  />
<glyph unicode="&#xBB;" d="M344 102Q339 107 338 108T336 113Q338 118 344 126T359 145T376 164T391 180Q431 226 463 261T525 330T587 396T662 471Q635 521 613 565T570 652T532 735T496 819Q494 822 494 824T494 829Q494 833 494 834T500 838Q509 844 516 844Q521 844 526 836Q551 791 576 752T630 676T688 600T754 520L784 483Q788 479 788 477Q788 475 782 469Q737 434 701 405T633 348T572 296T512 242T447 183T369 113Q354 98 352 98Q348 98 344 102ZM16 102Q11 107 10 108T8 113Q10 118 16 126T31 145T48 164T63 180Q103 226 135 261T197 330T259 396T334 471Q307 521 285 565T242 652T204 735T168 819Q166 822 166 824T166 829Q166 833 166 834T172 838Q181 844 188 844Q194 844 199 836Q223 791 249 752T302 676T360 600T426 520L457 483Q461 479 461 477Q461 475 455 469Q409 434 373 405T305 348T244 296T184 242T119 183T41 113Q28 98 25 98Q20 98 16 102Z"  />
<glyph unicode="&#xBC;" horiz-adv-x="1376" d="M276 1181Q276 1184 278 1187T293 1196Q310 1203 337 1217T392 1246T446 1275T485 1298Q493 1304 497 1306T504 1308Q507 1308 513 1300T520 1290Q520 1286 518 1278T514 1262T510 1247T508 1239Q498 1199 485 1138T456 1008T426 866T399 733Q388 679 383 638T377 573Q377 554 381 548Q390 537 411 535T461 532H483Q491 532 494 531T498 518Q498 508 481 508Q438 508 398 510T315 512Q266 512 234 510T170 508Q164 508 159 509T154 518Q156 529 159 530T170 532Q194 533 210 534T238 538T257 543T270 551Q278 558 284 569T297 601T312 655T330 739L401 1081Q409 1121 413 1147T418 1187Q418 1200 415 1204T407 1208Q402 1208 398 1208T389 1206Q386 1206 376 1202T354 1192Q349 1189 339 1185T319 1177T300 1170T287 1167Q282 1167 279 1168T276 1175V1181ZM1198 1327Q1125 1211 1068 1120T963 952T874 809T792 677T709 541T615 387T501 200T358 -35H303Q359 58 416 148T530 332Q739 671 890 920T1137 1327H1198ZM1300 792Q1305 787 1307 785T1310 780Q1310 775 1308 764T1304 747Q1290 694 1279 636T1253 505L1206 278H1351L1335 231Q1333 225 1329 224T1319 223H1194L1149 0L1077 -5Q1079 5 1082 20T1088 53T1096 90T1105 129Q1115 173 1126 223H811Q792 223 792 229Q792 232 793 241T796 253Q798 257 800 260T811 272L1273 792Q1282 800 1288 800Q1289 800 1291 799Q1295 797 1300 792ZM1136 278Q1147 326 1156 370T1175 461T1196 562T1220 684Q1132 583 1044 482T864 278H1136Z"  />
<glyph unicode="&#xBD;" horiz-adv-x="1427" d="M276 1181Q276 1184 278 1187T293 1196Q310 1203 337 1217T392 1246T446 1275T485 1298Q493 1304 497 1306T504 1308Q507 1308 513 1300T520 1290Q520 1286 518 1278T514 1262T510 1247T508 1239Q498 1199 485 1138T456 1008T426 866T399 733Q388 679 383 638T377 573Q377 554 381 548Q390 537 411 535T461 532H483Q491 532 494 531T498 518Q498 508 481 508Q438 508 398 510T315 512Q266 512 234 510T170 508Q164 508 159 509T154 518Q156 529 159 530T170 532Q194 533 210 534T238 538T257 543T270 551Q278 558 284 569T297 601T312 655T330 739L401 1081Q409 1121 413 1147T418 1187Q418 1200 415 1204T407 1208Q402 1208 398 1208T389 1206Q386 1206 376 1202T354 1192Q349 1189 339 1185T319 1177T300 1170T287 1167Q282 1167 279 1168T276 1175V1181ZM1198 1327Q1125 1211 1068 1120T963 952T874 809T792 677T709 541T615 387T501 200T358 -35H303Q359 58 416 148T530 332Q739 671 890 920T1137 1327H1198ZM961 608L963 641Q965 655 968 668T979 692Q996 717 1019 738T1070 775T1126 799T1184 808Q1230 808 1261 795T1311 758T1338 702T1346 630Q1346 588 1336 550T1304 475T1250 400T1176 321Q1147 292 1111 260T1037 196Q1002 165 960 133T875 61Q905 61 939 61T1009 62T1078 62T1143 63Q1174 63 1193 65T1225 77T1250 107T1276 165Q1278 170 1280 174T1295 178Q1300 178 1300 175T1301 165Q1301 162 1298 151T1289 129Q1279 107 1268 76T1246 10Q1242 2 1236 1T1225 0Q1208 0 1187 0T1149 2Q1135 2 1113 3T1076 4Q964 4 903 2T826 0Q818 0 812 5T805 24Q805 27 809 31T818 40Q866 88 910 130T996 210Q1053 265 1103 315T1191 415T1250 516T1272 622Q1272 691 1241 723T1158 755Q1126 755 1097 745T1044 715T1002 668T973 608H961Z"  />
<glyph unicode="&#xBE;" horiz-adv-x="1376" d="M260 1163V1187Q260 1191 261 1198T268 1212Q303 1260 353 1286T450 1312Q515 1312 548 1276T582 1181Q582 1142 569 1112T532 1055T474 1007T395 962Q464 960 505 919T547 802Q547 737 523 682T455 586T350 522T215 499Q186 499 165 506T129 524T109 547T102 569Q102 583 116 597T145 612Q163 612 172 594Q191 565 218 556T287 546Q325 546 352 557T403 594Q415 604 428 622T452 665T470 720T477 784Q477 820 466 844T436 883T391 904T334 911Q317 911 300 907T264 895Q262 893 258 893H254Q251 893 249 896T246 905Q246 913 260 919Q266 922 283 930T317 948Q361 972 396 996T457 1046T496 1102T510 1165Q510 1195 502 1213T480 1240T448 1252T412 1255Q370 1255 333 1232T270 1163H260ZM1198 1327Q1125 1211 1068 1120T963 952T874 809T792 677T709 541T615 387T501 200T358 -35H303Q359 58 416 148T530 332Q739 671 890 920T1137 1327H1198ZM1300 792Q1305 787 1307 785T1310 780Q1310 775 1308 764T1304 747Q1290 694 1279 636T1253 505L1206 278H1351L1335 231Q1333 225 1329 224T1319 223H1194L1149 0L1077 -5Q1079 5 1082 20T1088 53T1096 90T1105 129Q1115 173 1126 223H811Q792 223 792 229Q792 232 793 241T796 253Q798 257 800 260T811 272L1273 792Q1282 800 1288 800Q1289 800 1291 799Q1295 797 1300 792ZM1136 278Q1147 326 1156 370T1175 461T1196 562T1220 684Q1132 583 1044 482T864 278H1136Z"  />
<glyph unicode="&#xBF;" horiz-adv-x="707" d="M338 567Q413 553 455 510T498 401Q498 370 490 343T456 283T385 208T262 104Q203 57 164 21T102 -48T69 -111T59 -174Q59 -214 71 -250T107 -313T165 -357T244 -373Q286 -373 318 -366T385 -330Q401 -317 410 -317Q421 -317 433 -334T446 -375Q446 -388 435 -401T405 -426T359 -444T301 -451Q242 -451 188 -424T91 -353T24 -251T-2 -135Q-2 -76 23 -29T87 57T170 130T254 197Q307 241 341 273T396 330T424 376T432 422Q432 470 405 500T322 547V551L338 567ZM479 887Q488 887 498 880T518 863T534 840T541 817Q541 806 534 793T516 769T493 751T469 743Q460 743 450 750T430 767T415 790T408 811Q408 823 415 836T433 860T456 879T479 887Z"  />
<glyph unicode="&#xC0;" horiz-adv-x="1008" d="M748 1309Q748 1306 749 1297T750 1284Q765 1080 786 844T831 328Q851 102 868 57Q879 33 898 28T944 20H961Q965 20 965 16V8Q965 3 964 1T958 -2H934Q902 0 870 1T807 2Q757 2 710 1T614 -2H602Q598 -2 598 2V8Q600 16 600 17T610 20H635Q686 20 713 25T754 47Q760 56 762 71T764 109Q764 152 758 226T743 418Q742 432 741 445Q740 456 739 468T737 492H340Q324 464 305 426T266 344T230 258T198 178T176 115T168 78Q168 60 174 49T194 31T230 21T287 18H297Q300 18 301 18T303 12V8Q301 2 301 -1T295 -4L260 -2Q225 0 192 0T127 0Q46 0 12 -2T-25 -4Q-31 -4 -31 2V6Q-29 12 -27 14T-10 18Q11 21 28 29T64 61T108 130T172 250Q235 375 289 481T391 678T476 844T547 985Q552 995 562 1015T586 1061T614 1116T643 1175T670 1232T690 1280Q695 1291 695 1293T702 1298Q715 1303 727 1308T743 1313Q748 1313 748 1309ZM680 1180Q660 1140 636 1090T583 984T525 867T466 748T408 631T356 524H735Q724 670 711 831T680 1180ZM594 1655Q586 1665 582 1671T574 1680T570 1687T569 1696Q569 1705 576 1709T602 1721Q618 1727 625 1730T639 1733Q645 1733 649 1727T662 1704L801 1436Q801 1434 802 1433T803 1430Q803 1428 797 1428H784Q778 1428 776 1431T768 1440L594 1655Z"  />
<glyph unicode="&#xC1;" horiz-adv-x="1008" d="M748 1309Q748 1306 749 1297T750 1284Q765 1080 786 844T831 328Q851 102 868 57Q879 33 898 28T944 20H961Q965 20 965 16V8Q965 3 964 1T958 -2H934Q902 0 870 1T807 2Q757 2 710 1T614 -2H602Q598 -2 598 2V8Q600 16 600 17T610 20H635Q686 20 713 25T754 47Q760 56 762 71T764 109Q764 152 758 226T743 418Q742 432 741 445Q740 456 739 468T737 492H340Q324 464 305 426T266 344T230 258T198 178T176 115T168 78Q168 60 174 49T194 31T230 21T287 18H297Q300 18 301 18T303 12V8Q301 2 301 -1T295 -4L260 -2Q225 0 192 0T127 0Q46 0 12 -2T-25 -4Q-31 -4 -31 2V6Q-29 12 -27 14T-10 18Q11 21 28 29T64 61T108 130T172 250Q235 375 289 481T391 678T476 844T547 985Q552 995 562 1015T586 1061T614 1116T643 1175T670 1232T690 1280Q695 1291 695 1293T702 1298Q715 1303 727 1308T743 1313Q748 1313 748 1309ZM680 1180Q660 1140 636 1090T583 984T525 867T466 748T408 631T356 524H735Q724 670 711 831T680 1180ZM686 1442Q707 1467 737 1502T800 1576T863 1651T915 1713Q931 1731 935 1735T948 1739Q954 1739 962 1738T995 1725Q1011 1719 1014 1712T1018 1702Q1018 1697 1013 1688T991 1667Q957 1642 921 1613T849 1553T778 1494T711 1440Q703 1434 696 1428T686 1422Q683 1422 680 1423T676 1428Q676 1430 680 1435T686 1442Z"  />
<glyph unicode="&#xC2;" horiz-adv-x="1008" d="M748 1309Q748 1306 749 1297T750 1284Q765 1080 786 844T831 328Q851 102 868 57Q879 33 898 28T944 20H961Q965 20 965 16V8Q965 3 964 1T958 -2H934Q902 0 870 1T807 2Q757 2 710 1T614 -2H602Q598 -2 598 2V8Q600 16 600 17T610 20H635Q686 20 713 25T754 47Q760 56 762 71T764 109Q764 152 758 226T743 418Q742 432 741 445Q740 456 739 468T737 492H340Q324 464 305 426T266 344T230 258T198 178T176 115T168 78Q168 60 174 49T194 31T230 21T287 18H297Q300 18 301 18T303 12V8Q301 2 301 -1T295 -4L260 -2Q225 0 192 0T127 0Q46 0 12 -2T-25 -4Q-31 -4 -31 2V6Q-29 12 -27 14T-10 18Q11 21 28 29T64 61T108 130T172 250Q235 375 289 481T391 678T476 844T547 985Q552 995 562 1015T586 1061T614 1116T643 1175T670 1232T690 1280Q695 1291 695 1293T702 1298Q715 1303 727 1308T743 1313Q748 1313 748 1309ZM680 1180Q660 1140 636 1090T583 984T525 867T466 748T408 631T356 524H735Q724 670 711 831T680 1180ZM836 1741Q850 1741 852 1730T858 1708Q864 1684 876 1645T900 1564T922 1485T934 1430Q934 1428 931 1424T924 1420Q922 1420 920 1427T915 1438Q894 1489 867 1539T817 1641Q813 1637 795 1619T753 1577T701 1525T650 1474T610 1435T592 1420Q589 1420 586 1424T582 1432Q582 1435 585 1439T592 1446Q646 1511 698 1575T801 1708Q807 1716 816 1728T836 1741Z"  />
<glyph unicode="&#xC3;" horiz-adv-x="1008" d="M748 1309Q748 1306 749 1297T750 1284Q765 1080 786 844T831 328Q851 102 868 57Q879 33 898 28T944 20H961Q965 20 965 16V8Q965 3 964 1T958 -2H934Q902 0 870 1T807 2Q757 2 710 1T614 -2H602Q598 -2 598 2V8Q600 16 600 17T610 20H635Q686 20 713 25T754 47Q760 56 762 71T764 109Q764 152 758 226T743 418Q742 432 741 445Q740 456 739 468T737 492H340Q324 464 305 426T266 344T230 258T198 178T176 115T168 78Q168 60 174 49T194 31T230 21T287 18H297Q300 18 301 18T303 12V8Q301 2 301 -1T295 -4L260 -2Q225 0 192 0T127 0Q46 0 12 -2T-25 -4Q-31 -4 -31 2V6Q-29 12 -27 14T-10 18Q11 21 28 29T64 61T108 130T172 250Q235 375 289 481T391 678T476 844T547 985Q552 995 562 1015T586 1061T614 1116T643 1175T670 1232T690 1280Q695 1291 695 1293T702 1298Q715 1303 727 1308T743 1313Q748 1313 748 1309ZM680 1180Q660 1140 636 1090T583 984T525 867T466 748T408 631T356 524H735Q724 670 711 831T680 1180ZM880 1534Q895 1534 908 1539T935 1556T964 1589T1001 1641Q1003 1644 1006 1647T1011 1651Q1013 1651 1017 1644T1022 1635Q1022 1633 1020 1629T1011 1614Q963 1543 924 1499T850 1454Q836 1454 818 1466T774 1504Q754 1526 740 1539T715 1560T694 1570T671 1573Q656 1573 643 1569T615 1553T584 1522T547 1471Q545 1468 542 1465T536 1461Q534 1461 530 1468T526 1477Q526 1479 528 1483T536 1497Q584 1569 623 1613T698 1657Q707 1657 715 1655T734 1645T762 1622T805 1579Q820 1563 829 1554T845 1541T861 1535T880 1534Z"  />
<glyph unicode="&#xC4;" horiz-adv-x="1008" d="M748 1309Q748 1306 749 1297T750 1284Q765 1080 786 844T831 328Q851 102 868 57Q879 33 898 28T944 20H961Q965 20 965 16V8Q965 3 964 1T958 -2H934Q902 0 870 1T807 2Q757 2 710 1T614 -2H602Q598 -2 598 2V8Q600 16 600 17T610 20H635Q686 20 713 25T754 47Q760 56 762 71T764 109Q764 152 758 226T743 418Q742 432 741 445Q740 456 739 468T737 492H340Q324 464 305 426T266 344T230 258T198 178T176 115T168 78Q168 60 174 49T194 31T230 21T287 18H297Q300 18 301 18T303 12V8Q301 2 301 -1T295 -4L260 -2Q225 0 192 0T127 0Q46 0 12 -2T-25 -4Q-31 -4 -31 2V6Q-29 12 -27 14T-10 18Q11 21 28 29T64 61T108 130T172 250Q235 375 289 481T391 678T476 844T547 985Q552 995 562 1015T586 1061T614 1116T643 1175T670 1232T690 1280Q695 1291 695 1293T702 1298Q715 1303 727 1308T743 1313Q748 1313 748 1309ZM680 1180Q660 1140 636 1090T583 984T525 867T466 748T408 631T356 524H735Q724 670 711 831T680 1180ZM700 1545Q699 1535 692 1524T675 1503T653 1487T629 1481Q620 1481 610 1487T591 1501T577 1520T571 1538Q571 1550 577 1563T594 1586T617 1603T641 1610Q650 1610 660 1604T679 1588T694 1567T700 1545ZM858 1481Q849 1481 839 1487T820 1501T807 1520T801 1538Q801 1550 807 1563T824 1586T846 1603T870 1610Q879 1610 889 1604T909 1588T924 1567T930 1545Q929 1535 922 1524T905 1503T882 1487T858 1481Z"  />
<glyph unicode="&#xC5;" horiz-adv-x="1008" d="M748 1309Q748 1306 749 1297T750 1284Q765 1080 786 844T831 328Q851 102 868 57Q879 33 898 28T944 20H961Q965 20 965 16V8Q965 3 964 1T958 -2H934Q902 0 870 1T807 2Q757 2 710 1T614 -2H602Q598 -2 598 2V8Q600 16 600 17T610 20H635Q686 20 713 25T754 47Q760 56 762 71T764 109Q764 152 758 226T743 418Q742 432 741 445Q740 456 739 468T737 492H340Q324 464 305 426T266 344T230 258T198 178T176 115T168 78Q168 60 174 49T194 31T230 21T287 18H297Q300 18 301 18T303 12V8Q301 2 301 -1T295 -4L260 -2Q225 0 192 0T127 0Q46 0 12 -2T-25 -4Q-31 -4 -31 2V6Q-29 12 -27 14T-10 18Q11 21 28 29T64 61T108 130T172 250Q235 375 289 481T391 678T476 844T547 985Q552 995 562 1015T586 1061T614 1116T643 1175T670 1232T690 1280Q695 1291 695 1293T702 1298Q715 1303 727 1308T743 1313Q748 1313 748 1309ZM680 1180Q660 1140 636 1090T583 984T525 867T466 748T408 631T356 524H735Q724 670 711 831T680 1180ZM753 1411Q675 1411 634 1453T592 1565Q592 1605 607 1639T649 1697T713 1735T794 1749Q870 1749 911 1708T952 1598Q952 1558 937 1524T895 1464T832 1425T753 1411ZM786 1717Q760 1717 738 1706T700 1674T674 1625T665 1565Q665 1446 758 1446Q784 1446 806 1457T844 1488T869 1537T878 1600Q878 1656 856 1686T786 1717Z"  />
<glyph unicode="&#xC6;" horiz-adv-x="1507" d="M883 948Q889 981 897 1021T912 1100T924 1172T932 1223L504 608H698H819L883 948ZM1452 1010Q1452 1007 1450 1006T1446 1004Q1441 1004 1441 1006T1440 1012Q1440 1023 1442 1040T1447 1078T1452 1120T1454 1159Q1454 1193 1444 1214T1407 1248T1336 1264T1221 1268H1128Q1084 1268 1062 1262T1030 1241T1015 1200T1001 1133Q978 1023 958 915T915 696H1012Q1079 696 1124 697T1200 705T1250 721T1282 750Q1296 770 1305 793T1323 840Q1325 845 1328 853T1337 862Q1339 862 1341 861T1343 858Q1343 854 1339 846Q1313 759 1298 673T1262 498Q1261 496 1260 491T1257 480T1253 470T1249 465Q1247 465 1245 466T1243 469Q1245 491 1247 512T1249 555Q1249 592 1239 613T1209 646T1158 660T1085 664H909Q898 610 883 538T853 389T828 239T817 111Q817 85 823 71T850 49T908 39T1006 37Q1062 37 1100 39T1168 47T1219 65T1266 98Q1286 116 1302 139T1332 188T1357 242T1376 295Q1378 298 1380 306T1386 315H1391Q1395 311 1395 307Q1395 289 1387 254T1365 177T1335 93T1305 18Q1301 13 1299 7T1288 0Q1207 3 1125 4T961 6Q857 6 756 1T551 -4Q549 -4 547 -4T545 -2Q545 12 553 17T574 23T605 24T639 28T674 43T705 78Q713 93 723 129T744 214T765 315T784 419T801 510T813 573H481Q468 555 440 517T377 430T305 327T238 224T188 136T168 76Q168 42 195 31T289 16Q293 16 293 8Q293 5 292 1T285 -4Q192 2 96 2Q61 2 25 -1T-47 -4Q-49 -4 -51 -4T-53 0Q-53 14 -49 15T-33 18Q-18 21 -1 29T39 59T93 117T166 217Q183 242 223 296T316 423T433 581T560 754T683 924T787 1074T859 1188T887 1247Q887 1259 881 1265T865 1276T843 1281T819 1282Q788 1282 782 1283T776 1294Q776 1305 786 1305H799Q871 1305 943 1303T1087 1300Q1197 1300 1305 1302T1522 1305Q1527 1305 1527 1304T1528 1298Q1528 1296 1523 1277T1510 1230T1493 1168T1476 1103T1461 1047T1452 1010Z"  />
<glyph unicode="&#xC7;" horiz-adv-x="985" d="M389 -188Q389 -182 391 -176T401 -162L526 -20Q428 -12 352 30T223 145T143 319T115 547Q115 641 132 735T184 915T270 1075T390 1204T542 1290T727 1321Q755 1321 783 1319T842 1313T910 1300T991 1280Q996 1278 1001 1278T1008 1278Q1011 1278 1014 1280T1020 1284Q1028 1288 1032 1288H1036Q1041 1288 1042 1286T1044 1282Q1044 1273 1038 1252T1026 1200Q1018 1163 1011 1112T993 995Q993 987 983 987Q977 989 975 989T973 1001Q973 1008 974 1015T975 1034Q977 1053 977 1068T977 1098Q977 1129 975 1148T967 1181T954 1204T934 1223Q896 1254 836 1269T707 1284Q617 1284 545 1249T418 1154T322 1018T257 861T219 699T207 551Q207 429 233 329T307 157T423 46T575 6Q631 6 678 18T765 59T834 134T887 248Q890 254 892 258T897 262Q899 262 900 261T903 260Q908 257 909 256T911 252Q911 247 908 237T903 221Q898 208 892 189T878 145T864 94T850 39Q848 31 845 29T834 23Q765 0 703 -11T578 -23Q568 -23 561 -23T545 -20L479 -104Q476 -109 470 -118T463 -137Q463 -150 470 -159T489 -176Q515 -198 527 -220T539 -266Q539 -272 538 -278T535 -291Q528 -321 508 -350T462 -404T405 -442T346 -457Q314 -457 298 -444T281 -414Q281 -400 290 -386T313 -371Q318 -371 328 -376T352 -393Q362 -403 372 -406T395 -410Q423 -410 446 -392T477 -342Q479 -336 480 -331T481 -319Q481 -289 463 -264T410 -217Q396 -209 393 -202T389 -188Z"  />
<glyph unicode="&#xC8;" horiz-adv-x="944" d="M883 1001Q880 1001 877 1004T874 1010Q874 1022 875 1033T879 1057Q881 1077 883 1096T885 1135Q885 1179 874 1205T831 1244T747 1260T608 1264H537Q511 1264 496 1260T472 1242T456 1202T440 1130L352 692H453Q520 692 588 698Q631 701 658 708T704 730T736 771T762 838Q764 841 766 850T772 860Q775 860 779 859T784 852Q784 850 783 848T782 844Q761 756 740 671T702 496Q701 493 701 488T699 476T696 466T690 461Q688 461 684 461T680 465Q680 491 685 516T690 567Q690 603 680 622T644 651T571 662T451 664H346L276 279Q270 243 266 209T256 139Q254 127 253 115T252 88Q252 70 258 60T285 46T346 40T455 39Q478 39 513 40T585 47T655 63T707 90Q726 108 742 132T771 185T796 241T815 293Q817 296 819 304T823 313Q825 313 829 311T834 305Q834 299 828 277T813 224T793 159T772 94T754 41T743 14Q741 12 737 5T727 -2Q650 1 574 1T420 2Q314 2 207 -1T-8 -4H-12Q-16 -4 -16 -2Q-16 13 1 16T42 21T91 26T135 47Q144 55 155 95T179 192T204 314T227 438T245 541T256 600L319 946Q325 978 332 1018T346 1096T357 1166T362 1214Q362 1244 349 1258T317 1277T274 1282T229 1284Q227 1284 222 1285T217 1288Q217 1299 220 1301T236 1303Q310 1303 382 1301T528 1298Q635 1298 740 1301T952 1305Q957 1305 961 1304T965 1296Q965 1294 962 1281T953 1249T940 1204T926 1153Q913 1105 904 1064T891 1008Q891 1001 883 1001ZM555 1655Q547 1665 543 1671T535 1680T531 1687T530 1696Q530 1705 537 1709T563 1721Q579 1727 586 1730T600 1733Q606 1733 610 1727T623 1704L762 1436Q762 1434 763 1433T764 1430Q764 1428 758 1428H745Q739 1428 737 1431T729 1440L555 1655Z"  />
<glyph unicode="&#xC9;" horiz-adv-x="944" d="M883 1001Q880 1001 877 1004T874 1010Q874 1022 875 1033T879 1057Q881 1077 883 1096T885 1135Q885 1179 874 1205T831 1244T747 1260T608 1264H537Q511 1264 496 1260T472 1242T456 1202T440 1130L352 692H453Q520 692 588 698Q631 701 658 708T704 730T736 771T762 838Q764 841 766 850T772 860Q775 860 779 859T784 852Q784 850 783 848T782 844Q761 756 740 671T702 496Q701 493 701 488T699 476T696 466T690 461Q688 461 684 461T680 465Q680 491 685 516T690 567Q690 603 680 622T644 651T571 662T451 664H346L276 279Q270 243 266 209T256 139Q254 127 253 115T252 88Q252 70 258 60T285 46T346 40T455 39Q478 39 513 40T585 47T655 63T707 90Q726 108 742 132T771 185T796 241T815 293Q817 296 819 304T823 313Q825 313 829 311T834 305Q834 299 828 277T813 224T793 159T772 94T754 41T743 14Q741 12 737 5T727 -2Q650 1 574 1T420 2Q314 2 207 -1T-8 -4H-12Q-16 -4 -16 -2Q-16 13 1 16T42 21T91 26T135 47Q144 55 155 95T179 192T204 314T227 438T245 541T256 600L319 946Q325 978 332 1018T346 1096T357 1166T362 1214Q362 1244 349 1258T317 1277T274 1282T229 1284Q227 1284 222 1285T217 1288Q217 1299 220 1301T236 1303Q310 1303 382 1301T528 1298Q635 1298 740 1301T952 1305Q957 1305 961 1304T965 1296Q965 1294 962 1281T953 1249T940 1204T926 1153Q913 1105 904 1064T891 1008Q891 1001 883 1001ZM596 1442Q617 1467 647 1502T710 1576T773 1651T825 1713Q841 1731 845 1735T858 1739Q864 1739 872 1738T905 1725Q921 1719 924 1712T928 1702Q928 1697 923 1688T901 1667Q867 1642 831 1613T759 1553T688 1494T621 1440Q613 1434 606 1428T596 1422Q593 1422 590 1423T586 1428Q586 1430 590 1435T596 1442Z"  />
<glyph unicode="&#xCA;" horiz-adv-x="944" d="M883 1001Q880 1001 877 1004T874 1010Q874 1022 875 1033T879 1057Q881 1077 883 1096T885 1135Q885 1179 874 1205T831 1244T747 1260T608 1264H537Q511 1264 496 1260T472 1242T456 1202T440 1130L352 692H453Q520 692 588 698Q631 701 658 708T704 730T736 771T762 838Q764 841 766 850T772 860Q775 860 779 859T784 852Q784 850 783 848T782 844Q761 756 740 671T702 496Q701 493 701 488T699 476T696 466T690 461Q688 461 684 461T680 465Q680 491 685 516T690 567Q690 603 680 622T644 651T571 662T451 664H346L276 279Q270 243 266 209T256 139Q254 127 253 115T252 88Q252 70 258 60T285 46T346 40T455 39Q478 39 513 40T585 47T655 63T707 90Q726 108 742 132T771 185T796 241T815 293Q817 296 819 304T823 313Q825 313 829 311T834 305Q834 299 828 277T813 224T793 159T772 94T754 41T743 14Q741 12 737 5T727 -2Q650 1 574 1T420 2Q314 2 207 -1T-8 -4H-12Q-16 -4 -16 -2Q-16 13 1 16T42 21T91 26T135 47Q144 55 155 95T179 192T204 314T227 438T245 541T256 600L319 946Q325 978 332 1018T346 1096T357 1166T362 1214Q362 1244 349 1258T317 1277T274 1282T229 1284Q227 1284 222 1285T217 1288Q217 1299 220 1301T236 1303Q310 1303 382 1301T528 1298Q635 1298 740 1301T952 1305Q957 1305 961 1304T965 1296Q965 1294 962 1281T953 1249T940 1204T926 1153Q913 1105 904 1064T891 1008Q891 1001 883 1001ZM748 1741Q762 1741 764 1730T770 1708Q776 1684 788 1645T812 1564T834 1485T846 1430Q846 1428 843 1424T836 1420Q834 1420 832 1427T827 1438Q806 1489 779 1539T729 1641Q725 1637 707 1619T665 1577T613 1525T562 1474T522 1435T504 1420Q501 1420 498 1424T494 1432Q494 1435 497 1439T504 1446Q558 1511 610 1575T713 1708Q719 1716 728 1728T748 1741Z"  />
<glyph unicode="&#xCB;" horiz-adv-x="944" d="M883 1001Q880 1001 877 1004T874 1010Q874 1022 875 1033T879 1057Q881 1077 883 1096T885 1135Q885 1179 874 1205T831 1244T747 1260T608 1264H537Q511 1264 496 1260T472 1242T456 1202T440 1130L352 692H453Q520 692 588 698Q631 701 658 708T704 730T736 771T762 838Q764 841 766 850T772 860Q775 860 779 859T784 852Q784 850 783 848T782 844Q761 756 740 671T702 496Q701 493 701 488T699 476T696 466T690 461Q688 461 684 461T680 465Q680 491 685 516T690 567Q690 603 680 622T644 651T571 662T451 664H346L276 279Q270 243 266 209T256 139Q254 127 253 115T252 88Q252 70 258 60T285 46T346 40T455 39Q478 39 513 40T585 47T655 63T707 90Q726 108 742 132T771 185T796 241T815 293Q817 296 819 304T823 313Q825 313 829 311T834 305Q834 299 828 277T813 224T793 159T772 94T754 41T743 14Q741 12 737 5T727 -2Q650 1 574 1T420 2Q314 2 207 -1T-8 -4H-12Q-16 -4 -16 -2Q-16 13 1 16T42 21T91 26T135 47Q144 55 155 95T179 192T204 314T227 438T245 541T256 600L319 946Q325 978 332 1018T346 1096T357 1166T362 1214Q362 1244 349 1258T317 1277T274 1282T229 1284Q227 1284 222 1285T217 1288Q217 1299 220 1301T236 1303Q310 1303 382 1301T528 1298Q635 1298 740 1301T952 1305Q957 1305 961 1304T965 1296Q965 1294 962 1281T953 1249T940 1204T926 1153Q913 1105 904 1064T891 1008Q891 1001 883 1001ZM610 1545Q609 1535 602 1524T585 1503T563 1487T539 1481Q530 1481 520 1487T501 1501T487 1520T481 1538Q481 1550 487 1563T504 1586T527 1603T551 1610Q560 1610 570 1604T589 1588T604 1567T610 1545ZM768 1481Q759 1481 749 1487T730 1501T717 1520T711 1538Q711 1550 717 1563T734 1586T756 1603T780 1610Q789 1610 799 1604T819 1588T834 1567T840 1545Q839 1535 832 1524T815 1503T792 1487T768 1481Z"  />
<glyph unicode="&#xCC;" horiz-adv-x="543" d="M281 322Q267 253 261 194T254 94Q254 67 258 53T276 31T314 22T379 16Q382 16 386 16T391 12Q391 4 390 0T383 -4Q363 -4 316 -1T178 2Q112 2 60 -1T-12 -4Q-15 -4 -15 -1T-16 6Q-16 18 -6 18Q39 20 71 24T123 43Q131 50 139 65T157 111T178 193T205 322L332 989Q343 1046 351 1104T360 1214Q360 1243 348 1257T315 1274Q295 1279 271 1281T233 1284Q229 1284 229 1292Q229 1298 232 1300T246 1303Q263 1303 311 1299T426 1294Q494 1294 547 1298T623 1303Q629 1303 629 1298Q629 1289 626 1286T608 1282Q595 1282 580 1281T551 1276T523 1269T502 1260Q486 1247 475 1232T453 1187T433 1111T408 985L281 322ZM348 1655Q340 1665 336 1671T328 1680T324 1687T323 1696Q323 1705 330 1709T356 1721Q372 1727 379 1730T393 1733Q399 1733 403 1727T416 1704L555 1436Q555 1434 556 1433T557 1430Q557 1428 551 1428H538Q532 1428 530 1431T522 1440L348 1655Z"  />
<glyph unicode="&#xCD;" horiz-adv-x="543" d="M281 322Q267 253 261 194T254 94Q254 67 258 53T276 31T314 22T379 16Q382 16 386 16T391 12Q391 4 390 0T383 -4Q363 -4 316 -1T178 2Q112 2 60 -1T-12 -4Q-15 -4 -15 -1T-16 6Q-16 18 -6 18Q39 20 71 24T123 43Q131 50 139 65T157 111T178 193T205 322L332 989Q343 1046 351 1104T360 1214Q360 1243 348 1257T315 1274Q295 1279 271 1281T233 1284Q229 1284 229 1292Q229 1298 232 1300T246 1303Q263 1303 311 1299T426 1294Q494 1294 547 1298T623 1303Q629 1303 629 1298Q629 1289 626 1286T608 1282Q595 1282 580 1281T551 1276T523 1269T502 1260Q486 1247 475 1232T453 1187T433 1111T408 985L281 322ZM401 1442Q422 1467 452 1502T515 1576T578 1651T630 1713Q646 1731 650 1735T663 1739Q669 1739 677 1738T710 1725Q726 1719 729 1712T733 1702Q733 1697 728 1688T706 1667Q672 1642 636 1613T564 1553T493 1494T426 1440Q418 1434 411 1428T401 1422Q398 1422 395 1423T391 1428Q391 1430 395 1435T401 1442Z"  />
<glyph unicode="&#xCE;" horiz-adv-x="543" d="M281 322Q267 253 261 194T254 94Q254 67 258 53T276 31T314 22T379 16Q382 16 386 16T391 12Q391 4 390 0T383 -4Q363 -4 316 -1T178 2Q112 2 60 -1T-12 -4Q-15 -4 -15 -1T-16 6Q-16 18 -6 18Q39 20 71 24T123 43Q131 50 139 65T157 111T178 193T205 322L332 989Q343 1046 351 1104T360 1214Q360 1243 348 1257T315 1274Q295 1279 271 1281T233 1284Q229 1284 229 1292Q229 1298 232 1300T246 1303Q263 1303 311 1299T426 1294Q494 1294 547 1298T623 1303Q629 1303 629 1298Q629 1289 626 1286T608 1282Q595 1282 580 1281T551 1276T523 1269T502 1260Q486 1247 475 1232T453 1187T433 1111T408 985L281 322ZM547 1741Q561 1741 563 1730T569 1708Q575 1684 587 1645T611 1564T633 1485T645 1430Q645 1428 642 1424T635 1420Q633 1420 631 1427T626 1438Q605 1489 578 1539T528 1641Q524 1637 506 1619T464 1577T412 1525T361 1474T321 1435T303 1420Q300 1420 297 1424T293 1432Q293 1435 296 1439T303 1446Q357 1511 409 1575T512 1708Q518 1716 527 1728T547 1741Z"  />
<glyph unicode="&#xCF;" horiz-adv-x="543" d="M281 322Q267 253 261 194T254 94Q254 67 258 53T276 31T314 22T379 16Q382 16 386 16T391 12Q391 4 390 0T383 -4Q363 -4 316 -1T178 2Q112 2 60 -1T-12 -4Q-15 -4 -15 -1T-16 6Q-16 18 -6 18Q39 20 71 24T123 43Q131 50 139 65T157 111T178 193T205 322L332 989Q343 1046 351 1104T360 1214Q360 1243 348 1257T315 1274Q295 1279 271 1281T233 1284Q229 1284 229 1292Q229 1298 232 1300T246 1303Q263 1303 311 1299T426 1294Q494 1294 547 1298T623 1303Q629 1303 629 1298Q629 1289 626 1286T608 1282Q595 1282 580 1281T551 1276T523 1269T502 1260Q486 1247 475 1232T453 1187T433 1111T408 985L281 322ZM444 1545Q443 1535 436 1524T419 1503T397 1487T373 1481Q364 1481 354 1487T335 1501T321 1520T315 1538Q315 1550 321 1563T338 1586T361 1603T385 1610Q394 1610 404 1604T423 1588T438 1567T444 1545ZM602 1481Q593 1481 583 1487T564 1501T551 1520T545 1538Q545 1550 551 1563T568 1586T590 1603T614 1610Q623 1610 633 1604T653 1588T668 1567T674 1545Q673 1535 666 1524T649 1503T626 1487T602 1481Z"  />
<glyph unicode="&#xD0;" horiz-adv-x="1133" d="M436 -4Q399 -4 367 -3T305 -1T243 2T178 4Q149 4 116 3T43 0L12 -2Q9 -2 7 -3T2 -4Q-3 -4 -3 -3T-4 2Q-4 14 -1 16T10 18H18Q52 22 77 26T119 43Q137 55 149 87T174 184T206 355T256 621L264 662H88L96 707H272L287 776Q305 872 318 945T340 1072T352 1162T356 1221Q356 1240 348 1251T326 1269T297 1277T266 1280Q248 1282 235 1282T221 1288Q221 1300 227 1300H254Q283 1300 309 1298T360 1296Q397 1296 430 1297T494 1300T558 1303T627 1305Q731 1305 819 1274T972 1180T1073 1026T1110 811Q1110 701 1090 598T1032 404T936 238T804 109T637 26T436 -4ZM1020 809Q1020 933 987 1022T896 1168T761 1253T596 1280Q555 1280 529 1278T485 1261T457 1217T435 1130T408 988T369 776L354 707H694L686 662H346L338 621Q317 511 301 426T273 276T256 168T250 96Q250 72 255 58T278 36T328 26T416 23Q528 23 616 56T772 147T887 282T963 447T1006 627T1020 809Z"  />
<glyph unicode="&#xD1;" horiz-adv-x="1194" d="M1309 1294Q1309 1291 1308 1288T1303 1284H1294Q1286 1284 1270 1283T1235 1278T1199 1268T1171 1253Q1151 1235 1137 1197T1107 1086T1070 899T1016 614Q1014 606 1012 597Q1010 589 1009 581T1006 567Q964 352 939 211T909 18Q907 -2 906 -10T899 -20Q896 -22 893 -24T881 -29Q879 -29 878 -30T874 -31Q869 -31 868 -26T864 -10Q862 -1 859 12T850 45Q831 102 815 146T783 231T751 311T715 395T673 496T621 625Q608 656 592 695T557 777T521 863T484 948Q443 1044 399 1145V1149Q387 1089 376 1029Q366 978 356 918T336 807Q335 804 333 794T328 769T322 736T315 700Q307 657 297 604Q278 503 264 425T241 286T228 183T223 111Q223 68 233 51Q241 39 254 33T286 25T328 22T379 18Q385 18 385 14Q385 5 383 2T373 -2Q350 -2 305 1T184 4Q91 4 -6 -2L-20 -4Q-24 -4 -24 -2T-25 8Q-25 16 -22 17T-14 18H-2Q36 20 67 28T117 51Q135 66 147 99T173 195T206 358T256 608Q267 660 276 703Q280 721 283 739T290 772T296 797T299 811Q311 868 318 905T332 979T347 1060T369 1176Q369 1179 370 1182T371 1188Q371 1194 367 1202Q357 1227 344 1242T312 1266T270 1277T215 1280Q204 1280 203 1282T201 1292Q201 1300 203 1301T211 1303Q215 1303 222 1302T241 1301T275 1299T332 1298H418Q427 1298 430 1286Q438 1268 444 1250T459 1212Q514 1077 570 947T681 688T791 431T897 172L977 614Q998 733 1014 824T1041 984T1057 1100T1063 1180Q1063 1231 1044 1251Q1029 1270 998 1273T918 1282Q902 1284 900 1285T897 1292Q897 1297 898 1300T905 1303Q913 1303 923 1302T953 1300T1008 1297T1100 1296Q1206 1296 1253 1299T1305 1303Q1309 1303 1309 1294ZM886 1534Q901 1534 914 1539T941 1556T970 1589T1007 1641Q1009 1644 1012 1647T1017 1651Q1019 1651 1023 1644T1028 1635Q1028 1633 1026 1629T1017 1614Q969 1543 930 1499T856 1454Q842 1454 824 1466T780 1504Q760 1526 746 1539T721 1560T700 1570T677 1573Q662 1573 649 1569T621 1553T590 1522T553 1471Q551 1468 548 1465T542 1461Q540 1461 536 1468T532 1477Q532 1479 534 1483T542 1497Q590 1569 629 1613T704 1657Q713 1657 721 1655T740 1645T768 1622T811 1579Q826 1563 835 1554T851 1541T867 1535T886 1534Z"  />
<glyph unicode="&#xD2;" horiz-adv-x="1118" d="M1096 817Q1096 741 1081 650T1036 465T958 284T847 128T700 18T518 -23Q428 -23 358 15T238 121T163 280T137 479Q137 594 157 701T215 902T305 1073T421 1205T559 1290T713 1321Q803 1321 874 1283T994 1176T1070 1016T1096 817ZM543 10Q629 10 697 51T816 159T904 314T964 492T997 673T1008 836Q1008 936 988 1019T928 1162T829 1255T692 1288Q621 1288 559 1257T444 1169T352 1036T283 867T240 670T225 457Q225 358 245 276T306 135T405 43T543 10ZM602 1655Q594 1665 590 1671T582 1680T578 1687T577 1696Q577 1705 584 1709T610 1721Q626 1727 633 1730T647 1733Q653 1733 657 1727T670 1704L809 1436Q809 1434 810 1433T811 1430Q811 1428 805 1428H792Q786 1428 784 1431T776 1440L602 1655Z"  />
<glyph unicode="&#xD3;" horiz-adv-x="1118" d="M1096 817Q1096 741 1081 650T1036 465T958 284T847 128T700 18T518 -23Q428 -23 358 15T238 121T163 280T137 479Q137 594 157 701T215 902T305 1073T421 1205T559 1290T713 1321Q803 1321 874 1283T994 1176T1070 1016T1096 817ZM543 10Q629 10 697 51T816 159T904 314T964 492T997 673T1008 836Q1008 936 988 1019T928 1162T829 1255T692 1288Q621 1288 559 1257T444 1169T352 1036T283 867T240 670T225 457Q225 358 245 276T306 135T405 43T543 10ZM653 1442Q674 1467 704 1502T767 1576T830 1651T882 1713Q898 1731 902 1735T915 1739Q921 1739 929 1738T962 1725Q978 1719 981 1712T985 1702Q985 1697 980 1688T958 1667Q924 1642 888 1613T816 1553T745 1494T678 1440Q670 1434 663 1428T653 1422Q650 1422 647 1423T643 1428Q643 1430 647 1435T653 1442Z"  />
<glyph unicode="&#xD4;" horiz-adv-x="1118" d="M1096 817Q1096 741 1081 650T1036 465T958 284T847 128T700 18T518 -23Q428 -23 358 15T238 121T163 280T137 479Q137 594 157 701T215 902T305 1073T421 1205T559 1290T713 1321Q803 1321 874 1283T994 1176T1070 1016T1096 817ZM543 10Q629 10 697 51T816 159T904 314T964 492T997 673T1008 836Q1008 936 988 1019T928 1162T829 1255T692 1288Q621 1288 559 1257T444 1169T352 1036T283 867T240 670T225 457Q225 358 245 276T306 135T405 43T543 10ZM801 1741Q815 1741 817 1730T823 1708Q829 1684 841 1645T865 1564T887 1485T899 1430Q899 1428 896 1424T889 1420Q887 1420 885 1427T880 1438Q859 1489 832 1539T782 1641Q778 1637 760 1619T718 1577T666 1525T615 1474T575 1435T557 1420Q554 1420 551 1424T547 1432Q547 1435 550 1439T557 1446Q611 1511 663 1575T766 1708Q772 1716 781 1728T801 1741Z"  />
<glyph unicode="&#xD5;" horiz-adv-x="1118" d="M1096 817Q1096 741 1081 650T1036 465T958 284T847 128T700 18T518 -23Q428 -23 358 15T238 121T163 280T137 479Q137 594 157 701T215 902T305 1073T421 1205T559 1290T713 1321Q803 1321 874 1283T994 1176T1070 1016T1096 817ZM543 10Q629 10 697 51T816 159T904 314T964 492T997 673T1008 836Q1008 936 988 1019T928 1162T829 1255T692 1288Q621 1288 559 1257T444 1169T352 1036T283 867T240 670T225 457Q225 358 245 276T306 135T405 43T543 10ZM868 1534Q883 1534 896 1539T923 1556T952 1589T989 1641Q991 1644 994 1647T999 1651Q1001 1651 1005 1644T1010 1635Q1010 1633 1008 1629T999 1614Q951 1543 912 1499T838 1454Q824 1454 806 1466T762 1504Q742 1526 728 1539T703 1560T682 1570T659 1573Q644 1573 631 1569T603 1553T572 1522T535 1471Q533 1468 530 1465T524 1461Q522 1461 518 1468T514 1477Q514 1479 516 1483T524 1497Q572 1569 611 1613T686 1657Q695 1657 703 1655T722 1645T750 1622T793 1579Q808 1563 817 1554T833 1541T849 1535T868 1534Z"  />
<glyph unicode="&#xD6;" horiz-adv-x="1118" d="M1096 817Q1096 741 1081 650T1036 465T958 284T847 128T700 18T518 -23Q428 -23 358 15T238 121T163 280T137 479Q137 594 157 701T215 902T305 1073T421 1205T559 1290T713 1321Q803 1321 874 1283T994 1176T1070 1016T1096 817ZM543 10Q629 10 697 51T816 159T904 314T964 492T997 673T1008 836Q1008 936 988 1019T928 1162T829 1255T692 1288Q621 1288 559 1257T444 1169T352 1036T283 867T240 670T225 457Q225 358 245 276T306 135T405 43T543 10ZM688 1545Q687 1535 680 1524T663 1503T641 1487T617 1481Q608 1481 598 1487T579 1501T565 1520T559 1538Q559 1550 565 1563T582 1586T605 1603T629 1610Q638 1610 648 1604T667 1588T682 1567T688 1545ZM846 1481Q837 1481 827 1487T808 1501T795 1520T789 1538Q789 1550 795 1563T812 1586T834 1603T858 1610Q867 1610 877 1604T897 1588T912 1567T918 1545Q917 1535 910 1524T893 1503T870 1487T846 1481Z"  />
<glyph unicode="&#xD7;" horiz-adv-x="840" d="M494 653L733 414L684 365L444 604L209 367L160 416L397 651L158 891L207 940L446 700L686 940L733 893L494 653Z"  />
<glyph unicode="&#xD8;" horiz-adv-x="1118" d="M981 1192Q1037 1123 1066 1027T1096 817Q1096 741 1081 650T1036 465T958 284T847 128T700 18T518 -23Q449 -23 391 -1T287 66L182 -104H137L258 94Q199 162 168 261T137 479Q137 594 157 701T215 902T305 1073T421 1205T559 1290T713 1321Q787 1321 847 1295T954 1221L1067 1403H1112L981 1192ZM225 457Q225 364 242 287T295 152L922 1169Q881 1226 825 1257T692 1288Q621 1288 559 1257T444 1169T352 1036T283 867T240 670T225 457ZM543 10Q629 10 697 51T816 159T904 314T964 492T997 673T1008 836Q1008 924 992 999T944 1133L317 117Q358 66 414 38T543 10Z"  />
<glyph unicode="&#xD9;" horiz-adv-x="1081" d="M1077 1243Q1065 1226 1053 1193T1028 1104T1000 968T965 776Q948 679 932 593T898 430T856 290T801 172Q744 78 651 28T436 -23Q353 -23 296 -5T202 48T150 137T133 262Q133 299 137 337T152 426Q157 455 165 494T184 589T210 717T242 889L252 948Q272 1050 281 1113T291 1212Q291 1247 281 1257Q273 1266 257 1270T221 1277T184 1280T154 1282Q145 1282 145 1288Q145 1303 154 1303Q171 1303 217 1299T326 1294Q371 1294 418 1296T528 1303H545Q551 1303 553 1302T555 1294Q555 1286 554 1284T547 1282Q497 1282 461 1274T410 1249Q402 1241 395 1221T379 1166T360 1082T336 967L260 571Q259 567 256 548T249 502T239 441T230 377T222 320T219 279Q219 222 231 178T273 104T355 58T487 41Q599 41 675 96T799 258Q813 289 825 326T851 418T879 551T915 743L930 829Q955 972 969 1061T983 1198Q983 1236 971 1251Q952 1274 919 1277T834 1284Q829 1284 829 1292Q829 1303 834 1303H840Q888 1299 935 1297T1030 1294Q1107 1294 1141 1297T1190 1300Q1194 1300 1194 1296Q1194 1290 1193 1286T1184 1282Q1156 1280 1126 1274T1077 1243ZM623 1655Q615 1665 611 1671T603 1680T599 1687T598 1696Q598 1705 605 1709T631 1721Q647 1727 654 1730T668 1733Q674 1733 678 1727T691 1704L830 1436Q830 1434 831 1433T832 1430Q832 1428 826 1428H813Q807 1428 805 1431T797 1440L623 1655Z"  />
<glyph unicode="&#xDA;" horiz-adv-x="1081" d="M1077 1243Q1065 1226 1053 1193T1028 1104T1000 968T965 776Q948 679 932 593T898 430T856 290T801 172Q744 78 651 28T436 -23Q353 -23 296 -5T202 48T150 137T133 262Q133 299 137 337T152 426Q157 455 165 494T184 589T210 717T242 889L252 948Q272 1050 281 1113T291 1212Q291 1247 281 1257Q273 1266 257 1270T221 1277T184 1280T154 1282Q145 1282 145 1288Q145 1303 154 1303Q171 1303 217 1299T326 1294Q371 1294 418 1296T528 1303H545Q551 1303 553 1302T555 1294Q555 1286 554 1284T547 1282Q497 1282 461 1274T410 1249Q402 1241 395 1221T379 1166T360 1082T336 967L260 571Q259 567 256 548T249 502T239 441T230 377T222 320T219 279Q219 222 231 178T273 104T355 58T487 41Q599 41 675 96T799 258Q813 289 825 326T851 418T879 551T915 743L930 829Q955 972 969 1061T983 1198Q983 1236 971 1251Q952 1274 919 1277T834 1284Q829 1284 829 1292Q829 1303 834 1303H840Q888 1299 935 1297T1030 1294Q1107 1294 1141 1297T1190 1300Q1194 1300 1194 1296Q1194 1290 1193 1286T1184 1282Q1156 1280 1126 1274T1077 1243ZM622 1442Q643 1467 673 1502T736 1576T799 1651T851 1713Q867 1731 871 1735T884 1739Q890 1739 898 1738T931 1725Q947 1719 950 1712T954 1702Q954 1697 949 1688T927 1667Q893 1642 857 1613T785 1553T714 1494T647 1440Q639 1434 632 1428T622 1422Q619 1422 616 1423T612 1428Q612 1430 616 1435T622 1442Z"  />
<glyph unicode="&#xDB;" horiz-adv-x="1081" d="M1077 1243Q1065 1226 1053 1193T1028 1104T1000 968T965 776Q948 679 932 593T898 430T856 290T801 172Q744 78 651 28T436 -23Q353 -23 296 -5T202 48T150 137T133 262Q133 299 137 337T152 426Q157 455 165 494T184 589T210 717T242 889L252 948Q272 1050 281 1113T291 1212Q291 1247 281 1257Q273 1266 257 1270T221 1277T184 1280T154 1282Q145 1282 145 1288Q145 1303 154 1303Q171 1303 217 1299T326 1294Q371 1294 418 1296T528 1303H545Q551 1303 553 1302T555 1294Q555 1286 554 1284T547 1282Q497 1282 461 1274T410 1249Q402 1241 395 1221T379 1166T360 1082T336 967L260 571Q259 567 256 548T249 502T239 441T230 377T222 320T219 279Q219 222 231 178T273 104T355 58T487 41Q599 41 675 96T799 258Q813 289 825 326T851 418T879 551T915 743L930 829Q955 972 969 1061T983 1198Q983 1236 971 1251Q952 1274 919 1277T834 1284Q829 1284 829 1292Q829 1303 834 1303H840Q888 1299 935 1297T1030 1294Q1107 1294 1141 1297T1190 1300Q1194 1300 1194 1296Q1194 1290 1193 1286T1184 1282Q1156 1280 1126 1274T1077 1243ZM840 1741Q854 1741 856 1730T862 1708Q868 1684 880 1645T904 1564T926 1485T938 1430Q938 1428 935 1424T928 1420Q926 1420 924 1427T919 1438Q898 1489 871 1539T821 1641Q817 1637 799 1619T757 1577T705 1525T654 1474T614 1435T596 1420Q593 1420 590 1424T586 1432Q586 1435 589 1439T596 1446Q650 1511 702 1575T805 1708Q811 1716 820 1728T840 1741Z"  />
<glyph unicode="&#xDC;" horiz-adv-x="1081" d="M1077 1243Q1065 1226 1053 1193T1028 1104T1000 968T965 776Q948 679 932 593T898 430T856 290T801 172Q744 78 651 28T436 -23Q353 -23 296 -5T202 48T150 137T133 262Q133 299 137 337T152 426Q157 455 165 494T184 589T210 717T242 889L252 948Q272 1050 281 1113T291 1212Q291 1247 281 1257Q273 1266 257 1270T221 1277T184 1280T154 1282Q145 1282 145 1288Q145 1303 154 1303Q171 1303 217 1299T326 1294Q371 1294 418 1296T528 1303H545Q551 1303 553 1302T555 1294Q555 1286 554 1284T547 1282Q497 1282 461 1274T410 1249Q402 1241 395 1221T379 1166T360 1082T336 967L260 571Q259 567 256 548T249 502T239 441T230 377T222 320T219 279Q219 222 231 178T273 104T355 58T487 41Q599 41 675 96T799 258Q813 289 825 326T851 418T879 551T915 743L930 829Q955 972 969 1061T983 1198Q983 1236 971 1251Q952 1274 919 1277T834 1284Q829 1284 829 1292Q829 1303 834 1303H840Q888 1299 935 1297T1030 1294Q1107 1294 1141 1297T1190 1300Q1194 1300 1194 1296Q1194 1290 1193 1286T1184 1282Q1156 1280 1126 1274T1077 1243ZM676 1545Q675 1535 668 1524T651 1503T629 1487T605 1481Q596 1481 586 1487T567 1501T553 1520T547 1538Q547 1550 553 1563T570 1586T593 1603T617 1610Q626 1610 636 1604T655 1588T670 1567T676 1545ZM834 1481Q825 1481 815 1487T796 1501T783 1520T777 1538Q777 1550 783 1563T800 1586T822 1603T846 1610Q855 1610 865 1604T885 1588T900 1567T906 1545Q905 1535 898 1524T881 1503T858 1487T834 1481Z"  />
<glyph unicode="&#xDD;" horiz-adv-x="842" d="M485 729Q515 768 547 811T611 899T676 986T737 1069Q778 1125 802 1165T827 1231Q825 1262 788 1272T698 1282Q693 1282 693 1284T692 1292Q692 1298 695 1300T711 1303Q732 1303 775 1300T895 1296Q949 1296 984 1299T1022 1303Q1027 1303 1029 1302T1032 1296Q1032 1293 1031 1287T1022 1280Q1000 1278 983 1273T944 1247T886 1185T793 1069Q712 969 636 867T479 664Q464 645 456 630T443 603T437 581T434 561Q429 537 424 508T414 452Q409 421 403 391L393 342Q376 252 367 188T358 88Q358 57 365 49Q371 38 384 32T415 22T453 17T494 16Q499 16 500 15T502 6Q502 -2 492 -2H471Q425 0 379 1T285 2Q216 2 170 -1T96 -4Q87 -4 86 -2T84 6Q84 14 86 15T94 16H102Q147 19 180 24T231 45Q237 51 242 59T252 83T264 127T280 200T302 310T334 467Q335 474 337 482Q339 488 340 495T342 508Q348 542 353 564T358 608Q358 621 357 634T350 664Q321 763 285 868T217 1069Q202 1113 191 1144T172 1198T156 1235T141 1257Q130 1270 108 1276T57 1282Q54 1282 53 1282T51 1288Q51 1296 53 1298T61 1300Q69 1300 79 1299T104 1297T142 1295T199 1294Q264 1294 313 1297T408 1300Q414 1300 414 1296Q414 1285 410 1282T389 1278Q371 1277 350 1277T310 1275T277 1267T258 1247Q256 1243 256 1233Q256 1217 261 1195T276 1141L432 651Q437 660 442 668T452 684T466 703T485 729ZM510 1442Q531 1467 561 1502T624 1576T687 1651T739 1713Q755 1731 759 1735T772 1739Q778 1739 786 1738T819 1725Q835 1719 838 1712T842 1702Q842 1697 837 1688T815 1667Q781 1642 745 1613T673 1553T602 1494T535 1440Q527 1434 520 1428T510 1422Q507 1422 504 1423T500 1428Q500 1430 504 1435T510 1442Z"  />
<glyph unicode="&#xDE;" horiz-adv-x="938" d="M422 1057Q462 1057 501 1060T588 1063Q653 1063 707 1048T801 999T861 912T883 784Q883 689 859 605T784 458T655 358T467 319Q452 319 432 319T389 321T339 326T287 336Q280 302 274 268T264 201T257 142T254 94Q254 67 258 53T276 31T314 22T379 16Q382 16 386 16T391 12Q391 4 390 0T383 -4Q363 -4 316 -1T178 2Q112 2 60 -1T-12 -4Q-15 -4 -15 -1T-16 6Q-16 18 -6 18Q39 20 71 24T123 43Q131 50 139 65T157 111T178 193T205 322L332 989Q343 1046 351 1104T360 1214Q360 1243 348 1257T315 1274Q295 1279 271 1281T233 1284Q229 1284 229 1292Q229 1298 232 1300T246 1303Q263 1303 311 1299T426 1294Q494 1294 547 1298T623 1303Q629 1303 629 1298Q629 1289 626 1286T608 1282Q595 1282 580 1281T551 1277T523 1270T502 1260Q487 1249 477 1236T459 1201T442 1145T422 1057ZM686 1001Q651 1023 608 1029T508 1036Q473 1036 456 1032T430 1016Q426 1011 420 993T406 946T390 878T373 797L293 360Q325 355 351 352T416 348Q531 348 601 379T717 477Q733 501 748 534T774 607T792 688T799 772Q799 844 774 904T686 1001Z"  />
<glyph unicode="&#xDF;" horiz-adv-x="803" d="M670 866Q646 855 618 839T565 800T525 749T508 686Q508 658 518 630T547 573T589 514T639 451Q685 397 711 344T737 238Q737 193 718 151T651 66Q603 21 552 -1T436 -23Q387 -23 362 -9T336 47Q336 61 342 72T367 84Q384 84 401 77T428 66Q453 55 478 50T526 45Q555 45 582 54T631 84Q657 109 668 135T680 188Q680 216 671 244T646 301T610 356T569 408Q549 428 529 453T491 508T464 569T453 633Q453 666 465 707Q474 735 492 760T533 807T584 847T641 881Q738 929 779 1016T821 1214Q821 1289 785 1333T670 1378Q664 1378 658 1377T645 1376Q602 1373 562 1356T486 1308T424 1236T379 1139Q371 1114 366 1094T354 1044T339 969T316 849T282 664T231 393Q207 265 188 165T151 -14T118 -152T88 -258T56 -341T20 -410Q-20 -481 -72 -515T-170 -549Q-182 -549 -196 -545T-221 -534T-240 -517T-248 -492Q-248 -478 -238 -461Q-228 -447 -221 -442T-205 -436Q-194 -436 -185 -443T-164 -459Q-133 -483 -100 -483Q-68 -483 -43 -451T0 -362Q20 -293 49 -151T115 203Q153 416 181 569T232 829T275 1007T314 1125T356 1207T408 1276Q442 1319 481 1351T561 1405T642 1437T719 1448Q770 1448 804 1433T859 1391T888 1329T897 1255Q897 1197 884 1140T843 1031T772 937T670 866Z"  />
<glyph unicode="&#xE0;" horiz-adv-x="799" d="M762 336Q727 245 688 178T613 66T544 -1T489 -23Q469 -23 457 -6T444 43Q444 70 451 110T472 202T505 315T549 444L545 446Q529 418 507 382T460 308T411 234T367 170Q291 64 229 21T119 -23Q82 -23 57 16T31 125Q31 183 46 239T87 347T146 450T215 547Q263 612 318 665T431 757T547 822T662 860Q669 882 675 894T686 913T698 922T713 924Q724 924 727 922T731 911Q731 909 723 879T702 802T672 698T640 585T609 479T584 397Q553 295 538 227T522 133Q522 116 528 102T557 88Q576 88 601 110T653 171T707 260T758 365L764 360Q770 357 770 354Q770 351 767 346T762 336ZM569 774Q537 774 495 754T407 700T317 622T238 530Q179 450 142 361T104 180Q104 131 119 102T172 72Q204 72 249 107T342 198T439 326T526 469T588 608T612 723Q612 751 602 762T569 774ZM508 1245Q500 1255 496 1261T488 1270T484 1277T483 1286Q483 1295 490 1299T516 1311Q532 1317 539 1320T553 1323Q559 1323 563 1317T576 1294L715 1026Q715 1024 716 1023T717 1020Q717 1018 711 1018H698Q692 1018 690 1021T682 1030L508 1245Z"  />
<glyph unicode="&#xE1;" horiz-adv-x="799" d="M762 336Q727 245 688 178T613 66T544 -1T489 -23Q469 -23 457 -6T444 43Q444 70 451 110T472 202T505 315T549 444L545 446Q529 418 507 382T460 308T411 234T367 170Q291 64 229 21T119 -23Q82 -23 57 16T31 125Q31 183 46 239T87 347T146 450T215 547Q263 612 318 665T431 757T547 822T662 860Q669 882 675 894T686 913T698 922T713 924Q724 924 727 922T731 911Q731 909 723 879T702 802T672 698T640 585T609 479T584 397Q553 295 538 227T522 133Q522 116 528 102T557 88Q576 88 601 110T653 171T707 260T758 365L764 360Q770 357 770 354Q770 351 767 346T762 336ZM569 774Q537 774 495 754T407 700T317 622T238 530Q179 450 142 361T104 180Q104 131 119 102T172 72Q204 72 249 107T342 198T439 326T526 469T588 608T612 723Q612 751 602 762T569 774ZM577 1032Q598 1057 628 1092T691 1166T754 1241T806 1303Q822 1321 826 1325T839 1329Q845 1329 853 1328T886 1315Q902 1309 905 1302T909 1292Q909 1287 904 1278T882 1257Q848 1232 812 1203T740 1143T669 1084T602 1030Q594 1024 587 1018T577 1012Q574 1012 571 1013T567 1018Q567 1020 571 1025T577 1032Z"  />
<glyph unicode="&#xE2;" horiz-adv-x="799" d="M762 336Q727 245 688 178T613 66T544 -1T489 -23Q469 -23 457 -6T444 43Q444 70 451 110T472 202T505 315T549 444L545 446Q529 418 507 382T460 308T411 234T367 170Q291 64 229 21T119 -23Q82 -23 57 16T31 125Q31 183 46 239T87 347T146 450T215 547Q263 612 318 665T431 757T547 822T662 860Q669 882 675 894T686 913T698 922T713 924Q724 924 727 922T731 911Q731 909 723 879T702 802T672 698T640 585T609 479T584 397Q553 295 538 227T522 133Q522 116 528 102T557 88Q576 88 601 110T653 171T707 260T758 365L764 360Q770 357 770 354Q770 351 767 346T762 336ZM569 774Q537 774 495 754T407 700T317 622T238 530Q179 450 142 361T104 180Q104 131 119 102T172 72Q204 72 249 107T342 198T439 326T526 469T588 608T612 723Q612 751 602 762T569 774ZM693 1331Q707 1331 709 1320T715 1298Q721 1274 733 1235T757 1154T779 1075T791 1020Q791 1018 788 1014T781 1010Q779 1010 777 1017T772 1028Q751 1079 724 1129T674 1231Q670 1227 652 1209T610 1167T558 1115T507 1064T467 1025T449 1010Q446 1010 443 1014T439 1022Q439 1025 442 1029T449 1036Q503 1101 555 1165T658 1298Q664 1306 673 1318T693 1331Z"  />
<glyph unicode="&#xE3;" horiz-adv-x="799" d="M762 336Q727 245 688 178T613 66T544 -1T489 -23Q469 -23 457 -6T444 43Q444 70 451 110T472 202T505 315T549 444L545 446Q529 418 507 382T460 308T411 234T367 170Q291 64 229 21T119 -23Q82 -23 57 16T31 125Q31 183 46 239T87 347T146 450T215 547Q263 612 318 665T431 757T547 822T662 860Q669 882 675 894T686 913T698 922T713 924Q724 924 727 922T731 911Q731 909 723 879T702 802T672 698T640 585T609 479T584 397Q553 295 538 227T522 133Q522 116 528 102T557 88Q576 88 601 110T653 171T707 260T758 365L764 360Q770 357 770 354Q770 351 767 346T762 336ZM569 774Q537 774 495 754T407 700T317 622T238 530Q179 450 142 361T104 180Q104 131 119 102T172 72Q204 72 249 107T342 198T439 326T526 469T588 608T612 723Q612 751 602 762T569 774ZM729 1124Q744 1124 757 1129T784 1146T813 1179T850 1231Q852 1234 855 1237T860 1241Q862 1241 866 1234T871 1225Q871 1223 869 1219T860 1204Q812 1133 773 1089T699 1044Q685 1044 667 1056T623 1094Q603 1116 589 1129T564 1150T543 1160T520 1163Q505 1163 492 1159T464 1143T433 1112T396 1061Q394 1058 391 1055T385 1051Q383 1051 379 1058T375 1067Q375 1069 377 1073T385 1087Q433 1159 472 1203T547 1247Q556 1247 564 1245T583 1235T611 1212T654 1169Q669 1153 678 1144T694 1131T710 1125T729 1124Z"  />
<glyph unicode="&#xE4;" horiz-adv-x="799" d="M762 336Q727 245 688 178T613 66T544 -1T489 -23Q469 -23 457 -6T444 43Q444 70 451 110T472 202T505 315T549 444L545 446Q529 418 507 382T460 308T411 234T367 170Q291 64 229 21T119 -23Q82 -23 57 16T31 125Q31 183 46 239T87 347T146 450T215 547Q263 612 318 665T431 757T547 822T662 860Q669 882 675 894T686 913T698 922T713 924Q724 924 727 922T731 911Q731 909 723 879T702 802T672 698T640 585T609 479T584 397Q553 295 538 227T522 133Q522 116 528 102T557 88Q576 88 601 110T653 171T707 260T758 365L764 360Q770 357 770 354Q770 351 767 346T762 336ZM569 774Q537 774 495 754T407 700T317 622T238 530Q179 450 142 361T104 180Q104 131 119 102T172 72Q204 72 249 107T342 198T439 326T526 469T588 608T612 723Q612 751 602 762T569 774ZM565 1135Q564 1125 557 1114T540 1093T518 1077T494 1071Q485 1071 475 1077T456 1091T442 1110T436 1128Q436 1140 442 1153T459 1176T482 1193T506 1200Q515 1200 525 1194T544 1178T559 1157T565 1135ZM723 1071Q714 1071 704 1077T685 1091T672 1110T666 1128Q666 1140 672 1153T689 1176T711 1193T735 1200Q744 1200 754 1194T774 1178T789 1157T795 1135Q794 1125 787 1114T770 1093T747 1077T723 1071Z"  />
<glyph unicode="&#xE5;" horiz-adv-x="799" d="M762 336Q727 245 688 178T613 66T544 -1T489 -23Q469 -23 457 -6T444 43Q444 70 451 110T472 202T505 315T549 444L545 446Q529 418 507 382T460 308T411 234T367 170Q291 64 229 21T119 -23Q82 -23 57 16T31 125Q31 183 46 239T87 347T146 450T215 547Q263 612 318 665T431 757T547 822T662 860Q669 882 675 894T686 913T698 922T713 924Q724 924 727 922T731 911Q731 909 723 879T702 802T672 698T640 585T609 479T584 397Q553 295 538 227T522 133Q522 116 528 102T557 88Q576 88 601 110T653 171T707 260T758 365L764 360Q770 357 770 354Q770 351 767 346T762 336ZM569 774Q537 774 495 754T407 700T317 622T238 530Q179 450 142 361T104 180Q104 131 119 102T172 72Q204 72 249 107T342 198T439 326T526 469T588 608T612 723Q612 751 602 762T569 774ZM649 1001Q571 1001 530 1043T488 1155Q488 1195 503 1229T545 1287T609 1325T690 1339Q766 1339 807 1298T848 1188Q848 1148 833 1114T791 1054T728 1015T649 1001ZM682 1307Q656 1307 634 1296T596 1264T570 1215T561 1155Q561 1036 654 1036Q680 1036 702 1047T740 1078T765 1127T774 1190Q774 1246 752 1276T682 1307Z"  />
<glyph unicode="&#xE6;" horiz-adv-x="1040" d="M930 203Q932 198 933 197T934 190Q934 188 927 179T910 157T886 129T860 100Q800 31 743 4T637 -23Q591 -23 561 -9T513 31T488 97T481 186Q481 210 486 242T497 305Q504 340 514 377H510Q443 255 388 177T288 55T204 -6T133 -23Q104 -23 85 -10T53 24T36 74T31 133Q31 212 57 292T129 446T233 587T357 707T491 798T621 852Q630 854 638 857Q645 859 652 861T664 864L674 893Q682 915 690 920T715 926Q726 926 730 925T735 915Q735 907 729 883L705 809Q735 836 761 852T810 877T851 888T881 891Q950 891 987 847T1024 731V721Q1020 652 990 600T908 512T790 458T647 440H598Q581 385 569 325T557 199Q557 123 585 86T676 49Q684 49 691 49T707 51Q759 57 814 101T926 213L930 203ZM842 848Q800 848 764 822T699 746T645 625T602 465Q674 465 738 476T849 518T924 602T952 739Q952 773 942 794T916 827T881 843T842 848ZM578 778Q545 778 501 760T411 709T321 635T244 545Q219 509 196 468T156 381T128 289T117 193Q117 168 121 147T135 109T160 84T197 74Q231 74 270 103T351 180T432 289T506 416Q546 493 573 565T612 692Q618 717 618 735Q618 758 608 767T578 778Z"  />
<glyph unicode="&#xE7;" horiz-adv-x="567" d="M125 -156Q125 -149 127 -143T137 -129L231 -23Q151 -21 112 50T72 252Q72 314 83 379T114 508T164 629T231 737Q291 817 359 852T489 887Q526 887 552 880T595 860T619 832T627 799Q627 770 617 762T596 754Q577 754 561 769T529 802T493 835T446 850Q398 850 345 808T244 674Q220 627 203 574T173 467T156 363T150 274Q150 163 179 103T276 43Q304 43 333 58T392 101T451 167T508 252H510L512 246Q516 238 516 236Q516 228 508 215Q487 176 461 137T402 64T334 8T256 -20L215 -72Q212 -77 206 -86T199 -104Q199 -117 206 -126T225 -143Q251 -165 262 -187T274 -233Q274 -240 273 -246T270 -258Q263 -288 244 -317T198 -371T141 -409T82 -424Q50 -424 33 -411T16 -381Q16 -367 25 -353T49 -338Q54 -338 64 -343T88 -360Q97 -370 108 -373T131 -377Q159 -377 182 -359T213 -309Q215 -303 216 -298T217 -287Q217 -256 198 -231T145 -184Q131 -176 128 -169T125 -156Z"  />
<glyph unicode="&#xE8;" horiz-adv-x="631" d="M164 449Q151 386 149 334T147 248Q147 183 157 144T185 82T226 53T276 45Q312 45 345 59T408 97T468 151T526 215H528Q530 213 531 210T532 205Q532 202 521 185T481 137Q406 56 343 17T215 -23Q141 -23 104 46T66 246Q66 331 82 411T126 563T193 694T277 796T371 863T469 887Q535 887 574 848T614 741Q614 678 593 632T537 553T455 501T359 469T259 454T164 449ZM444 842Q384 842 341 815T265 738T209 622T166 475Q253 475 323 487T442 529T518 608T545 731Q545 760 536 781T513 815T481 835T444 842ZM393 1245Q385 1255 381 1261T373 1270T369 1277T368 1286Q368 1295 375 1299T401 1311Q417 1317 424 1320T438 1323Q444 1323 448 1317T461 1294L600 1026Q600 1024 601 1023T602 1020Q602 1018 596 1018H583Q577 1018 575 1021T567 1030L393 1245Z"  />
<glyph unicode="&#xE9;" horiz-adv-x="631" d="M164 449Q151 386 149 334T147 248Q147 183 157 144T185 82T226 53T276 45Q312 45 345 59T408 97T468 151T526 215H528Q530 213 531 210T532 205Q532 202 521 185T481 137Q406 56 343 17T215 -23Q141 -23 104 46T66 246Q66 331 82 411T126 563T193 694T277 796T371 863T469 887Q535 887 574 848T614 741Q614 678 593 632T537 553T455 501T359 469T259 454T164 449ZM444 842Q384 842 341 815T265 738T209 622T166 475Q253 475 323 487T442 529T518 608T545 731Q545 760 536 781T513 815T481 835T444 842ZM432 1032Q453 1057 483 1092T546 1166T609 1241T661 1303Q677 1321 681 1325T694 1329Q700 1329 708 1328T741 1315Q757 1309 760 1302T764 1292Q764 1287 759 1278T737 1257Q703 1232 667 1203T595 1143T524 1084T457 1030Q449 1024 442 1018T432 1012Q429 1012 426 1013T422 1018Q422 1020 426 1025T432 1032Z"  />
<glyph unicode="&#xEA;" horiz-adv-x="631" d="M164 449Q151 386 149 334T147 248Q147 183 157 144T185 82T226 53T276 45Q312 45 345 59T408 97T468 151T526 215H528Q530 213 531 210T532 205Q532 202 521 185T481 137Q406 56 343 17T215 -23Q141 -23 104 46T66 246Q66 331 82 411T126 563T193 694T277 796T371 863T469 887Q535 887 574 848T614 741Q614 678 593 632T537 553T455 501T359 469T259 454T164 449ZM444 842Q384 842 341 815T265 738T209 622T166 475Q253 475 323 487T442 529T518 608T545 731Q545 760 536 781T513 815T481 835T444 842ZM566 1331Q580 1331 582 1320T588 1298Q594 1274 606 1235T630 1154T652 1075T664 1020Q664 1018 661 1014T654 1010Q652 1010 650 1017T645 1028Q624 1079 597 1129T547 1231Q543 1227 525 1209T483 1167T431 1115T380 1064T340 1025T322 1010Q319 1010 316 1014T312 1022Q312 1025 315 1029T322 1036Q376 1101 428 1165T531 1298Q537 1306 546 1318T566 1331Z"  />
<glyph unicode="&#xEB;" horiz-adv-x="631" d="M164 449Q151 386 149 334T147 248Q147 183 157 144T185 82T226 53T276 45Q312 45 345 59T408 97T468 151T526 215H528Q530 213 531 210T532 205Q532 202 521 185T481 137Q406 56 343 17T215 -23Q141 -23 104 46T66 246Q66 331 82 411T126 563T193 694T277 796T371 863T469 887Q535 887 574 848T614 741Q614 678 593 632T537 553T455 501T359 469T259 454T164 449ZM444 842Q384 842 341 815T265 738T209 622T166 475Q253 475 323 487T442 529T518 608T545 731Q545 760 536 781T513 815T481 835T444 842ZM432 1135Q431 1125 424 1114T407 1093T385 1077T361 1071Q352 1071 342 1077T323 1091T309 1110T303 1128Q303 1140 309 1153T326 1176T349 1193T373 1200Q382 1200 392 1194T411 1178T426 1157T432 1135ZM590 1071Q581 1071 571 1077T552 1091T539 1110T533 1128Q533 1140 539 1153T556 1176T578 1193T602 1200Q611 1200 621 1194T641 1178T656 1157T662 1135Q661 1125 654 1114T637 1093T614 1077T590 1071Z"  />
<glyph unicode="&#xEC;" horiz-adv-x="434" d="M94 647V662Q94 666 95 670T100 681T111 698T131 723Q148 743 162 760T193 791Q239 834 277 856T346 879Q363 879 370 867T377 836Q377 822 374 807T368 777T360 750T354 731L160 158Q155 142 150 126T145 96Q145 76 160 76Q179 76 208 95T267 140T323 194T362 240H365V215Q365 210 364 205T357 192T343 174T319 147Q245 64 193 21T102 -23Q81 -23 72 -10T63 29Q63 75 76 116T102 193L268 690Q269 696 272 705T278 723T283 743T285 760Q285 769 283 773T270 778Q252 778 236 772T200 750T155 710T96 647H94ZM254 1245Q246 1255 242 1261T234 1270T230 1277T229 1286Q229 1295 236 1299T262 1311Q278 1317 285 1320T299 1323Q305 1323 309 1317T322 1294L461 1026Q461 1024 462 1023T463 1020Q463 1018 457 1018H444Q438 1018 436 1021T428 1030L254 1245Z"  />
<glyph unicode="&#xED;" horiz-adv-x="434" d="M94 647V662Q94 666 95 670T100 681T111 698T131 723Q148 743 162 760T193 791Q239 834 277 856T346 879Q363 879 370 867T377 836Q377 822 374 807T368 777T360 750T354 731L160 158Q155 142 150 126T145 96Q145 76 160 76Q179 76 208 95T267 140T323 194T362 240H365V215Q365 210 364 205T357 192T343 174T319 147Q245 64 193 21T102 -23Q81 -23 72 -10T63 29Q63 75 76 116T102 193L268 690Q269 696 272 705T278 723T283 743T285 760Q285 769 283 773T270 778Q252 778 236 772T200 750T155 710T96 647H94ZM305 1032Q326 1057 356 1092T419 1166T482 1241T534 1303Q550 1321 554 1325T567 1329Q573 1329 581 1328T614 1315Q630 1309 633 1302T637 1292Q637 1287 632 1278T610 1257Q576 1232 540 1203T468 1143T397 1084T330 1030Q322 1024 315 1018T305 1012Q302 1012 299 1013T295 1018Q295 1020 299 1025T305 1032Z"  />
<glyph unicode="&#xEE;" horiz-adv-x="434" d="M94 647V662Q94 666 95 670T100 681T111 698T131 723Q148 743 162 760T193 791Q239 834 277 856T346 879Q363 879 370 867T377 836Q377 822 374 807T368 777T360 750T354 731L160 158Q155 142 150 126T145 96Q145 76 160 76Q179 76 208 95T267 140T323 194T362 240H365V215Q365 210 364 205T357 192T343 174T319 147Q245 64 193 21T102 -23Q81 -23 72 -10T63 29Q63 75 76 116T102 193L268 690Q269 696 272 705T278 723T283 743T285 760Q285 769 283 773T270 778Q252 778 236 772T200 750T155 710T96 647H94ZM445 1331Q459 1331 461 1320T467 1298Q473 1274 485 1235T509 1154T531 1075T543 1020Q543 1018 540 1014T533 1010Q531 1010 529 1017T524 1028Q503 1079 476 1129T426 1231Q422 1227 404 1209T362 1167T310 1115T259 1064T219 1025T201 1010Q198 1010 195 1014T191 1022Q191 1025 194 1029T201 1036Q255 1101 307 1165T410 1298Q416 1306 425 1318T445 1331Z"  />
<glyph unicode="&#xEF;" horiz-adv-x="434" d="M94 647V662Q94 666 95 670T100 681T111 698T131 723Q148 743 162 760T193 791Q239 834 277 856T346 879Q363 879 370 867T377 836Q377 822 374 807T368 777T360 750T354 731L160 158Q155 142 150 126T145 96Q145 76 160 76Q179 76 208 95T267 140T323 194T362 240H365V215Q365 210 364 205T357 192T343 174T319 147Q245 64 193 21T102 -23Q81 -23 72 -10T63 29Q63 75 76 116T102 193L268 690Q269 696 272 705T278 723T283 743T285 760Q285 769 283 773T270 778Q252 778 236 772T200 750T155 710T96 647H94ZM295 1135Q294 1125 287 1114T270 1093T248 1077T224 1071Q215 1071 205 1077T186 1091T172 1110T166 1128Q166 1140 172 1153T189 1176T212 1193T236 1200Q245 1200 255 1194T274 1178T289 1157T295 1135ZM453 1071Q444 1071 434 1077T415 1091T402 1110T396 1128Q396 1140 402 1153T419 1176T441 1193T465 1200Q474 1200 484 1194T504 1178T519 1157T525 1135Q524 1125 517 1114T500 1093T477 1077T453 1071Z"  />
<glyph unicode="&#xF0;" horiz-adv-x="731" d="M201 711Q256 796 326 841T473 887Q510 887 540 875T594 840Q593 850 592 873T589 928T583 997T576 1071T568 1141T559 1200Q533 1189 512 1180T469 1161T423 1139T367 1112H365Q362 1112 358 1116L350 1143V1147Q350 1149 354 1153Q376 1162 396 1170T438 1188T487 1209T551 1237Q542 1272 534 1299T520 1348T506 1389T492 1430Q488 1439 486 1446T483 1458Q483 1462 487 1462Q489 1462 493 1461T502 1458Q516 1453 522 1447T535 1425Q544 1404 558 1364T592 1255Q625 1269 649 1281T694 1303T733 1323T772 1343Q778 1343 780 1339L791 1313Q791 1308 786 1303Q763 1293 744 1284T705 1266T660 1245T604 1221Q623 1152 635 1079T654 936T663 804T666 694Q666 609 655 523T621 357T564 208T485 88T384 7T260 -23Q167 -23 120 52T72 272Q72 327 81 386T108 504T149 615T201 711ZM281 4Q344 4 403 68T508 254Q525 301 538 352T562 455T578 556T586 647V664Q586 707 578 743T555 806T517 847T465 862Q394 862 337 802T236 627Q217 579 202 526T175 421T157 319T150 229Q150 126 182 65T281 4Z"  />
<glyph unicode="&#xF1;" horiz-adv-x="881" d="M842 326Q829 306 817 287T793 248Q709 120 646 50T539 -20Q518 -20 518 10Q518 30 524 57Q537 113 553 167T584 268Q609 349 629 424T665 562T688 676T696 756Q696 780 687 797T655 815Q623 815 587 787T513 712T437 603T364 474T297 338T239 208T195 99T168 23Q162 1 155 -12T129 -25Q114 -25 108 -18T102 2Q102 11 103 21T109 43Q118 81 137 150T182 313L188 334Q224 458 249 545T287 690Q292 712 293 729T295 760Q295 803 268 803Q250 803 231 790T190 754T147 698T102 627L96 614V629Q96 638 101 652T127 702Q181 798 230 842T324 889Q348 889 358 870T369 819Q369 793 363 761T348 690Q337 646 323 598T292 500T259 400T227 303L233 299Q377 588 497 735T702 883Q722 883 735 875T756 853T767 820T770 780Q767 735 760 697T743 621Q716 512 685 398T623 172Q615 144 612 128T608 104Q608 96 612 95T621 94Q648 97 700 157T840 346L846 354V342Q846 339 846 336T842 326ZM716 1124Q731 1124 744 1129T771 1146T800 1179T837 1231Q839 1234 842 1237T847 1241Q849 1241 853 1234T858 1225Q858 1223 856 1219T847 1204Q799 1133 760 1089T686 1044Q672 1044 654 1056T610 1094Q590 1116 576 1129T551 1150T530 1160T507 1163Q492 1163 479 1159T451 1143T420 1112T383 1061Q381 1058 378 1055T372 1051Q370 1051 366 1058T362 1067Q362 1069 364 1073T372 1087Q420 1159 459 1203T534 1247Q543 1247 551 1245T570 1235T598 1212T641 1169Q656 1153 665 1144T681 1131T697 1125T716 1124Z"  />
<glyph unicode="&#xF2;" horiz-adv-x="731" d="M207 711Q263 796 333 841T479 887Q567 887 616 822T666 631Q666 569 655 497T620 352T563 211T484 91T381 8T256 -23Q168 -23 120 47T72 248Q72 382 109 500T207 711ZM276 4Q339 4 401 68T508 254Q525 300 540 352T566 459T583 567T590 670Q590 712 583 747T560 807T523 847T473 862Q402 862 344 802T240 627Q198 518 174 415T150 211Q150 115 181 60T276 4ZM383 1245Q375 1255 371 1261T363 1270T359 1277T358 1286Q358 1295 365 1299T391 1311Q407 1317 414 1320T428 1323Q434 1323 438 1317T451 1294L590 1026Q590 1024 591 1023T592 1020Q592 1018 586 1018H573Q567 1018 565 1021T557 1030L383 1245Z"  />
<glyph unicode="&#xF3;" horiz-adv-x="731" d="M207 711Q263 796 333 841T479 887Q567 887 616 822T666 631Q666 569 655 497T620 352T563 211T484 91T381 8T256 -23Q168 -23 120 47T72 248Q72 382 109 500T207 711ZM276 4Q339 4 401 68T508 254Q525 300 540 352T566 459T583 567T590 670Q590 712 583 747T560 807T523 847T473 862Q402 862 344 802T240 627Q198 518 174 415T150 211Q150 115 181 60T276 4ZM424 1032Q445 1057 475 1092T538 1166T601 1241T653 1303Q669 1321 673 1325T686 1329Q692 1329 700 1328T733 1315Q749 1309 752 1302T756 1292Q756 1287 751 1278T729 1257Q695 1232 659 1203T587 1143T516 1084T449 1030Q441 1024 434 1018T424 1012Q421 1012 418 1013T414 1018Q414 1020 418 1025T424 1032Z"  />
<glyph unicode="&#xF4;" horiz-adv-x="731" d="M207 711Q263 796 333 841T479 887Q567 887 616 822T666 631Q666 569 655 497T620 352T563 211T484 91T381 8T256 -23Q168 -23 120 47T72 248Q72 382 109 500T207 711ZM276 4Q339 4 401 68T508 254Q525 300 540 352T566 459T583 567T590 670Q590 712 583 747T560 807T523 847T473 862Q402 862 344 802T240 627Q198 518 174 415T150 211Q150 115 181 60T276 4ZM584 1331Q598 1331 600 1320T606 1298Q612 1274 624 1235T648 1154T670 1075T682 1020Q682 1018 679 1014T672 1010Q670 1010 668 1017T663 1028Q642 1079 615 1129T565 1231Q561 1227 543 1209T501 1167T449 1115T398 1064T358 1025T340 1010Q337 1010 334 1014T330 1022Q330 1025 333 1029T340 1036Q394 1101 446 1165T549 1298Q555 1306 564 1318T584 1331Z"  />
<glyph unicode="&#xF5;" horiz-adv-x="731" d="M207 711Q263 796 333 841T479 887Q567 887 616 822T666 631Q666 569 655 497T620 352T563 211T484 91T381 8T256 -23Q168 -23 120 47T72 248Q72 382 109 500T207 711ZM276 4Q339 4 401 68T508 254Q525 300 540 352T566 459T583 567T590 670Q590 712 583 747T560 807T523 847T473 862Q402 862 344 802T240 627Q198 518 174 415T150 211Q150 115 181 60T276 4ZM647 1124Q662 1124 675 1129T702 1146T731 1179T768 1231Q770 1234 773 1237T778 1241Q780 1241 784 1234T789 1225Q789 1223 787 1219T778 1204Q730 1133 691 1089T617 1044Q603 1044 585 1056T541 1094Q521 1116 507 1129T482 1150T461 1160T438 1163Q423 1163 410 1159T382 1143T351 1112T314 1061Q312 1058 309 1055T303 1051Q301 1051 297 1058T293 1067Q293 1069 295 1073T303 1087Q351 1159 390 1203T465 1247Q474 1247 482 1245T501 1235T529 1212T572 1169Q587 1153 596 1144T612 1131T628 1125T647 1124Z"  />
<glyph unicode="&#xF6;" horiz-adv-x="731" d="M207 711Q263 796 333 841T479 887Q567 887 616 822T666 631Q666 569 655 497T620 352T563 211T484 91T381 8T256 -23Q168 -23 120 47T72 248Q72 382 109 500T207 711ZM276 4Q339 4 401 68T508 254Q525 300 540 352T566 459T583 567T590 670Q590 712 583 747T560 807T523 847T473 862Q402 862 344 802T240 627Q198 518 174 415T150 211Q150 115 181 60T276 4ZM487 1135Q486 1125 479 1114T462 1093T440 1077T416 1071Q407 1071 397 1077T378 1091T364 1110T358 1128Q358 1140 364 1153T381 1176T404 1193T428 1200Q437 1200 447 1194T466 1178T481 1157T487 1135ZM645 1071Q636 1071 626 1077T607 1091T594 1110T588 1128Q588 1140 594 1153T611 1176T633 1193T657 1200Q666 1200 676 1194T696 1178T711 1157T717 1135Q716 1125 709 1114T692 1093T669 1077T645 1071Z"  />
<glyph unicode="&#xF7;" horiz-adv-x="840" d="M428 868Q400 868 381 887T362 934Q362 962 381 980T428 999Q456 999 475 981T494 934Q494 906 475 887T428 868ZM84 614V686H766V614H84ZM428 301Q400 301 381 320T362 367Q362 394 381 413T428 432Q456 432 475 413T494 367Q494 339 475 320T428 301Z"  />
<glyph unicode="&#xF8;" horiz-adv-x="731" d="M102 76Q72 140 72 248Q72 382 109 500T207 711Q263 796 333 841T479 887Q535 887 574 860T637 782L735 911H770L649 752Q657 726 661 696T666 631Q666 569 655 497T620 352T563 211T484 91T381 8T256 -23Q166 -23 119 49L16 -86H-18L102 76ZM150 211Q150 192 151 176T154 143L586 715Q578 781 551 821T473 862Q402 862 344 802T240 627Q198 518 174 415T150 211ZM276 4Q339 4 401 68T508 254Q525 300 540 352T566 459T583 567T590 670V672L162 106Q176 57 204 31T276 4Z"  />
<glyph unicode="&#xF9;" horiz-adv-x="885" d="M426 1245Q418 1255 414 1261T406 1270T402 1277T401 1286Q401 1295 408 1299T434 1311Q450 1317 457 1320T471 1323Q477 1323 481 1317T494 1294L633 1026Q633 1024 634 1023T635 1020Q635 1018 629 1018H616Q610 1018 608 1021T600 1030L426 1245ZM842 328Q839 301 827 285Q812 259 795 232T762 179T729 128T700 84Q668 36 627 9T551 -18Q528 -18 517 -5T506 37Q506 46 507 55T510 78Q516 117 532 172T569 288T614 414T659 534T697 634T721 700L733 737H731Q670 636 608 540T487 362T379 215T295 115Q259 76 233 51T185 10T148 -11T115 -18Q96 -18 89 -3T82 39Q82 64 87 96T102 161T121 228T141 288T158 335T168 362Q180 395 198 444T235 544T271 639T297 707Q303 721 305 730T307 745Q307 756 301 756Q293 756 281 749T254 730T223 701T191 669Q154 630 113 580L111 578Q109 580 107 581T104 586V588Q104 590 106 592Q112 604 125 622T152 658T177 690T190 707Q231 758 262 792T318 848T361 879T393 889Q403 889 407 883T412 866Q412 854 408 839T399 811Q391 790 377 753T347 670T312 577T278 484T249 403T229 348Q220 321 210 290T191 228T176 169T170 121Q170 86 190 86Q214 86 254 120T344 214T449 349T556 507T653 672T729 825Q733 833 737 842Q740 849 743 857T750 870Q756 887 772 887Q783 887 795 879Q809 867 809 850Q809 847 808 844T807 838Q804 821 799 807T786 776Q745 653 715 559T664 395T629 279T608 209Q605 197 602 183T597 154T594 128T592 109Q592 96 596 88T612 80Q631 80 653 98T696 139Q733 180 770 238T842 352V328Z"  />
<glyph unicode="&#xFA;" horiz-adv-x="885" d="M842 328Q839 301 827 285Q812 259 795 232T762 179T729 128T700 84Q668 36 627 9T551 -18Q528 -18 517 -5T506 37Q506 46 507 55T510 78Q516 117 532 172T569 288T614 414T659 534T697 634T721 700L733 737H731Q670 636 608 540T487 362T379 215T295 115Q259 76 233 51T185 10T148 -11T115 -18Q96 -18 89 -3T82 39Q82 64 87 96T102 161T121 228T141 288T158 335T168 362Q180 395 198 444T235 544T271 639T297 707Q303 721 305 730T307 745Q307 756 301 756Q293 756 281 749T254 730T223 701T191 669Q154 630 113 580L111 578Q109 580 107 581T104 586V588Q104 590 106 592Q112 604 125 622T152 658T177 690T190 707Q231 758 262 792T318 848T361 879T393 889Q403 889 407 883T412 866Q412 854 408 839T399 811Q391 790 377 753T347 670T312 577T278 484T249 403T229 348Q220 321 210 290T191 228T176 169T170 121Q170 86 190 86Q214 86 254 120T344 214T449 349T556 507T653 672T729 825Q733 833 737 842Q740 849 743 857T750 870Q756 887 772 887Q783 887 795 879Q809 867 809 850Q809 847 808 844T807 838Q804 821 799 807T786 776Q745 653 715 559T664 395T629 279T608 209Q605 197 602 183T597 154T594 128T592 109Q592 96 596 88T612 80Q631 80 653 98T696 139Q733 180 770 238T842 352V328ZM553 1032Q574 1057 604 1092T667 1166T730 1241T782 1303Q798 1321 802 1325T815 1329Q821 1329 829 1328T862 1315Q878 1309 881 1302T885 1292Q885 1287 880 1278T858 1257Q824 1232 788 1203T716 1143T645 1084T578 1030Q570 1024 563 1018T553 1012Q550 1012 547 1013T543 1018Q543 1020 547 1025T553 1032Z"  />
<glyph unicode="&#xFB;" horiz-adv-x="885" d="M842 328Q839 301 827 285Q812 259 795 232T762 179T729 128T700 84Q668 36 627 9T551 -18Q528 -18 517 -5T506 37Q506 46 507 55T510 78Q516 117 532 172T569 288T614 414T659 534T697 634T721 700L733 737H731Q670 636 608 540T487 362T379 215T295 115Q259 76 233 51T185 10T148 -11T115 -18Q96 -18 89 -3T82 39Q82 64 87 96T102 161T121 228T141 288T158 335T168 362Q180 395 198 444T235 544T271 639T297 707Q303 721 305 730T307 745Q307 756 301 756Q293 756 281 749T254 730T223 701T191 669Q154 630 113 580L111 578Q109 580 107 581T104 586V588Q104 590 106 592Q112 604 125 622T152 658T177 690T190 707Q231 758 262 792T318 848T361 879T393 889Q403 889 407 883T412 866Q412 854 408 839T399 811Q391 790 377 753T347 670T312 577T278 484T249 403T229 348Q220 321 210 290T191 228T176 169T170 121Q170 86 190 86Q214 86 254 120T344 214T449 349T556 507T653 672T729 825Q733 833 737 842Q740 849 743 857T750 870Q756 887 772 887Q783 887 795 879Q809 867 809 850Q809 847 808 844T807 838Q804 821 799 807T786 776Q745 653 715 559T664 395T629 279T608 209Q605 197 602 183T597 154T594 128T592 109Q592 96 596 88T612 80Q631 80 653 98T696 139Q733 180 770 238T842 352V328ZM705 1331Q719 1331 721 1320T727 1298Q733 1274 745 1235T769 1154T791 1075T803 1020Q803 1018 800 1014T793 1010Q791 1010 789 1017T784 1028Q763 1079 736 1129T686 1231Q682 1227 664 1209T622 1167T570 1115T519 1064T479 1025T461 1010Q458 1010 455 1014T451 1022Q451 1025 454 1029T461 1036Q515 1101 567 1165T670 1298Q676 1306 685 1318T705 1331Z"  />
<glyph unicode="&#xFC;" horiz-adv-x="885" d="M842 328Q839 301 827 285Q812 259 795 232T762 179T729 128T700 84Q668 36 627 9T551 -18Q528 -18 517 -5T506 37Q506 46 507 55T510 78Q516 117 532 172T569 288T614 414T659 534T697 634T721 700L733 737H731Q670 636 608 540T487 362T379 215T295 115Q259 76 233 51T185 10T148 -11T115 -18Q96 -18 89 -3T82 39Q82 64 87 96T102 161T121 228T141 288T158 335T168 362Q180 395 198 444T235 544T271 639T297 707Q303 721 305 730T307 745Q307 756 301 756Q293 756 281 749T254 730T223 701T191 669Q154 630 113 580L111 578Q109 580 107 581T104 586V588Q104 590 106 592Q112 604 125 622T152 658T177 690T190 707Q231 758 262 792T318 848T361 879T393 889Q403 889 407 883T412 866Q412 854 408 839T399 811Q391 790 377 753T347 670T312 577T278 484T249 403T229 348Q220 321 210 290T191 228T176 169T170 121Q170 86 190 86Q214 86 254 120T344 214T449 349T556 507T653 672T729 825Q733 833 737 842Q740 849 743 857T750 870Q756 887 772 887Q783 887 795 879Q809 867 809 850Q809 847 808 844T807 838Q804 821 799 807T786 776Q745 653 715 559T664 395T629 279T608 209Q605 197 602 183T597 154T594 128T592 109Q592 96 596 88T612 80Q631 80 653 98T696 139Q733 180 770 238T842 352V328ZM561 1135Q560 1125 553 1114T536 1093T514 1077T490 1071Q481 1071 471 1077T452 1091T438 1110T432 1128Q432 1140 438 1153T455 1176T478 1193T502 1200Q511 1200 521 1194T540 1178T555 1157T561 1135ZM719 1071Q710 1071 700 1077T681 1091T668 1110T662 1128Q662 1140 668 1153T685 1176T707 1193T731 1200Q740 1200 750 1194T770 1178T785 1157T791 1135Q790 1125 783 1114T766 1093T743 1077T719 1071Z"  />
<glyph unicode="&#xFD;" horiz-adv-x="807" d="M528 104Q446 -52 370 -173T214 -377T48 -503T-141 -547Q-164 -547 -191 -542T-242 -525T-281 -492T-297 -440Q-297 -420 -281 -404T-244 -387Q-217 -387 -205 -422Q-191 -457 -167 -470T-106 -483Q-29 -483 37 -455T158 -378T260 -269T346 -141Q360 -117 369 -99T383 -65T391 -35T393 -4Q393 5 392 21T390 54T387 87T385 111Q383 132 381 168T374 250T363 350T350 461Q342 538 331 602T304 712T265 785T207 811Q181 811 157 794T113 744T80 665T61 563Q58 542 58 537T49 532Q44 532 42 533T39 541Q39 567 44 602T60 675T87 750T127 817T179 865T246 883Q286 883 315 852T366 767T401 638T424 475Q430 418 436 366T447 260T455 153T459 37Q523 157 574 273Q596 322 616 376T653 483T680 586T692 678Q692 697 691 711T685 738T673 761T653 786Q650 793 643 805T635 834Q635 845 640 854T659 872Q670 879 678 881T694 883Q710 883 721 873T741 846Q751 826 753 802T756 756Q756 708 742 642T700 492T629 311T528 104ZM463 1032Q484 1057 514 1092T577 1166T640 1241T692 1303Q708 1321 712 1325T725 1329Q731 1329 739 1328T772 1315Q788 1309 791 1302T795 1292Q795 1287 790 1278T768 1257Q734 1232 698 1203T626 1143T555 1084T488 1030Q480 1024 473 1018T463 1012Q460 1012 457 1013T453 1018Q453 1020 457 1025T463 1032Z"  />
<glyph unicode="&#xFE;" horiz-adv-x="748" d="M305 1188Q314 1233 319 1269T324 1327Q324 1345 317 1354T296 1368T264 1373T223 1376Q215 1376 215 1380Q215 1396 225 1399L244 1403Q296 1417 336 1426T399 1440Q404 1442 413 1443T430 1444Q433 1444 436 1444T440 1438Q440 1436 439 1435T438 1432Q433 1416 425 1386T408 1309L303 813L336 821Q457 858 545 858Q629 858 673 815T717 670Q717 612 705 548T670 421T619 298T557 193Q498 109 430 62T291 14Q256 14 225 24T156 61L100 -252Q89 -317 84 -359T78 -430Q78 -462 86 -476T114 -495T162 -500T233 -502H242Q245 -502 247 -502T250 -508Q250 -510 249 -511T248 -514Q246 -523 244 -524T236 -526Q231 -526 188 -523T43 -520Q-15 -520 -50 -521T-104 -523T-132 -525T-143 -526Q-150 -526 -150 -520V-516Q-150 -510 -148 -508T-139 -504Q-99 -498 -75 -498T-35 -483Q-24 -473 -16 -454T2 -398T21 -307T47 -172L217 756Q180 748 143 735T80 713V729Q80 741 82 744T90 750Q106 756 127 763Q144 769 169 776T223 793L305 1188ZM209 346Q200 301 190 256T180 170Q180 144 185 123T205 86T241 62T299 53Q361 53 416 106T520 262Q568 358 600 455T633 653Q633 732 599 767T479 803Q422 803 379 794T295 774L209 346Z"  />
<glyph unicode="&#xFF;" horiz-adv-x="807" d="M528 104Q446 -52 370 -173T214 -377T48 -503T-141 -547Q-164 -547 -191 -542T-242 -525T-281 -492T-297 -440Q-297 -420 -281 -404T-244 -387Q-217 -387 -205 -422Q-191 -457 -167 -470T-106 -483Q-29 -483 37 -455T158 -378T260 -269T346 -141Q360 -117 369 -99T383 -65T391 -35T393 -4Q393 5 392 21T390 54T387 87T385 111Q383 132 381 168T374 250T363 350T350 461Q342 538 331 602T304 712T265 785T207 811Q181 811 157 794T113 744T80 665T61 563Q58 542 58 537T49 532Q44 532 42 533T39 541Q39 567 44 602T60 675T87 750T127 817T179 865T246 883Q286 883 315 852T366 767T401 638T424 475Q430 418 436 366T447 260T455 153T459 37Q523 157 574 273Q596 322 616 376T653 483T680 586T692 678Q692 697 691 711T685 738T673 761T653 786Q650 793 643 805T635 834Q635 845 640 854T659 872Q670 879 678 881T694 883Q710 883 721 873T741 846Q751 826 753 802T756 756Q756 708 742 642T700 492T629 311T528 104ZM510 1135Q509 1125 502 1114T485 1093T463 1077T439 1071Q430 1071 420 1077T401 1091T387 1110T381 1128Q381 1140 387 1153T404 1176T427 1193T451 1200Q460 1200 470 1194T489 1178T504 1157T510 1135ZM668 1071Q659 1071 649 1077T630 1091T617 1110T611 1128Q611 1140 617 1153T634 1176T656 1193T680 1200Q689 1200 699 1194T719 1178T734 1157T740 1135Q739 1125 732 1114T715 1093T692 1077T668 1071Z"  />
<glyph unicode="&#x131;" horiz-adv-x="434" d="M94 647V662Q94 666 95 670T100 681T111 698T131 723Q148 743 162 760T193 791Q239 834 277 856T346 879Q363 879 370 867T377 836Q377 822 374 807T368 777T360 750T354 731L160 158Q155 142 150 126T145 96Q145 76 160 76Q179 76 208 95T267 140T323 194T362 240H365V215Q365 210 364 205T357 192T343 174T319 147Q245 64 193 21T102 -23Q81 -23 72 -10T63 29Q63 75 76 116T102 193L268 690Q269 696 272 705T278 723T283 743T285 760Q285 769 283 773T270 778Q252 778 236 772T200 750T155 710T96 647H94Z"  />
<glyph unicode="&#x152;" horiz-adv-x="1505" d="M911 1040Q915 1061 918 1083T924 1124T928 1156T930 1174Q930 1210 914 1232T870 1268T801 1285T711 1290Q637 1290 576 1262T464 1186T376 1076T310 945T264 806T238 672Q231 627 227 579T223 483Q223 394 238 310T290 161T387 56T539 16Q589 16 623 20T681 44T720 99T748 201L911 1040ZM150 653Q169 797 220 920T348 1133T522 1274T729 1325Q767 1325 806 1322T876 1314T928 1307T950 1303H1147Q1187 1303 1231 1303T1320 1303T1405 1303T1481 1305H1513Q1521 1305 1523 1304T1526 1298Q1526 1295 1526 1291T1522 1278Q1513 1249 1504 1215T1485 1144T1467 1073T1454 1008Q1454 1004 1450 1004Q1447 1004 1445 1005T1442 1012L1444 1026Q1450 1093 1450 1137Q1450 1179 1442 1204T1406 1243T1324 1261T1176 1266Q1124 1266 1096 1264T1052 1248T1030 1208T1012 1130L924 694H1016Q1103 694 1156 698T1241 718T1290 761T1325 838Q1331 855 1332 858T1335 862H1339Q1343 860 1343 856Q1343 854 1343 852T1341 844Q1317 756 1298 673T1264 498L1260 471Q1260 463 1253 463Q1249 463 1249 469L1251 494Q1253 509 1254 521T1255 547Q1255 590 1242 613T1199 648T1124 662T1014 664H918L848 301Q840 260 836 232T829 184T826 151T825 125Q825 93 835 75T872 49T945 39T1063 37Q1100 37 1128 40T1178 50T1220 68T1260 98Q1295 129 1323 182T1370 295L1374 307L1376 313Q1378 318 1383 314T1389 307Q1389 304 1387 297T1382 276Q1376 246 1361 196T1327 94Q1318 66 1312 48T1300 16Q1295 5 1292 3T1284 0L1229 2Q1154 4 1069 5T899 6Q846 6 796 6T700 4Q695 3 687 2T671 -1Q662 -3 653 -4Q588 -16 532 -16Q431 -16 357 19T234 119T161 275T137 481Q137 522 140 565T150 653Z"  />
<glyph unicode="&#x153;" horiz-adv-x="1087" d="M901 842Q815 842 759 777T659 569Q651 546 645 522T633 469Q658 471 671 471T707 473Q760 478 812 490T907 528T975 600T1001 719Q1001 783 971 812T901 842ZM201 711Q255 796 325 841T471 887Q545 887 592 841T655 705Q711 791 781 839T926 887Q992 887 1031 849T1071 741Q1071 683 1053 639T1004 563T931 510T839 475T737 456T629 449Q623 410 617 358T610 250Q610 185 619 145T645 83T684 53T733 45Q768 45 801 59T865 97T925 151T983 215Q986 215 987 212T989 205Q989 202 985 194T967 168Q938 139 908 106T841 44T764 -4T672 -23Q615 -23 577 23T530 156Q504 116 473 83T408 27T336 -10T260 -23Q170 -23 121 49T72 256Q72 372 104 488T201 711ZM279 4Q342 4 402 68T506 254Q540 347 562 450T584 670Q584 712 576 747T553 807T516 847T465 862Q394 862 336 802T233 627Q198 533 174 430T150 221Q150 121 183 63T279 4Z"  />
<glyph unicode="&#x160;" horiz-adv-x="768" d="M705 1028Q705 1053 707 1077T709 1133Q709 1165 702 1193T670 1241Q641 1264 596 1274T510 1284Q468 1284 429 1266T361 1214T315 1136T297 1036Q297 988 302 953T322 884T367 810T446 717L483 676Q519 635 550 597T605 516T642 425T655 315Q655 236 631 173T564 67T460 0T326 -23Q269 -23 218 -15T100 14Q95 16 88 17T74 18Q68 18 65 17T55 16Q51 16 51 25Q54 88 61 161T78 297L84 330Q87 347 87 350T96 354Q102 354 104 353T106 346V338Q104 315 103 292T102 248Q102 228 104 206T111 162T127 120T156 84Q188 53 235 33T328 12Q382 12 427 28T506 76T559 156T578 268Q578 317 572 356T549 434T504 511T434 600L399 641Q352 695 318 738T262 823T230 906T219 999Q219 1069 244 1127T315 1231Q362 1277 415 1298T541 1319Q565 1319 606 1313T705 1292Q714 1290 723 1289T741 1288Q746 1288 750 1289T760 1290Q764 1290 764 1288Q764 1286 764 1284T762 1272Q754 1235 745 1168T725 1022Q725 1017 723 1017T717 1016Q709 1016 707 1017T705 1028ZM530 1420Q516 1420 514 1430T508 1452Q502 1476 490 1515T465 1597T443 1676T432 1731Q432 1733 435 1737T442 1741Q444 1741 446 1734T450 1723Q472 1672 499 1622T549 1520Q553 1524 571 1542T613 1584T665 1636T716 1687T756 1725T774 1741Q777 1741 780 1737T784 1729Q784 1726 781 1722T774 1715Q720 1650 668 1586T565 1452Q559 1444 550 1432T530 1420Z"  />
<glyph unicode="&#x161;" horiz-adv-x="520" d="M477 776Q469 776 459 783T432 801Q412 813 388 817T344 821Q306 821 277 813T225 776Q193 735 193 686Q193 660 201 634T223 581T252 531T283 485L328 422Q357 380 378 332T399 231Q399 191 384 151T330 68Q310 46 288 29T239 1T181 -17T109 -23Q53 -23 31 -7T8 47Q8 67 17 75T41 84Q56 84 73 78T102 66Q130 55 156 48T207 41Q239 43 262 51T307 82Q329 104 337 127T346 176Q346 223 322 273T260 377L215 442Q139 552 139 635Q139 680 156 718T205 791Q247 837 295 862T406 887Q467 887 488 869T510 819Q510 801 501 789T477 776ZM415 1010Q401 1010 399 1020T393 1042Q387 1066 375 1105T350 1187T328 1266T317 1321Q317 1323 320 1327T327 1331Q329 1331 331 1324T335 1313Q357 1262 384 1212T434 1110Q438 1114 456 1132T498 1174T550 1226T601 1277T641 1315T659 1331Q662 1331 665 1327T669 1319Q669 1316 666 1312T659 1305Q605 1240 553 1176T450 1042Q444 1034 435 1022T415 1010Z"  />
<glyph unicode="&#x178;" horiz-adv-x="842" d="M485 729Q515 768 547 811T611 899T676 986T737 1069Q778 1125 802 1165T827 1231Q825 1262 788 1272T698 1282Q693 1282 693 1284T692 1292Q692 1298 695 1300T711 1303Q732 1303 775 1300T895 1296Q949 1296 984 1299T1022 1303Q1027 1303 1029 1302T1032 1296Q1032 1293 1031 1287T1022 1280Q1000 1278 983 1273T944 1247T886 1185T793 1069Q712 969 636 867T479 664Q464 645 456 630T443 603T437 581T434 561Q429 537 424 508T414 452Q409 421 403 391L393 342Q376 252 367 188T358 88Q358 57 365 49Q371 38 384 32T415 22T453 17T494 16Q499 16 500 15T502 6Q502 -2 492 -2H471Q425 0 379 1T285 2Q216 2 170 -1T96 -4Q87 -4 86 -2T84 6Q84 14 86 15T94 16H102Q147 19 180 24T231 45Q237 51 242 59T252 83T264 127T280 200T302 310T334 467Q335 474 337 482Q339 488 340 495T342 508Q348 542 353 564T358 608Q358 621 357 634T350 664Q321 763 285 868T217 1069Q202 1113 191 1144T172 1198T156 1235T141 1257Q130 1270 108 1276T57 1282Q54 1282 53 1282T51 1288Q51 1296 53 1298T61 1300Q69 1300 79 1299T104 1297T142 1295T199 1294Q264 1294 313 1297T408 1300Q414 1300 414 1296Q414 1285 410 1282T389 1278Q371 1277 350 1277T310 1275T277 1267T258 1247Q256 1243 256 1233Q256 1217 261 1195T276 1141L432 651Q437 660 442 668T452 684T466 703T485 729ZM547 1545Q546 1535 539 1524T522 1503T500 1487T476 1481Q467 1481 457 1487T438 1501T424 1520T418 1538Q418 1550 424 1563T441 1586T464 1603T488 1610Q497 1610 507 1604T526 1588T541 1567T547 1545ZM705 1481Q696 1481 686 1487T667 1501T654 1520T648 1538Q648 1550 654 1563T671 1586T693 1603T717 1610Q726 1610 736 1604T756 1588T771 1567T777 1545Q776 1535 769 1524T752 1503T729 1487T705 1481Z"  />
<glyph unicode="&#x17D;" horiz-adv-x="961" d="M1024 1296Q1024 1291 1021 1287T1014 1278Q1007 1269 984 1238T925 1159T841 1046T739 907T623 749T498 578L96 29H141Q194 29 252 30T370 35T484 42T587 52T669 65T721 80Q745 92 761 108T790 146T815 197T844 264Q845 270 848 276Q850 281 852 286T856 295Q861 307 863 311T870 315Q872 315 877 315T883 309Q883 306 882 303T879 291Q874 273 865 243T845 176T819 99T791 20Q787 14 786 10T780 -4Q778 -7 778 -8T772 -10Q770 -10 769 -10T762 -8Q757 -7 747 -5T716 -1T658 2T563 4H479Q363 4 282 4T148 3T64 1T18 0T-3 -1T-10 -2Q-16 -2 -16 2Q-16 8 -10 14Q10 42 30 71T74 131L901 1264H872Q747 1261 660 1260T513 1256T417 1245T358 1221Q339 1207 324 1182T296 1129T273 1072T256 1022Q253 1016 248 1016Q246 1016 240 1017T233 1024Q233 1027 233 1031T236 1042Q244 1075 251 1103T267 1158T285 1215T307 1282Q310 1293 313 1302T324 1311Q329 1311 329 1310T332 1309Q349 1299 393 1296T489 1292Q608 1292 738 1294T993 1298H1020Q1024 1298 1024 1296ZM649 1420Q635 1420 633 1430T627 1452Q621 1476 609 1515T584 1597T562 1676T551 1731Q551 1733 554 1737T561 1741Q563 1741 565 1734T569 1723Q591 1672 618 1622T668 1520Q672 1524 690 1542T732 1584T784 1636T835 1687T875 1725T893 1741Q896 1741 899 1737T903 1729Q903 1726 900 1722T893 1715Q839 1650 787 1586T684 1452Q678 1444 669 1432T649 1420Z"  />
<glyph unicode="&#x17E;" horiz-adv-x="762" d="M123 649Q123 665 130 684T145 729Q155 762 161 783T172 816T180 836T188 850Q199 868 213 876T252 885Q292 885 338 877T434 858Q482 849 531 839T631 823L637 834Q651 857 669 871T702 885Q719 885 727 876T737 854Q737 841 732 828T714 803T681 784T631 772Q521 620 407 467T186 176H211Q235 176 261 173T313 159T366 132T416 86Q428 74 451 50T512 -14Q528 -30 541 -39T565 -54T588 -61T614 -63Q642 -63 661 -47T680 -8Q680 4 673 13T666 37Q666 49 679 59T709 70Q718 70 724 65T735 53T741 38T743 25Q742 3 729 -19T692 -60T636 -90T567 -102Q539 -102 511 -92T452 -62T384 -10T303 63Q272 92 246 108T193 125Q152 123 130 102T94 37Q85 6 63 6Q46 6 39 19T31 47V53Q33 75 44 94T71 129T105 156T141 172Q189 238 244 313T357 467T474 622T590 770Q565 771 548 771T518 773T491 776T461 780Q414 786 367 792T276 799Q241 799 224 793T197 774Q190 766 185 756T174 729Q168 714 162 696T145 653Q141 639 133 639Q128 639 126 642T123 649ZM460 1010Q446 1010 444 1020T438 1042Q432 1066 420 1105T395 1187T373 1266T362 1321Q362 1323 365 1327T372 1331Q374 1331 376 1324T380 1313Q402 1262 429 1212T479 1110Q483 1114 501 1132T543 1174T595 1226T646 1277T686 1315T704 1331Q707 1331 710 1327T714 1319Q714 1316 711 1312T704 1305Q650 1240 598 1176T495 1042Q489 1034 480 1022T460 1010Z"  />
<glyph unicode="&#x192;" horiz-adv-x="840" d="M909 1161Q897 1161 892 1169T881 1194Q870 1234 847 1244T791 1255Q717 1255 671 1207T596 1079Q569 999 551 901Q542 853 534 803T516 702H721Q727 702 727 696V694L719 655Q717 650 716 650T709 649H506L463 399Q454 353 445 293T424 164T397 25T362 -115Q342 -183 316 -243T256 -348T180 -419T86 -446Q43 -446 27 -430T10 -393Q10 -381 14 -369T25 -348T40 -334T55 -328Q63 -328 72 -336T84 -346Q104 -368 116 -373T147 -379Q181 -379 205 -355T250 -274T290 -120T334 121Q342 166 348 202T361 273T374 344T389 423T406 522T428 649L319 647Q315 647 315 653L322 676Q322 682 326 682Q339 685 350 687T375 690T403 694T440 702Q454 793 468 869T504 1012T560 1134T647 1239Q666 1257 685 1271T727 1296T777 1311T838 1317Q869 1317 892 1308T930 1285T953 1252T961 1214Q961 1191 948 1176T909 1161Z"  />
<glyph unicode="&#x2C6;" horiz-adv-x="1030" d="M748 1331Q762 1331 764 1320T770 1298Q776 1274 788 1235T812 1154T834 1075T846 1020Q846 1018 843 1014T836 1010Q834 1010 832 1017T827 1028Q806 1079 779 1129T729 1231Q725 1227 707 1209T665 1167T613 1115T562 1064T522 1025T504 1010Q501 1010 498 1014T494 1022Q494 1025 497 1029T504 1036Q558 1101 610 1165T713 1298Q719 1306 728 1318T748 1331Z"  />
<glyph unicode="&#x2C7;" horiz-adv-x="1030" d="M651 1010Q637 1010 635 1020T629 1042Q623 1066 611 1105T586 1187T564 1266T553 1321Q553 1323 556 1327T563 1331Q565 1331 567 1324T571 1313Q593 1262 620 1212T670 1110Q674 1114 692 1132T734 1174T786 1226T837 1277T877 1315T895 1331Q898 1331 901 1327T905 1319Q905 1316 902 1312T895 1305Q841 1240 789 1176T686 1042Q680 1034 671 1022T651 1010Z"  />
<glyph unicode="&#x2DA;" horiz-adv-x="1030" d="M700 1001Q622 1001 581 1043T539 1155Q539 1195 554 1229T596 1287T660 1325T741 1339Q817 1339 858 1298T899 1188Q899 1148 884 1114T842 1054T779 1015T700 1001ZM733 1307Q707 1307 685 1296T647 1264T621 1215T612 1155Q612 1036 705 1036Q731 1036 753 1047T791 1078T816 1127T825 1190Q825 1246 803 1276T733 1307Z"  />
<glyph unicode="&#x2DC;" horiz-adv-x="1024" d="M698 1124Q713 1124 726 1129T753 1146T782 1179T819 1231Q821 1234 824 1237T829 1241Q831 1241 835 1234T840 1225Q840 1223 838 1219T829 1204Q781 1133 742 1089T668 1044Q654 1044 636 1056T592 1094Q572 1116 558 1129T533 1150T512 1160T489 1163Q474 1163 461 1159T433 1143T402 1112T365 1061Q363 1058 360 1055T354 1051Q352 1051 348 1058T344 1067Q344 1069 346 1073T354 1087Q402 1159 441 1203T516 1247Q525 1247 533 1245T552 1235T580 1212T623 1169Q638 1153 647 1144T663 1131T679 1125T698 1124Z"  />
<glyph unicode="&#x2013;" horiz-adv-x="1004" d="M905 455H82L100 508H922L905 455Z"  />
<glyph unicode="&#x2014;" horiz-adv-x="2007" d="M1909 453H82L100 506H1925L1909 453Z"  />
<glyph unicode="&#x2018;" horiz-adv-x="379" d="M535 1368Q469 1356 417 1333T328 1281T272 1217T252 1145Q252 1107 266 1084T315 1044Q346 1029 355 1018T365 993Q365 984 359 975T344 958T324 945T303 940Q279 940 257 953T218 988T191 1041T180 1104Q180 1138 194 1173T233 1239T295 1298T375 1343Q393 1351 413 1358T453 1370T490 1379T520 1382Q523 1382 528 1376T535 1368Z"  />
<glyph unicode="&#x2019;" horiz-adv-x="379" d="M86 954Q155 967 210 991T301 1047Q333 1076 352 1108T371 1178Q371 1216 356 1238T307 1278Q288 1288 278 1295T263 1307T257 1317T256 1327Q256 1336 262 1346T277 1364T298 1377T319 1382Q341 1382 362 1370T401 1336T429 1287T440 1227Q440 1182 423 1144T379 1074T317 1018T248 979Q230 971 210 964T169 952T130 943T100 940Q98 940 93 946T86 954Z"  />
<glyph unicode="&#x201A;" horiz-adv-x="379" d="M-150 -248Q-80 -237 -25 -214T66 -158Q98 -127 115 -95T133 -25Q133 14 119 35T70 76Q51 86 41 92T27 104T21 113T20 123Q20 133 26 143T41 160T61 173T84 178Q105 178 127 166T166 132T194 82T205 23Q205 -18 189 -55T146 -125T84 -182T10 -225Q-8 -233 -28 -239T-68 -251T-105 -259T-135 -262Q-138 -262 -143 -257T-150 -248Z"  />
<glyph unicode="&#x201C;" horiz-adv-x="739" d="M895 1368Q829 1356 776 1334T687 1282T630 1217T610 1145Q610 1107 625 1084T674 1044Q692 1035 702 1029T718 1017T724 1008T725 997Q725 987 719 977T704 959T684 945T662 940Q640 940 619 952T580 986T552 1036T541 1096Q541 1132 554 1167T591 1235T652 1295T733 1343Q751 1351 771 1358T812 1370T849 1379T879 1382Q882 1382 887 1376T895 1368ZM535 1368Q469 1356 417 1333T328 1281T272 1217T252 1145Q252 1107 266 1084T315 1044Q333 1035 343 1029T358 1017T364 1008T365 997Q365 987 360 977T346 959T326 945T303 940Q281 940 259 952T220 986T191 1036T180 1096Q180 1131 193 1166T231 1234T292 1295T375 1343Q393 1351 413 1358T453 1370T490 1379T520 1382Q523 1382 528 1376T535 1368Z"  />
<glyph unicode="&#x201D;" horiz-adv-x="739" d="M86 954Q152 966 205 988T294 1039T351 1104T371 1178Q371 1216 356 1238T307 1278Q289 1287 279 1293T263 1305T257 1315T256 1325Q256 1335 262 1345T277 1363T297 1377T319 1382Q341 1382 362 1370T401 1336T429 1287T440 1227Q440 1191 427 1155T390 1087T329 1027T248 979Q230 971 210 964T169 952T130 943T100 940Q98 940 93 946T86 954ZM444 954Q512 966 565 988T654 1040T710 1105T729 1178Q729 1216 715 1238T666 1278Q648 1287 638 1293T623 1305T617 1315T616 1325Q616 1335 621 1345T635 1363T655 1377T678 1382Q700 1382 722 1369T761 1335T790 1284T801 1223Q801 1188 788 1153T749 1085T687 1026T606 979Q588 971 568 964T528 952T491 943T461 940Q458 940 453 946T444 954Z"  />
<glyph unicode="&#x201E;" horiz-adv-x="739" d="M-150 -248Q-80 -237 -25 -214T66 -158Q98 -127 115 -95T133 -25Q133 14 119 35T70 76Q51 86 41 92T27 104T21 113T20 123Q20 133 26 143T41 160T61 173T82 178Q104 178 126 166T165 133T194 84T205 25Q205 -16 190 -54T147 -124T85 -182T10 -225Q-8 -233 -28 -239T-68 -251T-105 -259T-135 -262Q-138 -262 -143 -257T-150 -248ZM209 -248Q278 -237 333 -214T424 -158Q456 -127 475 -95T494 -25Q494 14 479 35T430 76Q398 91 390 100T381 117Q381 140 398 159T442 178Q464 178 486 165T526 130T554 79T565 18Q565 -22 549 -59T505 -127T443 -184T371 -225Q353 -233 333 -239T292 -251T255 -259T225 -262Q222 -262 217 -257T209 -248Z"  />
<glyph unicode="&#x2020;" horiz-adv-x="840" d="M309 295Q309 306 307 317T305 340Q305 345 307 349T315 362Q334 393 348 438T373 533T392 631T410 719Q371 717 331 717T251 714T177 705T115 684Q107 681 101 677T86 672Q80 672 75 679T59 698Q50 709 47 718T43 735Q43 738 50 749T70 770Q84 781 91 787T106 795Q111 795 117 791T133 782Q154 769 186 764T255 758T334 756T416 752Q423 799 432 849T449 952T462 1055T467 1155Q467 1169 466 1178T465 1202Q465 1219 472 1231T494 1260Q509 1277 518 1286T537 1296Q546 1296 550 1285T563 1260Q569 1246 572 1238T575 1221Q573 1213 571 1207T565 1192Q543 1140 526 1084T496 972T471 859T449 752Q507 753 550 753T626 755T684 762T733 780Q750 790 753 792T766 795Q772 793 780 787T797 772Q809 757 813 750T817 735Q817 724 812 717T791 696Q777 684 765 679T745 674Q734 674 719 686Q700 699 678 705T624 713T549 716T444 719Q439 689 432 653T419 578T408 500T403 426Q403 400 408 377T414 340Q414 337 411 334T403 319Q385 281 367 216T330 71T295 -96T264 -264T237 -414T217 -526Q214 -543 210 -551T193 -559Q176 -559 176 -545Q176 -542 176 -538T178 -526Q185 -485 197 -421T224 -280T254 -120T281 40T301 184T309 295Z"  />
<glyph unicode="&#x2021;" horiz-adv-x="840" d="M295 -451Q295 -462 288 -479T270 -512T247 -541T223 -553Q215 -553 208 -544T195 -523T186 -497T182 -477Q182 -463 188 -451T199 -426Q242 -321 265 -211T307 10Q277 8 237 8T156 7T76 -1T12 -20Q4 -24 -2 -28T-16 -33Q-21 -33 -29 -26T-44 -8T-57 13T-63 29Q-63 35 -55 45T-37 64T-15 81T2 88Q7 88 14 83T27 76Q47 66 72 60T123 51T176 48T223 47L315 49Q328 109 339 173T350 291Q350 312 346 333T342 375Q342 381 345 387T350 399Q385 478 406 556T442 719Q407 718 368 718T290 717T212 708T141 686Q133 683 127 679T113 674Q109 674 102 682T87 700T75 720T70 735Q70 741 78 751T96 771T117 788T133 795Q139 795 147 791T160 784Q194 770 230 765T302 759T376 757T449 756Q466 847 481 941T496 1120Q496 1142 494 1164T492 1206Q492 1215 500 1230T520 1261T543 1287T563 1298Q569 1298 576 1288T589 1266T598 1241T602 1223Q602 1222 601 1218T599 1208T596 1198T594 1192Q575 1136 560 1089T532 992T507 887T483 756Q515 757 551 757T624 759T696 766T762 782Q767 784 776 789T788 795Q797 795 806 789T824 773T838 754T844 735Q844 729 836 719T816 699T794 682T778 674Q769 674 761 678T745 688Q719 701 685 707T615 715T542 717T477 719Q466 651 453 584T440 446Q440 429 442 412T444 377Q444 375 440 368T436 358Q404 283 387 206T350 49H410Q435 49 464 49T522 52T580 60T633 76Q635 76 646 82T659 88Q667 88 676 82T694 68T709 51T715 35Q715 26 708 14T690 -8T668 -26T649 -33Q644 -33 633 -27T616 -18Q586 -5 552 1T483 9T412 11T344 12Q332 -53 323 -108T308 -218T299 -328T295 -451Z"  />
<glyph unicode="&#x2022;" horiz-adv-x="1024" d="M565 885Q610 885 650 867T721 818T768 746T786 659Q786 612 769 572T721 500T649 452T561 434Q516 434 476 451T405 500T356 571T338 659Q338 707 355 748T404 819T476 867T565 885Z"  />
<glyph unicode="&#x2026;" horiz-adv-x="1069" d="M113 -20Q101 -20 89 -14T68 3T52 26T45 49Q46 61 53 74T72 98T96 116T121 123Q132 123 144 116T165 99T181 76T188 53Q187 42 179 29T160 5T136 -13T113 -20ZM461 -20Q449 -20 437 -14T416 3T400 26T393 49Q393 61 400 74T419 98T444 116T469 123Q480 123 492 116T514 99T530 76T537 53Q536 42 528 29T509 5T484 -13T461 -20ZM813 -20Q801 -20 789 -14T768 3T752 26T745 49Q745 61 752 74T770 98T795 116T821 123Q832 123 844 116T866 99T882 76T889 53Q888 42 880 29T861 5T837 -13T813 -20Z"  />
<glyph unicode="&#x2030;" horiz-adv-x="1683" d="M815 -20Q776 -20 744 -1T690 54T655 137T643 244Q643 332 667 410T731 548T822 641T928 676Q968 676 999 659T1051 610T1084 534T1096 436Q1096 342 1072 259T1008 114T918 16T815 -20ZM973 1155Q887 1026 816 917T682 711T563 527T453 354T345 181T231 -4Q220 -23 212 -40T190 -57Q178 -57 168 -44T158 -25Q158 -15 166 -6T186 20Q251 117 308 204T420 373T526 538T635 707T752 890T883 1096Q838 1068 783 1050T670 1032Q639 1032 609 1038T551 1057V1026Q551 1010 551 993T549 960T548 935T547 924Q534 848 508 781T445 663T365 583T270 553Q189 553 147 620T104 807Q104 900 127 980T191 1119T282 1211T391 1245Q445 1245 487 1214T543 1120Q558 1104 577 1095T618 1080T659 1073T696 1071Q759 1071 814 1095T920 1157Q929 1173 940 1195T963 1236T989 1270T1014 1284Q1023 1284 1033 1276T1044 1249Q1044 1231 1029 1208T973 1155ZM934 637Q902 637 874 617T821 562T777 482T744 387T723 286T715 190Q715 153 722 121T742 65T776 28T821 14Q854 14 883 34T938 89T984 170T1019 266T1041 369T1049 469Q1049 503 1041 534T1018 587T982 623T934 637ZM504 1098Q490 1114 482 1124T468 1144T459 1164T451 1192Q434 1204 421 1206T395 1208Q352 1208 313 1169T243 1065T194 922T176 762Q176 687 203 642T283 596Q326 596 366 635T438 737T487 878T506 1036Q506 1050 506 1064T504 1098ZM1354 -20Q1315 -20 1283 -1T1229 54T1194 137T1182 244Q1182 332 1206 410T1270 548T1361 641T1466 676Q1506 676 1537 659T1590 610T1623 534T1634 436Q1634 342 1610 259T1547 114T1457 16T1354 -20ZM1473 637Q1441 637 1413 617T1360 562T1316 482T1282 387T1261 286T1253 190Q1253 153 1260 121T1281 65T1314 28T1360 14Q1393 14 1422 34T1477 89T1522 170T1557 266T1579 369T1587 469Q1587 503 1579 534T1556 587T1520 623T1473 637Z"  />
<glyph unicode="&#x2039;" horiz-adv-x="516" d="M506 840Q511 835 512 834T514 829Q514 827 514 826T511 822T503 813T487 795Q440 739 405 699T336 623T268 552T188 471Q215 421 237 377T280 290T318 207T354 123Q356 120 356 118T356 113Q356 107 350 104Q347 102 342 100T334 98Q329 98 324 106Q299 151 274 190T220 266T161 342T96 422L66 459Q61 462 61 465Q61 467 68 473Q113 508 149 537T217 594T278 646T338 700T403 759T481 829Q494 844 498 844Q502 844 506 840Z"  />
<glyph unicode="&#x203A;" horiz-adv-x="516" d="M16 102Q11 107 10 108T8 113Q8 116 13 123T23 133Q76 195 113 238T184 317T251 388T334 471Q307 521 285 565T242 652T204 735T168 819Q166 822 166 824T166 829Q166 833 166 834T172 838Q181 844 188 844Q194 844 199 836Q223 791 249 752T302 676T360 600T426 520Q434 511 441 502T457 483Q461 479 461 477Q461 475 455 469Q409 434 373 405T305 348T244 296T184 242T119 183T41 113Q28 98 25 98Q20 98 16 102Z"  />
<glyph unicode="&#x2044;" horiz-adv-x="236" d="M602 1327Q529 1211 472 1120T367 952T278 809T196 677T113 541T19 387T-95 200T-238 -35H-293Q-237 58 -180 148T-66 332Q143 671 294 920T541 1327H602Z"  />
<glyph unicode="&#x2074;" horiz-adv-x="596" d="M643 1626Q648 1621 650 1619T653 1614Q653 1609 651 1598T647 1581Q633 1528 622 1470T596 1339L549 1112H694L678 1065Q676 1059 672 1058T662 1057H537L492 834L420 829Q422 839 425 854T431 887T439 924T448 963Q458 1007 469 1057H154Q135 1057 135 1063Q135 1066 136 1075T139 1087Q141 1091 143 1094T154 1106L616 1626Q625 1634 631 1634Q632 1634 634 1633Q638 1631 643 1626ZM479 1112Q490 1160 499 1204T518 1295T539 1396T563 1518Q475 1417 387 1316T207 1112H479Z"  />
<glyph unicode="&#x20AC;" horiz-adv-x="840" d="M172 764Q189 831 214 898T271 1028T341 1144T424 1237T519 1300T627 1323Q654 1323 669 1321T699 1314T738 1301T807 1280Q812 1278 816 1278T823 1278Q826 1278 829 1280T836 1284Q844 1288 848 1288H852Q857 1288 858 1286T860 1282Q860 1273 854 1252T842 1200Q834 1163 827 1112T809 995Q809 987 799 987Q793 989 791 989T788 1001Q788 1008 789 1015T791 1034Q793 1053 793 1068T793 1098Q793 1129 790 1148T782 1180T769 1202T750 1223Q719 1254 687 1271T616 1288Q569 1288 528 1264T452 1200T388 1107T335 996T293 878T262 764H604V762Q603 760 603 754T601 742T599 730T596 723L254 725Q252 714 250 703T243 671T234 620T221 537H522L524 535Q523 532 523 527T521 515T519 503T516 496Q487 496 449 496T370 497T289 497T217 498Q205 405 205 313Q205 253 213 200T241 106T295 42T381 18Q437 18 484 29T570 68T639 141T692 254Q695 260 697 264T702 268Q704 268 705 267T709 266Q714 263 715 262T717 258Q717 253 714 244T709 227Q699 201 684 151T655 45Q653 37 650 35T639 29Q571 6 504 -5T373 -16Q252 -16 190 90T127 406Q127 427 127 450T129 498H8L6 500L12 532L16 537H133Q136 583 143 628T162 723H51L47 727L53 762L57 764H172Z"  />
<glyph unicode="&#x2122;" horiz-adv-x="1636" d="M1303 659V668Q1303 676 1311 676Q1346 676 1367 679T1402 700T1427 757T1454 870Q1462 903 1469 937T1485 1010T1502 1094T1522 1194Q1513 1181 1491 1148T1439 1071T1373 975T1302 872T1235 775T1180 694Q1173 683 1160 675T1135 666Q1130 666 1130 672Q1123 729 1112 787T1085 908T1053 1040T1016 1188Q993 1096 976 1030T947 916T927 836T913 780Q910 763 908 749T905 723Q905 694 925 685T999 674Q1001 674 1001 670V668V662Q999 658 997 658T993 657Q988 657 976 658T948 659T916 661T885 662Q850 662 813 660T739 657Q737 657 737 666Q737 669 738 672T743 676Q777 678 797 680T829 692T849 719T866 770Q877 807 893 864T926 981T957 1097T979 1184Q982 1195 982 1203T983 1219Q983 1250 964 1261T909 1274Q895 1274 895 1278Q897 1281 898 1284T905 1288Q913 1288 936 1287T997 1286Q1014 1286 1031 1286T1067 1288H1075Q1078 1288 1078 1286T1081 1278Q1087 1246 1100 1187T1129 1057T1163 909T1196 766Q1223 806 1255 851T1321 945T1391 1045T1460 1147Q1482 1179 1498 1207T1528 1255Q1544 1286 1548 1286H1645Q1666 1286 1682 1287T1704 1288Q1708 1288 1708 1286V1284L1706 1276Q1706 1274 1702 1274L1677 1272Q1659 1270 1646 1265T1624 1247T1608 1217T1595 1171Q1589 1147 1582 1110T1566 1031T1549 946T1533 864T1520 798T1513 758Q1511 747 1510 738T1509 721Q1509 696 1524 688T1577 676Q1581 676 1581 672L1579 664Q1579 662 1578 660T1571 657H1563Q1541 657 1513 659T1452 662Q1414 662 1375 661T1309 659H1303ZM557 1243L463 823Q455 792 452 770T449 731Q449 694 467 685T526 676Q536 676 538 676T541 672V668V662Q539 658 535 658T528 657Q493 657 450 659T358 662Q316 662 284 660T236 657Q231 657 231 659Q231 661 232 662T233 666Q235 674 238 676T248 678Q279 678 299 681T333 699T359 744T383 829L475 1243H420Q367 1243 335 1242T282 1232T247 1207T217 1159Q214 1154 212 1152T207 1149Q198 1149 197 1150T195 1155Q197 1165 200 1174T209 1197T223 1228T244 1276Q252 1292 256 1292H264Q265 1292 265 1292T267 1291L268 1290Q271 1287 281 1285T314 1281T378 1279T483 1278Q591 1278 655 1279T755 1282T804 1287T825 1294Q827 1294 829 1293Q833 1291 834 1290Q832 1284 826 1271T813 1242T797 1210T782 1182Q779 1174 773 1163T764 1151Q755 1151 753 1151T750 1157Q752 1163 754 1168T758 1182Q760 1191 761 1198T762 1212Q762 1224 757 1230T737 1239T700 1242T643 1243H557Z"  />

</font>
</defs>
</svg>
