<?xml  version="1.0" encoding="UTF-8"?>
<!DOCTYPE svg PUBLIC "-//W3C//DTD SVG 1.0//EN" "http://www.w3.org/TR/2001/REC-SVG-20010904/DTD/svg10.dtd" >
<svg xmlns="http://www.w3.org/2000/svg" >
<metadata>
<version>1.0</version>
<id><![CDATA[Legacy Square ITC W01 Bk]]></id>
<vendor>Monotype Imaging Inc.</vendor>
<credits>
<name>Fonts.com WebFonts</name>
<URL>http://webfonts.fonts.com</URL>
<role>Home of the Web fonts</role>
</credits>
<license>
<URL>http://webfonts.fonts.com/Legal</URL>
</license>
<copyright><![CDATA[Copyright 2009 International Typeface Corporation. All Rights Reserved.]]></copyright>
<trademark><![CDATA[ITC Legacy is a trademark of International Typeface Corporation registered in the U.S. Patent & Trademark Office and may be registered in certain jurisdictions.]]></trademark>
<licensee>
<name></name>
</licensee>
</metadata>
<defs >
<font horiz-adv-x="1072" id="eb05b3d8-ef16-44bf-9cbd-dd665e81c6ad">
<font-face font-family="" panose-1="2 6 5 4 6 4 8 2 3 3" ascent="1790" descent="-541" units-per-em="2048" alphabetic="0">
</font-face>
<missing-glyph horiz-adv-x="0" />

<glyph unicode="&#xA;" />
<glyph unicode="&#xD;" horiz-adv-x="0" />
<glyph unicode=" " horiz-adv-x="492" />
<glyph unicode="!" horiz-adv-x="696" d="M438 27Q438 16 431 8T412 0H283Q272 0 265 8T258 27V145Q258 164 274 170H285H412Q423 170 430 163T438 145V27ZM373 317H322L268 963Q266 989 263 1015T260 1067V1298H436V1067Q436 1046 434 1019T429 963T423 906T418 852L373 317Z"  />
<glyph unicode="&quot;" horiz-adv-x="782" d="M309 1182L272 729H199L164 1182V1298H309V1182ZM618 1182L584 729H510L473 1182V1298H618V1182Z"  />
<glyph unicode="#" horiz-adv-x="1059" d="M1092 913L1067 809H797L727 516H995L971 408H700L602 0H518L616 408H332L233 0H150L248 408H-25L2 516H272L342 809H72L96 913H369L459 1292H543L453 913H737L827 1292H911L821 913H1092ZM426 809L358 516H643L711 809H426Z"  />
<glyph unicode="$" horiz-adv-x="1081" d="M565 -199H502V31Q486 31 471 30T440 29Q366 29 294 37T154 66Q145 68 141 74T134 87T131 103T129 119L111 297L211 315Q214 295 218 276Q221 259 225 242T233 211Q241 180 254 168T297 145Q345 131 390 124T483 117H502V610Q408 646 341 679T231 751T168 834T147 942Q147 1018 176 1076T255 1174T368 1238T502 1270V1452H565V1274H608Q636 1274 680 1273T768 1268T844 1258T885 1241Q890 1235 890 1227T891 1210L901 1026L813 1014Q811 1025 808 1048T799 1095T788 1139T774 1165Q765 1173 741 1178T686 1185T623 1189T565 1190V725Q626 704 693 678T815 612T906 517T942 379Q942 292 912 231T831 129T711 66T565 35V-199ZM502 1186Q457 1182 418 1169T348 1130T301 1066T283 977Q283 925 299 890T345 829T415 786T502 750V1186ZM565 121Q617 125 661 139T738 180T789 248T807 348Q807 406 788 444T735 508T658 552T565 588V121Z"  />
<glyph unicode="%" horiz-adv-x="1436" d="M643 963Q643 878 622 811T561 697T468 625T346 600Q278 600 224 626T130 699T70 813T49 963Q49 1039 69 1104T127 1218T220 1293T346 1321Q413 1321 468 1295T562 1222T622 1109T643 963ZM346 1253Q304 1253 271 1233T215 1175T180 1084T168 963Q168 895 180 841T216 748T272 689T346 668Q428 668 476 744T524 963Q524 1027 512 1080T477 1172T421 1232T346 1253ZM1108 1300H1208L317 -20H217L1108 1300ZM1386 342Q1386 258 1365 191T1305 77T1212 5T1090 -20Q1022 -20 967 6T874 79T814 193T793 342Q793 420 813 485T871 598T964 673T1090 700Q1157 700 1212 674T1305 601T1365 488T1386 342ZM1090 633Q1048 633 1015 613T958 554T923 463T911 342Q911 274 923 220T959 127T1016 68T1090 47Q1171 47 1219 124T1268 342Q1268 406 1256 460T1220 552T1164 611T1090 633Z"  />
<glyph unicode="&amp;" horiz-adv-x="1444" d="M1206 -27Q1165 -27 1132 -15T1067 25T999 97T920 207Q873 155 826 112T726 39T615 -8T489 -25Q408 -25 338 -1T215 69T134 181T104 334Q104 410 129 471T199 580T304 664T432 727Q397 746 366 773T310 832T272 901T258 979Q258 1046 284 1098T355 1185T457 1239T575 1257Q636 1257 692 1243T790 1199T858 1121T883 1006Q883 950 863 908T809 834T728 778T629 737Q687 700 733 661T819 576T894 478T965 362Q996 408 1024 455T1075 544T1109 617T1122 666Q1122 684 1106 687T1067 690H958V764H1391V707L1309 694Q1281 689 1262 675T1229 640T1203 597T1178 553Q1136 488 1096 429T1006 305Q1035 258 1063 216T1124 141T1193 89T1278 70Q1302 70 1322 76T1357 90T1383 109T1403 127L1413 135H1419L1452 84Q1425 58 1398 38T1342 3T1279 -19T1206 -27ZM567 1188Q523 1188 490 1173T434 1133T400 1073T389 999Q389 965 397 939T425 887T480 835T571 774Q610 789 643 807T700 851T737 911T750 993Q750 1035 740 1071T707 1133T650 1173T567 1188ZM489 686Q371 639 311 562T250 362Q250 225 323 156T530 86Q584 86 631 99T720 135T800 192T877 266Q835 341 799 400T719 507T622 599T489 686Z"  />
<glyph unicode="&apos;" horiz-adv-x="473" d="M309 1182L274 729H201L164 1182V1298H309V1182Z"  />
<glyph unicode="(" horiz-adv-x="614" d="M573 1362Q479 1244 415 1135T312 915T257 689T240 442Q240 309 257 193T314 -35T417 -255T573 -483L524 -522Q416 -400 342 -283T221 -47T154 193T133 442Q133 569 153 688T220 924T341 1158T524 1399L573 1362Z"  />
<glyph unicode=")" horiz-adv-x="614" d="M41 -483Q133 -365 197 -256T300 -35T357 192T375 442Q375 573 358 688T302 914T199 1134T41 1362L90 1399Q198 1276 273 1159T394 924T460 688T481 442Q481 314 461 193T394 -46T273 -282T90 -522L41 -483Z"  />
<glyph unicode="*" horiz-adv-x="1102" d="M852 911L606 936Q635 893 653 868T682 827T700 803T713 786T727 766T748 733L780 680L688 623L653 680L551 899Q523 842 498 788T446 680L412 623L319 678L352 733Q383 786 419 834T494 936Q429 930 369 925T248 911H182V1016H248L494 993L352 1196L319 1251L412 1307L446 1249L551 1030L653 1249L688 1307L780 1249L748 1196L606 993Q653 996 695 1002T780 1012L852 1018H915V911H852Z"  />
<glyph unicode="+" horiz-adv-x="1081" d="M485 229V596H121V705H485V1069H594V705H958V596H594V229H485Z"  />
<glyph unicode="&#x2c;" horiz-adv-x="512" d="M80 -313Q114 -280 145 -252T201 -194T239 -129T254 -45Q254 -26 252 -15T245 1T233 9T215 14Q193 19 180 26T166 57V137Q166 172 201 172H313Q327 172 336 164T346 139V57Q346 -2 341 -45T323 -120T292 -178T247 -229T187 -281T111 -346L80 -313Z"  />
<glyph unicode="-" horiz-adv-x="676" d="M590 543L563 436L86 424L111 543H590Z"  />
<glyph unicode="." horiz-adv-x="512" d="M346 27Q346 16 338 8T319 0H190Q179 0 173 8T166 27V145Q166 170 193 170H319Q330 170 338 163T346 145V27Z"  />
<glyph unicode="/" horiz-adv-x="836" d="M717 1311L98 -365H4L623 1311H717Z"  />
<glyph unicode="0" horiz-adv-x="1081" d="M977 649Q977 577 970 500T944 347T893 205T811 86T694 5T535 -25Q436 -25 357 19T221 148T135 359T104 649Q104 812 134 938T220 1149T357 1279T541 1323Q632 1323 699 1293T815 1211T895 1091T945 948T970 796T977 649ZM821 649Q821 796 806 907T758 1094T670 1207T539 1245Q458 1245 405 1199T319 1073T274 884T260 649Q260 502 275 391T324 204T409 91T537 53Q684 53 752 204T821 649Z"  />
<glyph unicode="1" horiz-adv-x="1081" d="M918 0H254V61L426 78Q453 80 469 86T494 104T505 134T508 178V1012Q508 1035 507 1056T502 1093T488 1120T461 1130Q445 1130 418 1118L266 1042L246 1047V1108L594 1307H655V141Q655 123 656 111T661 91T676 81T707 78H918V0Z"  />
<glyph unicode="2" horiz-adv-x="1081" d="M121 0V76Q164 122 213 171T313 272T417 378T520 487Q572 545 616 601T692 714T742 831T760 956Q760 1090 701 1159T506 1229Q481 1229 453 1226T398 1215T345 1197T299 1169Q291 1163 287 1159T280 1148T275 1131T272 1104Q271 1093 271 1080T269 1052Q268 1036 268 1020L172 1012L160 1108V1120Q160 1136 167 1145T195 1171Q269 1240 363 1281T563 1323Q643 1323 707 1303T817 1241T886 1137T911 991Q911 927 896 869T850 753T776 637T674 516Q623 460 574 410T467 309Q440 285 417 264T370 222T320 177T262 125L791 129Q809 129 821 131T842 139T857 155T872 184L911 274L983 256Q968 191 950 128T915 0H121Z"  />
<glyph unicode="3" horiz-adv-x="1081" d="M477 -25Q430 -25 381 -21T286 -3T201 37T135 109Q129 119 125 127T119 142T116 159T115 180Q115 191 118 197T133 209L195 240Q203 244 209 244Q223 244 229 225Q234 208 240 195T254 168Q272 133 298 112T357 79T424 63T496 59Q569 59 626 83T723 150T784 254T805 389Q805 452 790 503T744 591T666 648T553 668Q496 668 450 655T352 621Q346 617 340 617T332 625L324 672Q324 680 325 682T332 688Q367 704 402 718T471 748Q505 762 536 776T596 809Q655 846 687 897T719 1030Q719 1130 667 1183T512 1237Q459 1237 410 1228T313 1186Q304 1180 298 1175T289 1161Q286 1153 286 1144T285 1126L279 1032L184 1024Q184 1030 183 1046T179 1083T175 1123T170 1159Q172 1175 181 1183T201 1200Q282 1257 366 1290T551 1323Q615 1323 671 1309T771 1263T839 1181T864 1061Q864 1004 844 959T788 877T708 811T612 754Q689 749 751 726T857 662T924 561T948 424Q948 329 908 248T803 105T652 10T477 -25Z"  />
<glyph unicode="4" horiz-adv-x="1081" d="M807 371V0H672V371H29V446L690 1298H807V469H1067V371H807ZM672 1165L133 469H672V1165Z"  />
<glyph unicode="5" horiz-adv-x="1081" d="M952 1298L922 1171H414L324 877Q436 848 539 811T722 720T848 588T895 401Q895 350 885 308T857 230T812 161T752 96Q723 67 686 45T608 7T523 -17T438 -25Q390 -25 345 -19T259 3T183 49T121 127Q115 138 112 146T107 161T105 176T104 195Q104 209 108 215T123 229L178 268H215Q240 163 308 116T485 68Q554 68 607 88T697 146T751 237T770 356Q770 430 748 484T686 579T595 648T482 696T356 731T227 760L217 778L377 1298H952Z"  />
<glyph unicode="6" horiz-adv-x="1081" d="M961 426Q961 328 932 245T850 102T721 9T553 -25Q448 -25 368 15T235 125T154 293T127 506Q127 624 153 731T229 929T347 1093T501 1217T684 1297T889 1325Q907 1325 913 1323T924 1313L954 1264Q951 1259 947 1249T940 1241Q925 1243 910 1243T879 1243Q772 1243 672 1205T490 1094T355 917T285 680Q370 751 454 779T616 807Q688 807 751 782T860 708T934 588T961 426ZM809 395Q808 477 788 536T734 634T654 690T557 709Q485 709 420 684T279 598V559Q279 508 282 451T297 338T327 231T377 141T454 78T561 55Q623 55 669 79T747 149T793 256T809 395Z"  />
<glyph unicode="7" horiz-adv-x="1081" d="M1010 1298V1241L328 -29L213 10V29L893 1182H305Q279 1182 262 1179T232 1168T213 1147T201 1114L176 1008L104 1012L127 1298H1010Z"  />
<glyph unicode="8" horiz-adv-x="1081" d="M829 303Q829 354 817 395T768 475T665 554T492 645Q362 579 301 502T240 324Q240 262 257 212T309 126T396 71T518 51Q586 51 643 67T741 116T806 195T829 303ZM965 322Q965 232 923 167T815 59T669 -4T510 -25Q432 -25 358 -8T226 47T132 147T96 297Q96 369 125 427T202 533T309 615T430 676Q378 702 329 731T240 797T178 883T154 997Q154 1079 185 1140T270 1242T394 1303T541 1323Q613 1323 680 1311T799 1266T882 1180T913 1040Q913 972 890 920T827 827T736 754T629 696Q692 667 752 635T860 559T936 458T965 322ZM774 1024Q774 1084 757 1127T708 1198T630 1239T526 1253Q472 1253 428 1238T352 1193T303 1121T285 1024Q285 959 309 916T373 840T464 781T571 727Q620 751 658 778T721 841T760 921T774 1024Z"  />
<glyph unicode="9" horiz-adv-x="1081" d="M954 788Q954 676 929 572T855 378T739 213T586 85T401 3T188 -27Q170 -27 164 -25T154 -16L125 31Q126 33 128 37T132 46Q135 51 137 57Q151 55 164 55T190 55Q317 55 423 97T608 215T736 397T797 631Q749 593 706 569T622 532T543 513T465 508Q392 508 329 533T220 606T148 726T121 891Q121 988 153 1068T241 1204T375 1292T541 1323Q642 1323 719 1283T849 1171T927 1002T954 788ZM528 1245Q463 1245 416 1221T337 1152T290 1045T274 907Q274 825 293 767T345 671T423 617T520 600Q558 600 592 605T660 624T729 659T803 713Q803 730 804 748T805 784Q805 833 801 886T786 990T756 1087T706 1169T631 1224T528 1245Z"  />
<glyph unicode=":" horiz-adv-x="532" d="M356 719Q356 708 349 701T330 694H203Q192 694 184 701T176 719V838Q176 847 181 853T193 862Q197 864 203 864H330Q341 864 348 857T356 838V719ZM356 27Q356 16 349 8T330 0H203Q192 0 184 8T176 27V145Q176 162 193 168Q195 170 203 170H330Q341 170 348 163T356 145V27Z"  />
<glyph unicode=";" horiz-adv-x="532" d="M356 721Q356 710 349 702T330 694H201Q190 694 183 702T176 721V840Q176 851 184 857T203 864H330Q341 864 348 858T356 840V721ZM356 57Q356 -5 351 -50T334 -128T306 -187T263 -238T206 -289T133 -352Q122 -343 112 -333T94 -309Q108 -298 121 -288T147 -264Q171 -243 192 -218T229 -165T254 -107T264 -45Q264 -20 258 -9T241 8T220 14T199 19T183 30T176 57V137Q176 172 211 172H324Q338 172 347 163T356 139V57Z"  />
<glyph unicode="&lt;" horiz-adv-x="1081" d="M156 594V707L924 1077V954L270 651L924 348V223L156 594Z"  />
<glyph unicode="=" horiz-adv-x="1081" d="M123 811H956V705H123V811ZM123 584H956V475H123V584Z"  />
<glyph unicode="&gt;" horiz-adv-x="1081" d="M156 223V348L809 651L156 954V1077L924 707V594L156 223Z"  />
<glyph unicode="?" horiz-adv-x="780" d="M725 909Q725 858 712 818T667 741T582 670T449 594Q418 579 396 567T357 543T329 519T309 492Q298 470 297 421T295 289L240 285Q229 373 220 433T211 524Q211 559 218 581T242 620T282 651T340 683T417 725T514 786Q571 826 591 862T612 942Q612 998 595 1046T544 1129T459 1184T338 1204Q325 1204 306 1204T268 1200T236 1192T221 1178L219 1128H121L109 1272L121 1290Q155 1306 209 1314T317 1323Q393 1323 466 1288T597 1194T690 1061T725 909ZM365 16Q365 10 360 5T346 0H197Q190 0 185 5T180 16V152Q180 158 185 163T197 168H346Q354 168 359 163T365 152V16Z"  />
<glyph unicode="@" horiz-adv-x="1690" d="M1243 336Q1198 316 1159 307T1085 297Q1028 297 1003 318T977 387Q977 399 978 415T983 454T991 507T1006 580Q953 504 908 450T822 362T746 313T676 297Q611 297 573 350T535 500Q535 584 570 668T673 824T837 948T1057 1022L1063 1044Q1063 1049 1069 1049H1161Q1169 1049 1169 1047Q1169 1043 1168 1036T1165 1018L1092 510Q1088 485 1085 469T1081 443T1078 425T1077 410Q1077 367 1122 367Q1186 367 1243 402T1344 498T1414 637T1440 803Q1440 900 1406 980T1310 1116T1161 1204T967 1235Q829 1235 710 1183T503 1038T364 822T313 553Q313 432 353 339T466 181T642 84T870 51Q913 51 959 56T1050 69T1135 89T1206 115Q1208 117 1210 117T1214 117Q1217 117 1220 112T1225 98T1229 82T1231 70Q1231 56 1192 41T1093 12T967 -11T842 -20Q687 -20 564 20T355 134T222 314T176 551Q176 659 205 758T286 942T412 1097T575 1216T765 1292T977 1319Q1103 1319 1209 1282T1391 1178T1511 1019T1554 817Q1554 736 1533 663T1472 528T1374 417T1243 336ZM991 926Q950 926 909 910T829 864T758 796T700 711T661 617T647 520Q647 410 717 410Q745 410 780 431T854 489T934 578T1016 690L1040 852Q1042 860 1043 867T1044 883Q1044 904 1030 915T991 926Z"  />
<glyph unicode="A" horiz-adv-x="1323" d="M1329 0H893V61L997 78Q1016 81 1025 89T1034 115Q1034 126 1030 141T1020 176Q996 245 976 304Q967 329 959 354T943 402T929 442T920 469H393Q355 370 330 310T289 214T268 157T262 115Q262 78 313 78H444V0H6V61L82 78Q111 84 129 114T168 190L647 1298H772Q797 1226 830 1132T899 934T975 719T1052 505T1124 306T1186 139Q1198 104 1211 91T1257 78H1329V0ZM893 541L676 1169L422 541H893Z"  />
<glyph unicode="B" horiz-adv-x="1243" d="M1165 393Q1165 313 1141 253T1075 149T977 76T858 30T727 5T594 -2Q475 -2 356 -1T117 0V61Q136 63 154 67Q170 69 186 72T217 78Q249 84 259 105T270 178V1190Q270 1210 265 1217T238 1225H121V1298H358Q431 1298 504 1300T649 1303Q727 1303 799 1292T927 1249T1016 1158T1049 1006Q1049 952 1032 909T984 832T913 772T825 725Q897 713 959 689T1067 626T1139 529T1165 393ZM901 981Q901 1059 878 1107T812 1183T711 1219T584 1229Q542 1229 501 1228T420 1227V731H594Q626 731 657 732T717 740T773 760T825 797Q867 834 884 879T901 981ZM1010 377Q1010 473 976 528T885 612T756 647T606 655H420V119Q420 90 429 83T465 76H492Q513 76 535 75T580 74Q675 74 754 87T890 134T978 226T1010 377Z"  />
<glyph unicode="C" horiz-adv-x="1360" d="M1251 1022H1169L1157 1128Q1155 1146 1153 1157T1147 1175T1137 1187T1120 1196Q1104 1203 1077 1209T1014 1221T935 1229T842 1233Q714 1233 610 1198T432 1091T317 907T276 645Q276 508 315 399T427 215T607 99T848 59Q921 59 973 64T1060 80T1117 105T1151 139L1202 225L1272 201L1231 53Q1228 42 1223 34T1204 20Q1113 -3 1016 -14T825 -25Q673 -25 544 18T321 143T173 347T119 623Q119 741 147 838T228 1013T351 1148T510 1244T695 1302T899 1321Q915 1321 949 1320T1026 1317T1113 1310T1194 1300T1254 1286T1278 1268V1255L1251 1022Z"  />
<glyph unicode="D" horiz-adv-x="1548" d="M1436 670Q1436 589 1417 514T1364 373T1281 249T1174 145Q1109 95 1034 66T879 21T717 1T557 -4Q529 -4 495 -4T424 -4T349 -3T276 -2Q193 -1 106 0V61L207 78Q227 81 239 86T258 102T267 131T270 178V1202Q270 1215 264 1220T246 1225H96V1298H430Q498 1298 565 1301T698 1305Q861 1305 997 1274T1230 1168T1382 972T1436 670ZM1280 662Q1280 787 1256 877T1188 1030T1080 1131T936 1191T762 1220T561 1227Q527 1227 492 1227T422 1225V123Q422 100 428 89T459 78Q501 78 544 76T629 74Q689 74 755 82T887 108T1011 155T1114 229Q1156 271 1187 322T1238 429T1269 544T1280 662Z"  />
<glyph unicode="E" horiz-adv-x="1237" d="M1141 291L1079 0H113V61Q131 64 150 67T187 73Q206 76 225 78Q241 80 251 85T266 102T274 132T276 178V1188Q276 1210 269 1217T238 1225H96V1298H1120L1090 1034H1008L997 1161Q994 1190 982 1201T940 1212L428 1221V725L842 731Q873 731 885 748T901 791Q903 810 905 828Q907 843 908 858T911 883H989V502H911L899 590Q894 619 884 630T842 641L428 647V117Q428 106 431 95T446 84Q556 84 663 86T879 90Q911 91 931 94T966 107T989 133T1010 176L1067 313L1141 291Z"  />
<glyph unicode="F" horiz-adv-x="1141" d="M1090 1298L1069 1032H983L969 1169Q966 1197 952 1207T913 1217Q784 1221 665 1221T424 1223V709Q462 709 516 709T627 710T739 711T831 713Q859 715 873 725T893 760L909 862H983V477H909L893 584Q890 604 873 612T831 623Q792 624 738 625T628 627T517 628T424 629V121Q424 93 434 86T467 78H651V0H106V61L215 78Q233 80 243 85T260 101T268 130T270 178V1178Q270 1205 264 1215T229 1225H88V1298H1090Z"  />
<glyph unicode="G" horiz-adv-x="1473" d="M1432 586Q1404 583 1377 580T1321 571Q1293 566 1286 551T1278 510V33Q1165 10 1055 -5T829 -20Q661 -20 529 19T304 138T164 340T115 627Q115 799 177 929T346 1147T593 1279T889 1323Q970 1323 1052 1317T1214 1294Q1228 1292 1236 1290T1248 1284T1253 1272T1255 1249L1270 1038L1178 1020L1153 1141Q1149 1159 1146 1169T1137 1185T1122 1196T1096 1206Q1070 1215 1037 1220T970 1228T904 1230T846 1231Q565 1231 419 1084T272 651Q272 494 310 382T424 198T613 93T877 59Q929 59 986 64T1094 86Q1111 92 1116 100T1122 127V530Q1122 552 1118 560T1090 569H932V655H1432V586Z"  />
<glyph unicode="H" horiz-adv-x="1606" d="M1520 0H1006V61L1122 78Q1151 83 1161 105T1171 178V643H426V102Q426 78 449 78H618V0H104V61L217 78Q248 83 259 105T270 178V1198Q270 1212 266 1218T244 1225H86V1298H584V1241L479 1229Q445 1224 436 1203T426 1133V729H1171V1194Q1171 1217 1159 1221T1130 1225H989V1298H1487V1241L1374 1225Q1345 1220 1336 1200T1327 1133V106Q1327 91 1331 85T1352 78H1520V0Z"  />
<glyph unicode="I" horiz-adv-x="700" d="M629 0H96V61L215 78Q233 80 244 85T262 102T270 132T272 178V1198Q272 1225 248 1225H78V1298H586V1241L483 1225Q466 1222 455 1218T438 1205T429 1180T426 1135V111Q426 95 432 87T455 78H629V0Z"  />
<glyph unicode="J" horiz-adv-x="670" d="M584 1241L475 1225Q459 1223 449 1218T434 1201T426 1172T424 1128V190Q424 130 422 77T409 -28T377 -127T319 -225Q287 -267 249 -302T162 -360Q92 -397 10 -397Q-8 -397 -35 -394T-88 -383T-132 -359T-150 -317Q-150 -306 -145 -300T-133 -287Q-121 -277 -110 -267Q-101 -259 -93 -252T-80 -240H-57Q-26 -264 3 -273T76 -283Q133 -283 170 -268T228 -208T259 -78T268 145V1198Q268 1210 262 1217T244 1225H78V1298H584V1241Z"  />
<glyph unicode="K" horiz-adv-x="1286" d="M1323 0H842V61L971 78Q982 80 995 85T1008 102Q1008 113 1002 122T989 137Q902 246 788 383T543 672L418 565V117Q418 94 424 86T449 78H625V0H102V61L215 78Q232 80 242 85T259 102T267 132T270 178V1200Q270 1213 265 1219T246 1225H86V1298H586V1241L469 1225Q452 1223 442 1218T427 1201T420 1173T418 1130V645Q554 770 682 889T936 1135Q955 1153 972 1172T989 1204Q989 1220 979 1222T944 1225H842V1298H1288V1239Q1279 1237 1269 1236T1250 1232Q1240 1230 1231 1229Q1213 1226 1200 1223T1175 1215T1153 1202T1128 1182Q1080 1141 1016 1086T885 973T754 859T643 762Q681 718 726 665T820 554T919 438T1017 324T1107 219T1184 131Q1200 113 1211 102T1233 86T1255 80T1282 78H1323V0Z"  />
<glyph unicode="L" horiz-adv-x="1124" d="M1096 295L1036 0H102V61L213 78Q250 84 260 108T270 178V1202Q270 1213 264 1219T246 1225H96V1298H594V1241L473 1225Q458 1223 449 1218T434 1202T426 1175T424 1133V117Q424 97 432 88T461 78Q554 78 645 80T829 86Q863 87 884 92T920 108T945 137T967 182L1022 315L1096 295Z"  />
<glyph unicode="M" horiz-adv-x="1800" d="M1759 0H1266V61L1378 78Q1395 80 1404 89T1418 112T1424 142T1425 174L1421 1157L909 20H836L362 1157Q356 900 350 646T344 135Q344 110 351 94T389 78H543V0H76V61L170 78Q207 84 221 108T238 178Q242 269 246 368T256 567T265 761T273 934T279 1074T281 1165Q281 1194 270 1209T231 1225H119V1298H461L911 207L1397 1298H1739V1241L1632 1227Q1609 1224 1596 1218T1576 1202T1567 1174T1565 1133L1569 135Q1569 106 1577 92T1620 78H1759V0Z"  />
<glyph unicode="N" horiz-adv-x="1538" d="M1501 1241L1395 1225Q1373 1222 1360 1216T1340 1199T1331 1172T1327 1135Q1325 1064 1324 972T1320 777T1315 567T1311 357T1308 162T1305 -2L1245 -10L350 1128Q350 884 351 641T358 143Q358 128 359 116T365 95T380 83T410 78H567V0H92V61L182 78Q204 82 216 91T234 113T241 142T244 178Q248 278 251 381T256 603T260 858T264 1165Q264 1202 245 1213T182 1225H90V1298H393L1225 229Q1225 456 1225 687T1221 1149Q1220 1172 1218 1186T1210 1209T1194 1221T1169 1225H1026V1298H1501V1241Z"  />
<glyph unicode="O" horiz-adv-x="1610" d="M1487 666Q1487 513 1435 386T1290 168T1070 26T791 -25Q645 -25 523 24T312 162T173 372T123 639Q123 793 176 919T324 1135T548 1274T827 1323Q917 1323 1000 1302T1157 1240T1291 1141T1395 1010T1463 851T1487 666ZM1327 629Q1327 752 1291 863T1187 1059T1020 1194T799 1245Q678 1245 582 1199T419 1074T317 893T281 676Q281 538 321 423T432 226T602 99T817 53Q937 53 1031 100T1192 228T1292 412T1327 629Z"  />
<glyph unicode="P" horiz-adv-x="1141" d="M1098 930Q1098 845 1074 781T1007 670T907 593T784 544T647 518T506 510Q487 510 467 510T426 512V123Q426 94 432 86T461 78H631V0H104V61L217 78Q249 83 260 107T272 178V1200Q272 1213 263 1219T244 1225H90V1298H293Q338 1298 379 1299T461 1301T542 1304T629 1305Q726 1305 811 1288T961 1228T1061 1113T1098 930ZM936 924Q936 1081 850 1156T606 1231Q561 1231 516 1230T426 1227V588Q455 586 485 586T545 586Q632 586 703 603T827 661T907 765T936 924Z"  />
<glyph unicode="Q" horiz-adv-x="1610" d="M1548 -332Q1531 -338 1510 -343T1467 -352T1423 -358T1382 -360Q1287 -360 1206 -332T1054 -256T918 -149T793 -23H784Q641 -23 519 26T308 164T168 374T117 639Q117 723 138 806T198 965T293 1105T420 1214Q514 1274 614 1298T827 1323Q919 1323 1003 1300T1159 1234T1291 1131T1393 998T1458 841T1481 666Q1481 574 1457 484T1388 315T1278 170T1130 61Q1092 41 1048 27T963 4Q1014 -47 1068 -98T1182 -191T1312 -257T1466 -283Q1485 -283 1503 -281T1538 -274L1548 -332ZM1321 629Q1321 705 1305 780T1257 922T1181 1048T1076 1148T946 1215T793 1239Q676 1239 581 1193T417 1070T311 890T274 676Q274 557 310 446T415 248T584 111T813 59Q930 59 1024 107T1184 234T1285 417T1321 629Z"  />
<glyph unicode="R" horiz-adv-x="1315" d="M1358 45Q1355 43 1355 33T1354 10T1346 -13T1325 -23Q1205 -23 1109 16T932 150Q891 196 857 246T793 349T737 458T686 569Q644 566 606 565T526 563Q500 563 474 564T422 567V135Q422 114 426 103T439 86T459 79T487 78H625V0H106V61Q127 63 147 66Q164 68 182 71T215 78Q234 82 245 87T261 103T268 131T270 178V1186Q270 1207 260 1216T229 1225H92V1298H248Q301 1298 349 1299T445 1301T542 1304T645 1305Q736 1305 818 1291T963 1239T1063 1133T1100 956Q1100 822 1031 736T836 608Q860 553 888 491T951 368T1027 251T1118 150T1227 77T1358 45ZM944 942Q944 1022 923 1077T860 1165T760 1214T627 1229Q576 1229 529 1227T422 1225V647Q459 644 495 642T569 639Q653 639 722 651T840 696T917 788T944 942Z"  />
<glyph unicode="S" horiz-adv-x="1081" d="M985 358Q985 284 965 227T909 127T825 55T719 8T599 -17T473 -25Q392 -25 311 -16T152 14Q138 17 135 26T129 47L104 266L203 285Q208 262 212 241Q216 223 220 203T229 168Q237 134 252 119T299 92Q345 78 394 71T494 63Q560 63 622 75T734 117T812 197T842 326Q842 363 833 397T799 461Q777 489 743 510T669 549T589 581T518 608Q423 646 353 679T236 752T166 842T143 965Q143 1060 183 1128T287 1239T434 1303T600 1323Q672 1323 745 1319T891 1300Q905 1298 912 1295T923 1288T928 1276T930 1257Q931 1231 932 1197T935 1132Q937 1096 938 1059L844 1049L827 1163Q825 1181 820 1192T805 1210T779 1220T737 1227Q700 1232 659 1234T580 1237Q523 1237 470 1225T375 1186T308 1115T283 1008Q283 973 291 940T319 877Q344 841 386 815T479 766T588 725T702 682T809 631T900 565T962 477T985 358Z"  />
<glyph unicode="T" horiz-adv-x="1368" d="M1313 1298L1264 1012L1171 1016L1174 1171Q1174 1187 1168 1196T1153 1211T1130 1218T1102 1221Q1009 1226 920 1225T737 1229V121Q737 96 746 87T780 78H958V0H393V61L526 78Q561 83 573 106T586 178L588 1229Q507 1227 430 1226T274 1221Q255 1220 238 1218T206 1209T181 1190T164 1157L121 1014L35 1028L78 1298H1313Z"  />
<glyph unicode="U" horiz-adv-x="1475" d="M1407 1241Q1351 1230 1320 1223T1273 1205T1255 1179T1251 1133V649Q1251 524 1243 437T1219 288T1177 185T1116 111Q1075 72 1025 46T919 5T806 -18T694 -25Q634 -25 573 -17T455 12T353 70T276 166Q242 229 235 299T227 442V1171Q227 1199 219 1212T180 1225H57V1298H549V1241Q487 1230 454 1223T405 1205T386 1179T383 1133V535Q383 462 386 400T400 287T435 198T499 133T598 94T743 80Q798 80 852 90T955 123T1042 181T1102 266Q1109 284 1116 317T1129 404T1137 534T1141 715V870Q1141 937 1141 977T1140 1047T1139 1103T1137 1167Q1136 1182 1135 1193T1130 1211T1116 1221T1090 1225H963V1298H1407V1241Z"  />
<glyph unicode="V" horiz-adv-x="1251" d="M1274 1241L1206 1225Q1190 1221 1180 1216T1162 1204T1148 1185T1135 1155Q1099 1075 1058 980T972 783T881 574T792 366T708 171T635 0H551L123 1178Q117 1194 113 1203T102 1217T86 1223T59 1225H-12V1298H418V1241Q414 1237 392 1236T345 1230T300 1217T279 1190Q279 1179 283 1165T293 1133Q357 951 418 777Q444 703 472 623T527 466T580 316T627 184Q652 247 683 325T749 489T818 665T888 839T951 999T1004 1133Q1012 1151 1015 1166T1018 1192Q1018 1209 1007 1217T967 1225H840V1298H1274V1241Z"  />
<glyph unicode="W" horiz-adv-x="1864" d="M1937 1241L1862 1225Q1849 1222 1840 1216T1822 1198T1807 1171T1790 1133Q1758 1059 1718 966T1634 771T1543 562T1454 354T1371 162T1303 0H1212L967 758L637 0H553Q462 249 379 475Q344 571 307 671T237 865T174 1040T125 1178Q119 1194 116 1203T107 1217T92 1223T63 1225H-10V1298H420V1241L315 1225Q297 1222 289 1216T281 1194Q281 1183 284 1169T295 1133Q315 1074 341 997T398 835T460 659T522 482T579 318T629 178L926 877L831 1137Q820 1168 812 1186T798 1212T784 1223T766 1225H668V1298H1116V1241Q1111 1237 1087 1236T1036 1231T987 1219T965 1192Q965 1175 977 1139Q1005 1047 1041 933T1119 692T1203 434T1288 176L1669 1128Q1677 1148 1682 1165T1688 1194Q1688 1209 1676 1217T1636 1225H1507V1298H1937V1241Z"  />
<glyph unicode="X" horiz-adv-x="1300" d="M1231 1241L1159 1229Q1147 1227 1137 1219T1117 1202T1099 1182T1085 1163L690 694L1053 166Q1071 140 1083 123T1105 96T1125 82T1151 78H1223V0H752V61L862 78Q884 81 894 88T905 109Q905 126 881 164L590 592L279 172Q260 147 252 130T244 102Q244 88 256 83T293 78H418V0H-4V61Q7 63 18 67Q27 69 37 72T55 78Q72 83 90 102T135 152L547 662L186 1182Q166 1211 153 1218T121 1225H61V1298H489V1241L387 1229Q358 1226 358 1206Q358 1195 367 1178T393 1135L643 758L954 1159Q965 1175 970 1184T975 1202Q975 1218 957 1221T889 1225H815V1298H1231V1241Z"  />
<glyph unicode="Y" horiz-adv-x="1169" d="M1178 1241Q1162 1238 1146 1235T1114 1227Q1092 1222 1082 1212T1059 1184L655 578V113Q655 97 662 88T686 78H870V0H322V61L455 78Q486 81 497 104T508 178V559Q409 721 315 879T119 1202Q109 1218 101 1221T76 1225H27V1298H434V1241L362 1233Q355 1232 344 1232T322 1229T302 1221T293 1204Q293 1199 294 1192T299 1180Q331 1124 371 1055T455 913T539 772T614 645Q644 692 685 758T768 894T849 1029T915 1139Q931 1163 937 1179T944 1204Q944 1217 935 1221T903 1225H793V1298H1178V1241Z"  />
<glyph unicode="Z" horiz-adv-x="1212" d="M1141 336L1069 0H74V68L956 1225Q807 1225 666 1222T377 1217Q348 1217 330 1215T300 1205T279 1185T262 1149Q235 1081 211 1014L129 1028L197 1298H1128V1241L252 78Q357 80 460 81T670 84Q722 86 775 86T881 92Q904 93 920 97T948 109T969 131T987 166Q997 189 1010 220T1035 281Q1049 314 1063 350L1141 336Z"  />
<glyph unicode="[" horiz-adv-x="614" d="M199 -518V1386H557V1327L326 1325Q312 1325 303 1317T293 1288V-428Q293 -447 302 -454T326 -461L557 -459V-518H199Z"  />
<glyph unicode="\" horiz-adv-x="836" d="M829 -365H735L117 1311H211L829 -365Z"  />
<glyph unicode="]" horiz-adv-x="614" d="M57 -520V-461L289 -463Q303 -463 312 -456T322 -430V1286Q322 1306 313 1314T289 1323L57 1325V1384H416V-520H57Z"  />
<glyph unicode="^" horiz-adv-x="1081" d="M829 709L541 1196L250 709H115L469 1300H610L967 709H829Z"  />
<glyph unicode="_" horiz-adv-x="977" d="M975 -317H0V-211H975V-317Z"  />
<glyph unicode="`" horiz-adv-x="1024" d="M645 997L590 985L272 1272V1294L412 1331L645 997Z"  />
<glyph unicode="a" horiz-adv-x="954" d="M975 121V74Q975 63 961 51T926 29Q905 20 879 10T828 -7T779 -20T739 -25Q691 -25 667 -1T637 72Q599 57 557 40T472 9T385 -14T301 -23Q242 -23 202 -8T137 36T101 107T90 205Q90 250 100 281T132 334T184 371T258 397Q352 423 446 440T635 473Q637 501 637 527T637 582Q637 639 630 680T600 748T540 788T440 801Q405 801 370 796T308 781T263 760T246 735V729L250 649L145 633L129 711Q127 720 126 727T125 737Q125 748 130 757T143 772Q175 797 219 818T313 854T410 878T500 887Q578 887 630 872T715 824T760 739T774 614Q774 502 770 391T766 168Q766 152 767 136T775 108T792 88T825 80Q867 80 902 94T969 125L975 121ZM635 406Q612 401 573 395T487 380T395 361T313 336Q269 319 253 296T236 223Q236 185 241 156T262 108T304 80T373 70Q441 70 505 90T633 137L635 406Z"  />
<glyph unicode="b" horiz-adv-x="1124" d="M1038 465Q1038 343 992 252T868 99T687 6T467 -25Q404 -25 333 -15T201 14Q187 19 184 24T180 49V84L182 1243Q182 1300 176 1320T147 1341Q142 1341 138 1341T127 1339L39 1319L27 1380L266 1462H324L319 774Q359 797 400 818T484 854T574 879T670 889Q767 889 837 856T951 765T1017 630T1038 465ZM319 145Q319 121 324 108T356 86Q401 74 452 68T551 61Q638 61 703 87T812 160T877 274T899 422Q899 495 888 562T844 681T754 764T604 795Q563 795 527 788T458 768T390 737T319 698V145Z"  />
<glyph unicode="c" horiz-adv-x="881" d="M766 694H727Q719 719 698 737T648 766T588 783T524 788Q370 788 298 705T225 442Q225 349 247 282T308 170T402 104T520 82Q562 82 597 86T665 101T730 129T799 172H807L823 139Q831 123 831 119Q831 112 815 100Q770 65 722 42T626 6T533 -14T451 -20Q364 -20 296 11T182 98T111 227T86 389Q86 516 135 613T287 786Q358 839 430 864T592 889Q662 889 710 879T786 852T827 816T840 778Q840 765 829 756L766 694Z"  />
<glyph unicode="d" horiz-adv-x="1128" d="M1114 45Q1094 40 1059 30Q1029 22 978 7T848 -31H801L809 100Q771 79 729 58T641 20T550 -7T459 -18Q373 -18 306 16T191 108T119 245T94 410Q94 519 138 606T254 754T421 847T616 879Q664 879 713 868T809 842V1253Q809 1295 801 1311T776 1327Q771 1327 757 1323T737 1317L655 1288L637 1352Q655 1359 688 1374Q717 1386 764 1407T883 1462H944V141Q944 113 948 103T971 92Q983 92 996 94T1020 98L1114 111V45ZM809 696Q759 749 687 770T537 791Q459 791 400 767T302 698T242 594T221 461Q221 388 241 320T300 200T396 117T530 86Q602 86 674 107T809 160V696Z"  />
<glyph unicode="e" horiz-adv-x="905" d="M233 436Q235 353 251 286T301 172T391 100T528 74Q604 74 671 104T801 178H813L825 133Q825 130 826 128T827 123Q827 117 824 113T815 104Q783 77 743 54T660 13T571 -15T481 -25Q370 -25 296 10T176 106T112 252T92 436Q92 521 117 602T191 747T313 848T481 887Q571 887 633 857T735 774T796 652T825 504L233 436ZM676 561Q671 604 657 649T616 732T550 793T457 817Q391 817 348 787T278 710T242 608T231 502L676 561Z"  />
<glyph unicode="f" horiz-adv-x="637" d="M856 1341Q856 1335 855 1330T848 1317L793 1257H766Q734 1308 689 1322T586 1337Q504 1337 456 1316T383 1252T351 1141T344 981V864H649V774H344V113Q344 88 350 83T381 78H514V0H72V61Q89 64 105 67T135 73Q150 76 164 78Q187 82 198 103T209 178V774H74V838Q100 844 125 849Q146 854 169 858T209 864V993Q209 1033 216 1075T240 1159T279 1238T334 1307Q370 1342 404 1368T476 1411T556 1436T649 1444Q671 1444 706 1440T775 1424T832 1393T856 1341Z"  />
<glyph unicode="g" horiz-adv-x="997" d="M471 909Q549 909 621 885H977L975 797L743 799Q765 776 783 747T813 685T831 620T838 557Q838 494 821 446T773 360T701 296T612 247T513 210T410 178Q393 173 379 169T348 158Q330 152 326 143T322 119Q322 107 328 98T352 80T398 66T473 53Q565 42 625 34T728 17T802 -1T866 -23Q926 -46 958 -92T991 -205Q991 -270 955 -320T865 -408T748 -471T629 -510Q570 -524 510 -531T387 -539Q336 -539 274 -531T158 -501T66 -440T29 -336Q29 -296 47 -262T96 -199T164 -146T244 -103T325 -68T397 -41V-37Q340 -28 301 -18T238 7T204 42T193 94Q193 126 210 145T252 174Q290 191 323 204T393 229V236Q339 242 290 258T201 315Q154 362 130 424T106 551Q106 629 133 694T208 807T324 882T471 909ZM709 524Q709 576 695 633T650 737T572 815T461 846Q403 846 362 825T293 769T253 689T240 594Q240 536 255 481T303 383T386 314T504 287Q513 287 522 289T543 295Q629 324 669 380T709 524ZM858 -236Q858 -194 838 -161T784 -113Q752 -99 711 -89T627 -72T545 -59T479 -51Q435 -71 382 -97T281 -155T202 -227T170 -315Q170 -348 184 -371T223 -411T277 -438T340 -453T403 -461T459 -463Q492 -463 534 -458T620 -440T707 -410T783 -367T837 -309T858 -236Z"  />
<glyph unicode="h" horiz-adv-x="1151" d="M1126 0H696V61L788 78Q807 81 817 89T831 110T837 140T838 178V561Q838 606 831 647T803 719T749 768T659 786Q614 786 574 777T495 752T420 716T346 672V111Q346 94 352 86T377 78H508V0H74V61L162 78Q176 80 184 85T198 101T205 132T207 182V1245Q207 1335 172 1335Q169 1335 167 1334T162 1333L78 1313L59 1380L289 1462H346V743Q387 770 432 796T523 843T618 876T713 889Q779 889 824 875T898 834T944 772T967 693T976 601T977 500V111Q977 91 982 85T1010 78H1126V0Z"  />
<glyph unicode="i" horiz-adv-x="559" d="M383 1245Q383 1234 375 1226T356 1217H254Q245 1217 235 1226T225 1245V1339Q225 1350 235 1359T256 1368H354Q367 1368 375 1359T383 1339V1245ZM541 0H88V61L180 80Q194 82 202 87T216 104T223 133T225 178L227 684Q227 716 221 730T199 745Q195 745 176 738T135 722T95 705T74 696L49 758L305 893H365V117Q365 105 365 98T369 86T379 81T399 80H541V0Z"  />
<glyph unicode="j" horiz-adv-x="526" d="M373 1225Q373 1214 366 1206T348 1198H229Q218 1198 212 1206T205 1225V1331Q205 1342 211 1350T229 1358H348Q359 1358 366 1350T373 1331V1225ZM352 889L354 -43Q354 -102 351 -151T339 -242T314 -320T270 -391Q238 -431 198 -463T113 -516Q87 -527 60 -534T4 -541Q-34 -541 -63 -531T-109 -506Q-117 -498 -119 -495T-121 -481Q-121 -475 -120 -473T-115 -465Q-112 -462 -105 -453Q-99 -445 -88 -432T-59 -397H-37Q-14 -416 10 -424T66 -432Q153 -432 180 -356Q215 -272 215 -156V670Q215 704 209 720T186 737Q172 737 156 729L63 688L37 750L291 889H352Z"  />
<glyph unicode="k" horiz-adv-x="1001" d="M1036 78V0H637V61L729 76Q752 79 752 90Q752 96 745 105T729 125L440 459L328 373V119Q328 96 333 87T362 78H479V0H55V61L139 80Q154 83 164 88T179 105T186 133T188 178V1243Q188 1300 181 1318T156 1337Q151 1337 147 1337T137 1335L53 1317L39 1378L281 1462H328V449L616 676Q663 711 691 739T719 776Q719 785 711 786T680 788H596V864H989V809L930 795Q919 792 910 790T890 782T866 769T834 748L532 528L913 115Q925 102 932 95T945 84T958 79T981 78H1036Z"  />
<glyph unicode="l" horiz-adv-x="545" d="M518 0H70V61L158 80Q171 83 180 87T194 101T202 129T205 178V1235Q205 1291 202 1313T176 1335Q173 1335 168 1335T158 1333L70 1313L57 1376L299 1462H346V106Q346 91 351 86T373 80H518V0Z"  />
<glyph unicode="m" horiz-adv-x="1712" d="M1690 0H1270V61L1352 80Q1378 86 1388 106T1399 178V532Q1399 584 1393 630T1368 710T1317 764T1233 784Q1195 784 1163 775T1097 749T1027 706T946 647L944 115Q944 89 952 85T981 80H1114V0H662V61L754 80Q769 83 778 88T794 105T802 133T805 178V514Q805 554 803 601T786 689T743 757T659 784Q625 784 592 777T523 752T445 708T352 643V113Q352 91 358 85T381 78H514V0H80V61L166 80Q191 85 202 105T213 178V686Q213 723 206 737T184 752Q181 752 177 751T168 748L68 707L47 770L295 895H354L344 713Q447 798 539 841T723 885Q795 885 848 842T930 713Q985 758 1032 790T1122 844T1204 875T1282 885Q1370 885 1421 857T1498 781T1531 673T1538 547V123Q1538 94 1546 86T1581 78H1690V0Z"  />
<glyph unicode="n" horiz-adv-x="1153" d="M1130 0H705V61L797 78Q818 83 825 96T834 117Q839 152 839 191T840 266V535Q840 580 836 625T814 706T763 765T670 788Q628 788 585 775T500 740T421 694T352 645V111Q352 94 357 87T391 80H512V0H80V61L156 78Q177 82 188 88T205 106T212 135T213 178V692Q213 752 184 752Q178 752 171 750T152 743Q132 734 115 727Q101 721 88 716T70 709L51 768L297 897H354L348 719Q387 748 432 778T525 834T625 875T729 891Q815 891 864 863T939 786T972 675T979 543V111Q979 88 985 84T1014 80H1130V0Z"  />
<glyph unicode="o" horiz-adv-x="1104" d="M1016 453Q1016 351 980 264T878 112T723 12T526 -25Q427 -25 346 8T208 101T120 241T88 418Q88 519 125 605T227 755T380 853T573 889Q673 889 755 857T895 766T984 628T1016 453ZM872 416Q872 485 854 556T797 684T695 778T543 815Q467 815 409 785T310 707T250 596T229 469Q229 421 236 371T260 274T301 186T364 114T449 65T559 47Q639 47 698 78T795 160T853 277T872 416Z"  />
<glyph unicode="p" horiz-adv-x="1128" d="M1044 481Q1044 410 1030 352T989 244T921 154T827 76Q794 53 755 38T675 13T594 -1T518 -6Q472 -6 430 -2T338 12V-414Q338 -438 344 -446T373 -455H516V-532H66V-469L160 -455Q183 -452 191 -434T199 -373V700Q199 728 195 740T180 752Q175 752 170 750T156 743L66 702L41 764L289 903H344L338 786Q377 805 417 823T500 856T585 880T674 889Q766 889 835 858T951 771T1021 642T1044 481ZM911 428Q911 512 892 578T832 691T729 761T582 786Q511 786 455 768T338 725V129Q368 116 394 107T447 93T500 85T559 82Q740 82 825 167T911 428Z"  />
<glyph unicode="q" horiz-adv-x="1098" d="M1069 -532H637V-469L750 -455Q777 -452 791 -435T805 -379V90Q707 40 625 16T461 -8Q389 -8 321 18T201 98T118 232T86 422Q86 522 128 606T247 753T428 850T657 885Q714 885 779 876T907 852Q921 849 928 847T939 840T943 827T944 805L942 -377Q942 -404 943 -419T947 -443T959 -453T981 -455H1069V-532ZM573 801Q406 801 315 717T223 461Q223 391 241 324T294 203T383 117T508 84Q591 84 664 105T805 162L809 700Q809 738 801 753T768 776Q720 790 675 795T573 801Z"  />
<glyph unicode="r" horiz-adv-x="784" d="M784 807Q784 795 781 789T772 770L733 696H696Q690 730 676 749T623 768Q603 768 587 766T553 754T515 729T467 686Q442 661 413 629T344 545L346 121Q346 105 349 96T359 83T373 79T393 78H559V0H78V61Q99 65 117 69Q131 72 143 74T156 78Q190 85 200 106T211 178V674Q211 720 207 738T186 756Q181 756 177 756T166 752L70 717L47 780L295 897H352L340 637Q352 643 371 664T411 710T451 761T485 799Q510 823 531 840T574 868T620 884T676 889Q719 889 743 871T778 831Q781 825 782 821T784 807Z"  />
<glyph unicode="s" horiz-adv-x="791" d="M715 229Q715 175 689 129T615 48T497 -5T342 -25Q274 -25 214 -18T111 -2Q97 0 94 0T88 16L63 186L156 207L178 131Q184 113 188 102T198 85T212 74T236 66Q282 49 377 49Q474 49 528 88T582 199Q582 231 573 256T541 302T478 344T373 387Q319 406 270 426T182 474T121 541T98 637Q98 695 123 741T193 821T299 871T432 889Q474 889 503 888T557 884T604 876T653 864Q662 862 667 860T675 855T678 847T680 834L688 686L600 678L586 756Q584 766 581 773T570 785T550 795T516 805Q493 811 468 812T418 813Q330 813 281 776T231 674Q231 638 239 613T272 568T339 528T453 483Q504 465 551 445T635 397T693 329T715 229Z"  />
<glyph unicode="t" horiz-adv-x="688" d="M655 80Q655 71 646 64T629 51Q569 19 504 -3T367 -25Q302 -25 261 -6T197 48T165 131T156 236Q156 372 161 507T170 776L51 774V815Q86 847 114 873T169 926T223 979T285 1040H317L307 862L641 864V774L305 778Q299 661 296 539T293 299Q293 251 295 210T312 139T356 92T444 74Q497 74 541 88T633 125H641Q643 119 649 104T655 80Z"  />
<glyph unicode="u" horiz-adv-x="1124" d="M1098 57L858 -8H788Q789 -4 790 11Q791 24 791 49T793 119Q734 78 683 51T586 6T500 -18T422 -25Q357 -25 312 -7T237 51T194 152T180 299Q180 349 182 401T186 506T191 606T193 696Q193 728 189 745T162 762H150L55 750L51 813L281 879H336Q333 799 330 717T325 560T321 421T319 315Q319 270 324 228T346 153T395 100T481 80Q523 80 559 85T632 104T707 137T793 186L801 721Q801 749 795 762T768 776Q766 776 748 775T719 774L649 770V836L885 879H940Q940 832 939 773T936 647T934 513T931 379T929 255T928 150Q928 124 933 113T954 102H965L1098 121V57Z"  />
<glyph unicode="v" horiz-adv-x="948" d="M946 809L893 797Q877 794 864 778T831 721Q806 672 784 628T739 537T691 439T634 324T565 181T477 0H391L96 733Q89 750 85 761T76 780T66 791T51 795H12V864H358V809L274 797Q253 794 242 787T231 762Q231 753 244 716T277 625T324 506T376 376T428 250T471 145Q497 201 531 276T601 429T669 582T727 713Q732 724 736 738T741 764Q741 776 733 785T707 795H627V864H946V809Z"  />
<glyph unicode="w" horiz-adv-x="1430" d="M1458 809L1403 797Q1396 795 1390 792T1377 780T1362 756T1341 717Q1307 647 1267 561T1184 381T1096 190T1008 0H918L731 516Q714 484 693 444T649 358T602 264T554 169T509 79T471 0H383Q357 73 325 165T257 355T187 551T121 735Q113 756 108 768T98 786T86 793T68 795H35V864H387V809L299 797Q277 794 268 787T258 764Q258 747 270 711Q317 573 357 457Q374 407 391 358T422 265T448 189T465 141Q537 297 593 413T694 618Q675 670 664 704T643 758T624 786T598 795H545V864H915V809L838 795Q815 790 803 784T791 758Q791 748 793 737T801 709Q813 673 829 627T863 530T899 424T936 319T971 222T1001 141Q1020 185 1046 245T1099 372T1153 504T1201 625T1236 718T1249 768Q1249 795 1217 795H1139V864H1458V809Z"  />
<glyph unicode="x" horiz-adv-x="956" d="M936 864V807L895 797Q881 794 870 782T850 760L555 455L805 104Q816 89 824 84T854 78H918V0H539V61L618 76Q645 79 645 96Q645 101 644 107T637 119L467 377Q435 342 396 299T322 216T264 142T240 94Q240 78 276 78H362V0H25V61L78 76Q95 81 108 94T137 125L418 430L182 756Q165 778 156 786T133 795H74V864H446V809L362 797Q334 794 334 776Q334 759 354 729Q374 699 392 673T428 620T466 566T510 504L723 754Q733 767 733 778Q733 786 726 790T702 795H627V864H936Z"  />
<glyph unicode="y" horiz-adv-x="948" d="M973 809L918 797Q898 792 889 777T866 735L514 39Q451 -87 389 -209T258 -465Q254 -472 249 -483T236 -506T220 -526T201 -535Q190 -535 177 -532T150 -526T123 -518T100 -510L96 -489Q133 -443 168 -396T240 -291T319 -162T412 4Q340 193 271 378T127 750Q109 795 84 795H43V864H401V809L311 797Q294 794 284 789T274 766Q274 754 278 735T295 684L494 147Q510 182 531 227T575 322T623 424T671 526T713 620T748 700Q766 746 766 766Q766 783 756 789T727 795H645V864H973V809Z"  />
<glyph unicode="z" horiz-adv-x="862" d="M827 225L778 0H57V68L645 791Q567 790 494 789Q463 789 430 789T364 787T303 786T250 784Q222 784 212 775T193 743L152 643L80 659L123 864H813V813L209 70Q260 71 319 73T439 76T554 80T651 86Q676 88 690 101T713 129L766 244L827 225Z"  />
<glyph unicode="{" horiz-adv-x="614" d="M274 -168Q274 -95 277 -29T281 111Q281 194 267 250T224 340T149 388T43 403V469Q167 469 224 530T281 733Q281 809 278 889T274 1044Q274 1224 347 1307T571 1391V1335Q469 1335 421 1276T373 1104Q373 1011 375 920T377 735Q377 670 365 620T325 533T250 472T137 436Q206 422 252 398T326 336T365 243T377 111Q377 26 375 -60T373 -231Q373 -463 571 -463V-518Q488 -518 432 -495T340 -428T290 -318T274 -168Z"  />
<glyph unicode="|" horiz-adv-x="512" d="M203 -410V1638H309V-410H203Z"  />
<glyph unicode="}" horiz-adv-x="614" d="M477 436Q409 448 364 472T290 533T250 620T238 735Q238 828 240 919T242 1104Q242 1216 194 1275T43 1335V1391Q194 1391 267 1308T340 1044Q340 969 337 889T334 733Q334 592 390 531T571 469V403Q510 403 466 389T392 340T348 250T334 111Q334 37 337 -29T340 -168Q340 -252 325 -317T274 -427T183 -495T43 -518V-463Q242 -463 242 -231Q242 -146 240 -60T238 111Q238 187 249 242T288 336T362 398T477 436Z"  />
<glyph unicode="~" horiz-adv-x="1081" d="M985 735Q953 682 921 645T856 585T792 550T733 539Q669 539 617 555T519 592T431 628T344 645Q320 645 298 640T254 620T209 583T160 524L94 567Q132 626 165 664T232 723T299 753T371 762Q414 762 461 746T557 710T653 674T745 657Q797 657 837 688T922 778L985 735Z"  />
<glyph unicode="&#xA0;" horiz-adv-x="492" />
<glyph unicode="&#xA1;" horiz-adv-x="696" d="M256 -201Q256 -179 258 -152T263 -97T269 -40T274 12L319 547H379L432 -96Q434 -122 437 -149T440 -201V-434H256V-201ZM258 838Q258 849 266 856T285 864H414Q425 864 431 857T438 838V719Q438 711 434 704T422 694H412H285Q274 694 266 701T258 719V838Z"  />
<glyph unicode="&#xA2;" horiz-adv-x="1081" d="M580 1020Q518 1012 474 989T402 924T360 823T346 680Q346 609 362 549T409 443T483 367T580 326V1020ZM580 1284H651V1124Q664 1126 676 1126T702 1126Q809 1126 871 1100T934 1030Q934 1022 932 1017T924 1006L858 940H834Q806 991 761 1008T651 1026V322Q720 324 785 344T905 408L913 410L930 377Q935 369 935 365T936 358Q936 351 922 340Q854 284 788 259T651 223V0H580V217Q488 217 418 249T301 339T230 475T205 647Q205 731 230 805T302 940T420 1045T580 1114V1284Z"  />
<glyph unicode="&#xA3;" horiz-adv-x="1081" d="M954 129Q954 120 952 107T940 82Q894 26 838 1T719 -25Q669 -25 622 -17T530 2T443 20T358 29Q337 29 316 27T273 20T234 9T203 -6Q188 -18 178 -18Q173 -18 168 -10L133 45Q131 48 130 50T129 55Q129 63 136 67T154 78Q185 103 212 131T258 191T288 259T299 338Q299 394 288 447T260 559H74V647H244Q225 718 214 777T203 901Q203 988 241 1065T341 1199T482 1289T643 1323Q690 1323 740 1315T834 1284T905 1222T936 1122Q936 1112 911 1102L827 1063L813 1067Q794 1145 739 1185T606 1225Q476 1225 409 1160T342 961Q342 880 357 804T393 647H672V559H412Q423 516 429 482T436 412Q436 370 428 331T400 253T352 178T279 102L285 96Q330 115 370 126T457 137Q502 137 536 131T602 117T670 103T754 96Q785 96 812 105T863 128T905 162T938 201L954 197V129Z"  />
<glyph unicode="&#xA4;" horiz-adv-x="1087" d="M920 293L784 428Q729 385 668 364T543 342Q518 342 490 346T430 360T367 386T303 428L166 293L106 356L244 485Q202 545 181 604T160 725Q160 787 180 847T244 965L106 1096L166 1159L303 1024Q371 1074 432 1091T543 1108Q598 1108 661 1089T782 1024L920 1159L981 1096L844 965Q890 902 909 842T928 725Q928 606 844 485L981 356L920 293ZM842 727Q842 793 817 847T750 941T655 1002T545 1024Q480 1024 426 1000T331 936T269 841T246 727Q246 666 269 612T333 517T428 452T543 428Q604 428 658 451T754 516T818 611T842 727Z"  />
<glyph unicode="&#xA5;" horiz-adv-x="1081" d="M1059 1241L999 1227Q978 1222 966 1214T938 1182L713 813H936V733H659L565 580H936V500H565V104Q565 87 570 83T592 78H748V0H264V59L383 76Q411 79 418 91T428 129V500H61V578H418L338 733H61V813H293Q265 865 237 918T183 1022T133 1116T92 1196Q81 1216 74 1219T57 1223H-4V1298H373V1241L272 1225Q252 1222 247 1215T242 1200Q242 1195 245 1186T252 1169L520 647L817 1169Q823 1180 827 1189T831 1208Q831 1218 821 1220T793 1223H694V1298H1059V1241Z"  />
<glyph unicode="&#xA6;" horiz-adv-x="512" d="M203 819V1434H309V819H203ZM203 -205V410H309V-205H203Z"  />
<glyph unicode="&#xA7;" horiz-adv-x="1100" d="M731 88Q765 61 787 35T823 -18T842 -74T848 -137Q848 -206 818 -270T741 -387Q684 -449 602 -487T420 -526Q387 -526 360 -524T307 -514T258 -495T209 -465Q206 -463 196 -455T186 -426Q186 -414 189 -407T197 -393L250 -330H270Q311 -382 365 -403T487 -424Q547 -424 599 -404T686 -344Q714 -312 726 -275T739 -199Q739 -127 700 -68Q681 -38 649 -13T581 35T508 77T442 115Q394 145 348 177T266 247T208 332T186 436Q186 520 232 591T369 725Q344 747 322 769T282 818T254 881T244 965Q244 1036 268 1091T340 1200Q400 1268 477 1299T641 1331Q673 1331 704 1328T763 1315T815 1288T860 1245Q865 1239 866 1235T868 1219Q868 1199 862 1196L803 1143H784Q755 1193 706 1212T594 1231Q523 1231 471 1215T389 1153Q372 1128 363 1093T354 1012Q354 966 367 931T414 861T504 789T645 702Q696 674 745 643T833 572T896 485T920 375Q920 326 906 286T867 212T807 148T731 88ZM600 588Q559 611 535 624T494 647T461 667T424 692Q365 649 331 600T297 487Q297 435 317 394T369 320T440 261T520 211Q558 188 594 168T674 119Q703 141 726 162T764 208T788 259T797 322Q797 370 786 406T750 473T689 531T600 588Z"  />
<glyph unicode="&#xA8;" horiz-adv-x="1024" d="M367 1219Q381 1219 389 1210T397 1188V1092Q397 1078 389 1070T367 1061H281Q268 1061 259 1069T250 1092V1188Q250 1200 259 1209T281 1219H367ZM733 1219Q747 1219 755 1210T764 1188V1092Q764 1061 733 1061H647Q635 1061 626 1069T616 1092V1188Q616 1200 625 1209T647 1219H733Z"  />
<glyph unicode="&#xA9;" horiz-adv-x="1569" d="M1057 846H993L985 911Q980 940 942 950T825 961Q754 961 696 942T596 884T533 786T510 647Q510 578 531 520T593 421T692 356T825 332Q870 332 898 335T942 343T967 355T981 371Q989 384 995 394T1006 412Q1011 420 1016 426L1073 406L1047 315Q1044 298 1016 288T951 273T876 266T813 264Q721 264 645 288T514 359T429 475T399 633Q399 734 435 809T534 933T678 1006T852 1030Q871 1030 908 1029T981 1023T1045 1011T1073 991V987V983L1057 846ZM111 647Q111 740 135 826T203 987T308 1123T444 1229T605 1297T784 1321Q924 1321 1046 1268T1260 1124T1405 910T1458 647Q1458 507 1405 385T1261 171T1047 26T784 -27Q691 -27 605 -3T444 65T308 170T203 306T135 467T111 647ZM203 647Q203 527 249 421T374 236T558 112T784 66Q906 66 1012 110T1197 233T1321 418T1366 647Q1366 768 1320 874T1195 1059T1010 1183T784 1229Q664 1229 559 1184T374 1059T249 874T203 647Z"  />
<glyph unicode="&#xAA;" horiz-adv-x="625" d="M573 799Q547 789 522 783T481 776Q450 776 434 790T412 829Q389 820 364 811T313 794T260 781T209 776Q134 776 104 813T74 915Q74 972 102 998T182 1036Q238 1049 295 1059T410 1079Q412 1095 412 1109T412 1139Q412 1171 408 1194T390 1231T355 1253T295 1260Q280 1260 261 1258T224 1251T194 1240T182 1225L184 1174L109 1161L94 1225V1229Q94 1247 121 1264T187 1294T266 1315T332 1323Q381 1323 414 1314T469 1285T499 1234T508 1157Q508 1091 506 1026T504 895Q504 875 508 863T535 850Q558 850 579 858T623 877L633 872V840Q633 827 617 819T573 799ZM410 1028Q387 1025 359 1020T304 1009T252 997T213 987Q194 981 185 965T176 928Q176 884 191 864T254 844Q294 844 332 855T408 881Q408 916 409 952T410 1028Z"  />
<glyph unicode="&#xAB;" horiz-adv-x="965" d="M825 66L455 434L825 809L872 778L641 434L872 94L825 66ZM483 66L113 434L483 809L530 778L299 434L530 94L483 66Z"  />
<glyph unicode="&#xAC;" horiz-adv-x="1081" d="M956 434H848V705H123V811H956V434Z"  />
<glyph unicode="&#xAD;" horiz-adv-x="676" d="M590 543L563 436L86 424L111 543H590Z"  />
<glyph unicode="&#xAE;" horiz-adv-x="1569" d="M1163 276Q1161 268 1154 265T1139 262Q1077 262 1031 281T947 340T875 442T805 592Q782 590 760 590T715 590Q702 590 690 590T666 592V360Q666 345 669 342T684 338H778V274H465V328L535 338Q543 339 548 341T555 347T558 361T559 385V946Q559 954 556 956T545 958H457V1020H555Q615 1020 665 1021T776 1022Q828 1022 878 1015T967 986T1029 924T1053 817Q1053 742 1015 693T905 618Q945 533 974 477T1032 387T1093 338T1169 319Q1168 310 1167 302Q1166 295 1165 288T1163 276ZM772 961Q746 961 722 960T666 958V655Q684 653 702 652T739 651Q786 651 824 657T888 681T929 730T944 811Q944 853 933 882T900 928T846 953T772 961ZM111 647Q111 740 135 826T203 987T308 1123T444 1229T605 1297T784 1321Q924 1321 1046 1268T1260 1124T1405 910T1458 647Q1458 507 1405 385T1261 171T1047 26T784 -27Q691 -27 605 -3T444 65T308 170T203 306T135 467T111 647ZM203 647Q203 527 249 421T374 236T558 112T784 66Q906 66 1012 110T1197 233T1321 418T1366 647Q1366 768 1320 874T1195 1059T1010 1183T784 1229Q664 1229 559 1184T374 1059T249 874T203 647Z"  />
<glyph unicode="&#xAF;" horiz-adv-x="1024" d="M248 1206H776V1100H248V1206Z"  />
<glyph unicode="&#xB0;" horiz-adv-x="1100" d="M860 1008Q860 945 836 889T769 791T670 725T549 700Q485 700 429 724T331 791T265 889T240 1008Q240 1074 264 1131T330 1230T430 1297T553 1321Q617 1321 673 1297T770 1229T836 1129T860 1008ZM754 1008Q754 1051 738 1089T695 1156T629 1200T547 1217Q505 1217 469 1201T405 1156T362 1089T346 1008Q346 966 362 929T406 863T470 819T549 803Q591 803 628 819T694 863T738 928T754 1008Z"  />
<glyph unicode="&#xB1;" horiz-adv-x="1081" d="M121 131H958V23H121V131ZM485 229V596H121V705H485V1069H594V705H958V596H594V229H485Z"  />
<glyph unicode="&#xB2;" horiz-adv-x="733" d="M88 844V903Q144 956 184 994T254 1059T304 1108T344 1147Q377 1180 405 1212T453 1277T484 1344T496 1415Q496 1489 461 1528T346 1567Q315 1567 280 1559T219 1534Q213 1529 209 1521T205 1501Q205 1494 205 1485T204 1466Q203 1455 203 1444L123 1436L115 1511Q115 1521 122 1531T141 1550Q189 1591 252 1616T381 1642Q487 1642 549 1591T612 1436Q612 1359 576 1287T451 1139L215 938Q291 938 341 938T426 939T482 939T526 940Q545 940 552 945T567 967L594 1026L664 1014L614 844H88Z"  />
<glyph unicode="&#xB3;" horiz-adv-x="733" d="M326 829Q294 829 262 831T199 842T144 867T100 911Q91 925 88 934T84 961Q84 970 88 975T102 985L137 1001Q139 1003 144 1004T154 1006Q157 1006 163 1002T176 989Q178 984 179 981T186 969Q214 925 253 911T338 897Q382 897 416 910T475 948T511 1007T524 1083Q524 1153 489 1195T373 1237Q341 1237 314 1229T252 1210L238 1206Q225 1206 225 1217L221 1245Q219 1254 219 1257T219 1264Q219 1269 232 1273T266 1284Q322 1302 361 1318T424 1354T458 1399T469 1460Q469 1514 439 1542T346 1571Q320 1571 286 1563T225 1542Q220 1540 218 1535T213 1516L209 1450L129 1446L121 1536Q124 1558 143 1569Q197 1601 253 1621T373 1642Q416 1642 454 1633T520 1605T565 1554T582 1479Q582 1447 572 1422T544 1376T502 1338T449 1305Q533 1292 585 1241T637 1102Q637 1044 611 994T541 908T441 850T326 829Z"  />
<glyph unicode="&#xB4;" horiz-adv-x="1024" d="M614 1331H635L752 1294V1272L432 985L379 997L614 1331Z"  />
<glyph unicode="&#xB5;" horiz-adv-x="1124" d="M1079 57L842 -8H774Q774 -4 775 11Q776 24 776 49T778 119Q749 98 710 73T628 27T540 -8T451 -23Q407 -23 368 -10T287 45Q293 17 298 -25T308 -111T316 -191T319 -244V-530H188V696Q188 728 185 745T158 762H147L61 750L55 815L276 879H332Q330 834 327 785T322 687T317 590T315 500V285Q315 244 322 207T346 142T394 97T473 80Q515 80 550 85T621 104T694 137T778 186L786 721Q786 749 780 762T754 776H750L637 770V836L868 879H924L913 408V156Q913 128 918 115T938 102H948L1079 121V57Z"  />
<glyph unicode="&#xB6;" horiz-adv-x="1407" d="M1364 1194Q1363 1176 1348 1163T1308 1140T1253 1126T1192 1119T1135 1115T1090 1114H1063V432Q1063 297 1063 195T1060 18T1055 -112T1047 -205T1035 -272T1018 -326Q1004 -361 979 -391T923 -443T857 -479T786 -492Q774 -492 768 -481T757 -455T751 -421T745 -389L760 -365Q833 -365 876 -334T942 -244T972 -98T979 98Q928 93 874 91T768 88Q673 88 584 99T418 136T276 204T166 308T95 452T70 643Q70 793 117 896T248 1063T444 1155T688 1184H979V1405H1063V1184H1079Q1111 1184 1142 1186T1199 1197T1245 1227T1276 1286H1323Q1326 1281 1333 1268T1346 1239T1358 1211T1364 1194ZM979 1114H817Q772 1114 747 1108T711 1084T698 1036T696 958V332Q696 274 702 241T726 190T777 167T864 162Q890 162 918 163T979 166V1114Z"  />
<glyph unicode="&#xB7;" horiz-adv-x="512" d="M369 655Q369 632 360 612T336 576T300 552T256 543Q233 543 213 552T177 576T152 611T143 653Q143 677 152 698T177 734T213 759T258 768Q280 768 300 759T335 734T360 698T369 655Z"  />
<glyph unicode="&#xB8;" horiz-adv-x="1024" d="M641 -279Q641 -308 627 -339T588 -395Q557 -429 516 -450T432 -471Q411 -471 391 -466T353 -451T325 -431T313 -408Q313 -400 319 -391L354 -350H381Q403 -376 420 -385T463 -395Q498 -395 521 -375T545 -326Q545 -306 528 -287T463 -242L424 -219V-176L547 0H606L524 -145L551 -164Q577 -182 594 -196T622 -224T637 -250T641 -279Z"  />
<glyph unicode="&#xB9;" horiz-adv-x="733" d="M616 844H172V899L293 909Q322 912 329 923T336 958V1462Q336 1481 333 1494T319 1507Q307 1507 288 1499T252 1483L195 1456H168V1509L399 1632H451V936Q451 920 453 915T471 909H616V844Z"  />
<glyph unicode="&#xBA;" horiz-adv-x="748" d="M356 772Q294 772 243 792T155 847T98 932T78 1038Q78 1099 102 1150T167 1240T265 1299T387 1321Q450 1321 502 1302T590 1247T647 1164T668 1059Q668 997 645 945T580 854T481 794T356 772ZM369 1266Q324 1266 290 1249T231 1204T195 1141T182 1069Q182 1027 192 984T225 906T286 849T379 827Q426 827 460 844T518 890T552 958T563 1038Q563 1078 552 1118T518 1192T458 1245T369 1266Z"  />
<glyph unicode="&#xBB;" horiz-adv-x="965" d="M481 66L434 96L666 440L434 780L481 809L852 440L481 66ZM139 66L92 96L324 440L92 780L139 809L510 440L139 66Z"  />
<glyph unicode="&#xBC;" horiz-adv-x="1671" d="M616 516H172V571L293 582Q322 585 329 595T336 631V1135Q336 1153 333 1166T319 1180Q307 1180 288 1172T252 1155L195 1128H168V1182L399 1305H451V608Q451 593 453 588T471 582H616V516ZM1262 1300H1362L471 -20H371L1262 1300ZM1485 219V0H1378V219H969V276L1395 782H1485V295H1651V219H1485ZM1378 666L1067 295H1378V666Z"  />
<glyph unicode="&#xBD;" horiz-adv-x="1733" d="M616 516H172V571L293 582Q322 585 329 595T336 631V1135Q336 1153 333 1166T319 1180Q307 1180 288 1172T252 1155L195 1128H168V1182L399 1305H451V608Q451 593 453 588T471 582H616V516ZM1262 1300H1362L471 -20H371L1262 1300ZM1087 0V59Q1143 112 1183 150T1253 216T1303 264T1343 303Q1376 336 1404 368T1452 433T1484 500T1495 571Q1495 646 1460 684T1346 723Q1315 723 1279 715T1219 690Q1204 680 1204 657Q1204 650 1204 641T1203 622Q1202 611 1202 600L1122 592L1114 668Q1114 677 1122 688T1141 707Q1189 747 1252 773T1380 799Q1433 799 1476 786T1549 748T1595 683T1612 592Q1612 515 1576 443T1450 295L1214 94Q1290 94 1340 94T1425 95T1482 95T1526 96Q1544 96 1551 101T1567 123L1593 182L1663 170L1614 0H1087Z"  />
<glyph unicode="&#xBE;" horiz-adv-x="1671" d="M326 502Q294 502 262 504T199 515T144 540T100 584Q91 598 88 607T84 633Q84 642 88 647T102 657L137 674Q141 678 154 678Q157 678 163 675T176 662Q178 657 179 653T186 641Q214 598 253 584T338 569Q382 569 416 582T475 621T511 680T524 756Q524 825 489 867T373 909Q341 909 314 902T252 883L238 879Q225 879 225 889L221 918Q219 927 219 930T219 936Q219 941 232 945T266 956Q322 974 361 990T424 1027T458 1072T469 1133Q469 1187 439 1215T346 1243Q320 1243 286 1235T225 1214Q220 1212 218 1207T213 1188L209 1122L129 1118L121 1208Q123 1221 127 1228T143 1241Q197 1273 253 1294T373 1315Q416 1315 454 1306T520 1278T565 1227T582 1151Q582 1119 572 1094T544 1048T502 1010T449 977Q533 965 585 914T637 774Q637 717 611 667T541 581T441 523T326 502ZM1262 1300H1362L471 -20H371L1262 1300ZM1485 219V0H1378V219H969V276L1395 782H1485V295H1651V219H1485ZM1378 666L1067 295H1378V666Z"  />
<glyph unicode="&#xBF;" horiz-adv-x="780" d="M53 -45Q53 3 64 42T102 115Q133 153 188 190T328 270Q360 286 382 298T422 322Q441 335 452 349T470 380T478 420T481 477Q481 497 481 521T483 575L539 580L545 528Q554 460 560 413T567 340Q567 329 566 319T563 301Q557 266 530 240Q506 217 466 196T365 141Q334 124 308 108T262 78Q233 58 215 40T186 3T171 -36T166 -78Q166 -129 178 -172T219 -250Q253 -292 308 -316T440 -340Q462 -340 488 -338T537 -330Q543 -328 549 -325T555 -313L559 -264L655 -260L670 -408L655 -426Q639 -434 617 -440T568 -450T515 -456T461 -459Q416 -459 371 -446T285 -411T207 -357T141 -287Q101 -234 77 -172T53 -45ZM414 848Q414 854 418 859T430 864H580Q586 864 591 859T596 848V713Q596 707 591 702T580 696H430Q422 696 418 701T414 713V848Z"  />
<glyph unicode="&#xC0;" horiz-adv-x="1323" d="M1329 0H893V61L997 78Q1016 81 1025 89T1034 115Q1034 126 1030 141T1020 176Q996 245 976 304Q967 329 959 354T943 402T929 442T920 469H393Q355 370 330 310T289 214T268 157T262 115Q262 78 313 78H444V0H6V61L82 78Q111 84 129 114T168 190L647 1298H772Q797 1226 830 1132T899 934T975 719T1052 505T1124 306T1186 139Q1198 104 1211 91T1257 78H1329V0ZM893 541L676 1169L422 541H893ZM840 1427L785 1415L467 1702V1724L607 1761L840 1427Z"  />
<glyph unicode="&#xC1;" horiz-adv-x="1323" d="M1329 0H893V61L997 78Q1016 81 1025 89T1034 115Q1034 126 1030 141T1020 176Q996 245 976 304Q967 329 959 354T943 402T929 442T920 469H393Q355 370 330 310T289 214T268 157T262 115Q262 78 313 78H444V0H6V61L82 78Q111 84 129 114T168 190L647 1298H772Q797 1226 830 1132T899 934T975 719T1052 505T1124 306T1186 139Q1198 104 1211 91T1257 78H1329V0ZM893 541L676 1169L422 541H893ZM821 1761H842L959 1724V1702L639 1415L586 1427L821 1761Z"  />
<glyph unicode="&#xC2;" horiz-adv-x="1323" d="M1329 0H893V61L997 78Q1016 81 1025 89T1034 115Q1034 126 1030 141T1020 176Q996 245 976 304Q967 329 959 354T943 402T929 442T920 469H393Q355 370 330 310T289 214T268 157T262 115Q262 78 313 78H444V0H6V61L82 78Q111 84 129 114T168 190L647 1298H772Q797 1226 830 1132T899 934T975 719T1052 505T1124 306T1186 139Q1198 104 1211 91T1257 78H1329V0ZM893 541L676 1169L422 541H893ZM918 1411L709 1622L502 1411L461 1444L676 1763H744L959 1444L918 1411Z"  />
<glyph unicode="&#xC3;" horiz-adv-x="1323" d="M1329 0H893V61L997 78Q1016 81 1025 89T1034 115Q1034 126 1030 141T1020 176Q996 245 976 304Q967 329 959 354T943 402T929 442T920 469H393Q355 370 330 310T289 214T268 157T262 115Q262 78 313 78H444V0H6V61L82 78Q111 84 129 114T168 190L647 1298H772Q797 1226 830 1132T899 934T975 719T1052 505T1124 306T1186 139Q1198 104 1211 91T1257 78H1329V0ZM893 541L676 1169L422 541H893ZM1024 1683Q970 1581 920 1534T813 1487Q798 1487 783 1490T751 1500T714 1518T669 1548Q645 1564 630 1573T603 1588T583 1595T561 1597Q543 1597 528 1592T496 1573T461 1536T417 1477L372 1507Q429 1616 477 1663T579 1710Q593 1710 603 1709T627 1701T661 1683T716 1649Q798 1599 831 1599Q909 1599 979 1718L1024 1683Z"  />
<glyph unicode="&#xC4;" horiz-adv-x="1323" d="M1329 0H893V61L997 78Q1016 81 1025 89T1034 115Q1034 126 1030 141T1020 176Q996 245 976 304Q967 329 959 354T943 402T929 442T920 469H393Q355 370 330 310T289 214T268 157T262 115Q262 78 313 78H444V0H6V61L82 78Q111 84 129 114T168 190L647 1298H772Q797 1226 830 1132T899 934T975 719T1052 505T1124 306T1186 139Q1198 104 1211 91T1257 78H1329V0ZM893 541L676 1169L422 541H893ZM564 1649Q578 1649 586 1640T594 1618V1522Q594 1508 586 1500T564 1491H478Q465 1491 456 1499T447 1522V1618Q447 1630 456 1639T478 1649H564ZM930 1649Q944 1649 952 1640T961 1618V1522Q961 1491 930 1491H844Q832 1491 823 1499T813 1522V1618Q813 1630 822 1639T844 1649H930Z"  />
<glyph unicode="&#xC5;" horiz-adv-x="1323" d="M1329 0H893V61L997 78Q1016 81 1025 89T1034 115Q1034 126 1030 141T1020 176Q996 245 976 304Q967 329 959 354T943 402T929 442T920 469H393Q355 370 330 310T289 214T268 157T262 115Q262 78 313 78H444V0H6V61L82 78Q111 84 129 114T168 190L647 1298H772Q797 1226 830 1132T899 934T975 719T1052 505T1124 306T1186 139Q1198 104 1211 91T1257 78H1329V0ZM893 541L676 1169L422 541H893ZM700 1411Q658 1411 622 1425T558 1465T516 1525T501 1599Q501 1639 516 1674T559 1734T624 1775T706 1790Q748 1790 784 1775T847 1734T889 1673T905 1599Q905 1559 890 1525T847 1466T782 1426T700 1411ZM704 1722Q678 1722 657 1713T620 1687T596 1648T587 1599Q587 1572 595 1549T620 1508T657 1482T704 1472Q757 1472 788 1506T819 1595Q819 1649 788 1685T704 1722Z"  />
<glyph unicode="&#xC6;" horiz-adv-x="1911" d="M786 0V61L905 78Q923 80 933 96T949 130Q955 151 956 178L954 522H467Q443 487 415 444T357 357T300 271T251 193T216 135T203 104Q203 86 229 83T307 80H395V0H-47V63Q-31 65 -15 68Q-1 70 13 73T39 80Q57 85 75 112T119 174Q163 238 219 321T339 495T469 682T598 869T718 1041T819 1186Q825 1197 827 1202T829 1212Q829 1219 822 1221T809 1223H725V1298H1794L1763 1034H1683L1673 1163Q1670 1191 1657 1205T1614 1219Q1490 1222 1366 1223T1108 1225V725Q1217 725 1317 726T1516 731Q1533 732 1543 736T1559 748T1568 768T1573 795L1585 883H1661V502H1585L1573 590Q1568 618 1555 628T1516 641Q1413 644 1312 644T1108 647V109Q1108 90 1118 84T1145 78Q1247 78 1347 79T1550 86Q1578 87 1598 90T1634 101T1661 126T1683 168L1741 313L1815 291L1753 0H786ZM954 1223H944L514 594H954V1223Z"  />
<glyph unicode="&#xC7;" horiz-adv-x="1360" d="M887 -279Q887 -308 873 -339T834 -395Q803 -429 762 -450T678 -471Q657 -471 637 -466T599 -451T571 -431T559 -408Q559 -400 565 -391L600 -350H627Q648 -376 666 -385T709 -395Q744 -395 767 -375T791 -326Q791 -306 774 -287T709 -242L670 -219V-176L776 -23Q633 -16 513 30T305 158T168 357T119 623Q119 741 147 838T228 1013T351 1148T510 1244T695 1302T899 1321Q915 1321 949 1320T1026 1317T1113 1310T1194 1300T1254 1286T1278 1268V1255Q1268 1171 1263 1124T1255 1055Q1251 1029 1251 1022H1169L1157 1128Q1155 1146 1153 1157T1147 1175T1137 1187T1120 1196Q1104 1203 1077 1209T1014 1221T935 1229T842 1233Q714 1233 610 1198T432 1091T317 907T276 645Q276 508 315 399T427 215T607 99T848 59Q921 59 973 64T1060 80T1117 105T1151 139Q1166 164 1176 180T1192 207Q1199 218 1202 225L1272 201L1231 53Q1228 42 1223 34T1204 20Q1116 -1 1023 -12T838 -25L770 -145L797 -164Q823 -182 840 -196T867 -224T882 -250T887 -279Z"  />
<glyph unicode="&#xC8;" horiz-adv-x="1237" d="M1141 291L1079 0H113V61Q131 64 150 67T187 73Q206 76 225 78Q241 80 251 85T266 102T274 132T276 178V1188Q276 1210 269 1217T238 1225H96V1298H1120L1090 1034H1008L997 1161Q994 1190 982 1201T940 1212L428 1221V725L842 731Q873 731 885 748T901 791Q903 810 905 828Q907 843 908 858T911 883H989V502H911L899 590Q894 619 884 630T842 641L428 647V117Q428 106 431 95T446 84Q556 84 663 86T879 90Q911 91 931 94T966 107T989 133T1010 176L1067 313L1141 291ZM797 1427L742 1415L424 1702V1724L564 1761L797 1427Z"  />
<glyph unicode="&#xC9;" horiz-adv-x="1237" d="M1141 291L1079 0H113V61Q131 64 150 67T187 73Q206 76 225 78Q241 80 251 85T266 102T274 132T276 178V1188Q276 1210 269 1217T238 1225H96V1298H1120L1090 1034H1008L997 1161Q994 1190 982 1201T940 1212L428 1221V725L842 731Q873 731 885 748T901 791Q903 810 905 828Q907 843 908 858T911 883H989V502H911L899 590Q894 619 884 630T842 641L428 647V117Q428 106 431 95T446 84Q556 84 663 86T879 90Q911 91 931 94T966 107T989 133T1010 176L1067 313L1141 291ZM751 1761H772L889 1724V1702L569 1415L516 1427L751 1761Z"  />
<glyph unicode="&#xCA;" horiz-adv-x="1237" d="M1141 291L1079 0H113V61Q131 64 150 67T187 73Q206 76 225 78Q241 80 251 85T266 102T274 132T276 178V1188Q276 1210 269 1217T238 1225H96V1298H1120L1090 1034H1008L997 1161Q994 1190 982 1201T940 1212L428 1221V725L842 731Q873 731 885 748T901 791Q903 810 905 828Q907 843 908 858T911 883H989V502H911L899 590Q894 619 884 630T842 641L428 647V117Q428 106 431 95T446 84Q556 84 663 86T879 90Q911 91 931 94T966 107T989 133T1010 176L1067 313L1141 291ZM842 1411L633 1622L426 1411L385 1444L600 1763H668L883 1444L842 1411Z"  />
<glyph unicode="&#xCB;" horiz-adv-x="1237" d="M1141 291L1079 0H113V61Q131 64 150 67T187 73Q206 76 225 78Q241 80 251 85T266 102T274 132T276 178V1188Q276 1210 269 1217T238 1225H96V1298H1120L1090 1034H1008L997 1161Q994 1190 982 1201T940 1212L428 1221V725L842 731Q873 731 885 748T901 791Q903 810 905 828Q907 843 908 858T911 883H989V502H911L899 590Q894 619 884 630T842 641L428 647V117Q428 106 431 95T446 84Q556 84 663 86T879 90Q911 91 931 94T966 107T989 133T1010 176L1067 313L1141 291ZM480 1649Q494 1649 502 1640T510 1618V1522Q510 1508 502 1500T480 1491H394Q381 1491 372 1499T363 1522V1618Q363 1630 372 1639T394 1649H480ZM846 1649Q860 1649 868 1640T877 1618V1522Q877 1491 846 1491H760Q748 1491 739 1499T729 1522V1618Q729 1630 738 1639T760 1649H846Z"  />
<glyph unicode="&#xCC;" horiz-adv-x="700" d="M629 0H96V61L215 78Q233 80 244 85T262 102T270 132T272 178V1198Q272 1225 248 1225H78V1298H586V1241L483 1225Q466 1222 455 1218T438 1205T429 1180T426 1135V111Q426 95 432 87T455 78H629V0ZM514 1427L459 1415L141 1702V1724L281 1761L514 1427Z"  />
<glyph unicode="&#xCD;" horiz-adv-x="700" d="M629 0H96V61L215 78Q233 80 244 85T262 102T270 132T272 178V1198Q272 1225 248 1225H78V1298H586V1241L483 1225Q466 1222 455 1218T438 1205T429 1180T426 1135V111Q426 95 432 87T455 78H629V0ZM448 1761H469L586 1724V1702L266 1415L213 1427L448 1761Z"  />
<glyph unicode="&#xCE;" horiz-adv-x="700" d="M629 0H96V61L215 78Q233 80 244 85T262 102T270 132T272 178V1198Q272 1225 248 1225H78V1298H586V1241L483 1225Q466 1222 455 1218T438 1205T429 1180T426 1135V111Q426 95 432 87T455 78H629V0ZM559 1411L350 1622L143 1411L102 1444L317 1763H385L600 1444L559 1411Z"  />
<glyph unicode="&#xCF;" horiz-adv-x="700" d="M629 0H96V61L215 78Q233 80 244 85T262 102T270 132T272 178V1198Q272 1225 248 1225H78V1298H586V1241L483 1225Q466 1222 455 1218T438 1205T429 1180T426 1135V111Q426 95 432 87T455 78H629V0ZM213 1649Q227 1649 235 1640T243 1618V1522Q243 1508 235 1500T213 1491H127Q114 1491 105 1499T96 1522V1618Q96 1630 105 1639T127 1649H213ZM579 1649Q593 1649 601 1640T610 1618V1522Q610 1491 579 1491H493Q481 1491 472 1499T462 1522V1618Q462 1630 471 1639T493 1649H579Z"  />
<glyph unicode="&#xD0;" horiz-adv-x="1548" d="M1436 670Q1436 589 1417 514T1364 373T1281 249T1174 145Q1109 95 1034 66T879 21T717 1T557 -4Q529 -4 495 -4T424 -4T349 -3T276 -2Q193 -1 106 0V61L207 78Q227 81 239 86T258 102T267 131T270 178V618H55V707H270V1202Q270 1215 264 1220T246 1225H96V1298H430Q498 1298 565 1301T698 1305Q861 1305 997 1274T1230 1168T1382 972T1436 670ZM1280 662Q1280 787 1256 877T1188 1030T1080 1131T936 1191T762 1220T561 1227Q527 1227 492 1227T422 1225V707H776V618H422V123Q422 100 428 89T459 78Q501 78 544 76T629 74Q689 74 755 82T887 108T1011 155T1114 229Q1156 271 1187 322T1238 429T1269 544T1280 662Z"  />
<glyph unicode="&#xD1;" horiz-adv-x="1538" d="M1501 1241L1395 1225Q1373 1222 1360 1216T1340 1199T1331 1172T1327 1135Q1325 1064 1324 972T1320 777T1315 567T1311 357T1308 162T1305 -2L1245 -10L350 1128Q350 884 351 641T358 143Q358 128 359 116T365 95T380 83T410 78H567V0H92V61L182 78Q204 82 216 91T234 113T241 142T244 178Q248 278 251 381T256 603T260 858T264 1165Q264 1202 245 1213T182 1225H90V1298H393L1225 229Q1225 456 1225 687T1221 1149Q1220 1172 1218 1186T1210 1209T1194 1221T1169 1225H1026V1298H1501V1241ZM1125 1683Q1071 1581 1021 1534T914 1487Q899 1487 884 1490T852 1500T815 1518T770 1548Q746 1564 731 1573T704 1588T684 1595T662 1597Q644 1597 629 1592T597 1573T562 1536T518 1477L473 1507Q530 1616 578 1663T680 1710Q694 1710 704 1709T728 1701T762 1683T817 1649Q899 1599 932 1599Q1010 1599 1080 1718L1125 1683Z"  />
<glyph unicode="&#xD2;" horiz-adv-x="1610" d="M1487 666Q1487 513 1435 386T1290 168T1070 26T791 -25Q645 -25 523 24T312 162T173 372T123 639Q123 793 176 919T324 1135T548 1274T827 1323Q917 1323 1000 1302T1157 1240T1291 1141T1395 1010T1463 851T1487 666ZM1327 629Q1327 752 1291 863T1187 1059T1020 1194T799 1245Q678 1245 582 1199T419 1074T317 893T281 676Q281 538 321 423T432 226T602 99T817 53Q937 53 1031 100T1192 228T1292 412T1327 629ZM981 1427L926 1415L608 1702V1724L748 1761L981 1427Z"  />
<glyph unicode="&#xD3;" horiz-adv-x="1610" d="M1487 666Q1487 513 1435 386T1290 168T1070 26T791 -25Q645 -25 523 24T312 162T173 372T123 639Q123 793 176 919T324 1135T548 1274T827 1323Q917 1323 1000 1302T1157 1240T1291 1141T1395 1010T1463 851T1487 666ZM1327 629Q1327 752 1291 863T1187 1059T1020 1194T799 1245Q678 1245 582 1199T419 1074T317 893T281 676Q281 538 321 423T432 226T602 99T817 53Q937 53 1031 100T1192 228T1292 412T1327 629ZM903 1761H924L1041 1724V1702L721 1415L668 1427L903 1761Z"  />
<glyph unicode="&#xD4;" horiz-adv-x="1610" d="M1487 666Q1487 513 1435 386T1290 168T1070 26T791 -25Q645 -25 523 24T312 162T173 372T123 639Q123 793 176 919T324 1135T548 1274T827 1323Q917 1323 1000 1302T1157 1240T1291 1141T1395 1010T1463 851T1487 666ZM1327 629Q1327 752 1291 863T1187 1059T1020 1194T799 1245Q678 1245 582 1199T419 1074T317 893T281 676Q281 538 321 423T432 226T602 99T817 53Q937 53 1031 100T1192 228T1292 412T1327 629ZM1008 1411L799 1622L592 1411L551 1444L766 1763H834L1049 1444L1008 1411Z"  />
<glyph unicode="&#xD5;" horiz-adv-x="1610" d="M1487 666Q1487 513 1435 386T1290 168T1070 26T791 -25Q645 -25 523 24T312 162T173 372T123 639Q123 793 176 919T324 1135T548 1274T827 1323Q917 1323 1000 1302T1157 1240T1291 1141T1395 1010T1463 851T1487 666ZM1327 629Q1327 752 1291 863T1187 1059T1020 1194T799 1245Q678 1245 582 1199T419 1074T317 893T281 676Q281 538 321 423T432 226T602 99T817 53Q937 53 1031 100T1192 228T1292 412T1327 629ZM1133 1683Q1079 1581 1029 1534T922 1487Q907 1487 892 1490T860 1500T823 1518T778 1548Q754 1564 739 1573T712 1588T692 1595T670 1597Q652 1597 637 1592T605 1573T570 1536T526 1477L481 1507Q538 1616 586 1663T688 1710Q702 1710 712 1709T736 1701T770 1683T825 1649Q907 1599 940 1599Q1018 1599 1088 1718L1133 1683Z"  />
<glyph unicode="&#xD6;" horiz-adv-x="1610" d="M1487 666Q1487 513 1435 386T1290 168T1070 26T791 -25Q645 -25 523 24T312 162T173 372T123 639Q123 793 176 919T324 1135T548 1274T827 1323Q917 1323 1000 1302T1157 1240T1291 1141T1395 1010T1463 851T1487 666ZM1327 629Q1327 752 1291 863T1187 1059T1020 1194T799 1245Q678 1245 582 1199T419 1074T317 893T281 676Q281 538 321 423T432 226T602 99T817 53Q937 53 1031 100T1192 228T1292 412T1327 629ZM680 1649Q694 1649 702 1640T710 1618V1522Q710 1508 702 1500T680 1491H594Q581 1491 572 1499T563 1522V1618Q563 1630 572 1639T594 1649H680ZM1046 1649Q1060 1649 1068 1640T1077 1618V1522Q1077 1491 1046 1491H960Q948 1491 939 1499T929 1522V1618Q929 1630 938 1639T960 1649H1046Z"  />
<glyph unicode="&#xD7;" horiz-adv-x="1081" d="M645 651L938 360L862 285L571 575L281 285L207 358L498 649L203 942L279 1018L573 725L868 1020L942 946L645 651Z"  />
<glyph unicode="&#xD8;" horiz-adv-x="1610" d="M1108 1130Q1051 1178 972 1208T799 1239Q700 1239 616 1207T465 1114Q424 1077 390 1029T332 925T295 806T281 676Q281 530 328 411T457 207L1108 1130ZM510 162Q643 59 821 59Q921 59 1009 98T1165 207Q1241 285 1284 393T1327 629Q1327 696 1316 760T1284 882T1231 992T1161 1083L510 162ZM1303 1399H1391L1239 1184Q1295 1139 1341 1083T1419 961T1469 821T1487 666Q1487 573 1464 485T1399 319T1296 177T1161 70Q1123 48 1079 31T986 1T889 -18T791 -25Q694 -25 605 -1T440 68L317 -104H229L381 109Q322 152 274 209T193 333T141 478T123 639Q123 725 145 809T206 968T302 1107T428 1214Q521 1273 618 1298T834 1323Q930 1323 1017 1298T1180 1227L1303 1399Z"  />
<glyph unicode="&#xD9;" horiz-adv-x="1475" d="M1407 1241Q1351 1230 1320 1223T1273 1205T1255 1179T1251 1133V649Q1251 524 1243 437T1219 288T1177 185T1116 111Q1075 72 1025 46T919 5T806 -18T694 -25Q634 -25 573 -17T455 12T353 70T276 166Q242 229 235 299T227 442V1171Q227 1199 219 1212T180 1225H57V1298H549V1241Q487 1230 454 1223T405 1205T386 1179T383 1133V535Q383 462 386 400T400 287T435 198T499 133T598 94T743 80Q798 80 852 90T955 123T1042 181T1102 266Q1109 284 1116 317T1129 404T1137 534T1141 715V870Q1141 937 1141 977T1140 1047T1139 1103T1137 1167Q1136 1182 1135 1193T1130 1211T1116 1221T1090 1225H963V1298H1407V1241ZM895 1427L840 1415L522 1702V1724L662 1761L895 1427Z"  />
<glyph unicode="&#xDA;" horiz-adv-x="1475" d="M1407 1241Q1351 1230 1320 1223T1273 1205T1255 1179T1251 1133V649Q1251 524 1243 437T1219 288T1177 185T1116 111Q1075 72 1025 46T919 5T806 -18T694 -25Q634 -25 573 -17T455 12T353 70T276 166Q242 229 235 299T227 442V1171Q227 1199 219 1212T180 1225H57V1298H549V1241Q487 1230 454 1223T405 1205T386 1179T383 1133V535Q383 462 386 400T400 287T435 198T499 133T598 94T743 80Q798 80 852 90T955 123T1042 181T1102 266Q1109 284 1116 317T1129 404T1137 534T1141 715V870Q1141 937 1141 977T1140 1047T1139 1103T1137 1167Q1136 1182 1135 1193T1130 1211T1116 1221T1090 1225H963V1298H1407V1241ZM886 1761H907L1024 1724V1702L704 1415L651 1427L886 1761Z"  />
<glyph unicode="&#xDB;" horiz-adv-x="1475" d="M1407 1241Q1351 1230 1320 1223T1273 1205T1255 1179T1251 1133V649Q1251 524 1243 437T1219 288T1177 185T1116 111Q1075 72 1025 46T919 5T806 -18T694 -25Q634 -25 573 -17T455 12T353 70T276 166Q242 229 235 299T227 442V1171Q227 1199 219 1212T180 1225H57V1298H549V1241Q487 1230 454 1223T405 1205T386 1179T383 1133V535Q383 462 386 400T400 287T435 198T499 133T598 94T743 80Q798 80 852 90T955 123T1042 181T1102 266Q1109 284 1116 317T1129 404T1137 534T1141 715V870Q1141 937 1141 977T1140 1047T1139 1103T1137 1167Q1136 1182 1135 1193T1130 1211T1116 1221T1090 1225H963V1298H1407V1241ZM987 1411L778 1622L571 1411L530 1444L745 1763H813L1028 1444L987 1411Z"  />
<glyph unicode="&#xDC;" horiz-adv-x="1475" d="M1407 1241Q1351 1230 1320 1223T1273 1205T1255 1179T1251 1133V649Q1251 524 1243 437T1219 288T1177 185T1116 111Q1075 72 1025 46T919 5T806 -18T694 -25Q634 -25 573 -17T455 12T353 70T276 166Q242 229 235 299T227 442V1171Q227 1199 219 1212T180 1225H57V1298H549V1241Q487 1230 454 1223T405 1205T386 1179T383 1133V535Q383 462 386 400T400 287T435 198T499 133T598 94T743 80Q798 80 852 90T955 123T1042 181T1102 266Q1109 284 1116 317T1129 404T1137 534T1141 715V870Q1141 937 1141 977T1140 1047T1139 1103T1137 1167Q1136 1182 1135 1193T1130 1211T1116 1221T1090 1225H963V1298H1407V1241ZM627 1649Q641 1649 649 1640T657 1618V1522Q657 1508 649 1500T627 1491H541Q528 1491 519 1499T510 1522V1618Q510 1630 519 1639T541 1649H627ZM993 1649Q1007 1649 1015 1640T1024 1618V1522Q1024 1491 993 1491H907Q895 1491 886 1499T876 1522V1618Q876 1630 885 1639T907 1649H993Z"  />
<glyph unicode="&#xDD;" horiz-adv-x="1169" d="M1178 1241Q1162 1238 1146 1235T1114 1227Q1092 1222 1082 1212T1059 1184L655 578V113Q655 97 662 88T686 78H870V0H322V61L455 78Q486 81 497 104T508 178V559Q409 721 315 879T119 1202Q109 1218 101 1221T76 1225H27V1298H434V1241L362 1233Q355 1232 344 1232T322 1229T302 1221T293 1204Q293 1199 294 1192T299 1180Q331 1124 371 1055T455 913T539 772T614 645Q644 692 685 758T768 894T849 1029T915 1139Q931 1163 937 1179T944 1204Q944 1217 935 1221T903 1225H793V1298H1178V1241ZM727 1761H748L865 1724V1702L545 1415L492 1427L727 1761Z"  />
<glyph unicode="&#xDE;" horiz-adv-x="1141" d="M1102 723Q1102 644 1079 582T1016 474T921 395T805 343T674 314T539 305Q514 305 486 305T426 307V111Q426 97 429 88T449 78H618V0H100V61L221 78Q236 80 246 85T263 101T271 130T274 178L276 1198Q276 1210 269 1217T250 1225H90V1298H584V1241Q527 1233 495 1231T448 1221T430 1198T426 1147V1096Q474 1096 529 1098T633 1100Q730 1100 815 1082T964 1021T1065 905T1102 723ZM426 385Q428 385 440 384T469 382T505 380T541 379Q736 379 840 461T944 717Q944 870 861 948T602 1026Q553 1026 504 1025T426 1024V385Z"  />
<glyph unicode="&#xDF;" horiz-adv-x="1126" d="M1069 223Q1069 105 993 43T748 -20Q681 -20 634 -14T545 2Q537 4 532 8T524 29L500 190L590 211L610 135Q613 126 616 118T625 102Q646 73 683 64T764 55Q812 55 845 65T899 94T929 141T938 203Q938 235 929 262T898 316T840 371T750 432Q681 474 636 504T565 562T528 620T518 694Q518 739 526 769T553 823T600 869T668 920Q700 944 729 960T781 998T816 1055T829 1151Q829 1249 774 1292T618 1335Q553 1335 509 1316T435 1264T390 1184T365 1084T356 969T354 848V102Q354 91 358 86T375 80H461V0H86V61L168 78Q185 81 194 85T208 99T214 127T215 178V766H86V834L207 862Q215 864 214 867T215 881Q215 912 215 940T219 996T227 1053T242 1114Q288 1272 396 1353T659 1434Q726 1434 781 1417T875 1366T936 1280T958 1159Q958 1110 945 1073T909 1007T852 953T780 903Q757 888 734 874T691 841T659 795T647 729Q647 694 650 673T670 632T720 589T815 530Q881 491 929 458T1008 391T1054 316T1069 223Z"  />
<glyph unicode="&#xE0;" horiz-adv-x="954" d="M975 121V74Q975 63 961 51T926 29Q905 20 879 10T828 -7T779 -20T739 -25Q691 -25 667 -1T637 72Q599 57 557 40T472 9T385 -14T301 -23Q242 -23 202 -8T137 36T101 107T90 205Q90 250 100 281T132 334T184 371T258 397Q352 423 446 440T635 473Q637 501 637 527T637 582Q637 639 630 680T600 748T540 788T440 801Q405 801 370 796T308 781T263 760T246 735V729L250 649L145 633L129 711Q127 720 126 727T125 737Q125 748 130 757T143 772Q175 797 219 818T313 854T410 878T500 887Q578 887 630 872T715 824T760 739T774 614Q774 502 770 391T766 168Q766 152 767 136T775 108T792 88T825 80Q867 80 902 94T969 125L975 121ZM635 406Q612 401 573 395T487 380T395 361T313 336Q269 319 253 296T236 223Q236 185 241 156T262 108T304 80T373 70Q441 70 505 90T633 137L635 406ZM598 997L543 985L225 1272V1294L365 1331L598 997Z"  />
<glyph unicode="&#xE1;" horiz-adv-x="954" d="M975 121V74Q975 63 961 51T926 29Q905 20 879 10T828 -7T779 -20T739 -25Q691 -25 667 -1T637 72Q599 57 557 40T472 9T385 -14T301 -23Q242 -23 202 -8T137 36T101 107T90 205Q90 250 100 281T132 334T184 371T258 397Q352 423 446 440T635 473Q637 501 637 527T637 582Q637 639 630 680T600 748T540 788T440 801Q405 801 370 796T308 781T263 760T246 735V729L250 649L145 633L129 711Q127 720 126 727T125 737Q125 748 130 757T143 772Q175 797 219 818T313 854T410 878T500 887Q578 887 630 872T715 824T760 739T774 614Q774 502 770 391T766 168Q766 152 767 136T775 108T792 88T825 80Q867 80 902 94T969 125L975 121ZM635 406Q612 401 573 395T487 380T395 361T313 336Q269 319 253 296T236 223Q236 185 241 156T262 108T304 80T373 70Q441 70 505 90T633 137L635 406ZM596 1331H617L734 1294V1272L414 985L361 997L596 1331Z"  />
<glyph unicode="&#xE2;" horiz-adv-x="954" d="M975 121V74Q975 63 961 51T926 29Q905 20 879 10T828 -7T779 -20T739 -25Q691 -25 667 -1T637 72Q599 57 557 40T472 9T385 -14T301 -23Q242 -23 202 -8T137 36T101 107T90 205Q90 250 100 281T132 334T184 371T258 397Q352 423 446 440T635 473Q637 501 637 527T637 582Q637 639 630 680T600 748T540 788T440 801Q405 801 370 796T308 781T263 760T246 735V729L250 649L145 633L129 711Q127 720 126 727T125 737Q125 748 130 757T143 772Q175 797 219 818T313 854T410 878T500 887Q578 887 630 872T715 824T760 739T774 614Q774 502 770 391T766 168Q766 152 767 136T775 108T792 88T825 80Q867 80 902 94T969 125L975 121ZM635 406Q612 401 573 395T487 380T395 361T313 336Q269 319 253 296T236 223Q236 185 241 156T262 108T304 80T373 70Q441 70 505 90T633 137L635 406ZM676 981L467 1192L260 981L219 1014L434 1333H502L717 1014L676 981Z"  />
<glyph unicode="&#xE3;" horiz-adv-x="954" d="M975 121V74Q975 63 961 51T926 29Q905 20 879 10T828 -7T779 -20T739 -25Q691 -25 667 -1T637 72Q599 57 557 40T472 9T385 -14T301 -23Q242 -23 202 -8T137 36T101 107T90 205Q90 250 100 281T132 334T184 371T258 397Q352 423 446 440T635 473Q637 501 637 527T637 582Q637 639 630 680T600 748T540 788T440 801Q405 801 370 796T308 781T263 760T246 735V729L250 649L145 633L129 711Q127 720 126 727T125 737Q125 748 130 757T143 772Q175 797 219 818T313 854T410 878T500 887Q578 887 630 872T715 824T760 739T774 614Q774 502 770 391T766 168Q766 152 767 136T775 108T792 88T825 80Q867 80 902 94T969 125L975 121ZM635 406Q612 401 573 395T487 380T395 361T313 336Q269 319 253 296T236 223Q236 185 241 156T262 108T304 80T373 70Q441 70 505 90T633 137L635 406ZM793 1253Q739 1151 689 1104T582 1057Q567 1057 552 1060T520 1070T483 1088T438 1118Q414 1134 399 1143T372 1158T352 1165T330 1167Q312 1167 297 1162T265 1143T230 1106T186 1047L141 1077Q198 1186 246 1233T348 1280Q362 1280 372 1279T396 1271T430 1253T485 1219Q567 1169 600 1169Q678 1169 748 1288L793 1253Z"  />
<glyph unicode="&#xE4;" horiz-adv-x="954" d="M975 121V74Q975 63 961 51T926 29Q905 20 879 10T828 -7T779 -20T739 -25Q691 -25 667 -1T637 72Q599 57 557 40T472 9T385 -14T301 -23Q242 -23 202 -8T137 36T101 107T90 205Q90 250 100 281T132 334T184 371T258 397Q352 423 446 440T635 473Q637 501 637 527T637 582Q637 639 630 680T600 748T540 788T440 801Q405 801 370 796T308 781T263 760T246 735V729L250 649L145 633L129 711Q127 720 126 727T125 737Q125 748 130 757T143 772Q175 797 219 818T313 854T410 878T500 887Q578 887 630 872T715 824T760 739T774 614Q774 502 770 391T766 168Q766 152 767 136T775 108T792 88T825 80Q867 80 902 94T969 125L975 121ZM635 406Q612 401 573 395T487 380T395 361T313 336Q269 319 253 296T236 223Q236 185 241 156T262 108T304 80T373 70Q441 70 505 90T633 137L635 406ZM334 1219Q348 1219 356 1210T364 1188V1092Q364 1078 356 1070T334 1061H248Q235 1061 226 1069T217 1092V1188Q217 1200 226 1209T248 1219H334ZM700 1219Q714 1219 722 1210T731 1188V1092Q731 1061 700 1061H614Q602 1061 593 1069T583 1092V1188Q583 1200 592 1209T614 1219H700Z"  />
<glyph unicode="&#xE5;" horiz-adv-x="954" d="M975 121V74Q975 63 961 51T926 29Q905 20 879 10T828 -7T779 -20T739 -25Q691 -25 667 -1T637 72Q599 57 557 40T472 9T385 -14T301 -23Q242 -23 202 -8T137 36T101 107T90 205Q90 250 100 281T132 334T184 371T258 397Q352 423 446 440T635 473Q637 501 637 527T637 582Q637 639 630 680T600 748T540 788T440 801Q405 801 370 796T308 781T263 760T246 735V729L250 649L145 633L129 711Q127 720 126 727T125 737Q125 748 130 757T143 772Q175 797 219 818T313 854T410 878T500 887Q578 887 630 872T715 824T760 739T774 614Q774 502 770 391T766 168Q766 152 767 136T775 108T792 88T825 80Q867 80 902 94T969 125L975 121ZM635 406Q612 401 573 395T487 380T395 361T313 336Q269 319 253 296T236 223Q236 185 241 156T262 108T304 80T373 70Q441 70 505 90T633 137L635 406ZM469 981Q427 981 391 995T327 1035T285 1095T270 1169Q270 1209 285 1244T328 1304T393 1345T475 1360Q517 1360 553 1345T616 1304T658 1243T674 1169Q674 1129 659 1095T616 1036T551 996T469 981ZM473 1292Q447 1292 426 1283T389 1257T365 1218T356 1169Q356 1142 364 1119T389 1078T426 1052T473 1042Q526 1042 557 1076T588 1165Q588 1219 557 1255T473 1292Z"  />
<glyph unicode="&#xE6;" horiz-adv-x="1411" d="M762 436Q764 364 778 300T823 186T908 109T1042 80Q1108 80 1171 102T1294 168L1309 178L1321 176L1331 123V115Q1331 108 1323 100Q1289 73 1250 51T1169 11T1082 -15T995 -25Q880 -25 809 12T696 119Q664 98 623 73T533 27T424 -8T297 -23Q239 -23 200 -9T136 33T101 103T90 201Q90 245 100 276T132 330T184 366T256 393Q347 419 440 436T627 469V518Q627 591 623 644T601 732T543 784T434 801Q408 801 376 797T314 784T266 762T246 729V649L139 633Q137 647 135 664T131 696T127 722T125 735Q125 757 148 775T207 813Q240 830 280 843T359 867T434 882T492 887Q592 887 652 860T735 772Q782 828 846 858T995 889Q1082 889 1141 859T1240 777T1300 655T1333 506L762 436ZM1184 561Q1178 612 1162 659T1119 742T1057 799T973 821Q905 821 864 790T799 710T768 606T760 502L1184 561ZM649 238Q641 293 637 331T629 401Q606 397 567 391T481 377T389 357T309 332Q282 321 267 309T244 282T235 253T233 219Q233 181 238 153T258 107T299 79T367 70Q388 70 417 75T478 89T541 112T597 142T637 177T653 217Q653 220 651 227T649 238Z"  />
<glyph unicode="&#xE7;" horiz-adv-x="881" d="M600 -279Q600 -308 586 -339T547 -395Q516 -429 475 -450T391 -471Q370 -471 350 -466T312 -451T284 -431T272 -408Q272 -399 279 -391L313 -350H340Q362 -376 379 -385T422 -395Q457 -395 480 -375T504 -326Q504 -306 487 -287T422 -242L383 -219V-176L492 -18Q481 -20 471 -20T451 -20Q364 -20 296 11T182 98T111 227T86 389Q86 516 135 613T287 786Q358 839 430 864T592 889Q662 889 710 879T786 852T827 816T840 778Q840 765 829 756L766 694H727Q719 719 698 737T648 766T588 783T524 788Q370 788 298 705T225 442Q225 349 247 282T308 170T402 104T520 82Q562 82 597 86T665 101T730 129T799 172H807L823 139Q831 123 831 119Q831 112 815 100Q753 52 687 27T559 -10L483 -145L510 -164Q536 -182 553 -196T581 -224T596 -250T600 -279Z"  />
<glyph unicode="&#xE8;" horiz-adv-x="905" d="M233 436Q235 353 251 286T301 172T391 100T528 74Q604 74 671 104T801 178H813L825 133Q825 130 826 128T827 123Q827 117 824 113T815 104Q783 77 743 54T660 13T571 -15T481 -25Q370 -25 296 10T176 106T112 252T92 436Q92 521 117 602T191 747T313 848T481 887Q571 887 633 857T735 774T796 652T825 504L233 436ZM676 561Q671 604 657 649T616 732T550 793T457 817Q391 817 348 787T278 710T242 608T231 502L676 561ZM608 997L553 985L235 1272V1294L375 1331L608 997Z"  />
<glyph unicode="&#xE9;" horiz-adv-x="905" d="M233 436Q235 353 251 286T301 172T391 100T528 74Q604 74 671 104T801 178H813L825 133Q825 130 826 128T827 123Q827 117 824 113T815 104Q783 77 743 54T660 13T571 -15T481 -25Q370 -25 296 10T176 106T112 252T92 436Q92 521 117 602T191 747T313 848T481 887Q571 887 633 857T735 774T796 652T825 504L233 436ZM676 561Q671 604 657 649T616 732T550 793T457 817Q391 817 348 787T278 710T242 608T231 502L676 561ZM604 1331H625L742 1294V1272L422 985L369 997L604 1331Z"  />
<glyph unicode="&#xEA;" horiz-adv-x="905" d="M233 436Q235 353 251 286T301 172T391 100T528 74Q604 74 671 104T801 178H813L825 133Q825 130 826 128T827 123Q827 117 824 113T815 104Q783 77 743 54T660 13T571 -15T481 -25Q370 -25 296 10T176 106T112 252T92 436Q92 521 117 602T191 747T313 848T481 887Q571 887 633 857T735 774T796 652T825 504L233 436ZM676 561Q671 604 657 649T616 732T550 793T457 817Q391 817 348 787T278 710T242 608T231 502L676 561ZM678 981L469 1192L262 981L221 1014L436 1333H504L719 1014L678 981Z"  />
<glyph unicode="&#xEB;" horiz-adv-x="905" d="M233 436Q235 353 251 286T301 172T391 100T528 74Q604 74 671 104T801 178H813L825 133Q825 130 826 128T827 123Q827 117 824 113T815 104Q783 77 743 54T660 13T571 -15T481 -25Q370 -25 296 10T176 106T112 252T92 436Q92 521 117 602T191 747T313 848T481 887Q571 887 633 857T735 774T796 652T825 504L233 436ZM676 561Q671 604 657 649T616 732T550 793T457 817Q391 817 348 787T278 710T242 608T231 502L676 561ZM336 1219Q350 1219 358 1210T366 1188V1092Q366 1078 358 1070T336 1061H250Q237 1061 228 1069T219 1092V1188Q219 1200 228 1209T250 1219H336ZM702 1219Q716 1219 724 1210T733 1188V1092Q733 1061 702 1061H616Q604 1061 595 1069T585 1092V1188Q585 1200 594 1209T616 1219H702Z"  />
<glyph unicode="&#xEC;" horiz-adv-x="559" d="M541 0H88V61L180 80Q194 82 202 87T216 104T223 133T225 178L227 684Q227 716 221 730T199 745Q195 745 176 738T135 722T95 705T74 696L49 758L305 893H365V117Q365 105 365 98T369 86T379 81T399 80H541V0ZM428 997L373 985L55 1272V1294L195 1331L428 997Z"  />
<glyph unicode="&#xED;" horiz-adv-x="559" d="M541 0H88V61L180 80Q194 82 202 87T216 104T223 133T225 178L227 684Q227 716 221 730T199 745Q195 745 176 738T135 722T95 705T74 696L49 758L305 893H365V117Q365 105 365 98T369 86T379 81T399 80H541V0ZM417 1331H438L555 1294V1272L235 985L182 997L417 1331Z"  />
<glyph unicode="&#xEE;" horiz-adv-x="559" d="M541 0H88V61L180 80Q194 82 202 87T216 104T223 133T225 178L227 684Q227 716 221 730T199 745Q195 745 176 738T135 722T95 705T74 696L49 758L305 893H365V117Q365 105 365 98T369 86T379 81T399 80H541V0ZM502 981L293 1192L86 981L45 1014L260 1333H328L543 1014L502 981Z"  />
<glyph unicode="&#xEF;" horiz-adv-x="559" d="M541 0H88V61L180 80Q194 82 202 87T216 104T223 133T225 178L227 684Q227 716 221 730T199 745Q195 745 176 738T135 722T95 705T74 696L49 758L305 893H365V117Q365 105 365 98T369 86T379 81T399 80H541V0ZM136 1219Q150 1219 158 1210T166 1188V1092Q166 1078 158 1070T136 1061H50Q37 1061 28 1069T19 1092V1188Q19 1200 28 1209T50 1219H136ZM502 1219Q516 1219 524 1210T533 1188V1092Q533 1061 502 1061H416Q404 1061 395 1069T385 1092V1188Q385 1200 394 1209T416 1219H502Z"  />
<glyph unicode="&#xF0;" horiz-adv-x="1104" d="M784 39Q729 8 661 -9T524 -27Q429 -27 350 6T213 99T123 239T90 416Q90 513 125 598T223 748T368 848T549 885Q606 885 658 870T764 817Q743 861 725 899T688 973T651 1043T610 1116L442 1026L399 1106L567 1194L481 1362L582 1415L676 1253L842 1341L883 1262L717 1174Q804 1024 862 915T954 720T1002 567T1016 430Q1016 372 999 315T952 207T879 112T784 39ZM543 815Q473 815 416 787T318 711T255 597T233 459Q233 377 252 303T312 171T413 81T557 47Q638 47 698 76T797 156T855 274T874 416Q874 497 854 569T792 696T688 783T543 815Z"  />
<glyph unicode="&#xF1;" horiz-adv-x="1153" d="M1130 0H705V61L797 78Q818 83 825 96T834 117Q839 152 839 191T840 266V535Q840 580 836 625T814 706T763 765T670 788Q628 788 585 775T500 740T421 694T352 645V111Q352 94 357 87T391 80H512V0H80V61L156 78Q177 82 188 88T205 106T212 135T213 178V692Q213 752 184 752Q178 752 171 750T152 743Q132 734 115 727Q101 721 88 716T70 709L51 768L297 897H354L348 719Q387 748 432 778T525 834T625 875T729 891Q815 891 864 863T939 786T972 675T979 543V111Q979 88 985 84T1014 80H1130V0ZM912 1253Q858 1151 808 1104T701 1057Q686 1057 671 1060T639 1070T602 1088T557 1118Q533 1134 518 1143T491 1158T471 1165T449 1167Q431 1167 416 1162T384 1143T349 1106T305 1047L260 1077Q317 1186 365 1233T467 1280Q481 1280 491 1279T515 1271T549 1253T604 1219Q686 1169 719 1169Q797 1169 867 1288L912 1253Z"  />
<glyph unicode="&#xF2;" horiz-adv-x="1104" d="M1016 453Q1016 351 980 264T878 112T723 12T526 -25Q427 -25 346 8T208 101T120 241T88 418Q88 519 125 605T227 755T380 853T573 889Q673 889 755 857T895 766T984 628T1016 453ZM872 416Q872 485 854 556T797 684T695 778T543 815Q467 815 409 785T310 707T250 596T229 469Q229 421 236 371T260 274T301 186T364 114T449 65T559 47Q639 47 698 78T795 160T853 277T872 416ZM692 997L637 985L319 1272V1294L459 1331L692 997Z"  />
<glyph unicode="&#xF3;" horiz-adv-x="1104" d="M1016 453Q1016 351 980 264T878 112T723 12T526 -25Q427 -25 346 8T208 101T120 241T88 418Q88 519 125 605T227 755T380 853T573 889Q673 889 755 857T895 766T984 628T1016 453ZM872 416Q872 485 854 556T797 684T695 778T543 815Q467 815 409 785T310 707T250 596T229 469Q229 421 236 371T260 274T301 186T364 114T449 65T559 47Q639 47 698 78T795 160T853 277T872 416ZM655 1331H676L793 1294V1272L473 985L420 997L655 1331Z"  />
<glyph unicode="&#xF4;" horiz-adv-x="1104" d="M1016 453Q1016 351 980 264T878 112T723 12T526 -25Q427 -25 346 8T208 101T120 241T88 418Q88 519 125 605T227 755T380 853T573 889Q673 889 755 857T895 766T984 628T1016 453ZM872 416Q872 485 854 556T797 684T695 778T543 815Q467 815 409 785T310 707T250 596T229 469Q229 421 236 371T260 274T301 186T364 114T449 65T559 47Q639 47 698 78T795 160T853 277T872 416ZM760 981L551 1192L344 981L303 1014L518 1333H586L801 1014L760 981Z"  />
<glyph unicode="&#xF5;" horiz-adv-x="1104" d="M1016 453Q1016 351 980 264T878 112T723 12T526 -25Q427 -25 346 8T208 101T120 241T88 418Q88 519 125 605T227 755T380 853T573 889Q673 889 755 857T895 766T984 628T1016 453ZM872 416Q872 485 854 556T797 684T695 778T543 815Q467 815 409 785T310 707T250 596T229 469Q229 421 236 371T260 274T301 186T364 114T449 65T559 47Q639 47 698 78T795 160T853 277T872 416ZM893 1253Q839 1151 789 1104T682 1057Q667 1057 652 1060T620 1070T583 1088T538 1118Q514 1134 499 1143T472 1158T452 1165T430 1167Q412 1167 397 1162T365 1143T330 1106T286 1047L241 1077Q298 1186 346 1233T448 1280Q462 1280 472 1279T496 1271T530 1253T585 1219Q667 1169 700 1169Q778 1169 848 1288L893 1253Z"  />
<glyph unicode="&#xF6;" horiz-adv-x="1104" d="M1016 453Q1016 351 980 264T878 112T723 12T526 -25Q427 -25 346 8T208 101T120 241T88 418Q88 519 125 605T227 755T380 853T573 889Q673 889 755 857T895 766T984 628T1016 453ZM872 416Q872 485 854 556T797 684T695 778T543 815Q467 815 409 785T310 707T250 596T229 469Q229 421 236 371T260 274T301 186T364 114T449 65T559 47Q639 47 698 78T795 160T853 277T872 416ZM422 1219Q436 1219 444 1210T452 1188V1092Q452 1078 444 1070T422 1061H336Q323 1061 314 1069T305 1092V1188Q305 1200 314 1209T336 1219H422ZM788 1219Q802 1219 810 1210T819 1188V1092Q819 1061 788 1061H702Q690 1061 681 1069T671 1092V1188Q671 1200 680 1209T702 1219H788Z"  />
<glyph unicode="&#xF7;" horiz-adv-x="1081" d="M121 705H958V596H121V705ZM453 958Q453 977 460 994T479 1024T509 1044T545 1051Q564 1051 581 1044T610 1024T630 994T637 958Q637 939 630 922T611 892T581 872T545 864Q526 864 509 871T480 892T460 922T453 958ZM446 342Q446 361 453 378T473 407T503 427T541 434Q560 434 577 427T606 408T626 378T633 342Q633 323 626 306T607 276T577 256T541 248Q521 248 504 255T473 276T453 306T446 342Z"  />
<glyph unicode="&#xF8;" horiz-adv-x="1104" d="M739 748Q702 780 654 797T543 815Q467 815 409 785T310 707T250 596T229 469Q229 391 249 310T319 160L739 748ZM367 115Q402 84 450 66T559 47Q639 47 698 78T795 160T853 277T872 416Q872 490 852 566T784 702L367 115ZM874 934H956L858 797Q933 738 974 650T1016 453Q1016 351 980 264T878 112T723 12T526 -25Q463 -25 408 -11T305 29L223 -84H139L248 66Q172 126 130 216T88 418Q88 519 125 605T227 755T380 853T573 889Q702 889 803 834L874 934Z"  />
<glyph unicode="&#xF9;" horiz-adv-x="1124" d="M1098 57L858 -8H788Q789 -4 790 11Q791 24 791 49T793 119Q734 78 683 51T586 6T500 -18T422 -25Q357 -25 312 -7T237 51T194 152T180 299Q180 349 182 401T186 506T191 606T193 696Q193 728 189 745T162 762H150L55 750L51 813L281 879H336Q333 799 330 717T325 560T321 421T319 315Q319 270 324 228T346 153T395 100T481 80Q523 80 559 85T632 104T707 137T793 186L801 721Q801 749 795 762T768 776Q766 776 748 775T719 774L649 770V836L885 879H940Q940 832 939 773T936 647T934 513T931 379T929 255T928 150Q928 124 933 113T954 102H965L1098 121V57ZM655 997L600 985L282 1272V1294L422 1331L655 997Z"  />
<glyph unicode="&#xFA;" horiz-adv-x="1124" d="M1098 57L858 -8H788Q789 -4 790 11Q791 24 791 49T793 119Q734 78 683 51T586 6T500 -18T422 -25Q357 -25 312 -7T237 51T194 152T180 299Q180 349 182 401T186 506T191 606T193 696Q193 728 189 745T162 762H150L55 750L51 813L281 879H336Q333 799 330 717T325 560T321 421T319 315Q319 270 324 228T346 153T395 100T481 80Q523 80 559 85T632 104T707 137T793 186L801 721Q801 749 795 762T768 776Q766 776 748 775T719 774L649 770V836L885 879H940Q940 832 939 773T936 647T934 513T931 379T929 255T928 150Q928 124 933 113T954 102H965L1098 121V57ZM694 1331H715L832 1294V1272L512 985L459 997L694 1331Z"  />
<glyph unicode="&#xFB;" horiz-adv-x="1124" d="M1098 57L858 -8H788Q789 -4 790 11Q791 24 791 49T793 119Q734 78 683 51T586 6T500 -18T422 -25Q357 -25 312 -7T237 51T194 152T180 299Q180 349 182 401T186 506T191 606T193 696Q193 728 189 745T162 762H150L55 750L51 813L281 879H336Q333 799 330 717T325 560T321 421T319 315Q319 270 324 228T346 153T395 100T481 80Q523 80 559 85T632 104T707 137T793 186L801 721Q801 749 795 762T768 776Q766 776 748 775T719 774L649 770V836L885 879H940Q940 832 939 773T936 647T934 513T931 379T929 255T928 150Q928 124 933 113T954 102H965L1098 121V57ZM766 981L557 1192L350 981L309 1014L524 1333H592L807 1014L766 981Z"  />
<glyph unicode="&#xFC;" horiz-adv-x="1124" d="M1098 57L858 -8H788Q789 -4 790 11Q791 24 791 49T793 119Q734 78 683 51T586 6T500 -18T422 -25Q357 -25 312 -7T237 51T194 152T180 299Q180 349 182 401T186 506T191 606T193 696Q193 728 189 745T162 762H150L55 750L51 813L281 879H336Q333 799 330 717T325 560T321 421T319 315Q319 270 324 228T346 153T395 100T481 80Q523 80 559 85T632 104T707 137T793 186L801 721Q801 749 795 762T768 776Q766 776 748 775T719 774L649 770V836L885 879H940Q940 832 939 773T936 647T934 513T931 379T929 255T928 150Q928 124 933 113T954 102H965L1098 121V57ZM428 1219Q442 1219 450 1210T458 1188V1092Q458 1078 450 1070T428 1061H342Q329 1061 320 1069T311 1092V1188Q311 1200 320 1209T342 1219H428ZM794 1219Q808 1219 816 1210T825 1188V1092Q825 1061 794 1061H708Q696 1061 687 1069T677 1092V1188Q677 1200 686 1209T708 1219H794Z"  />
<glyph unicode="&#xFD;" horiz-adv-x="948" d="M973 809L918 797Q898 792 889 777T866 735L514 39Q451 -87 389 -209T258 -465Q254 -472 249 -483T236 -506T220 -526T201 -535Q190 -535 177 -532T150 -526T123 -518T100 -510L96 -489Q133 -443 168 -396T240 -291T319 -162T412 4Q340 193 271 378T127 750Q109 795 84 795H43V864H401V809L311 797Q294 794 284 789T274 766Q274 754 278 735T295 684L494 147Q510 182 531 227T575 322T623 424T671 526T713 620T748 700Q766 746 766 766Q766 783 756 789T727 795H645V864H973V809ZM616 1331H637L754 1294V1272L434 985L381 997L616 1331Z"  />
<glyph unicode="&#xFE;" horiz-adv-x="1128" d="M1044 481Q1044 410 1030 352T987 244T918 154T823 76Q790 53 752 38T673 13T593 -1T518 -6Q472 -6 429 -2T336 12V-420Q336 -445 343 -453T373 -461H516V-539H66L68 -475L160 -461Q183 -458 191 -440T199 -379V1241Q199 1284 193 1298T174 1313Q171 1313 168 1313T160 1311L76 1284L57 1350L295 1446H338L336 786Q375 805 416 823T499 856T585 880T674 889Q766 889 835 858T951 771T1021 642T1044 481ZM909 428Q909 512 890 578T831 691T729 761T582 786Q511 786 454 768T336 725V129Q366 116 393 107T446 93T499 85T559 82Q643 82 708 106T818 176T886 285T909 428Z"  />
<glyph unicode="&#xFF;" horiz-adv-x="948" d="M973 809L918 797Q898 792 889 777T866 735L514 39Q451 -87 389 -209T258 -465Q254 -472 249 -483T236 -506T220 -526T201 -535Q190 -535 177 -532T150 -526T123 -518T100 -510L96 -489Q133 -443 168 -396T240 -291T319 -162T412 4Q340 193 271 378T127 750Q109 795 84 795H43V864H401V809L311 797Q294 794 284 789T274 766Q274 754 278 735T295 684L494 147Q510 182 531 227T575 322T623 424T671 526T713 620T748 700Q766 746 766 766Q766 783 756 789T727 795H645V864H973V809ZM369 1219Q383 1219 391 1210T399 1188V1092Q399 1078 391 1070T369 1061H283Q270 1061 261 1069T252 1092V1188Q252 1200 261 1209T283 1219H369ZM735 1219Q749 1219 757 1210T766 1188V1092Q766 1061 735 1061H649Q637 1061 628 1069T618 1092V1188Q618 1200 627 1209T649 1219H735Z"  />
<glyph unicode="&#x131;" horiz-adv-x="559" d="M541 0H88V61L180 80Q194 82 202 87T216 104T223 133T225 178L227 684Q227 716 221 730T199 745Q195 745 176 738T135 722T95 705T74 696L49 758L305 893H365V117Q365 105 365 98T369 86T379 81T399 80H541V0Z"  />
<glyph unicode="&#x152;" horiz-adv-x="2107" d="M1114 0Q1054 -11 981 -18T831 -25Q675 -25 545 16T322 138T176 340T123 623Q123 801 185 932T354 1151T601 1280T899 1323Q970 1323 1035 1316T1169 1298H1993L1960 1034H1880L1872 1163Q1870 1186 1856 1202T1810 1219Q1689 1219 1564 1222T1305 1225V725Q1416 725 1515 726T1714 731Q1730 732 1740 736T1755 748T1764 768T1769 795L1784 883H1860V502H1784L1769 590Q1764 618 1753 628T1714 641Q1611 644 1510 644T1305 647V109Q1305 90 1315 84T1341 78Q1444 78 1545 79T1749 86Q1777 87 1797 90T1832 101T1858 126T1880 168L1937 313L2011 291L1950 0H1114ZM1153 1143Q1153 1186 1078 1210T852 1235Q723 1235 618 1199T437 1089T320 906T279 649Q279 520 318 412T431 225T611 103T852 59Q932 59 989 63T1082 81T1136 117T1153 178V1143Z"  />
<glyph unicode="&#x153;" horiz-adv-x="1628" d="M975 436Q977 427 977 418T977 401Q982 335 998 277T1048 175T1133 106T1260 80Q1328 80 1389 105T1511 168L1528 178L1538 176L1548 133Q1548 130 1549 127T1550 121Q1550 115 1548 109T1540 100Q1506 73 1467 51T1386 11T1301 -15T1214 -25Q1147 -25 1095 -13T1002 23T932 80T883 156Q821 72 726 24T510 -25Q420 -25 343 8T209 100T120 240T88 418Q88 520 123 606T221 755T368 853T551 889Q669 889 758 845T905 715Q953 793 1029 841T1210 889Q1296 889 1358 859T1461 777T1523 654T1550 504L975 436ZM1403 561Q1397 612 1381 659T1337 742T1274 799T1190 821Q1132 821 1092 796T1025 728T987 626T975 502L1403 561ZM528 813Q463 813 410 789T319 721T259 616T238 483Q238 393 257 314T315 176T410 82T543 47Q614 47 668 77T758 160T812 284T831 436Q831 520 808 589T744 708T648 785T528 813Z"  />
<glyph unicode="&#x160;" horiz-adv-x="1081" d="M985 358Q985 284 965 227T909 127T825 55T719 8T599 -17T473 -25Q392 -25 311 -16T152 14Q138 17 135 26T129 47L104 266L203 285Q208 262 212 241Q216 223 220 203T229 168Q237 134 252 119T299 92Q345 78 394 71T494 63Q560 63 622 75T734 117T812 197T842 326Q842 363 833 397T799 461Q777 489 743 510T669 549T589 581T518 608Q423 646 353 679T236 752T166 842T143 965Q143 1060 183 1128T287 1239T434 1303T600 1323Q672 1323 745 1319T891 1300Q905 1298 912 1295T923 1288T928 1276T930 1257Q931 1231 932 1197T935 1132Q937 1096 938 1059L844 1049L827 1163Q825 1181 820 1192T805 1210T779 1220T737 1227Q700 1232 659 1234T580 1237Q523 1237 470 1225T375 1186T308 1115T283 1008Q283 973 291 940T319 877Q344 841 386 815T479 766T588 725T702 682T809 631T900 565T962 477T985 358ZM373 1763L582 1552L789 1763L830 1730L615 1411H547L332 1730L373 1763Z"  />
<glyph unicode="&#x161;" horiz-adv-x="791" d="M715 229Q715 175 689 129T615 48T497 -5T342 -25Q274 -25 214 -18T111 -2Q97 0 94 0T88 16L63 186L156 207L178 131Q184 113 188 102T198 85T212 74T236 66Q282 49 377 49Q474 49 528 88T582 199Q582 231 573 256T541 302T478 344T373 387Q319 406 270 426T182 474T121 541T98 637Q98 695 123 741T193 821T299 871T432 889Q474 889 503 888T557 884T604 876T653 864Q662 862 667 860T675 855T678 847T680 834L688 686L600 678L586 756Q584 766 581 773T570 785T550 795T516 805Q493 811 468 812T418 813Q330 813 281 776T231 674Q231 638 239 613T272 568T339 528T453 483Q504 465 551 445T635 397T693 329T715 229ZM215 1333L424 1122L631 1333L672 1300L457 981H389L174 1300L215 1333Z"  />
<glyph unicode="&#x178;" horiz-adv-x="1169" d="M1178 1241Q1162 1238 1146 1235T1114 1227Q1092 1222 1082 1212T1059 1184L655 578V113Q655 97 662 88T686 78H870V0H322V61L455 78Q486 81 497 104T508 178V559Q409 721 315 879T119 1202Q109 1218 101 1221T76 1225H27V1298H434V1241L362 1233Q355 1232 344 1232T322 1229T302 1221T293 1204Q293 1199 294 1192T299 1180Q331 1124 371 1055T455 913T539 772T614 645Q644 692 685 758T768 894T849 1029T915 1139Q931 1163 937 1179T944 1204Q944 1217 935 1221T903 1225H793V1298H1178V1241ZM443 1649Q457 1649 465 1640T473 1618V1522Q473 1508 465 1500T443 1491H357Q344 1491 335 1499T326 1522V1618Q326 1630 335 1639T357 1649H443ZM809 1649Q823 1649 831 1640T840 1618V1522Q840 1491 809 1491H723Q711 1491 702 1499T692 1522V1618Q692 1630 701 1639T723 1649H809Z"  />
<glyph unicode="&#x17D;" horiz-adv-x="1212" d="M1141 336L1069 0H74V68L956 1225Q807 1225 666 1222T377 1217Q348 1217 330 1215T300 1205T279 1185T262 1149Q235 1081 211 1014L129 1028L197 1298H1128V1241L252 78Q357 80 460 81T670 84Q722 86 775 86T881 92Q904 93 920 97T948 109T969 131T987 166Q997 189 1010 220T1035 281Q1049 314 1063 350L1141 336ZM416 1763L625 1552L832 1763L873 1730L658 1411H590L375 1730L416 1763Z"  />
<glyph unicode="&#x17E;" horiz-adv-x="862" d="M827 225L778 0H57V68L645 791Q567 790 494 789Q463 789 430 789T364 787T303 786T250 784Q222 784 212 775T193 743L152 643L80 659L123 864H813V813L209 70Q260 71 319 73T439 76T554 80T651 86Q676 88 690 101T713 129L766 244L827 225ZM254 1333L463 1122L670 1333L711 1300L496 981H428L213 1300L254 1333Z"  />
<glyph unicode="&#x192;" horiz-adv-x="1081" d="M1108 1221Q1114 1207 1114 1192Q1114 1181 1110 1171T1096 1155L1028 1122H997Q994 1141 992 1149T983 1169Q972 1191 939 1205T848 1219Q782 1219 738 1195T664 1128T619 1031T592 915L581 849Q576 822 572 794T563 745H823L803 657H547L453 125Q440 50 424 -6T387 -107T340 -186T281 -252Q264 -267 242 -283T193 -313T134 -335T63 -344Q48 -344 21 -338T-27 -317Q-44 -305 -47 -299T-51 -281Q-51 -270 -49 -265T-41 -252L2 -199H35Q56 -223 84 -231T145 -240Q184 -240 210 -213T254 -141Q281 -68 299 41Q314 131 327 204T352 348T378 492T408 657H236L256 729L424 743Q427 759 430 779T438 818Q442 839 446 860Q457 916 470 961T504 1045T552 1120T623 1196Q683 1255 755 1289T903 1323Q931 1323 962 1319T1021 1304T1072 1273T1108 1221Z"  />
<glyph unicode="&#x2C6;" horiz-adv-x="1024" d="M721 981L512 1192L305 981L264 1014L479 1333H547L762 1014L721 981Z"  />
<glyph unicode="&#x2C7;" horiz-adv-x="1024" d="M305 1333L514 1122L721 1333L762 1300L547 981H479L264 1300L305 1333Z"  />
<glyph unicode="&#x2DA;" horiz-adv-x="1024" d="M510 981Q468 981 432 995T368 1035T326 1095T311 1169Q311 1209 326 1244T369 1304T434 1345T516 1360Q558 1360 594 1345T657 1304T699 1243T715 1169Q715 1129 700 1095T657 1036T592 996T510 981ZM514 1292Q488 1292 467 1283T430 1257T406 1218T397 1169Q397 1142 405 1119T430 1078T467 1052T514 1042Q567 1042 598 1076T629 1165Q629 1219 598 1255T514 1292Z"  />
<glyph unicode="&#x2DC;" horiz-adv-x="1024" d="M840 1253Q786 1151 736 1104T629 1057Q614 1057 599 1060T567 1070T530 1088T485 1118Q461 1134 446 1143T419 1158T399 1165T377 1167Q359 1167 344 1162T312 1143T277 1106T233 1047L188 1077Q245 1186 293 1233T395 1280Q409 1280 419 1279T443 1271T477 1253T532 1219Q614 1169 647 1169Q725 1169 795 1288L840 1253Z"  />
<glyph unicode="&#x2013;" horiz-adv-x="946" d="M852 434H94V532H852V434Z"  />
<glyph unicode="&#x2014;" horiz-adv-x="1479" d="M1403 434H76V532H1403V434Z"  />
<glyph unicode="&#x2018;" horiz-adv-x="492" d="M326 1251Q304 1230 286 1210T255 1166T235 1115T227 1055V1026Q227 1021 229 1017T231 1010Q235 1003 243 999T262 992T281 986T297 979Q311 971 311 948V872Q311 840 279 840H170Q156 840 148 848T139 870V961Q139 1045 150 1097T184 1188Q198 1208 214 1225T250 1262Q270 1280 294 1301T350 1348L387 1309L326 1251Z"  />
<glyph unicode="&#x2019;" horiz-adv-x="492" d="M322 1204Q322 1123 312 1072T276 981Q264 961 248 943T211 905Q191 887 167 866T113 819L80 856Q111 882 139 909T190 966T225 1031T238 1110Q238 1130 235 1142T226 1161T215 1171T201 1176Q193 1178 186 1178T172 1184Q158 1191 158 1214V1294Q158 1310 166 1316T188 1323H295Q307 1323 314 1316T322 1296V1204Z"  />
<glyph unicode="&#x201A;" horiz-adv-x="492" d="M326 51Q326 -30 316 -82T283 -174Q270 -194 254 -212T217 -250Q197 -268 173 -289T117 -336L78 -295Q93 -279 108 -267T137 -240Q159 -219 178 -198T210 -153T230 -102T238 -43V-14Q238 -5 233 2Q230 10 222 14T204 20T185 25T168 33Q162 38 158 44T154 63V139Q154 172 186 172H297Q309 172 317 164T326 143V51Z"  />
<glyph unicode="&#x201C;" horiz-adv-x="860" d="M326 1251Q304 1230 286 1210T255 1166T235 1115T227 1055V1026Q227 1021 229 1017T231 1010Q235 1003 243 999T262 992T281 986T297 979Q311 971 311 948V872Q311 840 279 840H170Q156 840 148 848T139 870V961Q139 1045 150 1097T184 1188Q198 1208 214 1225T250 1262Q270 1280 294 1301T350 1348L387 1309L326 1251ZM694 1251Q673 1230 655 1210T624 1166T604 1115T596 1055V1026Q596 1021 598 1017T600 1010Q604 1003 612 999T630 992T650 986T666 979Q680 971 680 948V872Q680 840 647 840H539Q525 840 517 848T508 870V961Q508 1045 519 1097T553 1188Q567 1208 582 1225T618 1262Q638 1280 663 1301T719 1348L756 1309L694 1251Z"  />
<glyph unicode="&#x201D;" horiz-adv-x="860" d="M319 1204Q319 1163 317 1131T309 1072T295 1023T274 981Q262 961 246 943T209 905Q189 887 165 866T111 819L78 856Q109 882 137 909T188 966T223 1031T236 1110Q236 1130 233 1142T224 1161T213 1171T199 1176Q191 1178 184 1178T170 1184Q156 1191 156 1214V1294Q156 1310 164 1316T186 1323H293Q319 1323 319 1296V1204ZM694 1204Q694 1163 692 1131T684 1072T670 1023T649 981Q637 961 621 943T584 905Q564 887 539 866T485 819L453 856Q484 882 512 909T562 966T597 1031T610 1110Q610 1130 607 1142T599 1161T587 1171T573 1176Q565 1178 558 1178T545 1184Q539 1187 535 1194T530 1214V1294Q530 1310 538 1316T561 1323H668Q694 1323 694 1296V1204Z"  />
<glyph unicode="&#x201E;" horiz-adv-x="860" d="M694 51Q694 10 692 -23T684 -83T670 -132T649 -174Q637 -194 622 -212T586 -250Q564 -270 539 -290T483 -336L444 -295Q461 -279 476 -267T506 -240Q528 -219 546 -198T577 -154T597 -103T604 -43V-14Q604 -9 604 -5T602 2Q598 10 590 14T572 20T552 25T535 33Q528 38 525 44T522 63V139Q522 156 531 164T555 172H664Q678 172 686 164T694 143V51ZM326 51Q326 -30 316 -82T283 -174Q270 -194 254 -212T217 -250Q197 -268 173 -289T117 -336L78 -295Q93 -279 108 -267T137 -240Q159 -219 178 -198T210 -153T230 -102T238 -43V-14Q238 -5 233 2Q230 10 222 14T204 20T185 25T168 33Q162 38 158 44T154 63V139Q154 172 186 172H297Q309 172 317 164T326 143V51Z"  />
<glyph unicode="&#x2020;" horiz-adv-x="1100" d="M973 672H872L600 698L621 356L600 -496H502L481 356L502 698L227 672H127V807H227L502 786L477 1171V1298H625V1171L598 786L872 807H973V672Z"  />
<glyph unicode="&#x2021;" horiz-adv-x="1100" d="M502 719L227 692H127V827H227L502 807L477 1171V1298H625V1171L598 807L872 827H973V692H872L598 719L621 418L598 117L872 143H973V8H872L598 29L625 -334V-481H477V-334L502 29L227 8H127V143H227L502 117L481 418L502 719Z"  />
<glyph unicode="&#x2022;" horiz-adv-x="1298" d="M922 662Q922 606 901 557T843 470T757 412T651 391Q595 391 546 412T460 470T402 556T381 662Q381 719 402 768T461 853T548 911T655 932Q710 932 758 911T843 852T901 766T922 662Z"  />
<glyph unicode="&#x2026;" horiz-adv-x="1665" d="M358 25Q358 14 351 6T332 -2H205Q194 -2 186 6T178 25V143Q178 170 205 170H332Q343 170 350 162T358 143V25ZM924 27Q924 16 916 8T897 0H770Q759 0 751 8T743 27V145Q743 158 751 164T770 170H897Q908 170 916 163T924 145V27ZM1489 25Q1489 14 1481 6T1462 -2H1335Q1324 -2 1317 6T1309 25V143Q1309 156 1316 162T1335 168H1462Q1473 168 1481 161T1489 143V25Z"  />
<glyph unicode="&#x2030;" horiz-adv-x="2128" d="M643 963Q643 878 622 811T561 697T468 625T346 600Q278 600 224 626T130 699T70 813T49 963Q49 1039 69 1104T127 1218T220 1293T346 1321Q413 1321 468 1295T562 1222T622 1109T643 963ZM346 1253Q304 1253 271 1233T215 1175T180 1084T168 963Q168 895 180 841T216 748T272 689T346 668Q428 668 476 744T524 963Q524 1027 512 1080T477 1172T421 1232T346 1253ZM1108 1300H1208L317 -20H217L1108 1300ZM1386 338Q1386 254 1365 187T1305 72T1212 0T1090 -25Q1022 -25 967 1T874 74T814 189T793 338Q793 416 813 481T871 594T964 669T1090 696Q1157 696 1212 670T1305 597T1365 484T1386 338ZM1090 629Q1048 629 1015 609T958 550T923 459T911 338Q911 270 923 216T959 123T1016 64T1090 43Q1171 43 1219 120T1268 338Q1268 402 1256 456T1220 548T1164 607T1090 629ZM2079 338Q2079 254 2058 187T1997 72T1904 0T1782 -25Q1714 -25 1660 1T1566 74T1506 189T1485 338Q1485 416 1505 481T1563 594T1656 669T1782 696Q1849 696 1904 670T1998 597T2058 484T2079 338ZM1782 629Q1740 629 1707 609T1651 550T1616 459T1604 338Q1604 270 1616 216T1652 123T1708 64T1782 43Q1863 43 1911 120T1960 338Q1960 402 1948 456T1912 548T1856 607T1782 629Z"  />
<glyph unicode="&#x2039;" horiz-adv-x="623" d="M483 66L113 434L483 809L530 778L299 434L530 94L483 66Z"  />
<glyph unicode="&#x203A;" horiz-adv-x="623" d="M139 66L92 96L324 440L92 780L139 809L510 440L139 66Z"  />
<glyph unicode="&#x20AC;" horiz-adv-x="1081" d="M1030 248Q1019 194 1009 140T983 31Q981 28 977 25T969 20Q938 8 902 0T828 -14T754 -22T686 -25Q577 -25 486 5T326 100T214 263T156 500H8L39 580H152Q152 615 152 651T156 729H8L39 807H164Q182 922 226 1017T342 1180T514 1285T745 1323Q764 1323 792 1322T851 1318T914 1311T970 1300T1010 1286T1026 1268Q1026 1263 1025 1263T1024 1255L993 1030H907L905 1151Q904 1171 902 1182T897 1201T890 1211T881 1217Q840 1232 790 1235T702 1239Q527 1239 427 1134T301 807H838L807 729H297Q294 695 294 659T293 580H748L719 500H297Q341 61 696 61Q733 61 776 65T852 82Q872 90 880 100T897 133L942 262L1030 248Z"  />
<glyph unicode="&#x2122;" horiz-adv-x="1688" d="M733 1298L705 1139L643 1141V1229Q643 1235 639 1238T618 1241Q573 1243 531 1243T444 1245V719Q444 711 445 709T455 707H551V649H250V696L328 707Q339 709 343 715T348 745V1245Q311 1245 275 1244T201 1241Q181 1241 171 1238T156 1217L129 1137L70 1149L94 1298H733ZM1354 649V698L1413 707Q1427 709 1430 716T1434 748Q1434 856 1434 961T1432 1176L1192 659H1141L920 1174Q916 1061 915 949T913 725Q913 713 914 710T924 707H1012V649H758V696L813 707Q827 710 831 717T838 745Q841 811 845 883T852 1022T857 1142T860 1225Q860 1236 857 1239T846 1243H778V1298H967L1186 784L1421 1298H1610V1251L1546 1243Q1538 1242 1533 1241T1526 1237T1523 1227T1522 1208Q1522 1108 1523 1008T1524 807Q1524 787 1525 768T1526 725Q1526 716 1527 712T1540 707H1620V649H1354Z"  />

</font>
</defs>
</svg>
